<svg width="1280" height="720" viewBox="0 0 1280 720" fill="none" xmlns="http://www.w3.org/2000/svg">
<rect width="1280" height="720" fill="white"/>
<rect width="1280" height="64" fill="#C4C4C4"/>
<path d="M18.75 41.5H47.25V38.3333H18.75V41.5ZM18.75 33.5833H47.25V30.4167H18.75V33.5833ZM18.75 22.5V25.6667H47.25V22.5H18.75Z" fill="black"/>
<path d="M1247 16.1667C1238.26 16.1667 1231.17 23.26 1231.17 32C1231.17 40.74 1238.26 47.8334 1247 47.8334C1255.74 47.8334 1262.83 40.74 1262.83 32C1262.83 23.26 1255.74 16.1667 1247 16.1667ZM1239.19 41.9434C1239.88 40.5184 1244.02 39.125 1247 39.125C1249.98 39.125 1254.14 40.5184 1254.81 41.9434C1252.65 43.6534 1249.95 44.6667 1247 44.6667C1244.06 44.6667 1241.35 43.6534 1239.19 41.9434ZM1257.07 39.6475C1254.81 36.8925 1249.31 35.9584 1247 35.9584C1244.69 35.9584 1239.19 36.8925 1236.93 39.6475C1235.32 37.5259 1234.33 34.8817 1234.33 32C1234.33 25.0175 1240.02 19.3334 1247 19.3334C1253.98 19.3334 1259.67 25.0175 1259.67 32C1259.67 34.8817 1258.69 37.5259 1257.07 39.6475ZM1247 22.5C1243.93 22.5 1241.46 24.97 1241.46 28.0417C1241.46 31.1134 1243.93 33.5834 1247 33.5834C1250.07 33.5834 1252.54 31.1134 1252.54 28.0417C1252.54 24.97 1250.07 22.5 1247 22.5ZM1247 30.4167C1245.69 30.4167 1244.63 29.3559 1244.63 28.0417C1244.63 26.7275 1245.69 25.6667 1247 25.6667C1248.31 25.6667 1249.38 26.7275 1249.38 28.0417C1249.38 29.3559 1248.31 30.4167 1247 30.4167Z" fill="black"/>
<path d="M640 109.667C594 109.667 556.667 147 556.667 193C556.667 239 594 276.333 640 276.333C686 276.333 723.333 239 723.333 193C723.333 147 686 109.667 640 109.667ZM640 134.667C653.833 134.667 665 145.833 665 159.667C665 173.5 653.833 184.667 640 184.667C626.167 184.667 615 173.5 615 159.667C615 145.833 626.167 134.667 640 134.667ZM640 253C619.167 253 600.75 242.333 590 226.167C590.25 209.583 623.333 200.5 640 200.5C656.583 200.5 689.75 209.583 690 226.167C679.25 242.333 660.833 253 640 253Z" fill="#ACACAC"/>
<path d="M522.844 324V321.266L525.266 320.797V304.469L522.844 304V301.25H525.266H529.891L539.797 317.031L539.891 317.016V304.469L536.984 304V301.25H543.969H546.406V304L543.969 304.469V324H539.562L529.438 308.375L529.344 308.391V320.797L532.266 321.266V324H522.844ZM553.672 324.328C551.995 324.328 550.661 323.88 549.672 322.984C548.682 322.078 548.188 320.849 548.188 319.297C548.188 318.234 548.474 317.302 549.047 316.5C549.63 315.698 550.484 315.068 551.609 314.609C552.745 314.151 554.141 313.922 555.797 313.922H558.031V312.672C558.031 311.859 557.792 311.203 557.312 310.703C556.844 310.193 556.135 309.938 555.188 309.938C554.698 309.938 554.26 310 553.875 310.125C553.49 310.24 553.135 310.406 552.812 310.625L552.453 312.859H549.172L549.109 308.469C549.995 307.969 550.953 307.562 551.984 307.25C553.016 306.938 554.167 306.781 555.438 306.781C557.646 306.781 559.391 307.297 560.672 308.328C561.953 309.349 562.594 310.812 562.594 312.719V319.688C562.594 319.917 562.594 320.146 562.594 320.375C562.604 320.594 562.625 320.807 562.656 321.016L564.422 321.266V324H558.766C558.651 323.708 558.536 323.396 558.422 323.062C558.307 322.729 558.224 322.396 558.172 322.062C557.63 322.75 556.99 323.302 556.25 323.719C555.521 324.125 554.661 324.328 553.672 324.328ZM554.891 320.953C555.526 320.953 556.13 320.812 556.703 320.531C557.276 320.24 557.719 319.859 558.031 319.391V316.719H555.781C554.781 316.719 554.021 316.948 553.5 317.406C552.99 317.865 552.734 318.417 552.734 319.062C552.734 319.667 552.922 320.135 553.297 320.469C553.682 320.792 554.214 320.953 554.891 320.953ZM565.875 324V321.266L568.078 320.797V310.312L565.641 309.844V307.094H572.312L572.5 309.328C573.042 308.516 573.719 307.891 574.531 307.453C575.354 307.005 576.302 306.781 577.375 306.781C578.458 306.781 579.385 307.021 580.156 307.5C580.938 307.979 581.521 308.703 581.906 309.672C582.427 308.766 583.104 308.057 583.938 307.547C584.771 307.036 585.75 306.781 586.875 306.781C588.542 306.781 589.854 307.349 590.812 308.484C591.781 309.62 592.266 311.349 592.266 313.672V320.797L594.469 321.266V324H585.734V321.266L587.703 320.797V313.656C587.703 312.406 587.495 311.542 587.078 311.062C586.672 310.573 586.078 310.328 585.297 310.328C584.589 310.328 583.99 310.531 583.5 310.938C583.01 311.333 582.656 311.859 582.438 312.516V320.797L584.281 321.266V324H576.047V321.266L577.891 320.797V313.656C577.891 312.438 577.682 311.578 577.266 311.078C576.859 310.578 576.255 310.328 575.453 310.328C574.807 310.328 574.25 310.458 573.781 310.719C573.312 310.979 572.927 311.354 572.625 311.844V320.797L574.594 321.266V324H565.875ZM603.922 324.328C602.307 324.328 600.896 323.974 599.688 323.266C598.479 322.547 597.542 321.562 596.875 320.312C596.219 319.062 595.891 317.635 595.891 316.031V315.406C595.891 313.729 596.203 312.245 596.828 310.953C597.453 309.651 598.333 308.63 599.469 307.891C600.615 307.141 601.964 306.771 603.516 306.781C605.047 306.781 606.333 307.083 607.375 307.688C608.417 308.292 609.208 309.161 609.75 310.297C610.292 311.432 610.562 312.807 610.562 314.422V316.906H600.625L600.594 317C600.656 317.74 600.839 318.401 601.141 318.984C601.453 319.557 601.891 320.01 602.453 320.344C603.016 320.667 603.698 320.828 604.5 320.828C605.333 320.828 606.109 320.724 606.828 320.516C607.557 320.297 608.266 319.979 608.953 319.562L610.188 322.375C609.49 322.938 608.609 323.406 607.547 323.781C606.495 324.146 605.286 324.328 603.922 324.328ZM600.656 313.891H606.297V313.484C606.297 312.797 606.203 312.208 606.016 311.719C605.839 311.219 605.547 310.833 605.141 310.562C604.745 310.292 604.229 310.156 603.594 310.156C602.99 310.156 602.479 310.318 602.062 310.641C601.646 310.953 601.318 311.385 601.078 311.938C600.849 312.49 600.693 313.115 600.609 313.812L600.656 313.891ZM629.688 324.328C628.01 324.328 626.484 324.141 625.109 323.766C623.734 323.391 622.38 322.74 621.047 321.812V316.312H624.578L625.062 319.547C625.531 319.943 626.177 320.266 627 320.516C627.823 320.755 628.719 320.875 629.688 320.875C630.51 320.875 631.203 320.76 631.766 320.531C632.339 320.302 632.771 319.979 633.062 319.562C633.365 319.135 633.516 318.635 633.516 318.062C633.516 317.521 633.38 317.042 633.109 316.625C632.849 316.198 632.411 315.812 631.797 315.469C631.193 315.115 630.37 314.776 629.328 314.453C627.526 313.922 626.031 313.344 624.844 312.719C623.667 312.083 622.781 311.328 622.188 310.453C621.604 309.568 621.312 308.505 621.312 307.266C621.312 306.036 621.651 304.953 622.328 304.016C623.016 303.068 623.964 302.323 625.172 301.781C626.38 301.24 627.776 300.958 629.359 300.938C631.109 300.917 632.656 301.125 634 301.562C635.354 302 636.521 302.609 637.5 303.391V308.516H634.078L633.484 305.391C633.089 305.141 632.552 304.922 631.875 304.734C631.208 304.547 630.448 304.453 629.594 304.453C628.865 304.453 628.219 304.562 627.656 304.781C627.104 305 626.667 305.318 626.344 305.734C626.021 306.151 625.859 306.656 625.859 307.25C625.859 307.76 626 308.208 626.281 308.594C626.562 308.969 627.031 309.328 627.688 309.672C628.354 310.005 629.271 310.365 630.438 310.75C632.948 311.448 634.849 312.37 636.141 313.516C637.443 314.661 638.094 316.167 638.094 318.031C638.094 319.323 637.745 320.443 637.047 321.391C636.349 322.328 635.37 323.052 634.109 323.562C632.849 324.073 631.375 324.328 629.688 324.328ZM647.188 324.328C645.406 324.328 644.005 323.766 642.984 322.641C641.974 321.505 641.469 319.745 641.469 317.359V310.312L639.609 309.844V307.094H641.469H646.031V317.391C646.031 318.599 646.24 319.469 646.656 320C647.083 320.521 647.724 320.781 648.578 320.781C649.255 320.781 649.854 320.651 650.375 320.391C650.896 320.12 651.323 319.74 651.656 319.25V310.312L649.641 309.844V307.094H651.656H656.219V320.797L658.25 321.266V324H652.219L651.906 321.859C651.375 322.651 650.708 323.26 649.906 323.688C649.104 324.115 648.198 324.328 647.188 324.328ZM660.297 324V321.266L662.484 320.797V310.312L660.062 309.844V307.094H666.734L666.906 309.188L666.938 309.562C667.354 308.646 667.87 307.953 668.484 307.484C669.099 307.016 669.833 306.781 670.688 306.781C670.958 306.781 671.255 306.807 671.578 306.859C671.901 306.901 672.188 306.958 672.438 307.031L671.953 311.234L669.688 311.109C669.042 311.078 668.516 311.188 668.109 311.438C667.714 311.688 667.359 312.047 667.047 312.516V320.797L669.234 321.266V324H660.297ZM673.75 324V321.266L675.938 320.797V310.312L673.516 309.844V307.094H680.188L680.391 309.516C680.953 308.651 681.646 307.979 682.469 307.5C683.302 307.021 684.25 306.781 685.312 306.781C686.99 306.781 688.302 307.318 689.25 308.391C690.198 309.464 690.672 311.146 690.672 313.438V320.797L692.859 321.266V324H684.141V321.266L686.094 320.797V313.453C686.094 312.318 685.87 311.516 685.422 311.047C684.974 310.568 684.307 310.328 683.422 310.328C682.766 310.328 682.193 310.469 681.703 310.75C681.224 311.021 680.823 311.411 680.5 311.922V320.797L682.344 321.266V324H673.75ZM700.016 324.328C698.339 324.328 697.005 323.88 696.016 322.984C695.026 322.078 694.531 320.849 694.531 319.297C694.531 318.234 694.818 317.302 695.391 316.5C695.974 315.698 696.828 315.068 697.953 314.609C699.089 314.151 700.484 313.922 702.141 313.922H704.375V312.672C704.375 311.859 704.135 311.203 703.656 310.703C703.188 310.193 702.479 309.938 701.531 309.938C701.042 309.938 700.604 310 700.219 310.125C699.833 310.24 699.479 310.406 699.156 310.625L698.797 312.859H695.516L695.453 308.469C696.339 307.969 697.297 307.562 698.328 307.25C699.359 306.938 700.51 306.781 701.781 306.781C703.99 306.781 705.734 307.297 707.016 308.328C708.297 309.349 708.938 310.812 708.938 312.719V319.688C708.938 319.917 708.938 320.146 708.938 320.375C708.948 320.594 708.969 320.807 709 321.016L710.766 321.266V324H705.109C704.995 323.708 704.88 323.396 704.766 323.062C704.651 322.729 704.568 322.396 704.516 322.062C703.974 322.75 703.333 323.302 702.594 323.719C701.865 324.125 701.005 324.328 700.016 324.328ZM701.234 320.953C701.87 320.953 702.474 320.812 703.047 320.531C703.62 320.24 704.062 319.859 704.375 319.391V316.719H702.125C701.125 316.719 700.365 316.948 699.844 317.406C699.333 317.865 699.078 318.417 699.078 319.062C699.078 319.667 699.266 320.135 699.641 320.469C700.026 320.792 700.557 320.953 701.234 320.953ZM712.219 324V321.266L714.422 320.797V310.312L711.984 309.844V307.094H718.656L718.844 309.328C719.385 308.516 720.062 307.891 720.875 307.453C721.698 307.005 722.646 306.781 723.719 306.781C724.802 306.781 725.729 307.021 726.5 307.5C727.281 307.979 727.865 308.703 728.25 309.672C728.771 308.766 729.448 308.057 730.281 307.547C731.115 307.036 732.094 306.781 733.219 306.781C734.885 306.781 736.198 307.349 737.156 308.484C738.125 309.62 738.609 311.349 738.609 313.672V320.797L740.812 321.266V324H732.078V321.266L734.047 320.797V313.656C734.047 312.406 733.839 311.542 733.422 311.062C733.016 310.573 732.422 310.328 731.641 310.328C730.932 310.328 730.333 310.531 729.844 310.938C729.354 311.333 729 311.859 728.781 312.516V320.797L730.625 321.266V324H722.391V321.266L724.234 320.797V313.656C724.234 312.438 724.026 311.578 723.609 311.078C723.203 310.578 722.599 310.328 721.797 310.328C721.151 310.328 720.594 310.458 720.125 310.719C719.656 310.979 719.271 311.354 718.969 311.844V320.797L720.938 321.266V324H712.219ZM750.266 324.328C748.651 324.328 747.24 323.974 746.031 323.266C744.823 322.547 743.885 321.562 743.219 320.312C742.562 319.062 742.234 317.635 742.234 316.031V315.406C742.234 313.729 742.547 312.245 743.172 310.953C743.797 309.651 744.677 308.63 745.812 307.891C746.958 307.141 748.307 306.771 749.859 306.781C751.391 306.781 752.677 307.083 753.719 307.688C754.76 308.292 755.552 309.161 756.094 310.297C756.635 311.432 756.906 312.807 756.906 314.422V316.906H746.969L746.938 317C747 317.74 747.182 318.401 747.484 318.984C747.797 319.557 748.234 320.01 748.797 320.344C749.359 320.667 750.042 320.828 750.844 320.828C751.677 320.828 752.453 320.724 753.172 320.516C753.901 320.297 754.609 319.979 755.297 319.562L756.531 322.375C755.833 322.938 754.953 323.406 753.891 323.781C752.839 324.146 751.63 324.328 750.266 324.328ZM747 313.891H752.641V313.484C752.641 312.797 752.547 312.208 752.359 311.719C752.182 311.219 751.891 310.833 751.484 310.562C751.089 310.292 750.573 310.156 749.938 310.156C749.333 310.156 748.823 310.318 748.406 310.641C747.99 310.953 747.661 311.385 747.422 311.938C747.193 312.49 747.036 313.115 746.953 313.812L747 313.891Z" fill="black"/>
<path d="M584.172 356.685C583.176 356.685 582.399 356.345 581.843 355.665C581.292 354.985 581.017 353.931 581.017 352.501V347.878L579.839 347.764V346.99H581.017H582.071V352.519C582.071 353.679 582.262 354.514 582.643 355.023C583.023 355.527 583.574 355.779 584.295 355.779C585.109 355.779 585.745 355.592 586.202 355.217C586.659 354.836 586.973 354.326 587.143 353.688V347.878L585.789 347.764V346.99H587.143H588.206V355.621L589.48 355.735V356.5H587.274L587.187 354.936C586.888 355.492 586.486 355.923 585.982 356.228C585.484 356.532 584.881 356.685 584.172 356.685ZM594.543 356.685C593.875 356.685 593.254 356.597 592.68 356.421C592.111 356.239 591.575 355.979 591.071 355.639L591.062 353.688H591.924L592.073 355.085C592.413 355.349 592.791 355.539 593.207 355.656C593.623 355.773 594.068 355.832 594.543 355.832C595.34 355.832 595.946 355.659 596.362 355.313C596.778 354.968 596.986 354.558 596.986 354.083C596.986 353.638 596.799 353.245 596.424 352.905C596.055 352.56 595.396 352.281 594.446 352.07C593.31 351.824 592.486 351.496 591.977 351.086C591.473 350.676 591.221 350.104 591.221 349.372C591.221 348.892 591.355 348.458 591.625 348.071C591.895 347.685 592.275 347.38 592.768 347.157C593.266 346.929 593.849 346.814 594.517 346.814C595.214 346.814 595.82 346.917 596.336 347.122C596.852 347.321 597.294 347.591 597.663 347.931L597.707 349.882H596.846L596.723 348.476C596.459 348.224 596.151 348.03 595.8 347.896C595.448 347.755 595.021 347.685 594.517 347.685C593.802 347.685 593.251 347.852 592.864 348.186C592.478 348.514 592.284 348.897 592.284 349.337C592.284 349.624 592.343 349.876 592.46 350.093C592.583 350.304 592.814 350.494 593.154 350.664C593.5 350.834 594.001 350.995 594.657 351.147C595.847 351.417 596.708 351.783 597.241 352.246C597.774 352.703 598.041 353.298 598.041 354.03C598.041 354.804 597.739 355.439 597.136 355.938C596.538 356.436 595.674 356.685 594.543 356.685ZM604.053 356.685C603.238 356.685 602.521 356.488 601.899 356.096C601.278 355.697 600.792 355.149 600.44 354.452C600.089 353.749 599.913 352.94 599.913 352.026V351.543C599.913 350.635 600.089 349.826 600.44 349.117C600.792 348.402 601.267 347.84 601.864 347.43C602.468 347.02 603.139 346.814 603.877 346.814C604.656 346.814 605.321 346.981 605.872 347.315C606.429 347.649 606.854 348.121 607.146 348.73C607.445 349.334 607.595 350.046 607.595 350.866V351.763H601.003L600.985 352.149C600.991 352.853 601.12 353.479 601.372 354.03C601.63 354.581 601.987 355.015 602.444 355.331C602.907 355.647 603.443 355.806 604.053 355.806C604.65 355.806 605.175 355.712 605.626 355.524C606.083 355.331 606.484 355.07 606.83 354.742L607.278 355.463C606.909 355.814 606.461 356.107 605.934 356.342C605.412 356.57 604.785 356.685 604.053 356.685ZM601.073 350.884H606.54V350.62C606.54 350.063 606.432 349.565 606.215 349.126C606.004 348.681 605.699 348.332 605.301 348.08C604.908 347.828 604.434 347.702 603.877 347.702C603.373 347.702 602.919 347.84 602.515 348.115C602.11 348.385 601.779 348.757 601.521 349.231C601.27 349.7 601.114 350.233 601.056 350.831L601.073 350.884ZM609.221 356.5V355.735L610.653 355.621V347.878L609.221 347.764V346.99H611.576L611.69 348.44L611.699 348.695C611.969 348.104 612.335 347.644 612.798 347.315C613.261 346.981 613.814 346.814 614.459 346.814C614.617 346.814 614.784 346.829 614.96 346.858C615.142 346.882 615.273 346.908 615.355 346.938L615.224 347.904L614.248 347.843C613.574 347.825 613.023 348.019 612.596 348.423C612.168 348.827 611.872 349.363 611.708 350.031V355.621L613.141 355.735V356.5H609.221ZM623.433 360.481C621.962 360.481 620.705 360.15 619.662 359.488C618.625 358.826 617.843 357.883 617.315 356.658C616.788 355.439 616.56 353.986 616.63 352.299C616.7 350.641 617.058 349.19 617.702 347.948C618.353 346.706 619.231 345.742 620.339 345.057C621.452 344.365 622.741 344.02 624.206 344.02C625.718 344.02 626.986 344.339 628.012 344.978C629.037 345.616 629.799 346.53 630.297 347.72C630.795 348.909 631.012 350.333 630.947 351.991C630.912 352.835 630.748 353.614 630.455 354.329C630.162 355.038 629.74 355.609 629.189 356.043C628.645 356.471 627.971 356.685 627.168 356.685C626.711 356.685 626.327 356.532 626.017 356.228C625.712 355.923 625.513 355.498 625.419 354.953C624.804 356.107 623.89 356.685 622.677 356.685C621.909 356.685 621.326 356.336 620.928 355.639C620.529 354.936 620.386 354.004 620.497 352.844C620.585 351.848 620.802 350.98 621.147 350.242C621.493 349.504 621.933 348.933 622.466 348.528C622.999 348.118 623.594 347.913 624.25 347.913C624.795 347.913 625.234 347.992 625.568 348.15C625.908 348.303 626.28 348.54 626.685 348.862V349.003L626.254 353.925C626.219 354.44 626.248 354.845 626.342 355.138C626.436 355.431 626.573 355.639 626.755 355.762C626.937 355.879 627.136 355.938 627.353 355.938C628.185 355.938 628.844 355.571 629.33 354.839C629.816 354.106 630.086 353.157 630.139 351.991C630.25 349.706 629.808 347.931 628.812 346.665C627.815 345.394 626.269 344.758 624.171 344.758C622.882 344.758 621.748 345.074 620.77 345.707C619.797 346.334 619.023 347.213 618.449 348.344C617.881 349.475 617.562 350.793 617.491 352.299C617.415 353.787 617.6 355.091 618.045 356.21C618.496 357.323 619.179 358.19 620.093 358.812C621.013 359.433 622.141 359.743 623.477 359.743C624.027 359.743 624.561 359.679 625.076 359.55C625.592 359.427 626.031 359.263 626.395 359.058L626.667 359.699C626.286 359.939 625.794 360.13 625.19 360.271C624.587 360.411 624.001 360.481 623.433 360.481ZM622.914 355.832C623.424 355.832 623.887 355.694 624.303 355.419C624.719 355.138 625.076 354.631 625.375 353.898C625.375 353.846 625.375 353.793 625.375 353.74C625.381 353.682 625.387 353.62 625.393 353.556L625.779 349.196C625.598 349.038 625.393 348.918 625.164 348.836C624.936 348.748 624.678 348.704 624.391 348.704C623.605 348.704 622.955 349.053 622.439 349.75C621.93 350.441 621.604 351.473 621.464 352.844C621.376 353.752 621.455 354.479 621.701 355.023C621.953 355.562 622.357 355.832 622.914 355.832ZM632.274 356.5V355.735L633.707 355.621V343.677L632.274 343.562V342.789H634.762V348.651C635.072 348.071 635.488 347.62 636.01 347.298C636.537 346.976 637.155 346.814 637.864 346.814C638.866 346.814 639.634 347.125 640.167 347.746C640.706 348.361 640.976 349.325 640.976 350.638V355.621L642.408 355.735V356.5H638.488V355.735L639.921 355.621V350.62C639.921 349.583 639.719 348.842 639.314 348.396C638.91 347.945 638.348 347.72 637.627 347.72C636.854 347.72 636.229 347.937 635.755 348.37C635.286 348.804 634.955 349.366 634.762 350.058V355.621L636.194 355.735V356.5H632.274ZM648.016 356.685C647.201 356.685 646.483 356.488 645.862 356.096C645.241 355.697 644.755 355.149 644.403 354.452C644.052 353.749 643.876 352.94 643.876 352.026V351.543C643.876 350.635 644.052 349.826 644.403 349.117C644.755 348.402 645.229 347.84 645.827 347.43C646.431 347.02 647.102 346.814 647.84 346.814C648.619 346.814 649.284 346.981 649.835 347.315C650.392 347.649 650.816 348.121 651.109 348.73C651.408 349.334 651.558 350.046 651.558 350.866V351.763H644.966L644.948 352.149C644.954 352.853 645.083 353.479 645.335 354.03C645.593 354.581 645.95 355.015 646.407 355.331C646.87 355.647 647.406 355.806 648.016 355.806C648.613 355.806 649.138 355.712 649.589 355.524C650.046 355.331 650.447 355.07 650.793 354.742L651.241 355.463C650.872 355.814 650.424 356.107 649.896 356.342C649.375 356.57 648.748 356.685 648.016 356.685ZM645.036 350.884H650.503V350.62C650.503 350.063 650.395 349.565 650.178 349.126C649.967 348.681 649.662 348.332 649.264 348.08C648.871 347.828 648.396 347.702 647.84 347.702C647.336 347.702 646.882 347.84 646.478 348.115C646.073 348.385 645.742 348.757 645.484 349.231C645.232 349.7 645.077 350.233 645.019 350.831L645.036 350.884ZM653.184 356.5V355.735L654.616 355.621V347.878L653.184 347.764V346.99H655.539L655.653 348.44L655.662 348.695C655.932 348.104 656.298 347.644 656.761 347.315C657.224 346.981 657.777 346.814 658.422 346.814C658.58 346.814 658.747 346.829 658.923 346.858C659.104 346.882 659.236 346.908 659.318 346.938L659.187 347.904L658.211 347.843C657.537 347.825 656.986 348.019 656.559 348.423C656.131 348.827 655.835 349.363 655.671 350.031V355.621L657.104 355.735V356.5H653.184ZM664.627 356.685C663.812 356.685 663.095 356.488 662.474 356.096C661.853 355.697 661.366 355.149 661.015 354.452C660.663 353.749 660.487 352.94 660.487 352.026V351.543C660.487 350.635 660.663 349.826 661.015 349.117C661.366 348.402 661.841 347.84 662.438 347.43C663.042 347.02 663.713 346.814 664.451 346.814C665.23 346.814 665.896 346.981 666.446 347.315C667.003 347.649 667.428 348.121 667.721 348.73C668.02 349.334 668.169 350.046 668.169 350.866V351.763H661.577L661.56 352.149C661.565 352.853 661.694 353.479 661.946 354.03C662.204 354.581 662.562 355.015 663.019 355.331C663.481 355.647 664.018 355.806 664.627 355.806C665.225 355.806 665.749 355.712 666.2 355.524C666.657 355.331 667.059 355.07 667.404 354.742L667.853 355.463C667.483 355.814 667.035 356.107 666.508 356.342C665.986 356.57 665.359 356.685 664.627 356.685ZM661.647 350.884H667.114V350.62C667.114 350.063 667.006 349.565 666.789 349.126C666.578 348.681 666.273 348.332 665.875 348.08C665.482 347.828 665.008 347.702 664.451 347.702C663.947 347.702 663.493 347.84 663.089 348.115C662.685 348.385 662.354 348.757 662.096 349.231C661.844 349.7 661.688 350.233 661.63 350.831L661.647 350.884ZM670.357 356.5V355.067H671.562V356.5H670.357ZM678.224 356.685C677.368 356.685 676.624 356.482 675.991 356.078C675.364 355.668 674.875 355.103 674.523 354.382C674.178 353.655 674.005 352.826 674.005 351.895V351.604C674.005 350.673 674.178 349.847 674.523 349.126C674.875 348.405 675.364 347.84 675.991 347.43C676.624 347.02 677.362 346.814 678.206 346.814C679.056 346.814 679.794 347.02 680.421 347.43C681.054 347.84 681.543 348.405 681.889 349.126C682.24 349.841 682.416 350.667 682.416 351.604V351.895C682.416 352.832 682.24 353.661 681.889 354.382C681.543 355.103 681.054 355.668 680.421 356.078C679.794 356.482 679.062 356.685 678.224 356.685ZM678.224 355.806C678.874 355.806 679.434 355.633 679.902 355.287C680.371 354.941 680.731 354.473 680.983 353.881C681.235 353.289 681.361 352.627 681.361 351.895V351.604C681.361 350.878 681.235 350.219 680.983 349.627C680.731 349.035 680.368 348.566 679.894 348.221C679.425 347.875 678.862 347.702 678.206 347.702C677.55 347.702 676.984 347.875 676.51 348.221C676.041 348.566 675.681 349.035 675.429 349.627C675.183 350.219 675.06 350.878 675.06 351.604V351.895C675.06 352.633 675.183 353.298 675.429 353.89C675.681 354.476 676.041 354.941 676.51 355.287C676.984 355.633 677.556 355.806 678.224 355.806ZM683.945 356.5V355.735L685.378 355.621V347.878L683.945 347.764V346.99H686.301L686.415 348.44L686.424 348.695C686.693 348.104 687.06 347.644 687.522 347.315C687.985 346.981 688.539 346.814 689.184 346.814C689.342 346.814 689.509 346.829 689.685 346.858C689.866 346.882 689.998 346.908 690.08 346.938L689.948 347.904L688.973 347.843C688.299 347.825 687.748 348.019 687.32 348.423C686.893 348.827 686.597 349.363 686.433 350.031V355.621L687.865 355.735V356.5H683.945ZM695.134 360.341C694.671 360.341 694.182 360.285 693.666 360.174C693.15 360.062 692.699 359.913 692.312 359.726L692.594 358.847C692.969 359.028 693.364 359.169 693.78 359.269C694.202 359.368 694.647 359.418 695.116 359.418C696.019 359.418 696.695 359.148 697.146 358.609C697.604 358.076 697.832 357.332 697.832 356.377V355.217C697.516 355.68 697.108 356.04 696.61 356.298C696.118 356.556 695.544 356.685 694.888 356.685C694.126 356.685 693.473 356.491 692.928 356.104C692.383 355.718 691.964 355.176 691.671 354.479C691.378 353.775 691.231 352.952 691.231 352.009V351.824C691.231 350.811 691.378 349.929 691.671 349.179C691.964 348.429 692.383 347.849 692.928 347.438C693.479 347.022 694.138 346.814 694.905 346.814C695.585 346.814 696.174 346.961 696.672 347.254C697.17 347.547 697.574 347.957 697.885 348.484L697.999 346.99H698.887V356.377C698.887 357.191 698.737 357.895 698.438 358.486C698.146 359.078 697.718 359.535 697.155 359.857C696.593 360.18 695.919 360.341 695.134 360.341ZM695.081 355.779C695.772 355.779 696.344 355.621 696.795 355.305C697.252 354.988 697.598 354.555 697.832 354.004V349.653C697.609 349.097 697.281 348.637 696.848 348.273C696.414 347.904 695.831 347.72 695.099 347.72C694.483 347.72 693.968 347.896 693.552 348.247C693.136 348.593 692.822 349.073 692.611 349.688C692.4 350.304 692.295 351.016 692.295 351.824V352.009C692.295 353.157 692.526 354.074 692.989 354.76C693.458 355.439 694.155 355.779 695.081 355.779ZM698.676 347.896L698.333 346.99H700.108V347.755L698.676 347.896Z" fill="black"/>
<path d="M782.747 310.027L783.973 311.253L771.893 323.333H770.667V322.107L782.747 310.027ZM787.547 302C787.213 302 786.867 302.133 786.613 302.387L784.173 304.827L789.173 309.827L791.613 307.387C792.133 306.867 792.133 306.027 791.613 305.507L788.493 302.387C788.227 302.12 787.893 302 787.547 302ZM782.747 306.253L768 321V326H773L787.747 311.253L782.747 306.253Z" fill="black"/>
<path d="M754.747 189.027L755.973 190.253L743.893 202.333H742.667V201.107L754.747 189.027ZM759.547 181C759.213 181 758.867 181.133 758.613 181.387L756.173 183.827L761.173 188.827L763.613 186.387C764.133 185.867 764.133 185.027 763.613 184.507L760.493 181.387C760.227 181.12 759.893 181 759.547 181ZM754.747 185.253L740 200V205H745L759.747 190.253L754.747 185.253Z" fill="black"/>
<path d="M725.747 348.027L726.973 349.253L714.893 361.333H713.667V360.107L725.747 348.027ZM730.547 340C730.213 340 729.867 340.133 729.613 340.387L727.173 342.827L732.173 347.827L734.613 345.387C735.133 344.867 735.133 344.027 734.613 343.507L731.493 340.387C731.227 340.12 730.893 340 730.547 340ZM725.747 344.253L711 359V364H716L730.747 349.253L725.747 344.253Z" fill="black"/>
<path d="M537.747 400.027L538.973 401.253L526.893 413.333H525.667V412.107L537.747 400.027ZM542.547 392C542.213 392 541.867 392.133 541.613 392.387L539.173 394.827L544.173 399.827L546.613 397.387C547.133 396.867 547.133 396.027 546.613 395.507L543.493 392.387C543.227 392.12 542.893 392 542.547 392ZM537.747 396.253L523 411V416H528L542.747 401.253L537.747 396.253Z" fill="black"/>
<rect x="412" y="429" width="277" height="49" rx="15" fill="#E8E8E8"/>
<rect x="703" y="429" width="174" height="49" rx="15" fill="#E8E8E8"/>
<path d="M424.473 462.246C423.621 462.246 422.824 462.16 422.082 461.988C421.34 461.816 420.551 461.551 419.715 461.191L419.691 458.18H421.438L421.871 459.996C422.309 460.176 422.73 460.309 423.137 460.395C423.551 460.473 423.996 460.512 424.473 460.512C425.41 460.512 426.082 460.332 426.488 459.973C426.895 459.613 427.098 459.168 427.098 458.637C427.098 458.137 426.891 457.715 426.477 457.371C426.07 457.02 425.328 456.723 424.25 456.48C422.719 456.129 421.59 455.66 420.863 455.074C420.145 454.48 419.785 453.691 419.785 452.707C419.785 452.02 419.984 451.406 420.383 450.867C420.781 450.32 421.336 449.887 422.047 449.566C422.758 449.246 423.586 449.086 424.531 449.086C425.492 449.086 426.312 449.195 426.992 449.414C427.68 449.633 428.277 449.926 428.785 450.293L428.902 453.188H427.168L426.793 451.5C426.52 451.297 426.195 451.141 425.82 451.031C425.445 450.922 425.016 450.867 424.531 450.867C423.812 450.867 423.227 451.035 422.773 451.371C422.328 451.707 422.105 452.129 422.105 452.637C422.105 452.934 422.168 453.191 422.293 453.41C422.426 453.629 422.676 453.828 423.043 454.008C423.41 454.18 423.949 454.352 424.66 454.523C426.426 454.938 427.656 455.465 428.352 456.105C429.055 456.746 429.406 457.535 429.406 458.473C429.406 459.543 429.008 460.441 428.211 461.168C427.422 461.887 426.176 462.246 424.473 462.246ZM435.793 462.199C434.855 462.199 434.109 461.926 433.555 461.379C433.008 460.824 432.734 459.941 432.734 458.73V451.031H430.73V449.32H432.734V446.262H435.043V449.32H437.797V451.031H435.043V458.73C435.043 459.34 435.164 459.789 435.406 460.078C435.648 460.367 435.973 460.512 436.379 460.512C436.652 460.512 436.957 460.488 437.293 460.441C437.629 460.387 437.891 460.34 438.078 460.301L438.395 461.812C438.059 461.914 437.645 462.004 437.152 462.082C436.668 462.16 436.215 462.199 435.793 462.199ZM439.848 462V460.523L441.758 460.195V451.137L439.848 450.809V449.32H443.82L444.02 450.938L444.043 451.16C444.402 450.512 444.844 450.004 445.367 449.637C445.898 449.27 446.504 449.086 447.184 449.086C447.426 449.086 447.672 449.109 447.922 449.156C448.18 449.195 448.363 449.234 448.473 449.273L448.168 451.418L446.562 451.324C445.953 451.285 445.441 451.426 445.027 451.746C444.613 452.059 444.293 452.48 444.066 453.012V460.195L445.977 460.523V462H439.848ZM455.422 462.246C454.25 462.246 453.23 461.98 452.363 461.449C451.496 460.91 450.824 460.164 450.348 459.211C449.879 458.258 449.645 457.156 449.645 455.906V455.391C449.645 454.188 449.891 453.113 450.383 452.168C450.883 451.215 451.543 450.465 452.363 449.918C453.191 449.363 454.094 449.086 455.07 449.086C456.211 449.086 457.164 449.32 457.93 449.789C458.703 450.258 459.285 450.918 459.676 451.77C460.066 452.613 460.262 453.609 460.262 454.758V456.199H452.035L452 456.258C452.016 457.07 452.156 457.793 452.422 458.426C452.695 459.051 453.086 459.543 453.594 459.902C454.102 460.262 454.711 460.441 455.422 460.441C456.203 460.441 456.887 460.332 457.473 460.113C458.066 459.887 458.578 459.578 459.008 459.188L459.91 460.688C459.457 461.125 458.855 461.496 458.105 461.801C457.363 462.098 456.469 462.246 455.422 462.246ZM452.105 454.395H457.953V454.09C457.953 453.48 457.844 452.938 457.625 452.461C457.414 451.977 457.094 451.598 456.664 451.324C456.242 451.043 455.711 450.902 455.07 450.902C454.555 450.902 454.086 451.055 453.664 451.359C453.242 451.656 452.895 452.062 452.621 452.578C452.348 453.094 452.168 453.68 452.082 454.336L452.105 454.395ZM468.195 462.246C467.023 462.246 466.004 461.98 465.137 461.449C464.27 460.91 463.598 460.164 463.121 459.211C462.652 458.258 462.418 457.156 462.418 455.906V455.391C462.418 454.188 462.664 453.113 463.156 452.168C463.656 451.215 464.316 450.465 465.137 449.918C465.965 449.363 466.867 449.086 467.844 449.086C468.984 449.086 469.938 449.32 470.703 449.789C471.477 450.258 472.059 450.918 472.449 451.77C472.84 452.613 473.035 453.609 473.035 454.758V456.199H464.809L464.773 456.258C464.789 457.07 464.93 457.793 465.195 458.426C465.469 459.051 465.859 459.543 466.367 459.902C466.875 460.262 467.484 460.441 468.195 460.441C468.977 460.441 469.66 460.332 470.246 460.113C470.84 459.887 471.352 459.578 471.781 459.188L472.684 460.688C472.23 461.125 471.629 461.496 470.879 461.801C470.137 462.098 469.242 462.246 468.195 462.246ZM464.879 454.395H470.727V454.09C470.727 453.48 470.617 452.938 470.398 452.461C470.188 451.977 469.867 451.598 469.438 451.324C469.016 451.043 468.484 450.902 467.844 450.902C467.328 450.902 466.859 451.055 466.438 451.359C466.016 451.656 465.668 452.062 465.395 452.578C465.121 453.094 464.941 453.68 464.855 454.336L464.879 454.395ZM479.316 462.199C478.379 462.199 477.633 461.926 477.078 461.379C476.531 460.824 476.258 459.941 476.258 458.73V451.031H474.254V449.32H476.258V446.262H478.566V449.32H481.32V451.031H478.566V458.73C478.566 459.34 478.688 459.789 478.93 460.078C479.172 460.367 479.496 460.512 479.902 460.512C480.176 460.512 480.48 460.488 480.816 460.441C481.152 460.387 481.414 460.34 481.602 460.301L481.918 461.812C481.582 461.914 481.168 462.004 480.676 462.082C480.191 462.16 479.738 462.199 479.316 462.199Z" fill="black" fill-opacity="0.35"/>
<path d="M720.051 462.246C719.223 462.246 718.504 462.09 717.895 461.777C717.285 461.457 716.777 460.988 716.371 460.371L716.16 462H714.168V445.535L712.258 445.207V443.719H716.477V450.82C716.875 450.258 717.367 449.828 717.953 449.531C718.547 449.234 719.238 449.086 720.027 449.086C721.074 449.086 721.965 449.371 722.699 449.941C723.441 450.504 724.008 451.297 724.398 452.32C724.797 453.344 724.996 454.535 724.996 455.895V456.141C724.996 457.359 724.797 458.426 724.398 459.34C724.008 460.254 723.441 460.969 722.699 461.484C721.965 461.992 721.082 462.246 720.051 462.246ZM719.465 460.371C720.551 460.371 721.355 459.984 721.879 459.211C722.41 458.438 722.676 457.414 722.676 456.141V455.895C722.676 454.918 722.559 454.062 722.324 453.328C722.09 452.586 721.734 452.008 721.258 451.594C720.781 451.172 720.176 450.961 719.441 450.961C718.73 450.961 718.129 451.133 717.637 451.477C717.152 451.82 716.766 452.281 716.477 452.859V458.461C716.766 459.047 717.156 459.512 717.648 459.855C718.148 460.199 718.754 460.371 719.465 460.371ZM732.32 462.246C730.945 462.246 729.871 461.805 729.098 460.922C728.324 460.039 727.938 458.664 727.938 456.797V451.137L726.484 450.809V449.32H727.938H730.246V456.82C730.246 458.172 730.445 459.102 730.844 459.609C731.242 460.117 731.863 460.371 732.707 460.371C733.527 460.371 734.203 460.207 734.734 459.879C735.273 459.543 735.68 459.07 735.953 458.461V451.137L734.254 450.809V449.32H735.953H738.262V460.195L739.715 460.523V462H736.188L736.035 460.125C735.637 460.805 735.121 461.328 734.488 461.695C733.863 462.062 733.141 462.246 732.32 462.246ZM741.262 462V460.523L743.172 460.195V451.137L741.262 450.809V449.32H745.48V460.195L747.391 460.523V462H741.262ZM743.055 446.191V443.719H745.48V446.191H743.055ZM748.867 462V460.523L750.777 460.195V445.535L748.867 445.207V443.719H753.086V460.195L754.996 460.523V462H748.867ZM761.512 462.246C760.48 462.246 759.594 461.992 758.852 461.484C758.117 460.969 757.555 460.254 757.164 459.34C756.773 458.426 756.578 457.359 756.578 456.141V455.895C756.578 454.535 756.773 453.344 757.164 452.32C757.555 451.297 758.121 450.504 758.863 449.941C759.605 449.371 760.496 449.086 761.535 449.086C762.285 449.086 762.945 449.227 763.516 449.508C764.094 449.781 764.586 450.18 764.992 450.703V445.535L763.082 445.207V443.719H764.992H767.301V460.195L769.211 460.523V462H765.297L765.109 460.488C764.695 461.066 764.188 461.504 763.586 461.801C762.992 462.098 762.301 462.246 761.512 462.246ZM762.098 460.371C762.785 460.371 763.363 460.215 763.832 459.902C764.301 459.59 764.688 459.148 764.992 458.578V452.695C764.695 452.164 764.309 451.742 763.832 451.43C763.355 451.117 762.785 450.961 762.121 450.961C761.387 450.961 760.781 451.172 760.305 451.594C759.828 452.008 759.473 452.586 759.238 453.328C759.004 454.062 758.887 454.918 758.887 455.895V456.141C758.887 457.414 759.148 458.438 759.672 459.211C760.195 459.984 761.004 460.371 762.098 460.371ZM771.637 462V459.633H773.945V462H771.637ZM782.57 462V460.523L784.48 460.195V451.137L782.57 450.809V449.32H786.543L786.707 451.207C787.129 450.535 787.656 450.016 788.289 449.648C788.93 449.273 789.656 449.086 790.469 449.086C791.836 449.086 792.895 449.488 793.645 450.293C794.395 451.09 794.77 452.324 794.77 453.996V460.195L796.68 460.523V462H790.551V460.523L792.461 460.195V454.043C792.461 452.926 792.238 452.133 791.793 451.664C791.355 451.195 790.684 450.961 789.777 450.961C789.113 450.961 788.523 451.121 788.008 451.441C787.5 451.762 787.094 452.199 786.789 452.754V460.195L788.699 460.523V462H782.57ZM803.43 462.246C802.055 462.246 800.98 461.805 800.207 460.922C799.434 460.039 799.047 458.664 799.047 456.797V451.137L797.594 450.809V449.32H799.047H801.355V456.82C801.355 458.172 801.555 459.102 801.953 459.609C802.352 460.117 802.973 460.371 803.816 460.371C804.637 460.371 805.312 460.207 805.844 459.879C806.383 459.543 806.789 459.07 807.062 458.461V451.137L805.363 450.809V449.32H807.062H809.371V460.195L810.824 460.523V462H807.297L807.145 460.125C806.746 460.805 806.23 461.328 805.598 461.695C804.973 462.062 804.25 462.246 803.43 462.246ZM812.453 462V460.523L814.363 460.195V451.137L812.453 450.809V449.32H816.438L816.59 450.973C816.996 450.371 817.52 449.906 818.16 449.578C818.801 449.25 819.543 449.086 820.387 449.086C821.23 449.086 821.953 449.281 822.555 449.672C823.164 450.062 823.621 450.648 823.926 451.43C824.324 450.711 824.852 450.141 825.508 449.719C826.164 449.297 826.93 449.086 827.805 449.086C829.102 449.086 830.125 449.531 830.875 450.422C831.625 451.305 832 452.637 832 454.418V460.195L833.91 460.523V462H827.77V460.523L829.68 460.195V454.395C829.68 453.145 829.465 452.262 829.035 451.746C828.605 451.223 827.969 450.961 827.125 450.961C826.32 450.961 825.672 451.246 825.18 451.816C824.695 452.379 824.414 453.09 824.336 453.949V460.195L826.246 460.523V462H820.117V460.523L822.027 460.195V454.395C822.027 453.207 821.805 452.34 821.359 451.793C820.922 451.238 820.285 450.961 819.449 450.961C818.746 450.961 818.168 451.105 817.715 451.395C817.262 451.684 816.914 452.09 816.672 452.613V460.195L818.582 460.523V462H812.453ZM836.465 462V459.633H838.773V462H836.465Z" fill="black" fill-opacity="0.35"/>
<rect x="412" y="489" width="225" height="49" rx="15" fill="#E8E8E8"/>
<rect x="652" y="489" width="225" height="49" rx="15" fill="#E8E8E8"/>
<path d="M426.758 522.246C425.609 522.246 424.609 521.98 423.758 521.449C422.906 520.91 422.246 520.164 421.777 519.211C421.309 518.258 421.074 517.156 421.074 515.906V515.414C421.074 514.211 421.301 513.133 421.754 512.18C422.207 511.227 422.859 510.473 423.711 509.918C424.562 509.363 425.578 509.086 426.758 509.086C427.781 509.086 428.676 509.254 429.441 509.59C430.215 509.926 430.863 510.387 431.387 510.973L431.445 514.02H429.641L429.242 511.805C428.977 511.531 428.645 511.312 428.246 511.148C427.848 510.984 427.379 510.902 426.84 510.902C426.152 510.902 425.547 511.105 425.023 511.512C424.508 511.918 424.105 512.461 423.816 513.141C423.527 513.82 423.383 514.578 423.383 515.414V515.906C423.383 516.828 423.516 517.629 423.781 518.309C424.055 518.988 424.441 519.516 424.941 519.891C425.449 520.258 426.051 520.441 426.746 520.441C427.527 520.441 428.176 520.227 428.691 519.797C429.207 519.367 429.523 518.777 429.641 518.027H431.715L431.738 518.098C431.699 518.824 431.484 519.504 431.094 520.137C430.703 520.77 430.145 521.281 429.418 521.672C428.699 522.055 427.812 522.246 426.758 522.246ZM433.461 522V520.523L435.371 520.195V511.137L433.461 510.809V509.32H437.68V520.195L439.59 520.523V522H433.461ZM435.254 506.191V503.719H437.68V506.191H435.254ZM445.66 522.199C444.723 522.199 443.977 521.926 443.422 521.379C442.875 520.824 442.602 519.941 442.602 518.73V511.031H440.598V509.32H442.602V506.262H444.91V509.32H447.664V511.031H444.91V518.73C444.91 519.34 445.031 519.789 445.273 520.078C445.516 520.367 445.84 520.512 446.246 520.512C446.52 520.512 446.824 520.488 447.16 520.441C447.496 520.387 447.758 520.34 447.945 520.301L448.262 521.812C447.926 521.914 447.512 522.004 447.02 522.082C446.535 522.16 446.082 522.199 445.66 522.199ZM452.492 527.121C452.312 527.121 452.078 527.098 451.789 527.051C451.5 527.012 451.277 526.973 451.121 526.934L451.355 525.117C451.488 525.133 451.672 525.145 451.906 525.152C452.141 525.168 452.301 525.176 452.387 525.176C452.879 525.176 453.277 524.988 453.582 524.613C453.895 524.238 454.184 523.727 454.449 523.078L455 521.742L450.512 510.996L449.152 510.809V509.32H454.473V510.809L452.938 511.043L455.41 517.383L456.008 519.035H456.078L459.008 511.043L457.391 510.809V509.32H462.605V510.809L461.293 510.996L456.301 523.945C456.066 524.555 455.781 525.098 455.445 525.574C455.117 526.059 454.711 526.438 454.227 526.711C453.75 526.984 453.172 527.121 452.492 527.121Z" fill="black" fill-opacity="0.35"/>
<path d="M663.289 522.246C662.141 522.246 661.141 521.98 660.289 521.449C659.438 520.91 658.777 520.164 658.309 519.211C657.84 518.258 657.605 517.156 657.605 515.906V515.414C657.605 514.211 657.832 513.133 658.285 512.18C658.738 511.227 659.391 510.473 660.242 509.918C661.094 509.363 662.109 509.086 663.289 509.086C664.312 509.086 665.207 509.254 665.973 509.59C666.746 509.926 667.395 510.387 667.918 510.973L667.977 514.02H666.172L665.773 511.805C665.508 511.531 665.176 511.312 664.777 511.148C664.379 510.984 663.91 510.902 663.371 510.902C662.684 510.902 662.078 511.105 661.555 511.512C661.039 511.918 660.637 512.461 660.348 513.141C660.059 513.82 659.914 514.578 659.914 515.414V515.906C659.914 516.828 660.047 517.629 660.312 518.309C660.586 518.988 660.973 519.516 661.473 519.891C661.98 520.258 662.582 520.441 663.277 520.441C664.059 520.441 664.707 520.227 665.223 519.797C665.738 519.367 666.055 518.777 666.172 518.027H668.246L668.27 518.098C668.23 518.824 668.016 519.504 667.625 520.137C667.234 520.77 666.676 521.281 665.949 521.672C665.23 522.055 664.344 522.246 663.289 522.246ZM676.109 522.246C674.938 522.246 673.926 521.973 673.074 521.426C672.23 520.871 671.578 520.109 671.117 519.141C670.656 518.164 670.426 517.051 670.426 515.801V515.543C670.426 514.293 670.656 513.184 671.117 512.215C671.578 511.238 672.23 510.473 673.074 509.918C673.926 509.363 674.93 509.086 676.086 509.086C677.258 509.086 678.266 509.363 679.109 509.918C679.961 510.473 680.617 511.234 681.078 512.203C681.539 513.172 681.77 514.285 681.77 515.543V515.801C681.77 517.059 681.539 518.176 681.078 519.152C680.617 520.121 679.965 520.879 679.121 521.426C678.277 521.973 677.273 522.246 676.109 522.246ZM676.109 520.441C676.844 520.441 677.457 520.242 677.949 519.844C678.449 519.438 678.824 518.887 679.074 518.191C679.332 517.488 679.461 516.691 679.461 515.801V515.543C679.461 514.652 679.332 513.859 679.074 513.164C678.824 512.461 678.449 511.91 677.949 511.512C677.449 511.105 676.828 510.902 676.086 510.902C675.352 510.902 674.734 511.105 674.234 511.512C673.734 511.91 673.359 512.461 673.109 513.164C672.859 513.859 672.734 514.652 672.734 515.543V515.801C672.734 516.691 672.859 517.488 673.109 518.191C673.359 518.887 673.734 519.438 674.234 519.844C674.742 520.242 675.367 520.441 676.109 520.441ZM689.129 522.246C687.754 522.246 686.68 521.805 685.906 520.922C685.133 520.039 684.746 518.664 684.746 516.797V511.137L683.293 510.809V509.32H684.746H687.055V516.82C687.055 518.172 687.254 519.102 687.652 519.609C688.051 520.117 688.672 520.371 689.516 520.371C690.336 520.371 691.012 520.207 691.543 519.879C692.082 519.543 692.488 519.07 692.762 518.461V511.137L691.062 510.809V509.32H692.762H695.07V520.195L696.523 520.523V522H692.996L692.844 520.125C692.445 520.805 691.93 521.328 691.297 521.695C690.672 522.062 689.949 522.246 689.129 522.246ZM698.152 522V520.523L700.062 520.195V511.137L698.152 510.809V509.32H702.125L702.289 511.207C702.711 510.535 703.238 510.016 703.871 509.648C704.512 509.273 705.238 509.086 706.051 509.086C707.418 509.086 708.477 509.488 709.227 510.293C709.977 511.09 710.352 512.324 710.352 513.996V520.195L712.262 520.523V522H706.133V520.523L708.043 520.195V514.043C708.043 512.926 707.82 512.133 707.375 511.664C706.938 511.195 706.266 510.961 705.359 510.961C704.695 510.961 704.105 511.121 703.59 511.441C703.082 511.762 702.676 512.199 702.371 512.754V520.195L704.281 520.523V522H698.152ZM717.91 522.199C716.973 522.199 716.227 521.926 715.672 521.379C715.125 520.824 714.852 519.941 714.852 518.73V511.031H712.848V509.32H714.852V506.262H717.16V509.32H719.914V511.031H717.16V518.73C717.16 519.34 717.281 519.789 717.523 520.078C717.766 520.367 718.09 520.512 718.496 520.512C718.77 520.512 719.074 520.488 719.41 520.441C719.746 520.387 720.008 520.34 720.195 520.301L720.512 521.812C720.176 521.914 719.762 522.004 719.27 522.082C718.785 522.16 718.332 522.199 717.91 522.199ZM721.965 522V520.523L723.875 520.195V511.137L721.965 510.809V509.32H725.938L726.137 510.938L726.16 511.16C726.52 510.512 726.961 510.004 727.484 509.637C728.016 509.27 728.621 509.086 729.301 509.086C729.543 509.086 729.789 509.109 730.039 509.156C730.297 509.195 730.48 509.234 730.59 509.273L730.285 511.418L728.68 511.324C728.07 511.285 727.559 511.426 727.145 511.746C726.73 512.059 726.41 512.48 726.184 513.012V520.195L728.094 520.523V522H721.965ZM734.961 527.121C734.781 527.121 734.547 527.098 734.258 527.051C733.969 527.012 733.746 526.973 733.59 526.934L733.824 525.117C733.957 525.133 734.141 525.145 734.375 525.152C734.609 525.168 734.77 525.176 734.855 525.176C735.348 525.176 735.746 524.988 736.051 524.613C736.363 524.238 736.652 523.727 736.918 523.078L737.469 521.742L732.98 510.996L731.621 510.809V509.32H736.941V510.809L735.406 511.043L737.879 517.383L738.477 519.035H738.547L741.477 511.043L739.859 510.809V509.32H745.074V510.809L743.762 510.996L738.77 523.945C738.535 524.555 738.25 525.098 737.914 525.574C737.586 526.059 737.18 526.438 736.695 526.711C736.219 526.984 735.641 527.121 734.961 527.121Z" fill="black" fill-opacity="0.35"/>
<path d="M418.625 414V412.523L419.891 412.348L425.855 396.938H427.836L433.695 412.348L434.949 412.523V414H430.051V412.523L431.34 412.301L430.215 409.16H423.383L422.223 412.301L423.512 412.523V414H418.625ZM424.098 407.227H429.512L427.004 400.289L426.863 399.902H426.793L426.652 400.289L424.098 407.227ZM441.277 414.246C440.246 414.246 439.359 413.992 438.617 413.484C437.883 412.969 437.32 412.254 436.93 411.34C436.539 410.426 436.344 409.359 436.344 408.141V407.895C436.344 406.535 436.539 405.344 436.93 404.32C437.32 403.297 437.887 402.504 438.629 401.941C439.371 401.371 440.262 401.086 441.301 401.086C442.051 401.086 442.711 401.227 443.281 401.508C443.859 401.781 444.352 402.18 444.758 402.703V397.535L442.848 397.207V395.719H444.758H447.066V412.195L448.977 412.523V414H445.062L444.875 412.488C444.461 413.066 443.953 413.504 443.352 413.801C442.758 414.098 442.066 414.246 441.277 414.246ZM441.863 412.371C442.551 412.371 443.129 412.215 443.598 411.902C444.066 411.59 444.453 411.148 444.758 410.578V404.695C444.461 404.164 444.074 403.742 443.598 403.43C443.121 403.117 442.551 402.961 441.887 402.961C441.152 402.961 440.547 403.172 440.07 403.594C439.594 404.008 439.238 404.586 439.004 405.328C438.77 406.062 438.652 406.918 438.652 407.895V408.141C438.652 409.414 438.914 410.438 439.438 411.211C439.961 411.984 440.77 412.371 441.863 412.371ZM455.551 414.246C454.52 414.246 453.633 413.992 452.891 413.484C452.156 412.969 451.594 412.254 451.203 411.34C450.812 410.426 450.617 409.359 450.617 408.141V407.895C450.617 406.535 450.812 405.344 451.203 404.32C451.594 403.297 452.16 402.504 452.902 401.941C453.645 401.371 454.535 401.086 455.574 401.086C456.324 401.086 456.984 401.227 457.555 401.508C458.133 401.781 458.625 402.18 459.031 402.703V397.535L457.121 397.207V395.719H459.031H461.34V412.195L463.25 412.523V414H459.336L459.148 412.488C458.734 413.066 458.227 413.504 457.625 413.801C457.031 414.098 456.34 414.246 455.551 414.246ZM456.137 412.371C456.824 412.371 457.402 412.215 457.871 411.902C458.34 411.59 458.727 411.148 459.031 410.578V404.695C458.734 404.164 458.348 403.742 457.871 403.43C457.395 403.117 456.824 402.961 456.16 402.961C455.426 402.961 454.82 403.172 454.344 403.594C453.867 404.008 453.512 404.586 453.277 405.328C453.043 406.062 452.926 406.918 452.926 407.895V408.141C452.926 409.414 453.188 410.438 453.711 411.211C454.234 411.984 455.043 412.371 456.137 412.371ZM464.82 414V412.523L466.73 412.195V403.137L464.82 402.809V401.32H468.793L468.992 402.938L469.016 403.16C469.375 402.512 469.816 402.004 470.34 401.637C470.871 401.27 471.477 401.086 472.156 401.086C472.398 401.086 472.645 401.109 472.895 401.156C473.152 401.195 473.336 401.234 473.445 401.273L473.141 403.418L471.535 403.324C470.926 403.285 470.414 403.426 470 403.746C469.586 404.059 469.266 404.48 469.039 405.012V412.195L470.949 412.523V414H464.82ZM480.395 414.246C479.223 414.246 478.203 413.98 477.336 413.449C476.469 412.91 475.797 412.164 475.32 411.211C474.852 410.258 474.617 409.156 474.617 407.906V407.391C474.617 406.188 474.863 405.113 475.355 404.168C475.855 403.215 476.516 402.465 477.336 401.918C478.164 401.363 479.066 401.086 480.043 401.086C481.184 401.086 482.137 401.32 482.902 401.789C483.676 402.258 484.258 402.918 484.648 403.77C485.039 404.613 485.234 405.609 485.234 406.758V408.199H477.008L476.973 408.258C476.988 409.07 477.129 409.793 477.395 410.426C477.668 411.051 478.059 411.543 478.566 411.902C479.074 412.262 479.684 412.441 480.395 412.441C481.176 412.441 481.859 412.332 482.445 412.113C483.039 411.887 483.551 411.578 483.98 411.188L484.883 412.688C484.43 413.125 483.828 413.496 483.078 413.801C482.336 414.098 481.441 414.246 480.395 414.246ZM477.078 406.395H482.926V406.09C482.926 405.48 482.816 404.938 482.598 404.461C482.387 403.977 482.066 403.598 481.637 403.324C481.215 403.043 480.684 402.902 480.043 402.902C479.527 402.902 479.059 403.055 478.637 403.359C478.215 403.656 477.867 404.062 477.594 404.578C477.32 405.094 477.141 405.68 477.055 406.336L477.078 406.395ZM492.242 414.246C491.391 414.246 490.594 414.16 489.852 413.988C489.109 413.816 488.32 413.551 487.484 413.191L487.461 410.18H489.207L489.641 411.996C490.078 412.176 490.5 412.309 490.906 412.395C491.32 412.473 491.766 412.512 492.242 412.512C493.18 412.512 493.852 412.332 494.258 411.973C494.664 411.613 494.867 411.168 494.867 410.637C494.867 410.137 494.66 409.715 494.246 409.371C493.84 409.02 493.098 408.723 492.02 408.48C490.488 408.129 489.359 407.66 488.633 407.074C487.914 406.48 487.555 405.691 487.555 404.707C487.555 404.02 487.754 403.406 488.152 402.867C488.551 402.32 489.105 401.887 489.816 401.566C490.527 401.246 491.355 401.086 492.301 401.086C493.262 401.086 494.082 401.195 494.762 401.414C495.449 401.633 496.047 401.926 496.555 402.293L496.672 405.188H494.938L494.562 403.5C494.289 403.297 493.965 403.141 493.59 403.031C493.215 402.922 492.785 402.867 492.301 402.867C491.582 402.867 490.996 403.035 490.543 403.371C490.098 403.707 489.875 404.129 489.875 404.637C489.875 404.934 489.938 405.191 490.062 405.41C490.195 405.629 490.445 405.828 490.812 406.008C491.18 406.18 491.719 406.352 492.43 406.523C494.195 406.938 495.426 407.465 496.121 408.105C496.824 408.746 497.176 409.535 497.176 410.473C497.176 411.543 496.777 412.441 495.98 413.168C495.191 413.887 493.945 414.246 492.242 414.246ZM504.219 414.246C503.367 414.246 502.57 414.16 501.828 413.988C501.086 413.816 500.297 413.551 499.461 413.191L499.438 410.18H501.184L501.617 411.996C502.055 412.176 502.477 412.309 502.883 412.395C503.297 412.473 503.742 412.512 504.219 412.512C505.156 412.512 505.828 412.332 506.234 411.973C506.641 411.613 506.844 411.168 506.844 410.637C506.844 410.137 506.637 409.715 506.223 409.371C505.816 409.02 505.074 408.723 503.996 408.48C502.465 408.129 501.336 407.66 500.609 407.074C499.891 406.48 499.531 405.691 499.531 404.707C499.531 404.02 499.73 403.406 500.129 402.867C500.527 402.32 501.082 401.887 501.793 401.566C502.504 401.246 503.332 401.086 504.277 401.086C505.238 401.086 506.059 401.195 506.738 401.414C507.426 401.633 508.023 401.926 508.531 402.293L508.648 405.188H506.914L506.539 403.5C506.266 403.297 505.941 403.141 505.566 403.031C505.191 402.922 504.762 402.867 504.277 402.867C503.559 402.867 502.973 403.035 502.52 403.371C502.074 403.707 501.852 404.129 501.852 404.637C501.852 404.934 501.914 405.191 502.039 405.41C502.172 405.629 502.422 405.828 502.789 406.008C503.156 406.18 503.695 406.352 504.406 406.523C506.172 406.938 507.402 407.465 508.098 408.105C508.801 408.746 509.152 409.535 509.152 410.473C509.152 411.543 508.754 412.441 507.957 413.168C507.168 413.887 505.922 414.246 504.219 414.246Z" fill="black"/>
<path d="M558.747 573.027L559.973 574.253L547.893 586.333H546.667V585.107L558.747 573.027ZM563.547 565C563.213 565 562.867 565.133 562.613 565.387L560.173 567.827L565.173 572.827L567.613 570.387C568.133 569.867 568.133 569.027 567.613 568.507L564.493 565.387C564.227 565.12 563.893 565 563.547 565ZM558.747 569.253L544 584V589H549L563.747 574.253L558.747 569.253Z" fill="black"/>
<path d="M417.625 587V585.523L419.535 585.195V571.754L417.625 571.426V569.938H419.535H425.465C426.684 569.938 427.723 570.152 428.582 570.582C429.441 571.004 430.098 571.598 430.551 572.363C431.004 573.129 431.23 574.023 431.23 575.047C431.23 576.078 431.004 576.977 430.551 577.742C430.098 578.508 429.441 579.102 428.582 579.523C427.723 579.945 426.684 580.156 425.465 580.156H421.844V585.195L423.754 585.523V587H417.625ZM421.844 578.352H425.465C426.621 578.352 427.484 578.043 428.055 577.426C428.633 576.801 428.922 576.016 428.922 575.07C428.922 574.125 428.633 573.336 428.055 572.703C427.484 572.07 426.621 571.754 425.465 571.754H421.844V578.352ZM436.715 587.246C435.395 587.246 434.391 586.926 433.703 586.285C433.016 585.637 432.672 584.727 432.672 583.555C432.672 582.75 432.891 582.051 433.328 581.457C433.773 580.855 434.414 580.391 435.25 580.062C436.086 579.727 437.086 579.559 438.25 579.559H440.512V578.316C440.512 577.551 440.277 576.957 439.809 576.535C439.348 576.113 438.695 575.902 437.852 575.902C437.32 575.902 436.859 575.969 436.469 576.102C436.078 576.227 435.723 576.402 435.402 576.629L435.156 578.398H433.375V575.492C433.945 575.031 434.609 574.684 435.367 574.449C436.125 574.207 436.965 574.086 437.887 574.086C439.426 574.086 440.633 574.453 441.508 575.188C442.383 575.922 442.82 576.973 442.82 578.34V584.445C442.82 584.609 442.82 584.77 442.82 584.926C442.828 585.082 442.84 585.238 442.855 585.395L444.086 585.523V587H440.77C440.699 586.656 440.645 586.348 440.605 586.074C440.566 585.801 440.539 585.527 440.523 585.254C440.078 585.824 439.52 586.301 438.848 586.684C438.184 587.059 437.473 587.246 436.715 587.246ZM437.055 585.312C437.82 585.312 438.52 585.129 439.152 584.762C439.785 584.395 440.238 583.953 440.512 583.438V581.141H438.168C437.105 581.141 436.309 581.395 435.777 581.902C435.246 582.41 434.98 582.977 434.98 583.602C434.98 584.156 435.152 584.582 435.496 584.879C435.84 585.168 436.359 585.312 437.055 585.312ZM451.012 587.246C450.16 587.246 449.363 587.16 448.621 586.988C447.879 586.816 447.09 586.551 446.254 586.191L446.23 583.18H447.977L448.41 584.996C448.848 585.176 449.27 585.309 449.676 585.395C450.09 585.473 450.535 585.512 451.012 585.512C451.949 585.512 452.621 585.332 453.027 584.973C453.434 584.613 453.637 584.168 453.637 583.637C453.637 583.137 453.43 582.715 453.016 582.371C452.609 582.02 451.867 581.723 450.789 581.48C449.258 581.129 448.129 580.66 447.402 580.074C446.684 579.48 446.324 578.691 446.324 577.707C446.324 577.02 446.523 576.406 446.922 575.867C447.32 575.32 447.875 574.887 448.586 574.566C449.297 574.246 450.125 574.086 451.07 574.086C452.031 574.086 452.852 574.195 453.531 574.414C454.219 574.633 454.816 574.926 455.324 575.293L455.441 578.188H453.707L453.332 576.5C453.059 576.297 452.734 576.141 452.359 576.031C451.984 575.922 451.555 575.867 451.07 575.867C450.352 575.867 449.766 576.035 449.312 576.371C448.867 576.707 448.645 577.129 448.645 577.637C448.645 577.934 448.707 578.191 448.832 578.41C448.965 578.629 449.215 578.828 449.582 579.008C449.949 579.18 450.488 579.352 451.199 579.523C452.965 579.938 454.195 580.465 454.891 581.105C455.594 581.746 455.945 582.535 455.945 583.473C455.945 584.543 455.547 585.441 454.75 586.168C453.961 586.887 452.715 587.246 451.012 587.246ZM462.988 587.246C462.137 587.246 461.34 587.16 460.598 586.988C459.855 586.816 459.066 586.551 458.23 586.191L458.207 583.18H459.953L460.387 584.996C460.824 585.176 461.246 585.309 461.652 585.395C462.066 585.473 462.512 585.512 462.988 585.512C463.926 585.512 464.598 585.332 465.004 584.973C465.41 584.613 465.613 584.168 465.613 583.637C465.613 583.137 465.406 582.715 464.992 582.371C464.586 582.02 463.844 581.723 462.766 581.48C461.234 581.129 460.105 580.66 459.379 580.074C458.66 579.48 458.301 578.691 458.301 577.707C458.301 577.02 458.5 576.406 458.898 575.867C459.297 575.32 459.852 574.887 460.562 574.566C461.273 574.246 462.102 574.086 463.047 574.086C464.008 574.086 464.828 574.195 465.508 574.414C466.195 574.633 466.793 574.926 467.301 575.293L467.418 578.188H465.684L465.309 576.5C465.035 576.297 464.711 576.141 464.336 576.031C463.961 575.922 463.531 575.867 463.047 575.867C462.328 575.867 461.742 576.035 461.289 576.371C460.844 576.707 460.621 577.129 460.621 577.637C460.621 577.934 460.684 578.191 460.809 578.41C460.941 578.629 461.191 578.828 461.559 579.008C461.926 579.18 462.465 579.352 463.176 579.523C464.941 579.938 466.172 580.465 466.867 581.105C467.57 581.746 467.922 582.535 467.922 583.473C467.922 584.543 467.523 585.441 466.727 586.168C465.938 586.887 464.691 587.246 462.988 587.246ZM474.332 587L470.992 575.973L469.574 575.809V574.32H474.812V575.809L473.254 576.066L475 582.383L475.398 583.883H475.469L475.984 582.383L478.738 574.32H480.684L483.309 582.359L483.871 584.141H483.941L484.492 582.359L486.262 576.055L484.668 575.809V574.32H489.789V575.809L488.383 576.008L485.102 587H482.91L480.344 579.383L479.734 577.344L479.664 577.355L479.066 579.383L476.312 587H474.332ZM496.703 587.246C495.531 587.246 494.52 586.973 493.668 586.426C492.824 585.871 492.172 585.109 491.711 584.141C491.25 583.164 491.02 582.051 491.02 580.801V580.543C491.02 579.293 491.25 578.184 491.711 577.215C492.172 576.238 492.824 575.473 493.668 574.918C494.52 574.363 495.523 574.086 496.68 574.086C497.852 574.086 498.859 574.363 499.703 574.918C500.555 575.473 501.211 576.234 501.672 577.203C502.133 578.172 502.363 579.285 502.363 580.543V580.801C502.363 582.059 502.133 583.176 501.672 584.152C501.211 585.121 500.559 585.879 499.715 586.426C498.871 586.973 497.867 587.246 496.703 587.246ZM496.703 585.441C497.438 585.441 498.051 585.242 498.543 584.844C499.043 584.438 499.418 583.887 499.668 583.191C499.926 582.488 500.055 581.691 500.055 580.801V580.543C500.055 579.652 499.926 578.859 499.668 578.164C499.418 577.461 499.043 576.91 498.543 576.512C498.043 576.105 497.422 575.902 496.68 575.902C495.945 575.902 495.328 576.105 494.828 576.512C494.328 576.91 493.953 577.461 493.703 578.164C493.453 578.859 493.328 579.652 493.328 580.543V580.801C493.328 581.691 493.453 582.488 493.703 583.191C493.953 583.887 494.328 584.438 494.828 584.844C495.336 585.242 495.961 585.441 496.703 585.441ZM504.121 587V585.523L506.031 585.195V576.137L504.121 575.809V574.32H508.094L508.293 575.938L508.316 576.16C508.676 575.512 509.117 575.004 509.641 574.637C510.172 574.27 510.777 574.086 511.457 574.086C511.699 574.086 511.945 574.109 512.195 574.156C512.453 574.195 512.637 574.234 512.746 574.273L512.441 576.418L510.836 576.324C510.227 576.285 509.715 576.426 509.301 576.746C508.887 577.059 508.566 577.48 508.34 578.012V585.195L510.25 585.523V587H504.121ZM518.898 587.246C517.867 587.246 516.98 586.992 516.238 586.484C515.504 585.969 514.941 585.254 514.551 584.34C514.16 583.426 513.965 582.359 513.965 581.141V580.895C513.965 579.535 514.16 578.344 514.551 577.32C514.941 576.297 515.508 575.504 516.25 574.941C516.992 574.371 517.883 574.086 518.922 574.086C519.672 574.086 520.332 574.227 520.902 574.508C521.48 574.781 521.973 575.18 522.379 575.703V570.535L520.469 570.207V568.719H522.379H524.688V585.195L526.598 585.523V587H522.684L522.496 585.488C522.082 586.066 521.574 586.504 520.973 586.801C520.379 587.098 519.688 587.246 518.898 587.246ZM519.484 585.371C520.172 585.371 520.75 585.215 521.219 584.902C521.688 584.59 522.074 584.148 522.379 583.578V577.695C522.082 577.164 521.695 576.742 521.219 576.43C520.742 576.117 520.172 575.961 519.508 575.961C518.773 575.961 518.168 576.172 517.691 576.594C517.215 577.008 516.859 577.586 516.625 578.328C516.391 579.062 516.273 579.918 516.273 580.895V581.141C516.273 582.414 516.535 583.438 517.059 584.211C517.582 584.984 518.391 585.371 519.484 585.371Z" fill="black"/>
<rect x="412" y="602" width="465" height="49" rx="15" fill="#E8E8E8"/>
<path d="M429.18 632.887L427.059 629.523L424.996 632.793L423.449 631.703L425.77 628.492L422.301 627.449L422.875 625.645L426.344 626.945L426.227 622.938H428.113L427.996 627.016L431.43 625.727L431.992 627.555L428.453 628.598L430.715 631.762L429.18 632.887ZM440.406 632.887L438.285 629.523L436.223 632.793L434.676 631.703L436.996 628.492L433.527 627.449L434.102 625.645L437.57 626.945L437.453 622.938H439.34L439.223 627.016L442.656 625.727L443.219 627.555L439.68 628.598L441.941 631.762L440.406 632.887ZM451.633 632.887L449.512 629.523L447.449 632.793L445.902 631.703L448.223 628.492L444.754 627.449L445.328 625.645L448.797 626.945L448.68 622.938H450.566L450.449 627.016L453.883 625.727L454.445 627.555L450.906 628.598L453.168 631.762L451.633 632.887ZM462.859 632.887L460.738 629.523L458.676 632.793L457.129 631.703L459.449 628.492L455.98 627.449L456.555 625.645L460.023 626.945L459.906 622.938H461.793L461.676 627.016L465.109 625.727L465.672 627.555L462.133 628.598L464.395 631.762L462.859 632.887ZM474.086 632.887L471.965 629.523L469.902 632.793L468.355 631.703L470.676 628.492L467.207 627.449L467.781 625.645L471.25 626.945L471.133 622.938H473.02L472.902 627.016L476.336 625.727L476.898 627.555L473.359 628.598L475.621 631.762L474.086 632.887ZM485.312 632.887L483.191 629.523L481.129 632.793L479.582 631.703L481.902 628.492L478.434 627.449L479.008 625.645L482.477 626.945L482.359 622.938H484.246L484.129 627.016L487.562 625.727L488.125 627.555L484.586 628.598L486.848 631.762L485.312 632.887ZM496.539 632.887L494.418 629.523L492.355 632.793L490.809 631.703L493.129 628.492L489.66 627.449L490.234 625.645L493.703 626.945L493.586 622.938H495.473L495.355 627.016L498.789 625.727L499.352 627.555L495.812 628.598L498.074 631.762L496.539 632.887ZM507.766 632.887L505.645 629.523L503.582 632.793L502.035 631.703L504.355 628.492L500.887 627.449L501.461 625.645L504.93 626.945L504.812 622.938H506.699L506.582 627.016L510.016 625.727L510.578 627.555L507.039 628.598L509.301 631.762L507.766 632.887ZM518.992 632.887L516.871 629.523L514.809 632.793L513.262 631.703L515.582 628.492L512.113 627.449L512.688 625.645L516.156 626.945L516.039 622.938H517.926L517.809 627.016L521.242 625.727L521.805 627.555L518.266 628.598L520.527 631.762L518.992 632.887ZM530.219 632.887L528.098 629.523L526.035 632.793L524.488 631.703L526.809 628.492L523.34 627.449L523.914 625.645L527.383 626.945L527.266 622.938H529.152L529.035 627.016L532.469 625.727L533.031 627.555L529.492 628.598L531.754 631.762L530.219 632.887ZM541.445 632.887L539.324 629.523L537.262 632.793L535.715 631.703L538.035 628.492L534.566 627.449L535.141 625.645L538.609 626.945L538.492 622.938H540.379L540.262 627.016L543.695 625.727L544.258 627.555L540.719 628.598L542.98 631.762L541.445 632.887ZM552.672 632.887L550.551 629.523L548.488 632.793L546.941 631.703L549.262 628.492L545.793 627.449L546.367 625.645L549.836 626.945L549.719 622.938H551.605L551.488 627.016L554.922 625.727L555.484 627.555L551.945 628.598L554.207 631.762L552.672 632.887ZM563.898 632.887L561.777 629.523L559.715 632.793L558.168 631.703L560.488 628.492L557.02 627.449L557.594 625.645L561.062 626.945L560.945 622.938H562.832L562.715 627.016L566.148 625.727L566.711 627.555L563.172 628.598L565.434 631.762L563.898 632.887Z" fill="black" fill-opacity="0.35"/>
<path d="M852 620C855.79 620 859.17 622.13 860.82 625.5C860.23 626.72 859.4 627.77 858.41 628.62L859.82 630.03C861.21 628.8 862.31 627.26 863 625.5C861.27 621.11 857 618 852 618C850.73 618 849.51 618.2 848.36 618.57L850.01 620.22C850.66 620.09 851.32 620 852 620ZM850.93 621.14L853 623.21C853.57 623.46 854.03 623.92 854.28 624.49L856.35 626.56C856.43 626.22 856.49 625.86 856.49 625.49C856.5 623.01 854.48 621 852 621C851.63 621 851.28 621.05 850.93 621.14ZM842.01 617.87L844.69 620.55C843.06 621.83 841.77 623.53 841 625.5C842.73 629.89 847 633 852 633C853.52 633 854.98 632.71 856.32 632.18L859.74 635.6L861.15 634.19L843.42 616.45L842.01 617.87ZM849.51 625.37L852.12 627.98C852.08 627.99 852.04 628 852 628C850.62 628 849.5 626.88 849.5 625.5C849.5 625.45 849.51 625.42 849.51 625.37ZM846.11 621.97L847.86 623.72C847.63 624.27 847.5 624.87 847.5 625.5C847.5 627.98 849.52 630 852 630C852.63 630 853.23 629.87 853.77 629.64L854.75 630.62C853.87 630.86 852.95 631 852 631C848.21 631 844.83 628.87 843.18 625.5C843.88 624.07 844.9 622.89 846.11 621.97Z" fill="black"/>
</svg>
