<svg width="1280" height="720" viewBox="0 0 1280 720" fill="none" xmlns="http://www.w3.org/2000/svg">
<rect width="1280" height="720" fill="white"/>
<rect width="1280" height="64" fill="#C4C4C4"/>
<path d="M18.75 41.5H47.25V38.3333H18.75V41.5ZM18.75 33.5833H47.25V30.4167H18.75V33.5833ZM18.75 22.5V25.6667H47.25V22.5H18.75Z" fill="black"/>
<path d="M1247 16.1667C1238.26 16.1667 1231.17 23.26 1231.17 32C1231.17 40.74 1238.26 47.8334 1247 47.8334C1255.74 47.8334 1262.83 40.74 1262.83 32C1262.83 23.26 1255.74 16.1667 1247 16.1667ZM1239.19 41.9434C1239.88 40.5184 1244.02 39.125 1247 39.125C1249.98 39.125 1254.14 40.5184 1254.81 41.9434C1252.65 43.6534 1249.95 44.6667 1247 44.6667C1244.06 44.6667 1241.35 43.6534 1239.19 41.9434ZM1257.07 39.6475C1254.81 36.8925 1249.31 35.9584 1247 35.9584C1244.69 35.9584 1239.19 36.8925 1236.93 39.6475C1235.32 37.5259 1234.33 34.8817 1234.33 32C1234.33 25.0175 1240.02 19.3334 1247 19.3334C1253.98 19.3334 1259.67 25.0175 1259.67 32C1259.67 34.8817 1258.69 37.5259 1257.07 39.6475ZM1247 22.5C1243.93 22.5 1241.46 24.97 1241.46 28.0417C1241.46 31.1134 1243.93 33.5834 1247 33.5834C1250.07 33.5834 1252.54 31.1134 1252.54 28.0417C1252.54 24.97 1250.07 22.5 1247 22.5ZM1247 30.4167C1245.69 30.4167 1244.63 29.3559 1244.63 28.0417C1244.63 26.7275 1245.69 25.6667 1247 25.6667C1248.31 25.6667 1249.38 26.7275 1249.38 28.0417C1249.38 29.3559 1248.31 30.4167 1247 30.4167Z" fill="black"/>
<path d="M640 80.6667C594 80.6667 556.667 118 556.667 164C556.667 210 594 247.333 640 247.333C686 247.333 723.333 210 723.333 164C723.333 118 686 80.6667 640 80.6667ZM640 105.667C653.833 105.667 665 116.833 665 130.667C665 144.5 653.833 155.667 640 155.667C626.167 155.667 615 144.5 615 130.667C615 116.833 626.167 105.667 640 105.667ZM640 224C619.167 224 600.75 213.333 590 197.167C590.25 180.583 623.333 171.5 640 171.5C656.583 171.5 689.75 180.583 690 197.167C679.25 213.333 660.833 224 640 224Z" fill="#ACACAC"/>
<path d="M522.844 295V292.266L525.266 291.797V275.469L522.844 275V272.25H525.266H529.891L539.797 288.031L539.891 288.016V275.469L536.984 275V272.25H543.969H546.406V275L543.969 275.469V295H539.562L529.438 279.375L529.344 279.391V291.797L532.266 292.266V295H522.844ZM553.672 295.328C551.995 295.328 550.661 294.88 549.672 293.984C548.682 293.078 548.188 291.849 548.188 290.297C548.188 289.234 548.474 288.302 549.047 287.5C549.63 286.698 550.484 286.068 551.609 285.609C552.745 285.151 554.141 284.922 555.797 284.922H558.031V283.672C558.031 282.859 557.792 282.203 557.312 281.703C556.844 281.193 556.135 280.938 555.188 280.938C554.698 280.938 554.26 281 553.875 281.125C553.49 281.24 553.135 281.406 552.812 281.625L552.453 283.859H549.172L549.109 279.469C549.995 278.969 550.953 278.562 551.984 278.25C553.016 277.938 554.167 277.781 555.438 277.781C557.646 277.781 559.391 278.297 560.672 279.328C561.953 280.349 562.594 281.812 562.594 283.719V290.688C562.594 290.917 562.594 291.146 562.594 291.375C562.604 291.594 562.625 291.807 562.656 292.016L564.422 292.266V295H558.766C558.651 294.708 558.536 294.396 558.422 294.062C558.307 293.729 558.224 293.396 558.172 293.062C557.63 293.75 556.99 294.302 556.25 294.719C555.521 295.125 554.661 295.328 553.672 295.328ZM554.891 291.953C555.526 291.953 556.13 291.812 556.703 291.531C557.276 291.24 557.719 290.859 558.031 290.391V287.719H555.781C554.781 287.719 554.021 287.948 553.5 288.406C552.99 288.865 552.734 289.417 552.734 290.062C552.734 290.667 552.922 291.135 553.297 291.469C553.682 291.792 554.214 291.953 554.891 291.953ZM565.875 295V292.266L568.078 291.797V281.312L565.641 280.844V278.094H572.312L572.5 280.328C573.042 279.516 573.719 278.891 574.531 278.453C575.354 278.005 576.302 277.781 577.375 277.781C578.458 277.781 579.385 278.021 580.156 278.5C580.938 278.979 581.521 279.703 581.906 280.672C582.427 279.766 583.104 279.057 583.938 278.547C584.771 278.036 585.75 277.781 586.875 277.781C588.542 277.781 589.854 278.349 590.812 279.484C591.781 280.62 592.266 282.349 592.266 284.672V291.797L594.469 292.266V295H585.734V292.266L587.703 291.797V284.656C587.703 283.406 587.495 282.542 587.078 282.062C586.672 281.573 586.078 281.328 585.297 281.328C584.589 281.328 583.99 281.531 583.5 281.938C583.01 282.333 582.656 282.859 582.438 283.516V291.797L584.281 292.266V295H576.047V292.266L577.891 291.797V284.656C577.891 283.438 577.682 282.578 577.266 282.078C576.859 281.578 576.255 281.328 575.453 281.328C574.807 281.328 574.25 281.458 573.781 281.719C573.312 281.979 572.927 282.354 572.625 282.844V291.797L574.594 292.266V295H565.875ZM603.922 295.328C602.307 295.328 600.896 294.974 599.688 294.266C598.479 293.547 597.542 292.562 596.875 291.312C596.219 290.062 595.891 288.635 595.891 287.031V286.406C595.891 284.729 596.203 283.245 596.828 281.953C597.453 280.651 598.333 279.63 599.469 278.891C600.615 278.141 601.964 277.771 603.516 277.781C605.047 277.781 606.333 278.083 607.375 278.688C608.417 279.292 609.208 280.161 609.75 281.297C610.292 282.432 610.562 283.807 610.562 285.422V287.906H600.625L600.594 288C600.656 288.74 600.839 289.401 601.141 289.984C601.453 290.557 601.891 291.01 602.453 291.344C603.016 291.667 603.698 291.828 604.5 291.828C605.333 291.828 606.109 291.724 606.828 291.516C607.557 291.297 608.266 290.979 608.953 290.562L610.188 293.375C609.49 293.938 608.609 294.406 607.547 294.781C606.495 295.146 605.286 295.328 603.922 295.328ZM600.656 284.891H606.297V284.484C606.297 283.797 606.203 283.208 606.016 282.719C605.839 282.219 605.547 281.833 605.141 281.562C604.745 281.292 604.229 281.156 603.594 281.156C602.99 281.156 602.479 281.318 602.062 281.641C601.646 281.953 601.318 282.385 601.078 282.938C600.849 283.49 600.693 284.115 600.609 284.812L600.656 284.891ZM629.688 295.328C628.01 295.328 626.484 295.141 625.109 294.766C623.734 294.391 622.38 293.74 621.047 292.812V287.312H624.578L625.062 290.547C625.531 290.943 626.177 291.266 627 291.516C627.823 291.755 628.719 291.875 629.688 291.875C630.51 291.875 631.203 291.76 631.766 291.531C632.339 291.302 632.771 290.979 633.062 290.562C633.365 290.135 633.516 289.635 633.516 289.062C633.516 288.521 633.38 288.042 633.109 287.625C632.849 287.198 632.411 286.812 631.797 286.469C631.193 286.115 630.37 285.776 629.328 285.453C627.526 284.922 626.031 284.344 624.844 283.719C623.667 283.083 622.781 282.328 622.188 281.453C621.604 280.568 621.312 279.505 621.312 278.266C621.312 277.036 621.651 275.953 622.328 275.016C623.016 274.068 623.964 273.323 625.172 272.781C626.38 272.24 627.776 271.958 629.359 271.938C631.109 271.917 632.656 272.125 634 272.562C635.354 273 636.521 273.609 637.5 274.391V279.516H634.078L633.484 276.391C633.089 276.141 632.552 275.922 631.875 275.734C631.208 275.547 630.448 275.453 629.594 275.453C628.865 275.453 628.219 275.562 627.656 275.781C627.104 276 626.667 276.318 626.344 276.734C626.021 277.151 625.859 277.656 625.859 278.25C625.859 278.76 626 279.208 626.281 279.594C626.562 279.969 627.031 280.328 627.688 280.672C628.354 281.005 629.271 281.365 630.438 281.75C632.948 282.448 634.849 283.37 636.141 284.516C637.443 285.661 638.094 287.167 638.094 289.031C638.094 290.323 637.745 291.443 637.047 292.391C636.349 293.328 635.37 294.052 634.109 294.562C632.849 295.073 631.375 295.328 629.688 295.328ZM647.188 295.328C645.406 295.328 644.005 294.766 642.984 293.641C641.974 292.505 641.469 290.745 641.469 288.359V281.312L639.609 280.844V278.094H641.469H646.031V288.391C646.031 289.599 646.24 290.469 646.656 291C647.083 291.521 647.724 291.781 648.578 291.781C649.255 291.781 649.854 291.651 650.375 291.391C650.896 291.12 651.323 290.74 651.656 290.25V281.312L649.641 280.844V278.094H651.656H656.219V291.797L658.25 292.266V295H652.219L651.906 292.859C651.375 293.651 650.708 294.26 649.906 294.688C649.104 295.115 648.198 295.328 647.188 295.328ZM660.297 295V292.266L662.484 291.797V281.312L660.062 280.844V278.094H666.734L666.906 280.188L666.938 280.562C667.354 279.646 667.87 278.953 668.484 278.484C669.099 278.016 669.833 277.781 670.688 277.781C670.958 277.781 671.255 277.807 671.578 277.859C671.901 277.901 672.188 277.958 672.438 278.031L671.953 282.234L669.688 282.109C669.042 282.078 668.516 282.188 668.109 282.438C667.714 282.688 667.359 283.047 667.047 283.516V291.797L669.234 292.266V295H660.297ZM673.75 295V292.266L675.938 291.797V281.312L673.516 280.844V278.094H680.188L680.391 280.516C680.953 279.651 681.646 278.979 682.469 278.5C683.302 278.021 684.25 277.781 685.312 277.781C686.99 277.781 688.302 278.318 689.25 279.391C690.198 280.464 690.672 282.146 690.672 284.438V291.797L692.859 292.266V295H684.141V292.266L686.094 291.797V284.453C686.094 283.318 685.87 282.516 685.422 282.047C684.974 281.568 684.307 281.328 683.422 281.328C682.766 281.328 682.193 281.469 681.703 281.75C681.224 282.021 680.823 282.411 680.5 282.922V291.797L682.344 292.266V295H673.75ZM700.016 295.328C698.339 295.328 697.005 294.88 696.016 293.984C695.026 293.078 694.531 291.849 694.531 290.297C694.531 289.234 694.818 288.302 695.391 287.5C695.974 286.698 696.828 286.068 697.953 285.609C699.089 285.151 700.484 284.922 702.141 284.922H704.375V283.672C704.375 282.859 704.135 282.203 703.656 281.703C703.188 281.193 702.479 280.938 701.531 280.938C701.042 280.938 700.604 281 700.219 281.125C699.833 281.24 699.479 281.406 699.156 281.625L698.797 283.859H695.516L695.453 279.469C696.339 278.969 697.297 278.562 698.328 278.25C699.359 277.938 700.51 277.781 701.781 277.781C703.99 277.781 705.734 278.297 707.016 279.328C708.297 280.349 708.938 281.812 708.938 283.719V290.688C708.938 290.917 708.938 291.146 708.938 291.375C708.948 291.594 708.969 291.807 709 292.016L710.766 292.266V295H705.109C704.995 294.708 704.88 294.396 704.766 294.062C704.651 293.729 704.568 293.396 704.516 293.062C703.974 293.75 703.333 294.302 702.594 294.719C701.865 295.125 701.005 295.328 700.016 295.328ZM701.234 291.953C701.87 291.953 702.474 291.812 703.047 291.531C703.62 291.24 704.062 290.859 704.375 290.391V287.719H702.125C701.125 287.719 700.365 287.948 699.844 288.406C699.333 288.865 699.078 289.417 699.078 290.062C699.078 290.667 699.266 291.135 699.641 291.469C700.026 291.792 700.557 291.953 701.234 291.953ZM712.219 295V292.266L714.422 291.797V281.312L711.984 280.844V278.094H718.656L718.844 280.328C719.385 279.516 720.062 278.891 720.875 278.453C721.698 278.005 722.646 277.781 723.719 277.781C724.802 277.781 725.729 278.021 726.5 278.5C727.281 278.979 727.865 279.703 728.25 280.672C728.771 279.766 729.448 279.057 730.281 278.547C731.115 278.036 732.094 277.781 733.219 277.781C734.885 277.781 736.198 278.349 737.156 279.484C738.125 280.62 738.609 282.349 738.609 284.672V291.797L740.812 292.266V295H732.078V292.266L734.047 291.797V284.656C734.047 283.406 733.839 282.542 733.422 282.062C733.016 281.573 732.422 281.328 731.641 281.328C730.932 281.328 730.333 281.531 729.844 281.938C729.354 282.333 729 282.859 728.781 283.516V291.797L730.625 292.266V295H722.391V292.266L724.234 291.797V284.656C724.234 283.438 724.026 282.578 723.609 282.078C723.203 281.578 722.599 281.328 721.797 281.328C721.151 281.328 720.594 281.458 720.125 281.719C719.656 281.979 719.271 282.354 718.969 282.844V291.797L720.938 292.266V295H712.219ZM750.266 295.328C748.651 295.328 747.24 294.974 746.031 294.266C744.823 293.547 743.885 292.562 743.219 291.312C742.562 290.062 742.234 288.635 742.234 287.031V286.406C742.234 284.729 742.547 283.245 743.172 281.953C743.797 280.651 744.677 279.63 745.812 278.891C746.958 278.141 748.307 277.771 749.859 277.781C751.391 277.781 752.677 278.083 753.719 278.688C754.76 279.292 755.552 280.161 756.094 281.297C756.635 282.432 756.906 283.807 756.906 285.422V287.906H746.969L746.938 288C747 288.74 747.182 289.401 747.484 289.984C747.797 290.557 748.234 291.01 748.797 291.344C749.359 291.667 750.042 291.828 750.844 291.828C751.677 291.828 752.453 291.724 753.172 291.516C753.901 291.297 754.609 290.979 755.297 290.562L756.531 293.375C755.833 293.938 754.953 294.406 753.891 294.781C752.839 295.146 751.63 295.328 750.266 295.328ZM747 284.891H752.641V284.484C752.641 283.797 752.547 283.208 752.359 282.719C752.182 282.219 751.891 281.833 751.484 281.562C751.089 281.292 750.573 281.156 749.938 281.156C749.333 281.156 748.823 281.318 748.406 281.641C747.99 281.953 747.661 282.385 747.422 282.938C747.193 283.49 747.036 284.115 746.953 284.812L747 284.891Z" fill="black"/>
<path d="M584.172 327.685C583.176 327.685 582.399 327.345 581.843 326.665C581.292 325.985 581.017 324.931 581.017 323.501V318.878L579.839 318.764V317.99H581.017H582.071V323.519C582.071 324.679 582.262 325.514 582.643 326.023C583.023 326.527 583.574 326.779 584.295 326.779C585.109 326.779 585.745 326.592 586.202 326.217C586.659 325.836 586.973 325.326 587.143 324.688V318.878L585.789 318.764V317.99H587.143H588.206V326.621L589.48 326.735V327.5H587.274L587.187 325.936C586.888 326.492 586.486 326.923 585.982 327.228C585.484 327.532 584.881 327.685 584.172 327.685ZM594.543 327.685C593.875 327.685 593.254 327.597 592.68 327.421C592.111 327.239 591.575 326.979 591.071 326.639L591.062 324.688H591.924L592.073 326.085C592.413 326.349 592.791 326.539 593.207 326.656C593.623 326.773 594.068 326.832 594.543 326.832C595.34 326.832 595.946 326.659 596.362 326.313C596.778 325.968 596.986 325.558 596.986 325.083C596.986 324.638 596.799 324.245 596.424 323.905C596.055 323.56 595.396 323.281 594.446 323.07C593.31 322.824 592.486 322.496 591.977 322.086C591.473 321.676 591.221 321.104 591.221 320.372C591.221 319.892 591.355 319.458 591.625 319.071C591.895 318.685 592.275 318.38 592.768 318.157C593.266 317.929 593.849 317.814 594.517 317.814C595.214 317.814 595.82 317.917 596.336 318.122C596.852 318.321 597.294 318.591 597.663 318.931L597.707 320.882H596.846L596.723 319.476C596.459 319.224 596.151 319.03 595.8 318.896C595.448 318.755 595.021 318.685 594.517 318.685C593.802 318.685 593.251 318.852 592.864 319.186C592.478 319.514 592.284 319.897 592.284 320.337C592.284 320.624 592.343 320.876 592.46 321.093C592.583 321.304 592.814 321.494 593.154 321.664C593.5 321.834 594.001 321.995 594.657 322.147C595.847 322.417 596.708 322.783 597.241 323.246C597.774 323.703 598.041 324.298 598.041 325.03C598.041 325.804 597.739 326.439 597.136 326.938C596.538 327.436 595.674 327.685 594.543 327.685ZM604.053 327.685C603.238 327.685 602.521 327.488 601.899 327.096C601.278 326.697 600.792 326.149 600.44 325.452C600.089 324.749 599.913 323.94 599.913 323.026V322.543C599.913 321.635 600.089 320.826 600.44 320.117C600.792 319.402 601.267 318.84 601.864 318.43C602.468 318.02 603.139 317.814 603.877 317.814C604.656 317.814 605.321 317.981 605.872 318.315C606.429 318.649 606.854 319.121 607.146 319.73C607.445 320.334 607.595 321.046 607.595 321.866V322.763H601.003L600.985 323.149C600.991 323.853 601.12 324.479 601.372 325.03C601.63 325.581 601.987 326.015 602.444 326.331C602.907 326.647 603.443 326.806 604.053 326.806C604.65 326.806 605.175 326.712 605.626 326.524C606.083 326.331 606.484 326.07 606.83 325.742L607.278 326.463C606.909 326.814 606.461 327.107 605.934 327.342C605.412 327.57 604.785 327.685 604.053 327.685ZM601.073 321.884H606.54V321.62C606.54 321.063 606.432 320.565 606.215 320.126C606.004 319.681 605.699 319.332 605.301 319.08C604.908 318.828 604.434 318.702 603.877 318.702C603.373 318.702 602.919 318.84 602.515 319.115C602.11 319.385 601.779 319.757 601.521 320.231C601.27 320.7 601.114 321.233 601.056 321.831L601.073 321.884ZM609.221 327.5V326.735L610.653 326.621V318.878L609.221 318.764V317.99H611.576L611.69 319.44L611.699 319.695C611.969 319.104 612.335 318.644 612.798 318.315C613.261 317.981 613.814 317.814 614.459 317.814C614.617 317.814 614.784 317.829 614.96 317.858C615.142 317.882 615.273 317.908 615.355 317.938L615.224 318.904L614.248 318.843C613.574 318.825 613.023 319.019 612.596 319.423C612.168 319.827 611.872 320.363 611.708 321.031V326.621L613.141 326.735V327.5H609.221ZM623.433 331.481C621.962 331.481 620.705 331.15 619.662 330.488C618.625 329.826 617.843 328.883 617.315 327.658C616.788 326.439 616.56 324.986 616.63 323.299C616.7 321.641 617.058 320.19 617.702 318.948C618.353 317.706 619.231 316.742 620.339 316.057C621.452 315.365 622.741 315.02 624.206 315.02C625.718 315.02 626.986 315.339 628.012 315.978C629.037 316.616 629.799 317.53 630.297 318.72C630.795 319.909 631.012 321.333 630.947 322.991C630.912 323.835 630.748 324.614 630.455 325.329C630.162 326.038 629.74 326.609 629.189 327.043C628.645 327.471 627.971 327.685 627.168 327.685C626.711 327.685 626.327 327.532 626.017 327.228C625.712 326.923 625.513 326.498 625.419 325.953C624.804 327.107 623.89 327.685 622.677 327.685C621.909 327.685 621.326 327.336 620.928 326.639C620.529 325.936 620.386 325.004 620.497 323.844C620.585 322.848 620.802 321.98 621.147 321.242C621.493 320.504 621.933 319.933 622.466 319.528C622.999 319.118 623.594 318.913 624.25 318.913C624.795 318.913 625.234 318.992 625.568 319.15C625.908 319.303 626.28 319.54 626.685 319.862V320.003L626.254 324.925C626.219 325.44 626.248 325.845 626.342 326.138C626.436 326.431 626.573 326.639 626.755 326.762C626.937 326.879 627.136 326.938 627.353 326.938C628.185 326.938 628.844 326.571 629.33 325.839C629.816 325.106 630.086 324.157 630.139 322.991C630.25 320.706 629.808 318.931 628.812 317.665C627.815 316.394 626.269 315.758 624.171 315.758C622.882 315.758 621.748 316.074 620.77 316.707C619.797 317.334 619.023 318.213 618.449 319.344C617.881 320.475 617.562 321.793 617.491 323.299C617.415 324.787 617.6 326.091 618.045 327.21C618.496 328.323 619.179 329.19 620.093 329.812C621.013 330.433 622.141 330.743 623.477 330.743C624.027 330.743 624.561 330.679 625.076 330.55C625.592 330.427 626.031 330.263 626.395 330.058L626.667 330.699C626.286 330.939 625.794 331.13 625.19 331.271C624.587 331.411 624.001 331.481 623.433 331.481ZM622.914 326.832C623.424 326.832 623.887 326.694 624.303 326.419C624.719 326.138 625.076 325.631 625.375 324.898C625.375 324.846 625.375 324.793 625.375 324.74C625.381 324.682 625.387 324.62 625.393 324.556L625.779 320.196C625.598 320.038 625.393 319.918 625.164 319.836C624.936 319.748 624.678 319.704 624.391 319.704C623.605 319.704 622.955 320.053 622.439 320.75C621.93 321.441 621.604 322.473 621.464 323.844C621.376 324.752 621.455 325.479 621.701 326.023C621.953 326.562 622.357 326.832 622.914 326.832ZM632.274 327.5V326.735L633.707 326.621V314.677L632.274 314.562V313.789H634.762V319.651C635.072 319.071 635.488 318.62 636.01 318.298C636.537 317.976 637.155 317.814 637.864 317.814C638.866 317.814 639.634 318.125 640.167 318.746C640.706 319.361 640.976 320.325 640.976 321.638V326.621L642.408 326.735V327.5H638.488V326.735L639.921 326.621V321.62C639.921 320.583 639.719 319.842 639.314 319.396C638.91 318.945 638.348 318.72 637.627 318.72C636.854 318.72 636.229 318.937 635.755 319.37C635.286 319.804 634.955 320.366 634.762 321.058V326.621L636.194 326.735V327.5H632.274ZM648.016 327.685C647.201 327.685 646.483 327.488 645.862 327.096C645.241 326.697 644.755 326.149 644.403 325.452C644.052 324.749 643.876 323.94 643.876 323.026V322.543C643.876 321.635 644.052 320.826 644.403 320.117C644.755 319.402 645.229 318.84 645.827 318.43C646.431 318.02 647.102 317.814 647.84 317.814C648.619 317.814 649.284 317.981 649.835 318.315C650.392 318.649 650.816 319.121 651.109 319.73C651.408 320.334 651.558 321.046 651.558 321.866V322.763H644.966L644.948 323.149C644.954 323.853 645.083 324.479 645.335 325.03C645.593 325.581 645.95 326.015 646.407 326.331C646.87 326.647 647.406 326.806 648.016 326.806C648.613 326.806 649.138 326.712 649.589 326.524C650.046 326.331 650.447 326.07 650.793 325.742L651.241 326.463C650.872 326.814 650.424 327.107 649.896 327.342C649.375 327.57 648.748 327.685 648.016 327.685ZM645.036 321.884H650.503V321.62C650.503 321.063 650.395 320.565 650.178 320.126C649.967 319.681 649.662 319.332 649.264 319.08C648.871 318.828 648.396 318.702 647.84 318.702C647.336 318.702 646.882 318.84 646.478 319.115C646.073 319.385 645.742 319.757 645.484 320.231C645.232 320.7 645.077 321.233 645.019 321.831L645.036 321.884ZM653.184 327.5V326.735L654.616 326.621V318.878L653.184 318.764V317.99H655.539L655.653 319.44L655.662 319.695C655.932 319.104 656.298 318.644 656.761 318.315C657.224 317.981 657.777 317.814 658.422 317.814C658.58 317.814 658.747 317.829 658.923 317.858C659.104 317.882 659.236 317.908 659.318 317.938L659.187 318.904L658.211 318.843C657.537 318.825 656.986 319.019 656.559 319.423C656.131 319.827 655.835 320.363 655.671 321.031V326.621L657.104 326.735V327.5H653.184ZM664.627 327.685C663.812 327.685 663.095 327.488 662.474 327.096C661.853 326.697 661.366 326.149 661.015 325.452C660.663 324.749 660.487 323.94 660.487 323.026V322.543C660.487 321.635 660.663 320.826 661.015 320.117C661.366 319.402 661.841 318.84 662.438 318.43C663.042 318.02 663.713 317.814 664.451 317.814C665.23 317.814 665.896 317.981 666.446 318.315C667.003 318.649 667.428 319.121 667.721 319.73C668.02 320.334 668.169 321.046 668.169 321.866V322.763H661.577L661.56 323.149C661.565 323.853 661.694 324.479 661.946 325.03C662.204 325.581 662.562 326.015 663.019 326.331C663.481 326.647 664.018 326.806 664.627 326.806C665.225 326.806 665.749 326.712 666.2 326.524C666.657 326.331 667.059 326.07 667.404 325.742L667.853 326.463C667.483 326.814 667.035 327.107 666.508 327.342C665.986 327.57 665.359 327.685 664.627 327.685ZM661.647 321.884H667.114V321.62C667.114 321.063 667.006 320.565 666.789 320.126C666.578 319.681 666.273 319.332 665.875 319.08C665.482 318.828 665.008 318.702 664.451 318.702C663.947 318.702 663.493 318.84 663.089 319.115C662.685 319.385 662.354 319.757 662.096 320.231C661.844 320.7 661.688 321.233 661.63 321.831L661.647 321.884ZM670.357 327.5V326.067H671.562V327.5H670.357ZM678.224 327.685C677.368 327.685 676.624 327.482 675.991 327.078C675.364 326.668 674.875 326.103 674.523 325.382C674.178 324.655 674.005 323.826 674.005 322.895V322.604C674.005 321.673 674.178 320.847 674.523 320.126C674.875 319.405 675.364 318.84 675.991 318.43C676.624 318.02 677.362 317.814 678.206 317.814C679.056 317.814 679.794 318.02 680.421 318.43C681.054 318.84 681.543 319.405 681.889 320.126C682.24 320.841 682.416 321.667 682.416 322.604V322.895C682.416 323.832 682.24 324.661 681.889 325.382C681.543 326.103 681.054 326.668 680.421 327.078C679.794 327.482 679.062 327.685 678.224 327.685ZM678.224 326.806C678.874 326.806 679.434 326.633 679.902 326.287C680.371 325.941 680.731 325.473 680.983 324.881C681.235 324.289 681.361 323.627 681.361 322.895V322.604C681.361 321.878 681.235 321.219 680.983 320.627C680.731 320.035 680.368 319.566 679.894 319.221C679.425 318.875 678.862 318.702 678.206 318.702C677.55 318.702 676.984 318.875 676.51 319.221C676.041 319.566 675.681 320.035 675.429 320.627C675.183 321.219 675.06 321.878 675.06 322.604V322.895C675.06 323.633 675.183 324.298 675.429 324.89C675.681 325.476 676.041 325.941 676.51 326.287C676.984 326.633 677.556 326.806 678.224 326.806ZM683.945 327.5V326.735L685.378 326.621V318.878L683.945 318.764V317.99H686.301L686.415 319.44L686.424 319.695C686.693 319.104 687.06 318.644 687.522 318.315C687.985 317.981 688.539 317.814 689.184 317.814C689.342 317.814 689.509 317.829 689.685 317.858C689.866 317.882 689.998 317.908 690.08 317.938L689.948 318.904L688.973 318.843C688.299 318.825 687.748 319.019 687.32 319.423C686.893 319.827 686.597 320.363 686.433 321.031V326.621L687.865 326.735V327.5H683.945ZM695.134 331.341C694.671 331.341 694.182 331.285 693.666 331.174C693.15 331.062 692.699 330.913 692.312 330.726L692.594 329.847C692.969 330.028 693.364 330.169 693.78 330.269C694.202 330.368 694.647 330.418 695.116 330.418C696.019 330.418 696.695 330.148 697.146 329.609C697.604 329.076 697.832 328.332 697.832 327.377V326.217C697.516 326.68 697.108 327.04 696.61 327.298C696.118 327.556 695.544 327.685 694.888 327.685C694.126 327.685 693.473 327.491 692.928 327.104C692.383 326.718 691.964 326.176 691.671 325.479C691.378 324.775 691.231 323.952 691.231 323.009V322.824C691.231 321.811 691.378 320.929 691.671 320.179C691.964 319.429 692.383 318.849 692.928 318.438C693.479 318.022 694.138 317.814 694.905 317.814C695.585 317.814 696.174 317.961 696.672 318.254C697.17 318.547 697.574 318.957 697.885 319.484L697.999 317.99H698.887V327.377C698.887 328.191 698.737 328.895 698.438 329.486C698.146 330.078 697.718 330.535 697.155 330.857C696.593 331.18 695.919 331.341 695.134 331.341ZM695.081 326.779C695.772 326.779 696.344 326.621 696.795 326.305C697.252 325.988 697.598 325.555 697.832 325.004V320.653C697.609 320.097 697.281 319.637 696.848 319.273C696.414 318.904 695.831 318.72 695.099 318.72C694.483 318.72 693.968 318.896 693.552 319.247C693.136 319.593 692.822 320.073 692.611 320.688C692.4 321.304 692.295 322.016 692.295 322.824V323.009C692.295 324.157 692.526 325.074 692.989 325.76C693.458 326.439 694.155 326.779 695.081 326.779ZM698.676 318.896L698.333 317.99H700.108V318.755L698.676 318.896Z" fill="black"/>
<path d="M782.747 281.027L783.973 282.253L771.893 294.333H770.667V293.107L782.747 281.027ZM787.547 273C787.213 273 786.867 273.133 786.613 273.387L784.173 275.827L789.173 280.827L791.613 278.387C792.133 277.867 792.133 277.027 791.613 276.507L788.493 273.387C788.227 273.12 787.893 273 787.547 273ZM782.747 277.253L768 292V297H773L787.747 282.253L782.747 277.253Z" fill="black"/>
<path d="M754.747 160.027L755.973 161.253L743.893 173.333H742.667V172.107L754.747 160.027ZM759.547 152C759.213 152 758.867 152.133 758.613 152.387L756.173 154.827L761.173 159.827L763.613 157.387C764.133 156.867 764.133 156.027 763.613 155.507L760.493 152.387C760.227 152.12 759.893 152 759.547 152ZM754.747 156.253L740 171V176H745L759.747 161.253L754.747 156.253Z" fill="black"/>
<path d="M725.747 319.027L726.973 320.253L714.893 332.333H713.667V331.107L725.747 319.027ZM730.547 311C730.213 311 729.867 311.133 729.613 311.387L727.173 313.827L732.173 318.827L734.613 316.387C735.133 315.867 735.133 315.027 734.613 314.507L731.493 311.387C731.227 311.12 730.893 311 730.547 311ZM725.747 315.253L711 330V335H716L730.747 320.253L725.747 315.253Z" fill="black"/>
<path d="M537.747 355.027L538.973 356.253L526.893 368.333H525.667V367.107L537.747 355.027ZM542.547 347C542.213 347 541.867 347.133 541.613 347.387L539.173 349.827L544.173 354.827L546.613 352.387C547.133 351.867 547.133 351.027 546.613 350.507L543.493 347.387C543.227 347.12 542.893 347 542.547 347ZM537.747 351.253L523 366V371H528L542.747 356.253L537.747 351.253Z" fill="black"/>
<rect x="412" y="384" width="277" height="49" rx="15" fill="#E8E8E8"/>
<rect x="703" y="384" width="174" height="49" rx="15" fill="#E8E8E8"/>
<path d="M424.473 417.246C423.621 417.246 422.824 417.16 422.082 416.988C421.34 416.816 420.551 416.551 419.715 416.191L419.691 413.18H421.438L421.871 414.996C422.309 415.176 422.73 415.309 423.137 415.395C423.551 415.473 423.996 415.512 424.473 415.512C425.41 415.512 426.082 415.332 426.488 414.973C426.895 414.613 427.098 414.168 427.098 413.637C427.098 413.137 426.891 412.715 426.477 412.371C426.07 412.02 425.328 411.723 424.25 411.48C422.719 411.129 421.59 410.66 420.863 410.074C420.145 409.48 419.785 408.691 419.785 407.707C419.785 407.02 419.984 406.406 420.383 405.867C420.781 405.32 421.336 404.887 422.047 404.566C422.758 404.246 423.586 404.086 424.531 404.086C425.492 404.086 426.312 404.195 426.992 404.414C427.68 404.633 428.277 404.926 428.785 405.293L428.902 408.188H427.168L426.793 406.5C426.52 406.297 426.195 406.141 425.82 406.031C425.445 405.922 425.016 405.867 424.531 405.867C423.812 405.867 423.227 406.035 422.773 406.371C422.328 406.707 422.105 407.129 422.105 407.637C422.105 407.934 422.168 408.191 422.293 408.41C422.426 408.629 422.676 408.828 423.043 409.008C423.41 409.18 423.949 409.352 424.66 409.523C426.426 409.938 427.656 410.465 428.352 411.105C429.055 411.746 429.406 412.535 429.406 413.473C429.406 414.543 429.008 415.441 428.211 416.168C427.422 416.887 426.176 417.246 424.473 417.246ZM435.793 417.199C434.855 417.199 434.109 416.926 433.555 416.379C433.008 415.824 432.734 414.941 432.734 413.73V406.031H430.73V404.32H432.734V401.262H435.043V404.32H437.797V406.031H435.043V413.73C435.043 414.34 435.164 414.789 435.406 415.078C435.648 415.367 435.973 415.512 436.379 415.512C436.652 415.512 436.957 415.488 437.293 415.441C437.629 415.387 437.891 415.34 438.078 415.301L438.395 416.812C438.059 416.914 437.645 417.004 437.152 417.082C436.668 417.16 436.215 417.199 435.793 417.199ZM439.848 417V415.523L441.758 415.195V406.137L439.848 405.809V404.32H443.82L444.02 405.938L444.043 406.16C444.402 405.512 444.844 405.004 445.367 404.637C445.898 404.27 446.504 404.086 447.184 404.086C447.426 404.086 447.672 404.109 447.922 404.156C448.18 404.195 448.363 404.234 448.473 404.273L448.168 406.418L446.562 406.324C445.953 406.285 445.441 406.426 445.027 406.746C444.613 407.059 444.293 407.48 444.066 408.012V415.195L445.977 415.523V417H439.848ZM455.422 417.246C454.25 417.246 453.23 416.98 452.363 416.449C451.496 415.91 450.824 415.164 450.348 414.211C449.879 413.258 449.645 412.156 449.645 410.906V410.391C449.645 409.188 449.891 408.113 450.383 407.168C450.883 406.215 451.543 405.465 452.363 404.918C453.191 404.363 454.094 404.086 455.07 404.086C456.211 404.086 457.164 404.32 457.93 404.789C458.703 405.258 459.285 405.918 459.676 406.77C460.066 407.613 460.262 408.609 460.262 409.758V411.199H452.035L452 411.258C452.016 412.07 452.156 412.793 452.422 413.426C452.695 414.051 453.086 414.543 453.594 414.902C454.102 415.262 454.711 415.441 455.422 415.441C456.203 415.441 456.887 415.332 457.473 415.113C458.066 414.887 458.578 414.578 459.008 414.188L459.91 415.688C459.457 416.125 458.855 416.496 458.105 416.801C457.363 417.098 456.469 417.246 455.422 417.246ZM452.105 409.395H457.953V409.09C457.953 408.48 457.844 407.938 457.625 407.461C457.414 406.977 457.094 406.598 456.664 406.324C456.242 406.043 455.711 405.902 455.07 405.902C454.555 405.902 454.086 406.055 453.664 406.359C453.242 406.656 452.895 407.062 452.621 407.578C452.348 408.094 452.168 408.68 452.082 409.336L452.105 409.395ZM468.195 417.246C467.023 417.246 466.004 416.98 465.137 416.449C464.27 415.91 463.598 415.164 463.121 414.211C462.652 413.258 462.418 412.156 462.418 410.906V410.391C462.418 409.188 462.664 408.113 463.156 407.168C463.656 406.215 464.316 405.465 465.137 404.918C465.965 404.363 466.867 404.086 467.844 404.086C468.984 404.086 469.938 404.32 470.703 404.789C471.477 405.258 472.059 405.918 472.449 406.77C472.84 407.613 473.035 408.609 473.035 409.758V411.199H464.809L464.773 411.258C464.789 412.07 464.93 412.793 465.195 413.426C465.469 414.051 465.859 414.543 466.367 414.902C466.875 415.262 467.484 415.441 468.195 415.441C468.977 415.441 469.66 415.332 470.246 415.113C470.84 414.887 471.352 414.578 471.781 414.188L472.684 415.688C472.23 416.125 471.629 416.496 470.879 416.801C470.137 417.098 469.242 417.246 468.195 417.246ZM464.879 409.395H470.727V409.09C470.727 408.48 470.617 407.938 470.398 407.461C470.188 406.977 469.867 406.598 469.438 406.324C469.016 406.043 468.484 405.902 467.844 405.902C467.328 405.902 466.859 406.055 466.438 406.359C466.016 406.656 465.668 407.062 465.395 407.578C465.121 408.094 464.941 408.68 464.855 409.336L464.879 409.395ZM479.316 417.199C478.379 417.199 477.633 416.926 477.078 416.379C476.531 415.824 476.258 414.941 476.258 413.73V406.031H474.254V404.32H476.258V401.262H478.566V404.32H481.32V406.031H478.566V413.73C478.566 414.34 478.688 414.789 478.93 415.078C479.172 415.367 479.496 415.512 479.902 415.512C480.176 415.512 480.48 415.488 480.816 415.441C481.152 415.387 481.414 415.34 481.602 415.301L481.918 416.812C481.582 416.914 481.168 417.004 480.676 417.082C480.191 417.16 479.738 417.199 479.316 417.199Z" fill="black" fill-opacity="0.35"/>
<path d="M720.051 417.246C719.223 417.246 718.504 417.09 717.895 416.777C717.285 416.457 716.777 415.988 716.371 415.371L716.16 417H714.168V400.535L712.258 400.207V398.719H716.477V405.82C716.875 405.258 717.367 404.828 717.953 404.531C718.547 404.234 719.238 404.086 720.027 404.086C721.074 404.086 721.965 404.371 722.699 404.941C723.441 405.504 724.008 406.297 724.398 407.32C724.797 408.344 724.996 409.535 724.996 410.895V411.141C724.996 412.359 724.797 413.426 724.398 414.34C724.008 415.254 723.441 415.969 722.699 416.484C721.965 416.992 721.082 417.246 720.051 417.246ZM719.465 415.371C720.551 415.371 721.355 414.984 721.879 414.211C722.41 413.438 722.676 412.414 722.676 411.141V410.895C722.676 409.918 722.559 409.062 722.324 408.328C722.09 407.586 721.734 407.008 721.258 406.594C720.781 406.172 720.176 405.961 719.441 405.961C718.73 405.961 718.129 406.133 717.637 406.477C717.152 406.82 716.766 407.281 716.477 407.859V413.461C716.766 414.047 717.156 414.512 717.648 414.855C718.148 415.199 718.754 415.371 719.465 415.371ZM732.32 417.246C730.945 417.246 729.871 416.805 729.098 415.922C728.324 415.039 727.938 413.664 727.938 411.797V406.137L726.484 405.809V404.32H727.938H730.246V411.82C730.246 413.172 730.445 414.102 730.844 414.609C731.242 415.117 731.863 415.371 732.707 415.371C733.527 415.371 734.203 415.207 734.734 414.879C735.273 414.543 735.68 414.07 735.953 413.461V406.137L734.254 405.809V404.32H735.953H738.262V415.195L739.715 415.523V417H736.188L736.035 415.125C735.637 415.805 735.121 416.328 734.488 416.695C733.863 417.062 733.141 417.246 732.32 417.246ZM741.262 417V415.523L743.172 415.195V406.137L741.262 405.809V404.32H745.48V415.195L747.391 415.523V417H741.262ZM743.055 401.191V398.719H745.48V401.191H743.055ZM748.867 417V415.523L750.777 415.195V400.535L748.867 400.207V398.719H753.086V415.195L754.996 415.523V417H748.867ZM761.512 417.246C760.48 417.246 759.594 416.992 758.852 416.484C758.117 415.969 757.555 415.254 757.164 414.34C756.773 413.426 756.578 412.359 756.578 411.141V410.895C756.578 409.535 756.773 408.344 757.164 407.32C757.555 406.297 758.121 405.504 758.863 404.941C759.605 404.371 760.496 404.086 761.535 404.086C762.285 404.086 762.945 404.227 763.516 404.508C764.094 404.781 764.586 405.18 764.992 405.703V400.535L763.082 400.207V398.719H764.992H767.301V415.195L769.211 415.523V417H765.297L765.109 415.488C764.695 416.066 764.188 416.504 763.586 416.801C762.992 417.098 762.301 417.246 761.512 417.246ZM762.098 415.371C762.785 415.371 763.363 415.215 763.832 414.902C764.301 414.59 764.688 414.148 764.992 413.578V407.695C764.695 407.164 764.309 406.742 763.832 406.43C763.355 406.117 762.785 405.961 762.121 405.961C761.387 405.961 760.781 406.172 760.305 406.594C759.828 407.008 759.473 407.586 759.238 408.328C759.004 409.062 758.887 409.918 758.887 410.895V411.141C758.887 412.414 759.148 413.438 759.672 414.211C760.195 414.984 761.004 415.371 762.098 415.371ZM771.637 417V414.633H773.945V417H771.637ZM782.57 417V415.523L784.48 415.195V406.137L782.57 405.809V404.32H786.543L786.707 406.207C787.129 405.535 787.656 405.016 788.289 404.648C788.93 404.273 789.656 404.086 790.469 404.086C791.836 404.086 792.895 404.488 793.645 405.293C794.395 406.09 794.77 407.324 794.77 408.996V415.195L796.68 415.523V417H790.551V415.523L792.461 415.195V409.043C792.461 407.926 792.238 407.133 791.793 406.664C791.355 406.195 790.684 405.961 789.777 405.961C789.113 405.961 788.523 406.121 788.008 406.441C787.5 406.762 787.094 407.199 786.789 407.754V415.195L788.699 415.523V417H782.57ZM803.43 417.246C802.055 417.246 800.98 416.805 800.207 415.922C799.434 415.039 799.047 413.664 799.047 411.797V406.137L797.594 405.809V404.32H799.047H801.355V411.82C801.355 413.172 801.555 414.102 801.953 414.609C802.352 415.117 802.973 415.371 803.816 415.371C804.637 415.371 805.312 415.207 805.844 414.879C806.383 414.543 806.789 414.07 807.062 413.461V406.137L805.363 405.809V404.32H807.062H809.371V415.195L810.824 415.523V417H807.297L807.145 415.125C806.746 415.805 806.23 416.328 805.598 416.695C804.973 417.062 804.25 417.246 803.43 417.246ZM812.453 417V415.523L814.363 415.195V406.137L812.453 405.809V404.32H816.438L816.59 405.973C816.996 405.371 817.52 404.906 818.16 404.578C818.801 404.25 819.543 404.086 820.387 404.086C821.23 404.086 821.953 404.281 822.555 404.672C823.164 405.062 823.621 405.648 823.926 406.43C824.324 405.711 824.852 405.141 825.508 404.719C826.164 404.297 826.93 404.086 827.805 404.086C829.102 404.086 830.125 404.531 830.875 405.422C831.625 406.305 832 407.637 832 409.418V415.195L833.91 415.523V417H827.77V415.523L829.68 415.195V409.395C829.68 408.145 829.465 407.262 829.035 406.746C828.605 406.223 827.969 405.961 827.125 405.961C826.32 405.961 825.672 406.246 825.18 406.816C824.695 407.379 824.414 408.09 824.336 408.949V415.195L826.246 415.523V417H820.117V415.523L822.027 415.195V409.395C822.027 408.207 821.805 407.34 821.359 406.793C820.922 406.238 820.285 405.961 819.449 405.961C818.746 405.961 818.168 406.105 817.715 406.395C817.262 406.684 816.914 407.09 816.672 407.613V415.195L818.582 415.523V417H812.453ZM836.465 417V414.633H838.773V417H836.465Z" fill="black" fill-opacity="0.35"/>
<rect x="412" y="444" width="225" height="49" rx="15" fill="#E8E8E8"/>
<rect x="652" y="444" width="225" height="49" rx="15" fill="#E8E8E8"/>
<path d="M426.758 477.246C425.609 477.246 424.609 476.98 423.758 476.449C422.906 475.91 422.246 475.164 421.777 474.211C421.309 473.258 421.074 472.156 421.074 470.906V470.414C421.074 469.211 421.301 468.133 421.754 467.18C422.207 466.227 422.859 465.473 423.711 464.918C424.562 464.363 425.578 464.086 426.758 464.086C427.781 464.086 428.676 464.254 429.441 464.59C430.215 464.926 430.863 465.387 431.387 465.973L431.445 469.02H429.641L429.242 466.805C428.977 466.531 428.645 466.312 428.246 466.148C427.848 465.984 427.379 465.902 426.84 465.902C426.152 465.902 425.547 466.105 425.023 466.512C424.508 466.918 424.105 467.461 423.816 468.141C423.527 468.82 423.383 469.578 423.383 470.414V470.906C423.383 471.828 423.516 472.629 423.781 473.309C424.055 473.988 424.441 474.516 424.941 474.891C425.449 475.258 426.051 475.441 426.746 475.441C427.527 475.441 428.176 475.227 428.691 474.797C429.207 474.367 429.523 473.777 429.641 473.027H431.715L431.738 473.098C431.699 473.824 431.484 474.504 431.094 475.137C430.703 475.77 430.145 476.281 429.418 476.672C428.699 477.055 427.812 477.246 426.758 477.246ZM433.461 477V475.523L435.371 475.195V466.137L433.461 465.809V464.32H437.68V475.195L439.59 475.523V477H433.461ZM435.254 461.191V458.719H437.68V461.191H435.254ZM445.66 477.199C444.723 477.199 443.977 476.926 443.422 476.379C442.875 475.824 442.602 474.941 442.602 473.73V466.031H440.598V464.32H442.602V461.262H444.91V464.32H447.664V466.031H444.91V473.73C444.91 474.34 445.031 474.789 445.273 475.078C445.516 475.367 445.84 475.512 446.246 475.512C446.52 475.512 446.824 475.488 447.16 475.441C447.496 475.387 447.758 475.34 447.945 475.301L448.262 476.812C447.926 476.914 447.512 477.004 447.02 477.082C446.535 477.16 446.082 477.199 445.66 477.199ZM452.492 482.121C452.312 482.121 452.078 482.098 451.789 482.051C451.5 482.012 451.277 481.973 451.121 481.934L451.355 480.117C451.488 480.133 451.672 480.145 451.906 480.152C452.141 480.168 452.301 480.176 452.387 480.176C452.879 480.176 453.277 479.988 453.582 479.613C453.895 479.238 454.184 478.727 454.449 478.078L455 476.742L450.512 465.996L449.152 465.809V464.32H454.473V465.809L452.938 466.043L455.41 472.383L456.008 474.035H456.078L459.008 466.043L457.391 465.809V464.32H462.605V465.809L461.293 465.996L456.301 478.945C456.066 479.555 455.781 480.098 455.445 480.574C455.117 481.059 454.711 481.438 454.227 481.711C453.75 481.984 453.172 482.121 452.492 482.121Z" fill="black" fill-opacity="0.35"/>
<path d="M663.289 477.246C662.141 477.246 661.141 476.98 660.289 476.449C659.438 475.91 658.777 475.164 658.309 474.211C657.84 473.258 657.605 472.156 657.605 470.906V470.414C657.605 469.211 657.832 468.133 658.285 467.18C658.738 466.227 659.391 465.473 660.242 464.918C661.094 464.363 662.109 464.086 663.289 464.086C664.312 464.086 665.207 464.254 665.973 464.59C666.746 464.926 667.395 465.387 667.918 465.973L667.977 469.02H666.172L665.773 466.805C665.508 466.531 665.176 466.312 664.777 466.148C664.379 465.984 663.91 465.902 663.371 465.902C662.684 465.902 662.078 466.105 661.555 466.512C661.039 466.918 660.637 467.461 660.348 468.141C660.059 468.82 659.914 469.578 659.914 470.414V470.906C659.914 471.828 660.047 472.629 660.312 473.309C660.586 473.988 660.973 474.516 661.473 474.891C661.98 475.258 662.582 475.441 663.277 475.441C664.059 475.441 664.707 475.227 665.223 474.797C665.738 474.367 666.055 473.777 666.172 473.027H668.246L668.27 473.098C668.23 473.824 668.016 474.504 667.625 475.137C667.234 475.77 666.676 476.281 665.949 476.672C665.23 477.055 664.344 477.246 663.289 477.246ZM676.109 477.246C674.938 477.246 673.926 476.973 673.074 476.426C672.23 475.871 671.578 475.109 671.117 474.141C670.656 473.164 670.426 472.051 670.426 470.801V470.543C670.426 469.293 670.656 468.184 671.117 467.215C671.578 466.238 672.23 465.473 673.074 464.918C673.926 464.363 674.93 464.086 676.086 464.086C677.258 464.086 678.266 464.363 679.109 464.918C679.961 465.473 680.617 466.234 681.078 467.203C681.539 468.172 681.77 469.285 681.77 470.543V470.801C681.77 472.059 681.539 473.176 681.078 474.152C680.617 475.121 679.965 475.879 679.121 476.426C678.277 476.973 677.273 477.246 676.109 477.246ZM676.109 475.441C676.844 475.441 677.457 475.242 677.949 474.844C678.449 474.438 678.824 473.887 679.074 473.191C679.332 472.488 679.461 471.691 679.461 470.801V470.543C679.461 469.652 679.332 468.859 679.074 468.164C678.824 467.461 678.449 466.91 677.949 466.512C677.449 466.105 676.828 465.902 676.086 465.902C675.352 465.902 674.734 466.105 674.234 466.512C673.734 466.91 673.359 467.461 673.109 468.164C672.859 468.859 672.734 469.652 672.734 470.543V470.801C672.734 471.691 672.859 472.488 673.109 473.191C673.359 473.887 673.734 474.438 674.234 474.844C674.742 475.242 675.367 475.441 676.109 475.441ZM689.129 477.246C687.754 477.246 686.68 476.805 685.906 475.922C685.133 475.039 684.746 473.664 684.746 471.797V466.137L683.293 465.809V464.32H684.746H687.055V471.82C687.055 473.172 687.254 474.102 687.652 474.609C688.051 475.117 688.672 475.371 689.516 475.371C690.336 475.371 691.012 475.207 691.543 474.879C692.082 474.543 692.488 474.07 692.762 473.461V466.137L691.062 465.809V464.32H692.762H695.07V475.195L696.523 475.523V477H692.996L692.844 475.125C692.445 475.805 691.93 476.328 691.297 476.695C690.672 477.062 689.949 477.246 689.129 477.246ZM698.152 477V475.523L700.062 475.195V466.137L698.152 465.809V464.32H702.125L702.289 466.207C702.711 465.535 703.238 465.016 703.871 464.648C704.512 464.273 705.238 464.086 706.051 464.086C707.418 464.086 708.477 464.488 709.227 465.293C709.977 466.09 710.352 467.324 710.352 468.996V475.195L712.262 475.523V477H706.133V475.523L708.043 475.195V469.043C708.043 467.926 707.82 467.133 707.375 466.664C706.938 466.195 706.266 465.961 705.359 465.961C704.695 465.961 704.105 466.121 703.59 466.441C703.082 466.762 702.676 467.199 702.371 467.754V475.195L704.281 475.523V477H698.152ZM717.91 477.199C716.973 477.199 716.227 476.926 715.672 476.379C715.125 475.824 714.852 474.941 714.852 473.73V466.031H712.848V464.32H714.852V461.262H717.16V464.32H719.914V466.031H717.16V473.73C717.16 474.34 717.281 474.789 717.523 475.078C717.766 475.367 718.09 475.512 718.496 475.512C718.77 475.512 719.074 475.488 719.41 475.441C719.746 475.387 720.008 475.34 720.195 475.301L720.512 476.812C720.176 476.914 719.762 477.004 719.27 477.082C718.785 477.16 718.332 477.199 717.91 477.199ZM721.965 477V475.523L723.875 475.195V466.137L721.965 465.809V464.32H725.938L726.137 465.938L726.16 466.16C726.52 465.512 726.961 465.004 727.484 464.637C728.016 464.27 728.621 464.086 729.301 464.086C729.543 464.086 729.789 464.109 730.039 464.156C730.297 464.195 730.48 464.234 730.59 464.273L730.285 466.418L728.68 466.324C728.07 466.285 727.559 466.426 727.145 466.746C726.73 467.059 726.41 467.48 726.184 468.012V475.195L728.094 475.523V477H721.965ZM734.961 482.121C734.781 482.121 734.547 482.098 734.258 482.051C733.969 482.012 733.746 481.973 733.59 481.934L733.824 480.117C733.957 480.133 734.141 480.145 734.375 480.152C734.609 480.168 734.77 480.176 734.855 480.176C735.348 480.176 735.746 479.988 736.051 479.613C736.363 479.238 736.652 478.727 736.918 478.078L737.469 476.742L732.98 465.996L731.621 465.809V464.32H736.941V465.809L735.406 466.043L737.879 472.383L738.477 474.035H738.547L741.477 466.043L739.859 465.809V464.32H745.074V465.809L743.762 465.996L738.77 478.945C738.535 479.555 738.25 480.098 737.914 480.574C737.586 481.059 737.18 481.438 736.695 481.711C736.219 481.984 735.641 482.121 734.961 482.121Z" fill="black" fill-opacity="0.35"/>
<path d="M418.625 369V367.523L419.891 367.348L425.855 351.938H427.836L433.695 367.348L434.949 367.523V369H430.051V367.523L431.34 367.301L430.215 364.16H423.383L422.223 367.301L423.512 367.523V369H418.625ZM424.098 362.227H429.512L427.004 355.289L426.863 354.902H426.793L426.652 355.289L424.098 362.227ZM441.277 369.246C440.246 369.246 439.359 368.992 438.617 368.484C437.883 367.969 437.32 367.254 436.93 366.34C436.539 365.426 436.344 364.359 436.344 363.141V362.895C436.344 361.535 436.539 360.344 436.93 359.32C437.32 358.297 437.887 357.504 438.629 356.941C439.371 356.371 440.262 356.086 441.301 356.086C442.051 356.086 442.711 356.227 443.281 356.508C443.859 356.781 444.352 357.18 444.758 357.703V352.535L442.848 352.207V350.719H444.758H447.066V367.195L448.977 367.523V369H445.062L444.875 367.488C444.461 368.066 443.953 368.504 443.352 368.801C442.758 369.098 442.066 369.246 441.277 369.246ZM441.863 367.371C442.551 367.371 443.129 367.215 443.598 366.902C444.066 366.59 444.453 366.148 444.758 365.578V359.695C444.461 359.164 444.074 358.742 443.598 358.43C443.121 358.117 442.551 357.961 441.887 357.961C441.152 357.961 440.547 358.172 440.07 358.594C439.594 359.008 439.238 359.586 439.004 360.328C438.77 361.062 438.652 361.918 438.652 362.895V363.141C438.652 364.414 438.914 365.438 439.438 366.211C439.961 366.984 440.77 367.371 441.863 367.371ZM455.551 369.246C454.52 369.246 453.633 368.992 452.891 368.484C452.156 367.969 451.594 367.254 451.203 366.34C450.812 365.426 450.617 364.359 450.617 363.141V362.895C450.617 361.535 450.812 360.344 451.203 359.32C451.594 358.297 452.16 357.504 452.902 356.941C453.645 356.371 454.535 356.086 455.574 356.086C456.324 356.086 456.984 356.227 457.555 356.508C458.133 356.781 458.625 357.18 459.031 357.703V352.535L457.121 352.207V350.719H459.031H461.34V367.195L463.25 367.523V369H459.336L459.148 367.488C458.734 368.066 458.227 368.504 457.625 368.801C457.031 369.098 456.34 369.246 455.551 369.246ZM456.137 367.371C456.824 367.371 457.402 367.215 457.871 366.902C458.34 366.59 458.727 366.148 459.031 365.578V359.695C458.734 359.164 458.348 358.742 457.871 358.43C457.395 358.117 456.824 357.961 456.16 357.961C455.426 357.961 454.82 358.172 454.344 358.594C453.867 359.008 453.512 359.586 453.277 360.328C453.043 361.062 452.926 361.918 452.926 362.895V363.141C452.926 364.414 453.188 365.438 453.711 366.211C454.234 366.984 455.043 367.371 456.137 367.371ZM464.82 369V367.523L466.73 367.195V358.137L464.82 357.809V356.32H468.793L468.992 357.938L469.016 358.16C469.375 357.512 469.816 357.004 470.34 356.637C470.871 356.27 471.477 356.086 472.156 356.086C472.398 356.086 472.645 356.109 472.895 356.156C473.152 356.195 473.336 356.234 473.445 356.273L473.141 358.418L471.535 358.324C470.926 358.285 470.414 358.426 470 358.746C469.586 359.059 469.266 359.48 469.039 360.012V367.195L470.949 367.523V369H464.82ZM480.395 369.246C479.223 369.246 478.203 368.98 477.336 368.449C476.469 367.91 475.797 367.164 475.32 366.211C474.852 365.258 474.617 364.156 474.617 362.906V362.391C474.617 361.188 474.863 360.113 475.355 359.168C475.855 358.215 476.516 357.465 477.336 356.918C478.164 356.363 479.066 356.086 480.043 356.086C481.184 356.086 482.137 356.32 482.902 356.789C483.676 357.258 484.258 357.918 484.648 358.77C485.039 359.613 485.234 360.609 485.234 361.758V363.199H477.008L476.973 363.258C476.988 364.07 477.129 364.793 477.395 365.426C477.668 366.051 478.059 366.543 478.566 366.902C479.074 367.262 479.684 367.441 480.395 367.441C481.176 367.441 481.859 367.332 482.445 367.113C483.039 366.887 483.551 366.578 483.98 366.188L484.883 367.688C484.43 368.125 483.828 368.496 483.078 368.801C482.336 369.098 481.441 369.246 480.395 369.246ZM477.078 361.395H482.926V361.09C482.926 360.48 482.816 359.938 482.598 359.461C482.387 358.977 482.066 358.598 481.637 358.324C481.215 358.043 480.684 357.902 480.043 357.902C479.527 357.902 479.059 358.055 478.637 358.359C478.215 358.656 477.867 359.062 477.594 359.578C477.32 360.094 477.141 360.68 477.055 361.336L477.078 361.395ZM492.242 369.246C491.391 369.246 490.594 369.16 489.852 368.988C489.109 368.816 488.32 368.551 487.484 368.191L487.461 365.18H489.207L489.641 366.996C490.078 367.176 490.5 367.309 490.906 367.395C491.32 367.473 491.766 367.512 492.242 367.512C493.18 367.512 493.852 367.332 494.258 366.973C494.664 366.613 494.867 366.168 494.867 365.637C494.867 365.137 494.66 364.715 494.246 364.371C493.84 364.02 493.098 363.723 492.02 363.48C490.488 363.129 489.359 362.66 488.633 362.074C487.914 361.48 487.555 360.691 487.555 359.707C487.555 359.02 487.754 358.406 488.152 357.867C488.551 357.32 489.105 356.887 489.816 356.566C490.527 356.246 491.355 356.086 492.301 356.086C493.262 356.086 494.082 356.195 494.762 356.414C495.449 356.633 496.047 356.926 496.555 357.293L496.672 360.188H494.938L494.562 358.5C494.289 358.297 493.965 358.141 493.59 358.031C493.215 357.922 492.785 357.867 492.301 357.867C491.582 357.867 490.996 358.035 490.543 358.371C490.098 358.707 489.875 359.129 489.875 359.637C489.875 359.934 489.938 360.191 490.062 360.41C490.195 360.629 490.445 360.828 490.812 361.008C491.18 361.18 491.719 361.352 492.43 361.523C494.195 361.938 495.426 362.465 496.121 363.105C496.824 363.746 497.176 364.535 497.176 365.473C497.176 366.543 496.777 367.441 495.98 368.168C495.191 368.887 493.945 369.246 492.242 369.246ZM504.219 369.246C503.367 369.246 502.57 369.16 501.828 368.988C501.086 368.816 500.297 368.551 499.461 368.191L499.438 365.18H501.184L501.617 366.996C502.055 367.176 502.477 367.309 502.883 367.395C503.297 367.473 503.742 367.512 504.219 367.512C505.156 367.512 505.828 367.332 506.234 366.973C506.641 366.613 506.844 366.168 506.844 365.637C506.844 365.137 506.637 364.715 506.223 364.371C505.816 364.02 505.074 363.723 503.996 363.48C502.465 363.129 501.336 362.66 500.609 362.074C499.891 361.48 499.531 360.691 499.531 359.707C499.531 359.02 499.73 358.406 500.129 357.867C500.527 357.32 501.082 356.887 501.793 356.566C502.504 356.246 503.332 356.086 504.277 356.086C505.238 356.086 506.059 356.195 506.738 356.414C507.426 356.633 508.023 356.926 508.531 357.293L508.648 360.188H506.914L506.539 358.5C506.266 358.297 505.941 358.141 505.566 358.031C505.191 357.922 504.762 357.867 504.277 357.867C503.559 357.867 502.973 358.035 502.52 358.371C502.074 358.707 501.852 359.129 501.852 359.637C501.852 359.934 501.914 360.191 502.039 360.41C502.172 360.629 502.422 360.828 502.789 361.008C503.156 361.18 503.695 361.352 504.406 361.523C506.172 361.938 507.402 362.465 508.098 363.105C508.801 363.746 509.152 364.535 509.152 365.473C509.152 366.543 508.754 367.441 507.957 368.168C507.168 368.887 505.922 369.246 504.219 369.246Z" fill="black"/>
<path d="M558.747 513.027L559.973 514.253L547.893 526.333H546.667V525.107L558.747 513.027ZM563.547 505C563.213 505 562.867 505.133 562.613 505.387L560.173 507.827L565.173 512.827L567.613 510.387C568.133 509.867 568.133 509.027 567.613 508.507L564.493 505.387C564.227 505.12 563.893 505 563.547 505ZM558.747 509.253L544 524V529H549L563.747 514.253L558.747 509.253Z" fill="black"/>
<path d="M417.625 527V525.523L419.535 525.195V511.754L417.625 511.426V509.938H419.535H425.465C426.684 509.938 427.723 510.152 428.582 510.582C429.441 511.004 430.098 511.598 430.551 512.363C431.004 513.129 431.23 514.023 431.23 515.047C431.23 516.078 431.004 516.977 430.551 517.742C430.098 518.508 429.441 519.102 428.582 519.523C427.723 519.945 426.684 520.156 425.465 520.156H421.844V525.195L423.754 525.523V527H417.625ZM421.844 518.352H425.465C426.621 518.352 427.484 518.043 428.055 517.426C428.633 516.801 428.922 516.016 428.922 515.07C428.922 514.125 428.633 513.336 428.055 512.703C427.484 512.07 426.621 511.754 425.465 511.754H421.844V518.352ZM436.715 527.246C435.395 527.246 434.391 526.926 433.703 526.285C433.016 525.637 432.672 524.727 432.672 523.555C432.672 522.75 432.891 522.051 433.328 521.457C433.773 520.855 434.414 520.391 435.25 520.062C436.086 519.727 437.086 519.559 438.25 519.559H440.512V518.316C440.512 517.551 440.277 516.957 439.809 516.535C439.348 516.113 438.695 515.902 437.852 515.902C437.32 515.902 436.859 515.969 436.469 516.102C436.078 516.227 435.723 516.402 435.402 516.629L435.156 518.398H433.375V515.492C433.945 515.031 434.609 514.684 435.367 514.449C436.125 514.207 436.965 514.086 437.887 514.086C439.426 514.086 440.633 514.453 441.508 515.188C442.383 515.922 442.82 516.973 442.82 518.34V524.445C442.82 524.609 442.82 524.77 442.82 524.926C442.828 525.082 442.84 525.238 442.855 525.395L444.086 525.523V527H440.77C440.699 526.656 440.645 526.348 440.605 526.074C440.566 525.801 440.539 525.527 440.523 525.254C440.078 525.824 439.52 526.301 438.848 526.684C438.184 527.059 437.473 527.246 436.715 527.246ZM437.055 525.312C437.82 525.312 438.52 525.129 439.152 524.762C439.785 524.395 440.238 523.953 440.512 523.438V521.141H438.168C437.105 521.141 436.309 521.395 435.777 521.902C435.246 522.41 434.98 522.977 434.98 523.602C434.98 524.156 435.152 524.582 435.496 524.879C435.84 525.168 436.359 525.312 437.055 525.312ZM451.012 527.246C450.16 527.246 449.363 527.16 448.621 526.988C447.879 526.816 447.09 526.551 446.254 526.191L446.23 523.18H447.977L448.41 524.996C448.848 525.176 449.27 525.309 449.676 525.395C450.09 525.473 450.535 525.512 451.012 525.512C451.949 525.512 452.621 525.332 453.027 524.973C453.434 524.613 453.637 524.168 453.637 523.637C453.637 523.137 453.43 522.715 453.016 522.371C452.609 522.02 451.867 521.723 450.789 521.48C449.258 521.129 448.129 520.66 447.402 520.074C446.684 519.48 446.324 518.691 446.324 517.707C446.324 517.02 446.523 516.406 446.922 515.867C447.32 515.32 447.875 514.887 448.586 514.566C449.297 514.246 450.125 514.086 451.07 514.086C452.031 514.086 452.852 514.195 453.531 514.414C454.219 514.633 454.816 514.926 455.324 515.293L455.441 518.188H453.707L453.332 516.5C453.059 516.297 452.734 516.141 452.359 516.031C451.984 515.922 451.555 515.867 451.07 515.867C450.352 515.867 449.766 516.035 449.312 516.371C448.867 516.707 448.645 517.129 448.645 517.637C448.645 517.934 448.707 518.191 448.832 518.41C448.965 518.629 449.215 518.828 449.582 519.008C449.949 519.18 450.488 519.352 451.199 519.523C452.965 519.938 454.195 520.465 454.891 521.105C455.594 521.746 455.945 522.535 455.945 523.473C455.945 524.543 455.547 525.441 454.75 526.168C453.961 526.887 452.715 527.246 451.012 527.246ZM462.988 527.246C462.137 527.246 461.34 527.16 460.598 526.988C459.855 526.816 459.066 526.551 458.23 526.191L458.207 523.18H459.953L460.387 524.996C460.824 525.176 461.246 525.309 461.652 525.395C462.066 525.473 462.512 525.512 462.988 525.512C463.926 525.512 464.598 525.332 465.004 524.973C465.41 524.613 465.613 524.168 465.613 523.637C465.613 523.137 465.406 522.715 464.992 522.371C464.586 522.02 463.844 521.723 462.766 521.48C461.234 521.129 460.105 520.66 459.379 520.074C458.66 519.48 458.301 518.691 458.301 517.707C458.301 517.02 458.5 516.406 458.898 515.867C459.297 515.32 459.852 514.887 460.562 514.566C461.273 514.246 462.102 514.086 463.047 514.086C464.008 514.086 464.828 514.195 465.508 514.414C466.195 514.633 466.793 514.926 467.301 515.293L467.418 518.188H465.684L465.309 516.5C465.035 516.297 464.711 516.141 464.336 516.031C463.961 515.922 463.531 515.867 463.047 515.867C462.328 515.867 461.742 516.035 461.289 516.371C460.844 516.707 460.621 517.129 460.621 517.637C460.621 517.934 460.684 518.191 460.809 518.41C460.941 518.629 461.191 518.828 461.559 519.008C461.926 519.18 462.465 519.352 463.176 519.523C464.941 519.938 466.172 520.465 466.867 521.105C467.57 521.746 467.922 522.535 467.922 523.473C467.922 524.543 467.523 525.441 466.727 526.168C465.938 526.887 464.691 527.246 462.988 527.246ZM474.332 527L470.992 515.973L469.574 515.809V514.32H474.812V515.809L473.254 516.066L475 522.383L475.398 523.883H475.469L475.984 522.383L478.738 514.32H480.684L483.309 522.359L483.871 524.141H483.941L484.492 522.359L486.262 516.055L484.668 515.809V514.32H489.789V515.809L488.383 516.008L485.102 527H482.91L480.344 519.383L479.734 517.344L479.664 517.355L479.066 519.383L476.312 527H474.332ZM496.703 527.246C495.531 527.246 494.52 526.973 493.668 526.426C492.824 525.871 492.172 525.109 491.711 524.141C491.25 523.164 491.02 522.051 491.02 520.801V520.543C491.02 519.293 491.25 518.184 491.711 517.215C492.172 516.238 492.824 515.473 493.668 514.918C494.52 514.363 495.523 514.086 496.68 514.086C497.852 514.086 498.859 514.363 499.703 514.918C500.555 515.473 501.211 516.234 501.672 517.203C502.133 518.172 502.363 519.285 502.363 520.543V520.801C502.363 522.059 502.133 523.176 501.672 524.152C501.211 525.121 500.559 525.879 499.715 526.426C498.871 526.973 497.867 527.246 496.703 527.246ZM496.703 525.441C497.438 525.441 498.051 525.242 498.543 524.844C499.043 524.438 499.418 523.887 499.668 523.191C499.926 522.488 500.055 521.691 500.055 520.801V520.543C500.055 519.652 499.926 518.859 499.668 518.164C499.418 517.461 499.043 516.91 498.543 516.512C498.043 516.105 497.422 515.902 496.68 515.902C495.945 515.902 495.328 516.105 494.828 516.512C494.328 516.91 493.953 517.461 493.703 518.164C493.453 518.859 493.328 519.652 493.328 520.543V520.801C493.328 521.691 493.453 522.488 493.703 523.191C493.953 523.887 494.328 524.438 494.828 524.844C495.336 525.242 495.961 525.441 496.703 525.441ZM504.121 527V525.523L506.031 525.195V516.137L504.121 515.809V514.32H508.094L508.293 515.938L508.316 516.16C508.676 515.512 509.117 515.004 509.641 514.637C510.172 514.27 510.777 514.086 511.457 514.086C511.699 514.086 511.945 514.109 512.195 514.156C512.453 514.195 512.637 514.234 512.746 514.273L512.441 516.418L510.836 516.324C510.227 516.285 509.715 516.426 509.301 516.746C508.887 517.059 508.566 517.48 508.34 518.012V525.195L510.25 525.523V527H504.121ZM518.898 527.246C517.867 527.246 516.98 526.992 516.238 526.484C515.504 525.969 514.941 525.254 514.551 524.34C514.16 523.426 513.965 522.359 513.965 521.141V520.895C513.965 519.535 514.16 518.344 514.551 517.32C514.941 516.297 515.508 515.504 516.25 514.941C516.992 514.371 517.883 514.086 518.922 514.086C519.672 514.086 520.332 514.227 520.902 514.508C521.48 514.781 521.973 515.18 522.379 515.703V510.535L520.469 510.207V508.719H522.379H524.688V525.195L526.598 525.523V527H522.684L522.496 525.488C522.082 526.066 521.574 526.504 520.973 526.801C520.379 527.098 519.688 527.246 518.898 527.246ZM519.484 525.371C520.172 525.371 520.75 525.215 521.219 524.902C521.688 524.59 522.074 524.148 522.379 523.578V517.695C522.082 517.164 521.695 516.742 521.219 516.43C520.742 516.117 520.172 515.961 519.508 515.961C518.773 515.961 518.168 516.172 517.691 516.594C517.215 517.008 516.859 517.586 516.625 518.328C516.391 519.062 516.273 519.918 516.273 520.895V521.141C516.273 522.414 516.535 523.438 517.059 524.211C517.582 524.984 518.391 525.371 519.484 525.371Z" fill="black"/>
<rect x="412" y="542" width="465" height="49" rx="15" fill="#E8E8E8"/>
<path d="M429.18 572.887L427.059 569.523L424.996 572.793L423.449 571.703L425.77 568.492L422.301 567.449L422.875 565.645L426.344 566.945L426.227 562.938H428.113L427.996 567.016L431.43 565.727L431.992 567.555L428.453 568.598L430.715 571.762L429.18 572.887ZM440.406 572.887L438.285 569.523L436.223 572.793L434.676 571.703L436.996 568.492L433.527 567.449L434.102 565.645L437.57 566.945L437.453 562.938H439.34L439.223 567.016L442.656 565.727L443.219 567.555L439.68 568.598L441.941 571.762L440.406 572.887ZM451.633 572.887L449.512 569.523L447.449 572.793L445.902 571.703L448.223 568.492L444.754 567.449L445.328 565.645L448.797 566.945L448.68 562.938H450.566L450.449 567.016L453.883 565.727L454.445 567.555L450.906 568.598L453.168 571.762L451.633 572.887ZM462.859 572.887L460.738 569.523L458.676 572.793L457.129 571.703L459.449 568.492L455.98 567.449L456.555 565.645L460.023 566.945L459.906 562.938H461.793L461.676 567.016L465.109 565.727L465.672 567.555L462.133 568.598L464.395 571.762L462.859 572.887ZM474.086 572.887L471.965 569.523L469.902 572.793L468.355 571.703L470.676 568.492L467.207 567.449L467.781 565.645L471.25 566.945L471.133 562.938H473.02L472.902 567.016L476.336 565.727L476.898 567.555L473.359 568.598L475.621 571.762L474.086 572.887ZM485.312 572.887L483.191 569.523L481.129 572.793L479.582 571.703L481.902 568.492L478.434 567.449L479.008 565.645L482.477 566.945L482.359 562.938H484.246L484.129 567.016L487.562 565.727L488.125 567.555L484.586 568.598L486.848 571.762L485.312 572.887ZM496.539 572.887L494.418 569.523L492.355 572.793L490.809 571.703L493.129 568.492L489.66 567.449L490.234 565.645L493.703 566.945L493.586 562.938H495.473L495.355 567.016L498.789 565.727L499.352 567.555L495.812 568.598L498.074 571.762L496.539 572.887ZM507.766 572.887L505.645 569.523L503.582 572.793L502.035 571.703L504.355 568.492L500.887 567.449L501.461 565.645L504.93 566.945L504.812 562.938H506.699L506.582 567.016L510.016 565.727L510.578 567.555L507.039 568.598L509.301 571.762L507.766 572.887ZM518.992 572.887L516.871 569.523L514.809 572.793L513.262 571.703L515.582 568.492L512.113 567.449L512.688 565.645L516.156 566.945L516.039 562.938H517.926L517.809 567.016L521.242 565.727L521.805 567.555L518.266 568.598L520.527 571.762L518.992 572.887ZM530.219 572.887L528.098 569.523L526.035 572.793L524.488 571.703L526.809 568.492L523.34 567.449L523.914 565.645L527.383 566.945L527.266 562.938H529.152L529.035 567.016L532.469 565.727L533.031 567.555L529.492 568.598L531.754 571.762L530.219 572.887ZM541.445 572.887L539.324 569.523L537.262 572.793L535.715 571.703L538.035 568.492L534.566 567.449L535.141 565.645L538.609 566.945L538.492 562.938H540.379L540.262 567.016L543.695 565.727L544.258 567.555L540.719 568.598L542.98 571.762L541.445 572.887ZM552.672 572.887L550.551 569.523L548.488 572.793L546.941 571.703L549.262 568.492L545.793 567.449L546.367 565.645L549.836 566.945L549.719 562.938H551.605L551.488 567.016L554.922 565.727L555.484 567.555L551.945 568.598L554.207 571.762L552.672 572.887ZM563.898 572.887L561.777 569.523L559.715 572.793L558.168 571.703L560.488 568.492L557.02 567.449L557.594 565.645L561.062 566.945L560.945 562.938H562.832L562.715 567.016L566.148 565.727L566.711 567.555L563.172 568.598L565.434 571.762L563.898 572.887Z" fill="black" fill-opacity="0.35"/>
<path d="M852 560C855.79 560 859.17 562.13 860.82 565.5C860.23 566.72 859.4 567.77 858.41 568.62L859.82 570.03C861.21 568.8 862.31 567.26 863 565.5C861.27 561.11 857 558 852 558C850.73 558 849.51 558.2 848.36 558.57L850.01 560.22C850.66 560.09 851.32 560 852 560ZM850.93 561.14L853 563.21C853.57 563.46 854.03 563.92 854.28 564.49L856.35 566.56C856.43 566.22 856.49 565.86 856.49 565.49C856.5 563.01 854.48 561 852 561C851.63 561 851.28 561.05 850.93 561.14ZM842.01 557.87L844.69 560.55C843.06 561.83 841.77 563.53 841 565.5C842.73 569.89 847 573 852 573C853.52 573 854.98 572.71 856.32 572.18L859.74 575.6L861.15 574.19L843.42 556.45L842.01 557.87ZM849.51 565.37L852.12 567.98C852.08 567.99 852.04 568 852 568C850.62 568 849.5 566.88 849.5 565.5C849.5 565.45 849.51 565.42 849.51 565.37ZM846.11 561.97L847.86 563.72C847.63 564.27 847.5 564.87 847.5 565.5C847.5 567.98 849.52 570 852 570C852.63 570 853.23 569.87 853.77 569.64L854.75 570.62C853.87 570.86 852.95 571 852 571C848.21 571 844.83 568.87 843.18 565.5C843.88 564.07 844.9 562.89 846.11 561.97Z" fill="black"/>
<g filter="url(#filter0_d_64_98)">
<rect x="657" y="616" width="220" height="58" rx="24" fill="white"/>
<path d="M729.781 654.246C728.07 654.246 726.641 653.871 725.492 653.121C724.352 652.371 723.492 651.344 722.914 650.039C722.344 648.734 722.059 647.254 722.059 645.598V645.352C722.059 643.68 722.359 642.195 722.961 640.898C723.562 639.594 724.426 638.566 725.551 637.816C726.676 637.066 728.02 636.691 729.582 636.691C730.684 636.691 731.691 636.863 732.605 637.207C733.52 637.551 734.277 637.988 734.879 638.52V642.199H733.039L732.793 639.504C732.543 639.309 732.254 639.145 731.926 639.012C731.605 638.879 731.246 638.777 730.848 638.707C730.457 638.637 730.031 638.602 729.57 638.602C728.453 638.602 727.508 638.891 726.734 639.469C725.961 640.039 725.375 640.828 724.977 641.836C724.578 642.844 724.379 644.008 724.379 645.328V645.598C724.379 647.027 724.59 648.25 725.012 649.266C725.441 650.273 726.062 651.043 726.875 651.574C727.695 652.105 728.691 652.371 729.863 652.371C730.41 652.371 730.945 652.305 731.469 652.172C731.992 652.039 732.426 651.867 732.77 651.656L733.027 649.277H734.832V652.98C734.191 653.379 733.426 653.691 732.535 653.918C731.645 654.137 730.727 654.246 729.781 654.246ZM742.836 654.246C741.664 654.246 740.652 653.973 739.801 653.426C738.957 652.871 738.305 652.109 737.844 651.141C737.383 650.164 737.152 649.051 737.152 647.801V647.543C737.152 646.293 737.383 645.184 737.844 644.215C738.305 643.238 738.957 642.473 739.801 641.918C740.652 641.363 741.656 641.086 742.812 641.086C743.984 641.086 744.992 641.363 745.836 641.918C746.688 642.473 747.344 643.234 747.805 644.203C748.266 645.172 748.496 646.285 748.496 647.543V647.801C748.496 649.059 748.266 650.176 747.805 651.152C747.344 652.121 746.691 652.879 745.848 653.426C745.004 653.973 744 654.246 742.836 654.246ZM742.836 652.441C743.57 652.441 744.184 652.242 744.676 651.844C745.176 651.438 745.551 650.887 745.801 650.191C746.059 649.488 746.188 648.691 746.188 647.801V647.543C746.188 646.652 746.059 645.859 745.801 645.164C745.551 644.461 745.176 643.91 744.676 643.512C744.176 643.105 743.555 642.902 742.812 642.902C742.078 642.902 741.461 643.105 740.961 643.512C740.461 643.91 740.086 644.461 739.836 645.164C739.586 645.859 739.461 646.652 739.461 647.543V647.801C739.461 648.691 739.586 649.488 739.836 650.191C740.086 650.887 740.461 651.438 740.961 651.844C741.469 652.242 742.094 652.441 742.836 652.441ZM750.277 654V652.523L752.188 652.195V643.137L750.277 642.809V641.32H754.25L754.414 643.207C754.836 642.535 755.363 642.016 755.996 641.648C756.637 641.273 757.363 641.086 758.176 641.086C759.543 641.086 760.602 641.488 761.352 642.293C762.102 643.09 762.477 644.324 762.477 645.996V652.195L764.387 652.523V654H758.258V652.523L760.168 652.195V646.043C760.168 644.926 759.945 644.133 759.5 643.664C759.062 643.195 758.391 642.961 757.484 642.961C756.82 642.961 756.23 643.121 755.715 643.441C755.207 643.762 754.801 644.199 754.496 644.754V652.195L756.406 652.523V654H750.277ZM765.758 654V652.523L767.668 652.195V643.031H765.688V641.32H767.668V639.949C767.668 638.527 768.086 637.426 768.922 636.645C769.758 635.863 770.914 635.473 772.391 635.473C772.906 635.473 773.422 635.535 773.938 635.66C774.453 635.785 775.047 635.961 775.719 636.188L775.332 638.062C774.918 637.898 774.477 637.758 774.008 637.641C773.539 637.523 773.059 637.465 772.566 637.465C771.645 637.465 770.98 637.668 770.574 638.074C770.176 638.48 769.977 639.105 769.977 639.949V641.32H777.207V652.195L779.117 652.523V654H772.988V652.523L774.898 652.195V643.031H769.977V652.195L771.887 652.523V654H765.758ZM780.535 654V652.523L782.445 652.195V643.137L780.535 642.809V641.32H784.508L784.707 642.938L784.73 643.16C785.09 642.512 785.531 642.004 786.055 641.637C786.586 641.27 787.191 641.086 787.871 641.086C788.113 641.086 788.359 641.109 788.609 641.156C788.867 641.195 789.051 641.234 789.16 641.273L788.855 643.418L787.25 643.324C786.641 643.285 786.129 643.426 785.715 643.746C785.301 644.059 784.98 644.48 784.754 645.012V652.195L786.664 652.523V654H780.535ZM790.566 654V652.523L792.477 652.195V643.137L790.566 642.809V641.32H794.551L794.703 642.973C795.109 642.371 795.633 641.906 796.273 641.578C796.914 641.25 797.656 641.086 798.5 641.086C799.344 641.086 800.066 641.281 800.668 641.672C801.277 642.062 801.734 642.648 802.039 643.43C802.438 642.711 802.965 642.141 803.621 641.719C804.277 641.297 805.043 641.086 805.918 641.086C807.215 641.086 808.238 641.531 808.988 642.422C809.738 643.305 810.113 644.637 810.113 646.418V652.195L812.023 652.523V654H805.883V652.523L807.793 652.195V646.395C807.793 645.145 807.578 644.262 807.148 643.746C806.719 643.223 806.082 642.961 805.238 642.961C804.434 642.961 803.785 643.246 803.293 643.816C802.809 644.379 802.527 645.09 802.449 645.949V652.195L804.359 652.523V654H798.23V652.523L800.141 652.195V646.395C800.141 645.207 799.918 644.34 799.473 643.793C799.035 643.238 798.398 642.961 797.562 642.961C796.859 642.961 796.281 643.105 795.828 643.395C795.375 643.684 795.027 644.09 794.785 644.613V652.195L796.695 652.523V654H790.566Z" fill="black"/>
</g>
<g filter="url(#filter1_d_64_98)">
<rect x="412" y="616" width="225" height="58" rx="24" fill="white"/>
<path d="M482.664 654V652.523L484.574 652.195V638.754L482.664 638.426V636.938H484.574H489.344C490.852 636.938 492.164 637.297 493.281 638.016C494.406 638.734 495.281 639.723 495.906 640.98C496.531 642.238 496.844 643.676 496.844 645.293V645.656C496.844 647.234 496.543 648.656 495.941 649.922C495.34 651.18 494.484 652.176 493.375 652.91C492.273 653.637 490.969 654 489.461 654H482.664ZM486.883 652.195H489.344C490.422 652.195 491.348 651.902 492.121 651.316C492.895 650.723 493.488 649.934 493.902 648.949C494.324 647.957 494.535 646.859 494.535 645.656V645.27C494.535 644.027 494.324 642.918 493.902 641.941C493.488 640.957 492.895 640.18 492.121 639.609C491.348 639.039 490.422 638.754 489.344 638.754H486.883V652.195ZM498.391 654V652.523L500.301 652.195V643.137L498.391 642.809V641.32H502.609V652.195L504.52 652.523V654H498.391ZM500.184 638.191V635.719H502.609V638.191H500.184ZM511.246 654.246C510.395 654.246 509.598 654.16 508.855 653.988C508.113 653.816 507.324 653.551 506.488 653.191L506.465 650.18H508.211L508.645 651.996C509.082 652.176 509.504 652.309 509.91 652.395C510.324 652.473 510.77 652.512 511.246 652.512C512.184 652.512 512.855 652.332 513.262 651.973C513.668 651.613 513.871 651.168 513.871 650.637C513.871 650.137 513.664 649.715 513.25 649.371C512.844 649.02 512.102 648.723 511.023 648.48C509.492 648.129 508.363 647.66 507.637 647.074C506.918 646.48 506.559 645.691 506.559 644.707C506.559 644.02 506.758 643.406 507.156 642.867C507.555 642.32 508.109 641.887 508.82 641.566C509.531 641.246 510.359 641.086 511.305 641.086C512.266 641.086 513.086 641.195 513.766 641.414C514.453 641.633 515.051 641.926 515.559 642.293L515.676 645.188H513.941L513.566 643.5C513.293 643.297 512.969 643.141 512.594 643.031C512.219 642.922 511.789 642.867 511.305 642.867C510.586 642.867 510 643.035 509.547 643.371C509.102 643.707 508.879 644.129 508.879 644.637C508.879 644.934 508.941 645.191 509.066 645.41C509.199 645.629 509.449 645.828 509.816 646.008C510.184 646.18 510.723 646.352 511.434 646.523C513.199 646.938 514.43 647.465 515.125 648.105C515.828 648.746 516.18 649.535 516.18 650.473C516.18 651.543 515.781 652.441 514.984 653.168C514.195 653.887 512.949 654.246 511.246 654.246ZM523.82 654.246C522.672 654.246 521.672 653.98 520.82 653.449C519.969 652.91 519.309 652.164 518.84 651.211C518.371 650.258 518.137 649.156 518.137 647.906V647.414C518.137 646.211 518.363 645.133 518.816 644.18C519.27 643.227 519.922 642.473 520.773 641.918C521.625 641.363 522.641 641.086 523.82 641.086C524.844 641.086 525.738 641.254 526.504 641.59C527.277 641.926 527.926 642.387 528.449 642.973L528.508 646.02H526.703L526.305 643.805C526.039 643.531 525.707 643.312 525.309 643.148C524.91 642.984 524.441 642.902 523.902 642.902C523.215 642.902 522.609 643.105 522.086 643.512C521.57 643.918 521.168 644.461 520.879 645.141C520.59 645.82 520.445 646.578 520.445 647.414V647.906C520.445 648.828 520.578 649.629 520.844 650.309C521.117 650.988 521.504 651.516 522.004 651.891C522.512 652.258 523.113 652.441 523.809 652.441C524.59 652.441 525.238 652.227 525.754 651.797C526.27 651.367 526.586 650.777 526.703 650.027H528.777L528.801 650.098C528.762 650.824 528.547 651.504 528.156 652.137C527.766 652.77 527.207 653.281 526.48 653.672C525.762 654.055 524.875 654.246 523.82 654.246ZM534.941 654.246C533.621 654.246 532.617 653.926 531.93 653.285C531.242 652.637 530.898 651.727 530.898 650.555C530.898 649.75 531.117 649.051 531.555 648.457C532 647.855 532.641 647.391 533.477 647.062C534.312 646.727 535.312 646.559 536.477 646.559H538.738V645.316C538.738 644.551 538.504 643.957 538.035 643.535C537.574 643.113 536.922 642.902 536.078 642.902C535.547 642.902 535.086 642.969 534.695 643.102C534.305 643.227 533.949 643.402 533.629 643.629L533.383 645.398H531.602V642.492C532.172 642.031 532.836 641.684 533.594 641.449C534.352 641.207 535.191 641.086 536.113 641.086C537.652 641.086 538.859 641.453 539.734 642.188C540.609 642.922 541.047 643.973 541.047 645.34V651.445C541.047 651.609 541.047 651.77 541.047 651.926C541.055 652.082 541.066 652.238 541.082 652.395L542.312 652.523V654H538.996C538.926 653.656 538.871 653.348 538.832 653.074C538.793 652.801 538.766 652.527 538.75 652.254C538.305 652.824 537.746 653.301 537.074 653.684C536.41 654.059 535.699 654.246 534.941 654.246ZM535.281 652.312C536.047 652.312 536.746 652.129 537.379 651.762C538.012 651.395 538.465 650.953 538.738 650.438V648.141H536.395C535.332 648.141 534.535 648.395 534.004 648.902C533.473 649.41 533.207 649.977 533.207 650.602C533.207 651.156 533.379 651.582 533.723 651.879C534.066 652.168 534.586 652.312 535.281 652.312ZM544.082 654V652.523L545.992 652.195V643.137L544.082 642.809V641.32H548.055L548.254 642.938L548.277 643.16C548.637 642.512 549.078 642.004 549.602 641.637C550.133 641.27 550.738 641.086 551.418 641.086C551.66 641.086 551.906 641.109 552.156 641.156C552.414 641.195 552.598 641.234 552.707 641.273L552.402 643.418L550.797 643.324C550.188 643.285 549.676 643.426 549.262 643.746C548.848 644.059 548.527 644.48 548.301 645.012V652.195L550.211 652.523V654H544.082ZM558.859 654.246C557.828 654.246 556.941 653.992 556.199 653.484C555.465 652.969 554.902 652.254 554.512 651.34C554.121 650.426 553.926 649.359 553.926 648.141V647.895C553.926 646.535 554.121 645.344 554.512 644.32C554.902 643.297 555.469 642.504 556.211 641.941C556.953 641.371 557.844 641.086 558.883 641.086C559.633 641.086 560.293 641.227 560.863 641.508C561.441 641.781 561.934 642.18 562.34 642.703V637.535L560.43 637.207V635.719H562.34H564.648V652.195L566.559 652.523V654H562.645L562.457 652.488C562.043 653.066 561.535 653.504 560.934 653.801C560.34 654.098 559.648 654.246 558.859 654.246ZM559.445 652.371C560.133 652.371 560.711 652.215 561.18 651.902C561.648 651.59 562.035 651.148 562.34 650.578V644.695C562.043 644.164 561.656 643.742 561.18 643.43C560.703 643.117 560.133 642.961 559.469 642.961C558.734 642.961 558.129 643.172 557.652 643.594C557.176 644.008 556.82 644.586 556.586 645.328C556.352 646.062 556.234 646.918 556.234 647.895V648.141C556.234 649.414 556.496 650.438 557.02 651.211C557.543 651.984 558.352 652.371 559.445 652.371Z" fill="black"/>
</g>
<defs>
<filter id="filter0_d_64_98" x="653" y="616" width="228" height="66" filterUnits="userSpaceOnUse" color-interpolation-filters="sRGB">
<feFlood flood-opacity="0" result="BackgroundImageFix"/>
<feColorMatrix in="SourceAlpha" type="matrix" values="0 0 0 0 0 0 0 0 0 0 0 0 0 0 0 0 0 0 127 0" result="hardAlpha"/>
<feOffset dy="4"/>
<feGaussianBlur stdDeviation="2"/>
<feComposite in2="hardAlpha" operator="out"/>
<feColorMatrix type="matrix" values="0 0 0 0 0 0 0 0 0 0 0 0 0 0 0 0 0 0 0.25 0"/>
<feBlend mode="normal" in2="BackgroundImageFix" result="effect1_dropShadow_64_98"/>
<feBlend mode="normal" in="SourceGraphic" in2="effect1_dropShadow_64_98" result="shape"/>
</filter>
<filter id="filter1_d_64_98" x="408" y="616" width="233" height="66" filterUnits="userSpaceOnUse" color-interpolation-filters="sRGB">
<feFlood flood-opacity="0" result="BackgroundImageFix"/>
<feColorMatrix in="SourceAlpha" type="matrix" values="0 0 0 0 0 0 0 0 0 0 0 0 0 0 0 0 0 0 127 0" result="hardAlpha"/>
<feOffset dy="4"/>
<feGaussianBlur stdDeviation="2"/>
<feComposite in2="hardAlpha" operator="out"/>
<feColorMatrix type="matrix" values="0 0 0 0 0 0 0 0 0 0 0 0 0 0 0 0 0 0 0.25 0"/>
<feBlend mode="normal" in2="BackgroundImageFix" result="effect1_dropShadow_64_98"/>
<feBlend mode="normal" in="SourceGraphic" in2="effect1_dropShadow_64_98" result="shape"/>
</filter>
</defs>
</svg>
