<svg width="1280" height="720" viewBox="0 0 1280 720" fill="none" xmlns="http://www.w3.org/2000/svg">
<rect width="1280" height="720" fill="white"/>
<rect width="1280" height="64" fill="#C4C4C4"/>
<path d="M18.75 41.5H47.25V38.3333H18.75V41.5ZM18.75 33.5833H47.25V30.4167H18.75V33.5833ZM18.75 22.5V25.6667H47.25V22.5H18.75Z" fill="black"/>
<path d="M1247 16.1667C1238.26 16.1667 1231.17 23.2601 1231.17 32.0001C1231.17 40.7401 1238.26 47.8334 1247 47.8334C1255.74 47.8334 1262.83 40.7401 1262.83 32.0001C1262.83 23.2601 1255.74 16.1667 1247 16.1667ZM1239.19 41.9434C1239.87 40.5184 1244.02 39.1251 1247 39.1251C1249.98 39.1251 1254.14 40.5184 1254.81 41.9434C1252.65 43.6534 1249.94 44.6668 1247 44.6668C1244.05 44.6668 1241.35 43.6534 1239.19 41.9434ZM1257.07 39.6476C1254.81 36.8926 1249.31 35.9584 1247 35.9584C1244.69 35.9584 1239.19 36.8926 1236.93 39.6476C1235.31 37.5259 1234.33 34.8818 1234.33 32.0001C1234.33 25.0176 1240.02 19.3334 1247 19.3334C1253.98 19.3334 1259.67 25.0176 1259.67 32.0001C1259.67 34.8818 1258.68 37.5259 1257.07 39.6476ZM1247 22.5001C1243.93 22.5001 1241.46 24.9701 1241.46 28.0417C1241.46 31.1134 1243.93 33.5834 1247 33.5834C1250.07 33.5834 1252.54 31.1134 1252.54 28.0417C1252.54 24.9701 1250.07 22.5001 1247 22.5001ZM1247 30.4167C1245.69 30.4167 1244.62 29.3559 1244.62 28.0417C1244.62 26.7276 1245.69 25.6667 1247 25.6667C1248.31 25.6667 1249.37 26.7276 1249.37 28.0417C1249.37 29.3559 1248.31 30.4167 1247 30.4167Z" fill="black"/>
<rect x="992" y="64" width="288" height="656" fill="#D8D8D8"/>
<rect x="1015" y="87" width="241" height="189" fill="#C4C4C4"/>
<path d="M1097.47 184V182.523L1099.38 182.195V168.754L1097.47 168.426V166.949H1105.08C1106.32 166.949 1107.37 167.137 1108.22 167.512C1109.08 167.879 1109.73 168.414 1110.18 169.117C1110.62 169.82 1110.84 170.68 1110.84 171.695C1110.84 172.695 1110.62 173.535 1110.19 174.215C1109.76 174.895 1109.14 175.41 1108.35 175.762C1107.55 176.105 1106.61 176.289 1105.51 176.312L1101.69 176.383V182.195L1103.6 182.523V184H1097.47ZM1108.73 184L1104.94 175.48L1107.25 175.457L1110.4 182.277L1111.58 182.488V184H1108.73ZM1101.69 174.566H1104.84C1106.13 174.566 1107.07 174.32 1107.66 173.828C1108.24 173.336 1108.54 172.617 1108.54 171.672C1108.54 170.773 1108.25 170.062 1107.69 169.539C1107.13 169.016 1106.26 168.754 1105.08 168.754H1101.69V174.566ZM1119.41 184.246C1118.24 184.246 1117.22 183.98 1116.35 183.449C1115.48 182.91 1114.81 182.164 1114.34 181.211C1113.87 180.258 1113.63 179.156 1113.63 177.906V177.391C1113.63 176.188 1113.88 175.113 1114.37 174.168C1114.87 173.215 1115.53 172.465 1116.35 171.918C1117.18 171.363 1118.08 171.086 1119.06 171.086C1120.2 171.086 1121.15 171.32 1121.92 171.789C1122.69 172.258 1123.27 172.918 1123.66 173.77C1124.05 174.613 1124.25 175.609 1124.25 176.758V178.199H1116.02L1115.99 178.258C1116 179.07 1116.14 179.793 1116.41 180.426C1116.68 181.051 1117.07 181.543 1117.58 181.902C1118.09 182.262 1118.7 182.441 1119.41 182.441C1120.19 182.441 1120.88 182.332 1121.46 182.113C1122.05 181.887 1122.57 181.578 1123 181.188L1123.9 182.688C1123.45 183.125 1122.84 183.496 1122.09 183.801C1121.35 184.098 1120.46 184.246 1119.41 184.246ZM1116.09 176.395H1121.94V176.09C1121.94 175.48 1121.83 174.938 1121.61 174.461C1121.4 173.977 1121.08 173.598 1120.65 173.324C1120.23 173.043 1119.7 172.902 1119.06 172.902C1118.54 172.902 1118.07 173.055 1117.65 173.359C1117.23 173.656 1116.88 174.062 1116.61 174.578C1116.34 175.094 1116.16 175.68 1116.07 176.336L1116.09 176.395ZM1131.04 184L1126.52 172.984L1125.21 172.809V171.32H1130.53V172.809L1128.88 173.043L1131.69 180.262L1132.02 181.281H1132.09L1132.46 180.262L1135.08 173.043L1133.38 172.809V171.32H1138.69V172.809L1137.35 172.984L1133.06 184H1131.04ZM1139.82 184V182.523L1141.73 182.195V173.137L1139.82 172.809V171.32H1144.04V182.195L1145.95 182.523V184H1139.82ZM1141.62 168.191V165.719H1144.04V168.191H1141.62ZM1153.32 184.246C1152.15 184.246 1151.13 183.98 1150.27 183.449C1149.4 182.91 1148.73 182.164 1148.25 181.211C1147.78 180.258 1147.55 179.156 1147.55 177.906V177.391C1147.55 176.188 1147.79 175.113 1148.29 174.168C1148.79 173.215 1149.45 172.465 1150.27 171.918C1151.09 171.363 1152 171.086 1152.97 171.086C1154.11 171.086 1155.07 171.32 1155.83 171.789C1156.61 172.258 1157.19 172.918 1157.58 173.77C1157.97 174.613 1158.16 175.609 1158.16 176.758V178.199H1149.94L1149.9 178.258C1149.92 179.07 1150.06 179.793 1150.32 180.426C1150.6 181.051 1150.99 181.543 1151.5 181.902C1152 182.262 1152.61 182.441 1153.32 182.441C1154.11 182.441 1154.79 182.332 1155.38 182.113C1155.97 181.887 1156.48 181.578 1156.91 181.188L1157.81 182.688C1157.36 183.125 1156.76 183.496 1156.01 183.801C1155.27 184.098 1154.37 184.246 1153.32 184.246ZM1150.01 176.395H1155.86V176.09C1155.86 175.48 1155.75 174.938 1155.53 174.461C1155.32 173.977 1155 173.598 1154.57 173.324C1154.14 173.043 1153.61 172.902 1152.97 172.902C1152.46 172.902 1151.99 173.055 1151.57 173.359C1151.14 173.656 1150.8 174.062 1150.52 174.578C1150.25 175.094 1150.07 175.68 1149.98 176.336L1150.01 176.395ZM1164.47 184L1161.13 172.973L1159.71 172.809V171.32H1164.95V172.809L1163.39 173.066L1165.14 179.383L1165.54 180.883H1165.61L1166.12 179.383L1168.88 171.32H1170.82L1173.45 179.359L1174.01 181.141H1174.08L1174.63 179.359L1176.4 173.055L1174.8 172.809V171.32H1179.93V172.809L1178.52 173.008L1175.24 184H1173.05L1170.48 176.383L1169.87 174.344L1169.8 174.355L1169.2 176.383L1166.45 184H1164.47ZM1115.93 216V214.523L1117.84 214.195V200.754L1115.93 200.426V198.938H1122.06V200.426L1120.15 200.754V214.195L1122.06 214.523V216H1115.93ZM1124.12 216V214.523L1126.03 214.195V200.754L1124.12 200.426V198.938H1126.03H1129.11L1134.61 211.887H1134.68L1140 198.938H1145.14V200.426L1143.23 200.754V214.195L1145.14 214.523V216H1139.02V214.523L1141.03 214.195V209.25V202.09L1140.97 202.078L1135.43 215.391H1133.89L1128.16 202.102L1128.11 202.113L1128.19 209.25V214.195L1130.25 214.523V216H1124.12ZM1154.89 216.246C1153.32 216.246 1151.95 215.883 1150.79 215.156C1149.64 214.422 1148.75 213.406 1148.12 212.109C1147.5 210.812 1147.18 209.312 1147.18 207.609V207.328C1147.18 205.609 1147.5 204.105 1148.12 202.816C1148.75 201.52 1149.62 200.508 1150.71 199.781C1151.8 199.055 1153.05 198.691 1154.44 198.691C1155.77 198.691 1156.89 198.844 1157.81 199.148C1158.74 199.453 1159.54 199.863 1160.19 200.379V203.824H1158.29L1158.05 201.352C1157.66 201.102 1157.2 200.914 1156.64 200.789C1156.09 200.656 1155.43 200.59 1154.67 200.59C1153.7 200.59 1152.82 200.871 1152.04 201.434C1151.25 201.996 1150.64 202.781 1150.18 203.789C1149.73 204.789 1149.5 205.961 1149.5 207.305V207.609C1149.5 208.969 1149.71 210.156 1150.12 211.172C1150.55 212.18 1151.16 212.965 1151.96 213.527C1152.77 214.082 1153.75 214.359 1154.89 214.359C1155.68 214.359 1156.34 214.293 1156.88 214.16C1157.41 214.02 1157.89 213.84 1158.3 213.621V209.613L1155.04 209.496V207.797H1160.61V214.406C1160.12 214.867 1159.41 215.289 1158.49 215.672C1157.58 216.055 1156.38 216.246 1154.89 216.246Z" fill="black"/>
<g filter="url(#filter0_d_5_272)">
<rect x="1015" y="565" width="241" height="58" rx="24" fill="white"/>
<path d="M1093.66 603V601.523L1095.57 601.195V587.754L1093.66 587.426V585.938H1095.57H1100.34C1101.85 585.938 1103.16 586.297 1104.28 587.016C1105.41 587.734 1106.28 588.723 1106.91 589.98C1107.53 591.238 1107.84 592.676 1107.84 594.293V594.656C1107.84 596.234 1107.54 597.656 1106.94 598.922C1106.34 600.18 1105.48 601.176 1104.38 601.91C1103.27 602.637 1101.97 603 1100.46 603H1093.66ZM1097.88 601.195H1100.34C1101.42 601.195 1102.35 600.902 1103.12 600.316C1103.89 599.723 1104.49 598.934 1104.9 597.949C1105.32 596.957 1105.54 595.859 1105.54 594.656V594.27C1105.54 593.027 1105.32 591.918 1104.9 590.941C1104.49 589.957 1103.89 589.18 1103.12 588.609C1102.35 588.039 1101.42 587.754 1100.34 587.754H1097.88V601.195ZM1109.39 603V601.523L1111.3 601.195V592.137L1109.39 591.809V590.32H1113.61V601.195L1115.52 601.523V603H1109.39ZM1111.18 587.191V584.719H1113.61V587.191H1111.18ZM1122.25 603.246C1121.39 603.246 1120.6 603.16 1119.86 602.988C1119.11 602.816 1118.32 602.551 1117.49 602.191L1117.46 599.18H1119.21L1119.64 600.996C1120.08 601.176 1120.5 601.309 1120.91 601.395C1121.32 601.473 1121.77 601.512 1122.25 601.512C1123.18 601.512 1123.86 601.332 1124.26 600.973C1124.67 600.613 1124.87 600.168 1124.87 599.637C1124.87 599.137 1124.66 598.715 1124.25 598.371C1123.84 598.02 1123.1 597.723 1122.02 597.48C1120.49 597.129 1119.36 596.66 1118.64 596.074C1117.92 595.48 1117.56 594.691 1117.56 593.707C1117.56 593.02 1117.76 592.406 1118.16 591.867C1118.55 591.32 1119.11 590.887 1119.82 590.566C1120.53 590.246 1121.36 590.086 1122.3 590.086C1123.27 590.086 1124.09 590.195 1124.77 590.414C1125.45 590.633 1126.05 590.926 1126.56 591.293L1126.68 594.188H1124.94L1124.57 592.5C1124.29 592.297 1123.97 592.141 1123.59 592.031C1123.22 591.922 1122.79 591.867 1122.3 591.867C1121.59 591.867 1121 592.035 1120.55 592.371C1120.1 592.707 1119.88 593.129 1119.88 593.637C1119.88 593.934 1119.94 594.191 1120.07 594.41C1120.2 594.629 1120.45 594.828 1120.82 595.008C1121.18 595.18 1121.72 595.352 1122.43 595.523C1124.2 595.938 1125.43 596.465 1126.12 597.105C1126.83 597.746 1127.18 598.535 1127.18 599.473C1127.18 600.543 1126.78 601.441 1125.98 602.168C1125.2 602.887 1123.95 603.246 1122.25 603.246ZM1134.82 603.246C1133.67 603.246 1132.67 602.98 1131.82 602.449C1130.97 601.91 1130.31 601.164 1129.84 600.211C1129.37 599.258 1129.14 598.156 1129.14 596.906V596.414C1129.14 595.211 1129.36 594.133 1129.82 593.18C1130.27 592.227 1130.92 591.473 1131.77 590.918C1132.62 590.363 1133.64 590.086 1134.82 590.086C1135.84 590.086 1136.74 590.254 1137.5 590.59C1138.28 590.926 1138.93 591.387 1139.45 591.973L1139.51 595.02H1137.7L1137.3 592.805C1137.04 592.531 1136.71 592.312 1136.31 592.148C1135.91 591.984 1135.44 591.902 1134.9 591.902C1134.21 591.902 1133.61 592.105 1133.09 592.512C1132.57 592.918 1132.17 593.461 1131.88 594.141C1131.59 594.82 1131.45 595.578 1131.45 596.414V596.906C1131.45 597.828 1131.58 598.629 1131.84 599.309C1132.12 599.988 1132.5 600.516 1133 600.891C1133.51 601.258 1134.11 601.441 1134.81 601.441C1135.59 601.441 1136.24 601.227 1136.75 600.797C1137.27 600.367 1137.59 599.777 1137.7 599.027H1139.78L1139.8 599.098C1139.76 599.824 1139.55 600.504 1139.16 601.137C1138.77 601.77 1138.21 602.281 1137.48 602.672C1136.76 603.055 1135.88 603.246 1134.82 603.246ZM1145.94 603.246C1144.62 603.246 1143.62 602.926 1142.93 602.285C1142.24 601.637 1141.9 600.727 1141.9 599.555C1141.9 598.75 1142.12 598.051 1142.55 597.457C1143 596.855 1143.64 596.391 1144.48 596.062C1145.31 595.727 1146.31 595.559 1147.48 595.559H1149.74V594.316C1149.74 593.551 1149.5 592.957 1149.04 592.535C1148.57 592.113 1147.92 591.902 1147.08 591.902C1146.55 591.902 1146.09 591.969 1145.7 592.102C1145.3 592.227 1144.95 592.402 1144.63 592.629L1144.38 594.398H1142.6V591.492C1143.17 591.031 1143.84 590.684 1144.59 590.449C1145.35 590.207 1146.19 590.086 1147.11 590.086C1148.65 590.086 1149.86 590.453 1150.73 591.188C1151.61 591.922 1152.05 592.973 1152.05 594.34V600.445C1152.05 600.609 1152.05 600.77 1152.05 600.926C1152.05 601.082 1152.07 601.238 1152.08 601.395L1153.31 601.523V603H1150C1149.93 602.656 1149.87 602.348 1149.83 602.074C1149.79 601.801 1149.77 601.527 1149.75 601.254C1149.3 601.824 1148.75 602.301 1148.07 602.684C1147.41 603.059 1146.7 603.246 1145.94 603.246ZM1146.28 601.312C1147.05 601.312 1147.75 601.129 1148.38 600.762C1149.01 600.395 1149.46 599.953 1149.74 599.438V597.141H1147.39C1146.33 597.141 1145.54 597.395 1145 597.902C1144.47 598.41 1144.21 598.977 1144.21 599.602C1144.21 600.156 1144.38 600.582 1144.72 600.879C1145.07 601.168 1145.59 601.312 1146.28 601.312ZM1155.08 603V601.523L1156.99 601.195V592.137L1155.08 591.809V590.32H1159.05L1159.25 591.938L1159.28 592.16C1159.64 591.512 1160.08 591.004 1160.6 590.637C1161.13 590.27 1161.74 590.086 1162.42 590.086C1162.66 590.086 1162.91 590.109 1163.16 590.156C1163.41 590.195 1163.6 590.234 1163.71 590.273L1163.4 592.418L1161.8 592.324C1161.19 592.285 1160.68 592.426 1160.26 592.746C1159.85 593.059 1159.53 593.48 1159.3 594.012V601.195L1161.21 601.523V603H1155.08ZM1169.86 603.246C1168.83 603.246 1167.94 602.992 1167.2 602.484C1166.46 601.969 1165.9 601.254 1165.51 600.34C1165.12 599.426 1164.93 598.359 1164.93 597.141V596.895C1164.93 595.535 1165.12 594.344 1165.51 593.32C1165.9 592.297 1166.47 591.504 1167.21 590.941C1167.95 590.371 1168.84 590.086 1169.88 590.086C1170.63 590.086 1171.29 590.227 1171.86 590.508C1172.44 590.781 1172.93 591.18 1173.34 591.703V586.535L1171.43 586.207V584.719H1173.34H1175.65V601.195L1177.56 601.523V603H1173.64L1173.46 601.488C1173.04 602.066 1172.54 602.504 1171.93 602.801C1171.34 603.098 1170.65 603.246 1169.86 603.246ZM1170.45 601.371C1171.13 601.371 1171.71 601.215 1172.18 600.902C1172.65 600.59 1173.04 600.148 1173.34 599.578V593.695C1173.04 593.164 1172.66 592.742 1172.18 592.43C1171.7 592.117 1171.13 591.961 1170.47 591.961C1169.73 591.961 1169.13 592.172 1168.65 592.594C1168.18 593.008 1167.82 593.586 1167.59 594.328C1167.35 595.062 1167.23 595.918 1167.23 596.895V597.141C1167.23 598.414 1167.5 599.438 1168.02 600.211C1168.54 600.984 1169.35 601.371 1170.45 601.371Z" fill="black"/>
</g>
<g filter="url(#filter1_d_5_272)">
<rect x="1015" y="485" width="241" height="58" rx="24" fill="white"/>
<path d="M1075.04 523V521.523L1076.31 521.348L1082.27 505.938H1084.25L1090.11 521.348L1091.37 521.523V523H1086.47V521.523L1087.76 521.301L1086.63 518.16H1079.8L1078.64 521.301L1079.93 521.523V523H1075.04ZM1080.52 516.227H1085.93L1083.42 509.289L1083.28 508.902H1083.21L1083.07 509.289L1080.52 516.227ZM1097.7 523.246C1096.66 523.246 1095.78 522.992 1095.04 522.484C1094.3 521.969 1093.74 521.254 1093.35 520.34C1092.96 519.426 1092.76 518.359 1092.76 517.141V516.895C1092.76 515.535 1092.96 514.344 1093.35 513.32C1093.74 512.297 1094.3 511.504 1095.05 510.941C1095.79 510.371 1096.68 510.086 1097.72 510.086C1098.47 510.086 1099.13 510.227 1099.7 510.508C1100.28 510.781 1100.77 511.18 1101.18 511.703V506.535L1099.27 506.207V504.719H1101.18H1103.48V521.195L1105.39 521.523V523H1101.48L1101.29 521.488C1100.88 522.066 1100.37 522.504 1099.77 522.801C1099.18 523.098 1098.48 523.246 1097.7 523.246ZM1098.28 521.371C1098.97 521.371 1099.55 521.215 1100.02 520.902C1100.48 520.59 1100.87 520.148 1101.18 519.578V513.695C1100.88 513.164 1100.49 512.742 1100.02 512.43C1099.54 512.117 1098.97 511.961 1098.3 511.961C1097.57 511.961 1096.96 512.172 1096.49 512.594C1096.01 513.008 1095.66 513.586 1095.42 514.328C1095.19 515.062 1095.07 515.918 1095.07 516.895V517.141C1095.07 518.414 1095.33 519.438 1095.86 520.211C1096.38 520.984 1097.19 521.371 1098.28 521.371ZM1111.97 523.246C1110.94 523.246 1110.05 522.992 1109.31 522.484C1108.57 521.969 1108.01 521.254 1107.62 520.34C1107.23 519.426 1107.04 518.359 1107.04 517.141V516.895C1107.04 515.535 1107.23 514.344 1107.62 513.32C1108.01 512.297 1108.58 511.504 1109.32 510.941C1110.06 510.371 1110.95 510.086 1111.99 510.086C1112.74 510.086 1113.4 510.227 1113.97 510.508C1114.55 510.781 1115.04 511.18 1115.45 511.703V506.535L1113.54 506.207V504.719H1115.45H1117.76V521.195L1119.67 521.523V523H1115.75L1115.57 521.488C1115.15 522.066 1114.64 522.504 1114.04 522.801C1113.45 523.098 1112.76 523.246 1111.97 523.246ZM1112.55 521.371C1113.24 521.371 1113.82 521.215 1114.29 520.902C1114.76 520.59 1115.14 520.148 1115.45 519.578V513.695C1115.15 513.164 1114.77 512.742 1114.29 512.43C1113.81 512.117 1113.24 511.961 1112.58 511.961C1111.84 511.961 1111.24 512.172 1110.76 512.594C1110.29 513.008 1109.93 513.586 1109.7 514.328C1109.46 515.062 1109.34 515.918 1109.34 516.895V517.141C1109.34 518.414 1109.61 519.438 1110.13 520.211C1110.65 520.984 1111.46 521.371 1112.55 521.371ZM1127.32 523V521.523L1129.23 521.195V507.754L1127.32 507.426V505.938H1133.45V507.426L1131.54 507.754V521.195L1133.45 521.523V523H1127.32ZM1135.28 523V521.523L1137.19 521.195V512.137L1135.28 511.809V510.32H1139.26L1139.41 511.973C1139.82 511.371 1140.34 510.906 1140.98 510.578C1141.62 510.25 1142.37 510.086 1143.21 510.086C1144.05 510.086 1144.78 510.281 1145.38 510.672C1145.99 511.062 1146.45 511.648 1146.75 512.43C1147.15 511.711 1147.68 511.141 1148.33 510.719C1148.99 510.297 1149.75 510.086 1150.63 510.086C1151.93 510.086 1152.95 510.531 1153.7 511.422C1154.45 512.305 1154.82 513.637 1154.82 515.418V521.195L1156.73 521.523V523H1150.59V521.523L1152.5 521.195V515.395C1152.5 514.145 1152.29 513.262 1151.86 512.746C1151.43 512.223 1150.79 511.961 1149.95 511.961C1149.14 511.961 1148.5 512.246 1148 512.816C1147.52 513.379 1147.24 514.09 1147.16 514.949V521.195L1149.07 521.523V523H1142.94V521.523L1144.85 521.195V515.395C1144.85 514.207 1144.63 513.34 1144.18 512.793C1143.75 512.238 1143.11 511.961 1142.27 511.961C1141.57 511.961 1140.99 512.105 1140.54 512.395C1140.09 512.684 1139.74 513.09 1139.5 513.613V521.195L1141.41 521.523V523H1135.28ZM1162.56 523.246C1161.24 523.246 1160.23 522.926 1159.55 522.285C1158.86 521.637 1158.52 520.727 1158.52 519.555C1158.52 518.75 1158.73 518.051 1159.17 517.457C1159.62 516.855 1160.26 516.391 1161.09 516.062C1161.93 515.727 1162.93 515.559 1164.09 515.559H1166.36V514.316C1166.36 513.551 1166.12 512.957 1165.65 512.535C1165.19 512.113 1164.54 511.902 1163.7 511.902C1163.16 511.902 1162.7 511.969 1162.31 512.102C1161.92 512.227 1161.57 512.402 1161.25 512.629L1161 514.398H1159.22V511.492C1159.79 511.031 1160.45 510.684 1161.21 510.449C1161.97 510.207 1162.81 510.086 1163.73 510.086C1165.27 510.086 1166.48 510.453 1167.35 511.188C1168.23 511.922 1168.66 512.973 1168.66 514.34V520.445C1168.66 520.609 1168.66 520.77 1168.66 520.926C1168.67 521.082 1168.68 521.238 1168.7 521.395L1169.93 521.523V523H1166.61C1166.54 522.656 1166.49 522.348 1166.45 522.074C1166.41 521.801 1166.38 521.527 1166.37 521.254C1165.92 521.824 1165.36 522.301 1164.69 522.684C1164.03 523.059 1163.32 523.246 1162.56 523.246ZM1162.9 521.312C1163.66 521.312 1164.36 521.129 1165 520.762C1165.63 520.395 1166.08 519.953 1166.36 519.438V517.141H1164.01C1162.95 517.141 1162.15 517.395 1161.62 517.902C1161.09 518.41 1160.82 518.977 1160.82 519.602C1160.82 520.156 1161 520.582 1161.34 520.879C1161.68 521.168 1162.2 521.312 1162.9 521.312ZM1177.29 528.121C1176.68 528.121 1176.02 528.035 1175.31 527.863C1174.6 527.699 1173.97 527.473 1173.43 527.184L1174.03 525.391C1174.46 525.617 1174.97 525.805 1175.55 525.953C1176.14 526.102 1176.71 526.176 1177.27 526.176C1178.3 526.176 1179.05 525.887 1179.53 525.309C1180.01 524.73 1180.25 523.906 1180.25 522.836V521.629C1179.84 522.16 1179.34 522.562 1178.77 522.836C1178.19 523.109 1177.52 523.246 1176.77 523.246C1175.74 523.246 1174.85 522.992 1174.1 522.484C1173.35 521.969 1172.77 521.254 1172.37 520.34C1171.97 519.418 1171.77 518.352 1171.77 517.141V516.895C1171.77 515.535 1171.97 514.344 1172.37 513.32C1172.77 512.297 1173.35 511.504 1174.1 510.941C1174.85 510.371 1175.75 510.086 1176.8 510.086C1177.59 510.086 1178.29 510.242 1178.89 510.555C1179.5 510.867 1180 511.32 1180.41 511.914L1180.62 510.32H1182.56V522.836C1182.56 523.93 1182.36 524.871 1181.94 525.66C1181.54 526.449 1180.94 527.055 1180.15 527.477C1179.37 527.906 1178.41 528.121 1177.29 528.121ZM1177.35 521.371C1178.04 521.371 1178.62 521.215 1179.09 520.902C1179.56 520.582 1179.95 520.133 1180.25 519.555V513.719C1179.96 513.18 1179.57 512.754 1179.09 512.441C1178.62 512.121 1178.04 511.961 1177.37 511.961C1176.64 511.961 1176.02 512.172 1175.53 512.594C1175.05 513.016 1174.68 513.598 1174.44 514.34C1174.2 515.074 1174.08 515.926 1174.08 516.895V517.141C1174.08 518.414 1174.35 519.438 1174.89 520.211C1175.43 520.984 1176.25 521.371 1177.35 521.371ZM1182.21 512.207L1181.31 510.32H1184.13V511.797L1182.21 512.207ZM1191 523.246C1189.83 523.246 1188.81 522.98 1187.94 522.449C1187.07 521.91 1186.4 521.164 1185.93 520.211C1185.46 519.258 1185.22 518.156 1185.22 516.906V516.391C1185.22 515.188 1185.47 514.113 1185.96 513.168C1186.46 512.215 1187.12 511.465 1187.94 510.918C1188.77 510.363 1189.67 510.086 1190.65 510.086C1191.79 510.086 1192.74 510.32 1193.51 510.789C1194.28 511.258 1194.86 511.918 1195.25 512.77C1195.64 513.613 1195.84 514.609 1195.84 515.758V517.199H1187.61L1187.58 517.258C1187.59 518.07 1187.73 518.793 1188 519.426C1188.27 520.051 1188.66 520.543 1189.17 520.902C1189.68 521.262 1190.29 521.441 1191 521.441C1191.78 521.441 1192.46 521.332 1193.05 521.113C1193.64 520.887 1194.16 520.578 1194.59 520.188L1195.49 521.688C1195.04 522.125 1194.43 522.496 1193.68 522.801C1192.94 523.098 1192.05 523.246 1191 523.246ZM1187.68 515.395H1193.53V515.09C1193.53 514.48 1193.42 513.938 1193.2 513.461C1192.99 512.977 1192.67 512.598 1192.24 512.324C1191.82 512.043 1191.29 511.902 1190.65 511.902C1190.13 511.902 1189.66 512.055 1189.24 512.359C1188.82 512.656 1188.47 513.062 1188.2 513.578C1187.93 514.094 1187.75 514.68 1187.66 515.336L1187.68 515.395Z" fill="black"/>
</g>
<g filter="url(#filter2_d_5_272)">
<rect x="1015" y="643" width="241" height="58" rx="24" fill="black"/>
<path d="M1115.87 681.246C1114.83 681.246 1113.83 681.094 1112.87 680.789C1111.91 680.484 1110.99 680.016 1110.12 679.383V675.738H1111.91L1112.3 678.422C1112.8 678.734 1113.36 678.977 1113.95 679.148C1114.54 679.32 1115.18 679.406 1115.87 679.406C1116.65 679.406 1117.31 679.289 1117.85 679.055C1118.4 678.812 1118.82 678.48 1119.11 678.059C1119.39 677.637 1119.54 677.145 1119.54 676.582C1119.54 676.059 1119.41 675.598 1119.16 675.199C1118.91 674.801 1118.5 674.453 1117.92 674.156C1117.35 673.852 1116.57 673.586 1115.58 673.359C1114.41 673.086 1113.41 672.723 1112.6 672.27C1111.8 671.809 1111.18 671.254 1110.76 670.605C1110.35 669.949 1110.14 669.199 1110.14 668.355C1110.14 667.465 1110.38 666.668 1110.84 665.965C1111.32 665.262 1111.98 664.707 1112.82 664.301C1113.67 663.895 1114.65 663.691 1115.78 663.691C1116.97 663.691 1118.03 663.875 1118.94 664.242C1119.86 664.602 1120.62 665.039 1121.21 665.555V668.965H1119.42L1119.04 666.527C1118.68 666.246 1118.25 666.012 1117.72 665.824C1117.2 665.637 1116.55 665.543 1115.78 665.543C1115.12 665.543 1114.54 665.66 1114.04 665.895C1113.54 666.121 1113.15 666.441 1112.87 666.855C1112.59 667.27 1112.45 667.758 1112.45 668.32C1112.45 668.812 1112.57 669.242 1112.82 669.609C1113.08 669.977 1113.5 670.301 1114.07 670.582C1114.64 670.855 1115.41 671.113 1116.38 671.355C1118.17 671.801 1119.53 672.461 1120.45 673.336C1121.38 674.203 1121.85 675.277 1121.85 676.559C1121.85 677.473 1121.6 678.285 1121.11 678.996C1120.62 679.699 1119.92 680.25 1119.02 680.648C1118.13 681.047 1117.08 681.246 1115.87 681.246ZM1127.87 681.246C1126.55 681.246 1125.55 680.926 1124.86 680.285C1124.17 679.637 1123.83 678.727 1123.83 677.555C1123.83 676.75 1124.05 676.051 1124.48 675.457C1124.93 674.855 1125.57 674.391 1126.41 674.062C1127.24 673.727 1128.24 673.559 1129.41 673.559H1131.67V672.316C1131.67 671.551 1131.43 670.957 1130.96 670.535C1130.5 670.113 1129.85 669.902 1129.01 669.902C1128.48 669.902 1128.02 669.969 1127.62 670.102C1127.23 670.227 1126.88 670.402 1126.56 670.629L1126.31 672.398H1124.53V669.492C1125.1 669.031 1125.77 668.684 1126.52 668.449C1127.28 668.207 1128.12 668.086 1129.04 668.086C1130.58 668.086 1131.79 668.453 1132.66 669.188C1133.54 669.922 1133.98 670.973 1133.98 672.34V678.445C1133.98 678.609 1133.98 678.77 1133.98 678.926C1133.98 679.082 1134 679.238 1134.01 679.395L1135.24 679.523V681H1131.93C1131.86 680.656 1131.8 680.348 1131.76 680.074C1131.72 679.801 1131.7 679.527 1131.68 679.254C1131.23 679.824 1130.68 680.301 1130 680.684C1129.34 681.059 1128.63 681.246 1127.87 681.246ZM1128.21 679.312C1128.98 679.312 1129.68 679.129 1130.31 678.762C1130.94 678.395 1131.39 677.953 1131.67 677.438V675.141H1129.32C1128.26 675.141 1127.46 675.395 1126.93 675.902C1126.4 676.41 1126.14 676.977 1126.14 677.602C1126.14 678.156 1126.31 678.582 1126.65 678.879C1127 679.168 1127.52 679.312 1128.21 679.312ZM1142.11 681L1137.6 669.984L1136.29 669.809V668.32H1141.61V669.809L1139.95 670.043L1142.77 677.262L1143.09 678.281H1143.16L1143.54 677.262L1146.15 670.043L1144.45 669.809V668.32H1149.76V669.809L1148.43 669.984L1144.14 681H1142.11ZM1156.45 681.246C1155.28 681.246 1154.26 680.98 1153.39 680.449C1152.53 679.91 1151.86 679.164 1151.38 678.211C1150.91 677.258 1150.68 676.156 1150.68 674.906V674.391C1150.68 673.188 1150.92 672.113 1151.41 671.168C1151.91 670.215 1152.57 669.465 1153.39 668.918C1154.22 668.363 1155.12 668.086 1156.1 668.086C1157.24 668.086 1158.2 668.32 1158.96 668.789C1159.73 669.258 1160.32 669.918 1160.71 670.77C1161.1 671.613 1161.29 672.609 1161.29 673.758V675.199H1153.07L1153.03 675.258C1153.05 676.07 1153.19 676.793 1153.45 677.426C1153.73 678.051 1154.12 678.543 1154.62 678.902C1155.13 679.262 1155.74 679.441 1156.45 679.441C1157.23 679.441 1157.92 679.332 1158.5 679.113C1159.1 678.887 1159.61 678.578 1160.04 678.188L1160.94 679.688C1160.49 680.125 1159.89 680.496 1159.14 680.801C1158.39 681.098 1157.5 681.246 1156.45 681.246ZM1153.14 673.395H1158.98V673.09C1158.98 672.48 1158.88 671.938 1158.66 671.461C1158.45 670.977 1158.12 670.598 1157.7 670.324C1157.27 670.043 1156.74 669.902 1156.1 669.902C1155.59 669.902 1155.12 670.055 1154.7 670.359C1154.27 670.656 1153.93 671.062 1153.65 671.578C1153.38 672.094 1153.2 672.68 1153.11 673.336L1153.14 673.395Z" fill="white"/>
</g>
<path d="M46.8438 139V135.678L49.5508 135.133V117.291L46.8438 116.746V113.389H59.2012C61.1934 113.389 62.9102 113.705 64.3516 114.338C65.8047 114.959 66.918 115.855 67.6914 117.027C68.4766 118.188 68.8691 119.57 68.8691 121.176C68.8691 122.676 68.4766 124.047 67.6914 125.289C66.918 126.52 65.8398 127.498 64.457 128.225C63.0859 128.951 61.5098 129.314 59.7285 129.314L55.1758 129.279V135.133L57.8652 135.678V139H46.8438ZM63.1914 139L59.2891 128.453L64.2812 126.994L67.709 135.133L70.0117 135.678V139H63.1914ZM55.1758 124.955H59.1836C60.5312 124.955 61.5508 124.662 62.2422 124.076C62.9336 123.479 63.2793 122.617 63.2793 121.492C63.2793 120.344 62.9277 119.43 62.2246 118.75C61.5332 118.059 60.5254 117.713 59.2012 117.713H55.1758V124.955ZM81.1738 139.369C79.334 139.369 77.7285 138.971 76.3574 138.174C74.9863 137.365 73.9199 136.264 73.1582 134.869C72.4082 133.463 72.0332 131.869 72.0332 130.088V129.402C72.0332 127.504 72.3789 125.816 73.0703 124.34C73.7617 122.863 74.7578 121.709 76.0586 120.877C77.3594 120.033 78.918 119.617 80.7344 119.629C82.457 119.629 83.9102 119.963 85.0938 120.631C86.2773 121.299 87.1738 122.277 87.7832 123.566C88.4043 124.844 88.7148 126.402 88.7148 128.242V131.23H77.8691L77.8516 131.336C77.9219 132.062 78.1211 132.707 78.4492 133.27C78.7891 133.82 79.252 134.26 79.8379 134.588C80.4355 134.916 81.1621 135.08 82.0176 135.08C82.8965 135.08 83.7285 134.975 84.5137 134.764C85.3105 134.553 86.1133 134.225 86.9219 133.779L88.3281 137.207C87.5078 137.828 86.4883 138.344 85.2695 138.754C84.0625 139.164 82.6973 139.369 81.1738 139.369ZM77.8867 127.627H83.5117V127.17C83.5117 126.443 83.4238 125.828 83.248 125.324C83.084 124.809 82.8027 124.416 82.4043 124.146C82.0176 123.877 81.502 123.742 80.8574 123.742C80.2012 123.742 79.6621 123.906 79.2402 124.234C78.8184 124.562 78.4961 125.014 78.2734 125.588C78.0625 126.162 77.916 126.812 77.834 127.539L77.8867 127.627ZM99.2793 139.369C97.8262 139.369 96.4668 139.234 95.2012 138.965C93.9473 138.695 92.7812 138.314 91.7031 137.822L91.6328 132.18H95.4824L96.1855 134.922C96.5137 135.098 96.8945 135.244 97.3281 135.361C97.7617 135.479 98.2656 135.537 98.8398 135.537C99.918 135.537 100.668 135.373 101.09 135.045C101.512 134.717 101.723 134.312 101.723 133.832C101.723 133.363 101.488 132.941 101.02 132.566C100.551 132.191 99.5957 131.869 98.1543 131.6C95.916 131.143 94.2637 130.41 93.1973 129.402C92.1426 128.383 91.6152 127.094 91.6152 125.535C91.6152 124.48 91.873 123.514 92.3887 122.635C92.9043 121.744 93.7129 121.029 94.8145 120.49C95.9277 119.939 97.375 119.664 99.1562 119.664C100.586 119.664 101.922 119.799 103.164 120.068C104.406 120.326 105.438 120.66 106.258 121.07L106.275 126.52H102.443L101.898 124.059C101.605 123.848 101.266 123.689 100.879 123.584C100.492 123.467 100.059 123.408 99.5781 123.408C98.7344 123.408 98.0957 123.572 97.6621 123.9C97.2402 124.229 97.0293 124.645 97.0293 125.148C97.0293 125.441 97.1113 125.729 97.2754 126.01C97.4512 126.279 97.7793 126.537 98.2598 126.783C98.7402 127.018 99.4492 127.24 100.387 127.451C102.66 127.955 104.336 128.646 105.414 129.525C106.504 130.404 107.049 131.682 107.049 133.357C107.049 135.174 106.393 136.633 105.08 137.734C103.768 138.824 101.834 139.369 99.2793 139.369ZM116.945 139.387C115.07 139.387 113.635 138.883 112.639 137.875C111.643 136.855 111.145 135.244 111.145 133.041V123.9H108.648V119.98H111.145V115.305H116.734V119.98H120.057V123.9H116.734V133.023C116.734 133.703 116.881 134.189 117.174 134.482C117.479 134.764 117.889 134.904 118.404 134.904C118.662 134.904 118.926 134.887 119.195 134.852C119.465 134.816 119.711 134.781 119.934 134.746L120.355 138.877C119.828 139.029 119.271 139.152 118.686 139.246C118.111 139.34 117.531 139.387 116.945 139.387ZM128.617 139.369C126.742 139.369 125.236 138.859 124.1 137.84C122.975 136.809 122.412 135.42 122.412 133.674C122.412 132.49 122.729 131.441 123.361 130.527C124.006 129.613 124.967 128.898 126.244 128.383C127.521 127.867 129.109 127.609 131.008 127.609H133.275V126.344C133.275 125.5 133.029 124.803 132.537 124.252C132.057 123.701 131.318 123.426 130.322 123.426C129.842 123.426 129.402 123.484 129.004 123.602C128.617 123.719 128.26 123.889 127.932 124.111L127.527 126.572H123.52L123.449 121.475C124.48 120.947 125.582 120.508 126.754 120.156C127.926 119.805 129.227 119.629 130.656 119.629C133.199 119.629 135.209 120.215 136.686 121.387C138.162 122.559 138.9 124.229 138.9 126.396V133.85C138.9 134.119 138.9 134.383 138.9 134.641C138.912 134.887 138.941 135.127 138.988 135.361L140.992 135.678V139H134.242C134.102 138.73 133.955 138.414 133.803 138.051C133.65 137.688 133.545 137.324 133.486 136.961C132.889 137.699 132.203 138.285 131.43 138.719C130.656 139.152 129.719 139.369 128.617 139.369ZM130.234 135.309C130.82 135.309 131.389 135.18 131.939 134.922C132.49 134.664 132.936 134.312 133.275 133.867V130.984H131.043C130.059 130.984 129.303 131.207 128.775 131.652C128.26 132.098 128.002 132.648 128.002 133.305C128.002 133.938 128.201 134.43 128.6 134.781C129.01 135.133 129.555 135.309 130.234 135.309ZM149.799 139.369C147.818 139.369 146.26 138.742 145.123 137.488C143.986 136.223 143.418 134.271 143.418 131.635V123.865L141.361 123.32V119.98H143.418H149.043V131.67C149.043 132.818 149.26 133.668 149.693 134.219C150.127 134.758 150.789 135.027 151.68 135.027C152.289 135.027 152.852 134.91 153.367 134.676C153.895 134.441 154.34 134.096 154.703 133.639V123.865L152.541 123.32V119.98H154.703H160.328V135.133L162.666 135.678V139H155.424L155.055 136.715C154.445 137.57 153.695 138.227 152.805 138.684C151.926 139.141 150.924 139.369 149.799 139.369ZM164.916 139V135.678L167.254 135.133V123.865L164.582 123.32V119.98H172.527L172.703 122.318L172.738 122.775C173.184 121.709 173.734 120.918 174.391 120.402C175.047 119.887 175.855 119.629 176.816 119.629C177.098 119.629 177.414 119.652 177.766 119.699C178.129 119.746 178.469 119.816 178.785 119.91L178.205 125.078L175.621 124.955C174.941 124.92 174.402 125.014 174.004 125.236C173.605 125.459 173.23 125.799 172.879 126.256V135.133L175.234 135.678V139H164.916ZM186.133 139.369C184.258 139.369 182.752 138.859 181.615 137.84C180.49 136.809 179.928 135.42 179.928 133.674C179.928 132.49 180.244 131.441 180.877 130.527C181.521 129.613 182.482 128.898 183.76 128.383C185.037 127.867 186.625 127.609 188.523 127.609H190.791V126.344C190.791 125.5 190.545 124.803 190.053 124.252C189.572 123.701 188.834 123.426 187.838 123.426C187.357 123.426 186.918 123.484 186.52 123.602C186.133 123.719 185.775 123.889 185.447 124.111L185.043 126.572H181.035L180.965 121.475C181.996 120.947 183.098 120.508 184.27 120.156C185.441 119.805 186.742 119.629 188.172 119.629C190.715 119.629 192.725 120.215 194.201 121.387C195.678 122.559 196.416 124.229 196.416 126.396V133.85C196.416 134.119 196.416 134.383 196.416 134.641C196.428 134.887 196.457 135.127 196.504 135.361L198.508 135.678V139H191.758C191.617 138.73 191.471 138.414 191.318 138.051C191.166 137.688 191.061 137.324 191.002 136.961C190.404 137.699 189.719 138.285 188.945 138.719C188.172 139.152 187.234 139.369 186.133 139.369ZM187.75 135.309C188.336 135.309 188.904 135.18 189.455 134.922C190.006 134.664 190.451 134.312 190.791 133.867V130.984H188.559C187.574 130.984 186.818 131.207 186.291 131.652C185.775 132.098 185.518 132.648 185.518 133.305C185.518 133.938 185.717 134.43 186.115 134.781C186.525 135.133 187.07 135.309 187.75 135.309ZM199.826 139V135.678L202.182 135.133V123.865L199.492 123.32V119.98H207.455L207.684 122.67C208.316 121.709 209.096 120.965 210.021 120.438C210.947 119.898 212.002 119.629 213.186 119.629C215.014 119.629 216.455 120.232 217.51 121.439C218.564 122.646 219.092 124.551 219.092 127.152V135.133L221.43 135.678V139H211.428V135.678L213.449 135.133V127.152C213.449 126.004 213.215 125.189 212.746 124.709C212.289 124.217 211.621 123.971 210.742 123.971C210.086 123.971 209.512 124.105 209.02 124.375C208.539 124.633 208.135 125.008 207.807 125.5V135.133L209.635 135.678V139H199.826ZM230.008 139.387C228.133 139.387 226.697 138.883 225.701 137.875C224.705 136.855 224.207 135.244 224.207 133.041V123.9H221.711V119.98H224.207V115.305H229.797V119.98H233.119V123.9H229.797V133.023C229.797 133.703 229.943 134.189 230.236 134.482C230.541 134.764 230.951 134.904 231.467 134.904C231.725 134.904 231.988 134.887 232.258 134.852C232.527 134.816 232.773 134.781 232.996 134.746L233.418 138.877C232.891 139.029 232.334 139.152 231.748 139.246C231.174 139.34 230.594 139.387 230.008 139.387ZM243.824 139V135.678L246.496 135.133V117.291L243.824 116.746V113.406H246.496H252.227L262.949 130.51L263.055 130.492V117.291L259.732 116.746V113.406H268.064H270.754V116.746L268.064 117.291V139H262.562L251.611 122.16H251.506V135.133L254.846 135.678V139H243.824ZM278.734 139.369C276.859 139.369 275.354 138.859 274.217 137.84C273.092 136.809 272.529 135.42 272.529 133.674C272.529 132.49 272.846 131.441 273.479 130.527C274.123 129.613 275.084 128.898 276.361 128.383C277.639 127.867 279.227 127.609 281.125 127.609H283.393V126.344C283.393 125.5 283.146 124.803 282.654 124.252C282.174 123.701 281.436 123.426 280.439 123.426C279.959 123.426 279.52 123.484 279.121 123.602C278.734 123.719 278.377 123.889 278.049 124.111L277.645 126.572H273.637L273.566 121.475C274.598 120.947 275.699 120.508 276.871 120.156C278.043 119.805 279.344 119.629 280.773 119.629C283.316 119.629 285.326 120.215 286.803 121.387C288.279 122.559 289.018 124.229 289.018 126.396V133.85C289.018 134.119 289.018 134.383 289.018 134.641C289.029 134.887 289.059 135.127 289.105 135.361L291.109 135.678V139H284.359C284.219 138.73 284.072 138.414 283.92 138.051C283.768 137.688 283.662 137.324 283.604 136.961C283.006 137.699 282.32 138.285 281.547 138.719C280.773 139.152 279.836 139.369 278.734 139.369ZM280.352 135.309C280.938 135.309 281.506 135.18 282.057 134.922C282.607 134.664 283.053 134.312 283.393 133.867V130.984H281.16C280.176 130.984 279.42 131.207 278.893 131.652C278.377 132.098 278.119 132.648 278.119 133.305C278.119 133.938 278.318 134.43 278.717 134.781C279.127 135.133 279.672 135.309 280.352 135.309ZM292.428 139V135.678L294.801 135.133V123.865L292.094 123.32V119.98H300.057L300.25 122.494C300.871 121.592 301.633 120.889 302.535 120.385C303.438 119.881 304.486 119.629 305.682 119.629C306.877 119.629 307.902 119.893 308.758 120.42C309.625 120.947 310.281 121.744 310.727 122.811C311.301 121.803 312.051 121.023 312.977 120.473C313.902 119.91 314.986 119.629 316.229 119.629C318.092 119.629 319.557 120.262 320.623 121.527C321.689 122.781 322.223 124.709 322.223 127.311V135.133L324.596 135.678V139H314.594V135.678L316.615 135.133V127.293C316.615 126.027 316.41 125.16 316 124.691C315.602 124.211 315.01 123.971 314.225 123.971C313.557 123.971 312.977 124.141 312.484 124.48C311.992 124.809 311.6 125.26 311.307 125.834V135.133L313.152 135.678V139H303.871V135.678L305.717 135.133V127.293C305.717 126.051 305.512 125.189 305.102 124.709C304.703 124.217 304.105 123.971 303.309 123.971C302.676 123.971 302.113 124.1 301.621 124.357C301.141 124.604 300.736 124.967 300.408 125.447V135.133L302.43 135.678V139H292.428ZM335.143 139.369C333.303 139.369 331.697 138.971 330.326 138.174C328.955 137.365 327.889 136.264 327.127 134.869C326.377 133.463 326.002 131.869 326.002 130.088V129.402C326.002 127.504 326.348 125.816 327.039 124.34C327.73 122.863 328.727 121.709 330.027 120.877C331.328 120.033 332.887 119.617 334.703 119.629C336.426 119.629 337.879 119.963 339.062 120.631C340.246 121.299 341.143 122.277 341.752 123.566C342.373 124.844 342.684 126.402 342.684 128.242V131.23H331.838L331.82 131.336C331.891 132.062 332.09 132.707 332.418 133.27C332.758 133.82 333.221 134.26 333.807 134.588C334.404 134.916 335.131 135.08 335.986 135.08C336.865 135.08 337.697 134.975 338.482 134.764C339.279 134.553 340.082 134.225 340.891 133.779L342.297 137.207C341.477 137.828 340.457 138.344 339.238 138.754C338.031 139.164 336.666 139.369 335.143 139.369ZM331.855 127.627H337.48V127.17C337.48 126.443 337.393 125.828 337.217 125.324C337.053 124.809 336.771 124.416 336.373 124.146C335.986 123.877 335.471 123.742 334.826 123.742C334.17 123.742 333.631 123.906 333.209 124.234C332.787 124.562 332.465 125.014 332.242 125.588C332.031 126.162 331.885 126.812 331.803 127.539L331.855 127.627Z" fill="black"/>
<path d="M46.8438 201V197.678L49.5508 197.133V179.291L46.8438 178.746V175.389H59.2012C61.1934 175.389 62.9102 175.705 64.3516 176.338C65.8047 176.959 66.918 177.855 67.6914 179.027C68.4766 180.188 68.8691 181.57 68.8691 183.176C68.8691 184.676 68.4766 186.047 67.6914 187.289C66.918 188.52 65.8398 189.498 64.457 190.225C63.0859 190.951 61.5098 191.314 59.7285 191.314L55.1758 191.279V197.133L57.8652 197.678V201H46.8438ZM63.1914 201L59.2891 190.453L64.2812 188.994L67.709 197.133L70.0117 197.678V201H63.1914ZM55.1758 186.955H59.1836C60.5312 186.955 61.5508 186.662 62.2422 186.076C62.9336 185.479 63.2793 184.617 63.2793 183.492C63.2793 182.344 62.9277 181.43 62.2246 180.75C61.5332 180.059 60.5254 179.713 59.2012 179.713H55.1758V186.955ZM81.1738 201.369C79.334 201.369 77.7285 200.971 76.3574 200.174C74.9863 199.365 73.9199 198.264 73.1582 196.869C72.4082 195.463 72.0332 193.869 72.0332 192.088V191.402C72.0332 189.504 72.3789 187.816 73.0703 186.34C73.7617 184.863 74.7578 183.709 76.0586 182.877C77.3594 182.033 78.918 181.617 80.7344 181.629C82.457 181.629 83.9102 181.963 85.0938 182.631C86.2773 183.299 87.1738 184.277 87.7832 185.566C88.4043 186.844 88.7148 188.402 88.7148 190.242V193.23H77.8691L77.8516 193.336C77.9219 194.062 78.1211 194.707 78.4492 195.27C78.7891 195.82 79.252 196.26 79.8379 196.588C80.4355 196.916 81.1621 197.08 82.0176 197.08C82.8965 197.08 83.7285 196.975 84.5137 196.764C85.3105 196.553 86.1133 196.225 86.9219 195.779L88.3281 199.207C87.5078 199.828 86.4883 200.344 85.2695 200.754C84.0625 201.164 82.6973 201.369 81.1738 201.369ZM77.8867 189.627H83.5117V189.17C83.5117 188.443 83.4238 187.828 83.248 187.324C83.084 186.809 82.8027 186.416 82.4043 186.146C82.0176 185.877 81.502 185.742 80.8574 185.742C80.2012 185.742 79.6621 185.906 79.2402 186.234C78.8184 186.562 78.4961 187.014 78.2734 187.588C78.0625 188.162 77.916 188.812 77.834 189.539L77.8867 189.627ZM97.3984 201L91.9492 185.654L89.8574 185.32V181.98H99.4551V185.303L97.5918 185.654L100.053 193.635L100.475 195.094H100.58L101.072 193.635L103.973 185.672L101.705 185.303V181.98H111.285V185.32L109.141 185.707L103.234 201H97.3984ZM112.516 201V197.678L114.871 197.133V185.865L112.182 185.32V181.98H120.496V197.133L122.852 197.678V201H112.516ZM114.695 178.166V173.578H120.496V178.166H114.695ZM133.592 201.369C131.752 201.369 130.146 200.971 128.775 200.174C127.404 199.365 126.338 198.264 125.576 196.869C124.826 195.463 124.451 193.869 124.451 192.088V191.402C124.451 189.504 124.797 187.816 125.488 186.34C126.18 184.863 127.176 183.709 128.477 182.877C129.777 182.033 131.336 181.617 133.152 181.629C134.875 181.629 136.328 181.963 137.512 182.631C138.695 183.299 139.592 184.277 140.201 185.566C140.822 186.844 141.133 188.402 141.133 190.242V193.23H130.287L130.27 193.336C130.34 194.062 130.539 194.707 130.867 195.27C131.207 195.82 131.67 196.26 132.256 196.588C132.854 196.916 133.58 197.08 134.436 197.08C135.314 197.08 136.146 196.975 136.932 196.764C137.729 196.553 138.531 196.225 139.34 195.779L140.746 199.207C139.926 199.828 138.906 200.344 137.688 200.754C136.48 201.164 135.115 201.369 133.592 201.369ZM130.305 189.627H135.93V189.17C135.93 188.443 135.842 187.828 135.666 187.324C135.502 186.809 135.221 186.416 134.822 186.146C134.436 185.877 133.92 185.742 133.275 185.742C132.619 185.742 132.08 185.906 131.658 186.234C131.236 186.562 130.914 187.014 130.691 187.588C130.48 188.162 130.334 188.812 130.252 189.539L130.305 189.627ZM149.465 201L145.229 185.812L142.838 185.32V181.98H152.418V185.303L150.52 185.689L152.031 192.475L152.312 193.705H152.418L152.805 192.475L156.637 181.98H160.24L163.984 192.686L164.354 193.881H164.459L164.811 192.686L166.709 185.725L164.547 185.303V181.98H173.934V185.32L171.684 185.795L166.885 201H162.262L158.887 192.176L158.342 190.365H158.236L157.727 192.193L154.492 201H149.465ZM189.807 201V197.678L192.514 197.133V179.748H188.189L187.961 182.666H183.725V175.406H206.998V182.666H202.709L202.498 179.748H198.139V197.133L200.846 197.678V201H189.807ZM216.561 201.369C214.721 201.369 213.115 200.971 211.744 200.174C210.373 199.365 209.307 198.264 208.545 196.869C207.795 195.463 207.42 193.869 207.42 192.088V191.402C207.42 189.504 207.766 187.816 208.457 186.34C209.148 184.863 210.145 183.709 211.445 182.877C212.746 182.033 214.305 181.617 216.121 181.629C217.844 181.629 219.297 181.963 220.48 182.631C221.664 183.299 222.561 184.277 223.17 185.566C223.791 186.844 224.102 188.402 224.102 190.242V193.23H213.256L213.238 193.336C213.309 194.062 213.508 194.707 213.836 195.27C214.176 195.82 214.639 196.26 215.225 196.588C215.822 196.916 216.549 197.08 217.404 197.08C218.283 197.08 219.115 196.975 219.9 196.764C220.697 196.553 221.5 196.225 222.309 195.779L223.715 199.207C222.895 199.828 221.875 200.344 220.656 200.754C219.449 201.164 218.084 201.369 216.561 201.369ZM213.273 189.627H218.898V189.17C218.898 188.443 218.811 187.828 218.635 187.324C218.471 186.809 218.189 186.416 217.791 186.146C217.404 185.877 216.889 185.742 216.244 185.742C215.588 185.742 215.049 185.906 214.627 186.234C214.205 186.562 213.883 187.014 213.66 187.588C213.449 188.162 213.303 188.812 213.221 189.539L213.273 189.627ZM225.807 201V197.678L228.338 197.379L233.717 191.49L228.689 185.602L226.264 185.32V181.98H236.266V185.145L234.912 185.373L237.338 188.625L239.781 185.391L238.27 185.145V181.98H247.867V185.32L245.705 185.602L240.924 191.227L246.197 197.379L248.641 197.678V201H238.393V197.854L239.852 197.607L237.285 194.408L234.754 197.643L236.248 197.854V201H225.807ZM257.887 201.387C256.012 201.387 254.576 200.883 253.58 199.875C252.584 198.855 252.086 197.244 252.086 195.041V185.9H249.59V181.98H252.086V177.305H257.676V181.98H260.998V185.9H257.676V195.023C257.676 195.703 257.822 196.189 258.115 196.482C258.42 196.764 258.83 196.904 259.346 196.904C259.604 196.904 259.867 196.887 260.137 196.852C260.406 196.816 260.652 196.781 260.875 196.746L261.297 200.877C260.77 201.029 260.213 201.152 259.627 201.246C259.053 201.34 258.473 201.387 257.887 201.387Z" fill="black"/>
<rect x="47" y="240" width="888" height="266" rx="15" fill="#E8E8E8"/>
<path d="M57.4707 590.369C55.584 590.369 53.8672 590.158 52.3203 589.736C50.7734 589.314 49.25 588.582 47.75 587.539V581.352H51.7227L52.2676 584.99C52.7949 585.436 53.5215 585.799 54.4473 586.08C55.373 586.35 56.3809 586.484 57.4707 586.484C58.3965 586.484 59.1758 586.355 59.8086 586.098C60.4531 585.84 60.9395 585.477 61.2676 585.008C61.6074 584.527 61.7773 583.965 61.7773 583.32C61.7773 582.711 61.625 582.172 61.3203 581.703C61.0273 581.223 60.5352 580.789 59.8438 580.402C59.1641 580.004 58.2383 579.623 57.0664 579.26C55.0391 578.662 53.3574 578.012 52.0215 577.309C50.6973 576.594 49.7012 575.744 49.0332 574.76C48.377 573.764 48.0488 572.568 48.0488 571.174C48.0488 569.791 48.4297 568.572 49.1914 567.518C49.9648 566.451 51.0312 565.613 52.3906 565.004C53.75 564.395 55.3203 564.078 57.1016 564.055C59.0703 564.031 60.8105 564.266 62.3223 564.758C63.8457 565.25 65.1582 565.936 66.2598 566.814V572.58H62.4102L61.7422 569.064C61.2969 568.783 60.6934 568.537 59.9316 568.326C59.1816 568.115 58.3262 568.01 57.3652 568.01C56.5449 568.01 55.8184 568.133 55.1855 568.379C54.5645 568.625 54.0723 568.982 53.709 569.451C53.3457 569.92 53.1641 570.488 53.1641 571.156C53.1641 571.73 53.3223 572.234 53.6387 572.668C53.9551 573.09 54.4824 573.494 55.2207 573.881C55.9707 574.256 57.002 574.66 58.3145 575.094C61.1387 575.879 63.2773 576.916 64.7305 578.205C66.1953 579.494 66.9277 581.188 66.9277 583.285C66.9277 584.738 66.5352 585.998 65.75 587.064C64.9648 588.119 63.8633 588.934 62.4453 589.508C61.0273 590.082 59.3691 590.369 57.4707 590.369ZM76.5605 590.369C74.791 590.369 73.4258 589.883 72.4648 588.91C71.5156 587.938 71.041 586.396 71.041 584.287V574.584H68.4219V570.98H71.041V566.322H76.1562V570.98H79.6543V574.584H76.1562V584.27C76.1562 585.008 76.3086 585.535 76.6133 585.852C76.9297 586.168 77.3574 586.326 77.8965 586.326C78.1895 586.326 78.4941 586.309 78.8105 586.273C79.1387 586.227 79.4199 586.18 79.6543 586.133L80.0938 589.842C79.5664 589.994 78.9922 590.117 78.3711 590.211C77.7617 590.316 77.1582 590.369 76.5605 590.369ZM88.3906 590.369C86.5039 590.369 85.0039 589.865 83.8906 588.857C82.7773 587.838 82.2207 586.455 82.2207 584.709C82.2207 583.514 82.543 582.465 83.1875 581.562C83.8438 580.66 84.8047 579.951 86.0703 579.436C87.3477 578.92 88.918 578.662 90.7812 578.662H93.2949V577.256C93.2949 576.342 93.0254 575.604 92.4863 575.041C91.959 574.467 91.1621 574.18 90.0957 574.18C89.5449 574.18 89.0527 574.25 88.6191 574.391C88.1855 574.52 87.7871 574.707 87.4238 574.953L87.0195 577.467H83.3281L83.2578 572.527C84.2539 571.965 85.332 571.508 86.4922 571.156C87.6523 570.805 88.9473 570.629 90.377 570.629C92.8613 570.629 94.8242 571.209 96.2656 572.369C97.707 573.518 98.4277 575.164 98.4277 577.309V585.148C98.4277 585.406 98.4277 585.664 98.4277 585.922C98.4395 586.168 98.4629 586.408 98.498 586.643L100.484 586.924V590H94.1211C93.9922 589.672 93.8633 589.32 93.7344 588.945C93.6055 588.57 93.5117 588.195 93.4531 587.82C92.8438 588.594 92.123 589.215 91.291 589.684C90.4707 590.141 89.5039 590.369 88.3906 590.369ZM89.7617 586.572C90.4766 586.572 91.1562 586.414 91.8008 586.098C92.4453 585.77 92.9434 585.342 93.2949 584.814V581.809H90.7637C89.6387 581.809 88.7832 582.066 88.1973 582.582C87.623 583.098 87.3359 583.719 87.3359 584.445C87.3359 585.125 87.5469 585.652 87.9688 586.027C88.4023 586.391 89 586.572 89.7617 586.572ZM102.699 590V586.924L105.16 586.396V574.602L102.436 574.074V570.98H109.941L110.135 573.336L110.17 573.758C110.639 572.727 111.219 571.947 111.91 571.42C112.602 570.893 113.428 570.629 114.389 570.629C114.693 570.629 115.027 570.658 115.391 570.717C115.754 570.764 116.076 570.828 116.357 570.91L115.812 575.639L113.264 575.498C112.537 575.463 111.945 575.586 111.488 575.867C111.043 576.148 110.645 576.553 110.293 577.08V586.396L112.754 586.924V590H102.699ZM126.043 590.369C124.625 590.369 123.301 590.234 122.07 589.965C120.852 589.695 119.68 589.309 118.555 588.805L118.502 583.426H122.07L122.756 586.168C123.154 586.367 123.588 586.525 124.057 586.643C124.537 586.76 125.082 586.818 125.691 586.818C126.84 586.818 127.648 586.631 128.117 586.256C128.586 585.881 128.82 585.412 128.82 584.85C128.82 584.322 128.568 583.859 128.064 583.461C127.572 583.051 126.582 582.693 125.094 582.389C122.844 581.92 121.186 581.193 120.119 580.209C119.053 579.225 118.52 577.965 118.52 576.43C118.52 575.375 118.783 574.414 119.311 573.547C119.85 572.68 120.664 571.982 121.754 571.455C122.855 570.928 124.262 570.664 125.973 570.664C127.402 570.664 128.709 570.805 129.893 571.086C131.088 571.355 132.09 571.713 132.898 572.158L132.951 577.361H129.4L128.855 574.865C128.539 574.631 128.164 574.455 127.73 574.338C127.309 574.221 126.828 574.162 126.289 574.162C125.387 574.162 124.695 574.344 124.215 574.707C123.734 575.07 123.494 575.539 123.494 576.113C123.494 576.441 123.576 576.746 123.74 577.027C123.916 577.309 124.256 577.572 124.76 577.818C125.264 578.064 125.996 578.299 126.957 578.521C129.312 579.061 131.029 579.781 132.107 580.684C133.186 581.574 133.725 582.828 133.725 584.445C133.725 586.215 133.08 587.645 131.791 588.734C130.514 589.824 128.598 590.369 126.043 590.369Z" fill="black"/>
<line x1="210" y1="575.5" x2="867" y2="575.5" stroke="black"/>
<line x1="711" y1="559" x2="711" y2="593" stroke="black" stroke-width="4"/>
<path d="M212.518 626V623.949L215.4 623.598V612.043H212.482V610.086L218.811 608.938V623.598L221.693 623.949V626H212.518Z" fill="black"/>
<path d="M281.956 626V623.762L287.487 617.82C288.049 617.188 288.491 616.637 288.811 616.168C289.131 615.699 289.358 615.273 289.491 614.891C289.631 614.5 289.702 614.113 289.702 613.73C289.702 613.066 289.51 612.504 289.128 612.043C288.753 611.582 288.198 611.352 287.463 611.352C286.674 611.352 286.077 611.609 285.67 612.125C285.264 612.633 285.061 613.336 285.061 614.234H281.733L281.71 614.164C281.686 613.133 281.905 612.207 282.366 611.387C282.835 610.559 283.506 609.902 284.381 609.418C285.264 608.934 286.303 608.691 287.499 608.691C288.67 608.691 289.674 608.902 290.51 609.324C291.354 609.738 292.003 610.32 292.456 611.07C292.909 611.82 293.135 612.688 293.135 613.672C293.135 614.352 293.014 614.992 292.772 615.594C292.53 616.188 292.151 616.816 291.635 617.48C291.12 618.145 290.456 618.906 289.643 619.766L286.327 623.328L286.35 623.387H290.768L290.944 621.758H293.592V626H281.956Z" fill="black"/>
<path d="M358.331 626.246C357.245 626.246 356.257 626.055 355.367 625.672C354.476 625.289 353.769 624.734 353.245 624.008C352.73 623.273 352.484 622.387 352.507 621.348L352.531 621.277H355.847C355.847 621.73 355.949 622.133 356.152 622.484C356.355 622.836 356.64 623.113 357.007 623.316C357.382 623.52 357.824 623.621 358.331 623.621C359.12 623.621 359.742 623.398 360.195 622.953C360.656 622.508 360.886 621.895 360.886 621.113C360.886 620.316 360.659 619.695 360.206 619.25C359.753 618.805 359.07 618.582 358.156 618.582H356.304V616.016H358.226C358.773 616.016 359.222 615.922 359.574 615.734C359.925 615.539 360.187 615.266 360.359 614.914C360.531 614.562 360.617 614.148 360.617 613.672C360.617 612.953 360.421 612.383 360.031 611.961C359.64 611.539 359.074 611.328 358.331 611.328C357.886 611.328 357.492 611.418 357.148 611.598C356.804 611.77 356.534 612.016 356.339 612.336C356.152 612.656 356.058 613.027 356.058 613.449H352.742L352.718 613.379C352.695 612.473 352.917 611.668 353.386 610.965C353.855 610.254 354.515 609.699 355.367 609.301C356.226 608.895 357.206 608.691 358.308 608.691C360.034 608.691 361.421 609.113 362.468 609.957C363.515 610.793 364.038 611.98 364.038 613.52C364.038 614.316 363.816 615.035 363.37 615.676C362.933 616.316 362.277 616.84 361.402 617.246C362.347 617.582 363.066 618.098 363.558 618.793C364.058 619.488 364.308 620.297 364.308 621.219C364.308 622.258 364.05 623.152 363.534 623.902C363.019 624.652 362.308 625.23 361.402 625.637C360.503 626.043 359.48 626.246 358.331 626.246Z" fill="black"/>
<path d="M427.98 626V623.949L429.808 623.598V621.922H422.847L422.683 620.246L429.773 608.938H433.218V619.648H435.152V621.922H433.218V623.598L435.035 623.949V626H427.98ZM425.871 619.648H429.808V613.496L429.738 613.473L429.457 613.965L425.871 619.648Z" fill="black"/>
<path d="M499.669 626.246C498.63 626.246 497.677 626.055 496.81 625.672C495.95 625.281 495.267 624.727 494.759 624.008C494.251 623.289 494.009 622.43 494.032 621.43L494.056 621.371L497.337 621.207C497.337 621.965 497.552 622.559 497.982 622.988C498.411 623.41 498.974 623.621 499.669 623.621C500.466 623.621 501.056 623.336 501.439 622.766C501.821 622.195 502.013 621.457 502.013 620.551C502.013 619.566 501.81 618.777 501.403 618.184C500.997 617.59 500.392 617.293 499.587 617.293C498.939 617.293 498.439 617.414 498.087 617.656C497.743 617.898 497.497 618.227 497.349 618.641L494.325 618.441L495.31 608.938H505.13V612.828H503.021L502.716 611.68H498.122L497.642 615.617C497.853 615.461 498.095 615.324 498.368 615.207C498.642 615.082 498.935 614.984 499.247 614.914C499.567 614.836 499.907 614.797 500.267 614.797C501.36 614.781 502.29 615 503.056 615.453C503.829 615.906 504.415 616.562 504.814 617.422C505.22 618.281 505.423 619.316 505.423 620.527C505.423 621.621 505.2 622.602 504.755 623.469C504.317 624.328 503.669 625.008 502.81 625.508C501.958 626 500.911 626.246 499.669 626.246Z" fill="black"/>
<path d="M570.748 626.246C569.552 626.246 568.494 625.973 567.572 625.426C566.658 624.871 565.943 624.078 565.427 623.047C564.912 622.008 564.654 620.77 564.654 619.332V616.332C564.654 614.723 564.943 613.352 565.521 612.219C566.107 611.078 566.916 610.207 567.947 609.605C568.978 608.996 570.162 608.691 571.498 608.691C572.138 608.691 572.728 608.754 573.267 608.879C573.814 608.996 574.361 609.172 574.908 609.406L574.31 611.902C573.888 611.754 573.451 611.629 572.998 611.527C572.544 611.426 572.076 611.375 571.591 611.375C570.466 611.375 569.611 611.746 569.025 612.488C568.447 613.23 568.154 614.324 568.146 615.77L568.181 615.828C568.564 615.43 569.048 615.117 569.634 614.891C570.228 614.664 570.88 614.551 571.591 614.551C572.615 614.551 573.494 614.797 574.228 615.289C574.962 615.781 575.525 616.461 575.916 617.328C576.306 618.195 576.502 619.188 576.502 620.305C576.502 621.453 576.255 622.477 575.763 623.375C575.279 624.266 574.603 624.969 573.736 625.484C572.877 625.992 571.88 626.246 570.748 626.246ZM570.677 623.621C571.169 623.621 571.595 623.473 571.955 623.176C572.314 622.879 572.591 622.477 572.787 621.969C572.982 621.453 573.08 620.883 573.08 620.258C573.08 619.344 572.853 618.598 572.4 618.02C571.955 617.434 571.322 617.141 570.502 617.141C570.15 617.141 569.818 617.188 569.505 617.281C569.193 617.375 568.916 617.508 568.673 617.68C568.431 617.844 568.228 618.043 568.064 618.277V619.414C568.064 620.766 568.306 621.805 568.791 622.531C569.275 623.258 569.904 623.621 570.677 623.621Z" fill="black"/>
<path d="M638.311 626L638.475 624.266C638.654 622.594 638.967 621.016 639.412 619.531C639.857 618.039 640.443 616.633 641.17 615.312C641.897 613.992 642.768 612.746 643.783 611.574H637.772L637.643 613.262H635.018V608.938H647.076V611.574C646.162 612.645 645.404 613.668 644.803 614.645C644.201 615.613 643.713 616.59 643.338 617.574C642.963 618.551 642.666 619.582 642.447 620.668C642.229 621.754 642.045 622.953 641.897 624.266L641.732 626H638.311Z" fill="black"/>
<path d="M711.651 626.246C710.495 626.246 709.479 626.059 708.604 625.684C707.729 625.301 707.045 624.746 706.553 624.02C706.069 623.285 705.827 622.391 705.827 621.336C705.827 620.414 706.088 619.602 706.612 618.898C707.135 618.188 707.846 617.641 708.745 617.258C707.948 616.891 707.327 616.379 706.881 615.723C706.436 615.066 706.213 614.312 706.213 613.461C706.213 612.445 706.44 611.586 706.893 610.883C707.346 610.172 707.979 609.629 708.792 609.254C709.604 608.879 710.549 608.691 711.628 608.691C712.713 608.691 713.663 608.879 714.475 609.254C715.295 609.629 715.932 610.172 716.385 610.883C716.838 611.586 717.065 612.445 717.065 613.461C717.065 614.312 716.838 615.066 716.385 615.723C715.932 616.379 715.311 616.891 714.522 617.258C715.428 617.641 716.143 618.188 716.667 618.898C717.19 619.609 717.452 620.422 717.452 621.336C717.452 622.391 717.206 623.285 716.713 624.02C716.229 624.746 715.553 625.301 714.686 625.684C713.819 626.059 712.807 626.246 711.651 626.246ZM711.651 623.621C712.128 623.621 712.545 623.52 712.905 623.316C713.264 623.113 713.542 622.824 713.737 622.449C713.94 622.066 714.042 621.617 714.042 621.102C714.042 620.586 713.936 620.141 713.725 619.766C713.522 619.391 713.241 619.098 712.881 618.887C712.522 618.676 712.104 618.57 711.628 618.57C711.159 618.57 710.745 618.676 710.385 618.887C710.026 619.098 709.745 619.395 709.542 619.777C709.346 620.152 709.249 620.594 709.249 621.102C709.249 621.883 709.467 622.5 709.905 622.953C710.342 623.398 710.924 623.621 711.651 623.621ZM711.651 615.934C712.057 615.934 712.409 615.84 712.706 615.652C713.01 615.457 713.241 615.188 713.397 614.844C713.561 614.492 713.643 614.082 713.643 613.613C713.643 613.152 713.561 612.754 713.397 612.418C713.233 612.074 712.999 611.809 712.694 611.621C712.397 611.426 712.042 611.328 711.628 611.328C711.003 611.328 710.514 611.535 710.163 611.949C709.819 612.355 709.647 612.91 709.647 613.613C709.647 614.324 709.823 614.891 710.174 615.312C710.526 615.727 711.018 615.934 711.651 615.934Z" fill="black"/>
<path d="M781.405 626.246C780.812 626.246 780.198 626.184 779.565 626.059C778.94 625.941 778.362 625.766 777.831 625.531L778.218 623.059C778.71 623.238 779.214 623.379 779.73 623.48C780.253 623.574 780.765 623.621 781.265 623.621C782.257 623.621 783.038 623.281 783.608 622.602C784.179 621.922 784.472 620.863 784.487 619.426L784.464 619.168C784.081 619.66 783.62 620.035 783.081 620.293C782.55 620.543 781.964 620.668 781.323 620.668C780.315 620.668 779.429 620.434 778.663 619.965C777.905 619.488 777.315 618.812 776.894 617.938C776.48 617.062 776.273 616.012 776.273 614.785C776.273 613.637 776.519 612.602 777.011 611.68C777.511 610.758 778.19 610.031 779.05 609.5C779.917 608.961 780.901 608.691 782.003 608.691C783.167 608.691 784.19 608.961 785.073 609.5C785.956 610.039 786.644 610.82 787.136 611.844C787.628 612.867 787.874 614.102 787.874 615.547V619.25C787.874 620.719 787.597 621.977 787.042 623.023C786.495 624.07 785.733 624.871 784.757 625.426C783.788 625.973 782.671 626.246 781.405 626.246ZM782.062 618.16C782.585 618.16 783.054 618.055 783.468 617.844C783.882 617.625 784.214 617.336 784.464 616.977V615.148C784.464 613.891 784.245 612.941 783.808 612.301C783.37 611.652 782.776 611.328 782.026 611.328C781.565 611.328 781.159 611.484 780.808 611.797C780.464 612.102 780.19 612.52 779.987 613.051C779.792 613.574 779.694 614.152 779.694 614.785C779.694 615.473 779.78 616.07 779.952 616.578C780.132 617.086 780.398 617.477 780.749 617.75C781.101 618.023 781.538 618.16 782.062 618.16Z" fill="black"/>
<path d="M841.468 626V623.949L844.351 623.598V612.043H841.433V610.086L847.761 608.938V623.598L850.644 623.949V626H841.468ZM858.25 626.246C856.468 626.246 855.058 625.664 854.019 624.5C852.98 623.328 852.461 621.613 852.461 619.355V615.594C852.461 613.344 852.976 611.633 854.007 610.461C855.047 609.281 856.453 608.691 858.226 608.691C859.992 608.691 861.394 609.281 862.433 610.461C863.48 611.633 864.004 613.344 864.004 615.594V619.355C864.004 621.613 863.484 623.328 862.445 624.5C861.414 625.664 860.015 626.246 858.25 626.246ZM858.25 623.621C859.015 623.621 859.597 623.309 859.996 622.684C860.394 622.059 860.593 621.059 860.593 619.684V615.242C860.593 613.883 860.39 612.891 859.984 612.266C859.578 611.641 858.992 611.328 858.226 611.328C857.453 611.328 856.867 611.641 856.468 612.266C856.07 612.891 855.871 613.883 855.871 615.242V619.684C855.871 621.059 856.07 622.059 856.468 622.684C856.875 623.309 857.468 623.621 858.25 623.621Z" fill="black"/>
<defs>
<filter id="filter0_d_5_272" x="1011" y="565" width="249" height="66" filterUnits="userSpaceOnUse" color-interpolation-filters="sRGB">
<feFlood flood-opacity="0" result="BackgroundImageFix"/>
<feColorMatrix in="SourceAlpha" type="matrix" values="0 0 0 0 0 0 0 0 0 0 0 0 0 0 0 0 0 0 127 0" result="hardAlpha"/>
<feOffset dy="4"/>
<feGaussianBlur stdDeviation="2"/>
<feComposite in2="hardAlpha" operator="out"/>
<feColorMatrix type="matrix" values="0 0 0 0 0 0 0 0 0 0 0 0 0 0 0 0 0 0 0.25 0"/>
<feBlend mode="normal" in2="BackgroundImageFix" result="effect1_dropShadow_5_272"/>
<feBlend mode="normal" in="SourceGraphic" in2="effect1_dropShadow_5_272" result="shape"/>
</filter>
<filter id="filter1_d_5_272" x="1011" y="485" width="249" height="66" filterUnits="userSpaceOnUse" color-interpolation-filters="sRGB">
<feFlood flood-opacity="0" result="BackgroundImageFix"/>
<feColorMatrix in="SourceAlpha" type="matrix" values="0 0 0 0 0 0 0 0 0 0 0 0 0 0 0 0 0 0 127 0" result="hardAlpha"/>
<feOffset dy="4"/>
<feGaussianBlur stdDeviation="2"/>
<feComposite in2="hardAlpha" operator="out"/>
<feColorMatrix type="matrix" values="0 0 0 0 0 0 0 0 0 0 0 0 0 0 0 0 0 0 0.25 0"/>
<feBlend mode="normal" in2="BackgroundImageFix" result="effect1_dropShadow_5_272"/>
<feBlend mode="normal" in="SourceGraphic" in2="effect1_dropShadow_5_272" result="shape"/>
</filter>
<filter id="filter2_d_5_272" x="1011" y="643" width="249" height="66" filterUnits="userSpaceOnUse" color-interpolation-filters="sRGB">
<feFlood flood-opacity="0" result="BackgroundImageFix"/>
<feColorMatrix in="SourceAlpha" type="matrix" values="0 0 0 0 0 0 0 0 0 0 0 0 0 0 0 0 0 0 127 0" result="hardAlpha"/>
<feOffset dy="4"/>
<feGaussianBlur stdDeviation="2"/>
<feComposite in2="hardAlpha" operator="out"/>
<feColorMatrix type="matrix" values="0 0 0 0 0 0 0 0 0 0 0 0 0 0 0 0 0 0 0.25 0"/>
<feBlend mode="normal" in2="BackgroundImageFix" result="effect1_dropShadow_5_272"/>
<feBlend mode="normal" in="SourceGraphic" in2="effect1_dropShadow_5_272" result="shape"/>
</filter>
</defs>
</svg>
