<svg width="1280" height="720" viewBox="0 0 1280 720" fill="none" xmlns="http://www.w3.org/2000/svg">
<rect width="1280" height="720" fill="white"/>
<rect x="382" y="88" width="516" height="507" rx="14" fill="white" stroke="black" stroke-width="2"/>
<rect x="407" y="323" width="277" height="49" rx="15" fill="#E8E8E8"/>
<rect x="698" y="323" width="174" height="49" rx="15" fill="#E8E8E8"/>
<path d="M419.473 356.246C418.621 356.246 417.824 356.16 417.082 355.988C416.34 355.816 415.551 355.551 414.715 355.191L414.691 352.18H416.438L416.871 353.996C417.309 354.176 417.73 354.309 418.137 354.395C418.551 354.473 418.996 354.512 419.473 354.512C420.41 354.512 421.082 354.332 421.488 353.973C421.895 353.613 422.098 353.168 422.098 352.637C422.098 352.137 421.891 351.715 421.477 351.371C421.07 351.02 420.328 350.723 419.25 350.48C417.719 350.129 416.59 349.66 415.863 349.074C415.145 348.48 414.785 347.691 414.785 346.707C414.785 346.02 414.984 345.406 415.383 344.867C415.781 344.32 416.336 343.887 417.047 343.566C417.758 343.246 418.586 343.086 419.531 343.086C420.492 343.086 421.312 343.195 421.992 343.414C422.68 343.633 423.277 343.926 423.785 344.293L423.902 347.188H422.168L421.793 345.5C421.52 345.297 421.195 345.141 420.82 345.031C420.445 344.922 420.016 344.867 419.531 344.867C418.812 344.867 418.227 345.035 417.773 345.371C417.328 345.707 417.105 346.129 417.105 346.637C417.105 346.934 417.168 347.191 417.293 347.41C417.426 347.629 417.676 347.828 418.043 348.008C418.41 348.18 418.949 348.352 419.66 348.523C421.426 348.938 422.656 349.465 423.352 350.105C424.055 350.746 424.406 351.535 424.406 352.473C424.406 353.543 424.008 354.441 423.211 355.168C422.422 355.887 421.176 356.246 419.473 356.246ZM430.793 356.199C429.855 356.199 429.109 355.926 428.555 355.379C428.008 354.824 427.734 353.941 427.734 352.73V345.031H425.73V343.32H427.734V340.262H430.043V343.32H432.797V345.031H430.043V352.73C430.043 353.34 430.164 353.789 430.406 354.078C430.648 354.367 430.973 354.512 431.379 354.512C431.652 354.512 431.957 354.488 432.293 354.441C432.629 354.387 432.891 354.34 433.078 354.301L433.395 355.812C433.059 355.914 432.645 356.004 432.152 356.082C431.668 356.16 431.215 356.199 430.793 356.199ZM434.848 356V354.523L436.758 354.195V345.137L434.848 344.809V343.32H438.82L439.02 344.938L439.043 345.16C439.402 344.512 439.844 344.004 440.367 343.637C440.898 343.27 441.504 343.086 442.184 343.086C442.426 343.086 442.672 343.109 442.922 343.156C443.18 343.195 443.363 343.234 443.473 343.273L443.168 345.418L441.562 345.324C440.953 345.285 440.441 345.426 440.027 345.746C439.613 346.059 439.293 346.48 439.066 347.012V354.195L440.977 354.523V356H434.848ZM450.422 356.246C449.25 356.246 448.23 355.98 447.363 355.449C446.496 354.91 445.824 354.164 445.348 353.211C444.879 352.258 444.645 351.156 444.645 349.906V349.391C444.645 348.188 444.891 347.113 445.383 346.168C445.883 345.215 446.543 344.465 447.363 343.918C448.191 343.363 449.094 343.086 450.07 343.086C451.211 343.086 452.164 343.32 452.93 343.789C453.703 344.258 454.285 344.918 454.676 345.77C455.066 346.613 455.262 347.609 455.262 348.758V350.199H447.035L447 350.258C447.016 351.07 447.156 351.793 447.422 352.426C447.695 353.051 448.086 353.543 448.594 353.902C449.102 354.262 449.711 354.441 450.422 354.441C451.203 354.441 451.887 354.332 452.473 354.113C453.066 353.887 453.578 353.578 454.008 353.188L454.91 354.688C454.457 355.125 453.855 355.496 453.105 355.801C452.363 356.098 451.469 356.246 450.422 356.246ZM447.105 348.395H452.953V348.09C452.953 347.48 452.844 346.938 452.625 346.461C452.414 345.977 452.094 345.598 451.664 345.324C451.242 345.043 450.711 344.902 450.07 344.902C449.555 344.902 449.086 345.055 448.664 345.359C448.242 345.656 447.895 346.062 447.621 346.578C447.348 347.094 447.168 347.68 447.082 348.336L447.105 348.395ZM463.195 356.246C462.023 356.246 461.004 355.98 460.137 355.449C459.27 354.91 458.598 354.164 458.121 353.211C457.652 352.258 457.418 351.156 457.418 349.906V349.391C457.418 348.188 457.664 347.113 458.156 346.168C458.656 345.215 459.316 344.465 460.137 343.918C460.965 343.363 461.867 343.086 462.844 343.086C463.984 343.086 464.938 343.32 465.703 343.789C466.477 344.258 467.059 344.918 467.449 345.77C467.84 346.613 468.035 347.609 468.035 348.758V350.199H459.809L459.773 350.258C459.789 351.07 459.93 351.793 460.195 352.426C460.469 353.051 460.859 353.543 461.367 353.902C461.875 354.262 462.484 354.441 463.195 354.441C463.977 354.441 464.66 354.332 465.246 354.113C465.84 353.887 466.352 353.578 466.781 353.188L467.684 354.688C467.23 355.125 466.629 355.496 465.879 355.801C465.137 356.098 464.242 356.246 463.195 356.246ZM459.879 348.395H465.727V348.09C465.727 347.48 465.617 346.938 465.398 346.461C465.188 345.977 464.867 345.598 464.438 345.324C464.016 345.043 463.484 344.902 462.844 344.902C462.328 344.902 461.859 345.055 461.438 345.359C461.016 345.656 460.668 346.062 460.395 346.578C460.121 347.094 459.941 347.68 459.855 348.336L459.879 348.395ZM474.316 356.199C473.379 356.199 472.633 355.926 472.078 355.379C471.531 354.824 471.258 353.941 471.258 352.73V345.031H469.254V343.32H471.258V340.262H473.566V343.32H476.32V345.031H473.566V352.73C473.566 353.34 473.688 353.789 473.93 354.078C474.172 354.367 474.496 354.512 474.902 354.512C475.176 354.512 475.48 354.488 475.816 354.441C476.152 354.387 476.414 354.34 476.602 354.301L476.918 355.812C476.582 355.914 476.168 356.004 475.676 356.082C475.191 356.16 474.738 356.199 474.316 356.199Z" fill="black" fill-opacity="0.35"/>
<path d="M715.051 356.246C714.223 356.246 713.504 356.09 712.895 355.777C712.285 355.457 711.777 354.988 711.371 354.371L711.16 356H709.168V339.535L707.258 339.207V337.719H711.477V344.82C711.875 344.258 712.367 343.828 712.953 343.531C713.547 343.234 714.238 343.086 715.027 343.086C716.074 343.086 716.965 343.371 717.699 343.941C718.441 344.504 719.008 345.297 719.398 346.32C719.797 347.344 719.996 348.535 719.996 349.895V350.141C719.996 351.359 719.797 352.426 719.398 353.34C719.008 354.254 718.441 354.969 717.699 355.484C716.965 355.992 716.082 356.246 715.051 356.246ZM714.465 354.371C715.551 354.371 716.355 353.984 716.879 353.211C717.41 352.438 717.676 351.414 717.676 350.141V349.895C717.676 348.918 717.559 348.062 717.324 347.328C717.09 346.586 716.734 346.008 716.258 345.594C715.781 345.172 715.176 344.961 714.441 344.961C713.73 344.961 713.129 345.133 712.637 345.477C712.152 345.82 711.766 346.281 711.477 346.859V352.461C711.766 353.047 712.156 353.512 712.648 353.855C713.148 354.199 713.754 354.371 714.465 354.371ZM727.32 356.246C725.945 356.246 724.871 355.805 724.098 354.922C723.324 354.039 722.938 352.664 722.938 350.797V345.137L721.484 344.809V343.32H722.938H725.246V350.82C725.246 352.172 725.445 353.102 725.844 353.609C726.242 354.117 726.863 354.371 727.707 354.371C728.527 354.371 729.203 354.207 729.734 353.879C730.273 353.543 730.68 353.07 730.953 352.461V345.137L729.254 344.809V343.32H730.953H733.262V354.195L734.715 354.523V356H731.188L731.035 354.125C730.637 354.805 730.121 355.328 729.488 355.695C728.863 356.062 728.141 356.246 727.32 356.246ZM736.262 356V354.523L738.172 354.195V345.137L736.262 344.809V343.32H740.48V354.195L742.391 354.523V356H736.262ZM738.055 340.191V337.719H740.48V340.191H738.055ZM743.867 356V354.523L745.777 354.195V339.535L743.867 339.207V337.719H748.086V354.195L749.996 354.523V356H743.867ZM756.512 356.246C755.48 356.246 754.594 355.992 753.852 355.484C753.117 354.969 752.555 354.254 752.164 353.34C751.773 352.426 751.578 351.359 751.578 350.141V349.895C751.578 348.535 751.773 347.344 752.164 346.32C752.555 345.297 753.121 344.504 753.863 343.941C754.605 343.371 755.496 343.086 756.535 343.086C757.285 343.086 757.945 343.227 758.516 343.508C759.094 343.781 759.586 344.18 759.992 344.703V339.535L758.082 339.207V337.719H759.992H762.301V354.195L764.211 354.523V356H760.297L760.109 354.488C759.695 355.066 759.188 355.504 758.586 355.801C757.992 356.098 757.301 356.246 756.512 356.246ZM757.098 354.371C757.785 354.371 758.363 354.215 758.832 353.902C759.301 353.59 759.688 353.148 759.992 352.578V346.695C759.695 346.164 759.309 345.742 758.832 345.43C758.355 345.117 757.785 344.961 757.121 344.961C756.387 344.961 755.781 345.172 755.305 345.594C754.828 346.008 754.473 346.586 754.238 347.328C754.004 348.062 753.887 348.918 753.887 349.895V350.141C753.887 351.414 754.148 352.438 754.672 353.211C755.195 353.984 756.004 354.371 757.098 354.371ZM766.637 356V353.633H768.945V356H766.637ZM777.57 356V354.523L779.48 354.195V345.137L777.57 344.809V343.32H781.543L781.707 345.207C782.129 344.535 782.656 344.016 783.289 343.648C783.93 343.273 784.656 343.086 785.469 343.086C786.836 343.086 787.895 343.488 788.645 344.293C789.395 345.09 789.77 346.324 789.77 347.996V354.195L791.68 354.523V356H785.551V354.523L787.461 354.195V348.043C787.461 346.926 787.238 346.133 786.793 345.664C786.355 345.195 785.684 344.961 784.777 344.961C784.113 344.961 783.523 345.121 783.008 345.441C782.5 345.762 782.094 346.199 781.789 346.754V354.195L783.699 354.523V356H777.57ZM798.43 356.246C797.055 356.246 795.98 355.805 795.207 354.922C794.434 354.039 794.047 352.664 794.047 350.797V345.137L792.594 344.809V343.32H794.047H796.355V350.82C796.355 352.172 796.555 353.102 796.953 353.609C797.352 354.117 797.973 354.371 798.816 354.371C799.637 354.371 800.312 354.207 800.844 353.879C801.383 353.543 801.789 353.07 802.062 352.461V345.137L800.363 344.809V343.32H802.062H804.371V354.195L805.824 354.523V356H802.297L802.145 354.125C801.746 354.805 801.23 355.328 800.598 355.695C799.973 356.062 799.25 356.246 798.43 356.246ZM807.453 356V354.523L809.363 354.195V345.137L807.453 344.809V343.32H811.438L811.59 344.973C811.996 344.371 812.52 343.906 813.16 343.578C813.801 343.25 814.543 343.086 815.387 343.086C816.23 343.086 816.953 343.281 817.555 343.672C818.164 344.062 818.621 344.648 818.926 345.43C819.324 344.711 819.852 344.141 820.508 343.719C821.164 343.297 821.93 343.086 822.805 343.086C824.102 343.086 825.125 343.531 825.875 344.422C826.625 345.305 827 346.637 827 348.418V354.195L828.91 354.523V356H822.77V354.523L824.68 354.195V348.395C824.68 347.145 824.465 346.262 824.035 345.746C823.605 345.223 822.969 344.961 822.125 344.961C821.32 344.961 820.672 345.246 820.18 345.816C819.695 346.379 819.414 347.09 819.336 347.949V354.195L821.246 354.523V356H815.117V354.523L817.027 354.195V348.395C817.027 347.207 816.805 346.34 816.359 345.793C815.922 345.238 815.285 344.961 814.449 344.961C813.746 344.961 813.168 345.105 812.715 345.395C812.262 345.684 811.914 346.09 811.672 346.613V354.195L813.582 354.523V356H807.453ZM831.465 356V353.633H833.773V356H831.465Z" fill="black" fill-opacity="0.35"/>
<rect x="407" y="383" width="225" height="49" rx="15" fill="#E8E8E8"/>
<rect x="647" y="383" width="225" height="49" rx="15" fill="#E8E8E8"/>
<path d="M421.758 416.246C420.609 416.246 419.609 415.98 418.758 415.449C417.906 414.91 417.246 414.164 416.777 413.211C416.309 412.258 416.074 411.156 416.074 409.906V409.414C416.074 408.211 416.301 407.133 416.754 406.18C417.207 405.227 417.859 404.473 418.711 403.918C419.562 403.363 420.578 403.086 421.758 403.086C422.781 403.086 423.676 403.254 424.441 403.59C425.215 403.926 425.863 404.387 426.387 404.973L426.445 408.02H424.641L424.242 405.805C423.977 405.531 423.645 405.312 423.246 405.148C422.848 404.984 422.379 404.902 421.84 404.902C421.152 404.902 420.547 405.105 420.023 405.512C419.508 405.918 419.105 406.461 418.816 407.141C418.527 407.82 418.383 408.578 418.383 409.414V409.906C418.383 410.828 418.516 411.629 418.781 412.309C419.055 412.988 419.441 413.516 419.941 413.891C420.449 414.258 421.051 414.441 421.746 414.441C422.527 414.441 423.176 414.227 423.691 413.797C424.207 413.367 424.523 412.777 424.641 412.027H426.715L426.738 412.098C426.699 412.824 426.484 413.504 426.094 414.137C425.703 414.77 425.145 415.281 424.418 415.672C423.699 416.055 422.812 416.246 421.758 416.246ZM428.461 416V414.523L430.371 414.195V405.137L428.461 404.809V403.32H432.68V414.195L434.59 414.523V416H428.461ZM430.254 400.191V397.719H432.68V400.191H430.254ZM440.66 416.199C439.723 416.199 438.977 415.926 438.422 415.379C437.875 414.824 437.602 413.941 437.602 412.73V405.031H435.598V403.32H437.602V400.262H439.91V403.32H442.664V405.031H439.91V412.73C439.91 413.34 440.031 413.789 440.273 414.078C440.516 414.367 440.84 414.512 441.246 414.512C441.52 414.512 441.824 414.488 442.16 414.441C442.496 414.387 442.758 414.34 442.945 414.301L443.262 415.812C442.926 415.914 442.512 416.004 442.02 416.082C441.535 416.16 441.082 416.199 440.66 416.199ZM447.492 421.121C447.312 421.121 447.078 421.098 446.789 421.051C446.5 421.012 446.277 420.973 446.121 420.934L446.355 419.117C446.488 419.133 446.672 419.145 446.906 419.152C447.141 419.168 447.301 419.176 447.387 419.176C447.879 419.176 448.277 418.988 448.582 418.613C448.895 418.238 449.184 417.727 449.449 417.078L450 415.742L445.512 404.996L444.152 404.809V403.32H449.473V404.809L447.938 405.043L450.41 411.383L451.008 413.035H451.078L454.008 405.043L452.391 404.809V403.32H457.605V404.809L456.293 404.996L451.301 417.945C451.066 418.555 450.781 419.098 450.445 419.574C450.117 420.059 449.711 420.438 449.227 420.711C448.75 420.984 448.172 421.121 447.492 421.121Z" fill="black" fill-opacity="0.35"/>
<path d="M658.289 416.246C657.141 416.246 656.141 415.98 655.289 415.449C654.438 414.91 653.777 414.164 653.309 413.211C652.84 412.258 652.605 411.156 652.605 409.906V409.414C652.605 408.211 652.832 407.133 653.285 406.18C653.738 405.227 654.391 404.473 655.242 403.918C656.094 403.363 657.109 403.086 658.289 403.086C659.312 403.086 660.207 403.254 660.973 403.59C661.746 403.926 662.395 404.387 662.918 404.973L662.977 408.02H661.172L660.773 405.805C660.508 405.531 660.176 405.312 659.777 405.148C659.379 404.984 658.91 404.902 658.371 404.902C657.684 404.902 657.078 405.105 656.555 405.512C656.039 405.918 655.637 406.461 655.348 407.141C655.059 407.82 654.914 408.578 654.914 409.414V409.906C654.914 410.828 655.047 411.629 655.312 412.309C655.586 412.988 655.973 413.516 656.473 413.891C656.98 414.258 657.582 414.441 658.277 414.441C659.059 414.441 659.707 414.227 660.223 413.797C660.738 413.367 661.055 412.777 661.172 412.027H663.246L663.27 412.098C663.23 412.824 663.016 413.504 662.625 414.137C662.234 414.77 661.676 415.281 660.949 415.672C660.23 416.055 659.344 416.246 658.289 416.246ZM671.109 416.246C669.938 416.246 668.926 415.973 668.074 415.426C667.23 414.871 666.578 414.109 666.117 413.141C665.656 412.164 665.426 411.051 665.426 409.801V409.543C665.426 408.293 665.656 407.184 666.117 406.215C666.578 405.238 667.23 404.473 668.074 403.918C668.926 403.363 669.93 403.086 671.086 403.086C672.258 403.086 673.266 403.363 674.109 403.918C674.961 404.473 675.617 405.234 676.078 406.203C676.539 407.172 676.77 408.285 676.77 409.543V409.801C676.77 411.059 676.539 412.176 676.078 413.152C675.617 414.121 674.965 414.879 674.121 415.426C673.277 415.973 672.273 416.246 671.109 416.246ZM671.109 414.441C671.844 414.441 672.457 414.242 672.949 413.844C673.449 413.438 673.824 412.887 674.074 412.191C674.332 411.488 674.461 410.691 674.461 409.801V409.543C674.461 408.652 674.332 407.859 674.074 407.164C673.824 406.461 673.449 405.91 672.949 405.512C672.449 405.105 671.828 404.902 671.086 404.902C670.352 404.902 669.734 405.105 669.234 405.512C668.734 405.91 668.359 406.461 668.109 407.164C667.859 407.859 667.734 408.652 667.734 409.543V409.801C667.734 410.691 667.859 411.488 668.109 412.191C668.359 412.887 668.734 413.438 669.234 413.844C669.742 414.242 670.367 414.441 671.109 414.441ZM684.129 416.246C682.754 416.246 681.68 415.805 680.906 414.922C680.133 414.039 679.746 412.664 679.746 410.797V405.137L678.293 404.809V403.32H679.746H682.055V410.82C682.055 412.172 682.254 413.102 682.652 413.609C683.051 414.117 683.672 414.371 684.516 414.371C685.336 414.371 686.012 414.207 686.543 413.879C687.082 413.543 687.488 413.07 687.762 412.461V405.137L686.062 404.809V403.32H687.762H690.07V414.195L691.523 414.523V416H687.996L687.844 414.125C687.445 414.805 686.93 415.328 686.297 415.695C685.672 416.062 684.949 416.246 684.129 416.246ZM693.152 416V414.523L695.062 414.195V405.137L693.152 404.809V403.32H697.125L697.289 405.207C697.711 404.535 698.238 404.016 698.871 403.648C699.512 403.273 700.238 403.086 701.051 403.086C702.418 403.086 703.477 403.488 704.227 404.293C704.977 405.09 705.352 406.324 705.352 407.996V414.195L707.262 414.523V416H701.133V414.523L703.043 414.195V408.043C703.043 406.926 702.82 406.133 702.375 405.664C701.938 405.195 701.266 404.961 700.359 404.961C699.695 404.961 699.105 405.121 698.59 405.441C698.082 405.762 697.676 406.199 697.371 406.754V414.195L699.281 414.523V416H693.152ZM712.91 416.199C711.973 416.199 711.227 415.926 710.672 415.379C710.125 414.824 709.852 413.941 709.852 412.73V405.031H707.848V403.32H709.852V400.262H712.16V403.32H714.914V405.031H712.16V412.73C712.16 413.34 712.281 413.789 712.523 414.078C712.766 414.367 713.09 414.512 713.496 414.512C713.77 414.512 714.074 414.488 714.41 414.441C714.746 414.387 715.008 414.34 715.195 414.301L715.512 415.812C715.176 415.914 714.762 416.004 714.27 416.082C713.785 416.16 713.332 416.199 712.91 416.199ZM716.965 416V414.523L718.875 414.195V405.137L716.965 404.809V403.32H720.938L721.137 404.938L721.16 405.16C721.52 404.512 721.961 404.004 722.484 403.637C723.016 403.27 723.621 403.086 724.301 403.086C724.543 403.086 724.789 403.109 725.039 403.156C725.297 403.195 725.48 403.234 725.59 403.273L725.285 405.418L723.68 405.324C723.07 405.285 722.559 405.426 722.145 405.746C721.73 406.059 721.41 406.48 721.184 407.012V414.195L723.094 414.523V416H716.965ZM729.961 421.121C729.781 421.121 729.547 421.098 729.258 421.051C728.969 421.012 728.746 420.973 728.59 420.934L728.824 419.117C728.957 419.133 729.141 419.145 729.375 419.152C729.609 419.168 729.77 419.176 729.855 419.176C730.348 419.176 730.746 418.988 731.051 418.613C731.363 418.238 731.652 417.727 731.918 417.078L732.469 415.742L727.98 404.996L726.621 404.809V403.32H731.941V404.809L730.406 405.043L732.879 411.383L733.477 413.035H733.547L736.477 405.043L734.859 404.809V403.32H740.074V404.809L738.762 404.996L733.77 417.945C733.535 418.555 733.25 419.098 732.914 419.574C732.586 420.059 732.18 420.438 731.695 420.711C731.219 420.984 730.641 421.121 729.961 421.121Z" fill="black" fill-opacity="0.35"/>
<mask id="path-11-inside-1_8_83" fill="white">
<path d="M381 102C381 93.7157 387.716 87 396 87H884C892.284 87 899 93.7157 899 102V122C899 130.284 892.284 137 884 137H640H396C387.716 137 381 130.284 381 122V102Z"/>
</mask>
<path d="M381 102C381 93.7157 387.716 87 396 87H884C892.284 87 899 93.7157 899 102V122C899 130.284 892.284 137 884 137H640H396C387.716 137 381 130.284 381 122V102Z" fill="white"/>
<path d="M396 89H884V85H396V89ZM897 102V122H901V102H897ZM383 122V102H379V122H383ZM884 135H640V139H884V135ZM640 135H396V139H640V135ZM379 122C379 131.389 386.611 139 396 139V135C388.82 135 383 129.18 383 122H379ZM897 122C897 129.18 891.18 135 884 135V139C893.389 139 901 131.389 901 122H897ZM884 89C891.18 89 897 94.8203 897 102H901C901 92.6112 893.389 85 884 85V89ZM396 85C386.611 85 379 92.6112 379 102H383C383 94.8203 388.82 89 396 89V85Z" fill="black" mask="url(#path-11-inside-1_8_83)"/>
<path d="M529.305 121V119.523L531.215 119.195V105.754L529.305 105.426V103.949H536.91C538.152 103.949 539.199 104.137 540.051 104.512C540.91 104.879 541.562 105.414 542.008 106.117C542.453 106.82 542.676 107.68 542.676 108.695C542.676 109.695 542.457 110.535 542.02 111.215C541.59 111.895 540.977 112.41 540.18 112.762C539.383 113.105 538.438 113.289 537.344 113.312L533.523 113.383V119.195L535.434 119.523V121H529.305ZM540.566 121L536.77 112.48L539.078 112.457L542.23 119.277L543.414 119.488V121H540.566ZM533.523 111.566H536.676C537.965 111.566 538.902 111.32 539.488 110.828C540.074 110.336 540.367 109.617 540.367 108.672C540.367 107.773 540.086 107.062 539.523 106.539C538.961 106.016 538.09 105.754 536.91 105.754H533.523V111.566ZM551.242 121.246C550.07 121.246 549.051 120.98 548.184 120.449C547.316 119.91 546.645 119.164 546.168 118.211C545.699 117.258 545.465 116.156 545.465 114.906V114.391C545.465 113.188 545.711 112.113 546.203 111.168C546.703 110.215 547.363 109.465 548.184 108.918C549.012 108.363 549.914 108.086 550.891 108.086C552.031 108.086 552.984 108.32 553.75 108.789C554.523 109.258 555.105 109.918 555.496 110.77C555.887 111.613 556.082 112.609 556.082 113.758V115.199H547.855L547.82 115.258C547.836 116.07 547.977 116.793 548.242 117.426C548.516 118.051 548.906 118.543 549.414 118.902C549.922 119.262 550.531 119.441 551.242 119.441C552.023 119.441 552.707 119.332 553.293 119.113C553.887 118.887 554.398 118.578 554.828 118.188L555.73 119.688C555.277 120.125 554.676 120.496 553.926 120.801C553.184 121.098 552.289 121.246 551.242 121.246ZM547.926 113.395H553.773V113.09C553.773 112.48 553.664 111.938 553.445 111.461C553.234 110.977 552.914 110.598 552.484 110.324C552.062 110.043 551.531 109.902 550.891 109.902C550.375 109.902 549.906 110.055 549.484 110.359C549.062 110.656 548.715 111.062 548.441 111.578C548.168 112.094 547.988 112.68 547.902 113.336L547.926 113.395ZM563.922 126.121C563.312 126.121 562.652 126.035 561.941 125.863C561.23 125.699 560.605 125.473 560.066 125.184L560.664 123.391C561.094 123.617 561.602 123.805 562.188 123.953C562.773 124.102 563.344 124.176 563.898 124.176C564.93 124.176 565.684 123.887 566.16 123.309C566.645 122.73 566.887 121.906 566.887 120.836V119.629C566.473 120.16 565.977 120.562 565.398 120.836C564.82 121.109 564.156 121.246 563.406 121.246C562.375 121.246 561.484 120.992 560.734 120.484C559.984 119.969 559.406 119.254 559 118.34C558.602 117.418 558.402 116.352 558.402 115.141V114.895C558.402 113.535 558.602 112.344 559 111.32C559.406 110.297 559.984 109.504 560.734 108.941C561.484 108.371 562.383 108.086 563.43 108.086C564.227 108.086 564.926 108.242 565.527 108.555C566.129 108.867 566.633 109.32 567.039 109.914L567.25 108.32H569.195V120.836C569.195 121.93 568.988 122.871 568.574 123.66C568.168 124.449 567.57 125.055 566.781 125.477C566 125.906 565.047 126.121 563.922 126.121ZM563.98 119.371C564.676 119.371 565.258 119.215 565.727 118.902C566.195 118.582 566.582 118.133 566.887 117.555V111.719C566.59 111.18 566.203 110.754 565.727 110.441C565.25 110.121 564.676 109.961 564.004 109.961C563.27 109.961 562.656 110.172 562.164 110.594C561.68 111.016 561.316 111.598 561.074 112.34C560.832 113.074 560.711 113.926 560.711 114.895V115.141C560.711 116.414 560.98 117.438 561.52 118.211C562.059 118.984 562.879 119.371 563.98 119.371ZM568.844 110.207L567.941 108.32H570.766V109.797L568.844 110.207ZM571.844 121V119.523L573.754 119.195V110.137L571.844 109.809V108.32H576.062V119.195L577.973 119.523V121H571.844ZM573.637 105.191V102.719H576.062V105.191H573.637ZM584.699 121.246C583.848 121.246 583.051 121.16 582.309 120.988C581.566 120.816 580.777 120.551 579.941 120.191L579.918 117.18H581.664L582.098 118.996C582.535 119.176 582.957 119.309 583.363 119.395C583.777 119.473 584.223 119.512 584.699 119.512C585.637 119.512 586.309 119.332 586.715 118.973C587.121 118.613 587.324 118.168 587.324 117.637C587.324 117.137 587.117 116.715 586.703 116.371C586.297 116.02 585.555 115.723 584.477 115.48C582.945 115.129 581.816 114.66 581.09 114.074C580.371 113.48 580.012 112.691 580.012 111.707C580.012 111.02 580.211 110.406 580.609 109.867C581.008 109.32 581.562 108.887 582.273 108.566C582.984 108.246 583.812 108.086 584.758 108.086C585.719 108.086 586.539 108.195 587.219 108.414C587.906 108.633 588.504 108.926 589.012 109.293L589.129 112.188H587.395L587.02 110.5C586.746 110.297 586.422 110.141 586.047 110.031C585.672 109.922 585.242 109.867 584.758 109.867C584.039 109.867 583.453 110.035 583 110.371C582.555 110.707 582.332 111.129 582.332 111.637C582.332 111.934 582.395 112.191 582.52 112.41C582.652 112.629 582.902 112.828 583.27 113.008C583.637 113.18 584.176 113.352 584.887 113.523C586.652 113.938 587.883 114.465 588.578 115.105C589.281 115.746 589.633 116.535 589.633 117.473C589.633 118.543 589.234 119.441 588.438 120.168C587.648 120.887 586.402 121.246 584.699 121.246ZM596.02 121.199C595.082 121.199 594.336 120.926 593.781 120.379C593.234 119.824 592.961 118.941 592.961 117.73V110.031H590.957V108.32H592.961V105.262H595.27V108.32H598.023V110.031H595.27V117.73C595.27 118.34 595.391 118.789 595.633 119.078C595.875 119.367 596.199 119.512 596.605 119.512C596.879 119.512 597.184 119.488 597.52 119.441C597.855 119.387 598.117 119.34 598.305 119.301L598.621 120.812C598.285 120.914 597.871 121.004 597.379 121.082C596.895 121.16 596.441 121.199 596.02 121.199ZM605.641 121.246C604.469 121.246 603.449 120.98 602.582 120.449C601.715 119.91 601.043 119.164 600.566 118.211C600.098 117.258 599.863 116.156 599.863 114.906V114.391C599.863 113.188 600.109 112.113 600.602 111.168C601.102 110.215 601.762 109.465 602.582 108.918C603.41 108.363 604.312 108.086 605.289 108.086C606.43 108.086 607.383 108.32 608.148 108.789C608.922 109.258 609.504 109.918 609.895 110.77C610.285 111.613 610.48 112.609 610.48 113.758V115.199H602.254L602.219 115.258C602.234 116.07 602.375 116.793 602.641 117.426C602.914 118.051 603.305 118.543 603.812 118.902C604.32 119.262 604.93 119.441 605.641 119.441C606.422 119.441 607.105 119.332 607.691 119.113C608.285 118.887 608.797 118.578 609.227 118.188L610.129 119.688C609.676 120.125 609.074 120.496 608.324 120.801C607.582 121.098 606.688 121.246 605.641 121.246ZM602.324 113.395H608.172V113.09C608.172 112.48 608.062 111.938 607.844 111.461C607.633 110.977 607.312 110.598 606.883 110.324C606.461 110.043 605.93 109.902 605.289 109.902C604.773 109.902 604.305 110.055 603.883 110.359C603.461 110.656 603.113 111.062 602.84 111.578C602.566 112.094 602.387 112.68 602.301 113.336L602.324 113.395ZM612.262 121V119.523L614.172 119.195V110.137L612.262 109.809V108.32H616.234L616.434 109.938L616.457 110.16C616.816 109.512 617.258 109.004 617.781 108.637C618.312 108.27 618.918 108.086 619.598 108.086C619.84 108.086 620.086 108.109 620.336 108.156C620.594 108.195 620.777 108.234 620.887 108.273L620.582 110.418L618.977 110.324C618.367 110.285 617.855 110.426 617.441 110.746C617.027 111.059 616.707 111.48 616.48 112.012V119.195L618.391 119.523V121H612.262ZM628.352 121V119.523L630.262 119.195V105.754L628.352 105.426V103.949H635.957C637.199 103.949 638.246 104.137 639.098 104.512C639.957 104.879 640.609 105.414 641.055 106.117C641.5 106.82 641.723 107.68 641.723 108.695C641.723 109.695 641.504 110.535 641.066 111.215C640.637 111.895 640.023 112.41 639.227 112.762C638.43 113.105 637.484 113.289 636.391 113.312L632.57 113.383V119.195L634.48 119.523V121H628.352ZM639.613 121L635.816 112.48L638.125 112.457L641.277 119.277L642.461 119.488V121H639.613ZM632.57 111.566H635.723C637.012 111.566 637.949 111.32 638.535 110.828C639.121 110.336 639.414 109.617 639.414 108.672C639.414 107.773 639.133 107.062 638.57 106.539C638.008 106.016 637.137 105.754 635.957 105.754H632.57V111.566ZM650.289 121.246C649.117 121.246 648.098 120.98 647.23 120.449C646.363 119.91 645.691 119.164 645.215 118.211C644.746 117.258 644.512 116.156 644.512 114.906V114.391C644.512 113.188 644.758 112.113 645.25 111.168C645.75 110.215 646.41 109.465 647.23 108.918C648.059 108.363 648.961 108.086 649.938 108.086C651.078 108.086 652.031 108.32 652.797 108.789C653.57 109.258 654.152 109.918 654.543 110.77C654.934 111.613 655.129 112.609 655.129 113.758V115.199H646.902L646.867 115.258C646.883 116.07 647.023 116.793 647.289 117.426C647.562 118.051 647.953 118.543 648.461 118.902C648.969 119.262 649.578 119.441 650.289 119.441C651.07 119.441 651.754 119.332 652.34 119.113C652.934 118.887 653.445 118.578 653.875 118.188L654.777 119.688C654.324 120.125 653.723 120.496 652.973 120.801C652.23 121.098 651.336 121.246 650.289 121.246ZM646.973 113.395H652.82V113.09C652.82 112.48 652.711 111.938 652.492 111.461C652.281 110.977 651.961 110.598 651.531 110.324C651.109 110.043 650.578 109.902 649.938 109.902C649.422 109.902 648.953 110.055 648.531 110.359C648.109 110.656 647.762 111.062 647.488 111.578C647.215 112.094 647.035 112.68 646.949 113.336L646.973 113.395ZM662.137 121.246C661.285 121.246 660.488 121.16 659.746 120.988C659.004 120.816 658.215 120.551 657.379 120.191L657.355 117.18H659.102L659.535 118.996C659.973 119.176 660.395 119.309 660.801 119.395C661.215 119.473 661.66 119.512 662.137 119.512C663.074 119.512 663.746 119.332 664.152 118.973C664.559 118.613 664.762 118.168 664.762 117.637C664.762 117.137 664.555 116.715 664.141 116.371C663.734 116.02 662.992 115.723 661.914 115.48C660.383 115.129 659.254 114.66 658.527 114.074C657.809 113.48 657.449 112.691 657.449 111.707C657.449 111.02 657.648 110.406 658.047 109.867C658.445 109.32 659 108.887 659.711 108.566C660.422 108.246 661.25 108.086 662.195 108.086C663.156 108.086 663.977 108.195 664.656 108.414C665.344 108.633 665.941 108.926 666.449 109.293L666.566 112.188H664.832L664.457 110.5C664.184 110.297 663.859 110.141 663.484 110.031C663.109 109.922 662.68 109.867 662.195 109.867C661.477 109.867 660.891 110.035 660.438 110.371C659.992 110.707 659.77 111.129 659.77 111.637C659.77 111.934 659.832 112.191 659.957 112.41C660.09 112.629 660.34 112.828 660.707 113.008C661.074 113.18 661.613 113.352 662.324 113.523C664.09 113.938 665.32 114.465 666.016 115.105C666.719 115.746 667.07 116.535 667.07 117.473C667.07 118.543 666.672 119.441 665.875 120.168C665.086 120.887 663.84 121.246 662.137 121.246ZM673.457 121.199C672.52 121.199 671.773 120.926 671.219 120.379C670.672 119.824 670.398 118.941 670.398 117.73V110.031H668.395V108.32H670.398V105.262H672.707V108.32H675.461V110.031H672.707V117.73C672.707 118.34 672.828 118.789 673.07 119.078C673.312 119.367 673.637 119.512 674.043 119.512C674.316 119.512 674.621 119.488 674.957 119.441C675.293 119.387 675.555 119.34 675.742 119.301L676.059 120.812C675.723 120.914 675.309 121.004 674.816 121.082C674.332 121.16 673.879 121.199 673.457 121.199ZM681.637 121.246C680.316 121.246 679.312 120.926 678.625 120.285C677.938 119.637 677.594 118.727 677.594 117.555C677.594 116.75 677.812 116.051 678.25 115.457C678.695 114.855 679.336 114.391 680.172 114.062C681.008 113.727 682.008 113.559 683.172 113.559H685.434V112.316C685.434 111.551 685.199 110.957 684.73 110.535C684.27 110.113 683.617 109.902 682.773 109.902C682.242 109.902 681.781 109.969 681.391 110.102C681 110.227 680.645 110.402 680.324 110.629L680.078 112.398H678.297V109.492C678.867 109.031 679.531 108.684 680.289 108.449C681.047 108.207 681.887 108.086 682.809 108.086C684.348 108.086 685.555 108.453 686.43 109.188C687.305 109.922 687.742 110.973 687.742 112.34V118.445C687.742 118.609 687.742 118.77 687.742 118.926C687.75 119.082 687.762 119.238 687.777 119.395L689.008 119.523V121H685.691C685.621 120.656 685.566 120.348 685.527 120.074C685.488 119.801 685.461 119.527 685.445 119.254C685 119.824 684.441 120.301 683.77 120.684C683.105 121.059 682.395 121.246 681.637 121.246ZM681.977 119.312C682.742 119.312 683.441 119.129 684.074 118.762C684.707 118.395 685.16 117.953 685.434 117.438V115.141H683.09C682.027 115.141 681.23 115.395 680.699 115.902C680.168 116.41 679.902 116.977 679.902 117.602C679.902 118.156 680.074 118.582 680.418 118.879C680.762 119.168 681.281 119.312 681.977 119.312ZM696.379 121.246C695.004 121.246 693.93 120.805 693.156 119.922C692.383 119.039 691.996 117.664 691.996 115.797V110.137L690.543 109.809V108.32H691.996H694.305V115.82C694.305 117.172 694.504 118.102 694.902 118.609C695.301 119.117 695.922 119.371 696.766 119.371C697.586 119.371 698.262 119.207 698.793 118.879C699.332 118.543 699.738 118.07 700.012 117.461V110.137L698.312 109.809V108.32H700.012H702.32V119.195L703.773 119.523V121H700.246L700.094 119.125C699.695 119.805 699.18 120.328 698.547 120.695C697.922 121.062 697.199 121.246 696.379 121.246ZM705.379 121V119.523L707.289 119.195V110.137L705.379 109.809V108.32H709.352L709.551 109.938L709.574 110.16C709.934 109.512 710.375 109.004 710.898 108.637C711.43 108.27 712.035 108.086 712.715 108.086C712.957 108.086 713.203 108.109 713.453 108.156C713.711 108.195 713.895 108.234 714.004 108.273L713.699 110.418L712.094 110.324C711.484 110.285 710.973 110.426 710.559 110.746C710.145 111.059 709.824 111.48 709.598 112.012V119.195L711.508 119.523V121H705.379ZM719.512 121.246C718.191 121.246 717.188 120.926 716.5 120.285C715.812 119.637 715.469 118.727 715.469 117.555C715.469 116.75 715.688 116.051 716.125 115.457C716.57 114.855 717.211 114.391 718.047 114.062C718.883 113.727 719.883 113.559 721.047 113.559H723.309V112.316C723.309 111.551 723.074 110.957 722.605 110.535C722.145 110.113 721.492 109.902 720.648 109.902C720.117 109.902 719.656 109.969 719.266 110.102C718.875 110.227 718.52 110.402 718.199 110.629L717.953 112.398H716.172V109.492C716.742 109.031 717.406 108.684 718.164 108.449C718.922 108.207 719.762 108.086 720.684 108.086C722.223 108.086 723.43 108.453 724.305 109.188C725.18 109.922 725.617 110.973 725.617 112.34V118.445C725.617 118.609 725.617 118.77 725.617 118.926C725.625 119.082 725.637 119.238 725.652 119.395L726.883 119.523V121H723.566C723.496 120.656 723.441 120.348 723.402 120.074C723.363 119.801 723.336 119.527 723.32 119.254C722.875 119.824 722.316 120.301 721.645 120.684C720.98 121.059 720.27 121.246 719.512 121.246ZM719.852 119.312C720.617 119.312 721.316 119.129 721.949 118.762C722.582 118.395 723.035 117.953 723.309 117.438V115.141H720.965C719.902 115.141 719.105 115.395 718.574 115.902C718.043 116.41 717.777 116.977 717.777 117.602C717.777 118.156 717.949 118.582 718.293 118.879C718.637 119.168 719.156 119.312 719.852 119.312ZM728.676 121V119.523L730.586 119.195V110.137L728.676 109.809V108.32H732.648L732.812 110.207C733.234 109.535 733.762 109.016 734.395 108.648C735.035 108.273 735.762 108.086 736.574 108.086C737.941 108.086 739 108.488 739.75 109.293C740.5 110.09 740.875 111.324 740.875 112.996V119.195L742.785 119.523V121H736.656V119.523L738.566 119.195V113.043C738.566 111.926 738.344 111.133 737.898 110.664C737.461 110.195 736.789 109.961 735.883 109.961C735.219 109.961 734.629 110.121 734.113 110.441C733.605 110.762 733.199 111.199 732.895 111.754V119.195L734.805 119.523V121H728.676ZM748.434 121.199C747.496 121.199 746.75 120.926 746.195 120.379C745.648 119.824 745.375 118.941 745.375 117.73V110.031H743.371V108.32H745.375V105.262H747.684V108.32H750.438V110.031H747.684V117.73C747.684 118.34 747.805 118.789 748.047 119.078C748.289 119.367 748.613 119.512 749.02 119.512C749.293 119.512 749.598 119.488 749.934 119.441C750.27 119.387 750.531 119.34 750.719 119.301L751.035 120.812C750.699 120.914 750.285 121.004 749.793 121.082C749.309 121.16 748.855 121.199 748.434 121.199Z" fill="black"/>
<rect x="407" y="243" width="465" height="49" rx="15" fill="#E8E8E8"/>
<path d="M420.059 276.246C418.887 276.246 417.867 275.98 417 275.449C416.133 274.91 415.461 274.164 414.984 273.211C414.516 272.258 414.281 271.156 414.281 269.906V269.391C414.281 268.188 414.527 267.113 415.02 266.168C415.52 265.215 416.18 264.465 417 263.918C417.828 263.363 418.73 263.086 419.707 263.086C420.848 263.086 421.801 263.32 422.566 263.789C423.34 264.258 423.922 264.918 424.312 265.77C424.703 266.613 424.898 267.609 424.898 268.758V270.199H416.672L416.637 270.258C416.652 271.07 416.793 271.793 417.059 272.426C417.332 273.051 417.723 273.543 418.23 273.902C418.738 274.262 419.348 274.441 420.059 274.441C420.84 274.441 421.523 274.332 422.109 274.113C422.703 273.887 423.215 273.578 423.645 273.188L424.547 274.688C424.094 275.125 423.492 275.496 422.742 275.801C422 276.098 421.105 276.246 420.059 276.246ZM416.742 268.395H422.59V268.09C422.59 267.48 422.48 266.938 422.262 266.461C422.051 265.977 421.73 265.598 421.301 265.324C420.879 265.043 420.348 264.902 419.707 264.902C419.191 264.902 418.723 265.055 418.301 265.359C417.879 265.656 417.531 266.062 417.258 266.578C416.984 267.094 416.805 267.68 416.719 268.336L416.742 268.395ZM426.703 276V274.523L428.613 274.195V265.137L426.703 264.809V263.32H430.688L430.84 264.973C431.246 264.371 431.77 263.906 432.41 263.578C433.051 263.25 433.793 263.086 434.637 263.086C435.48 263.086 436.203 263.281 436.805 263.672C437.414 264.062 437.871 264.648 438.176 265.43C438.574 264.711 439.102 264.141 439.758 263.719C440.414 263.297 441.18 263.086 442.055 263.086C443.352 263.086 444.375 263.531 445.125 264.422C445.875 265.305 446.25 266.637 446.25 268.418V274.195L448.16 274.523V276H442.02V274.523L443.93 274.195V268.395C443.93 267.145 443.715 266.262 443.285 265.746C442.855 265.223 442.219 264.961 441.375 264.961C440.57 264.961 439.922 265.246 439.43 265.816C438.945 266.379 438.664 267.09 438.586 267.949V274.195L440.496 274.523V276H434.367V274.523L436.277 274.195V268.395C436.277 267.207 436.055 266.34 435.609 265.793C435.172 265.238 434.535 264.961 433.699 264.961C432.996 264.961 432.418 265.105 431.965 265.395C431.512 265.684 431.164 266.09 430.922 266.613V274.195L432.832 274.523V276H426.703ZM453.984 276.246C452.664 276.246 451.66 275.926 450.973 275.285C450.285 274.637 449.941 273.727 449.941 272.555C449.941 271.75 450.16 271.051 450.598 270.457C451.043 269.855 451.684 269.391 452.52 269.062C453.355 268.727 454.355 268.559 455.52 268.559H457.781V267.316C457.781 266.551 457.547 265.957 457.078 265.535C456.617 265.113 455.965 264.902 455.121 264.902C454.59 264.902 454.129 264.969 453.738 265.102C453.348 265.227 452.992 265.402 452.672 265.629L452.426 267.398H450.645V264.492C451.215 264.031 451.879 263.684 452.637 263.449C453.395 263.207 454.234 263.086 455.156 263.086C456.695 263.086 457.902 263.453 458.777 264.188C459.652 264.922 460.09 265.973 460.09 267.34V273.445C460.09 273.609 460.09 273.77 460.09 273.926C460.098 274.082 460.109 274.238 460.125 274.395L461.355 274.523V276H458.039C457.969 275.656 457.914 275.348 457.875 275.074C457.836 274.801 457.809 274.527 457.793 274.254C457.348 274.824 456.789 275.301 456.117 275.684C455.453 276.059 454.742 276.246 453.984 276.246ZM454.324 274.312C455.09 274.312 455.789 274.129 456.422 273.762C457.055 273.395 457.508 272.953 457.781 272.438V270.141H455.438C454.375 270.141 453.578 270.395 453.047 270.902C452.516 271.41 452.25 271.977 452.25 272.602C452.25 273.156 452.422 273.582 452.766 273.879C453.109 274.168 453.629 274.312 454.324 274.312ZM463.066 276V274.523L464.977 274.195V265.137L463.066 264.809V263.32H467.285V274.195L469.195 274.523V276H463.066ZM464.859 260.191V257.719H467.285V260.191H464.859ZM470.672 276V274.523L472.582 274.195V259.535L470.672 259.207V257.719H474.891V274.195L476.801 274.523V276H470.672Z" fill="black" fill-opacity="0.35"/>
<rect x="407" y="162" width="465" height="49" rx="15" fill="#E8E8E8"/>
<path d="M414.152 195V193.523L416.062 193.195V184.137L414.152 183.809V182.32H418.125L418.289 184.207C418.711 183.535 419.238 183.016 419.871 182.648C420.512 182.273 421.238 182.086 422.051 182.086C423.418 182.086 424.477 182.488 425.227 183.293C425.977 184.09 426.352 185.324 426.352 186.996V193.195L428.262 193.523V195H422.133V193.523L424.043 193.195V187.043C424.043 185.926 423.82 185.133 423.375 184.664C422.938 184.195 422.266 183.961 421.359 183.961C420.695 183.961 420.105 184.121 419.59 184.441C419.082 184.762 418.676 185.199 418.371 185.754V193.195L420.281 193.523V195H414.152ZM434.004 195.246C432.684 195.246 431.68 194.926 430.992 194.285C430.305 193.637 429.961 192.727 429.961 191.555C429.961 190.75 430.18 190.051 430.617 189.457C431.062 188.855 431.703 188.391 432.539 188.062C433.375 187.727 434.375 187.559 435.539 187.559H437.801V186.316C437.801 185.551 437.566 184.957 437.098 184.535C436.637 184.113 435.984 183.902 435.141 183.902C434.609 183.902 434.148 183.969 433.758 184.102C433.367 184.227 433.012 184.402 432.691 184.629L432.445 186.398H430.664V183.492C431.234 183.031 431.898 182.684 432.656 182.449C433.414 182.207 434.254 182.086 435.176 182.086C436.715 182.086 437.922 182.453 438.797 183.188C439.672 183.922 440.109 184.973 440.109 186.34V192.445C440.109 192.609 440.109 192.77 440.109 192.926C440.117 193.082 440.129 193.238 440.145 193.395L441.375 193.523V195H438.059C437.988 194.656 437.934 194.348 437.895 194.074C437.855 193.801 437.828 193.527 437.812 193.254C437.367 193.824 436.809 194.301 436.137 194.684C435.473 195.059 434.762 195.246 434.004 195.246ZM434.344 193.312C435.109 193.312 435.809 193.129 436.441 192.762C437.074 192.395 437.527 191.953 437.801 191.438V189.141H435.457C434.395 189.141 433.598 189.395 433.066 189.902C432.535 190.41 432.27 190.977 432.27 191.602C432.27 192.156 432.441 192.582 432.785 192.879C433.129 193.168 433.648 193.312 434.344 193.312ZM443.168 195V193.523L445.078 193.195V184.137L443.168 183.809V182.32H447.152L447.305 183.973C447.711 183.371 448.234 182.906 448.875 182.578C449.516 182.25 450.258 182.086 451.102 182.086C451.945 182.086 452.668 182.281 453.27 182.672C453.879 183.062 454.336 183.648 454.641 184.43C455.039 183.711 455.566 183.141 456.223 182.719C456.879 182.297 457.645 182.086 458.52 182.086C459.816 182.086 460.84 182.531 461.59 183.422C462.34 184.305 462.715 185.637 462.715 187.418V193.195L464.625 193.523V195H458.484V193.523L460.395 193.195V187.395C460.395 186.145 460.18 185.262 459.75 184.746C459.32 184.223 458.684 183.961 457.84 183.961C457.035 183.961 456.387 184.246 455.895 184.816C455.41 185.379 455.129 186.09 455.051 186.949V193.195L456.961 193.523V195H450.832V193.523L452.742 193.195V187.395C452.742 186.207 452.52 185.34 452.074 184.793C451.637 184.238 451 183.961 450.164 183.961C449.461 183.961 448.883 184.105 448.43 184.395C447.977 184.684 447.629 185.09 447.387 185.613V193.195L449.297 193.523V195H443.168ZM471.938 195.246C470.766 195.246 469.746 194.98 468.879 194.449C468.012 193.91 467.34 193.164 466.863 192.211C466.395 191.258 466.16 190.156 466.16 188.906V188.391C466.16 187.188 466.406 186.113 466.898 185.168C467.398 184.215 468.059 183.465 468.879 182.918C469.707 182.363 470.609 182.086 471.586 182.086C472.727 182.086 473.68 182.32 474.445 182.789C475.219 183.258 475.801 183.918 476.191 184.77C476.582 185.613 476.777 186.609 476.777 187.758V189.199H468.551L468.516 189.258C468.531 190.07 468.672 190.793 468.938 191.426C469.211 192.051 469.602 192.543 470.109 192.902C470.617 193.262 471.227 193.441 471.938 193.441C472.719 193.441 473.402 193.332 473.988 193.113C474.582 192.887 475.094 192.578 475.523 192.188L476.426 193.688C475.973 194.125 475.371 194.496 474.621 194.801C473.879 195.098 472.984 195.246 471.938 195.246ZM468.621 187.395H474.469V187.09C474.469 186.48 474.359 185.938 474.141 185.461C473.93 184.977 473.609 184.598 473.18 184.324C472.758 184.043 472.227 183.902 471.586 183.902C471.07 183.902 470.602 184.055 470.18 184.359C469.758 184.656 469.41 185.062 469.137 185.578C468.863 186.094 468.684 186.68 468.598 187.336L468.621 187.395Z" fill="black" fill-opacity="0.35"/>
<rect x="640" y="443" width="89" height="49" rx="15" fill="#C4C4C4"/>
<path d="M692.939 479.291V471.609H686.223V466.934H692.939V459.623H698.079V466.934H704.74V471.609H698.079V479.291H692.939Z" fill="black"/>
<rect x="407" y="443" width="265.291" height="49" rx="15" fill="#E8E8E8"/>
<path d="M427.673 475.246C426.524 475.246 425.524 474.98 424.673 474.449C423.821 473.91 423.161 473.164 422.692 472.211C422.223 471.258 421.989 470.156 421.989 468.906V468.414C421.989 467.211 422.216 466.133 422.669 465.18C423.122 464.227 423.774 463.473 424.626 462.918C425.477 462.363 426.493 462.086 427.673 462.086C428.696 462.086 429.591 462.254 430.356 462.59C431.13 462.926 431.778 463.387 432.302 463.973L432.36 467.02H430.555L430.157 464.805C429.891 464.531 429.559 464.312 429.161 464.148C428.763 463.984 428.294 463.902 427.755 463.902C427.067 463.902 426.462 464.105 425.938 464.512C425.423 464.918 425.02 465.461 424.731 466.141C424.442 466.82 424.298 467.578 424.298 468.414V468.906C424.298 469.828 424.43 470.629 424.696 471.309C424.97 471.988 425.356 472.516 425.856 472.891C426.364 473.258 426.966 473.441 427.661 473.441C428.442 473.441 429.091 473.227 429.606 472.797C430.122 472.367 430.438 471.777 430.555 471.027H432.63L432.653 471.098C432.614 471.824 432.399 472.504 432.009 473.137C431.618 473.77 431.059 474.281 430.333 474.672C429.614 475.055 428.727 475.246 427.673 475.246ZM434.165 475V473.523L436.075 473.195V458.535L434.165 458.207V456.719H438.384V464.008C438.821 463.398 439.356 462.926 439.989 462.59C440.622 462.254 441.325 462.086 442.098 462.086C443.458 462.086 444.513 462.492 445.263 463.305C446.013 464.117 446.388 465.367 446.388 467.055V473.195L448.298 473.523V475H442.169V473.523L444.079 473.195V467.031C444.079 465.984 443.852 465.211 443.399 464.711C442.954 464.211 442.286 463.961 441.395 463.961C440.763 463.961 440.184 464.113 439.661 464.418C439.145 464.715 438.72 465.121 438.384 465.637V473.195L440.294 473.523V475H434.165ZM455.423 475.246C454.251 475.246 453.239 474.973 452.388 474.426C451.544 473.871 450.891 473.109 450.43 472.141C449.97 471.164 449.739 470.051 449.739 468.801V468.543C449.739 467.293 449.97 466.184 450.43 465.215C450.891 464.238 451.544 463.473 452.388 462.918C453.239 462.363 454.243 462.086 455.399 462.086C456.571 462.086 457.579 462.363 458.423 462.918C459.274 463.473 459.93 464.234 460.391 465.203C460.852 466.172 461.083 467.285 461.083 468.543V468.801C461.083 470.059 460.852 471.176 460.391 472.152C459.93 473.121 459.278 473.879 458.434 474.426C457.591 474.973 456.587 475.246 455.423 475.246ZM455.423 473.441C456.157 473.441 456.77 473.242 457.263 472.844C457.763 472.438 458.138 471.887 458.388 471.191C458.645 470.488 458.774 469.691 458.774 468.801V468.543C458.774 467.652 458.645 466.859 458.388 466.164C458.138 465.461 457.763 464.91 457.263 464.512C456.763 464.105 456.141 463.902 455.399 463.902C454.665 463.902 454.048 464.105 453.548 464.512C453.048 464.91 452.673 465.461 452.423 466.164C452.173 466.859 452.048 467.652 452.048 468.543V468.801C452.048 469.691 452.173 470.488 452.423 471.191C452.673 471.887 453.048 472.438 453.548 472.844C454.055 473.242 454.68 473.441 455.423 473.441ZM469.016 475.246C467.845 475.246 466.833 474.973 465.981 474.426C465.138 473.871 464.485 473.109 464.024 472.141C463.563 471.164 463.333 470.051 463.333 468.801V468.543C463.333 467.293 463.563 466.184 464.024 465.215C464.485 464.238 465.138 463.473 465.981 462.918C466.833 462.363 467.837 462.086 468.993 462.086C470.165 462.086 471.173 462.363 472.016 462.918C472.868 463.473 473.524 464.234 473.985 465.203C474.446 466.172 474.677 467.285 474.677 468.543V468.801C474.677 470.059 474.446 471.176 473.985 472.152C473.524 473.121 472.872 473.879 472.028 474.426C471.184 474.973 470.18 475.246 469.016 475.246ZM469.016 473.441C469.751 473.441 470.364 473.242 470.856 472.844C471.356 472.438 471.731 471.887 471.981 471.191C472.239 470.488 472.368 469.691 472.368 468.801V468.543C472.368 467.652 472.239 466.859 471.981 466.164C471.731 465.461 471.356 464.91 470.856 464.512C470.356 464.105 469.735 463.902 468.993 463.902C468.259 463.902 467.641 464.105 467.141 464.512C466.641 464.91 466.266 465.461 466.016 466.164C465.766 466.859 465.641 467.652 465.641 468.543V468.801C465.641 469.691 465.766 470.488 466.016 471.191C466.266 471.887 466.641 472.438 467.141 472.844C467.649 473.242 468.274 473.441 469.016 473.441ZM481.591 475.246C480.739 475.246 479.942 475.16 479.2 474.988C478.458 474.816 477.669 474.551 476.833 474.191L476.809 471.18H478.555L478.989 472.996C479.427 473.176 479.848 473.309 480.255 473.395C480.669 473.473 481.114 473.512 481.591 473.512C482.528 473.512 483.2 473.332 483.606 472.973C484.013 472.613 484.216 472.168 484.216 471.637C484.216 471.137 484.009 470.715 483.595 470.371C483.188 470.02 482.446 469.723 481.368 469.48C479.837 469.129 478.708 468.66 477.981 468.074C477.263 467.48 476.903 466.691 476.903 465.707C476.903 465.02 477.102 464.406 477.501 463.867C477.899 463.32 478.454 462.887 479.165 462.566C479.876 462.246 480.704 462.086 481.649 462.086C482.61 462.086 483.43 462.195 484.11 462.414C484.798 462.633 485.395 462.926 485.903 463.293L486.02 466.188H484.286L483.911 464.5C483.638 464.297 483.313 464.141 482.938 464.031C482.563 463.922 482.134 463.867 481.649 463.867C480.93 463.867 480.345 464.035 479.891 464.371C479.446 464.707 479.223 465.129 479.223 465.637C479.223 465.934 479.286 466.191 479.411 466.41C479.544 466.629 479.794 466.828 480.161 467.008C480.528 467.18 481.067 467.352 481.778 467.523C483.544 467.938 484.774 468.465 485.47 469.105C486.173 469.746 486.524 470.535 486.524 471.473C486.524 472.543 486.126 473.441 485.329 474.168C484.54 474.887 483.294 475.246 481.591 475.246ZM494.212 475.246C493.04 475.246 492.02 474.98 491.153 474.449C490.286 473.91 489.614 473.164 489.138 472.211C488.669 471.258 488.434 470.156 488.434 468.906V468.391C488.434 467.188 488.68 466.113 489.173 465.168C489.673 464.215 490.333 463.465 491.153 462.918C491.981 462.363 492.884 462.086 493.86 462.086C495.001 462.086 495.954 462.32 496.72 462.789C497.493 463.258 498.075 463.918 498.466 464.77C498.856 465.613 499.052 466.609 499.052 467.758V469.199H490.825L490.79 469.258C490.805 470.07 490.946 470.793 491.212 471.426C491.485 472.051 491.876 472.543 492.384 472.902C492.891 473.262 493.501 473.441 494.212 473.441C494.993 473.441 495.677 473.332 496.263 473.113C496.856 472.887 497.368 472.578 497.798 472.188L498.7 473.688C498.247 474.125 497.645 474.496 496.895 474.801C496.153 475.098 495.259 475.246 494.212 475.246ZM490.895 467.395H496.743V467.09C496.743 466.48 496.634 465.938 496.415 465.461C496.204 464.977 495.884 464.598 495.454 464.324C495.032 464.043 494.501 463.902 493.86 463.902C493.345 463.902 492.876 464.055 492.454 464.359C492.032 464.656 491.684 465.062 491.411 465.578C491.138 466.094 490.958 466.68 490.872 467.336L490.895 467.395ZM506.481 479.875V478.387L508.274 478.059V464.137L506.364 463.809V462.32H510.255L510.466 463.867C510.888 463.289 511.399 462.848 512.001 462.543C512.61 462.238 513.313 462.086 514.11 462.086C515.157 462.086 516.052 462.371 516.794 462.941C517.536 463.504 518.102 464.297 518.493 465.32C518.884 466.336 519.079 467.527 519.079 468.895V469.141C519.079 470.359 518.88 471.426 518.481 472.34C518.091 473.254 517.528 473.969 516.794 474.484C516.059 474.992 515.177 475.246 514.145 475.246C513.364 475.246 512.677 475.117 512.083 474.859C511.497 474.594 510.997 474.203 510.583 473.688V478.059L512.598 478.387V479.875H506.481ZM513.43 473.441C514.524 473.441 515.352 473.043 515.915 472.246C516.477 471.449 516.759 470.414 516.759 469.141V468.895C516.759 467.926 516.634 467.074 516.384 466.34C516.134 465.598 515.759 465.016 515.259 464.594C514.766 464.172 514.149 463.961 513.407 463.961C512.751 463.961 512.188 464.109 511.72 464.406C511.251 464.703 510.872 465.109 510.583 465.625V471.801C510.872 472.324 511.247 472.73 511.708 473.02C512.177 473.301 512.751 473.441 513.43 473.441ZM520.462 475V473.523L522.372 473.195V458.535L520.462 458.207V456.719H524.68V464.008C525.118 463.398 525.653 462.926 526.286 462.59C526.919 462.254 527.622 462.086 528.395 462.086C529.755 462.086 530.809 462.492 531.559 463.305C532.309 464.117 532.684 465.367 532.684 467.055V473.195L534.595 473.523V475H528.466V473.523L530.376 473.195V467.031C530.376 465.984 530.149 465.211 529.696 464.711C529.251 464.211 528.583 463.961 527.692 463.961C527.059 463.961 526.481 464.113 525.958 464.418C525.442 464.715 525.016 465.121 524.68 465.637V473.195L526.591 473.523V475H520.462ZM541.72 475.246C540.548 475.246 539.536 474.973 538.684 474.426C537.841 473.871 537.188 473.109 536.727 472.141C536.266 471.164 536.036 470.051 536.036 468.801V468.543C536.036 467.293 536.266 466.184 536.727 465.215C537.188 464.238 537.841 463.473 538.684 462.918C539.536 462.363 540.54 462.086 541.696 462.086C542.868 462.086 543.876 462.363 544.72 462.918C545.571 463.473 546.227 464.234 546.688 465.203C547.149 466.172 547.38 467.285 547.38 468.543V468.801C547.38 470.059 547.149 471.176 546.688 472.152C546.227 473.121 545.575 473.879 544.731 474.426C543.888 474.973 542.884 475.246 541.72 475.246ZM541.72 473.441C542.454 473.441 543.067 473.242 543.559 472.844C544.059 472.438 544.434 471.887 544.684 471.191C544.942 470.488 545.071 469.691 545.071 468.801V468.543C545.071 467.652 544.942 466.859 544.684 466.164C544.434 465.461 544.059 464.91 543.559 464.512C543.059 464.105 542.438 463.902 541.696 463.902C540.962 463.902 540.345 464.105 539.845 464.512C539.345 464.91 538.97 465.461 538.72 466.164C538.47 466.859 538.345 467.652 538.345 468.543V468.801C538.345 469.691 538.47 470.488 538.72 471.191C538.97 471.887 539.345 472.438 539.845 472.844C540.352 473.242 540.977 473.441 541.72 473.441ZM553.638 475.199C552.7 475.199 551.954 474.926 551.399 474.379C550.852 473.824 550.579 472.941 550.579 471.73V464.031H548.575V462.32H550.579V459.262H552.888V462.32H555.641V464.031H552.888V471.73C552.888 472.34 553.009 472.789 553.251 473.078C553.493 473.367 553.817 473.512 554.223 473.512C554.497 473.512 554.802 473.488 555.138 473.441C555.473 473.387 555.735 473.34 555.923 473.301L556.239 474.812C555.903 474.914 555.489 475.004 554.997 475.082C554.513 475.16 554.059 475.199 553.638 475.199ZM563.212 475.246C562.04 475.246 561.028 474.973 560.177 474.426C559.333 473.871 558.68 473.109 558.22 472.141C557.759 471.164 557.528 470.051 557.528 468.801V468.543C557.528 467.293 557.759 466.184 558.22 465.215C558.68 464.238 559.333 463.473 560.177 462.918C561.028 462.363 562.032 462.086 563.188 462.086C564.36 462.086 565.368 462.363 566.212 462.918C567.063 463.473 567.72 464.234 568.18 465.203C568.641 466.172 568.872 467.285 568.872 468.543V468.801C568.872 470.059 568.641 471.176 568.18 472.152C567.72 473.121 567.067 473.879 566.223 474.426C565.38 474.973 564.376 475.246 563.212 475.246ZM563.212 473.441C563.946 473.441 564.559 473.242 565.052 472.844C565.552 472.438 565.927 471.887 566.177 471.191C566.434 470.488 566.563 469.691 566.563 468.801V468.543C566.563 467.652 566.434 466.859 566.177 466.164C565.927 465.461 565.552 464.91 565.052 464.512C564.552 464.105 563.93 463.902 563.188 463.902C562.454 463.902 561.837 464.105 561.337 464.512C560.837 464.91 560.462 465.461 560.212 466.164C559.962 466.859 559.837 467.652 559.837 468.543V468.801C559.837 469.691 559.962 470.488 560.212 471.191C560.462 471.887 560.837 472.438 561.337 472.844C561.845 473.242 562.47 473.441 563.212 473.441Z" fill="black" fill-opacity="0.35"/>
<g filter="url(#filter0_d_8_83)">
<rect x="542" y="513" width="196" height="58" rx="24" fill="black"/>
<path d="M594.414 551V549.523L596.324 549.195V535.754L594.414 535.426V533.949H602.02C603.262 533.949 604.309 534.137 605.16 534.512C606.02 534.879 606.672 535.414 607.117 536.117C607.562 536.82 607.785 537.68 607.785 538.695C607.785 539.695 607.566 540.535 607.129 541.215C606.699 541.895 606.086 542.41 605.289 542.762C604.492 543.105 603.547 543.289 602.453 543.312L598.633 543.383V549.195L600.543 549.523V551H594.414ZM605.676 551L601.879 542.48L604.188 542.457L607.34 549.277L608.523 549.488V551H605.676ZM598.633 541.566H601.785C603.074 541.566 604.012 541.32 604.598 540.828C605.184 540.336 605.477 539.617 605.477 538.672C605.477 537.773 605.195 537.062 604.633 536.539C604.07 536.016 603.199 535.754 602.02 535.754H598.633V541.566ZM616.352 551.246C615.18 551.246 614.16 550.98 613.293 550.449C612.426 549.91 611.754 549.164 611.277 548.211C610.809 547.258 610.574 546.156 610.574 544.906V544.391C610.574 543.188 610.82 542.113 611.312 541.168C611.812 540.215 612.473 539.465 613.293 538.918C614.121 538.363 615.023 538.086 616 538.086C617.141 538.086 618.094 538.32 618.859 538.789C619.633 539.258 620.215 539.918 620.605 540.77C620.996 541.613 621.191 542.609 621.191 543.758V545.199H612.965L612.93 545.258C612.945 546.07 613.086 546.793 613.352 547.426C613.625 548.051 614.016 548.543 614.523 548.902C615.031 549.262 615.641 549.441 616.352 549.441C617.133 549.441 617.816 549.332 618.402 549.113C618.996 548.887 619.508 548.578 619.938 548.188L620.84 549.688C620.387 550.125 619.785 550.496 619.035 550.801C618.293 551.098 617.398 551.246 616.352 551.246ZM613.035 543.395H618.883V543.09C618.883 542.48 618.773 541.938 618.555 541.461C618.344 540.977 618.023 540.598 617.594 540.324C617.172 540.043 616.641 539.902 616 539.902C615.484 539.902 615.016 540.055 614.594 540.359C614.172 540.656 613.824 541.062 613.551 541.578C613.277 542.094 613.098 542.68 613.012 543.336L613.035 543.395ZM629.031 556.121C628.422 556.121 627.762 556.035 627.051 555.863C626.34 555.699 625.715 555.473 625.176 555.184L625.773 553.391C626.203 553.617 626.711 553.805 627.297 553.953C627.883 554.102 628.453 554.176 629.008 554.176C630.039 554.176 630.793 553.887 631.27 553.309C631.754 552.73 631.996 551.906 631.996 550.836V549.629C631.582 550.16 631.086 550.562 630.508 550.836C629.93 551.109 629.266 551.246 628.516 551.246C627.484 551.246 626.594 550.992 625.844 550.484C625.094 549.969 624.516 549.254 624.109 548.34C623.711 547.418 623.512 546.352 623.512 545.141V544.895C623.512 543.535 623.711 542.344 624.109 541.32C624.516 540.297 625.094 539.504 625.844 538.941C626.594 538.371 627.492 538.086 628.539 538.086C629.336 538.086 630.035 538.242 630.637 538.555C631.238 538.867 631.742 539.32 632.148 539.914L632.359 538.32H634.305V550.836C634.305 551.93 634.098 552.871 633.684 553.66C633.277 554.449 632.68 555.055 631.891 555.477C631.109 555.906 630.156 556.121 629.031 556.121ZM629.09 549.371C629.785 549.371 630.367 549.215 630.836 548.902C631.305 548.582 631.691 548.133 631.996 547.555V541.719C631.699 541.18 631.312 540.754 630.836 540.441C630.359 540.121 629.785 539.961 629.113 539.961C628.379 539.961 627.766 540.172 627.273 540.594C626.789 541.016 626.426 541.598 626.184 542.34C625.941 543.074 625.82 543.926 625.82 544.895V545.141C625.82 546.414 626.09 547.438 626.629 548.211C627.168 548.984 627.988 549.371 629.09 549.371ZM633.953 540.207L633.051 538.32H635.875V539.797L633.953 540.207ZM636.953 551V549.523L638.863 549.195V540.137L636.953 539.809V538.32H641.172V549.195L643.082 549.523V551H636.953ZM638.746 535.191V532.719H641.172V535.191H638.746ZM649.809 551.246C648.957 551.246 648.16 551.16 647.418 550.988C646.676 550.816 645.887 550.551 645.051 550.191L645.027 547.18H646.773L647.207 548.996C647.645 549.176 648.066 549.309 648.473 549.395C648.887 549.473 649.332 549.512 649.809 549.512C650.746 549.512 651.418 549.332 651.824 548.973C652.23 548.613 652.434 548.168 652.434 547.637C652.434 547.137 652.227 546.715 651.812 546.371C651.406 546.02 650.664 545.723 649.586 545.48C648.055 545.129 646.926 544.66 646.199 544.074C645.48 543.48 645.121 542.691 645.121 541.707C645.121 541.02 645.32 540.406 645.719 539.867C646.117 539.32 646.672 538.887 647.383 538.566C648.094 538.246 648.922 538.086 649.867 538.086C650.828 538.086 651.648 538.195 652.328 538.414C653.016 538.633 653.613 538.926 654.121 539.293L654.238 542.188H652.504L652.129 540.5C651.855 540.297 651.531 540.141 651.156 540.031C650.781 539.922 650.352 539.867 649.867 539.867C649.148 539.867 648.562 540.035 648.109 540.371C647.664 540.707 647.441 541.129 647.441 541.637C647.441 541.934 647.504 542.191 647.629 542.41C647.762 542.629 648.012 542.828 648.379 543.008C648.746 543.18 649.285 543.352 649.996 543.523C651.762 543.938 652.992 544.465 653.688 545.105C654.391 545.746 654.742 546.535 654.742 547.473C654.742 548.543 654.344 549.441 653.547 550.168C652.758 550.887 651.512 551.246 649.809 551.246ZM661.129 551.199C660.191 551.199 659.445 550.926 658.891 550.379C658.344 549.824 658.07 548.941 658.07 547.73V540.031H656.066V538.32H658.07V535.262H660.379V538.32H663.133V540.031H660.379V547.73C660.379 548.34 660.5 548.789 660.742 549.078C660.984 549.367 661.309 549.512 661.715 549.512C661.988 549.512 662.293 549.488 662.629 549.441C662.965 549.387 663.227 549.34 663.414 549.301L663.73 550.812C663.395 550.914 662.98 551.004 662.488 551.082C662.004 551.16 661.551 551.199 661.129 551.199ZM670.75 551.246C669.578 551.246 668.559 550.98 667.691 550.449C666.824 549.91 666.152 549.164 665.676 548.211C665.207 547.258 664.973 546.156 664.973 544.906V544.391C664.973 543.188 665.219 542.113 665.711 541.168C666.211 540.215 666.871 539.465 667.691 538.918C668.52 538.363 669.422 538.086 670.398 538.086C671.539 538.086 672.492 538.32 673.258 538.789C674.031 539.258 674.613 539.918 675.004 540.77C675.395 541.613 675.59 542.609 675.59 543.758V545.199H667.363L667.328 545.258C667.344 546.07 667.484 546.793 667.75 547.426C668.023 548.051 668.414 548.543 668.922 548.902C669.43 549.262 670.039 549.441 670.75 549.441C671.531 549.441 672.215 549.332 672.801 549.113C673.395 548.887 673.906 548.578 674.336 548.188L675.238 549.688C674.785 550.125 674.184 550.496 673.434 550.801C672.691 551.098 671.797 551.246 670.75 551.246ZM667.434 543.395H673.281V543.09C673.281 542.48 673.172 541.938 672.953 541.461C672.742 540.977 672.422 540.598 671.992 540.324C671.57 540.043 671.039 539.902 670.398 539.902C669.883 539.902 669.414 540.055 668.992 540.359C668.57 540.656 668.223 541.062 667.949 541.578C667.676 542.094 667.496 542.68 667.41 543.336L667.434 543.395ZM677.371 551V549.523L679.281 549.195V540.137L677.371 539.809V538.32H681.344L681.543 539.938L681.566 540.16C681.926 539.512 682.367 539.004 682.891 538.637C683.422 538.27 684.027 538.086 684.707 538.086C684.949 538.086 685.195 538.109 685.445 538.156C685.703 538.195 685.887 538.234 685.996 538.273L685.691 540.418L684.086 540.324C683.477 540.285 682.965 540.426 682.551 540.746C682.137 541.059 681.816 541.48 681.59 542.012V549.195L683.5 549.523V551H677.371Z" fill="white"/>
</g>
<path d="M882.5 104.615L880.385 102.5L872 110.885L863.615 102.5L861.5 104.615L869.885 113L861.5 121.385L863.615 123.5L872 115.115L880.385 123.5L882.5 121.385L874.115 113L882.5 104.615Z" fill="black"/>
<path d="M81.082 366.246C79.9336 366.246 78.9336 365.98 78.082 365.449C77.2305 364.91 76.5703 364.164 76.1016 363.211C75.6328 362.258 75.3984 361.156 75.3984 359.906V359.414C75.3984 358.211 75.625 357.133 76.0781 356.18C76.5312 355.227 77.1836 354.473 78.0352 353.918C78.8867 353.363 79.9023 353.086 81.082 353.086C82.1055 353.086 83 353.254 83.7656 353.59C84.5391 353.926 85.1875 354.387 85.7109 354.973L85.7695 358.02H83.9648L83.5664 355.805C83.3008 355.531 82.9688 355.312 82.5703 355.148C82.1719 354.984 81.7031 354.902 81.1641 354.902C80.4766 354.902 79.8711 355.105 79.3477 355.512C78.832 355.918 78.4297 356.461 78.1406 357.141C77.8516 357.82 77.707 358.578 77.707 359.414V359.906C77.707 360.828 77.8398 361.629 78.1055 362.309C78.3789 362.988 78.7656 363.516 79.2656 363.891C79.7734 364.258 80.375 364.441 81.0703 364.441C81.8516 364.441 82.5 364.227 83.0156 363.797C83.5312 363.367 83.8477 362.777 83.9648 362.027H86.0391L86.0625 362.098C86.0234 362.824 85.8086 363.504 85.418 364.137C85.0273 364.77 84.4688 365.281 83.7422 365.672C83.0234 366.055 82.1367 366.246 81.082 366.246ZM93.9023 366.246C92.7305 366.246 91.7188 365.973 90.8672 365.426C90.0234 364.871 89.3711 364.109 88.9102 363.141C88.4492 362.164 88.2188 361.051 88.2188 359.801V359.543C88.2188 358.293 88.4492 357.184 88.9102 356.215C89.3711 355.238 90.0234 354.473 90.8672 353.918C91.7188 353.363 92.7227 353.086 93.8789 353.086C95.0508 353.086 96.0586 353.363 96.9023 353.918C97.7539 354.473 98.4102 355.234 98.8711 356.203C99.332 357.172 99.5625 358.285 99.5625 359.543V359.801C99.5625 361.059 99.332 362.176 98.8711 363.152C98.4102 364.121 97.7578 364.879 96.9141 365.426C96.0703 365.973 95.0664 366.246 93.9023 366.246ZM93.9023 364.441C94.6367 364.441 95.25 364.242 95.7422 363.844C96.2422 363.438 96.6172 362.887 96.8672 362.191C97.125 361.488 97.2539 360.691 97.2539 359.801V359.543C97.2539 358.652 97.125 357.859 96.8672 357.164C96.6172 356.461 96.2422 355.91 95.7422 355.512C95.2422 355.105 94.6211 354.902 93.8789 354.902C93.1445 354.902 92.5273 355.105 92.0273 355.512C91.5273 355.91 91.1523 356.461 90.9023 357.164C90.6523 357.859 90.5273 358.652 90.5273 359.543V359.801C90.5273 360.691 90.6523 361.488 90.9023 362.191C91.1523 362.887 91.5273 363.438 92.0273 363.844C92.5352 364.242 93.1602 364.441 93.9023 364.441ZM101.344 366V364.523L103.254 364.195V355.137L101.344 354.809V353.32H105.316L105.48 355.207C105.902 354.535 106.43 354.016 107.062 353.648C107.703 353.273 108.43 353.086 109.242 353.086C110.609 353.086 111.668 353.488 112.418 354.293C113.168 355.09 113.543 356.324 113.543 357.996V364.195L115.453 364.523V366H109.324V364.523L111.234 364.195V358.043C111.234 356.926 111.012 356.133 110.566 355.664C110.129 355.195 109.457 354.961 108.551 354.961C107.887 354.961 107.297 355.121 106.781 355.441C106.273 355.762 105.867 356.199 105.562 356.754V364.195L107.473 364.523V366H101.344ZM121.102 366.199C120.164 366.199 119.418 365.926 118.863 365.379C118.316 364.824 118.043 363.941 118.043 362.73V355.031H116.039V353.32H118.043V350.262H120.352V353.32H123.105V355.031H120.352V362.73C120.352 363.34 120.473 363.789 120.715 364.078C120.957 364.367 121.281 364.512 121.688 364.512C121.961 364.512 122.266 364.488 122.602 364.441C122.938 364.387 123.199 364.34 123.387 364.301L123.703 365.812C123.367 365.914 122.953 366.004 122.461 366.082C121.977 366.16 121.523 366.199 121.102 366.199ZM130.723 366.246C129.551 366.246 128.531 365.98 127.664 365.449C126.797 364.91 126.125 364.164 125.648 363.211C125.18 362.258 124.945 361.156 124.945 359.906V359.391C124.945 358.188 125.191 357.113 125.684 356.168C126.184 355.215 126.844 354.465 127.664 353.918C128.492 353.363 129.395 353.086 130.371 353.086C131.512 353.086 132.465 353.32 133.23 353.789C134.004 354.258 134.586 354.918 134.977 355.77C135.367 356.613 135.562 357.609 135.562 358.758V360.199H127.336L127.301 360.258C127.316 361.07 127.457 361.793 127.723 362.426C127.996 363.051 128.387 363.543 128.895 363.902C129.402 364.262 130.012 364.441 130.723 364.441C131.504 364.441 132.188 364.332 132.773 364.113C133.367 363.887 133.879 363.578 134.309 363.188L135.211 364.688C134.758 365.125 134.156 365.496 133.406 365.801C132.664 366.098 131.77 366.246 130.723 366.246ZM127.406 358.395H133.254V358.09C133.254 357.48 133.145 356.938 132.926 356.461C132.715 355.977 132.395 355.598 131.965 355.324C131.543 355.043 131.012 354.902 130.371 354.902C129.855 354.902 129.387 355.055 128.965 355.359C128.543 355.656 128.195 356.062 127.922 356.578C127.648 357.094 127.469 357.68 127.383 358.336L127.406 358.395ZM137.367 366V364.523L139.277 364.195V355.137L137.367 354.809V353.32H141.34L141.504 355.207C141.926 354.535 142.453 354.016 143.086 353.648C143.727 353.273 144.453 353.086 145.266 353.086C146.633 353.086 147.691 353.488 148.441 354.293C149.191 355.09 149.566 356.324 149.566 357.996V364.195L151.477 364.523V366H145.348V364.523L147.258 364.195V358.043C147.258 356.926 147.035 356.133 146.59 355.664C146.152 355.195 145.48 354.961 144.574 354.961C143.91 354.961 143.32 355.121 142.805 355.441C142.297 355.762 141.891 356.199 141.586 356.754V364.195L143.496 364.523V366H137.367ZM157.125 366.199C156.188 366.199 155.441 365.926 154.887 365.379C154.34 364.824 154.066 363.941 154.066 362.73V355.031H152.062V353.32H154.066V350.262H156.375V353.32H159.129V355.031H156.375V362.73C156.375 363.34 156.496 363.789 156.738 364.078C156.98 364.367 157.305 364.512 157.711 364.512C157.984 364.512 158.289 364.488 158.625 364.441C158.961 364.387 159.223 364.34 159.41 364.301L159.727 365.812C159.391 365.914 158.977 366.004 158.484 366.082C158 366.16 157.547 366.199 157.125 366.199ZM172.758 366.246C171.383 366.246 170.309 365.805 169.535 364.922C168.762 364.039 168.375 362.664 168.375 360.797V355.137L166.922 354.809V353.32H168.375H170.684V360.82C170.684 362.172 170.883 363.102 171.281 363.609C171.68 364.117 172.301 364.371 173.145 364.371C173.965 364.371 174.641 364.207 175.172 363.879C175.711 363.543 176.117 363.07 176.391 362.461V355.137L174.691 354.809V353.32H176.391H178.699V364.195L180.152 364.523V366H176.625L176.473 364.125C176.074 364.805 175.559 365.328 174.926 365.695C174.301 366.062 173.578 366.246 172.758 366.246ZM181.781 366V364.523L183.691 364.195V355.137L181.781 354.809V353.32H185.754L185.918 355.207C186.34 354.535 186.867 354.016 187.5 353.648C188.141 353.273 188.867 353.086 189.68 353.086C191.047 353.086 192.105 353.488 192.855 354.293C193.605 355.09 193.98 356.324 193.98 357.996V364.195L195.891 364.523V366H189.762V364.523L191.672 364.195V358.043C191.672 356.926 191.449 356.133 191.004 355.664C190.566 355.195 189.895 354.961 188.988 354.961C188.324 354.961 187.734 355.121 187.219 355.441C186.711 355.762 186.305 356.199 186 356.754V364.195L187.91 364.523V366H181.781ZM202.395 366.246C201.363 366.246 200.477 365.992 199.734 365.484C199 364.969 198.438 364.254 198.047 363.34C197.656 362.426 197.461 361.359 197.461 360.141V359.895C197.461 358.535 197.656 357.344 198.047 356.32C198.438 355.297 199.004 354.504 199.746 353.941C200.488 353.371 201.379 353.086 202.418 353.086C203.168 353.086 203.828 353.227 204.398 353.508C204.977 353.781 205.469 354.18 205.875 354.703V349.535L203.965 349.207V347.719H205.875H208.184V364.195L210.094 364.523V366H206.18L205.992 364.488C205.578 365.066 205.07 365.504 204.469 365.801C203.875 366.098 203.184 366.246 202.395 366.246ZM202.98 364.371C203.668 364.371 204.246 364.215 204.715 363.902C205.184 363.59 205.57 363.148 205.875 362.578V356.695C205.578 356.164 205.191 355.742 204.715 355.43C204.238 355.117 203.668 354.961 203.004 354.961C202.27 354.961 201.664 355.172 201.188 355.594C200.711 356.008 200.355 356.586 200.121 357.328C199.887 358.062 199.77 358.918 199.77 359.895V360.141C199.77 361.414 200.031 362.438 200.555 363.211C201.078 363.984 201.887 364.371 202.98 364.371ZM217.395 366.246C216.223 366.246 215.203 365.98 214.336 365.449C213.469 364.91 212.797 364.164 212.32 363.211C211.852 362.258 211.617 361.156 211.617 359.906V359.391C211.617 358.188 211.863 357.113 212.355 356.168C212.855 355.215 213.516 354.465 214.336 353.918C215.164 353.363 216.066 353.086 217.043 353.086C218.184 353.086 219.137 353.32 219.902 353.789C220.676 354.258 221.258 354.918 221.648 355.77C222.039 356.613 222.234 357.609 222.234 358.758V360.199H214.008L213.973 360.258C213.988 361.07 214.129 361.793 214.395 362.426C214.668 363.051 215.059 363.543 215.566 363.902C216.074 364.262 216.684 364.441 217.395 364.441C218.176 364.441 218.859 364.332 219.445 364.113C220.039 363.887 220.551 363.578 220.98 363.188L221.883 364.688C221.43 365.125 220.828 365.496 220.078 365.801C219.336 366.098 218.441 366.246 217.395 366.246ZM214.078 358.395H219.926V358.09C219.926 357.48 219.816 356.938 219.598 356.461C219.387 355.977 219.066 355.598 218.637 355.324C218.215 355.043 217.684 354.902 217.043 354.902C216.527 354.902 216.059 355.055 215.637 355.359C215.215 355.656 214.867 356.062 214.594 356.578C214.32 357.094 214.141 357.68 214.055 358.336L214.078 358.395ZM224.016 366V364.523L225.926 364.195V355.137L224.016 354.809V353.32H227.988L228.188 354.938L228.211 355.16C228.57 354.512 229.012 354.004 229.535 353.637C230.066 353.27 230.672 353.086 231.352 353.086C231.594 353.086 231.84 353.109 232.09 353.156C232.348 353.195 232.531 353.234 232.641 353.273L232.336 355.418L230.73 355.324C230.121 355.285 229.609 355.426 229.195 355.746C228.781 356.059 228.461 356.48 228.234 357.012V364.195L230.145 364.523V366H224.016ZM239.672 370.875V369.387L241.465 369.059V355.137L239.555 354.809V353.32H243.445L243.656 354.867C244.078 354.289 244.59 353.848 245.191 353.543C245.801 353.238 246.504 353.086 247.301 353.086C248.348 353.086 249.242 353.371 249.984 353.941C250.727 354.504 251.293 355.297 251.684 356.32C252.074 357.336 252.27 358.527 252.27 359.895V360.141C252.27 361.359 252.07 362.426 251.672 363.34C251.281 364.254 250.719 364.969 249.984 365.484C249.25 365.992 248.367 366.246 247.336 366.246C246.555 366.246 245.867 366.117 245.273 365.859C244.688 365.594 244.188 365.203 243.773 364.688V369.059L245.789 369.387V370.875H239.672ZM246.621 364.441C247.715 364.441 248.543 364.043 249.105 363.246C249.668 362.449 249.949 361.414 249.949 360.141V359.895C249.949 358.926 249.824 358.074 249.574 357.34C249.324 356.598 248.949 356.016 248.449 355.594C247.957 355.172 247.34 354.961 246.598 354.961C245.941 354.961 245.379 355.109 244.91 355.406C244.441 355.703 244.062 356.109 243.773 356.625V362.801C244.062 363.324 244.438 363.73 244.898 364.02C245.367 364.301 245.941 364.441 246.621 364.441ZM260.262 366.246C259.09 366.246 258.078 365.973 257.227 365.426C256.383 364.871 255.73 364.109 255.27 363.141C254.809 362.164 254.578 361.051 254.578 359.801V359.543C254.578 358.293 254.809 357.184 255.27 356.215C255.73 355.238 256.383 354.473 257.227 353.918C258.078 353.363 259.082 353.086 260.238 353.086C261.41 353.086 262.418 353.363 263.262 353.918C264.113 354.473 264.77 355.234 265.23 356.203C265.691 357.172 265.922 358.285 265.922 359.543V359.801C265.922 361.059 265.691 362.176 265.23 363.152C264.77 364.121 264.117 364.879 263.273 365.426C262.43 365.973 261.426 366.246 260.262 366.246ZM260.262 364.441C260.996 364.441 261.609 364.242 262.102 363.844C262.602 363.438 262.977 362.887 263.227 362.191C263.484 361.488 263.613 360.691 263.613 359.801V359.543C263.613 358.652 263.484 357.859 263.227 357.164C262.977 356.461 262.602 355.91 262.102 355.512C261.602 355.105 260.98 354.902 260.238 354.902C259.504 354.902 258.887 355.105 258.387 355.512C257.887 355.91 257.512 356.461 257.262 357.164C257.012 357.859 256.887 358.652 256.887 359.543V359.801C256.887 360.691 257.012 361.488 257.262 362.191C257.512 362.887 257.887 363.438 258.387 363.844C258.895 364.242 259.52 364.441 260.262 364.441ZM267.352 370.875V369.387L269.145 369.059V355.137L267.234 354.809V353.32H271.125L271.336 354.867C271.758 354.289 272.27 353.848 272.871 353.543C273.48 353.238 274.184 353.086 274.98 353.086C276.027 353.086 276.922 353.371 277.664 353.941C278.406 354.504 278.973 355.297 279.363 356.32C279.754 357.336 279.949 358.527 279.949 359.895V360.141C279.949 361.359 279.75 362.426 279.352 363.34C278.961 364.254 278.398 364.969 277.664 365.484C276.93 365.992 276.047 366.246 275.016 366.246C274.234 366.246 273.547 366.117 272.953 365.859C272.367 365.594 271.867 365.203 271.453 364.688V369.059L273.469 369.387V370.875H267.352ZM274.301 364.441C275.395 364.441 276.223 364.043 276.785 363.246C277.348 362.449 277.629 361.414 277.629 360.141V359.895C277.629 358.926 277.504 358.074 277.254 357.34C277.004 356.598 276.629 356.016 276.129 355.594C275.637 355.172 275.02 354.961 274.277 354.961C273.621 354.961 273.059 355.109 272.59 355.406C272.121 355.703 271.742 356.109 271.453 356.625V362.801C271.742 363.324 272.117 363.73 272.578 364.02C273.047 364.301 273.621 364.441 274.301 364.441ZM287.32 366.246C285.945 366.246 284.871 365.805 284.098 364.922C283.324 364.039 282.938 362.664 282.938 360.797V355.137L281.484 354.809V353.32H282.938H285.246V360.82C285.246 362.172 285.445 363.102 285.844 363.609C286.242 364.117 286.863 364.371 287.707 364.371C288.527 364.371 289.203 364.207 289.734 363.879C290.273 363.543 290.68 363.07 290.953 362.461V355.137L289.254 354.809V353.32H290.953H293.262V364.195L294.715 364.523V366H291.188L291.035 364.125C290.637 364.805 290.121 365.328 289.488 365.695C288.863 366.062 288.141 366.246 287.32 366.246ZM295.992 370.875V369.387L297.785 369.059V355.137L295.875 354.809V353.32H299.766L299.977 354.867C300.398 354.289 300.91 353.848 301.512 353.543C302.121 353.238 302.824 353.086 303.621 353.086C304.668 353.086 305.562 353.371 306.305 353.941C307.047 354.504 307.613 355.297 308.004 356.32C308.395 357.336 308.59 358.527 308.59 359.895V360.141C308.59 361.359 308.391 362.426 307.992 363.34C307.602 364.254 307.039 364.969 306.305 365.484C305.57 365.992 304.688 366.246 303.656 366.246C302.875 366.246 302.188 366.117 301.594 365.859C301.008 365.594 300.508 365.203 300.094 364.688V369.059L302.109 369.387V370.875H295.992ZM302.941 364.441C304.035 364.441 304.863 364.043 305.426 363.246C305.988 362.449 306.27 361.414 306.27 360.141V359.895C306.27 358.926 306.145 358.074 305.895 357.34C305.645 356.598 305.27 356.016 304.77 355.594C304.277 355.172 303.66 354.961 302.918 354.961C302.262 354.961 301.699 355.109 301.23 355.406C300.762 355.703 300.383 356.109 300.094 356.625V362.801C300.383 363.324 300.758 363.73 301.219 364.02C301.688 364.301 302.262 364.441 302.941 364.441Z" fill="black" fill-opacity="0.36"/>
<path d="M977.082 366.246C975.934 366.246 974.934 365.98 974.082 365.449C973.23 364.91 972.57 364.164 972.102 363.211C971.633 362.258 971.398 361.156 971.398 359.906V359.414C971.398 358.211 971.625 357.133 972.078 356.18C972.531 355.227 973.184 354.473 974.035 353.918C974.887 353.363 975.902 353.086 977.082 353.086C978.105 353.086 979 353.254 979.766 353.59C980.539 353.926 981.188 354.387 981.711 354.973L981.77 358.02H979.965L979.566 355.805C979.301 355.531 978.969 355.312 978.57 355.148C978.172 354.984 977.703 354.902 977.164 354.902C976.477 354.902 975.871 355.105 975.348 355.512C974.832 355.918 974.43 356.461 974.141 357.141C973.852 357.82 973.707 358.578 973.707 359.414V359.906C973.707 360.828 973.84 361.629 974.105 362.309C974.379 362.988 974.766 363.516 975.266 363.891C975.773 364.258 976.375 364.441 977.07 364.441C977.852 364.441 978.5 364.227 979.016 363.797C979.531 363.367 979.848 362.777 979.965 362.027H982.039L982.062 362.098C982.023 362.824 981.809 363.504 981.418 364.137C981.027 364.77 980.469 365.281 979.742 365.672C979.023 366.055 978.137 366.246 977.082 366.246ZM989.902 366.246C988.73 366.246 987.719 365.973 986.867 365.426C986.023 364.871 985.371 364.109 984.91 363.141C984.449 362.164 984.219 361.051 984.219 359.801V359.543C984.219 358.293 984.449 357.184 984.91 356.215C985.371 355.238 986.023 354.473 986.867 353.918C987.719 353.363 988.723 353.086 989.879 353.086C991.051 353.086 992.059 353.363 992.902 353.918C993.754 354.473 994.41 355.234 994.871 356.203C995.332 357.172 995.562 358.285 995.562 359.543V359.801C995.562 361.059 995.332 362.176 994.871 363.152C994.41 364.121 993.758 364.879 992.914 365.426C992.07 365.973 991.066 366.246 989.902 366.246ZM989.902 364.441C990.637 364.441 991.25 364.242 991.742 363.844C992.242 363.438 992.617 362.887 992.867 362.191C993.125 361.488 993.254 360.691 993.254 359.801V359.543C993.254 358.652 993.125 357.859 992.867 357.164C992.617 356.461 992.242 355.91 991.742 355.512C991.242 355.105 990.621 354.902 989.879 354.902C989.145 354.902 988.527 355.105 988.027 355.512C987.527 355.91 987.152 356.461 986.902 357.164C986.652 357.859 986.527 358.652 986.527 359.543V359.801C986.527 360.691 986.652 361.488 986.902 362.191C987.152 362.887 987.527 363.438 988.027 363.844C988.535 364.242 989.16 364.441 989.902 364.441ZM997.344 366V364.523L999.254 364.195V355.137L997.344 354.809V353.32H1001.32L1001.48 355.207C1001.9 354.535 1002.43 354.016 1003.06 353.648C1003.7 353.273 1004.43 353.086 1005.24 353.086C1006.61 353.086 1007.67 353.488 1008.42 354.293C1009.17 355.09 1009.54 356.324 1009.54 357.996V364.195L1011.45 364.523V366H1005.32V364.523L1007.23 364.195V358.043C1007.23 356.926 1007.01 356.133 1006.57 355.664C1006.13 355.195 1005.46 354.961 1004.55 354.961C1003.89 354.961 1003.3 355.121 1002.78 355.441C1002.27 355.762 1001.87 356.199 1001.56 356.754V364.195L1003.47 364.523V366H997.344ZM1017.1 366.199C1016.16 366.199 1015.42 365.926 1014.86 365.379C1014.32 364.824 1014.04 363.941 1014.04 362.73V355.031H1012.04V353.32H1014.04V350.262H1016.35V353.32H1019.11V355.031H1016.35V362.73C1016.35 363.34 1016.47 363.789 1016.71 364.078C1016.96 364.367 1017.28 364.512 1017.69 364.512C1017.96 364.512 1018.27 364.488 1018.6 364.441C1018.94 364.387 1019.2 364.34 1019.39 364.301L1019.7 365.812C1019.37 365.914 1018.95 366.004 1018.46 366.082C1017.98 366.16 1017.52 366.199 1017.1 366.199ZM1026.72 366.246C1025.55 366.246 1024.53 365.98 1023.66 365.449C1022.8 364.91 1022.12 364.164 1021.65 363.211C1021.18 362.258 1020.95 361.156 1020.95 359.906V359.391C1020.95 358.188 1021.19 357.113 1021.68 356.168C1022.18 355.215 1022.84 354.465 1023.66 353.918C1024.49 353.363 1025.39 353.086 1026.37 353.086C1027.51 353.086 1028.46 353.32 1029.23 353.789C1030 354.258 1030.59 354.918 1030.98 355.77C1031.37 356.613 1031.56 357.609 1031.56 358.758V360.199H1023.34L1023.3 360.258C1023.32 361.07 1023.46 361.793 1023.72 362.426C1024 363.051 1024.39 363.543 1024.89 363.902C1025.4 364.262 1026.01 364.441 1026.72 364.441C1027.5 364.441 1028.19 364.332 1028.77 364.113C1029.37 363.887 1029.88 363.578 1030.31 363.188L1031.21 364.688C1030.76 365.125 1030.16 365.496 1029.41 365.801C1028.66 366.098 1027.77 366.246 1026.72 366.246ZM1023.41 358.395H1029.25V358.09C1029.25 357.48 1029.14 356.938 1028.93 356.461C1028.71 355.977 1028.39 355.598 1027.96 355.324C1027.54 355.043 1027.01 354.902 1026.37 354.902C1025.86 354.902 1025.39 355.055 1024.96 355.359C1024.54 355.656 1024.2 356.062 1023.92 356.578C1023.65 357.094 1023.47 357.68 1023.38 358.336L1023.41 358.395ZM1033.37 366V364.523L1035.28 364.195V355.137L1033.37 354.809V353.32H1037.34L1037.5 355.207C1037.93 354.535 1038.45 354.016 1039.09 353.648C1039.73 353.273 1040.45 353.086 1041.27 353.086C1042.63 353.086 1043.69 353.488 1044.44 354.293C1045.19 355.09 1045.57 356.324 1045.57 357.996V364.195L1047.48 364.523V366H1041.35V364.523L1043.26 364.195V358.043C1043.26 356.926 1043.04 356.133 1042.59 355.664C1042.15 355.195 1041.48 354.961 1040.57 354.961C1039.91 354.961 1039.32 355.121 1038.8 355.441C1038.3 355.762 1037.89 356.199 1037.59 356.754V364.195L1039.5 364.523V366H1033.37ZM1053.12 366.199C1052.19 366.199 1051.44 365.926 1050.89 365.379C1050.34 364.824 1050.07 363.941 1050.07 362.73V355.031H1048.06V353.32H1050.07V350.262H1052.38V353.32H1055.13V355.031H1052.38V362.73C1052.38 363.34 1052.5 363.789 1052.74 364.078C1052.98 364.367 1053.3 364.512 1053.71 364.512C1053.98 364.512 1054.29 364.488 1054.62 364.441C1054.96 364.387 1055.22 364.34 1055.41 364.301L1055.73 365.812C1055.39 365.914 1054.98 366.004 1054.48 366.082C1054 366.16 1053.55 366.199 1053.12 366.199ZM1068.76 366.246C1067.38 366.246 1066.31 365.805 1065.54 364.922C1064.76 364.039 1064.38 362.664 1064.38 360.797V355.137L1062.92 354.809V353.32H1064.38H1066.68V360.82C1066.68 362.172 1066.88 363.102 1067.28 363.609C1067.68 364.117 1068.3 364.371 1069.14 364.371C1069.96 364.371 1070.64 364.207 1071.17 363.879C1071.71 363.543 1072.12 363.07 1072.39 362.461V355.137L1070.69 354.809V353.32H1072.39H1074.7V364.195L1076.15 364.523V366H1072.62L1072.47 364.125C1072.07 364.805 1071.56 365.328 1070.93 365.695C1070.3 366.062 1069.58 366.246 1068.76 366.246ZM1077.78 366V364.523L1079.69 364.195V355.137L1077.78 354.809V353.32H1081.75L1081.92 355.207C1082.34 354.535 1082.87 354.016 1083.5 353.648C1084.14 353.273 1084.87 353.086 1085.68 353.086C1087.05 353.086 1088.11 353.488 1088.86 354.293C1089.61 355.09 1089.98 356.324 1089.98 357.996V364.195L1091.89 364.523V366H1085.76V364.523L1087.67 364.195V358.043C1087.67 356.926 1087.45 356.133 1087 355.664C1086.57 355.195 1085.89 354.961 1084.99 354.961C1084.32 354.961 1083.73 355.121 1083.22 355.441C1082.71 355.762 1082.3 356.199 1082 356.754V364.195L1083.91 364.523V366H1077.78ZM1098.39 366.246C1097.36 366.246 1096.48 365.992 1095.73 365.484C1095 364.969 1094.44 364.254 1094.05 363.34C1093.66 362.426 1093.46 361.359 1093.46 360.141V359.895C1093.46 358.535 1093.66 357.344 1094.05 356.32C1094.44 355.297 1095 354.504 1095.75 353.941C1096.49 353.371 1097.38 353.086 1098.42 353.086C1099.17 353.086 1099.83 353.227 1100.4 353.508C1100.98 353.781 1101.47 354.18 1101.88 354.703V349.535L1099.96 349.207V347.719H1101.88H1104.18V364.195L1106.09 364.523V366H1102.18L1101.99 364.488C1101.58 365.066 1101.07 365.504 1100.47 365.801C1099.88 366.098 1099.18 366.246 1098.39 366.246ZM1098.98 364.371C1099.67 364.371 1100.25 364.215 1100.71 363.902C1101.18 363.59 1101.57 363.148 1101.88 362.578V356.695C1101.58 356.164 1101.19 355.742 1100.71 355.43C1100.24 355.117 1099.67 354.961 1099 354.961C1098.27 354.961 1097.66 355.172 1097.19 355.594C1096.71 356.008 1096.36 356.586 1096.12 357.328C1095.89 358.062 1095.77 358.918 1095.77 359.895V360.141C1095.77 361.414 1096.03 362.438 1096.55 363.211C1097.08 363.984 1097.89 364.371 1098.98 364.371ZM1113.39 366.246C1112.22 366.246 1111.2 365.98 1110.34 365.449C1109.47 364.91 1108.8 364.164 1108.32 363.211C1107.85 362.258 1107.62 361.156 1107.62 359.906V359.391C1107.62 358.188 1107.86 357.113 1108.36 356.168C1108.86 355.215 1109.52 354.465 1110.34 353.918C1111.16 353.363 1112.07 353.086 1113.04 353.086C1114.18 353.086 1115.14 353.32 1115.9 353.789C1116.68 354.258 1117.26 354.918 1117.65 355.77C1118.04 356.613 1118.23 357.609 1118.23 358.758V360.199H1110.01L1109.97 360.258C1109.99 361.07 1110.13 361.793 1110.39 362.426C1110.67 363.051 1111.06 363.543 1111.57 363.902C1112.07 364.262 1112.68 364.441 1113.39 364.441C1114.18 364.441 1114.86 364.332 1115.45 364.113C1116.04 363.887 1116.55 363.578 1116.98 363.188L1117.88 364.688C1117.43 365.125 1116.83 365.496 1116.08 365.801C1115.34 366.098 1114.44 366.246 1113.39 366.246ZM1110.08 358.395H1115.93V358.09C1115.93 357.48 1115.82 356.938 1115.6 356.461C1115.39 355.977 1115.07 355.598 1114.64 355.324C1114.21 355.043 1113.68 354.902 1113.04 354.902C1112.53 354.902 1112.06 355.055 1111.64 355.359C1111.21 355.656 1110.87 356.062 1110.59 356.578C1110.32 357.094 1110.14 357.68 1110.05 358.336L1110.08 358.395ZM1120.02 366V364.523L1121.93 364.195V355.137L1120.02 354.809V353.32H1123.99L1124.19 354.938L1124.21 355.16C1124.57 354.512 1125.01 354.004 1125.54 353.637C1126.07 353.27 1126.67 353.086 1127.35 353.086C1127.59 353.086 1127.84 353.109 1128.09 353.156C1128.35 353.195 1128.53 353.234 1128.64 353.273L1128.34 355.418L1126.73 355.324C1126.12 355.285 1125.61 355.426 1125.2 355.746C1124.78 356.059 1124.46 356.48 1124.23 357.012V364.195L1126.14 364.523V366H1120.02ZM1135.67 370.875V369.387L1137.46 369.059V355.137L1135.55 354.809V353.32H1139.45L1139.66 354.867C1140.08 354.289 1140.59 353.848 1141.19 353.543C1141.8 353.238 1142.5 353.086 1143.3 353.086C1144.35 353.086 1145.24 353.371 1145.98 353.941C1146.73 354.504 1147.29 355.297 1147.68 356.32C1148.07 357.336 1148.27 358.527 1148.27 359.895V360.141C1148.27 361.359 1148.07 362.426 1147.67 363.34C1147.28 364.254 1146.72 364.969 1145.98 365.484C1145.25 365.992 1144.37 366.246 1143.34 366.246C1142.55 366.246 1141.87 366.117 1141.27 365.859C1140.69 365.594 1140.19 365.203 1139.77 364.688V369.059L1141.79 369.387V370.875H1135.67ZM1142.62 364.441C1143.71 364.441 1144.54 364.043 1145.11 363.246C1145.67 362.449 1145.95 361.414 1145.95 360.141V359.895C1145.95 358.926 1145.82 358.074 1145.57 357.34C1145.32 356.598 1144.95 356.016 1144.45 355.594C1143.96 355.172 1143.34 354.961 1142.6 354.961C1141.94 354.961 1141.38 355.109 1140.91 355.406C1140.44 355.703 1140.06 356.109 1139.77 356.625V362.801C1140.06 363.324 1140.44 363.73 1140.9 364.02C1141.37 364.301 1141.94 364.441 1142.62 364.441ZM1156.26 366.246C1155.09 366.246 1154.08 365.973 1153.23 365.426C1152.38 364.871 1151.73 364.109 1151.27 363.141C1150.81 362.164 1150.58 361.051 1150.58 359.801V359.543C1150.58 358.293 1150.81 357.184 1151.27 356.215C1151.73 355.238 1152.38 354.473 1153.23 353.918C1154.08 353.363 1155.08 353.086 1156.24 353.086C1157.41 353.086 1158.42 353.363 1159.26 353.918C1160.11 354.473 1160.77 355.234 1161.23 356.203C1161.69 357.172 1161.92 358.285 1161.92 359.543V359.801C1161.92 361.059 1161.69 362.176 1161.23 363.152C1160.77 364.121 1160.12 364.879 1159.27 365.426C1158.43 365.973 1157.43 366.246 1156.26 366.246ZM1156.26 364.441C1157 364.441 1157.61 364.242 1158.1 363.844C1158.6 363.438 1158.98 362.887 1159.23 362.191C1159.48 361.488 1159.61 360.691 1159.61 359.801V359.543C1159.61 358.652 1159.48 357.859 1159.23 357.164C1158.98 356.461 1158.6 355.91 1158.1 355.512C1157.6 355.105 1156.98 354.902 1156.24 354.902C1155.5 354.902 1154.89 355.105 1154.39 355.512C1153.89 355.91 1153.51 356.461 1153.26 357.164C1153.01 357.859 1152.89 358.652 1152.89 359.543V359.801C1152.89 360.691 1153.01 361.488 1153.26 362.191C1153.51 362.887 1153.89 363.438 1154.39 363.844C1154.89 364.242 1155.52 364.441 1156.26 364.441ZM1163.35 370.875V369.387L1165.14 369.059V355.137L1163.23 354.809V353.32H1167.12L1167.34 354.867C1167.76 354.289 1168.27 353.848 1168.87 353.543C1169.48 353.238 1170.18 353.086 1170.98 353.086C1172.03 353.086 1172.92 353.371 1173.66 353.941C1174.41 354.504 1174.97 355.297 1175.36 356.32C1175.75 357.336 1175.95 358.527 1175.95 359.895V360.141C1175.95 361.359 1175.75 362.426 1175.35 363.34C1174.96 364.254 1174.4 364.969 1173.66 365.484C1172.93 365.992 1172.05 366.246 1171.02 366.246C1170.23 366.246 1169.55 366.117 1168.95 365.859C1168.37 365.594 1167.87 365.203 1167.45 364.688V369.059L1169.47 369.387V370.875H1163.35ZM1170.3 364.441C1171.39 364.441 1172.22 364.043 1172.79 363.246C1173.35 362.449 1173.63 361.414 1173.63 360.141V359.895C1173.63 358.926 1173.5 358.074 1173.25 357.34C1173 356.598 1172.63 356.016 1172.13 355.594C1171.64 355.172 1171.02 354.961 1170.28 354.961C1169.62 354.961 1169.06 355.109 1168.59 355.406C1168.12 355.703 1167.74 356.109 1167.45 356.625V362.801C1167.74 363.324 1168.12 363.73 1168.58 364.02C1169.05 364.301 1169.62 364.441 1170.3 364.441ZM1183.32 366.246C1181.95 366.246 1180.87 365.805 1180.1 364.922C1179.32 364.039 1178.94 362.664 1178.94 360.797V355.137L1177.48 354.809V353.32H1178.94H1181.25V360.82C1181.25 362.172 1181.45 363.102 1181.84 363.609C1182.24 364.117 1182.86 364.371 1183.71 364.371C1184.53 364.371 1185.2 364.207 1185.73 363.879C1186.27 363.543 1186.68 363.07 1186.95 362.461V355.137L1185.25 354.809V353.32H1186.95H1189.26V364.195L1190.71 364.523V366H1187.19L1187.04 364.125C1186.64 364.805 1186.12 365.328 1185.49 365.695C1184.86 366.062 1184.14 366.246 1183.32 366.246ZM1191.99 370.875V369.387L1193.79 369.059V355.137L1191.88 354.809V353.32H1195.77L1195.98 354.867C1196.4 354.289 1196.91 353.848 1197.51 353.543C1198.12 353.238 1198.82 353.086 1199.62 353.086C1200.67 353.086 1201.56 353.371 1202.3 353.941C1203.05 354.504 1203.61 355.297 1204 356.32C1204.39 357.336 1204.59 358.527 1204.59 359.895V360.141C1204.59 361.359 1204.39 362.426 1203.99 363.34C1203.6 364.254 1203.04 364.969 1202.3 365.484C1201.57 365.992 1200.69 366.246 1199.66 366.246C1198.88 366.246 1198.19 366.117 1197.59 365.859C1197.01 365.594 1196.51 365.203 1196.09 364.688V369.059L1198.11 369.387V370.875H1191.99ZM1198.94 364.441C1200.04 364.441 1200.86 364.043 1201.43 363.246C1201.99 362.449 1202.27 361.414 1202.27 360.141V359.895C1202.27 358.926 1202.14 358.074 1201.89 357.34C1201.64 356.598 1201.27 356.016 1200.77 355.594C1200.28 355.172 1199.66 354.961 1198.92 354.961C1198.26 354.961 1197.7 355.109 1197.23 355.406C1196.76 355.703 1196.38 356.109 1196.09 356.625V362.801C1196.38 363.324 1196.76 363.73 1197.22 364.02C1197.69 364.301 1198.26 364.441 1198.94 364.441Z" fill="black" fill-opacity="0.36"/>
<rect width="1280" height="64" fill="#C4C4C4"/>
<path d="M18.75 41.5H47.25V38.3333H18.75V41.5ZM18.75 33.5833H47.25V30.4167H18.75V33.5833ZM18.75 22.5V25.6667H47.25V22.5H18.75Z" fill="black"/>
<path d="M1247 16.1666C1238.26 16.1666 1231.17 23.26 1231.17 32C1231.17 40.74 1238.26 47.8333 1247 47.8333C1255.74 47.8333 1262.83 40.74 1262.83 32C1262.83 23.26 1255.74 16.1666 1247 16.1666ZM1239.19 41.9433C1239.88 40.5183 1244.02 39.125 1247 39.125C1249.98 39.125 1254.14 40.5183 1254.81 41.9433C1252.65 43.6533 1249.95 44.6666 1247 44.6666C1244.06 44.6666 1241.35 43.6533 1239.19 41.9433ZM1257.07 39.6475C1254.81 36.8925 1249.31 35.9583 1247 35.9583C1244.69 35.9583 1239.19 36.8925 1236.93 39.6475C1235.32 37.5258 1234.33 34.8816 1234.33 32C1234.33 25.0175 1240.02 19.3333 1247 19.3333C1253.98 19.3333 1259.67 25.0175 1259.67 32C1259.67 34.8816 1258.69 37.5258 1257.07 39.6475ZM1247 22.5C1243.93 22.5 1241.46 24.97 1241.46 28.0416C1241.46 31.1133 1243.93 33.5833 1247 33.5833C1250.07 33.5833 1252.54 31.1133 1252.54 28.0416C1252.54 24.97 1250.07 22.5 1247 22.5ZM1247 30.4166C1245.69 30.4166 1244.63 29.3558 1244.63 28.0416C1244.63 26.7275 1245.69 25.6666 1247 25.6666C1248.31 25.6666 1249.38 26.7275 1249.38 28.0416C1249.38 29.3558 1248.31 30.4166 1247 30.4166Z" fill="black"/>
<defs>
<filter id="filter0_d_8_83" x="538" y="513" width="204" height="66" filterUnits="userSpaceOnUse" color-interpolation-filters="sRGB">
<feFlood flood-opacity="0" result="BackgroundImageFix"/>
<feColorMatrix in="SourceAlpha" type="matrix" values="0 0 0 0 0 0 0 0 0 0 0 0 0 0 0 0 0 0 127 0" result="hardAlpha"/>
<feOffset dy="4"/>
<feGaussianBlur stdDeviation="2"/>
<feComposite in2="hardAlpha" operator="out"/>
<feColorMatrix type="matrix" values="0 0 0 0 0 0 0 0 0 0 0 0 0 0 0 0 0 0 0.25 0"/>
<feBlend mode="normal" in2="BackgroundImageFix" result="effect1_dropShadow_8_83"/>
<feBlend mode="normal" in="SourceGraphic" in2="effect1_dropShadow_8_83" result="shape"/>
</filter>
</defs>
</svg>
