<svg width="1280" height="720" viewBox="0 0 1280 720" fill="none" xmlns="http://www.w3.org/2000/svg">
<rect width="1280" height="720" fill="white"/>
<rect width="1280" height="64" fill="#C4C4C4"/>
<path d="M1247 16.1666C1238.26 16.1666 1231.17 23.26 1231.17 32C1231.17 40.74 1238.26 47.8333 1247 47.8333C1255.74 47.8333 1262.83 40.74 1262.83 32C1262.83 23.26 1255.74 16.1666 1247 16.1666ZM1239.19 41.9433C1239.88 40.5183 1244.02 39.125 1247 39.125C1249.98 39.125 1254.14 40.5183 1254.81 41.9433C1252.65 43.6533 1249.95 44.6666 1247 44.6666C1244.06 44.6666 1241.35 43.6533 1239.19 41.9433ZM1257.07 39.6475C1254.81 36.8925 1249.31 35.9583 1247 35.9583C1244.69 35.9583 1239.19 36.8925 1236.93 39.6475C1235.32 37.5258 1234.33 34.8816 1234.33 32C1234.33 25.0175 1240.02 19.3333 1247 19.3333C1253.98 19.3333 1259.67 25.0175 1259.67 32C1259.67 34.8816 1258.69 37.5258 1257.07 39.6475ZM1247 22.5C1243.93 22.5 1241.46 24.97 1241.46 28.0416C1241.46 31.1133 1243.93 33.5833 1247 33.5833C1250.07 33.5833 1252.54 31.1133 1252.54 28.0416C1252.54 24.97 1250.07 22.5 1247 22.5ZM1247 30.4166C1245.69 30.4166 1244.63 29.3558 1244.63 28.0416C1244.63 26.7275 1245.69 25.6666 1247 25.6666C1248.31 25.6666 1249.38 26.7275 1249.38 28.0416C1249.38 29.3558 1248.31 30.4166 1247 30.4166Z" fill="black"/>
<path d="M18.75 41.5H47.25V38.3333H18.75V41.5ZM18.75 33.5833H47.25V30.4167H18.75V33.5833ZM18.75 22.5V25.6667H47.25V22.5H18.75Z" fill="black"/>
<path d="M501.687 195.738C496.601 195.738 492.265 194.684 488.679 192.574C485.093 190.465 482.339 187.535 480.417 183.785C478.519 180.035 477.569 175.688 477.569 170.742V168.984C477.569 163.875 478.519 159.375 480.417 155.484C482.315 151.594 484.999 148.559 488.468 146.379C491.96 144.176 496.085 143.074 500.843 143.074C504.522 143.074 507.979 143.578 511.214 144.586C514.448 145.594 517.261 147.105 519.651 149.121V160.477H512.058L510.616 153.621C509.702 152.824 508.472 152.191 506.925 151.723C505.378 151.23 503.608 150.984 501.616 150.984C498.757 150.984 496.284 151.746 494.198 153.27C492.136 154.77 490.554 156.867 489.452 159.562C488.351 162.234 487.8 165.352 487.8 168.914V170.742C487.8 174.211 488.339 177.234 489.417 179.812C490.519 182.367 492.124 184.348 494.233 185.754C496.343 187.16 498.933 187.863 502.003 187.863C503.808 187.863 505.46 187.699 506.96 187.371C508.483 187.02 509.737 186.598 510.722 186.105V177.422L503.409 176.859V169.652H521.022V190.359C518.749 191.977 516.007 193.277 512.796 194.262C509.608 195.246 505.905 195.738 501.687 195.738ZM576.411 195V188.848L581.896 187.793V177.457L566.708 150.703L561.786 150V143.812H582.212V150L578.028 150.598L586.536 166.945L587.31 168.598L587.521 168.562L588.294 167.016L597.751 150.598L592.126 150V143.812H612.165V150L607.103 150.703L592.126 176.648V187.793L597.61 188.848V195H576.411ZM682.653 195V188.848L688.103 187.793V151.055L682.653 150V143.812H688.103H703.29L717.247 179.496H717.458L730.958 143.812H751.63V150L746.146 151.055V187.793L751.63 188.848V195H730.431V188.848L736.161 187.793V177.984L736.337 154.887L736.126 154.852L720.833 194.297H713.063L697.419 155.168L697.208 155.203L697.806 176.93V187.793L703.853 188.848V195H682.653Z" fill="black"/>
<path d="M534.435 195.369C532.618 195.369 531.03 194.971 529.671 194.174C528.312 193.365 527.257 192.258 526.507 190.852C525.769 189.445 525.399 187.84 525.399 186.035V185.332C525.399 183.445 525.751 181.775 526.454 180.322C527.157 178.857 528.147 177.709 529.425 176.877C530.714 176.033 532.231 175.617 533.978 175.629C535.7 175.629 537.147 175.969 538.319 176.648C539.491 177.328 540.382 178.307 540.991 179.584C541.601 180.861 541.905 182.408 541.905 184.225V187.02H530.726L530.69 187.125C530.761 187.957 530.966 188.701 531.306 189.357C531.657 190.002 532.149 190.512 532.782 190.887C533.415 191.25 534.183 191.432 535.085 191.432C536.022 191.432 536.896 191.314 537.704 191.08C538.524 190.834 539.321 190.477 540.095 190.008L541.483 193.172C540.698 193.805 539.708 194.332 538.513 194.754C537.329 195.164 535.97 195.369 534.435 195.369ZM530.761 183.627H537.106V183.17C537.106 182.396 537.001 181.734 536.79 181.184C536.591 180.621 536.263 180.188 535.806 179.883C535.36 179.578 534.78 179.426 534.065 179.426C533.386 179.426 532.812 179.607 532.343 179.971C531.874 180.322 531.505 180.809 531.235 181.43C530.978 182.051 530.802 182.754 530.708 183.539L530.761 183.627ZM551.749 195.369C549.979 195.369 548.614 194.883 547.653 193.91C546.704 192.938 546.229 191.396 546.229 189.287V179.584H543.61V175.98H546.229V171.322H551.345V175.98H554.843V179.584H551.345V189.27C551.345 190.008 551.497 190.535 551.802 190.852C552.118 191.168 552.546 191.326 553.085 191.326C553.378 191.326 553.683 191.309 553.999 191.273C554.327 191.227 554.608 191.18 554.843 191.133L555.282 194.842C554.755 194.994 554.181 195.117 553.56 195.211C552.95 195.316 552.347 195.369 551.749 195.369ZM623.714 195.369C621.839 195.369 620.228 194.959 618.88 194.139C617.532 193.318 616.501 192.182 615.786 190.729C615.071 189.264 614.714 187.582 614.714 185.684V185.314C614.714 183.428 615.071 181.758 615.786 180.305C616.501 178.84 617.526 177.697 618.862 176.877C620.21 176.045 621.815 175.629 623.679 175.629C625.565 175.629 627.177 176.045 628.513 176.877C629.849 177.697 630.874 178.834 631.589 180.287C632.304 181.74 632.661 183.416 632.661 185.314V185.684C632.661 187.582 632.304 189.264 631.589 190.729C630.874 192.182 629.849 193.318 628.513 194.139C627.177 194.959 625.577 195.369 623.714 195.369ZM623.714 191.432C624.604 191.432 625.331 191.191 625.894 190.711C626.456 190.23 626.872 189.562 627.142 188.707C627.411 187.84 627.546 186.832 627.546 185.684V185.314C627.546 184.189 627.411 183.199 627.142 182.344C626.872 181.477 626.45 180.803 625.876 180.322C625.313 179.83 624.581 179.584 623.679 179.584C622.8 179.584 622.073 179.83 621.499 180.322C620.925 180.803 620.503 181.477 620.233 182.344C619.976 183.199 619.847 184.189 619.847 185.314V185.684C619.847 186.832 619.976 187.84 620.233 188.707C620.503 189.574 620.925 190.248 621.499 190.729C622.073 191.197 622.812 191.432 623.714 191.432ZM643.032 195.369C641.028 195.369 639.452 194.736 638.304 193.471C637.167 192.193 636.599 190.213 636.599 187.529V179.602L634.507 179.074V175.98H636.599H641.731V187.564C641.731 188.924 641.966 189.902 642.435 190.5C642.915 191.086 643.636 191.379 644.597 191.379C645.358 191.379 646.032 191.232 646.618 190.939C647.204 190.635 647.685 190.207 648.06 189.656V179.602L645.792 179.074V175.98H648.06H653.192V191.396L655.478 191.924V195H648.692L648.341 192.592C647.743 193.482 646.993 194.168 646.091 194.648C645.188 195.129 644.169 195.369 643.032 195.369ZM657.78 195V191.924L660.241 191.396V179.602L657.517 179.074V175.98H665.022L665.216 178.336L665.251 178.758C665.72 177.727 666.3 176.947 666.991 176.42C667.683 175.893 668.509 175.629 669.47 175.629C669.774 175.629 670.108 175.658 670.472 175.717C670.835 175.764 671.157 175.828 671.438 175.91L670.894 180.639L668.345 180.498C667.618 180.463 667.026 180.586 666.569 180.867C666.124 181.148 665.726 181.553 665.374 182.08V191.396L667.835 191.924V195H657.78ZM763.53 195.369C761.714 195.369 760.126 194.971 758.767 194.174C757.407 193.365 756.353 192.258 755.603 190.852C754.864 189.445 754.495 187.84 754.495 186.035V185.332C754.495 183.445 754.847 181.775 755.55 180.322C756.253 178.857 757.243 177.709 758.521 176.877C759.81 176.033 761.327 175.617 763.073 175.629C764.796 175.629 766.243 175.969 767.415 176.648C768.587 177.328 769.478 178.307 770.087 179.584C770.696 180.861 771.001 182.408 771.001 184.225V187.02H759.821L759.786 187.125C759.856 187.957 760.062 188.701 760.401 189.357C760.753 190.002 761.245 190.512 761.878 190.887C762.511 191.25 763.278 191.432 764.181 191.432C765.118 191.432 765.991 191.314 766.8 191.08C767.62 190.834 768.417 190.477 769.19 190.008L770.579 193.172C769.794 193.805 768.804 194.332 767.608 194.754C766.425 195.164 765.065 195.369 763.53 195.369ZM759.856 183.627H766.202V183.17C766.202 182.396 766.097 181.734 765.886 181.184C765.687 180.621 765.358 180.188 764.901 179.883C764.456 179.578 763.876 179.426 763.161 179.426C762.481 179.426 761.907 179.607 761.438 179.971C760.97 180.322 760.601 180.809 760.331 181.43C760.073 182.051 759.897 182.754 759.804 183.539L759.856 183.627ZM779.772 195.369C777.886 195.369 776.386 194.865 775.272 193.857C774.159 192.838 773.603 191.455 773.603 189.709C773.603 188.514 773.925 187.465 774.569 186.562C775.226 185.66 776.187 184.951 777.452 184.436C778.729 183.92 780.3 183.662 782.163 183.662H784.677V182.256C784.677 181.342 784.407 180.604 783.868 180.041C783.341 179.467 782.544 179.18 781.478 179.18C780.927 179.18 780.435 179.25 780.001 179.391C779.567 179.52 779.169 179.707 778.806 179.953L778.401 182.467H774.71L774.64 177.527C775.636 176.965 776.714 176.508 777.874 176.156C779.034 175.805 780.329 175.629 781.759 175.629C784.243 175.629 786.206 176.209 787.647 177.369C789.089 178.518 789.81 180.164 789.81 182.309V190.148C789.81 190.406 789.81 190.664 789.81 190.922C789.821 191.168 789.845 191.408 789.88 191.643L791.866 191.924V195H785.503C785.374 194.672 785.245 194.32 785.116 193.945C784.987 193.57 784.894 193.195 784.835 192.82C784.226 193.594 783.505 194.215 782.673 194.684C781.853 195.141 780.886 195.369 779.772 195.369ZM781.144 191.572C781.858 191.572 782.538 191.414 783.183 191.098C783.827 190.77 784.325 190.342 784.677 189.814V186.809H782.146C781.021 186.809 780.165 187.066 779.579 187.582C779.005 188.098 778.718 188.719 778.718 189.445C778.718 190.125 778.929 190.652 779.351 191.027C779.784 191.391 780.382 191.572 781.144 191.572ZM793.413 195V191.924L795.892 191.396V171.199L793.149 170.672V167.578H801.024V191.396L803.503 191.924V195H793.413Z" fill="black" fill-opacity="0.44"/>
<g filter="url(#filter0_d_1_36)">
<rect x="190" y="270" width="900" height="64" rx="8" fill="white"/>
</g>
<path d="M1053.12 305.5H1051.74L1051.25 305.027C1052.97 303.032 1054 300.442 1054 297.625C1054 291.342 1048.91 286.25 1042.62 286.25C1036.34 286.25 1031.25 291.342 1031.25 297.625C1031.25 303.907 1036.34 309 1042.62 309C1045.44 309 1048.03 307.967 1050.03 306.252L1050.5 306.742V308.125L1059.25 316.857L1061.86 314.25L1053.12 305.5ZM1042.62 305.5C1038.27 305.5 1034.75 301.982 1034.75 297.625C1034.75 293.267 1038.27 289.75 1042.62 289.75C1046.98 289.75 1050.5 293.267 1050.5 297.625C1050.5 301.982 1046.98 305.5 1042.62 305.5Z" fill="black"/>
<path d="M563.641 311V309.523L565.551 309.195V295.754L563.641 295.426V293.938H565.551H568.633L574.129 306.887H574.199L579.52 293.938H584.664V295.426L582.754 295.754V309.195L584.664 309.523V311H578.535V309.523L580.551 309.195V304.25V297.09L580.492 297.078L574.949 310.391H573.414L567.684 297.102L567.625 297.113L567.707 304.25V309.195L569.77 309.523V311H563.641ZM592.363 311.246C591.215 311.246 590.215 310.98 589.363 310.449C588.512 309.91 587.852 309.164 587.383 308.211C586.914 307.258 586.68 306.156 586.68 304.906V304.414C586.68 303.211 586.906 302.133 587.359 301.18C587.812 300.227 588.465 299.473 589.316 298.918C590.168 298.363 591.184 298.086 592.363 298.086C593.387 298.086 594.281 298.254 595.047 298.59C595.82 298.926 596.469 299.387 596.992 299.973L597.051 303.02H595.246L594.848 300.805C594.582 300.531 594.25 300.312 593.852 300.148C593.453 299.984 592.984 299.902 592.445 299.902C591.758 299.902 591.152 300.105 590.629 300.512C590.113 300.918 589.711 301.461 589.422 302.141C589.133 302.82 588.988 303.578 588.988 304.414V304.906C588.988 305.828 589.121 306.629 589.387 307.309C589.66 307.988 590.047 308.516 590.547 308.891C591.055 309.258 591.656 309.441 592.352 309.441C593.133 309.441 593.781 309.227 594.297 308.797C594.812 308.367 595.129 307.777 595.246 307.027H597.32L597.344 307.098C597.305 307.824 597.09 308.504 596.699 309.137C596.309 309.77 595.75 310.281 595.023 310.672C594.305 311.055 593.418 311.246 592.363 311.246ZM599.23 311V309.523L601.141 309.195V295.754L599.23 295.426V293.938H601.141H605.91C607.418 293.938 608.73 294.297 609.848 295.016C610.973 295.734 611.848 296.723 612.473 297.98C613.098 299.238 613.41 300.676 613.41 302.293V302.656C613.41 304.234 613.109 305.656 612.508 306.922C611.906 308.18 611.051 309.176 609.941 309.91C608.84 310.637 607.535 311 606.027 311H599.23ZM603.449 309.195H605.91C606.988 309.195 607.914 308.902 608.688 308.316C609.461 307.723 610.055 306.934 610.469 305.949C610.891 304.957 611.102 303.859 611.102 302.656V302.27C611.102 301.027 610.891 299.918 610.469 298.941C610.055 297.957 609.461 297.18 608.688 296.609C607.914 296.039 606.988 295.754 605.91 295.754H603.449V309.195ZM620.77 311.246C619.598 311.246 618.586 310.973 617.734 310.426C616.891 309.871 616.238 309.109 615.777 308.141C615.316 307.164 615.086 306.051 615.086 304.801V304.543C615.086 303.293 615.316 302.184 615.777 301.215C616.238 300.238 616.891 299.473 617.734 298.918C618.586 298.363 619.59 298.086 620.746 298.086C621.918 298.086 622.926 298.363 623.77 298.918C624.621 299.473 625.277 300.234 625.738 301.203C626.199 302.172 626.43 303.285 626.43 304.543V304.801C626.43 306.059 626.199 307.176 625.738 308.152C625.277 309.121 624.625 309.879 623.781 310.426C622.938 310.973 621.934 311.246 620.77 311.246ZM620.77 309.441C621.504 309.441 622.117 309.242 622.609 308.844C623.109 308.438 623.484 307.887 623.734 307.191C623.992 306.488 624.121 305.691 624.121 304.801V304.543C624.121 303.652 623.992 302.859 623.734 302.164C623.484 301.461 623.109 300.91 622.609 300.512C622.109 300.105 621.488 299.902 620.746 299.902C620.012 299.902 619.395 300.105 618.895 300.512C618.395 300.91 618.02 301.461 617.77 302.164C617.52 302.859 617.395 303.652 617.395 304.543V304.801C617.395 305.691 617.52 306.488 617.77 307.191C618.02 307.887 618.395 308.438 618.895 308.844C619.402 309.242 620.027 309.441 620.77 309.441ZM628.211 311V309.523L630.121 309.195V300.137L628.211 299.809V298.32H632.184L632.348 300.207C632.77 299.535 633.297 299.016 633.93 298.648C634.57 298.273 635.297 298.086 636.109 298.086C637.477 298.086 638.535 298.488 639.285 299.293C640.035 300.09 640.41 301.324 640.41 302.996V309.195L642.32 309.523V311H636.191V309.523L638.102 309.195V303.043C638.102 301.926 637.879 301.133 637.434 300.664C636.996 300.195 636.324 299.961 635.418 299.961C634.754 299.961 634.164 300.121 633.648 300.441C633.141 300.762 632.734 301.199 632.43 301.754V309.195L634.34 309.523V311H628.211ZM648.062 311.246C646.742 311.246 645.738 310.926 645.051 310.285C644.363 309.637 644.02 308.727 644.02 307.555C644.02 306.75 644.238 306.051 644.676 305.457C645.121 304.855 645.762 304.391 646.598 304.062C647.434 303.727 648.434 303.559 649.598 303.559H651.859V302.316C651.859 301.551 651.625 300.957 651.156 300.535C650.695 300.113 650.043 299.902 649.199 299.902C648.668 299.902 648.207 299.969 647.816 300.102C647.426 300.227 647.07 300.402 646.75 300.629L646.504 302.398H644.723V299.492C645.293 299.031 645.957 298.684 646.715 298.449C647.473 298.207 648.312 298.086 649.234 298.086C650.773 298.086 651.98 298.453 652.855 299.188C653.73 299.922 654.168 300.973 654.168 302.34V308.445C654.168 308.609 654.168 308.77 654.168 308.926C654.176 309.082 654.188 309.238 654.203 309.395L655.434 309.523V311H652.117C652.047 310.656 651.992 310.348 651.953 310.074C651.914 309.801 651.887 309.527 651.871 309.254C651.426 309.824 650.867 310.301 650.195 310.684C649.531 311.059 648.82 311.246 648.062 311.246ZM648.402 309.312C649.168 309.312 649.867 309.129 650.5 308.762C651.133 308.395 651.586 307.953 651.859 307.438V305.141H649.516C648.453 305.141 647.656 305.395 647.125 305.902C646.594 306.41 646.328 306.977 646.328 307.602C646.328 308.156 646.5 308.582 646.844 308.879C647.188 309.168 647.707 309.312 648.402 309.312ZM657.109 311V309.523L659.02 309.195V294.535L657.109 294.207V292.719H661.328V309.195L663.238 309.523V311H657.109ZM669.754 311.246C668.723 311.246 667.836 310.992 667.094 310.484C666.359 309.969 665.797 309.254 665.406 308.34C665.016 307.426 664.82 306.359 664.82 305.141V304.895C664.82 303.535 665.016 302.344 665.406 301.32C665.797 300.297 666.363 299.504 667.105 298.941C667.848 298.371 668.738 298.086 669.777 298.086C670.527 298.086 671.188 298.227 671.758 298.508C672.336 298.781 672.828 299.18 673.234 299.703V294.535L671.324 294.207V292.719H673.234H675.543V309.195L677.453 309.523V311H673.539L673.352 309.488C672.938 310.066 672.43 310.504 671.828 310.801C671.234 311.098 670.543 311.246 669.754 311.246ZM670.34 309.371C671.027 309.371 671.605 309.215 672.074 308.902C672.543 308.59 672.93 308.148 673.234 307.578V301.695C672.938 301.164 672.551 300.742 672.074 300.43C671.598 300.117 671.027 299.961 670.363 299.961C669.629 299.961 669.023 300.172 668.547 300.594C668.07 301.008 667.715 301.586 667.48 302.328C667.246 303.062 667.129 303.918 667.129 304.895V305.141C667.129 306.414 667.391 307.438 667.914 308.211C668.438 308.984 669.246 309.371 670.34 309.371ZM680.02 299.363L678.707 298.496C679.074 297.941 679.352 297.375 679.539 296.797C679.727 296.211 679.82 295.582 679.82 294.91V292.719H682.129V294.875C682.129 295.398 682.043 295.938 681.871 296.492C681.699 297.047 681.453 297.574 681.133 298.074C680.82 298.574 680.449 299.004 680.02 299.363ZM688.141 311.246C687.289 311.246 686.492 311.16 685.75 310.988C685.008 310.816 684.219 310.551 683.383 310.191L683.359 307.18H685.105L685.539 308.996C685.977 309.176 686.398 309.309 686.805 309.395C687.219 309.473 687.664 309.512 688.141 309.512C689.078 309.512 689.75 309.332 690.156 308.973C690.562 308.613 690.766 308.168 690.766 307.637C690.766 307.137 690.559 306.715 690.145 306.371C689.738 306.02 688.996 305.723 687.918 305.48C686.387 305.129 685.258 304.66 684.531 304.074C683.812 303.48 683.453 302.691 683.453 301.707C683.453 301.02 683.652 300.406 684.051 299.867C684.449 299.32 685.004 298.887 685.715 298.566C686.426 298.246 687.254 298.086 688.199 298.086C689.16 298.086 689.98 298.195 690.66 298.414C691.348 298.633 691.945 298.926 692.453 299.293L692.57 302.188H690.836L690.461 300.5C690.188 300.297 689.863 300.141 689.488 300.031C689.113 299.922 688.684 299.867 688.199 299.867C687.48 299.867 686.895 300.035 686.441 300.371C685.996 300.707 685.773 301.129 685.773 301.637C685.773 301.934 685.836 302.191 685.961 302.41C686.094 302.629 686.344 302.828 686.711 303.008C687.078 303.18 687.617 303.352 688.328 303.523C690.094 303.938 691.324 304.465 692.02 305.105C692.723 305.746 693.074 306.535 693.074 307.473C693.074 308.543 692.676 309.441 691.879 310.168C691.09 310.887 689.844 311.246 688.141 311.246ZM701.793 311V308.633H704.102V311H701.793ZM707.582 311V308.633H709.891V311H707.582ZM713.371 311V308.633H715.68V311H713.371Z" fill="black" fill-opacity="0.24"/>
<g filter="url(#filter1_i_1_36)">
<rect x="197" y="278" width="100" height="48" rx="8" fill="white"/>
</g>
<rect x="190" y="404" width="440" height="272" rx="8" fill="#C4C4C4"/>
<rect x="650" y="404" width="440" height="272" rx="8" fill="#C4C4C4"/>
<path d="M341.395 549V547.523L343.305 547.195V533.754L341.395 533.426V531.949H349C350.242 531.949 351.289 532.137 352.141 532.512C353 532.879 353.652 533.414 354.098 534.117C354.543 534.82 354.766 535.68 354.766 536.695C354.766 537.695 354.547 538.535 354.109 539.215C353.68 539.895 353.066 540.41 352.27 540.762C351.473 541.105 350.527 541.289 349.434 541.312L345.613 541.383V547.195L347.523 547.523V549H341.395ZM352.656 549L348.859 540.48L351.168 540.457L354.32 547.277L355.504 547.488V549H352.656ZM345.613 539.566H348.766C350.055 539.566 350.992 539.32 351.578 538.828C352.164 538.336 352.457 537.617 352.457 536.672C352.457 535.773 352.176 535.062 351.613 534.539C351.051 534.016 350.18 533.754 349 533.754H345.613V539.566ZM363.332 549.246C362.16 549.246 361.141 548.98 360.273 548.449C359.406 547.91 358.734 547.164 358.258 546.211C357.789 545.258 357.555 544.156 357.555 542.906V542.391C357.555 541.188 357.801 540.113 358.293 539.168C358.793 538.215 359.453 537.465 360.273 536.918C361.102 536.363 362.004 536.086 362.98 536.086C364.121 536.086 365.074 536.32 365.84 536.789C366.613 537.258 367.195 537.918 367.586 538.77C367.977 539.613 368.172 540.609 368.172 541.758V543.199H359.945L359.91 543.258C359.926 544.07 360.066 544.793 360.332 545.426C360.605 546.051 360.996 546.543 361.504 546.902C362.012 547.262 362.621 547.441 363.332 547.441C364.113 547.441 364.797 547.332 365.383 547.113C365.977 546.887 366.488 546.578 366.918 546.188L367.82 547.688C367.367 548.125 366.766 548.496 366.016 548.801C365.273 549.098 364.379 549.246 363.332 549.246ZM360.016 541.395H365.863V541.09C365.863 540.48 365.754 539.938 365.535 539.461C365.324 538.977 365.004 538.598 364.574 538.324C364.152 538.043 363.621 537.902 362.98 537.902C362.465 537.902 361.996 538.055 361.574 538.359C361.152 538.656 360.805 539.062 360.531 539.578C360.258 540.094 360.078 540.68 359.992 541.336L360.016 541.395ZM375.18 549.246C374.328 549.246 373.531 549.16 372.789 548.988C372.047 548.816 371.258 548.551 370.422 548.191L370.398 545.18H372.145L372.578 546.996C373.016 547.176 373.438 547.309 373.844 547.395C374.258 547.473 374.703 547.512 375.18 547.512C376.117 547.512 376.789 547.332 377.195 546.973C377.602 546.613 377.805 546.168 377.805 545.637C377.805 545.137 377.598 544.715 377.184 544.371C376.777 544.02 376.035 543.723 374.957 543.48C373.426 543.129 372.297 542.66 371.57 542.074C370.852 541.48 370.492 540.691 370.492 539.707C370.492 539.02 370.691 538.406 371.09 537.867C371.488 537.32 372.043 536.887 372.754 536.566C373.465 536.246 374.293 536.086 375.238 536.086C376.199 536.086 377.02 536.195 377.699 536.414C378.387 536.633 378.984 536.926 379.492 537.293L379.609 540.188H377.875L377.5 538.5C377.227 538.297 376.902 538.141 376.527 538.031C376.152 537.922 375.723 537.867 375.238 537.867C374.52 537.867 373.934 538.035 373.48 538.371C373.035 538.707 372.812 539.129 372.812 539.637C372.812 539.934 372.875 540.191 373 540.41C373.133 540.629 373.383 540.828 373.75 541.008C374.117 541.18 374.656 541.352 375.367 541.523C377.133 541.938 378.363 542.465 379.059 543.105C379.762 543.746 380.113 544.535 380.113 545.473C380.113 546.543 379.715 547.441 378.918 548.168C378.129 548.887 376.883 549.246 375.18 549.246ZM386.5 549.199C385.562 549.199 384.816 548.926 384.262 548.379C383.715 547.824 383.441 546.941 383.441 545.73V538.031H381.438V536.32H383.441V533.262H385.75V536.32H388.504V538.031H385.75V545.73C385.75 546.34 385.871 546.789 386.113 547.078C386.355 547.367 386.68 547.512 387.086 547.512C387.359 547.512 387.664 547.488 388 547.441C388.336 547.387 388.598 547.34 388.785 547.301L389.102 548.812C388.766 548.914 388.352 549.004 387.859 549.082C387.375 549.16 386.922 549.199 386.5 549.199ZM394.68 549.246C393.359 549.246 392.355 548.926 391.668 548.285C390.98 547.637 390.637 546.727 390.637 545.555C390.637 544.75 390.855 544.051 391.293 543.457C391.738 542.855 392.379 542.391 393.215 542.062C394.051 541.727 395.051 541.559 396.215 541.559H398.477V540.316C398.477 539.551 398.242 538.957 397.773 538.535C397.312 538.113 396.66 537.902 395.816 537.902C395.285 537.902 394.824 537.969 394.434 538.102C394.043 538.227 393.688 538.402 393.367 538.629L393.121 540.398H391.34V537.492C391.91 537.031 392.574 536.684 393.332 536.449C394.09 536.207 394.93 536.086 395.852 536.086C397.391 536.086 398.598 536.453 399.473 537.188C400.348 537.922 400.785 538.973 400.785 540.34V546.445C400.785 546.609 400.785 546.77 400.785 546.926C400.793 547.082 400.805 547.238 400.82 547.395L402.051 547.523V549H398.734C398.664 548.656 398.609 548.348 398.57 548.074C398.531 547.801 398.504 547.527 398.488 547.254C398.043 547.824 397.484 548.301 396.812 548.684C396.148 549.059 395.438 549.246 394.68 549.246ZM395.02 547.312C395.785 547.312 396.484 547.129 397.117 546.762C397.75 546.395 398.203 545.953 398.477 545.438V543.141H396.133C395.07 543.141 394.273 543.395 393.742 543.902C393.211 544.41 392.945 544.977 392.945 545.602C392.945 546.156 393.117 546.582 393.461 546.879C393.805 547.168 394.324 547.312 395.02 547.312ZM409.422 549.246C408.047 549.246 406.973 548.805 406.199 547.922C405.426 547.039 405.039 545.664 405.039 543.797V538.137L403.586 537.809V536.32H405.039H407.348V543.82C407.348 545.172 407.547 546.102 407.945 546.609C408.344 547.117 408.965 547.371 409.809 547.371C410.629 547.371 411.305 547.207 411.836 546.879C412.375 546.543 412.781 546.07 413.055 545.461V538.137L411.355 537.809V536.32H413.055H415.363V547.195L416.816 547.523V549H413.289L413.137 547.125C412.738 547.805 412.223 548.328 411.59 548.695C410.965 549.062 410.242 549.246 409.422 549.246ZM418.422 549V547.523L420.332 547.195V538.137L418.422 537.809V536.32H422.395L422.594 537.938L422.617 538.16C422.977 537.512 423.418 537.004 423.941 536.637C424.473 536.27 425.078 536.086 425.758 536.086C426 536.086 426.246 536.109 426.496 536.156C426.754 536.195 426.938 536.234 427.047 536.273L426.742 538.418L425.137 538.324C424.527 538.285 424.016 538.426 423.602 538.746C423.188 539.059 422.867 539.48 422.641 540.012V547.195L424.551 547.523V549H418.422ZM432.555 549.246C431.234 549.246 430.23 548.926 429.543 548.285C428.855 547.637 428.512 546.727 428.512 545.555C428.512 544.75 428.73 544.051 429.168 543.457C429.613 542.855 430.254 542.391 431.09 542.062C431.926 541.727 432.926 541.559 434.09 541.559H436.352V540.316C436.352 539.551 436.117 538.957 435.648 538.535C435.188 538.113 434.535 537.902 433.691 537.902C433.16 537.902 432.699 537.969 432.309 538.102C431.918 538.227 431.562 538.402 431.242 538.629L430.996 540.398H429.215V537.492C429.785 537.031 430.449 536.684 431.207 536.449C431.965 536.207 432.805 536.086 433.727 536.086C435.266 536.086 436.473 536.453 437.348 537.188C438.223 537.922 438.66 538.973 438.66 540.34V546.445C438.66 546.609 438.66 546.77 438.66 546.926C438.668 547.082 438.68 547.238 438.695 547.395L439.926 547.523V549H436.609C436.539 548.656 436.484 548.348 436.445 548.074C436.406 547.801 436.379 547.527 436.363 547.254C435.918 547.824 435.359 548.301 434.688 548.684C434.023 549.059 433.312 549.246 432.555 549.246ZM432.895 547.312C433.66 547.312 434.359 547.129 434.992 546.762C435.625 546.395 436.078 545.953 436.352 545.438V543.141H434.008C432.945 543.141 432.148 543.395 431.617 543.902C431.086 544.41 430.82 544.977 430.82 545.602C430.82 546.156 430.992 546.582 431.336 546.879C431.68 547.168 432.199 547.312 432.895 547.312ZM441.719 549V547.523L443.629 547.195V538.137L441.719 537.809V536.32H445.691L445.855 538.207C446.277 537.535 446.805 537.016 447.438 536.648C448.078 536.273 448.805 536.086 449.617 536.086C450.984 536.086 452.043 536.488 452.793 537.293C453.543 538.09 453.918 539.324 453.918 540.996V547.195L455.828 547.523V549H449.699V547.523L451.609 547.195V541.043C451.609 539.926 451.387 539.133 450.941 538.664C450.504 538.195 449.832 537.961 448.926 537.961C448.262 537.961 447.672 538.121 447.156 538.441C446.648 538.762 446.242 539.199 445.938 539.754V547.195L447.848 547.523V549H441.719ZM461.477 549.199C460.539 549.199 459.793 548.926 459.238 548.379C458.691 547.824 458.418 546.941 458.418 545.73V538.031H456.414V536.32H458.418V533.262H460.727V536.32H463.48V538.031H460.727V545.73C460.727 546.34 460.848 546.789 461.09 547.078C461.332 547.367 461.656 547.512 462.062 547.512C462.336 547.512 462.641 547.488 462.977 547.441C463.312 547.387 463.574 547.34 463.762 547.301L464.078 548.812C463.742 548.914 463.328 549.004 462.836 549.082C462.352 549.16 461.898 549.199 461.477 549.199ZM472.082 549V547.523L474.719 547.195V534.41L472.035 534.457V533.016L477.027 531.938V547.195L479.652 547.523V549H472.082Z" fill="black" fill-opacity="0.5"/>
<path d="M799.207 549V547.523L801.117 547.195V533.754L799.207 533.426V531.949H806.812C808.055 531.949 809.102 532.137 809.953 532.512C810.812 532.879 811.465 533.414 811.91 534.117C812.355 534.82 812.578 535.68 812.578 536.695C812.578 537.695 812.359 538.535 811.922 539.215C811.492 539.895 810.879 540.41 810.082 540.762C809.285 541.105 808.34 541.289 807.246 541.312L803.426 541.383V547.195L805.336 547.523V549H799.207ZM810.469 549L806.672 540.48L808.98 540.457L812.133 547.277L813.316 547.488V549H810.469ZM803.426 539.566H806.578C807.867 539.566 808.805 539.32 809.391 538.828C809.977 538.336 810.27 537.617 810.27 536.672C810.27 535.773 809.988 535.062 809.426 534.539C808.863 534.016 807.992 533.754 806.812 533.754H803.426V539.566ZM821.145 549.246C819.973 549.246 818.953 548.98 818.086 548.449C817.219 547.91 816.547 547.164 816.07 546.211C815.602 545.258 815.367 544.156 815.367 542.906V542.391C815.367 541.188 815.613 540.113 816.105 539.168C816.605 538.215 817.266 537.465 818.086 536.918C818.914 536.363 819.816 536.086 820.793 536.086C821.934 536.086 822.887 536.32 823.652 536.789C824.426 537.258 825.008 537.918 825.398 538.77C825.789 539.613 825.984 540.609 825.984 541.758V543.199H817.758L817.723 543.258C817.738 544.07 817.879 544.793 818.145 545.426C818.418 546.051 818.809 546.543 819.316 546.902C819.824 547.262 820.434 547.441 821.145 547.441C821.926 547.441 822.609 547.332 823.195 547.113C823.789 546.887 824.301 546.578 824.73 546.188L825.633 547.688C825.18 548.125 824.578 548.496 823.828 548.801C823.086 549.098 822.191 549.246 821.145 549.246ZM817.828 541.395H823.676V541.09C823.676 540.48 823.566 539.938 823.348 539.461C823.137 538.977 822.816 538.598 822.387 538.324C821.965 538.043 821.434 537.902 820.793 537.902C820.277 537.902 819.809 538.055 819.387 538.359C818.965 538.656 818.617 539.062 818.344 539.578C818.07 540.094 817.891 540.68 817.805 541.336L817.828 541.395ZM832.992 549.246C832.141 549.246 831.344 549.16 830.602 548.988C829.859 548.816 829.07 548.551 828.234 548.191L828.211 545.18H829.957L830.391 546.996C830.828 547.176 831.25 547.309 831.656 547.395C832.07 547.473 832.516 547.512 832.992 547.512C833.93 547.512 834.602 547.332 835.008 546.973C835.414 546.613 835.617 546.168 835.617 545.637C835.617 545.137 835.41 544.715 834.996 544.371C834.59 544.02 833.848 543.723 832.77 543.48C831.238 543.129 830.109 542.66 829.383 542.074C828.664 541.48 828.305 540.691 828.305 539.707C828.305 539.02 828.504 538.406 828.902 537.867C829.301 537.32 829.855 536.887 830.566 536.566C831.277 536.246 832.105 536.086 833.051 536.086C834.012 536.086 834.832 536.195 835.512 536.414C836.199 536.633 836.797 536.926 837.305 537.293L837.422 540.188H835.688L835.312 538.5C835.039 538.297 834.715 538.141 834.34 538.031C833.965 537.922 833.535 537.867 833.051 537.867C832.332 537.867 831.746 538.035 831.293 538.371C830.848 538.707 830.625 539.129 830.625 539.637C830.625 539.934 830.688 540.191 830.812 540.41C830.945 540.629 831.195 540.828 831.562 541.008C831.93 541.18 832.469 541.352 833.18 541.523C834.945 541.938 836.176 542.465 836.871 543.105C837.574 543.746 837.926 544.535 837.926 545.473C837.926 546.543 837.527 547.441 836.73 548.168C835.941 548.887 834.695 549.246 832.992 549.246ZM844.312 549.199C843.375 549.199 842.629 548.926 842.074 548.379C841.527 547.824 841.254 546.941 841.254 545.73V538.031H839.25V536.32H841.254V533.262H843.562V536.32H846.316V538.031H843.562V545.73C843.562 546.34 843.684 546.789 843.926 547.078C844.168 547.367 844.492 547.512 844.898 547.512C845.172 547.512 845.477 547.488 845.812 547.441C846.148 547.387 846.41 547.34 846.598 547.301L846.914 548.812C846.578 548.914 846.164 549.004 845.672 549.082C845.188 549.16 844.734 549.199 844.312 549.199ZM852.492 549.246C851.172 549.246 850.168 548.926 849.48 548.285C848.793 547.637 848.449 546.727 848.449 545.555C848.449 544.75 848.668 544.051 849.105 543.457C849.551 542.855 850.191 542.391 851.027 542.062C851.863 541.727 852.863 541.559 854.027 541.559H856.289V540.316C856.289 539.551 856.055 538.957 855.586 538.535C855.125 538.113 854.473 537.902 853.629 537.902C853.098 537.902 852.637 537.969 852.246 538.102C851.855 538.227 851.5 538.402 851.18 538.629L850.934 540.398H849.152V537.492C849.723 537.031 850.387 536.684 851.145 536.449C851.902 536.207 852.742 536.086 853.664 536.086C855.203 536.086 856.41 536.453 857.285 537.188C858.16 537.922 858.598 538.973 858.598 540.34V546.445C858.598 546.609 858.598 546.77 858.598 546.926C858.605 547.082 858.617 547.238 858.633 547.395L859.863 547.523V549H856.547C856.477 548.656 856.422 548.348 856.383 548.074C856.344 547.801 856.316 547.527 856.301 547.254C855.855 547.824 855.297 548.301 854.625 548.684C853.961 549.059 853.25 549.246 852.492 549.246ZM852.832 547.312C853.598 547.312 854.297 547.129 854.93 546.762C855.562 546.395 856.016 545.953 856.289 545.438V543.141H853.945C852.883 543.141 852.086 543.395 851.555 543.902C851.023 544.41 850.758 544.977 850.758 545.602C850.758 546.156 850.93 546.582 851.273 546.879C851.617 547.168 852.137 547.312 852.832 547.312ZM867.234 549.246C865.859 549.246 864.785 548.805 864.012 547.922C863.238 547.039 862.852 545.664 862.852 543.797V538.137L861.398 537.809V536.32H862.852H865.16V543.82C865.16 545.172 865.359 546.102 865.758 546.609C866.156 547.117 866.777 547.371 867.621 547.371C868.441 547.371 869.117 547.207 869.648 546.879C870.188 546.543 870.594 546.07 870.867 545.461V538.137L869.168 537.809V536.32H870.867H873.176V547.195L874.629 547.523V549H871.102L870.949 547.125C870.551 547.805 870.035 548.328 869.402 548.695C868.777 549.062 868.055 549.246 867.234 549.246ZM876.234 549V547.523L878.145 547.195V538.137L876.234 537.809V536.32H880.207L880.406 537.938L880.43 538.16C880.789 537.512 881.23 537.004 881.754 536.637C882.285 536.27 882.891 536.086 883.57 536.086C883.812 536.086 884.059 536.109 884.309 536.156C884.566 536.195 884.75 536.234 884.859 536.273L884.555 538.418L882.949 538.324C882.34 538.285 881.828 538.426 881.414 538.746C881 539.059 880.68 539.48 880.453 540.012V547.195L882.363 547.523V549H876.234ZM890.367 549.246C889.047 549.246 888.043 548.926 887.355 548.285C886.668 547.637 886.324 546.727 886.324 545.555C886.324 544.75 886.543 544.051 886.98 543.457C887.426 542.855 888.066 542.391 888.902 542.062C889.738 541.727 890.738 541.559 891.902 541.559H894.164V540.316C894.164 539.551 893.93 538.957 893.461 538.535C893 538.113 892.348 537.902 891.504 537.902C890.973 537.902 890.512 537.969 890.121 538.102C889.73 538.227 889.375 538.402 889.055 538.629L888.809 540.398H887.027V537.492C887.598 537.031 888.262 536.684 889.02 536.449C889.777 536.207 890.617 536.086 891.539 536.086C893.078 536.086 894.285 536.453 895.16 537.188C896.035 537.922 896.473 538.973 896.473 540.34V546.445C896.473 546.609 896.473 546.77 896.473 546.926C896.48 547.082 896.492 547.238 896.508 547.395L897.738 547.523V549H894.422C894.352 548.656 894.297 548.348 894.258 548.074C894.219 547.801 894.191 547.527 894.176 547.254C893.73 547.824 893.172 548.301 892.5 548.684C891.836 549.059 891.125 549.246 890.367 549.246ZM890.707 547.312C891.473 547.312 892.172 547.129 892.805 546.762C893.438 546.395 893.891 545.953 894.164 545.438V543.141H891.82C890.758 543.141 889.961 543.395 889.43 543.902C888.898 544.41 888.633 544.977 888.633 545.602C888.633 546.156 888.805 546.582 889.148 546.879C889.492 547.168 890.012 547.312 890.707 547.312ZM899.531 549V547.523L901.441 547.195V538.137L899.531 537.809V536.32H903.504L903.668 538.207C904.09 537.535 904.617 537.016 905.25 536.648C905.891 536.273 906.617 536.086 907.43 536.086C908.797 536.086 909.855 536.488 910.605 537.293C911.355 538.09 911.73 539.324 911.73 540.996V547.195L913.641 547.523V549H907.512V547.523L909.422 547.195V541.043C909.422 539.926 909.199 539.133 908.754 538.664C908.316 538.195 907.645 537.961 906.738 537.961C906.074 537.961 905.484 538.121 904.969 538.441C904.461 538.762 904.055 539.199 903.75 539.754V547.195L905.66 547.523V549H899.531ZM919.289 549.199C918.352 549.199 917.605 548.926 917.051 548.379C916.504 547.824 916.23 546.941 916.23 545.73V538.031H914.227V536.32H916.23V533.262H918.539V536.32H921.293V538.031H918.539V545.73C918.539 546.34 918.66 546.789 918.902 547.078C919.145 547.367 919.469 547.512 919.875 547.512C920.148 547.512 920.453 547.488 920.789 547.441C921.125 547.387 921.387 547.34 921.574 547.301L921.891 548.812C921.555 548.914 921.141 549.004 920.648 549.082C920.164 549.16 919.711 549.199 919.289 549.199ZM929.613 549V547.418L935.203 541.207C935.867 540.465 936.387 539.832 936.762 539.309C937.137 538.777 937.398 538.297 937.547 537.867C937.695 537.438 937.77 536.992 937.77 536.531C937.77 535.68 937.512 534.965 936.996 534.387C936.48 533.801 935.742 533.508 934.781 533.508C933.781 533.508 933 533.809 932.438 534.41C931.883 535.012 931.605 535.863 931.605 536.965H929.391L929.367 536.895C929.344 535.91 929.551 535.027 929.988 534.246C930.426 533.457 931.059 532.836 931.887 532.383C932.723 531.922 933.715 531.691 934.863 531.691C935.941 531.691 936.867 531.898 937.641 532.312C938.422 532.719 939.023 533.277 939.445 533.988C939.867 534.699 940.078 535.516 940.078 536.438C940.078 537.062 939.953 537.684 939.703 538.301C939.461 538.918 939.102 539.551 938.625 540.199C938.156 540.848 937.59 541.531 936.926 542.25L932.438 547.137L932.461 547.195H938.52L938.707 545.238H940.664V549H929.613Z" fill="black" fill-opacity="0.5"/>
<path d="M213.59 298.59L209 303.17L204.41 298.59L203 300L209 306L215 300L213.59 298.59Z" fill="black"/>
<path d="M220.682 308V306.947L221.769 306.742V299.312L220.682 299.106V298.047H221.769H225.05C226.166 298.047 227.037 298.275 227.661 298.73C228.29 299.182 228.604 299.858 228.604 300.761C228.604 301.212 228.475 301.618 228.215 301.978C227.955 302.333 227.595 302.597 227.135 302.771C227.536 302.857 227.873 303.014 228.146 303.242C228.42 303.47 228.627 303.748 228.769 304.076C228.914 304.4 228.987 304.755 228.987 305.143C228.987 306.077 228.68 306.788 228.064 307.275C227.454 307.758 226.602 308 225.508 308H220.682ZM223.491 306.674H225.508C226.073 306.674 226.506 306.544 226.807 306.284C227.112 306.02 227.265 305.639 227.265 305.143C227.265 304.792 227.208 304.493 227.094 304.247C226.98 304.001 226.807 303.812 226.574 303.68C226.342 303.548 226.043 303.481 225.679 303.481H223.491V306.674ZM223.491 302.244H225.241C225.752 302.244 226.153 302.121 226.444 301.875C226.736 301.629 226.882 301.285 226.882 300.843C226.882 300.346 226.727 299.979 226.417 299.742C226.107 299.501 225.651 299.38 225.05 299.38H223.491V302.244ZM229.903 308V306.947L230.929 306.742V301.868L229.849 301.663V300.604H232.515L232.604 301.533L232.617 301.684C232.813 301.292 233.052 300.991 233.335 300.781C233.622 300.572 233.957 300.467 234.34 300.467C234.467 300.467 234.602 300.478 234.743 300.501C234.889 300.524 235.007 300.549 235.099 300.576L234.9 302.169L233.937 302.114C233.622 302.096 233.362 302.158 233.157 302.299C232.957 302.44 232.788 302.636 232.651 302.887V306.742L233.677 306.947V308H229.903ZM238.161 308.144C237.409 308.144 236.824 307.95 236.404 307.562C235.985 307.175 235.775 306.642 235.775 305.963C235.775 305.498 235.903 305.09 236.158 304.739C236.413 304.388 236.787 304.115 237.279 303.919C237.771 303.718 238.368 303.618 239.07 303.618H240.198V302.996C240.198 302.604 240.08 302.292 239.843 302.06C239.61 301.827 239.271 301.711 238.824 301.711C238.569 301.711 238.343 301.743 238.147 301.807C237.951 301.866 237.776 301.952 237.621 302.066L237.464 303.064H236.199L236.186 301.239C236.55 301.002 236.956 300.815 237.402 300.679C237.849 300.537 238.346 300.467 238.893 300.467C239.831 300.467 240.57 300.688 241.107 301.13C241.65 301.567 241.921 302.196 241.921 303.017V306.277C241.921 306.378 241.921 306.476 241.921 306.571C241.925 306.667 241.932 306.76 241.941 306.852L242.693 306.947V308H240.444C240.399 307.84 240.355 307.686 240.314 307.535C240.278 307.385 240.251 307.234 240.232 307.084C239.986 307.394 239.688 307.649 239.337 307.85C238.991 308.046 238.599 308.144 238.161 308.144ZM238.551 306.811C238.897 306.811 239.221 306.731 239.521 306.571C239.822 306.407 240.048 306.202 240.198 305.956V304.719H239.05C238.535 304.719 238.145 304.84 237.881 305.081C237.621 305.318 237.491 305.596 237.491 305.915C237.491 306.202 237.582 306.423 237.765 306.578C237.947 306.733 238.209 306.811 238.551 306.811ZM246.187 308.13C245.558 308.13 245.068 307.954 244.717 307.604C244.366 307.248 244.19 306.683 244.19 305.908V301.834H243.11V300.604H244.19V298.806H245.906V300.604H247.369V301.834H245.906V305.908C245.906 306.223 245.97 306.453 246.098 306.599C246.23 306.74 246.408 306.811 246.631 306.811C246.758 306.811 246.9 306.799 247.055 306.776C247.214 306.754 247.342 306.731 247.438 306.708L247.615 307.918C247.415 307.977 247.185 308.027 246.925 308.068C246.67 308.109 246.424 308.13 246.187 308.13ZM248.463 308V306.947L249.488 306.742V301.868L248.401 301.663V300.604H251.211V306.742L252.229 306.947V308H248.463ZM249.42 298.929V297.336H251.211V298.929H249.42ZM256.112 308.144C255.584 308.144 255.089 308.093 254.629 307.993C254.173 307.888 253.715 307.736 253.255 307.535L253.234 305.58H254.472L254.731 306.646C254.927 306.733 255.128 306.801 255.333 306.852C255.543 306.897 255.775 306.92 256.03 306.92C256.522 306.92 256.869 306.833 257.069 306.66C257.274 306.487 257.377 306.273 257.377 306.018C257.377 305.771 257.27 305.562 257.056 305.389C256.846 305.211 256.443 305.058 255.846 304.931C254.962 304.739 254.31 304.461 253.891 304.097C253.476 303.728 253.269 303.249 253.269 302.661C253.269 302.256 253.376 301.889 253.59 301.561C253.809 301.232 254.128 300.97 254.547 300.774C254.971 300.574 255.49 300.474 256.105 300.474C256.666 300.474 257.163 300.533 257.596 300.651C258.033 300.765 258.405 300.918 258.71 301.109L258.751 302.989H257.527L257.315 302.012C257.174 301.911 257.01 301.834 256.823 301.779C256.636 301.725 256.422 301.697 256.181 301.697C255.802 301.697 255.504 301.782 255.285 301.95C255.066 302.114 254.957 302.322 254.957 302.572C254.957 302.718 254.991 302.85 255.06 302.969C255.132 303.087 255.269 303.197 255.47 303.297C255.675 303.393 255.973 303.486 256.365 303.577C257.327 303.8 258.015 304.092 258.43 304.452C258.844 304.812 259.052 305.288 259.052 305.881C259.052 306.542 258.81 307.084 258.327 307.508C257.844 307.932 257.106 308.144 256.112 308.144ZM259.961 308V306.947L260.993 306.742V298.601L259.899 298.396V297.336H262.709V306.742L263.741 306.947V308H259.961ZM266.968 308.144C266.216 308.144 265.63 307.95 265.211 307.562C264.792 307.175 264.582 306.642 264.582 305.963C264.582 305.498 264.71 305.09 264.965 304.739C265.22 304.388 265.594 304.115 266.086 303.919C266.578 303.718 267.175 303.618 267.877 303.618H269.005V302.996C269.005 302.604 268.886 302.292 268.649 302.06C268.417 301.827 268.077 301.711 267.631 301.711C267.376 301.711 267.15 301.743 266.954 301.807C266.758 301.866 266.583 301.952 266.428 302.066L266.271 303.064H265.006L264.992 301.239C265.357 301.002 265.762 300.815 266.209 300.679C266.656 300.537 267.152 300.467 267.699 300.467C268.638 300.467 269.376 300.688 269.914 301.13C270.456 301.567 270.728 302.196 270.728 303.017V306.277C270.728 306.378 270.728 306.476 270.728 306.571C270.732 306.667 270.739 306.76 270.748 306.852L271.5 306.947V308H269.251C269.205 307.84 269.162 307.686 269.121 307.535C269.085 307.385 269.057 307.234 269.039 307.084C268.793 307.394 268.494 307.649 268.144 307.85C267.797 308.046 267.405 308.144 266.968 308.144ZM267.357 306.811C267.704 306.811 268.027 306.731 268.328 306.571C268.629 306.407 268.854 306.202 269.005 305.956V304.719H267.856C267.341 304.719 266.952 304.84 266.688 305.081C266.428 305.318 266.298 305.596 266.298 305.915C266.298 306.202 266.389 306.423 266.571 306.578C266.754 306.733 267.016 306.811 267.357 306.811ZM275 308L272.601 301.779L271.814 301.663V300.604H275.198V301.663L274.344 301.8L275.677 305.512L275.854 306.1H275.896L276.101 305.512L277.447 301.8L276.511 301.663V300.604H279.888V301.663L279.081 301.786L276.675 308H275ZM282.854 308.144C282.103 308.144 281.517 307.95 281.098 307.562C280.678 307.175 280.469 306.642 280.469 305.963C280.469 305.498 280.596 305.09 280.852 304.739C281.107 304.388 281.48 304.115 281.973 303.919C282.465 303.718 283.062 303.618 283.764 303.618H284.892V302.996C284.892 302.604 284.773 302.292 284.536 302.06C284.304 301.827 283.964 301.711 283.518 301.711C283.262 301.711 283.037 301.743 282.841 301.807C282.645 301.866 282.469 301.952 282.314 302.066L282.157 303.064H280.893L280.879 301.239C281.243 301.002 281.649 300.815 282.096 300.679C282.542 300.537 283.039 300.467 283.586 300.467C284.525 300.467 285.263 300.688 285.801 301.13C286.343 301.567 286.614 302.196 286.614 303.017V306.277C286.614 306.378 286.614 306.476 286.614 306.571C286.619 306.667 286.626 306.76 286.635 306.852L287.387 306.947V308H285.138C285.092 307.84 285.049 307.686 285.008 307.535C284.971 307.385 284.944 307.234 284.926 307.084C284.68 307.394 284.381 307.649 284.03 307.85C283.684 308.046 283.292 308.144 282.854 308.144ZM283.244 306.811C283.59 306.811 283.914 306.731 284.215 306.571C284.516 306.407 284.741 306.202 284.892 305.956V304.719H283.743C283.228 304.719 282.839 304.84 282.574 305.081C282.314 305.318 282.185 305.596 282.185 305.915C282.185 306.202 282.276 306.423 282.458 306.578C282.64 306.733 282.902 306.811 283.244 306.811Z" fill="black"/>
<defs>
<filter id="filter0_d_1_36" x="162" y="254" width="956" height="120" filterUnits="userSpaceOnUse" color-interpolation-filters="sRGB">
<feFlood flood-opacity="0" result="BackgroundImageFix"/>
<feColorMatrix in="SourceAlpha" type="matrix" values="0 0 0 0 0 0 0 0 0 0 0 0 0 0 0 0 0 0 127 0" result="hardAlpha"/>
<feOffset dy="12"/>
<feGaussianBlur stdDeviation="14"/>
<feComposite in2="hardAlpha" operator="out"/>
<feColorMatrix type="matrix" values="0 0 0 0 0 0 0 0 0 0 0 0 0 0 0 0 0 0 0.32 0"/>
<feBlend mode="normal" in2="BackgroundImageFix" result="effect1_dropShadow_1_36"/>
<feBlend mode="normal" in="SourceGraphic" in2="effect1_dropShadow_1_36" result="shape"/>
</filter>
<filter id="filter1_i_1_36" x="197" y="278" width="100" height="48" filterUnits="userSpaceOnUse" color-interpolation-filters="sRGB">
<feFlood flood-opacity="0" result="BackgroundImageFix"/>
<feBlend mode="normal" in="SourceGraphic" in2="BackgroundImageFix" result="shape"/>
<feColorMatrix in="SourceAlpha" type="matrix" values="0 0 0 0 0 0 0 0 0 0 0 0 0 0 0 0 0 0 127 0" result="hardAlpha"/>
<feOffset/>
<feGaussianBlur stdDeviation="4"/>
<feComposite in2="hardAlpha" operator="arithmetic" k2="-1" k3="1"/>
<feColorMatrix type="matrix" values="0 0 0 0 0 0 0 0 0 0 0 0 0 0 0 0 0 0 0.26 0"/>
<feBlend mode="normal" in2="shape" result="effect1_innerShadow_1_36"/>
</filter>
</defs>
</svg>
