<svg width="1280" height="720" viewBox="0 0 1280 720" fill="none" xmlns="http://www.w3.org/2000/svg">
<rect width="1280" height="720" fill="white"/>
<rect x="382" y="178" width="516" height="424" rx="14" fill="white" stroke="black" stroke-width="2"/>
<mask id="path-3-inside-1_7_2" fill="white">
<path d="M381 192C381 183.716 387.716 177 396 177H884C892.284 177 899 183.716 899 192V212C899 220.284 892.284 227 884 227H640H396C387.716 227 381 220.284 381 212V192Z"/>
</mask>
<path d="M381 192C381 183.716 387.716 177 396 177H884C892.284 177 899 183.716 899 192V212C899 220.284 892.284 227 884 227H640H396C387.716 227 381 220.284 381 212V192Z" fill="white"/>
<path d="M396 179H884V175H396V179ZM897 192V212H901V192H897ZM383 212V192H379V212H383ZM884 225H640V229H884V225ZM640 225H396V229H640V225ZM379 212C379 221.389 386.611 229 396 229V225C388.82 225 383 219.18 383 212H379ZM897 212C897 219.18 891.18 225 884 225V229C893.389 229 901 221.389 901 212H897ZM884 179C891.18 179 897 184.82 897 192H901C901 182.611 893.389 175 884 175V179ZM396 175C386.611 175 379 182.611 379 192H383C383 184.82 388.82 179 396 179V175Z" fill="black" mask="url(#path-3-inside-1_7_2)"/>
<path d="M608.465 211.556V210.079L610.375 209.751V196.31L608.465 195.981V194.493H610.375H612.684H614.594V195.981L612.684 196.31V209.786H618.719L618.988 207.091H620.758V211.556H608.465ZM628.527 211.802C627.356 211.802 626.344 211.528 625.492 210.981C624.648 210.427 623.996 209.665 623.535 208.696C623.074 207.72 622.844 206.606 622.844 205.356V205.099C622.844 203.849 623.074 202.739 623.535 201.771C623.996 200.794 624.648 200.028 625.492 199.474C626.344 198.919 627.348 198.642 628.504 198.642C629.676 198.642 630.684 198.919 631.527 199.474C632.379 200.028 633.035 200.79 633.496 201.759C633.957 202.728 634.188 203.841 634.188 205.099V205.356C634.188 206.614 633.957 207.731 633.496 208.708C633.035 209.677 632.383 210.435 631.539 210.981C630.695 211.528 629.691 211.802 628.527 211.802ZM628.527 209.997C629.262 209.997 629.875 209.798 630.367 209.399C630.867 208.993 631.242 208.442 631.492 207.747C631.75 207.044 631.879 206.247 631.879 205.356V205.099C631.879 204.208 631.75 203.415 631.492 202.72C631.242 202.017 630.867 201.466 630.367 201.067C629.867 200.661 629.246 200.458 628.504 200.458C627.77 200.458 627.152 200.661 626.652 201.067C626.152 201.466 625.777 202.017 625.527 202.72C625.277 203.415 625.152 204.208 625.152 205.099V205.356C625.152 206.247 625.277 207.044 625.527 207.747C625.777 208.442 626.152 208.993 626.652 209.399C627.16 209.798 627.785 209.997 628.527 209.997ZM641.957 216.677C641.348 216.677 640.688 216.591 639.977 216.419C639.266 216.255 638.641 216.028 638.102 215.739L638.699 213.946C639.129 214.173 639.637 214.36 640.223 214.509C640.809 214.657 641.379 214.731 641.934 214.731C642.965 214.731 643.719 214.442 644.195 213.864C644.68 213.286 644.922 212.462 644.922 211.392V210.185C644.508 210.716 644.012 211.118 643.434 211.392C642.856 211.665 642.191 211.802 641.441 211.802C640.41 211.802 639.52 211.548 638.77 211.04C638.02 210.524 637.441 209.81 637.035 208.896C636.637 207.974 636.438 206.907 636.438 205.696V205.45C636.438 204.091 636.637 202.899 637.035 201.876C637.441 200.853 638.02 200.06 638.77 199.497C639.52 198.927 640.418 198.642 641.465 198.642C642.262 198.642 642.961 198.798 643.563 199.11C644.164 199.423 644.668 199.876 645.074 200.47L645.285 198.876H647.231V211.392C647.231 212.485 647.023 213.427 646.609 214.216C646.203 215.005 645.606 215.61 644.816 216.032C644.035 216.462 643.082 216.677 641.957 216.677ZM642.016 209.927C642.711 209.927 643.293 209.771 643.762 209.458C644.231 209.138 644.617 208.688 644.922 208.11V202.274C644.625 201.735 644.238 201.31 643.762 200.997C643.285 200.677 642.711 200.517 642.039 200.517C641.305 200.517 640.691 200.728 640.199 201.149C639.715 201.571 639.352 202.153 639.109 202.896C638.867 203.63 638.746 204.481 638.746 205.45V205.696C638.746 206.97 639.016 207.993 639.555 208.767C640.094 209.54 640.914 209.927 642.016 209.927ZM646.879 200.763L645.977 198.876H648.801V200.353L646.879 200.763ZM649.879 211.556V210.079L651.789 209.751V200.692L649.879 200.364V198.876H654.098V209.751L656.008 210.079V211.556H649.879ZM651.672 195.747V193.274H654.098V195.747H651.672ZM657.602 211.556V210.079L659.512 209.751V200.692L657.602 200.364V198.876H661.574L661.738 200.763C662.16 200.091 662.688 199.571 663.32 199.204C663.961 198.829 664.688 198.642 665.5 198.642C666.867 198.642 667.926 199.044 668.676 199.849C669.426 200.646 669.801 201.88 669.801 203.552V209.751L671.711 210.079V211.556H665.582V210.079L667.492 209.751V203.599C667.492 202.481 667.27 201.688 666.824 201.22C666.387 200.751 665.715 200.517 664.809 200.517C664.145 200.517 663.555 200.677 663.039 200.997C662.531 201.317 662.125 201.755 661.82 202.31V209.751L663.731 210.079V211.556H657.602Z" fill="black"/>
<rect x="408" y="283" width="465" height="49" rx="15" fill="#E8E8E8"/>
<path d="M421.059 316.246C419.887 316.246 418.867 315.98 418 315.449C417.133 314.91 416.461 314.164 415.984 313.211C415.516 312.258 415.281 311.156 415.281 309.906V309.391C415.281 308.188 415.527 307.113 416.02 306.168C416.52 305.215 417.18 304.465 418 303.918C418.828 303.363 419.73 303.086 420.707 303.086C421.848 303.086 422.801 303.32 423.566 303.789C424.34 304.258 424.922 304.918 425.312 305.77C425.703 306.613 425.898 307.609 425.898 308.758V310.199H417.672L417.637 310.258C417.652 311.07 417.793 311.793 418.059 312.426C418.332 313.051 418.723 313.543 419.23 313.902C419.738 314.262 420.348 314.441 421.059 314.441C421.84 314.441 422.523 314.332 423.109 314.113C423.703 313.887 424.215 313.578 424.645 313.188L425.547 314.688C425.094 315.125 424.492 315.496 423.742 315.801C423 316.098 422.105 316.246 421.059 316.246ZM417.742 308.395H423.59V308.09C423.59 307.48 423.48 306.938 423.262 306.461C423.051 305.977 422.73 305.598 422.301 305.324C421.879 305.043 421.348 304.902 420.707 304.902C420.191 304.902 419.723 305.055 419.301 305.359C418.879 305.656 418.531 306.062 418.258 306.578C417.984 307.094 417.805 307.68 417.719 308.336L417.742 308.395ZM427.703 316V314.523L429.613 314.195V305.137L427.703 304.809V303.32H431.688L431.84 304.973C432.246 304.371 432.77 303.906 433.41 303.578C434.051 303.25 434.793 303.086 435.637 303.086C436.48 303.086 437.203 303.281 437.805 303.672C438.414 304.062 438.871 304.648 439.176 305.43C439.574 304.711 440.102 304.141 440.758 303.719C441.414 303.297 442.18 303.086 443.055 303.086C444.352 303.086 445.375 303.531 446.125 304.422C446.875 305.305 447.25 306.637 447.25 308.418V314.195L449.16 314.523V316H443.02V314.523L444.93 314.195V308.395C444.93 307.145 444.715 306.262 444.285 305.746C443.855 305.223 443.219 304.961 442.375 304.961C441.57 304.961 440.922 305.246 440.43 305.816C439.945 306.379 439.664 307.09 439.586 307.949V314.195L441.496 314.523V316H435.367V314.523L437.277 314.195V308.395C437.277 307.207 437.055 306.34 436.609 305.793C436.172 305.238 435.535 304.961 434.699 304.961C433.996 304.961 433.418 305.105 432.965 305.395C432.512 305.684 432.164 306.09 431.922 306.613V314.195L433.832 314.523V316H427.703ZM454.984 316.246C453.664 316.246 452.66 315.926 451.973 315.285C451.285 314.637 450.941 313.727 450.941 312.555C450.941 311.75 451.16 311.051 451.598 310.457C452.043 309.855 452.684 309.391 453.52 309.062C454.355 308.727 455.355 308.559 456.52 308.559H458.781V307.316C458.781 306.551 458.547 305.957 458.078 305.535C457.617 305.113 456.965 304.902 456.121 304.902C455.59 304.902 455.129 304.969 454.738 305.102C454.348 305.227 453.992 305.402 453.672 305.629L453.426 307.398H451.645V304.492C452.215 304.031 452.879 303.684 453.637 303.449C454.395 303.207 455.234 303.086 456.156 303.086C457.695 303.086 458.902 303.453 459.777 304.188C460.652 304.922 461.09 305.973 461.09 307.34V313.445C461.09 313.609 461.09 313.77 461.09 313.926C461.098 314.082 461.109 314.238 461.125 314.395L462.355 314.523V316H459.039C458.969 315.656 458.914 315.348 458.875 315.074C458.836 314.801 458.809 314.527 458.793 314.254C458.348 314.824 457.789 315.301 457.117 315.684C456.453 316.059 455.742 316.246 454.984 316.246ZM455.324 314.312C456.09 314.312 456.789 314.129 457.422 313.762C458.055 313.395 458.508 312.953 458.781 312.438V310.141H456.438C455.375 310.141 454.578 310.395 454.047 310.902C453.516 311.41 453.25 311.977 453.25 312.602C453.25 313.156 453.422 313.582 453.766 313.879C454.109 314.168 454.629 314.312 455.324 314.312ZM464.066 316V314.523L465.977 314.195V305.137L464.066 304.809V303.32H468.285V314.195L470.195 314.523V316H464.066ZM465.859 300.191V297.719H468.285V300.191H465.859ZM471.672 316V314.523L473.582 314.195V299.535L471.672 299.207V297.719H475.891V314.195L477.801 314.523V316H471.672Z" fill="black" fill-opacity="0.35"/>
<rect x="408" y="378" width="465" height="49" rx="15" fill="#E8E8E8"/>
<path d="M418.207 415.875V414.387L420 414.059V400.137L418.09 399.809V398.32H421.98L422.191 399.867C422.613 399.289 423.125 398.848 423.727 398.543C424.336 398.238 425.039 398.086 425.836 398.086C426.883 398.086 427.777 398.371 428.52 398.941C429.262 399.504 429.828 400.297 430.219 401.32C430.609 402.336 430.805 403.527 430.805 404.895V405.141C430.805 406.359 430.605 407.426 430.207 408.34C429.816 409.254 429.254 409.969 428.52 410.484C427.785 410.992 426.902 411.246 425.871 411.246C425.09 411.246 424.402 411.117 423.809 410.859C423.223 410.594 422.723 410.203 422.309 409.688V414.059L424.324 414.387V415.875H418.207ZM425.156 409.441C426.25 409.441 427.078 409.043 427.641 408.246C428.203 407.449 428.484 406.414 428.484 405.141V404.895C428.484 403.926 428.359 403.074 428.109 402.34C427.859 401.598 427.484 401.016 426.984 400.594C426.492 400.172 425.875 399.961 425.133 399.961C424.477 399.961 423.914 400.109 423.445 400.406C422.977 400.703 422.598 401.109 422.309 401.625V407.801C422.598 408.324 422.973 408.73 423.434 409.02C423.902 409.301 424.477 409.441 425.156 409.441ZM436.699 411.246C435.379 411.246 434.375 410.926 433.688 410.285C433 409.637 432.656 408.727 432.656 407.555C432.656 406.75 432.875 406.051 433.312 405.457C433.758 404.855 434.398 404.391 435.234 404.062C436.07 403.727 437.07 403.559 438.234 403.559H440.496V402.316C440.496 401.551 440.262 400.957 439.793 400.535C439.332 400.113 438.68 399.902 437.836 399.902C437.305 399.902 436.844 399.969 436.453 400.102C436.062 400.227 435.707 400.402 435.387 400.629L435.141 402.398H433.359V399.492C433.93 399.031 434.594 398.684 435.352 398.449C436.109 398.207 436.949 398.086 437.871 398.086C439.41 398.086 440.617 398.453 441.492 399.188C442.367 399.922 442.805 400.973 442.805 402.34V408.445C442.805 408.609 442.805 408.77 442.805 408.926C442.812 409.082 442.824 409.238 442.84 409.395L444.07 409.523V411H440.754C440.684 410.656 440.629 410.348 440.59 410.074C440.551 409.801 440.523 409.527 440.508 409.254C440.062 409.824 439.504 410.301 438.832 410.684C438.168 411.059 437.457 411.246 436.699 411.246ZM437.039 409.312C437.805 409.312 438.504 409.129 439.137 408.762C439.77 408.395 440.223 407.953 440.496 407.438V405.141H438.152C437.09 405.141 436.293 405.395 435.762 405.902C435.23 406.41 434.965 406.977 434.965 407.602C434.965 408.156 435.137 408.582 435.48 408.879C435.824 409.168 436.344 409.312 437.039 409.312ZM450.996 411.246C450.145 411.246 449.348 411.16 448.605 410.988C447.863 410.816 447.074 410.551 446.238 410.191L446.215 407.18H447.961L448.395 408.996C448.832 409.176 449.254 409.309 449.66 409.395C450.074 409.473 450.52 409.512 450.996 409.512C451.934 409.512 452.605 409.332 453.012 408.973C453.418 408.613 453.621 408.168 453.621 407.637C453.621 407.137 453.414 406.715 453 406.371C452.594 406.02 451.852 405.723 450.773 405.48C449.242 405.129 448.113 404.66 447.387 404.074C446.668 403.48 446.309 402.691 446.309 401.707C446.309 401.02 446.508 400.406 446.906 399.867C447.305 399.32 447.859 398.887 448.57 398.566C449.281 398.246 450.109 398.086 451.055 398.086C452.016 398.086 452.836 398.195 453.516 398.414C454.203 398.633 454.801 398.926 455.309 399.293L455.426 402.188H453.691L453.316 400.5C453.043 400.297 452.719 400.141 452.344 400.031C451.969 399.922 451.539 399.867 451.055 399.867C450.336 399.867 449.75 400.035 449.297 400.371C448.852 400.707 448.629 401.129 448.629 401.637C448.629 401.934 448.691 402.191 448.816 402.41C448.949 402.629 449.199 402.828 449.566 403.008C449.934 403.18 450.473 403.352 451.184 403.523C452.949 403.938 454.18 404.465 454.875 405.105C455.578 405.746 455.93 406.535 455.93 407.473C455.93 408.543 455.531 409.441 454.734 410.168C453.945 410.887 452.699 411.246 450.996 411.246ZM462.973 411.246C462.121 411.246 461.324 411.16 460.582 410.988C459.84 410.816 459.051 410.551 458.215 410.191L458.191 407.18H459.938L460.371 408.996C460.809 409.176 461.23 409.309 461.637 409.395C462.051 409.473 462.496 409.512 462.973 409.512C463.91 409.512 464.582 409.332 464.988 408.973C465.395 408.613 465.598 408.168 465.598 407.637C465.598 407.137 465.391 406.715 464.977 406.371C464.57 406.02 463.828 405.723 462.75 405.48C461.219 405.129 460.09 404.66 459.363 404.074C458.645 403.48 458.285 402.691 458.285 401.707C458.285 401.02 458.484 400.406 458.883 399.867C459.281 399.32 459.836 398.887 460.547 398.566C461.258 398.246 462.086 398.086 463.031 398.086C463.992 398.086 464.812 398.195 465.492 398.414C466.18 398.633 466.777 398.926 467.285 399.293L467.402 402.188H465.668L465.293 400.5C465.02 400.297 464.695 400.141 464.32 400.031C463.945 399.922 463.516 399.867 463.031 399.867C462.312 399.867 461.727 400.035 461.273 400.371C460.828 400.707 460.605 401.129 460.605 401.637C460.605 401.934 460.668 402.191 460.793 402.41C460.926 402.629 461.176 402.828 461.543 403.008C461.91 403.18 462.449 403.352 463.16 403.523C464.926 403.938 466.156 404.465 466.852 405.105C467.555 405.746 467.906 406.535 467.906 407.473C467.906 408.543 467.508 409.441 466.711 410.168C465.922 410.887 464.676 411.246 462.973 411.246ZM474.316 411L470.977 399.973L469.559 399.809V398.32H474.797V399.809L473.238 400.066L474.984 406.383L475.383 407.883H475.453L475.969 406.383L478.723 398.32H480.668L483.293 406.359L483.855 408.141H483.926L484.477 406.359L486.246 400.055L484.652 399.809V398.32H489.773V399.809L488.367 400.008L485.086 411H482.895L480.328 403.383L479.719 401.344L479.648 401.355L479.051 403.383L476.297 411H474.316ZM496.688 411.246C495.516 411.246 494.504 410.973 493.652 410.426C492.809 409.871 492.156 409.109 491.695 408.141C491.234 407.164 491.004 406.051 491.004 404.801V404.543C491.004 403.293 491.234 402.184 491.695 401.215C492.156 400.238 492.809 399.473 493.652 398.918C494.504 398.363 495.508 398.086 496.664 398.086C497.836 398.086 498.844 398.363 499.688 398.918C500.539 399.473 501.195 400.234 501.656 401.203C502.117 402.172 502.348 403.285 502.348 404.543V404.801C502.348 406.059 502.117 407.176 501.656 408.152C501.195 409.121 500.543 409.879 499.699 410.426C498.855 410.973 497.852 411.246 496.688 411.246ZM496.688 409.441C497.422 409.441 498.035 409.242 498.527 408.844C499.027 408.438 499.402 407.887 499.652 407.191C499.91 406.488 500.039 405.691 500.039 404.801V404.543C500.039 403.652 499.91 402.859 499.652 402.164C499.402 401.461 499.027 400.91 498.527 400.512C498.027 400.105 497.406 399.902 496.664 399.902C495.93 399.902 495.312 400.105 494.812 400.512C494.312 400.91 493.938 401.461 493.688 402.164C493.438 402.859 493.312 403.652 493.312 404.543V404.801C493.312 405.691 493.438 406.488 493.688 407.191C493.938 407.887 494.312 408.438 494.812 408.844C495.32 409.242 495.945 409.441 496.688 409.441ZM504.105 411V409.523L506.016 409.195V400.137L504.105 399.809V398.32H508.078L508.277 399.938L508.301 400.16C508.66 399.512 509.102 399.004 509.625 398.637C510.156 398.27 510.762 398.086 511.441 398.086C511.684 398.086 511.93 398.109 512.18 398.156C512.438 398.195 512.621 398.234 512.73 398.273L512.426 400.418L510.82 400.324C510.211 400.285 509.699 400.426 509.285 400.746C508.871 401.059 508.551 401.48 508.324 402.012V409.195L510.234 409.523V411H504.105ZM518.883 411.246C517.852 411.246 516.965 410.992 516.223 410.484C515.488 409.969 514.926 409.254 514.535 408.34C514.145 407.426 513.949 406.359 513.949 405.141V404.895C513.949 403.535 514.145 402.344 514.535 401.32C514.926 400.297 515.492 399.504 516.234 398.941C516.977 398.371 517.867 398.086 518.906 398.086C519.656 398.086 520.316 398.227 520.887 398.508C521.465 398.781 521.957 399.18 522.363 399.703V394.535L520.453 394.207V392.719H522.363H524.672V409.195L526.582 409.523V411H522.668L522.48 409.488C522.066 410.066 521.559 410.504 520.957 410.801C520.363 411.098 519.672 411.246 518.883 411.246ZM519.469 409.371C520.156 409.371 520.734 409.215 521.203 408.902C521.672 408.59 522.059 408.148 522.363 407.578V401.695C522.066 401.164 521.68 400.742 521.203 400.43C520.727 400.117 520.156 399.961 519.492 399.961C518.758 399.961 518.152 400.172 517.676 400.594C517.199 401.008 516.844 401.586 516.609 402.328C516.375 403.062 516.258 403.918 516.258 404.895V405.141C516.258 406.414 516.52 407.438 517.043 408.211C517.566 408.984 518.375 409.371 519.469 409.371Z" fill="black" fill-opacity="0.35"/>
<g filter="url(#filter0_d_7_2)">
<rect x="542" y="456" width="196" height="58" rx="24" fill="black"/>
<path d="M603.59 494V492.523L605.5 492.195V478.754L603.59 478.426V476.938H605.5H607.809H609.719V478.426L607.809 478.754V492.23H613.844L614.113 489.535H615.883V494H603.59ZM623.652 494.246C622.48 494.246 621.469 493.973 620.617 493.426C619.773 492.871 619.121 492.109 618.66 491.141C618.199 490.164 617.969 489.051 617.969 487.801V487.543C617.969 486.293 618.199 485.184 618.66 484.215C619.121 483.238 619.773 482.473 620.617 481.918C621.469 481.363 622.473 481.086 623.629 481.086C624.801 481.086 625.809 481.363 626.652 481.918C627.504 482.473 628.16 483.234 628.621 484.203C629.082 485.172 629.312 486.285 629.312 487.543V487.801C629.312 489.059 629.082 490.176 628.621 491.152C628.16 492.121 627.508 492.879 626.664 493.426C625.82 493.973 624.816 494.246 623.652 494.246ZM623.652 492.441C624.387 492.441 625 492.242 625.492 491.844C625.992 491.438 626.367 490.887 626.617 490.191C626.875 489.488 627.004 488.691 627.004 487.801V487.543C627.004 486.652 626.875 485.859 626.617 485.164C626.367 484.461 625.992 483.91 625.492 483.512C624.992 483.105 624.371 482.902 623.629 482.902C622.895 482.902 622.277 483.105 621.777 483.512C621.277 483.91 620.902 484.461 620.652 485.164C620.402 485.859 620.277 486.652 620.277 487.543V487.801C620.277 488.691 620.402 489.488 620.652 490.191C620.902 490.887 621.277 491.438 621.777 491.844C622.285 492.242 622.91 492.441 623.652 492.441ZM637.082 499.121C636.473 499.121 635.812 499.035 635.102 498.863C634.391 498.699 633.766 498.473 633.227 498.184L633.824 496.391C634.254 496.617 634.762 496.805 635.348 496.953C635.934 497.102 636.504 497.176 637.059 497.176C638.09 497.176 638.844 496.887 639.32 496.309C639.805 495.73 640.047 494.906 640.047 493.836V492.629C639.633 493.16 639.137 493.562 638.559 493.836C637.98 494.109 637.316 494.246 636.566 494.246C635.535 494.246 634.645 493.992 633.895 493.484C633.145 492.969 632.566 492.254 632.16 491.34C631.762 490.418 631.562 489.352 631.562 488.141V487.895C631.562 486.535 631.762 485.344 632.16 484.32C632.566 483.297 633.145 482.504 633.895 481.941C634.645 481.371 635.543 481.086 636.59 481.086C637.387 481.086 638.086 481.242 638.688 481.555C639.289 481.867 639.793 482.32 640.199 482.914L640.41 481.32H642.355V493.836C642.355 494.93 642.148 495.871 641.734 496.66C641.328 497.449 640.73 498.055 639.941 498.477C639.16 498.906 638.207 499.121 637.082 499.121ZM637.141 492.371C637.836 492.371 638.418 492.215 638.887 491.902C639.355 491.582 639.742 491.133 640.047 490.555V484.719C639.75 484.18 639.363 483.754 638.887 483.441C638.41 483.121 637.836 482.961 637.164 482.961C636.43 482.961 635.816 483.172 635.324 483.594C634.84 484.016 634.477 484.598 634.234 485.34C633.992 486.074 633.871 486.926 633.871 487.895V488.141C633.871 489.414 634.141 490.438 634.68 491.211C635.219 491.984 636.039 492.371 637.141 492.371ZM642.004 483.207L641.102 481.32H643.926V482.797L642.004 483.207ZM646.023 487.695V485.891H651.754V487.695H646.023ZM654.52 494V492.523L656.43 492.195V478.754L654.52 478.426V476.938H660.648V478.426L658.738 478.754V492.195L660.648 492.523V494H654.52ZM662.477 494V492.523L664.387 492.195V483.137L662.477 482.809V481.32H666.449L666.613 483.207C667.035 482.535 667.562 482.016 668.195 481.648C668.836 481.273 669.562 481.086 670.375 481.086C671.742 481.086 672.801 481.488 673.551 482.293C674.301 483.09 674.676 484.324 674.676 485.996V492.195L676.586 492.523V494H670.457V492.523L672.367 492.195V486.043C672.367 484.926 672.145 484.133 671.699 483.664C671.262 483.195 670.59 482.961 669.684 482.961C669.02 482.961 668.43 483.121 667.914 483.441C667.406 483.762 667 484.199 666.695 484.754V492.195L668.605 492.523V494H662.477Z" fill="white"/>
</g>
<path d="M582.266 561.164C581.125 561.164 580.172 560.914 579.406 560.414C578.646 559.914 578.073 559.229 577.688 558.359C577.307 557.49 577.117 556.503 577.117 555.398V555.234C577.117 554.12 577.318 553.13 577.719 552.266C578.12 551.396 578.695 550.711 579.445 550.211C580.195 549.711 581.091 549.461 582.133 549.461C582.867 549.461 583.539 549.576 584.148 549.805C584.758 550.034 585.263 550.326 585.664 550.68V553.133H584.438L584.273 551.336C584.107 551.206 583.914 551.096 583.695 551.008C583.482 550.919 583.242 550.852 582.977 550.805C582.716 550.758 582.432 550.734 582.125 550.734C581.38 550.734 580.75 550.927 580.234 551.312C579.719 551.693 579.328 552.219 579.062 552.891C578.797 553.562 578.664 554.339 578.664 555.219V555.398C578.664 556.352 578.805 557.167 579.086 557.844C579.372 558.516 579.786 559.029 580.328 559.383C580.875 559.737 581.539 559.914 582.32 559.914C582.685 559.914 583.042 559.87 583.391 559.781C583.74 559.693 584.029 559.578 584.258 559.438L584.43 557.852H585.633V560.32C585.206 560.586 584.695 560.794 584.102 560.945C583.508 561.091 582.896 561.164 582.266 561.164ZM587.133 561V560.016L588.406 559.797V553.758L587.133 553.539V552.547H589.781L589.914 553.625L589.93 553.773C590.169 553.341 590.464 553.003 590.812 552.758C591.167 552.513 591.57 552.391 592.023 552.391C592.185 552.391 592.349 552.406 592.516 552.438C592.688 552.464 592.81 552.49 592.883 552.516L592.68 553.945L591.609 553.883C591.203 553.857 590.862 553.951 590.586 554.164C590.31 554.372 590.096 554.654 589.945 555.008V559.797L591.219 560.016V561H587.133ZM597.516 561.164C596.734 561.164 596.055 560.987 595.477 560.633C594.898 560.273 594.451 559.776 594.133 559.141C593.82 558.505 593.664 557.771 593.664 556.938V556.594C593.664 555.792 593.828 555.076 594.156 554.445C594.49 553.81 594.93 553.31 595.477 552.945C596.029 552.576 596.63 552.391 597.281 552.391C598.042 552.391 598.677 552.547 599.188 552.859C599.703 553.172 600.091 553.612 600.352 554.18C600.612 554.742 600.742 555.406 600.742 556.172V557.133H595.258L595.234 557.172C595.245 557.714 595.339 558.195 595.516 558.617C595.698 559.034 595.958 559.362 596.297 559.602C596.635 559.841 597.042 559.961 597.516 559.961C598.036 559.961 598.492 559.888 598.883 559.742C599.279 559.591 599.62 559.385 599.906 559.125L600.508 560.125C600.206 560.417 599.805 560.664 599.305 560.867C598.81 561.065 598.214 561.164 597.516 561.164ZM595.305 555.93H599.203V555.727C599.203 555.32 599.13 554.958 598.984 554.641C598.844 554.318 598.63 554.065 598.344 553.883C598.062 553.695 597.708 553.602 597.281 553.602C596.938 553.602 596.625 553.703 596.344 553.906C596.062 554.104 595.831 554.375 595.648 554.719C595.466 555.062 595.346 555.453 595.289 555.891L595.305 555.93ZM604.805 561.164C603.924 561.164 603.255 560.951 602.797 560.523C602.339 560.091 602.109 559.484 602.109 558.703C602.109 558.167 602.255 557.701 602.547 557.305C602.844 556.904 603.271 556.594 603.828 556.375C604.385 556.151 605.052 556.039 605.828 556.039H607.336V555.211C607.336 554.701 607.18 554.305 606.867 554.023C606.56 553.742 606.125 553.602 605.562 553.602C605.208 553.602 604.901 553.646 604.641 553.734C604.38 553.818 604.143 553.935 603.93 554.086L603.766 555.266H602.578V553.328C602.958 553.021 603.401 552.789 603.906 552.633C604.411 552.471 604.971 552.391 605.586 552.391C606.612 552.391 607.417 552.635 608 553.125C608.583 553.615 608.875 554.315 608.875 555.227V559.297C608.875 559.406 608.875 559.513 608.875 559.617C608.88 559.721 608.888 559.826 608.898 559.93L609.719 560.016V561H607.508C607.461 560.771 607.424 560.565 607.398 560.383C607.372 560.201 607.354 560.018 607.344 559.836C607.047 560.216 606.674 560.534 606.227 560.789C605.784 561.039 605.31 561.164 604.805 561.164ZM605.031 559.875C605.542 559.875 606.008 559.753 606.43 559.508C606.852 559.263 607.154 558.969 607.336 558.625V557.094H605.773C605.065 557.094 604.534 557.263 604.18 557.602C603.826 557.94 603.648 558.318 603.648 558.734C603.648 559.104 603.763 559.388 603.992 559.586C604.221 559.779 604.568 559.875 605.031 559.875ZM613.898 561.133C613.273 561.133 612.776 560.951 612.406 560.586C612.042 560.216 611.859 559.628 611.859 558.82V553.688H610.523V552.547H611.859V550.508H613.398V552.547H615.234V553.688H613.398V558.82C613.398 559.227 613.479 559.526 613.641 559.719C613.802 559.911 614.018 560.008 614.289 560.008C614.471 560.008 614.674 559.992 614.898 559.961C615.122 559.924 615.297 559.893 615.422 559.867L615.633 560.875C615.409 560.943 615.133 561.003 614.805 561.055C614.482 561.107 614.18 561.133 613.898 561.133ZM620.312 561.164C619.531 561.164 618.852 560.987 618.273 560.633C617.695 560.273 617.247 559.776 616.93 559.141C616.617 558.505 616.461 557.771 616.461 556.938V556.594C616.461 555.792 616.625 555.076 616.953 554.445C617.286 553.81 617.727 553.31 618.273 552.945C618.826 552.576 619.427 552.391 620.078 552.391C620.839 552.391 621.474 552.547 621.984 552.859C622.5 553.172 622.888 553.612 623.148 554.18C623.409 554.742 623.539 555.406 623.539 556.172V557.133H618.055L618.031 557.172C618.042 557.714 618.135 558.195 618.312 558.617C618.495 559.034 618.755 559.362 619.094 559.602C619.432 559.841 619.839 559.961 620.312 559.961C620.833 559.961 621.289 559.888 621.68 559.742C622.076 559.591 622.417 559.385 622.703 559.125L623.305 560.125C623.003 560.417 622.602 560.664 622.102 560.867C621.607 561.065 621.01 561.164 620.312 561.164ZM618.102 555.93H622V555.727C622 555.32 621.927 554.958 621.781 554.641C621.641 554.318 621.427 554.065 621.141 553.883C620.859 553.695 620.505 553.602 620.078 553.602C619.734 553.602 619.422 553.703 619.141 553.906C618.859 554.104 618.628 554.375 618.445 554.719C618.263 555.062 618.143 555.453 618.086 555.891L618.102 555.93ZM628.695 561V560.016L629.539 559.898L633.516 549.625H634.836L638.742 559.898L639.578 560.016V561H636.312V560.016L637.172 559.867L636.422 557.773H631.867L631.094 559.867L631.953 560.016V561H628.695ZM632.344 556.484H635.953L634.281 551.859L634.188 551.602H634.141L634.047 551.859L632.344 556.484ZM644.297 561.164C643.531 561.164 642.865 560.987 642.297 560.633C641.729 560.273 641.289 559.776 640.977 559.141C640.664 558.505 640.508 557.771 640.508 556.938V556.609C640.508 555.807 640.659 555.089 640.961 554.453C641.263 553.818 641.698 553.315 642.266 552.945C642.833 552.576 643.51 552.391 644.297 552.391C644.979 552.391 645.576 552.503 646.086 552.727C646.602 552.951 647.034 553.258 647.383 553.648L647.422 555.68H646.219L645.953 554.203C645.776 554.021 645.555 553.875 645.289 553.766C645.023 553.656 644.711 553.602 644.352 553.602C643.893 553.602 643.49 553.737 643.141 554.008C642.797 554.279 642.529 554.641 642.336 555.094C642.143 555.547 642.047 556.052 642.047 556.609V556.938C642.047 557.552 642.135 558.086 642.312 558.539C642.495 558.992 642.753 559.344 643.086 559.594C643.424 559.839 643.826 559.961 644.289 559.961C644.81 559.961 645.242 559.818 645.586 559.531C645.93 559.245 646.141 558.852 646.219 558.352H647.602L647.617 558.398C647.591 558.883 647.448 559.336 647.188 559.758C646.927 560.18 646.555 560.521 646.07 560.781C645.591 561.036 645 561.164 644.297 561.164ZM652.953 561.164C652.188 561.164 651.521 560.987 650.953 560.633C650.385 560.273 649.945 559.776 649.633 559.141C649.32 558.505 649.164 557.771 649.164 556.938V556.609C649.164 555.807 649.315 555.089 649.617 554.453C649.919 553.818 650.354 553.315 650.922 552.945C651.49 552.576 652.167 552.391 652.953 552.391C653.635 552.391 654.232 552.503 654.742 552.727C655.258 552.951 655.69 553.258 656.039 553.648L656.078 555.68H654.875L654.609 554.203C654.432 554.021 654.211 553.875 653.945 553.766C653.68 553.656 653.367 553.602 653.008 553.602C652.549 553.602 652.146 553.737 651.797 554.008C651.453 554.279 651.185 554.641 650.992 555.094C650.799 555.547 650.703 556.052 650.703 556.609V556.938C650.703 557.552 650.792 558.086 650.969 558.539C651.151 558.992 651.409 559.344 651.742 559.594C652.081 559.839 652.482 559.961 652.945 559.961C653.466 559.961 653.898 559.818 654.242 559.531C654.586 559.245 654.797 558.852 654.875 558.352H656.258L656.273 558.398C656.247 558.883 656.104 559.336 655.844 559.758C655.583 560.18 655.211 560.521 654.727 560.781C654.247 561.036 653.656 561.164 652.953 561.164ZM661.5 561.164C660.719 561.164 660.044 560.982 659.477 560.617C658.914 560.247 658.479 559.74 658.172 559.094C657.865 558.443 657.711 557.701 657.711 556.867V556.695C657.711 555.862 657.865 555.122 658.172 554.477C658.479 553.826 658.914 553.315 659.477 552.945C660.044 552.576 660.714 552.391 661.484 552.391C662.266 552.391 662.938 552.576 663.5 552.945C664.068 553.315 664.505 553.823 664.812 554.469C665.12 555.115 665.273 555.857 665.273 556.695V556.867C665.273 557.706 665.12 558.451 664.812 559.102C664.505 559.747 664.07 560.253 663.508 560.617C662.945 560.982 662.276 561.164 661.5 561.164ZM661.5 559.961C661.99 559.961 662.398 559.828 662.727 559.562C663.06 559.292 663.31 558.924 663.477 558.461C663.648 557.992 663.734 557.461 663.734 556.867V556.695C663.734 556.102 663.648 555.573 663.477 555.109C663.31 554.641 663.06 554.273 662.727 554.008C662.393 553.737 661.979 553.602 661.484 553.602C660.995 553.602 660.583 553.737 660.25 554.008C659.917 554.273 659.667 554.641 659.5 555.109C659.333 555.573 659.25 556.102 659.25 556.695V556.867C659.25 557.461 659.333 557.992 659.5 558.461C659.667 558.924 659.917 559.292 660.25 559.562C660.589 559.828 661.005 559.961 661.5 559.961ZM670.18 561.164C669.263 561.164 668.547 560.87 668.031 560.281C667.516 559.693 667.258 558.776 667.258 557.531V553.758L666.289 553.539V552.547H667.258H668.797V557.547C668.797 558.448 668.93 559.068 669.195 559.406C669.461 559.745 669.875 559.914 670.438 559.914C670.984 559.914 671.435 559.805 671.789 559.586C672.148 559.362 672.419 559.047 672.602 558.641V553.758L671.469 553.539V552.547H672.602H674.141V559.797L675.109 560.016V561H672.758L672.656 559.75C672.391 560.203 672.047 560.552 671.625 560.797C671.208 561.042 670.727 561.164 670.18 561.164ZM676.195 561V560.016L677.469 559.797V553.758L676.195 553.539V552.547H678.844L678.953 553.805C679.234 553.357 679.586 553.01 680.008 552.766C680.435 552.516 680.919 552.391 681.461 552.391C682.372 552.391 683.078 552.659 683.578 553.195C684.078 553.727 684.328 554.549 684.328 555.664V559.797L685.602 560.016V561H681.516V560.016L682.789 559.797V555.695C682.789 554.951 682.641 554.422 682.344 554.109C682.052 553.797 681.604 553.641 681 553.641C680.557 553.641 680.164 553.747 679.82 553.961C679.482 554.174 679.211 554.466 679.008 554.836V559.797L680.281 560.016V561H676.195ZM689.367 561.133C688.742 561.133 688.245 560.951 687.875 560.586C687.51 560.216 687.328 559.628 687.328 558.82V553.688H685.992V552.547H687.328V550.508H688.867V552.547H690.703V553.688H688.867V558.82C688.867 559.227 688.948 559.526 689.109 559.719C689.271 559.911 689.487 560.008 689.758 560.008C689.94 560.008 690.143 559.992 690.367 559.961C690.591 559.924 690.766 559.893 690.891 559.867L691.102 560.875C690.878 560.943 690.602 561.003 690.273 561.055C689.951 561.107 689.648 561.133 689.367 561.133Z" fill="black"/>
<path d="M576.492 562.562H691.508V563.344H576.492V562.562Z" fill="black"/>
<path d="M631.088 535.144C630.404 535.144 629.814 534.984 629.317 534.665C628.825 534.341 628.445 533.897 628.176 533.332C627.907 532.762 627.772 532.113 627.772 531.384V531.233C627.772 530.504 627.907 529.857 628.176 529.292C628.445 528.722 628.825 528.276 629.317 527.952C629.814 527.629 630.4 527.467 631.074 527.467C631.758 527.467 632.346 527.629 632.838 527.952C633.335 528.276 633.717 528.72 633.986 529.285C634.255 529.85 634.39 530.5 634.39 531.233V531.384C634.39 532.118 634.255 532.769 633.986 533.339C633.717 533.904 633.337 534.346 632.845 534.665C632.353 534.984 631.767 535.144 631.088 535.144ZM631.088 534.091C631.516 534.091 631.874 533.975 632.161 533.742C632.453 533.505 632.672 533.184 632.817 532.778C632.968 532.368 633.043 531.903 633.043 531.384V531.233C633.043 530.714 632.968 530.251 632.817 529.846C632.672 529.436 632.453 529.114 632.161 528.882C631.869 528.645 631.507 528.526 631.074 528.526C630.646 528.526 630.286 528.645 629.994 528.882C629.702 529.114 629.484 529.436 629.338 529.846C629.192 530.251 629.119 530.714 629.119 531.233V531.384C629.119 531.903 629.192 532.368 629.338 532.778C629.484 533.184 629.702 533.505 629.994 533.742C630.29 533.975 630.655 534.091 631.088 534.091ZM635.415 535V534.139L636.529 533.947V528.663L635.415 528.472V527.604H637.732L637.849 528.547L637.862 528.677C638.072 528.299 638.329 528.002 638.635 527.788C638.945 527.574 639.298 527.467 639.694 527.467C639.836 527.467 639.979 527.48 640.125 527.508C640.275 527.531 640.382 527.553 640.446 527.576L640.269 528.827L639.332 528.772C638.977 528.75 638.678 528.832 638.437 529.019C638.195 529.201 638.008 529.447 637.876 529.757V533.947L638.99 534.139V535H635.415Z" fill="black"/>
<path d="M883.5 193.615L881.385 191.5L873 199.885L864.615 191.5L862.5 193.615L870.885 202L862.5 210.385L864.615 212.5L873 204.115L881.385 212.5L883.5 210.385L875.115 202L883.5 193.615Z" fill="black"/>
<path d="M75.082 381.246C73.9336 381.246 72.9336 380.98 72.082 380.449C71.2305 379.91 70.5703 379.164 70.1016 378.211C69.6328 377.258 69.3984 376.156 69.3984 374.906V374.414C69.3984 373.211 69.625 372.133 70.0781 371.18C70.5312 370.227 71.1836 369.473 72.0352 368.918C72.8867 368.363 73.9023 368.086 75.082 368.086C76.1055 368.086 77 368.254 77.7656 368.59C78.5391 368.926 79.1875 369.387 79.7109 369.973L79.7695 373.02H77.9648L77.5664 370.805C77.3008 370.531 76.9688 370.312 76.5703 370.148C76.1719 369.984 75.7031 369.902 75.1641 369.902C74.4766 369.902 73.8711 370.105 73.3477 370.512C72.832 370.918 72.4297 371.461 72.1406 372.141C71.8516 372.82 71.707 373.578 71.707 374.414V374.906C71.707 375.828 71.8398 376.629 72.1055 377.309C72.3789 377.988 72.7656 378.516 73.2656 378.891C73.7734 379.258 74.375 379.441 75.0703 379.441C75.8516 379.441 76.5 379.227 77.0156 378.797C77.5312 378.367 77.8477 377.777 77.9648 377.027H80.0391L80.0625 377.098C80.0234 377.824 79.8086 378.504 79.418 379.137C79.0273 379.77 78.4688 380.281 77.7422 380.672C77.0234 381.055 76.1367 381.246 75.082 381.246ZM87.9023 381.246C86.7305 381.246 85.7188 380.973 84.8672 380.426C84.0234 379.871 83.3711 379.109 82.9102 378.141C82.4492 377.164 82.2188 376.051 82.2188 374.801V374.543C82.2188 373.293 82.4492 372.184 82.9102 371.215C83.3711 370.238 84.0234 369.473 84.8672 368.918C85.7188 368.363 86.7227 368.086 87.8789 368.086C89.0508 368.086 90.0586 368.363 90.9023 368.918C91.7539 369.473 92.4102 370.234 92.8711 371.203C93.332 372.172 93.5625 373.285 93.5625 374.543V374.801C93.5625 376.059 93.332 377.176 92.8711 378.152C92.4102 379.121 91.7578 379.879 90.9141 380.426C90.0703 380.973 89.0664 381.246 87.9023 381.246ZM87.9023 379.441C88.6367 379.441 89.25 379.242 89.7422 378.844C90.2422 378.438 90.6172 377.887 90.8672 377.191C91.125 376.488 91.2539 375.691 91.2539 374.801V374.543C91.2539 373.652 91.125 372.859 90.8672 372.164C90.6172 371.461 90.2422 370.91 89.7422 370.512C89.2422 370.105 88.6211 369.902 87.8789 369.902C87.1445 369.902 86.5273 370.105 86.0273 370.512C85.5273 370.91 85.1523 371.461 84.9023 372.164C84.6523 372.859 84.5273 373.652 84.5273 374.543V374.801C84.5273 375.691 84.6523 376.488 84.9023 377.191C85.1523 377.887 85.5273 378.438 86.0273 378.844C86.5352 379.242 87.1602 379.441 87.9023 379.441ZM95.3438 381V379.523L97.2539 379.195V370.137L95.3438 369.809V368.32H99.3164L99.4805 370.207C99.9023 369.535 100.43 369.016 101.062 368.648C101.703 368.273 102.43 368.086 103.242 368.086C104.609 368.086 105.668 368.488 106.418 369.293C107.168 370.09 107.543 371.324 107.543 372.996V379.195L109.453 379.523V381H103.324V379.523L105.234 379.195V373.043C105.234 371.926 105.012 371.133 104.566 370.664C104.129 370.195 103.457 369.961 102.551 369.961C101.887 369.961 101.297 370.121 100.781 370.441C100.273 370.762 99.8672 371.199 99.5625 371.754V379.195L101.473 379.523V381H95.3438ZM115.102 381.199C114.164 381.199 113.418 380.926 112.863 380.379C112.316 379.824 112.043 378.941 112.043 377.73V370.031H110.039V368.32H112.043V365.262H114.352V368.32H117.105V370.031H114.352V377.73C114.352 378.34 114.473 378.789 114.715 379.078C114.957 379.367 115.281 379.512 115.688 379.512C115.961 379.512 116.266 379.488 116.602 379.441C116.938 379.387 117.199 379.34 117.387 379.301L117.703 380.812C117.367 380.914 116.953 381.004 116.461 381.082C115.977 381.16 115.523 381.199 115.102 381.199ZM124.723 381.246C123.551 381.246 122.531 380.98 121.664 380.449C120.797 379.91 120.125 379.164 119.648 378.211C119.18 377.258 118.945 376.156 118.945 374.906V374.391C118.945 373.188 119.191 372.113 119.684 371.168C120.184 370.215 120.844 369.465 121.664 368.918C122.492 368.363 123.395 368.086 124.371 368.086C125.512 368.086 126.465 368.32 127.23 368.789C128.004 369.258 128.586 369.918 128.977 370.77C129.367 371.613 129.562 372.609 129.562 373.758V375.199H121.336L121.301 375.258C121.316 376.07 121.457 376.793 121.723 377.426C121.996 378.051 122.387 378.543 122.895 378.902C123.402 379.262 124.012 379.441 124.723 379.441C125.504 379.441 126.188 379.332 126.773 379.113C127.367 378.887 127.879 378.578 128.309 378.188L129.211 379.688C128.758 380.125 128.156 380.496 127.406 380.801C126.664 381.098 125.77 381.246 124.723 381.246ZM121.406 373.395H127.254V373.09C127.254 372.48 127.145 371.938 126.926 371.461C126.715 370.977 126.395 370.598 125.965 370.324C125.543 370.043 125.012 369.902 124.371 369.902C123.855 369.902 123.387 370.055 122.965 370.359C122.543 370.656 122.195 371.062 121.922 371.578C121.648 372.094 121.469 372.68 121.383 373.336L121.406 373.395ZM131.367 381V379.523L133.277 379.195V370.137L131.367 369.809V368.32H135.34L135.504 370.207C135.926 369.535 136.453 369.016 137.086 368.648C137.727 368.273 138.453 368.086 139.266 368.086C140.633 368.086 141.691 368.488 142.441 369.293C143.191 370.09 143.566 371.324 143.566 372.996V379.195L145.477 379.523V381H139.348V379.523L141.258 379.195V373.043C141.258 371.926 141.035 371.133 140.59 370.664C140.152 370.195 139.48 369.961 138.574 369.961C137.91 369.961 137.32 370.121 136.805 370.441C136.297 370.762 135.891 371.199 135.586 371.754V379.195L137.496 379.523V381H131.367ZM151.125 381.199C150.188 381.199 149.441 380.926 148.887 380.379C148.34 379.824 148.066 378.941 148.066 377.73V370.031H146.062V368.32H148.066V365.262H150.375V368.32H153.129V370.031H150.375V377.73C150.375 378.34 150.496 378.789 150.738 379.078C150.98 379.367 151.305 379.512 151.711 379.512C151.984 379.512 152.289 379.488 152.625 379.441C152.961 379.387 153.223 379.34 153.41 379.301L153.727 380.812C153.391 380.914 152.977 381.004 152.484 381.082C152 381.16 151.547 381.199 151.125 381.199ZM166.758 381.246C165.383 381.246 164.309 380.805 163.535 379.922C162.762 379.039 162.375 377.664 162.375 375.797V370.137L160.922 369.809V368.32H162.375H164.684V375.82C164.684 377.172 164.883 378.102 165.281 378.609C165.68 379.117 166.301 379.371 167.145 379.371C167.965 379.371 168.641 379.207 169.172 378.879C169.711 378.543 170.117 378.07 170.391 377.461V370.137L168.691 369.809V368.32H170.391H172.699V379.195L174.152 379.523V381H170.625L170.473 379.125C170.074 379.805 169.559 380.328 168.926 380.695C168.301 381.062 167.578 381.246 166.758 381.246ZM175.781 381V379.523L177.691 379.195V370.137L175.781 369.809V368.32H179.754L179.918 370.207C180.34 369.535 180.867 369.016 181.5 368.648C182.141 368.273 182.867 368.086 183.68 368.086C185.047 368.086 186.105 368.488 186.855 369.293C187.605 370.09 187.98 371.324 187.98 372.996V379.195L189.891 379.523V381H183.762V379.523L185.672 379.195V373.043C185.672 371.926 185.449 371.133 185.004 370.664C184.566 370.195 183.895 369.961 182.988 369.961C182.324 369.961 181.734 370.121 181.219 370.441C180.711 370.762 180.305 371.199 180 371.754V379.195L181.91 379.523V381H175.781ZM196.395 381.246C195.363 381.246 194.477 380.992 193.734 380.484C193 379.969 192.438 379.254 192.047 378.34C191.656 377.426 191.461 376.359 191.461 375.141V374.895C191.461 373.535 191.656 372.344 192.047 371.32C192.438 370.297 193.004 369.504 193.746 368.941C194.488 368.371 195.379 368.086 196.418 368.086C197.168 368.086 197.828 368.227 198.398 368.508C198.977 368.781 199.469 369.18 199.875 369.703V364.535L197.965 364.207V362.719H199.875H202.184V379.195L204.094 379.523V381H200.18L199.992 379.488C199.578 380.066 199.07 380.504 198.469 380.801C197.875 381.098 197.184 381.246 196.395 381.246ZM196.98 379.371C197.668 379.371 198.246 379.215 198.715 378.902C199.184 378.59 199.57 378.148 199.875 377.578V371.695C199.578 371.164 199.191 370.742 198.715 370.43C198.238 370.117 197.668 369.961 197.004 369.961C196.27 369.961 195.664 370.172 195.188 370.594C194.711 371.008 194.355 371.586 194.121 372.328C193.887 373.062 193.77 373.918 193.77 374.895V375.141C193.77 376.414 194.031 377.438 194.555 378.211C195.078 378.984 195.887 379.371 196.98 379.371ZM211.395 381.246C210.223 381.246 209.203 380.98 208.336 380.449C207.469 379.91 206.797 379.164 206.32 378.211C205.852 377.258 205.617 376.156 205.617 374.906V374.391C205.617 373.188 205.863 372.113 206.355 371.168C206.855 370.215 207.516 369.465 208.336 368.918C209.164 368.363 210.066 368.086 211.043 368.086C212.184 368.086 213.137 368.32 213.902 368.789C214.676 369.258 215.258 369.918 215.648 370.77C216.039 371.613 216.234 372.609 216.234 373.758V375.199H208.008L207.973 375.258C207.988 376.07 208.129 376.793 208.395 377.426C208.668 378.051 209.059 378.543 209.566 378.902C210.074 379.262 210.684 379.441 211.395 379.441C212.176 379.441 212.859 379.332 213.445 379.113C214.039 378.887 214.551 378.578 214.98 378.188L215.883 379.688C215.43 380.125 214.828 380.496 214.078 380.801C213.336 381.098 212.441 381.246 211.395 381.246ZM208.078 373.395H213.926V373.09C213.926 372.48 213.816 371.938 213.598 371.461C213.387 370.977 213.066 370.598 212.637 370.324C212.215 370.043 211.684 369.902 211.043 369.902C210.527 369.902 210.059 370.055 209.637 370.359C209.215 370.656 208.867 371.062 208.594 371.578C208.32 372.094 208.141 372.68 208.055 373.336L208.078 373.395ZM218.016 381V379.523L219.926 379.195V370.137L218.016 369.809V368.32H221.988L222.188 369.938L222.211 370.16C222.57 369.512 223.012 369.004 223.535 368.637C224.066 368.27 224.672 368.086 225.352 368.086C225.594 368.086 225.84 368.109 226.09 368.156C226.348 368.195 226.531 368.234 226.641 368.273L226.336 370.418L224.73 370.324C224.121 370.285 223.609 370.426 223.195 370.746C222.781 371.059 222.461 371.48 222.234 372.012V379.195L224.145 379.523V381H218.016ZM233.672 385.875V384.387L235.465 384.059V370.137L233.555 369.809V368.32H237.445L237.656 369.867C238.078 369.289 238.59 368.848 239.191 368.543C239.801 368.238 240.504 368.086 241.301 368.086C242.348 368.086 243.242 368.371 243.984 368.941C244.727 369.504 245.293 370.297 245.684 371.32C246.074 372.336 246.27 373.527 246.27 374.895V375.141C246.27 376.359 246.07 377.426 245.672 378.34C245.281 379.254 244.719 379.969 243.984 380.484C243.25 380.992 242.367 381.246 241.336 381.246C240.555 381.246 239.867 381.117 239.273 380.859C238.688 380.594 238.188 380.203 237.773 379.688V384.059L239.789 384.387V385.875H233.672ZM240.621 379.441C241.715 379.441 242.543 379.043 243.105 378.246C243.668 377.449 243.949 376.414 243.949 375.141V374.895C243.949 373.926 243.824 373.074 243.574 372.34C243.324 371.598 242.949 371.016 242.449 370.594C241.957 370.172 241.34 369.961 240.598 369.961C239.941 369.961 239.379 370.109 238.91 370.406C238.441 370.703 238.062 371.109 237.773 371.625V377.801C238.062 378.324 238.438 378.73 238.898 379.02C239.367 379.301 239.941 379.441 240.621 379.441ZM254.262 381.246C253.09 381.246 252.078 380.973 251.227 380.426C250.383 379.871 249.73 379.109 249.27 378.141C248.809 377.164 248.578 376.051 248.578 374.801V374.543C248.578 373.293 248.809 372.184 249.27 371.215C249.73 370.238 250.383 369.473 251.227 368.918C252.078 368.363 253.082 368.086 254.238 368.086C255.41 368.086 256.418 368.363 257.262 368.918C258.113 369.473 258.77 370.234 259.23 371.203C259.691 372.172 259.922 373.285 259.922 374.543V374.801C259.922 376.059 259.691 377.176 259.23 378.152C258.77 379.121 258.117 379.879 257.273 380.426C256.43 380.973 255.426 381.246 254.262 381.246ZM254.262 379.441C254.996 379.441 255.609 379.242 256.102 378.844C256.602 378.438 256.977 377.887 257.227 377.191C257.484 376.488 257.613 375.691 257.613 374.801V374.543C257.613 373.652 257.484 372.859 257.227 372.164C256.977 371.461 256.602 370.91 256.102 370.512C255.602 370.105 254.98 369.902 254.238 369.902C253.504 369.902 252.887 370.105 252.387 370.512C251.887 370.91 251.512 371.461 251.262 372.164C251.012 372.859 250.887 373.652 250.887 374.543V374.801C250.887 375.691 251.012 376.488 251.262 377.191C251.512 377.887 251.887 378.438 252.387 378.844C252.895 379.242 253.52 379.441 254.262 379.441ZM261.352 385.875V384.387L263.145 384.059V370.137L261.234 369.809V368.32H265.125L265.336 369.867C265.758 369.289 266.27 368.848 266.871 368.543C267.48 368.238 268.184 368.086 268.98 368.086C270.027 368.086 270.922 368.371 271.664 368.941C272.406 369.504 272.973 370.297 273.363 371.32C273.754 372.336 273.949 373.527 273.949 374.895V375.141C273.949 376.359 273.75 377.426 273.352 378.34C272.961 379.254 272.398 379.969 271.664 380.484C270.93 380.992 270.047 381.246 269.016 381.246C268.234 381.246 267.547 381.117 266.953 380.859C266.367 380.594 265.867 380.203 265.453 379.688V384.059L267.469 384.387V385.875H261.352ZM268.301 379.441C269.395 379.441 270.223 379.043 270.785 378.246C271.348 377.449 271.629 376.414 271.629 375.141V374.895C271.629 373.926 271.504 373.074 271.254 372.34C271.004 371.598 270.629 371.016 270.129 370.594C269.637 370.172 269.02 369.961 268.277 369.961C267.621 369.961 267.059 370.109 266.59 370.406C266.121 370.703 265.742 371.109 265.453 371.625V377.801C265.742 378.324 266.117 378.73 266.578 379.02C267.047 379.301 267.621 379.441 268.301 379.441ZM281.32 381.246C279.945 381.246 278.871 380.805 278.098 379.922C277.324 379.039 276.938 377.664 276.938 375.797V370.137L275.484 369.809V368.32H276.938H279.246V375.82C279.246 377.172 279.445 378.102 279.844 378.609C280.242 379.117 280.863 379.371 281.707 379.371C282.527 379.371 283.203 379.207 283.734 378.879C284.273 378.543 284.68 378.07 284.953 377.461V370.137L283.254 369.809V368.32H284.953H287.262V379.195L288.715 379.523V381H285.188L285.035 379.125C284.637 379.805 284.121 380.328 283.488 380.695C282.863 381.062 282.141 381.246 281.32 381.246ZM289.992 385.875V384.387L291.785 384.059V370.137L289.875 369.809V368.32H293.766L293.977 369.867C294.398 369.289 294.91 368.848 295.512 368.543C296.121 368.238 296.824 368.086 297.621 368.086C298.668 368.086 299.562 368.371 300.305 368.941C301.047 369.504 301.613 370.297 302.004 371.32C302.395 372.336 302.59 373.527 302.59 374.895V375.141C302.59 376.359 302.391 377.426 301.992 378.34C301.602 379.254 301.039 379.969 300.305 380.484C299.57 380.992 298.688 381.246 297.656 381.246C296.875 381.246 296.188 381.117 295.594 380.859C295.008 380.594 294.508 380.203 294.094 379.688V384.059L296.109 384.387V385.875H289.992ZM296.941 379.441C298.035 379.441 298.863 379.043 299.426 378.246C299.988 377.449 300.27 376.414 300.27 375.141V374.895C300.27 373.926 300.145 373.074 299.895 372.34C299.645 371.598 299.27 371.016 298.77 370.594C298.277 370.172 297.66 369.961 296.918 369.961C296.262 369.961 295.699 370.109 295.23 370.406C294.762 370.703 294.383 371.109 294.094 371.625V377.801C294.383 378.324 294.758 378.73 295.219 379.02C295.688 379.301 296.262 379.441 296.941 379.441Z" fill="black" fill-opacity="0.36"/>
<path d="M971.082 381.246C969.934 381.246 968.934 380.98 968.082 380.449C967.23 379.91 966.57 379.164 966.102 378.211C965.633 377.258 965.398 376.156 965.398 374.906V374.414C965.398 373.211 965.625 372.133 966.078 371.18C966.531 370.227 967.184 369.473 968.035 368.918C968.887 368.363 969.902 368.086 971.082 368.086C972.105 368.086 973 368.254 973.766 368.59C974.539 368.926 975.188 369.387 975.711 369.973L975.77 373.02H973.965L973.566 370.805C973.301 370.531 972.969 370.312 972.57 370.148C972.172 369.984 971.703 369.902 971.164 369.902C970.477 369.902 969.871 370.105 969.348 370.512C968.832 370.918 968.43 371.461 968.141 372.141C967.852 372.82 967.707 373.578 967.707 374.414V374.906C967.707 375.828 967.84 376.629 968.105 377.309C968.379 377.988 968.766 378.516 969.266 378.891C969.773 379.258 970.375 379.441 971.07 379.441C971.852 379.441 972.5 379.227 973.016 378.797C973.531 378.367 973.848 377.777 973.965 377.027H976.039L976.062 377.098C976.023 377.824 975.809 378.504 975.418 379.137C975.027 379.77 974.469 380.281 973.742 380.672C973.023 381.055 972.137 381.246 971.082 381.246ZM983.902 381.246C982.73 381.246 981.719 380.973 980.867 380.426C980.023 379.871 979.371 379.109 978.91 378.141C978.449 377.164 978.219 376.051 978.219 374.801V374.543C978.219 373.293 978.449 372.184 978.91 371.215C979.371 370.238 980.023 369.473 980.867 368.918C981.719 368.363 982.723 368.086 983.879 368.086C985.051 368.086 986.059 368.363 986.902 368.918C987.754 369.473 988.41 370.234 988.871 371.203C989.332 372.172 989.562 373.285 989.562 374.543V374.801C989.562 376.059 989.332 377.176 988.871 378.152C988.41 379.121 987.758 379.879 986.914 380.426C986.07 380.973 985.066 381.246 983.902 381.246ZM983.902 379.441C984.637 379.441 985.25 379.242 985.742 378.844C986.242 378.438 986.617 377.887 986.867 377.191C987.125 376.488 987.254 375.691 987.254 374.801V374.543C987.254 373.652 987.125 372.859 986.867 372.164C986.617 371.461 986.242 370.91 985.742 370.512C985.242 370.105 984.621 369.902 983.879 369.902C983.145 369.902 982.527 370.105 982.027 370.512C981.527 370.91 981.152 371.461 980.902 372.164C980.652 372.859 980.527 373.652 980.527 374.543V374.801C980.527 375.691 980.652 376.488 980.902 377.191C981.152 377.887 981.527 378.438 982.027 378.844C982.535 379.242 983.16 379.441 983.902 379.441ZM991.344 381V379.523L993.254 379.195V370.137L991.344 369.809V368.32H995.316L995.48 370.207C995.902 369.535 996.43 369.016 997.062 368.648C997.703 368.273 998.43 368.086 999.242 368.086C1000.61 368.086 1001.67 368.488 1002.42 369.293C1003.17 370.09 1003.54 371.324 1003.54 372.996V379.195L1005.45 379.523V381H999.324V379.523L1001.23 379.195V373.043C1001.23 371.926 1001.01 371.133 1000.57 370.664C1000.13 370.195 999.457 369.961 998.551 369.961C997.887 369.961 997.297 370.121 996.781 370.441C996.273 370.762 995.867 371.199 995.562 371.754V379.195L997.473 379.523V381H991.344ZM1011.1 381.199C1010.16 381.199 1009.42 380.926 1008.86 380.379C1008.32 379.824 1008.04 378.941 1008.04 377.73V370.031H1006.04V368.32H1008.04V365.262H1010.35V368.32H1013.11V370.031H1010.35V377.73C1010.35 378.34 1010.47 378.789 1010.71 379.078C1010.96 379.367 1011.28 379.512 1011.69 379.512C1011.96 379.512 1012.27 379.488 1012.6 379.441C1012.94 379.387 1013.2 379.34 1013.39 379.301L1013.7 380.812C1013.37 380.914 1012.95 381.004 1012.46 381.082C1011.98 381.16 1011.52 381.199 1011.1 381.199ZM1020.72 381.246C1019.55 381.246 1018.53 380.98 1017.66 380.449C1016.8 379.91 1016.12 379.164 1015.65 378.211C1015.18 377.258 1014.95 376.156 1014.95 374.906V374.391C1014.95 373.188 1015.19 372.113 1015.68 371.168C1016.18 370.215 1016.84 369.465 1017.66 368.918C1018.49 368.363 1019.39 368.086 1020.37 368.086C1021.51 368.086 1022.46 368.32 1023.23 368.789C1024 369.258 1024.59 369.918 1024.98 370.77C1025.37 371.613 1025.56 372.609 1025.56 373.758V375.199H1017.34L1017.3 375.258C1017.32 376.07 1017.46 376.793 1017.72 377.426C1018 378.051 1018.39 378.543 1018.89 378.902C1019.4 379.262 1020.01 379.441 1020.72 379.441C1021.5 379.441 1022.19 379.332 1022.77 379.113C1023.37 378.887 1023.88 378.578 1024.31 378.188L1025.21 379.688C1024.76 380.125 1024.16 380.496 1023.41 380.801C1022.66 381.098 1021.77 381.246 1020.72 381.246ZM1017.41 373.395H1023.25V373.09C1023.25 372.48 1023.14 371.938 1022.93 371.461C1022.71 370.977 1022.39 370.598 1021.96 370.324C1021.54 370.043 1021.01 369.902 1020.37 369.902C1019.86 369.902 1019.39 370.055 1018.96 370.359C1018.54 370.656 1018.2 371.062 1017.92 371.578C1017.65 372.094 1017.47 372.68 1017.38 373.336L1017.41 373.395ZM1027.37 381V379.523L1029.28 379.195V370.137L1027.37 369.809V368.32H1031.34L1031.5 370.207C1031.93 369.535 1032.45 369.016 1033.09 368.648C1033.73 368.273 1034.45 368.086 1035.27 368.086C1036.63 368.086 1037.69 368.488 1038.44 369.293C1039.19 370.09 1039.57 371.324 1039.57 372.996V379.195L1041.48 379.523V381H1035.35V379.523L1037.26 379.195V373.043C1037.26 371.926 1037.04 371.133 1036.59 370.664C1036.15 370.195 1035.48 369.961 1034.57 369.961C1033.91 369.961 1033.32 370.121 1032.8 370.441C1032.3 370.762 1031.89 371.199 1031.59 371.754V379.195L1033.5 379.523V381H1027.37ZM1047.12 381.199C1046.19 381.199 1045.44 380.926 1044.89 380.379C1044.34 379.824 1044.07 378.941 1044.07 377.73V370.031H1042.06V368.32H1044.07V365.262H1046.38V368.32H1049.13V370.031H1046.38V377.73C1046.38 378.34 1046.5 378.789 1046.74 379.078C1046.98 379.367 1047.3 379.512 1047.71 379.512C1047.98 379.512 1048.29 379.488 1048.62 379.441C1048.96 379.387 1049.22 379.34 1049.41 379.301L1049.73 380.812C1049.39 380.914 1048.98 381.004 1048.48 381.082C1048 381.16 1047.55 381.199 1047.12 381.199ZM1062.76 381.246C1061.38 381.246 1060.31 380.805 1059.54 379.922C1058.76 379.039 1058.38 377.664 1058.38 375.797V370.137L1056.92 369.809V368.32H1058.38H1060.68V375.82C1060.68 377.172 1060.88 378.102 1061.28 378.609C1061.68 379.117 1062.3 379.371 1063.14 379.371C1063.96 379.371 1064.64 379.207 1065.17 378.879C1065.71 378.543 1066.12 378.07 1066.39 377.461V370.137L1064.69 369.809V368.32H1066.39H1068.7V379.195L1070.15 379.523V381H1066.62L1066.47 379.125C1066.07 379.805 1065.56 380.328 1064.93 380.695C1064.3 381.062 1063.58 381.246 1062.76 381.246ZM1071.78 381V379.523L1073.69 379.195V370.137L1071.78 369.809V368.32H1075.75L1075.92 370.207C1076.34 369.535 1076.87 369.016 1077.5 368.648C1078.14 368.273 1078.87 368.086 1079.68 368.086C1081.05 368.086 1082.11 368.488 1082.86 369.293C1083.61 370.09 1083.98 371.324 1083.98 372.996V379.195L1085.89 379.523V381H1079.76V379.523L1081.67 379.195V373.043C1081.67 371.926 1081.45 371.133 1081 370.664C1080.57 370.195 1079.89 369.961 1078.99 369.961C1078.32 369.961 1077.73 370.121 1077.22 370.441C1076.71 370.762 1076.3 371.199 1076 371.754V379.195L1077.91 379.523V381H1071.78ZM1092.39 381.246C1091.36 381.246 1090.48 380.992 1089.73 380.484C1089 379.969 1088.44 379.254 1088.05 378.34C1087.66 377.426 1087.46 376.359 1087.46 375.141V374.895C1087.46 373.535 1087.66 372.344 1088.05 371.32C1088.44 370.297 1089 369.504 1089.75 368.941C1090.49 368.371 1091.38 368.086 1092.42 368.086C1093.17 368.086 1093.83 368.227 1094.4 368.508C1094.98 368.781 1095.47 369.18 1095.88 369.703V364.535L1093.96 364.207V362.719H1095.88H1098.18V379.195L1100.09 379.523V381H1096.18L1095.99 379.488C1095.58 380.066 1095.07 380.504 1094.47 380.801C1093.88 381.098 1093.18 381.246 1092.39 381.246ZM1092.98 379.371C1093.67 379.371 1094.25 379.215 1094.71 378.902C1095.18 378.59 1095.57 378.148 1095.88 377.578V371.695C1095.58 371.164 1095.19 370.742 1094.71 370.43C1094.24 370.117 1093.67 369.961 1093 369.961C1092.27 369.961 1091.66 370.172 1091.19 370.594C1090.71 371.008 1090.36 371.586 1090.12 372.328C1089.89 373.062 1089.77 373.918 1089.77 374.895V375.141C1089.77 376.414 1090.03 377.438 1090.55 378.211C1091.08 378.984 1091.89 379.371 1092.98 379.371ZM1107.39 381.246C1106.22 381.246 1105.2 380.98 1104.34 380.449C1103.47 379.91 1102.8 379.164 1102.32 378.211C1101.85 377.258 1101.62 376.156 1101.62 374.906V374.391C1101.62 373.188 1101.86 372.113 1102.36 371.168C1102.86 370.215 1103.52 369.465 1104.34 368.918C1105.16 368.363 1106.07 368.086 1107.04 368.086C1108.18 368.086 1109.14 368.32 1109.9 368.789C1110.68 369.258 1111.26 369.918 1111.65 370.77C1112.04 371.613 1112.23 372.609 1112.23 373.758V375.199H1104.01L1103.97 375.258C1103.99 376.07 1104.13 376.793 1104.39 377.426C1104.67 378.051 1105.06 378.543 1105.57 378.902C1106.07 379.262 1106.68 379.441 1107.39 379.441C1108.18 379.441 1108.86 379.332 1109.45 379.113C1110.04 378.887 1110.55 378.578 1110.98 378.188L1111.88 379.688C1111.43 380.125 1110.83 380.496 1110.08 380.801C1109.34 381.098 1108.44 381.246 1107.39 381.246ZM1104.08 373.395H1109.93V373.09C1109.93 372.48 1109.82 371.938 1109.6 371.461C1109.39 370.977 1109.07 370.598 1108.64 370.324C1108.21 370.043 1107.68 369.902 1107.04 369.902C1106.53 369.902 1106.06 370.055 1105.64 370.359C1105.21 370.656 1104.87 371.062 1104.59 371.578C1104.32 372.094 1104.14 372.68 1104.05 373.336L1104.08 373.395ZM1114.02 381V379.523L1115.93 379.195V370.137L1114.02 369.809V368.32H1117.99L1118.19 369.938L1118.21 370.16C1118.57 369.512 1119.01 369.004 1119.54 368.637C1120.07 368.27 1120.67 368.086 1121.35 368.086C1121.59 368.086 1121.84 368.109 1122.09 368.156C1122.35 368.195 1122.53 368.234 1122.64 368.273L1122.34 370.418L1120.73 370.324C1120.12 370.285 1119.61 370.426 1119.2 370.746C1118.78 371.059 1118.46 371.48 1118.23 372.012V379.195L1120.14 379.523V381H1114.02ZM1129.67 385.875V384.387L1131.46 384.059V370.137L1129.55 369.809V368.32H1133.45L1133.66 369.867C1134.08 369.289 1134.59 368.848 1135.19 368.543C1135.8 368.238 1136.5 368.086 1137.3 368.086C1138.35 368.086 1139.24 368.371 1139.98 368.941C1140.73 369.504 1141.29 370.297 1141.68 371.32C1142.07 372.336 1142.27 373.527 1142.27 374.895V375.141C1142.27 376.359 1142.07 377.426 1141.67 378.34C1141.28 379.254 1140.72 379.969 1139.98 380.484C1139.25 380.992 1138.37 381.246 1137.34 381.246C1136.55 381.246 1135.87 381.117 1135.27 380.859C1134.69 380.594 1134.19 380.203 1133.77 379.688V384.059L1135.79 384.387V385.875H1129.67ZM1136.62 379.441C1137.71 379.441 1138.54 379.043 1139.11 378.246C1139.67 377.449 1139.95 376.414 1139.95 375.141V374.895C1139.95 373.926 1139.82 373.074 1139.57 372.34C1139.32 371.598 1138.95 371.016 1138.45 370.594C1137.96 370.172 1137.34 369.961 1136.6 369.961C1135.94 369.961 1135.38 370.109 1134.91 370.406C1134.44 370.703 1134.06 371.109 1133.77 371.625V377.801C1134.06 378.324 1134.44 378.73 1134.9 379.02C1135.37 379.301 1135.94 379.441 1136.62 379.441ZM1150.26 381.246C1149.09 381.246 1148.08 380.973 1147.23 380.426C1146.38 379.871 1145.73 379.109 1145.27 378.141C1144.81 377.164 1144.58 376.051 1144.58 374.801V374.543C1144.58 373.293 1144.81 372.184 1145.27 371.215C1145.73 370.238 1146.38 369.473 1147.23 368.918C1148.08 368.363 1149.08 368.086 1150.24 368.086C1151.41 368.086 1152.42 368.363 1153.26 368.918C1154.11 369.473 1154.77 370.234 1155.23 371.203C1155.69 372.172 1155.92 373.285 1155.92 374.543V374.801C1155.92 376.059 1155.69 377.176 1155.23 378.152C1154.77 379.121 1154.12 379.879 1153.27 380.426C1152.43 380.973 1151.43 381.246 1150.26 381.246ZM1150.26 379.441C1151 379.441 1151.61 379.242 1152.1 378.844C1152.6 378.438 1152.98 377.887 1153.23 377.191C1153.48 376.488 1153.61 375.691 1153.61 374.801V374.543C1153.61 373.652 1153.48 372.859 1153.23 372.164C1152.98 371.461 1152.6 370.91 1152.1 370.512C1151.6 370.105 1150.98 369.902 1150.24 369.902C1149.5 369.902 1148.89 370.105 1148.39 370.512C1147.89 370.91 1147.51 371.461 1147.26 372.164C1147.01 372.859 1146.89 373.652 1146.89 374.543V374.801C1146.89 375.691 1147.01 376.488 1147.26 377.191C1147.51 377.887 1147.89 378.438 1148.39 378.844C1148.89 379.242 1149.52 379.441 1150.26 379.441ZM1157.35 385.875V384.387L1159.14 384.059V370.137L1157.23 369.809V368.32H1161.12L1161.34 369.867C1161.76 369.289 1162.27 368.848 1162.87 368.543C1163.48 368.238 1164.18 368.086 1164.98 368.086C1166.03 368.086 1166.92 368.371 1167.66 368.941C1168.41 369.504 1168.97 370.297 1169.36 371.32C1169.75 372.336 1169.95 373.527 1169.95 374.895V375.141C1169.95 376.359 1169.75 377.426 1169.35 378.34C1168.96 379.254 1168.4 379.969 1167.66 380.484C1166.93 380.992 1166.05 381.246 1165.02 381.246C1164.23 381.246 1163.55 381.117 1162.95 380.859C1162.37 380.594 1161.87 380.203 1161.45 379.688V384.059L1163.47 384.387V385.875H1157.35ZM1164.3 379.441C1165.39 379.441 1166.22 379.043 1166.79 378.246C1167.35 377.449 1167.63 376.414 1167.63 375.141V374.895C1167.63 373.926 1167.5 373.074 1167.25 372.34C1167 371.598 1166.63 371.016 1166.13 370.594C1165.64 370.172 1165.02 369.961 1164.28 369.961C1163.62 369.961 1163.06 370.109 1162.59 370.406C1162.12 370.703 1161.74 371.109 1161.45 371.625V377.801C1161.74 378.324 1162.12 378.73 1162.58 379.02C1163.05 379.301 1163.62 379.441 1164.3 379.441ZM1177.32 381.246C1175.95 381.246 1174.87 380.805 1174.1 379.922C1173.32 379.039 1172.94 377.664 1172.94 375.797V370.137L1171.48 369.809V368.32H1172.94H1175.25V375.82C1175.25 377.172 1175.45 378.102 1175.84 378.609C1176.24 379.117 1176.86 379.371 1177.71 379.371C1178.53 379.371 1179.2 379.207 1179.73 378.879C1180.27 378.543 1180.68 378.07 1180.95 377.461V370.137L1179.25 369.809V368.32H1180.95H1183.26V379.195L1184.71 379.523V381H1181.19L1181.04 379.125C1180.64 379.805 1180.12 380.328 1179.49 380.695C1178.86 381.062 1178.14 381.246 1177.32 381.246ZM1185.99 385.875V384.387L1187.79 384.059V370.137L1185.88 369.809V368.32H1189.77L1189.98 369.867C1190.4 369.289 1190.91 368.848 1191.51 368.543C1192.12 368.238 1192.82 368.086 1193.62 368.086C1194.67 368.086 1195.56 368.371 1196.3 368.941C1197.05 369.504 1197.61 370.297 1198 371.32C1198.39 372.336 1198.59 373.527 1198.59 374.895V375.141C1198.59 376.359 1198.39 377.426 1197.99 378.34C1197.6 379.254 1197.04 379.969 1196.3 380.484C1195.57 380.992 1194.69 381.246 1193.66 381.246C1192.88 381.246 1192.19 381.117 1191.59 380.859C1191.01 380.594 1190.51 380.203 1190.09 379.688V384.059L1192.11 384.387V385.875H1185.99ZM1192.94 379.441C1194.04 379.441 1194.86 379.043 1195.43 378.246C1195.99 377.449 1196.27 376.414 1196.27 375.141V374.895C1196.27 373.926 1196.14 373.074 1195.89 372.34C1195.64 371.598 1195.27 371.016 1194.77 370.594C1194.28 370.172 1193.66 369.961 1192.92 369.961C1192.26 369.961 1191.7 370.109 1191.23 370.406C1190.76 370.703 1190.38 371.109 1190.09 371.625V377.801C1190.38 378.324 1190.76 378.73 1191.22 379.02C1191.69 379.301 1192.26 379.441 1192.94 379.441Z" fill="black" fill-opacity="0.36"/>
<rect width="1280" height="64" fill="#C4C4C4"/>
<path d="M18.75 41.5H47.25V38.3333H18.75V41.5ZM18.75 33.5833H47.25V30.4167H18.75V33.5833ZM18.75 22.5V25.6667H47.25V22.5H18.75Z" fill="black"/>
<path d="M1247 16.1667C1238.26 16.1667 1231.17 23.2601 1231.17 32.0001C1231.17 40.7401 1238.26 47.8334 1247 47.8334C1255.74 47.8334 1262.83 40.7401 1262.83 32.0001C1262.83 23.2601 1255.74 16.1667 1247 16.1667ZM1239.19 41.9434C1239.88 40.5184 1244.02 39.1251 1247 39.1251C1249.98 39.1251 1254.14 40.5184 1254.81 41.9434C1252.65 43.6534 1249.95 44.6668 1247 44.6668C1244.06 44.6668 1241.35 43.6534 1239.19 41.9434ZM1257.07 39.6476C1254.81 36.8926 1249.31 35.9584 1247 35.9584C1244.69 35.9584 1239.19 36.8926 1236.93 39.6476C1235.32 37.5259 1234.33 34.8818 1234.33 32.0001C1234.33 25.0176 1240.02 19.3334 1247 19.3334C1253.98 19.3334 1259.67 25.0176 1259.67 32.0001C1259.67 34.8818 1258.69 37.5259 1257.07 39.6476ZM1247 22.5001C1243.93 22.5001 1241.46 24.9701 1241.46 28.0417C1241.46 31.1134 1243.93 33.5834 1247 33.5834C1250.07 33.5834 1252.54 31.1134 1252.54 28.0417C1252.54 24.9701 1250.07 22.5001 1247 22.5001ZM1247 30.4167C1245.69 30.4167 1244.63 29.3559 1244.63 28.0417C1244.63 26.7276 1245.69 25.6667 1247 25.6667C1248.31 25.6667 1249.38 26.7276 1249.38 28.0417C1249.38 29.3559 1248.31 30.4167 1247 30.4167Z" fill="black"/>
<defs>
<filter id="filter0_d_7_2" x="538" y="456" width="204" height="66" filterUnits="userSpaceOnUse" color-interpolation-filters="sRGB">
<feFlood flood-opacity="0" result="BackgroundImageFix"/>
<feColorMatrix in="SourceAlpha" type="matrix" values="0 0 0 0 0 0 0 0 0 0 0 0 0 0 0 0 0 0 127 0" result="hardAlpha"/>
<feOffset dy="4"/>
<feGaussianBlur stdDeviation="2"/>
<feComposite in2="hardAlpha" operator="out"/>
<feColorMatrix type="matrix" values="0 0 0 0 0 0 0 0 0 0 0 0 0 0 0 0 0 0 0.25 0"/>
<feBlend mode="normal" in2="BackgroundImageFix" result="effect1_dropShadow_7_2"/>
<feBlend mode="normal" in="SourceGraphic" in2="effect1_dropShadow_7_2" result="shape"/>
</filter>
</defs>
</svg>
