<svg width="1280" height="720" viewBox="0 0 1280 720" fill="none" xmlns="http://www.w3.org/2000/svg">
<rect width="1280" height="720" fill="white"/>
<rect x="382" y="98" width="516" height="528" rx="14" fill="white" stroke="black" stroke-width="2"/>
<mask id="path-3-inside-1_8_54" fill="white">
<path d="M381 113C381 104.716 387.716 98 396 98H884C892.284 98 899 104.716 899 113V133C899 141.284 892.284 148 884 148H640H396C387.716 148 381 141.284 381 133V113Z"/>
</mask>
<path d="M381 113C381 104.716 387.716 98 396 98H884C892.284 98 899 104.716 899 113V133C899 141.284 892.284 148 884 148H640H396C387.716 148 381 141.284 381 133V113Z" fill="white"/>
<path d="M396 100H884V96H396V100ZM897 113V133H901V113H897ZM383 133V113H379V133H383ZM884 146H640V150H884V146ZM640 146H396V150H640V146ZM379 133C379 142.389 386.611 150 396 150V146C388.82 146 383 140.18 383 133H379ZM897 133C897 140.18 891.18 146 884 146V150C893.389 150 901 142.389 901 133H897ZM884 100C891.18 100 897 105.82 897 113H901C901 103.611 893.389 96 884 96V100ZM396 96C386.611 96 379 103.611 379 113H383C383 105.82 388.82 100 396 100V96Z" fill="black" mask="url(#path-3-inside-1_8_54)"/>
<path d="M562.399 132.802C560.688 132.802 559.258 132.427 558.11 131.677C556.969 130.927 556.11 129.899 555.531 128.595C554.961 127.29 554.676 125.809 554.676 124.153V123.907C554.676 122.235 554.977 120.751 555.578 119.454C556.18 118.149 557.043 117.122 558.168 116.372C559.293 115.622 560.637 115.247 562.199 115.247C563.301 115.247 564.309 115.419 565.223 115.763C566.137 116.106 566.895 116.544 567.496 117.075V120.755H565.656L565.41 118.059C565.16 117.864 564.871 117.7 564.543 117.567C564.223 117.434 563.863 117.333 563.465 117.263C563.074 117.192 562.649 117.157 562.188 117.157C561.07 117.157 560.125 117.446 559.352 118.024C558.578 118.595 557.992 119.384 557.594 120.391C557.195 121.399 556.996 122.563 556.996 123.884V124.153C556.996 125.583 557.207 126.806 557.629 127.821C558.059 128.829 558.68 129.599 559.492 130.13C560.313 130.661 561.309 130.927 562.481 130.927C563.028 130.927 563.563 130.86 564.086 130.727C564.61 130.595 565.043 130.423 565.387 130.212L565.645 127.833H567.449V131.536C566.809 131.934 566.043 132.247 565.153 132.474C564.262 132.692 563.344 132.802 562.399 132.802ZM569.699 132.556V131.079L571.61 130.751V121.692L569.699 121.364V119.876H573.672L573.871 121.493L573.895 121.716C574.254 121.067 574.695 120.559 575.219 120.192C575.75 119.825 576.356 119.641 577.035 119.641C577.278 119.641 577.524 119.665 577.774 119.712C578.031 119.751 578.215 119.79 578.324 119.829L578.02 121.974L576.414 121.88C575.805 121.841 575.293 121.981 574.879 122.302C574.465 122.614 574.145 123.036 573.918 123.567V130.751L575.828 131.079V132.556H569.699ZM585.274 132.802C584.102 132.802 583.082 132.536 582.215 132.005C581.348 131.466 580.676 130.72 580.199 129.766C579.731 128.813 579.496 127.712 579.496 126.462V125.946C579.496 124.743 579.742 123.669 580.235 122.724C580.735 121.77 581.395 121.02 582.215 120.474C583.043 119.919 583.945 119.641 584.922 119.641C586.063 119.641 587.016 119.876 587.781 120.345C588.555 120.813 589.137 121.474 589.528 122.325C589.918 123.169 590.113 124.165 590.113 125.313V126.755H581.887L581.852 126.813C581.867 127.626 582.008 128.349 582.274 128.981C582.547 129.606 582.938 130.099 583.445 130.458C583.953 130.817 584.563 130.997 585.274 130.997C586.055 130.997 586.738 130.888 587.324 130.669C587.918 130.442 588.43 130.134 588.86 129.743L589.762 131.243C589.309 131.681 588.707 132.052 587.957 132.356C587.215 132.653 586.32 132.802 585.274 132.802ZM581.957 124.95H587.805V124.645C587.805 124.036 587.695 123.493 587.477 123.016C587.266 122.532 586.945 122.153 586.516 121.88C586.094 121.599 585.563 121.458 584.922 121.458C584.406 121.458 583.938 121.61 583.516 121.915C583.094 122.212 582.746 122.618 582.473 123.134C582.199 123.649 582.02 124.235 581.934 124.891L581.957 124.95ZM596.207 132.802C594.887 132.802 593.883 132.481 593.195 131.841C592.508 131.192 592.164 130.282 592.164 129.11C592.164 128.306 592.383 127.606 592.82 127.013C593.266 126.411 593.906 125.946 594.742 125.618C595.578 125.282 596.578 125.114 597.742 125.114H600.004V123.872C600.004 123.106 599.77 122.513 599.301 122.091C598.84 121.669 598.188 121.458 597.344 121.458C596.813 121.458 596.352 121.524 595.961 121.657C595.57 121.782 595.215 121.958 594.895 122.184L594.649 123.954H592.867V121.048C593.438 120.587 594.102 120.239 594.86 120.005C595.617 119.763 596.457 119.641 597.379 119.641C598.918 119.641 600.125 120.009 601 120.743C601.875 121.477 602.313 122.528 602.313 123.895V130.001C602.313 130.165 602.313 130.325 602.313 130.481C602.32 130.638 602.332 130.794 602.348 130.95L603.578 131.079V132.556H600.262C600.192 132.212 600.137 131.903 600.098 131.63C600.059 131.356 600.031 131.083 600.016 130.809C599.57 131.38 599.012 131.856 598.34 132.239C597.676 132.614 596.965 132.802 596.207 132.802ZM596.547 130.868C597.313 130.868 598.012 130.684 598.645 130.317C599.278 129.95 599.731 129.509 600.004 128.993V126.696H597.66C596.598 126.696 595.801 126.95 595.27 127.458C594.738 127.966 594.473 128.532 594.473 129.157C594.473 129.712 594.645 130.138 594.988 130.434C595.332 130.724 595.852 130.868 596.547 130.868ZM609.848 132.755C608.91 132.755 608.164 132.481 607.61 131.934C607.063 131.38 606.789 130.497 606.789 129.286V121.587H604.785V119.876H606.789V116.817H609.098V119.876H611.852V121.587H609.098V129.286C609.098 129.895 609.219 130.345 609.461 130.634C609.703 130.923 610.028 131.067 610.434 131.067C610.707 131.067 611.012 131.044 611.348 130.997C611.684 130.942 611.945 130.895 612.133 130.856L612.449 132.368C612.113 132.47 611.699 132.559 611.207 132.638C610.723 132.716 610.27 132.755 609.848 132.755ZM619.469 132.802C618.297 132.802 617.278 132.536 616.41 132.005C615.543 131.466 614.871 130.72 614.395 129.766C613.926 128.813 613.692 127.712 613.692 126.462V125.946C613.692 124.743 613.938 123.669 614.43 122.724C614.93 121.77 615.59 121.02 616.41 120.474C617.238 119.919 618.141 119.641 619.117 119.641C620.258 119.641 621.211 119.876 621.977 120.345C622.75 120.813 623.332 121.474 623.723 122.325C624.113 123.169 624.309 124.165 624.309 125.313V126.755H616.082L616.047 126.813C616.063 127.626 616.203 128.349 616.469 128.981C616.742 129.606 617.133 130.099 617.641 130.458C618.149 130.817 618.758 130.997 619.469 130.997C620.25 130.997 620.934 130.888 621.52 130.669C622.113 130.442 622.625 130.134 623.055 129.743L623.957 131.243C623.504 131.681 622.903 132.052 622.153 132.356C621.41 132.653 620.516 132.802 619.469 132.802ZM616.153 124.95H622V124.645C622 124.036 621.891 123.493 621.672 123.016C621.461 122.532 621.141 122.153 620.711 121.88C620.289 121.599 619.758 121.458 619.117 121.458C618.602 121.458 618.133 121.61 617.711 121.915C617.289 122.212 616.942 122.618 616.668 123.134C616.395 123.649 616.215 124.235 616.129 124.891L616.153 124.95ZM632.043 132.556V131.079L633.309 130.903L639.274 115.493H641.254L647.113 130.903L648.367 131.079V132.556H643.469V131.079L644.758 130.856L643.633 127.716H636.801L635.641 130.856L636.93 131.079V132.556H632.043ZM637.516 125.782H642.93L640.422 118.845L640.281 118.458H640.211L640.07 118.845L637.516 125.782ZM655.445 132.802C654.297 132.802 653.297 132.536 652.445 132.005C651.594 131.466 650.934 130.72 650.465 129.766C649.996 128.813 649.762 127.712 649.762 126.462V125.97C649.762 124.766 649.988 123.688 650.442 122.735C650.895 121.782 651.547 121.028 652.399 120.474C653.25 119.919 654.266 119.641 655.445 119.641C656.469 119.641 657.363 119.809 658.129 120.145C658.903 120.481 659.551 120.942 660.074 121.528L660.133 124.575H658.328L657.93 122.36C657.664 122.087 657.332 121.868 656.934 121.704C656.535 121.54 656.067 121.458 655.528 121.458C654.84 121.458 654.235 121.661 653.711 122.067C653.195 122.474 652.793 123.016 652.504 123.696C652.215 124.376 652.07 125.134 652.07 125.97V126.462C652.07 127.384 652.203 128.184 652.469 128.864C652.742 129.544 653.129 130.071 653.629 130.446C654.137 130.813 654.738 130.997 655.434 130.997C656.215 130.997 656.863 130.782 657.379 130.352C657.895 129.923 658.211 129.333 658.328 128.583H660.403L660.426 128.653C660.387 129.38 660.172 130.059 659.781 130.692C659.391 131.325 658.832 131.837 658.106 132.227C657.387 132.61 656.5 132.802 655.445 132.802ZM668.43 132.802C667.281 132.802 666.281 132.536 665.43 132.005C664.578 131.466 663.918 130.72 663.449 129.766C662.981 128.813 662.746 127.712 662.746 126.462V125.97C662.746 124.766 662.973 123.688 663.426 122.735C663.879 121.782 664.531 121.028 665.383 120.474C666.235 119.919 667.25 119.641 668.43 119.641C669.453 119.641 670.348 119.809 671.113 120.145C671.887 120.481 672.535 120.942 673.059 121.528L673.117 124.575H671.313L670.914 122.36C670.649 122.087 670.317 121.868 669.918 121.704C669.52 121.54 669.051 121.458 668.512 121.458C667.824 121.458 667.219 121.661 666.695 122.067C666.18 122.474 665.778 123.016 665.488 123.696C665.199 124.376 665.055 125.134 665.055 125.97V126.462C665.055 127.384 665.188 128.184 665.453 128.864C665.727 129.544 666.113 130.071 666.613 130.446C667.121 130.813 667.723 130.997 668.418 130.997C669.199 130.997 669.848 130.782 670.363 130.352C670.879 129.923 671.195 129.333 671.313 128.583H673.387L673.41 128.653C673.371 129.38 673.156 130.059 672.766 130.692C672.375 131.325 671.817 131.837 671.09 132.227C670.371 132.61 669.485 132.802 668.43 132.802ZM681.25 132.802C680.078 132.802 679.067 132.528 678.215 131.981C677.371 131.427 676.719 130.665 676.258 129.696C675.797 128.72 675.567 127.606 675.567 126.356V126.099C675.567 124.849 675.797 123.739 676.258 122.77C676.719 121.794 677.371 121.028 678.215 120.474C679.067 119.919 680.07 119.641 681.227 119.641C682.399 119.641 683.406 119.919 684.25 120.474C685.102 121.028 685.758 121.79 686.219 122.759C686.68 123.727 686.91 124.841 686.91 126.099V126.356C686.91 127.614 686.68 128.731 686.219 129.708C685.758 130.677 685.106 131.434 684.262 131.981C683.418 132.528 682.414 132.802 681.25 132.802ZM681.25 130.997C681.985 130.997 682.598 130.798 683.09 130.399C683.59 129.993 683.965 129.442 684.215 128.747C684.473 128.044 684.602 127.247 684.602 126.356V126.099C684.602 125.208 684.473 124.415 684.215 123.72C683.965 123.016 683.59 122.466 683.09 122.067C682.59 121.661 681.969 121.458 681.227 121.458C680.492 121.458 679.875 121.661 679.375 122.067C678.875 122.466 678.5 123.016 678.25 123.72C678 124.415 677.875 125.208 677.875 126.099V126.356C677.875 127.247 678 128.044 678.25 128.747C678.5 129.442 678.875 129.993 679.375 130.399C679.883 130.798 680.508 130.997 681.25 130.997ZM694.27 132.802C692.895 132.802 691.82 132.36 691.047 131.477C690.274 130.595 689.887 129.22 689.887 127.352V121.692L688.434 121.364V119.876H689.887H692.195V127.376C692.195 128.727 692.395 129.657 692.793 130.165C693.192 130.673 693.813 130.927 694.656 130.927C695.477 130.927 696.153 130.763 696.684 130.434C697.223 130.099 697.629 129.626 697.903 129.016V121.692L696.203 121.364V119.876H697.903H700.211V130.751L701.664 131.079V132.556H698.137L697.985 130.681C697.586 131.36 697.07 131.884 696.438 132.251C695.813 132.618 695.09 132.802 694.27 132.802ZM703.293 132.556V131.079L705.203 130.751V121.692L703.293 121.364V119.876H707.266L707.43 121.763C707.852 121.091 708.379 120.571 709.012 120.204C709.653 119.829 710.379 119.641 711.192 119.641C712.559 119.641 713.617 120.044 714.367 120.849C715.117 121.645 715.492 122.88 715.492 124.552V130.751L717.403 131.079V132.556H711.274V131.079L713.184 130.751V124.599C713.184 123.481 712.961 122.688 712.516 122.22C712.078 121.751 711.406 121.516 710.5 121.516C709.836 121.516 709.246 121.677 708.731 121.997C708.223 122.317 707.817 122.755 707.512 123.309V130.751L709.422 131.079V132.556H703.293ZM723.051 132.755C722.113 132.755 721.367 132.481 720.813 131.934C720.266 131.38 719.992 130.497 719.992 129.286V121.587H717.988V119.876H719.992V116.817H722.301V119.876H725.055V121.587H722.301V129.286C722.301 129.895 722.422 130.345 722.664 130.634C722.906 130.923 723.231 131.067 723.637 131.067C723.91 131.067 724.215 131.044 724.551 130.997C724.887 130.942 725.149 130.895 725.336 130.856L725.653 132.368C725.317 132.47 724.903 132.559 724.41 132.638C723.926 132.716 723.473 132.755 723.051 132.755Z" fill="black"/>
<rect x="408" y="233" width="465" height="49" rx="15" fill="#E8E8E8"/>
<path d="M421.059 266.246C419.887 266.246 418.867 265.98 418 265.449C417.133 264.91 416.461 264.164 415.984 263.211C415.516 262.258 415.281 261.156 415.281 259.906V259.391C415.281 258.188 415.527 257.113 416.02 256.168C416.52 255.215 417.18 254.465 418 253.918C418.828 253.363 419.73 253.086 420.707 253.086C421.848 253.086 422.801 253.32 423.566 253.789C424.34 254.258 424.922 254.918 425.312 255.77C425.703 256.613 425.898 257.609 425.898 258.758V260.199H417.672L417.637 260.258C417.652 261.07 417.793 261.793 418.059 262.426C418.332 263.051 418.723 263.543 419.23 263.902C419.738 264.262 420.348 264.441 421.059 264.441C421.84 264.441 422.523 264.332 423.109 264.113C423.703 263.887 424.215 263.578 424.645 263.188L425.547 264.688C425.094 265.125 424.492 265.496 423.742 265.801C423 266.098 422.105 266.246 421.059 266.246ZM417.742 258.395H423.59V258.09C423.59 257.48 423.48 256.938 423.262 256.461C423.051 255.977 422.73 255.598 422.301 255.324C421.879 255.043 421.348 254.902 420.707 254.902C420.191 254.902 419.723 255.055 419.301 255.359C418.879 255.656 418.531 256.062 418.258 256.578C417.984 257.094 417.805 257.68 417.719 258.336L417.742 258.395ZM427.703 266V264.523L429.613 264.195V255.137L427.703 254.809V253.32H431.688L431.84 254.973C432.246 254.371 432.77 253.906 433.41 253.578C434.051 253.25 434.793 253.086 435.637 253.086C436.48 253.086 437.203 253.281 437.805 253.672C438.414 254.062 438.871 254.648 439.176 255.43C439.574 254.711 440.102 254.141 440.758 253.719C441.414 253.297 442.18 253.086 443.055 253.086C444.352 253.086 445.375 253.531 446.125 254.422C446.875 255.305 447.25 256.637 447.25 258.418V264.195L449.16 264.523V266H443.02V264.523L444.93 264.195V258.395C444.93 257.145 444.715 256.262 444.285 255.746C443.855 255.223 443.219 254.961 442.375 254.961C441.57 254.961 440.922 255.246 440.43 255.816C439.945 256.379 439.664 257.09 439.586 257.949V264.195L441.496 264.523V266H435.367V264.523L437.277 264.195V258.395C437.277 257.207 437.055 256.34 436.609 255.793C436.172 255.238 435.535 254.961 434.699 254.961C433.996 254.961 433.418 255.105 432.965 255.395C432.512 255.684 432.164 256.09 431.922 256.613V264.195L433.832 264.523V266H427.703ZM454.984 266.246C453.664 266.246 452.66 265.926 451.973 265.285C451.285 264.637 450.941 263.727 450.941 262.555C450.941 261.75 451.16 261.051 451.598 260.457C452.043 259.855 452.684 259.391 453.52 259.062C454.355 258.727 455.355 258.559 456.52 258.559H458.781V257.316C458.781 256.551 458.547 255.957 458.078 255.535C457.617 255.113 456.965 254.902 456.121 254.902C455.59 254.902 455.129 254.969 454.738 255.102C454.348 255.227 453.992 255.402 453.672 255.629L453.426 257.398H451.645V254.492C452.215 254.031 452.879 253.684 453.637 253.449C454.395 253.207 455.234 253.086 456.156 253.086C457.695 253.086 458.902 253.453 459.777 254.188C460.652 254.922 461.09 255.973 461.09 257.34V263.445C461.09 263.609 461.09 263.77 461.09 263.926C461.098 264.082 461.109 264.238 461.125 264.395L462.355 264.523V266H459.039C458.969 265.656 458.914 265.348 458.875 265.074C458.836 264.801 458.809 264.527 458.793 264.254C458.348 264.824 457.789 265.301 457.117 265.684C456.453 266.059 455.742 266.246 454.984 266.246ZM455.324 264.312C456.09 264.312 456.789 264.129 457.422 263.762C458.055 263.395 458.508 262.953 458.781 262.438V260.141H456.438C455.375 260.141 454.578 260.395 454.047 260.902C453.516 261.41 453.25 261.977 453.25 262.602C453.25 263.156 453.422 263.582 453.766 263.879C454.109 264.168 454.629 264.312 455.324 264.312ZM464.066 266V264.523L465.977 264.195V255.137L464.066 254.809V253.32H468.285V264.195L470.195 264.523V266H464.066ZM465.859 250.191V247.719H468.285V250.191H465.859ZM471.672 266V264.523L473.582 264.195V249.535L471.672 249.207V247.719H475.891V264.195L477.801 264.523V266H471.672Z" fill="black" fill-opacity="0.35"/>
<rect x="527" y="367" width="345" height="49" rx="15" fill="#E8E8E8"/>
<path d="M539.859 404.875V403.387L541.652 403.059V389.137L539.742 388.809V387.32H543.633L543.844 388.867C544.266 388.289 544.777 387.848 545.379 387.543C545.988 387.238 546.691 387.086 547.488 387.086C548.535 387.086 549.43 387.371 550.172 387.941C550.914 388.504 551.48 389.297 551.871 390.32C552.262 391.336 552.457 392.527 552.457 393.895V394.141C552.457 395.359 552.258 396.426 551.859 397.34C551.469 398.254 550.906 398.969 550.172 399.484C549.438 399.992 548.555 400.246 547.523 400.246C546.742 400.246 546.055 400.117 545.461 399.859C544.875 399.594 544.375 399.203 543.961 398.688V403.059L545.977 403.387V404.875H539.859ZM546.809 398.441C547.902 398.441 548.73 398.043 549.293 397.246C549.855 396.449 550.137 395.414 550.137 394.141V393.895C550.137 392.926 550.012 392.074 549.762 391.34C549.512 390.598 549.137 390.016 548.637 389.594C548.145 389.172 547.527 388.961 546.785 388.961C546.129 388.961 545.566 389.109 545.098 389.406C544.629 389.703 544.25 390.109 543.961 390.625V396.801C544.25 397.324 544.625 397.73 545.086 398.02C545.555 398.301 546.129 398.441 546.809 398.441ZM553.84 400V398.523L555.75 398.195V383.535L553.84 383.207V381.719H558.059V389.008C558.496 388.398 559.031 387.926 559.664 387.59C560.297 387.254 561 387.086 561.773 387.086C563.133 387.086 564.188 387.492 564.938 388.305C565.688 389.117 566.062 390.367 566.062 392.055V398.195L567.973 398.523V400H561.844V398.523L563.754 398.195V392.031C563.754 390.984 563.527 390.211 563.074 389.711C562.629 389.211 561.961 388.961 561.07 388.961C560.438 388.961 559.859 389.113 559.336 389.418C558.82 389.715 558.395 390.121 558.059 390.637V398.195L559.969 398.523V400H553.84ZM575.098 400.246C573.926 400.246 572.914 399.973 572.062 399.426C571.219 398.871 570.566 398.109 570.105 397.141C569.645 396.164 569.414 395.051 569.414 393.801V393.543C569.414 392.293 569.645 391.184 570.105 390.215C570.566 389.238 571.219 388.473 572.062 387.918C572.914 387.363 573.918 387.086 575.074 387.086C576.246 387.086 577.254 387.363 578.098 387.918C578.949 388.473 579.605 389.234 580.066 390.203C580.527 391.172 580.758 392.285 580.758 393.543V393.801C580.758 395.059 580.527 396.176 580.066 397.152C579.605 398.121 578.953 398.879 578.109 399.426C577.266 399.973 576.262 400.246 575.098 400.246ZM575.098 398.441C575.832 398.441 576.445 398.242 576.938 397.844C577.438 397.438 577.812 396.887 578.062 396.191C578.32 395.488 578.449 394.691 578.449 393.801V393.543C578.449 392.652 578.32 391.859 578.062 391.164C577.812 390.461 577.438 389.91 576.938 389.512C576.438 389.105 575.816 388.902 575.074 388.902C574.34 388.902 573.723 389.105 573.223 389.512C572.723 389.91 572.348 390.461 572.098 391.164C571.848 391.859 571.723 392.652 571.723 393.543V393.801C571.723 394.691 571.848 395.488 572.098 396.191C572.348 396.887 572.723 397.438 573.223 397.844C573.73 398.242 574.355 398.441 575.098 398.441ZM582.539 400V398.523L584.449 398.195V389.137L582.539 388.809V387.32H586.512L586.676 389.207C587.098 388.535 587.625 388.016 588.258 387.648C588.898 387.273 589.625 387.086 590.438 387.086C591.805 387.086 592.863 387.488 593.613 388.293C594.363 389.09 594.738 390.324 594.738 391.996V398.195L596.648 398.523V400H590.52V398.523L592.43 398.195V392.043C592.43 390.926 592.207 390.133 591.762 389.664C591.324 389.195 590.652 388.961 589.746 388.961C589.082 388.961 588.492 389.121 587.977 389.441C587.469 389.762 587.062 390.199 586.758 390.754V398.195L588.668 398.523V400H582.539ZM603.879 400.246C602.707 400.246 601.688 399.98 600.82 399.449C599.953 398.91 599.281 398.164 598.805 397.211C598.336 396.258 598.102 395.156 598.102 393.906V393.391C598.102 392.188 598.348 391.113 598.84 390.168C599.34 389.215 600 388.465 600.82 387.918C601.648 387.363 602.551 387.086 603.527 387.086C604.668 387.086 605.621 387.32 606.387 387.789C607.16 388.258 607.742 388.918 608.133 389.77C608.523 390.613 608.719 391.609 608.719 392.758V394.199H600.492L600.457 394.258C600.473 395.07 600.613 395.793 600.879 396.426C601.152 397.051 601.543 397.543 602.051 397.902C602.559 398.262 603.168 398.441 603.879 398.441C604.66 398.441 605.344 398.332 605.93 398.113C606.523 397.887 607.035 397.578 607.465 397.188L608.367 398.688C607.914 399.125 607.312 399.496 606.562 399.801C605.82 400.098 604.926 400.246 603.879 400.246ZM600.562 392.395H606.41V392.09C606.41 391.48 606.301 390.938 606.082 390.461C605.871 389.977 605.551 389.598 605.121 389.324C604.699 389.043 604.168 388.902 603.527 388.902C603.012 388.902 602.543 389.055 602.121 389.359C601.699 389.656 601.352 390.062 601.078 390.578C600.805 391.094 600.625 391.68 600.539 392.336L600.562 392.395Z" fill="black" fill-opacity="0.35"/>
<rect x="407" y="367" width="111" height="49" rx="15" fill="#E8E8E8"/>
<path d="M431.301 399.289V393.91H426.602V391.824H431.301V386.867H433.609V391.824H438.297V393.91H433.609V399.289H431.301ZM445.668 401V399.523L447.578 399.195V397.062H439.914V395.762L447.438 383.938H449.875V395.258H452.23V397.062H449.875V399.195L451.785 399.523V401H445.668ZM442.375 395.258H447.578V387.23L447.508 387.207L447.273 387.828L442.375 395.258ZM454.234 401V399.418L459.824 393.207C460.488 392.465 461.008 391.832 461.383 391.309C461.758 390.777 462.02 390.297 462.168 389.867C462.316 389.438 462.391 388.992 462.391 388.531C462.391 387.68 462.133 386.965 461.617 386.387C461.102 385.801 460.363 385.508 459.402 385.508C458.402 385.508 457.621 385.809 457.059 386.41C456.504 387.012 456.227 387.863 456.227 388.965H454.012L453.988 388.895C453.965 387.91 454.172 387.027 454.609 386.246C455.047 385.457 455.68 384.836 456.508 384.383C457.344 383.922 458.336 383.691 459.484 383.691C460.562 383.691 461.488 383.898 462.262 384.312C463.043 384.719 463.645 385.277 464.066 385.988C464.488 386.699 464.699 387.516 464.699 388.438C464.699 389.062 464.574 389.684 464.324 390.301C464.082 390.918 463.723 391.551 463.246 392.199C462.777 392.848 462.211 393.531 461.547 394.25L457.059 399.137L457.082 399.195H463.141L463.328 397.238H465.285V401H454.234ZM467.781 401V399.523L470.418 399.195V386.41L467.734 386.457V385.016L472.727 383.938V399.195L475.352 399.523V401H467.781Z" fill="black" fill-opacity="0.35"/>
<rect x="408" y="166" width="465" height="49" rx="15" fill="#E8E8E8"/>
<path d="M415.152 199V197.523L417.062 197.195V188.137L415.152 187.809V186.32H419.125L419.289 188.207C419.711 187.535 420.238 187.016 420.871 186.648C421.512 186.273 422.238 186.086 423.051 186.086C424.418 186.086 425.477 186.488 426.227 187.293C426.977 188.09 427.352 189.324 427.352 190.996V197.195L429.262 197.523V199H423.133V197.523L425.043 197.195V191.043C425.043 189.926 424.82 189.133 424.375 188.664C423.938 188.195 423.266 187.961 422.359 187.961C421.695 187.961 421.105 188.121 420.59 188.441C420.082 188.762 419.676 189.199 419.371 189.754V197.195L421.281 197.523V199H415.152ZM435.004 199.246C433.684 199.246 432.68 198.926 431.992 198.285C431.305 197.637 430.961 196.727 430.961 195.555C430.961 194.75 431.18 194.051 431.617 193.457C432.062 192.855 432.703 192.391 433.539 192.062C434.375 191.727 435.375 191.559 436.539 191.559H438.801V190.316C438.801 189.551 438.566 188.957 438.098 188.535C437.637 188.113 436.984 187.902 436.141 187.902C435.609 187.902 435.148 187.969 434.758 188.102C434.367 188.227 434.012 188.402 433.691 188.629L433.445 190.398H431.664V187.492C432.234 187.031 432.898 186.684 433.656 186.449C434.414 186.207 435.254 186.086 436.176 186.086C437.715 186.086 438.922 186.453 439.797 187.188C440.672 187.922 441.109 188.973 441.109 190.34V196.445C441.109 196.609 441.109 196.77 441.109 196.926C441.117 197.082 441.129 197.238 441.145 197.395L442.375 197.523V199H439.059C438.988 198.656 438.934 198.348 438.895 198.074C438.855 197.801 438.828 197.527 438.812 197.254C438.367 197.824 437.809 198.301 437.137 198.684C436.473 199.059 435.762 199.246 435.004 199.246ZM435.344 197.312C436.109 197.312 436.809 197.129 437.441 196.762C438.074 196.395 438.527 195.953 438.801 195.438V193.141H436.457C435.395 193.141 434.598 193.395 434.066 193.902C433.535 194.41 433.27 194.977 433.27 195.602C433.27 196.156 433.441 196.582 433.785 196.879C434.129 197.168 434.648 197.312 435.344 197.312ZM444.168 199V197.523L446.078 197.195V188.137L444.168 187.809V186.32H448.152L448.305 187.973C448.711 187.371 449.234 186.906 449.875 186.578C450.516 186.25 451.258 186.086 452.102 186.086C452.945 186.086 453.668 186.281 454.27 186.672C454.879 187.062 455.336 187.648 455.641 188.43C456.039 187.711 456.566 187.141 457.223 186.719C457.879 186.297 458.645 186.086 459.52 186.086C460.816 186.086 461.84 186.531 462.59 187.422C463.34 188.305 463.715 189.637 463.715 191.418V197.195L465.625 197.523V199H459.484V197.523L461.395 197.195V191.395C461.395 190.145 461.18 189.262 460.75 188.746C460.32 188.223 459.684 187.961 458.84 187.961C458.035 187.961 457.387 188.246 456.895 188.816C456.41 189.379 456.129 190.09 456.051 190.949V197.195L457.961 197.523V199H451.832V197.523L453.742 197.195V191.395C453.742 190.207 453.52 189.34 453.074 188.793C452.637 188.238 452 187.961 451.164 187.961C450.461 187.961 449.883 188.105 449.43 188.395C448.977 188.684 448.629 189.09 448.387 189.613V197.195L450.297 197.523V199H444.168ZM472.938 199.246C471.766 199.246 470.746 198.98 469.879 198.449C469.012 197.91 468.34 197.164 467.863 196.211C467.395 195.258 467.16 194.156 467.16 192.906V192.391C467.16 191.188 467.406 190.113 467.898 189.168C468.398 188.215 469.059 187.465 469.879 186.918C470.707 186.363 471.609 186.086 472.586 186.086C473.727 186.086 474.68 186.32 475.445 186.789C476.219 187.258 476.801 187.918 477.191 188.77C477.582 189.613 477.777 190.609 477.777 191.758V193.199H469.551L469.516 193.258C469.531 194.07 469.672 194.793 469.938 195.426C470.211 196.051 470.602 196.543 471.109 196.902C471.617 197.262 472.227 197.441 472.938 197.441C473.719 197.441 474.402 197.332 474.988 197.113C475.582 196.887 476.094 196.578 476.523 196.188L477.426 197.688C476.973 198.125 476.371 198.496 475.621 198.801C474.879 199.098 473.984 199.246 472.938 199.246ZM469.621 191.395H475.469V191.09C475.469 190.48 475.359 189.938 475.141 189.461C474.93 188.977 474.609 188.598 474.18 188.324C473.758 188.043 473.227 187.902 472.586 187.902C472.07 187.902 471.602 188.055 471.18 188.359C470.758 188.656 470.41 189.062 470.137 189.578C469.863 190.094 469.684 190.68 469.598 191.336L469.621 191.395Z" fill="black" fill-opacity="0.35"/>
<rect x="407" y="300" width="465" height="49" rx="15" fill="#E8E8E8"/>
<path d="M418.207 337.875V336.387L420 336.059V322.137L418.09 321.809V320.32H421.98L422.191 321.867C422.613 321.289 423.125 320.848 423.727 320.543C424.336 320.238 425.039 320.086 425.836 320.086C426.883 320.086 427.777 320.371 428.52 320.941C429.262 321.504 429.828 322.297 430.219 323.32C430.609 324.336 430.805 325.527 430.805 326.895V327.141C430.805 328.359 430.605 329.426 430.207 330.34C429.816 331.254 429.254 331.969 428.52 332.484C427.785 332.992 426.902 333.246 425.871 333.246C425.09 333.246 424.402 333.117 423.809 332.859C423.223 332.594 422.723 332.203 422.309 331.688V336.059L424.324 336.387V337.875H418.207ZM425.156 331.441C426.25 331.441 427.078 331.043 427.641 330.246C428.203 329.449 428.484 328.414 428.484 327.141V326.895C428.484 325.926 428.359 325.074 428.109 324.34C427.859 323.598 427.484 323.016 426.984 322.594C426.492 322.172 425.875 321.961 425.133 321.961C424.477 321.961 423.914 322.109 423.445 322.406C422.977 322.703 422.598 323.109 422.309 323.625V329.801C422.598 330.324 422.973 330.73 423.434 331.02C423.902 331.301 424.477 331.441 425.156 331.441ZM436.699 333.246C435.379 333.246 434.375 332.926 433.688 332.285C433 331.637 432.656 330.727 432.656 329.555C432.656 328.75 432.875 328.051 433.312 327.457C433.758 326.855 434.398 326.391 435.234 326.062C436.07 325.727 437.07 325.559 438.234 325.559H440.496V324.316C440.496 323.551 440.262 322.957 439.793 322.535C439.332 322.113 438.68 321.902 437.836 321.902C437.305 321.902 436.844 321.969 436.453 322.102C436.062 322.227 435.707 322.402 435.387 322.629L435.141 324.398H433.359V321.492C433.93 321.031 434.594 320.684 435.352 320.449C436.109 320.207 436.949 320.086 437.871 320.086C439.41 320.086 440.617 320.453 441.492 321.188C442.367 321.922 442.805 322.973 442.805 324.34V330.445C442.805 330.609 442.805 330.77 442.805 330.926C442.812 331.082 442.824 331.238 442.84 331.395L444.07 331.523V333H440.754C440.684 332.656 440.629 332.348 440.59 332.074C440.551 331.801 440.523 331.527 440.508 331.254C440.062 331.824 439.504 332.301 438.832 332.684C438.168 333.059 437.457 333.246 436.699 333.246ZM437.039 331.312C437.805 331.312 438.504 331.129 439.137 330.762C439.77 330.395 440.223 329.953 440.496 329.438V327.141H438.152C437.09 327.141 436.293 327.395 435.762 327.902C435.23 328.41 434.965 328.977 434.965 329.602C434.965 330.156 435.137 330.582 435.48 330.879C435.824 331.168 436.344 331.312 437.039 331.312ZM450.996 333.246C450.145 333.246 449.348 333.16 448.605 332.988C447.863 332.816 447.074 332.551 446.238 332.191L446.215 329.18H447.961L448.395 330.996C448.832 331.176 449.254 331.309 449.66 331.395C450.074 331.473 450.52 331.512 450.996 331.512C451.934 331.512 452.605 331.332 453.012 330.973C453.418 330.613 453.621 330.168 453.621 329.637C453.621 329.137 453.414 328.715 453 328.371C452.594 328.02 451.852 327.723 450.773 327.48C449.242 327.129 448.113 326.66 447.387 326.074C446.668 325.48 446.309 324.691 446.309 323.707C446.309 323.02 446.508 322.406 446.906 321.867C447.305 321.32 447.859 320.887 448.57 320.566C449.281 320.246 450.109 320.086 451.055 320.086C452.016 320.086 452.836 320.195 453.516 320.414C454.203 320.633 454.801 320.926 455.309 321.293L455.426 324.188H453.691L453.316 322.5C453.043 322.297 452.719 322.141 452.344 322.031C451.969 321.922 451.539 321.867 451.055 321.867C450.336 321.867 449.75 322.035 449.297 322.371C448.852 322.707 448.629 323.129 448.629 323.637C448.629 323.934 448.691 324.191 448.816 324.41C448.949 324.629 449.199 324.828 449.566 325.008C449.934 325.18 450.473 325.352 451.184 325.523C452.949 325.938 454.18 326.465 454.875 327.105C455.578 327.746 455.93 328.535 455.93 329.473C455.93 330.543 455.531 331.441 454.734 332.168C453.945 332.887 452.699 333.246 450.996 333.246ZM462.973 333.246C462.121 333.246 461.324 333.16 460.582 332.988C459.84 332.816 459.051 332.551 458.215 332.191L458.191 329.18H459.938L460.371 330.996C460.809 331.176 461.23 331.309 461.637 331.395C462.051 331.473 462.496 331.512 462.973 331.512C463.91 331.512 464.582 331.332 464.988 330.973C465.395 330.613 465.598 330.168 465.598 329.637C465.598 329.137 465.391 328.715 464.977 328.371C464.57 328.02 463.828 327.723 462.75 327.48C461.219 327.129 460.09 326.66 459.363 326.074C458.645 325.48 458.285 324.691 458.285 323.707C458.285 323.02 458.484 322.406 458.883 321.867C459.281 321.32 459.836 320.887 460.547 320.566C461.258 320.246 462.086 320.086 463.031 320.086C463.992 320.086 464.812 320.195 465.492 320.414C466.18 320.633 466.777 320.926 467.285 321.293L467.402 324.188H465.668L465.293 322.5C465.02 322.297 464.695 322.141 464.32 322.031C463.945 321.922 463.516 321.867 463.031 321.867C462.312 321.867 461.727 322.035 461.273 322.371C460.828 322.707 460.605 323.129 460.605 323.637C460.605 323.934 460.668 324.191 460.793 324.41C460.926 324.629 461.176 324.828 461.543 325.008C461.91 325.18 462.449 325.352 463.16 325.523C464.926 325.938 466.156 326.465 466.852 327.105C467.555 327.746 467.906 328.535 467.906 329.473C467.906 330.543 467.508 331.441 466.711 332.168C465.922 332.887 464.676 333.246 462.973 333.246ZM474.316 333L470.977 321.973L469.559 321.809V320.32H474.797V321.809L473.238 322.066L474.984 328.383L475.383 329.883H475.453L475.969 328.383L478.723 320.32H480.668L483.293 328.359L483.855 330.141H483.926L484.477 328.359L486.246 322.055L484.652 321.809V320.32H489.773V321.809L488.367 322.008L485.086 333H482.895L480.328 325.383L479.719 323.344L479.648 323.355L479.051 325.383L476.297 333H474.316ZM496.688 333.246C495.516 333.246 494.504 332.973 493.652 332.426C492.809 331.871 492.156 331.109 491.695 330.141C491.234 329.164 491.004 328.051 491.004 326.801V326.543C491.004 325.293 491.234 324.184 491.695 323.215C492.156 322.238 492.809 321.473 493.652 320.918C494.504 320.363 495.508 320.086 496.664 320.086C497.836 320.086 498.844 320.363 499.688 320.918C500.539 321.473 501.195 322.234 501.656 323.203C502.117 324.172 502.348 325.285 502.348 326.543V326.801C502.348 328.059 502.117 329.176 501.656 330.152C501.195 331.121 500.543 331.879 499.699 332.426C498.855 332.973 497.852 333.246 496.688 333.246ZM496.688 331.441C497.422 331.441 498.035 331.242 498.527 330.844C499.027 330.438 499.402 329.887 499.652 329.191C499.91 328.488 500.039 327.691 500.039 326.801V326.543C500.039 325.652 499.91 324.859 499.652 324.164C499.402 323.461 499.027 322.91 498.527 322.512C498.027 322.105 497.406 321.902 496.664 321.902C495.93 321.902 495.312 322.105 494.812 322.512C494.312 322.91 493.938 323.461 493.688 324.164C493.438 324.859 493.312 325.652 493.312 326.543V326.801C493.312 327.691 493.438 328.488 493.688 329.191C493.938 329.887 494.312 330.438 494.812 330.844C495.32 331.242 495.945 331.441 496.688 331.441ZM504.105 333V331.523L506.016 331.195V322.137L504.105 321.809V320.32H508.078L508.277 321.938L508.301 322.16C508.66 321.512 509.102 321.004 509.625 320.637C510.156 320.27 510.762 320.086 511.441 320.086C511.684 320.086 511.93 320.109 512.18 320.156C512.438 320.195 512.621 320.234 512.73 320.273L512.426 322.418L510.82 322.324C510.211 322.285 509.699 322.426 509.285 322.746C508.871 323.059 508.551 323.48 508.324 324.012V331.195L510.234 331.523V333H504.105ZM518.883 333.246C517.852 333.246 516.965 332.992 516.223 332.484C515.488 331.969 514.926 331.254 514.535 330.34C514.145 329.426 513.949 328.359 513.949 327.141V326.895C513.949 325.535 514.145 324.344 514.535 323.32C514.926 322.297 515.492 321.504 516.234 320.941C516.977 320.371 517.867 320.086 518.906 320.086C519.656 320.086 520.316 320.227 520.887 320.508C521.465 320.781 521.957 321.18 522.363 321.703V316.535L520.453 316.207V314.719H522.363H524.672V331.195L526.582 331.523V333H522.668L522.48 331.488C522.066 332.066 521.559 332.504 520.957 332.801C520.363 333.098 519.672 333.246 518.883 333.246ZM519.469 331.371C520.156 331.371 520.734 331.215 521.203 330.902C521.672 330.59 522.059 330.148 522.363 329.578V323.695C522.066 323.164 521.68 322.742 521.203 322.43C520.727 322.117 520.156 321.961 519.492 321.961C518.758 321.961 518.152 322.172 517.676 322.594C517.199 323.008 516.844 323.586 516.609 324.328C516.375 325.062 516.258 325.918 516.258 326.895V327.141C516.258 328.414 516.52 329.438 517.043 330.211C517.566 330.984 518.375 331.371 519.469 331.371Z" fill="black" fill-opacity="0.35"/>
<rect x="554" y="450" width="42" height="42" rx="21" fill="#E8E8E8"/>
<rect x="554" y="450" width="42" height="42" rx="21" fill="#E8E8E8"/>
<rect x="562" y="458" width="26" height="26" rx="13" fill="#424242"/>
<path d="M563.63 513.164C562.848 513.164 562.15 513.01 561.536 512.703C560.921 512.396 560.437 511.958 560.083 511.391C559.728 510.818 559.551 510.133 559.551 509.336V502.836L558.278 502.617V501.625H562.364V502.617L561.09 502.836V509.336C561.09 509.904 561.197 510.38 561.411 510.766C561.63 511.151 561.932 511.443 562.317 511.641C562.702 511.833 563.148 511.93 563.653 511.93C564.163 511.93 564.614 511.833 565.005 511.641C565.4 511.448 565.708 511.159 565.926 510.773C566.15 510.388 566.262 509.909 566.262 509.336V502.836L564.989 502.617V501.625H569.075V502.617L567.801 502.836V509.336C567.801 510.159 567.627 510.857 567.278 511.43C566.934 511.997 566.45 512.43 565.825 512.727C565.2 513.018 564.468 513.164 563.63 513.164ZM573.622 513.164C573.054 513.164 572.523 513.107 572.028 512.992C571.533 512.878 571.007 512.701 570.45 512.461L570.434 510.453H571.598L571.887 511.664C572.179 511.784 572.46 511.872 572.731 511.93C573.007 511.982 573.304 512.008 573.622 512.008C574.247 512.008 574.695 511.888 574.965 511.648C575.236 511.409 575.372 511.112 575.372 510.758C575.372 510.424 575.234 510.143 574.958 509.914C574.687 509.68 574.192 509.482 573.473 509.32C572.452 509.086 571.7 508.773 571.215 508.383C570.736 507.987 570.497 507.461 570.497 506.805C570.497 506.346 570.63 505.938 570.895 505.578C571.161 505.214 571.531 504.924 572.005 504.711C572.478 504.497 573.031 504.391 573.661 504.391C574.301 504.391 574.848 504.464 575.301 504.609C575.76 504.755 576.158 504.951 576.497 505.195L576.575 507.125H575.419L575.169 506C574.986 505.865 574.77 505.76 574.52 505.688C574.27 505.615 573.984 505.578 573.661 505.578C573.182 505.578 572.791 505.69 572.489 505.914C572.192 506.138 572.044 506.419 572.044 506.758C572.044 506.956 572.085 507.128 572.169 507.273C572.257 507.419 572.424 507.552 572.669 507.672C572.913 507.786 573.273 507.901 573.747 508.016C574.924 508.292 575.744 508.643 576.208 509.07C576.676 509.497 576.911 510.023 576.911 510.648C576.911 511.362 576.645 511.961 576.114 512.445C575.588 512.924 574.757 513.164 573.622 513.164ZM582.036 513.164C581.255 513.164 580.575 512.987 579.997 512.633C579.419 512.273 578.971 511.776 578.653 511.141C578.34 510.505 578.184 509.771 578.184 508.938V508.594C578.184 507.792 578.348 507.076 578.676 506.445C579.01 505.81 579.45 505.31 579.997 504.945C580.549 504.576 581.15 504.391 581.801 504.391C582.562 504.391 583.197 504.547 583.708 504.859C584.223 505.172 584.611 505.612 584.872 506.18C585.132 506.742 585.262 507.406 585.262 508.172V509.133H579.778L579.755 509.172C579.765 509.714 579.859 510.195 580.036 510.617C580.218 511.034 580.478 511.362 580.817 511.602C581.156 511.841 581.562 511.961 582.036 511.961C582.557 511.961 583.012 511.888 583.403 511.742C583.799 511.591 584.14 511.385 584.426 511.125L585.028 512.125C584.726 512.417 584.325 512.664 583.825 512.867C583.33 513.065 582.734 513.164 582.036 513.164ZM579.825 507.93H583.723V507.727C583.723 507.32 583.65 506.958 583.505 506.641C583.364 506.318 583.15 506.065 582.864 505.883C582.583 505.695 582.228 505.602 581.801 505.602C581.458 505.602 581.145 505.703 580.864 505.906C580.583 506.104 580.351 506.375 580.169 506.719C579.986 507.062 579.867 507.453 579.809 507.891L579.825 507.93ZM586.45 513V512.016L587.723 511.797V505.758L586.45 505.539V504.547H589.098L589.231 505.625L589.247 505.773C589.486 505.341 589.781 505.003 590.13 504.758C590.484 504.513 590.887 504.391 591.34 504.391C591.502 504.391 591.666 504.406 591.833 504.438C592.005 504.464 592.127 504.49 592.2 504.516L591.997 505.945L590.926 505.883C590.52 505.857 590.179 505.951 589.903 506.164C589.627 506.372 589.413 506.654 589.262 507.008V511.797L590.536 512.016V513H586.45Z" fill="black" fill-opacity="0.35"/>
<rect x="673" y="450" width="42" height="42" rx="21" fill="#E8E8E8"/>
<rect x="673" y="450" width="42" height="42" rx="21" fill="#E8E8E8"/>
<rect x="681" y="458" width="26" height="26" rx="13" fill="#B4B4B4"/>
<path d="M653.719 508V507.016L654.992 506.797V497.836L653.719 497.617V496.633H658.789C659.617 496.633 660.315 496.758 660.883 497.008C661.456 497.253 661.891 497.609 662.188 498.078C662.484 498.547 662.633 499.12 662.633 499.797C662.633 500.464 662.487 501.023 662.195 501.477C661.909 501.93 661.5 502.273 660.969 502.508C660.438 502.737 659.807 502.859 659.078 502.875L656.531 502.922V506.797L657.805 507.016V508H653.719ZM661.227 508L658.695 502.32L660.234 502.305L662.336 506.852L663.125 506.992V508H661.227ZM656.531 501.711H658.633C659.492 501.711 660.117 501.547 660.508 501.219C660.898 500.891 661.094 500.411 661.094 499.781C661.094 499.182 660.906 498.708 660.531 498.359C660.156 498.01 659.576 497.836 658.789 497.836H656.531V501.711ZM668.344 508.164C667.562 508.164 666.883 507.987 666.305 507.633C665.727 507.273 665.279 506.776 664.961 506.141C664.648 505.505 664.492 504.771 664.492 503.938V503.594C664.492 502.792 664.656 502.076 664.984 501.445C665.318 500.81 665.758 500.31 666.305 499.945C666.857 499.576 667.458 499.391 668.109 499.391C668.87 499.391 669.505 499.547 670.016 499.859C670.531 500.172 670.919 500.612 671.18 501.18C671.44 501.742 671.57 502.406 671.57 503.172V504.133H666.086L666.062 504.172C666.073 504.714 666.167 505.195 666.344 505.617C666.526 506.034 666.786 506.362 667.125 506.602C667.464 506.841 667.87 506.961 668.344 506.961C668.865 506.961 669.32 506.888 669.711 506.742C670.107 506.591 670.448 506.385 670.734 506.125L671.336 507.125C671.034 507.417 670.633 507.664 670.133 507.867C669.638 508.065 669.042 508.164 668.344 508.164ZM666.133 502.93H670.031V502.727C670.031 502.32 669.958 501.958 669.812 501.641C669.672 501.318 669.458 501.065 669.172 500.883C668.891 500.695 668.536 500.602 668.109 500.602C667.766 500.602 667.453 500.703 667.172 500.906C666.891 501.104 666.659 501.375 666.477 501.719C666.294 502.062 666.174 502.453 666.117 502.891L666.133 502.93ZM676.242 508.164C675.674 508.164 675.143 508.107 674.648 507.992C674.154 507.878 673.628 507.701 673.07 507.461L673.055 505.453H674.219L674.508 506.664C674.799 506.784 675.081 506.872 675.352 506.93C675.628 506.982 675.924 507.008 676.242 507.008C676.867 507.008 677.315 506.888 677.586 506.648C677.857 506.409 677.992 506.112 677.992 505.758C677.992 505.424 677.854 505.143 677.578 504.914C677.307 504.68 676.812 504.482 676.094 504.32C675.073 504.086 674.32 503.773 673.836 503.383C673.357 502.987 673.117 502.461 673.117 501.805C673.117 501.346 673.25 500.938 673.516 500.578C673.781 500.214 674.151 499.924 674.625 499.711C675.099 499.497 675.651 499.391 676.281 499.391C676.922 499.391 677.469 499.464 677.922 499.609C678.38 499.755 678.779 499.951 679.117 500.195L679.195 502.125H678.039L677.789 501C677.607 500.865 677.391 500.76 677.141 500.688C676.891 500.615 676.604 500.578 676.281 500.578C675.802 500.578 675.411 500.69 675.109 500.914C674.812 501.138 674.664 501.419 674.664 501.758C674.664 501.956 674.706 502.128 674.789 502.273C674.878 502.419 675.044 502.552 675.289 502.672C675.534 502.786 675.893 502.901 676.367 503.016C677.544 503.292 678.365 503.643 678.828 504.07C679.297 504.497 679.531 505.023 679.531 505.648C679.531 506.362 679.266 506.961 678.734 507.445C678.208 507.924 677.378 508.164 676.242 508.164ZM683.789 508.133C683.164 508.133 682.667 507.951 682.297 507.586C681.932 507.216 681.75 506.628 681.75 505.82V500.688H680.414V499.547H681.75V497.508H683.289V499.547H685.125V500.688H683.289V505.82C683.289 506.227 683.37 506.526 683.531 506.719C683.693 506.911 683.909 507.008 684.18 507.008C684.362 507.008 684.565 506.992 684.789 506.961C685.013 506.924 685.188 506.893 685.312 506.867L685.523 507.875C685.299 507.943 685.023 508.003 684.695 508.055C684.372 508.107 684.07 508.133 683.789 508.133ZM689.242 508.164C688.362 508.164 687.693 507.951 687.234 507.523C686.776 507.091 686.547 506.484 686.547 505.703C686.547 505.167 686.693 504.701 686.984 504.305C687.281 503.904 687.708 503.594 688.266 503.375C688.823 503.151 689.49 503.039 690.266 503.039H691.773V502.211C691.773 501.701 691.617 501.305 691.305 501.023C690.997 500.742 690.562 500.602 690 500.602C689.646 500.602 689.339 500.646 689.078 500.734C688.818 500.818 688.581 500.935 688.367 501.086L688.203 502.266H687.016V500.328C687.396 500.021 687.839 499.789 688.344 499.633C688.849 499.471 689.409 499.391 690.023 499.391C691.049 499.391 691.854 499.635 692.438 500.125C693.021 500.615 693.312 501.315 693.312 502.227V506.297C693.312 506.406 693.312 506.513 693.312 506.617C693.318 506.721 693.326 506.826 693.336 506.93L694.156 507.016V508H691.945C691.898 507.771 691.862 507.565 691.836 507.383C691.81 507.201 691.792 507.018 691.781 506.836C691.484 507.216 691.112 507.534 690.664 507.789C690.221 508.039 689.747 508.164 689.242 508.164ZM689.469 506.875C689.979 506.875 690.445 506.753 690.867 506.508C691.289 506.263 691.591 505.969 691.773 505.625V504.094H690.211C689.503 504.094 688.971 504.263 688.617 504.602C688.263 504.94 688.086 505.318 688.086 505.734C688.086 506.104 688.201 506.388 688.43 506.586C688.659 506.779 689.005 506.875 689.469 506.875ZM699.07 508.164C698.154 508.164 697.438 507.87 696.922 507.281C696.406 506.693 696.148 505.776 696.148 504.531V500.758L695.18 500.539V499.547H696.148H697.688V504.547C697.688 505.448 697.82 506.068 698.086 506.406C698.352 506.745 698.766 506.914 699.328 506.914C699.875 506.914 700.326 506.805 700.68 506.586C701.039 506.362 701.31 506.047 701.492 505.641V500.758L700.359 500.539V499.547H701.492H703.031V506.797L704 507.016V508H701.648L701.547 506.75C701.281 507.203 700.938 507.552 700.516 507.797C700.099 508.042 699.617 508.164 699.07 508.164ZM705.07 508V507.016L706.344 506.797V500.758L705.07 500.539V499.547H707.719L707.852 500.625L707.867 500.773C708.107 500.341 708.401 500.003 708.75 499.758C709.104 499.513 709.508 499.391 709.961 499.391C710.122 499.391 710.286 499.406 710.453 499.438C710.625 499.464 710.747 499.49 710.82 499.516L710.617 500.945L709.547 500.883C709.141 500.857 708.799 500.951 708.523 501.164C708.247 501.372 708.034 501.654 707.883 502.008V506.797L709.156 507.016V508H705.07ZM714.492 508.164C713.612 508.164 712.943 507.951 712.484 507.523C712.026 507.091 711.797 506.484 711.797 505.703C711.797 505.167 711.943 504.701 712.234 504.305C712.531 503.904 712.958 503.594 713.516 503.375C714.073 503.151 714.74 503.039 715.516 503.039H717.023V502.211C717.023 501.701 716.867 501.305 716.555 501.023C716.247 500.742 715.812 500.602 715.25 500.602C714.896 500.602 714.589 500.646 714.328 500.734C714.068 500.818 713.831 500.935 713.617 501.086L713.453 502.266H712.266V500.328C712.646 500.021 713.089 499.789 713.594 499.633C714.099 499.471 714.659 499.391 715.273 499.391C716.299 499.391 717.104 499.635 717.688 500.125C718.271 500.615 718.562 501.315 718.562 502.227V506.297C718.562 506.406 718.562 506.513 718.562 506.617C718.568 506.721 718.576 506.826 718.586 506.93L719.406 507.016V508H717.195C717.148 507.771 717.112 507.565 717.086 507.383C717.06 507.201 717.042 507.018 717.031 506.836C716.734 507.216 716.362 507.534 715.914 507.789C715.471 508.039 714.997 508.164 714.492 508.164ZM714.719 506.875C715.229 506.875 715.695 506.753 716.117 506.508C716.539 506.263 716.841 505.969 717.023 505.625V504.094H715.461C714.753 504.094 714.221 504.263 713.867 504.602C713.513 504.94 713.336 505.318 713.336 505.734C713.336 506.104 713.451 506.388 713.68 506.586C713.909 506.779 714.255 506.875 714.719 506.875ZM720.602 508V507.016L721.875 506.797V500.758L720.602 500.539V499.547H723.25L723.359 500.805C723.641 500.357 723.992 500.01 724.414 499.766C724.841 499.516 725.326 499.391 725.867 499.391C726.779 499.391 727.484 499.659 727.984 500.195C728.484 500.727 728.734 501.549 728.734 502.664V506.797L730.008 507.016V508H725.922V507.016L727.195 506.797V502.695C727.195 501.951 727.047 501.422 726.75 501.109C726.458 500.797 726.01 500.641 725.406 500.641C724.964 500.641 724.57 500.747 724.227 500.961C723.888 501.174 723.617 501.466 723.414 501.836V506.797L724.688 507.016V508H720.602ZM733.773 508.133C733.148 508.133 732.651 507.951 732.281 507.586C731.917 507.216 731.734 506.628 731.734 505.82V500.688H730.398V499.547H731.734V497.508H733.273V499.547H735.109V500.688H733.273V505.82C733.273 506.227 733.354 506.526 733.516 506.719C733.677 506.911 733.893 507.008 734.164 507.008C734.346 507.008 734.549 506.992 734.773 506.961C734.997 506.924 735.172 506.893 735.297 506.867L735.508 507.875C735.284 507.943 735.008 508.003 734.68 508.055C734.357 508.107 734.055 508.133 733.773 508.133ZM661.422 529V528.016L662.695 527.797V518.836L661.422 518.617V517.625H662.695H664.75L668.414 526.258H668.461L672.008 517.625H675.438V518.617L674.164 518.836V527.797L675.438 528.016V529H671.352V528.016L672.695 527.797V524.5V519.727L672.656 519.719L668.961 528.594H667.938L664.117 519.734L664.078 519.742L664.133 524.5V527.797L665.508 528.016V529H661.422ZM679.484 529.164C678.604 529.164 677.935 528.951 677.477 528.523C677.018 528.091 676.789 527.484 676.789 526.703C676.789 526.167 676.935 525.701 677.227 525.305C677.523 524.904 677.951 524.594 678.508 524.375C679.065 524.151 679.732 524.039 680.508 524.039H682.016V523.211C682.016 522.701 681.859 522.305 681.547 522.023C681.24 521.742 680.805 521.602 680.242 521.602C679.888 521.602 679.581 521.646 679.32 521.734C679.06 521.818 678.823 521.935 678.609 522.086L678.445 523.266H677.258V521.328C677.638 521.021 678.081 520.789 678.586 520.633C679.091 520.471 679.651 520.391 680.266 520.391C681.292 520.391 682.096 520.635 682.68 521.125C683.263 521.615 683.555 522.315 683.555 523.227V527.297C683.555 527.406 683.555 527.513 683.555 527.617C683.56 527.721 683.568 527.826 683.578 527.93L684.398 528.016V529H682.188C682.141 528.771 682.104 528.565 682.078 528.383C682.052 528.201 682.034 528.018 682.023 527.836C681.727 528.216 681.354 528.534 680.906 528.789C680.464 529.039 679.99 529.164 679.484 529.164ZM679.711 527.875C680.221 527.875 680.688 527.753 681.109 527.508C681.531 527.263 681.833 526.969 682.016 526.625V525.094H680.453C679.745 525.094 679.214 525.263 678.859 525.602C678.505 525.94 678.328 526.318 678.328 526.734C678.328 527.104 678.443 527.388 678.672 527.586C678.901 527.779 679.247 527.875 679.711 527.875ZM685.594 529V528.016L686.867 527.797V521.758L685.594 521.539V520.547H688.242L688.352 521.805C688.633 521.357 688.984 521.01 689.406 520.766C689.833 520.516 690.318 520.391 690.859 520.391C691.771 520.391 692.477 520.659 692.977 521.195C693.477 521.727 693.727 522.549 693.727 523.664V527.797L695 528.016V529H690.914V528.016L692.188 527.797V523.695C692.188 522.951 692.039 522.422 691.742 522.109C691.451 521.797 691.003 521.641 690.398 521.641C689.956 521.641 689.562 521.747 689.219 521.961C688.88 522.174 688.609 522.466 688.406 522.836V527.797L689.68 528.016V529H685.594ZM698.828 529.164C697.948 529.164 697.279 528.951 696.82 528.523C696.362 528.091 696.133 527.484 696.133 526.703C696.133 526.167 696.279 525.701 696.57 525.305C696.867 524.904 697.294 524.594 697.852 524.375C698.409 524.151 699.076 524.039 699.852 524.039H701.359V523.211C701.359 522.701 701.203 522.305 700.891 522.023C700.583 521.742 700.148 521.602 699.586 521.602C699.232 521.602 698.924 521.646 698.664 521.734C698.404 521.818 698.167 521.935 697.953 522.086L697.789 523.266H696.602V521.328C696.982 521.021 697.424 520.789 697.93 520.633C698.435 520.471 698.995 520.391 699.609 520.391C700.635 520.391 701.44 520.635 702.023 521.125C702.607 521.615 702.898 522.315 702.898 523.227V527.297C702.898 527.406 702.898 527.513 702.898 527.617C702.904 527.721 702.911 527.826 702.922 527.93L703.742 528.016V529H701.531C701.484 528.771 701.448 528.565 701.422 528.383C701.396 528.201 701.378 528.018 701.367 527.836C701.07 528.216 700.698 528.534 700.25 528.789C699.807 529.039 699.333 529.164 698.828 529.164ZM699.055 527.875C699.565 527.875 700.031 527.753 700.453 527.508C700.875 527.263 701.177 526.969 701.359 526.625V525.094H699.797C699.089 525.094 698.557 525.263 698.203 525.602C697.849 525.94 697.672 526.318 697.672 526.734C697.672 527.104 697.786 527.388 698.016 527.586C698.245 527.779 698.591 527.875 699.055 527.875ZM708.648 532.414C708.242 532.414 707.802 532.357 707.328 532.242C706.854 532.133 706.438 531.982 706.078 531.789L706.477 530.594C706.763 530.745 707.102 530.87 707.492 530.969C707.883 531.068 708.263 531.117 708.633 531.117C709.32 531.117 709.823 530.924 710.141 530.539C710.464 530.154 710.625 529.604 710.625 528.891V528.086C710.349 528.44 710.018 528.708 709.633 528.891C709.247 529.073 708.805 529.164 708.305 529.164C707.617 529.164 707.023 528.995 706.523 528.656C706.023 528.312 705.638 527.836 705.367 527.227C705.102 526.612 704.969 525.901 704.969 525.094V524.93C704.969 524.023 705.102 523.229 705.367 522.547C705.638 521.865 706.023 521.336 706.523 520.961C707.023 520.581 707.622 520.391 708.32 520.391C708.852 520.391 709.318 520.495 709.719 520.703C710.12 520.911 710.456 521.214 710.727 521.609L710.867 520.547H712.164V528.891C712.164 529.62 712.026 530.247 711.75 530.773C711.479 531.299 711.081 531.703 710.555 531.984C710.034 532.271 709.398 532.414 708.648 532.414ZM708.688 527.914C709.151 527.914 709.539 527.81 709.852 527.602C710.164 527.388 710.422 527.089 710.625 526.703V522.812C710.427 522.453 710.169 522.169 709.852 521.961C709.534 521.747 709.151 521.641 708.703 521.641C708.214 521.641 707.805 521.781 707.477 522.062C707.154 522.344 706.911 522.732 706.75 523.227C706.589 523.716 706.508 524.284 706.508 524.93V525.094C706.508 525.943 706.688 526.625 707.047 527.141C707.406 527.656 707.953 527.914 708.688 527.914ZM711.93 521.805L711.328 520.547H713.211V521.531L711.93 521.805ZM717.789 529.164C717.008 529.164 716.328 528.987 715.75 528.633C715.172 528.273 714.724 527.776 714.406 527.141C714.094 526.505 713.938 525.771 713.938 524.938V524.594C713.938 523.792 714.102 523.076 714.43 522.445C714.763 521.81 715.203 521.31 715.75 520.945C716.302 520.576 716.904 520.391 717.555 520.391C718.315 520.391 718.951 520.547 719.461 520.859C719.977 521.172 720.365 521.612 720.625 522.18C720.885 522.742 721.016 523.406 721.016 524.172V525.133H715.531L715.508 525.172C715.518 525.714 715.612 526.195 715.789 526.617C715.971 527.034 716.232 527.362 716.57 527.602C716.909 527.841 717.315 527.961 717.789 527.961C718.31 527.961 718.766 527.888 719.156 527.742C719.552 527.591 719.893 527.385 720.18 527.125L720.781 528.125C720.479 528.417 720.078 528.664 719.578 528.867C719.083 529.065 718.487 529.164 717.789 529.164ZM715.578 523.93H719.477V523.727C719.477 523.32 719.404 522.958 719.258 522.641C719.117 522.318 718.904 522.065 718.617 521.883C718.336 521.695 717.982 521.602 717.555 521.602C717.211 521.602 716.898 521.703 716.617 521.906C716.336 522.104 716.104 522.375 715.922 522.719C715.74 523.062 715.62 523.453 715.562 523.891L715.578 523.93ZM722.203 529V528.016L723.477 527.797V521.758L722.203 521.539V520.547H724.852L724.984 521.625L725 521.773C725.24 521.341 725.534 521.003 725.883 520.758C726.237 520.513 726.641 520.391 727.094 520.391C727.255 520.391 727.419 520.406 727.586 520.438C727.758 520.464 727.88 520.49 727.953 520.516L727.75 521.945L726.68 521.883C726.273 521.857 725.932 521.951 725.656 522.164C725.38 522.372 725.167 522.654 725.016 523.008V527.797L726.289 528.016V529H722.203Z" fill="black" fill-opacity="0.35"/>
<g filter="url(#filter0_d_8_54)">
<rect x="542" y="544" width="196" height="58" rx="24" fill="black"/>
<path d="M612.906 582.246C611.195 582.246 609.766 581.871 608.617 581.121C607.477 580.371 606.617 579.344 606.039 578.039C605.469 576.734 605.184 575.254 605.184 573.598V573.352C605.184 571.68 605.484 570.195 606.086 568.898C606.688 567.594 607.551 566.566 608.676 565.816C609.801 565.066 611.145 564.691 612.707 564.691C613.809 564.691 614.816 564.863 615.73 565.207C616.645 565.551 617.402 565.988 618.004 566.52V570.199H616.164L615.918 567.504C615.668 567.309 615.379 567.145 615.051 567.012C614.73 566.879 614.371 566.777 613.973 566.707C613.582 566.637 613.156 566.602 612.695 566.602C611.578 566.602 610.633 566.891 609.859 567.469C609.086 568.039 608.5 568.828 608.102 569.836C607.703 570.844 607.504 572.008 607.504 573.328V573.598C607.504 575.027 607.715 576.25 608.137 577.266C608.566 578.273 609.188 579.043 610 579.574C610.82 580.105 611.816 580.371 612.988 580.371C613.535 580.371 614.07 580.305 614.594 580.172C615.117 580.039 615.551 579.867 615.895 579.656L616.152 577.277H617.957V580.98C617.316 581.379 616.551 581.691 615.66 581.918C614.77 582.137 613.852 582.246 612.906 582.246ZM620.207 582V580.523L622.117 580.195V571.137L620.207 570.809V569.32H624.18L624.379 570.938L624.402 571.16C624.762 570.512 625.203 570.004 625.727 569.637C626.258 569.27 626.863 569.086 627.543 569.086C627.785 569.086 628.031 569.109 628.281 569.156C628.539 569.195 628.723 569.234 628.832 569.273L628.527 571.418L626.922 571.324C626.312 571.285 625.801 571.426 625.387 571.746C624.973 572.059 624.652 572.48 624.426 573.012V580.195L626.336 580.523V582H620.207ZM635.781 582.246C634.609 582.246 633.59 581.98 632.723 581.449C631.855 580.91 631.184 580.164 630.707 579.211C630.238 578.258 630.004 577.156 630.004 575.906V575.391C630.004 574.188 630.25 573.113 630.742 572.168C631.242 571.215 631.902 570.465 632.723 569.918C633.551 569.363 634.453 569.086 635.43 569.086C636.57 569.086 637.523 569.32 638.289 569.789C639.062 570.258 639.645 570.918 640.035 571.77C640.426 572.613 640.621 573.609 640.621 574.758V576.199H632.395L632.359 576.258C632.375 577.07 632.516 577.793 632.781 578.426C633.055 579.051 633.445 579.543 633.953 579.902C634.461 580.262 635.07 580.441 635.781 580.441C636.562 580.441 637.246 580.332 637.832 580.113C638.426 579.887 638.938 579.578 639.367 579.188L640.27 580.688C639.816 581.125 639.215 581.496 638.465 581.801C637.723 582.098 636.828 582.246 635.781 582.246ZM632.465 574.395H638.312V574.09C638.312 573.48 638.203 572.938 637.984 572.461C637.773 571.977 637.453 571.598 637.023 571.324C636.602 571.043 636.07 570.902 635.43 570.902C634.914 570.902 634.445 571.055 634.023 571.359C633.602 571.656 633.254 572.062 632.98 572.578C632.707 573.094 632.527 573.68 632.441 574.336L632.465 574.395ZM646.715 582.246C645.395 582.246 644.391 581.926 643.703 581.285C643.016 580.637 642.672 579.727 642.672 578.555C642.672 577.75 642.891 577.051 643.328 576.457C643.773 575.855 644.414 575.391 645.25 575.062C646.086 574.727 647.086 574.559 648.25 574.559H650.512V573.316C650.512 572.551 650.277 571.957 649.809 571.535C649.348 571.113 648.695 570.902 647.852 570.902C647.32 570.902 646.859 570.969 646.469 571.102C646.078 571.227 645.723 571.402 645.402 571.629L645.156 573.398H643.375V570.492C643.945 570.031 644.609 569.684 645.367 569.449C646.125 569.207 646.965 569.086 647.887 569.086C649.426 569.086 650.633 569.453 651.508 570.188C652.383 570.922 652.82 571.973 652.82 573.34V579.445C652.82 579.609 652.82 579.77 652.82 579.926C652.828 580.082 652.84 580.238 652.855 580.395L654.086 580.523V582H650.77C650.699 581.656 650.645 581.348 650.605 581.074C650.566 580.801 650.539 580.527 650.523 580.254C650.078 580.824 649.52 581.301 648.848 581.684C648.184 582.059 647.473 582.246 646.715 582.246ZM647.055 580.312C647.82 580.312 648.52 580.129 649.152 579.762C649.785 579.395 650.238 578.953 650.512 578.438V576.141H648.168C647.105 576.141 646.309 576.395 645.777 576.902C645.246 577.41 644.98 577.977 644.98 578.602C644.98 579.156 645.152 579.582 645.496 579.879C645.84 580.168 646.359 580.312 647.055 580.312ZM660.355 582.199C659.418 582.199 658.672 581.926 658.117 581.379C657.57 580.824 657.297 579.941 657.297 578.73V571.031H655.293V569.32H657.297V566.262H659.605V569.32H662.359V571.031H659.605V578.73C659.605 579.34 659.727 579.789 659.969 580.078C660.211 580.367 660.535 580.512 660.941 580.512C661.215 580.512 661.52 580.488 661.855 580.441C662.191 580.387 662.453 580.34 662.641 580.301L662.957 581.812C662.621 581.914 662.207 582.004 661.715 582.082C661.23 582.16 660.777 582.199 660.355 582.199ZM669.977 582.246C668.805 582.246 667.785 581.98 666.918 581.449C666.051 580.91 665.379 580.164 664.902 579.211C664.434 578.258 664.199 577.156 664.199 575.906V575.391C664.199 574.188 664.445 573.113 664.938 572.168C665.438 571.215 666.098 570.465 666.918 569.918C667.746 569.363 668.648 569.086 669.625 569.086C670.766 569.086 671.719 569.32 672.484 569.789C673.258 570.258 673.84 570.918 674.23 571.77C674.621 572.613 674.816 573.609 674.816 574.758V576.199H666.59L666.555 576.258C666.57 577.07 666.711 577.793 666.977 578.426C667.25 579.051 667.641 579.543 668.148 579.902C668.656 580.262 669.266 580.441 669.977 580.441C670.758 580.441 671.441 580.332 672.027 580.113C672.621 579.887 673.133 579.578 673.562 579.188L674.465 580.688C674.012 581.125 673.41 581.496 672.66 581.801C671.918 582.098 671.023 582.246 669.977 582.246ZM666.66 574.395H672.508V574.09C672.508 573.48 672.398 572.938 672.18 572.461C671.969 571.977 671.648 571.598 671.219 571.324C670.797 571.043 670.266 570.902 669.625 570.902C669.109 570.902 668.641 571.055 668.219 571.359C667.797 571.656 667.449 572.062 667.176 572.578C666.902 573.094 666.723 573.68 666.637 574.336L666.66 574.395Z" fill="white"/>
</g>
<path d="M883 114.115L880.885 112L872.5 120.385L864.115 112L862 114.115L870.385 122.5L862 130.885L864.115 133L872.5 124.615L880.885 133L883 130.885L874.615 122.5L883 114.115Z" fill="black"/>
<path d="M81.082 371.246C79.9336 371.246 78.9336 370.98 78.082 370.449C77.2305 369.91 76.5703 369.164 76.1016 368.211C75.6328 367.258 75.3984 366.156 75.3984 364.906V364.414C75.3984 363.211 75.625 362.133 76.0781 361.18C76.5312 360.227 77.1836 359.473 78.0352 358.918C78.8867 358.363 79.9023 358.086 81.082 358.086C82.1055 358.086 83 358.254 83.7656 358.59C84.5391 358.926 85.1875 359.387 85.7109 359.973L85.7695 363.02H83.9648L83.5664 360.805C83.3008 360.531 82.9688 360.312 82.5703 360.148C82.1719 359.984 81.7031 359.902 81.1641 359.902C80.4766 359.902 79.8711 360.105 79.3477 360.512C78.832 360.918 78.4297 361.461 78.1406 362.141C77.8516 362.82 77.707 363.578 77.707 364.414V364.906C77.707 365.828 77.8398 366.629 78.1055 367.309C78.3789 367.988 78.7656 368.516 79.2656 368.891C79.7734 369.258 80.375 369.441 81.0703 369.441C81.8516 369.441 82.5 369.227 83.0156 368.797C83.5312 368.367 83.8477 367.777 83.9648 367.027H86.0391L86.0625 367.098C86.0234 367.824 85.8086 368.504 85.418 369.137C85.0273 369.77 84.4688 370.281 83.7422 370.672C83.0234 371.055 82.1367 371.246 81.082 371.246ZM93.9023 371.246C92.7305 371.246 91.7188 370.973 90.8672 370.426C90.0234 369.871 89.3711 369.109 88.9102 368.141C88.4492 367.164 88.2188 366.051 88.2188 364.801V364.543C88.2188 363.293 88.4492 362.184 88.9102 361.215C89.3711 360.238 90.0234 359.473 90.8672 358.918C91.7188 358.363 92.7227 358.086 93.8789 358.086C95.0508 358.086 96.0586 358.363 96.9023 358.918C97.7539 359.473 98.4102 360.234 98.8711 361.203C99.332 362.172 99.5625 363.285 99.5625 364.543V364.801C99.5625 366.059 99.332 367.176 98.8711 368.152C98.4102 369.121 97.7578 369.879 96.9141 370.426C96.0703 370.973 95.0664 371.246 93.9023 371.246ZM93.9023 369.441C94.6367 369.441 95.25 369.242 95.7422 368.844C96.2422 368.438 96.6172 367.887 96.8672 367.191C97.125 366.488 97.2539 365.691 97.2539 364.801V364.543C97.2539 363.652 97.125 362.859 96.8672 362.164C96.6172 361.461 96.2422 360.91 95.7422 360.512C95.2422 360.105 94.6211 359.902 93.8789 359.902C93.1445 359.902 92.5273 360.105 92.0273 360.512C91.5273 360.91 91.1523 361.461 90.9023 362.164C90.6523 362.859 90.5273 363.652 90.5273 364.543V364.801C90.5273 365.691 90.6523 366.488 90.9023 367.191C91.1523 367.887 91.5273 368.438 92.0273 368.844C92.5352 369.242 93.1602 369.441 93.9023 369.441ZM101.344 371V369.523L103.254 369.195V360.137L101.344 359.809V358.32H105.316L105.48 360.207C105.902 359.535 106.43 359.016 107.062 358.648C107.703 358.273 108.43 358.086 109.242 358.086C110.609 358.086 111.668 358.488 112.418 359.293C113.168 360.09 113.543 361.324 113.543 362.996V369.195L115.453 369.523V371H109.324V369.523L111.234 369.195V363.043C111.234 361.926 111.012 361.133 110.566 360.664C110.129 360.195 109.457 359.961 108.551 359.961C107.887 359.961 107.297 360.121 106.781 360.441C106.273 360.762 105.867 361.199 105.562 361.754V369.195L107.473 369.523V371H101.344ZM121.102 371.199C120.164 371.199 119.418 370.926 118.863 370.379C118.316 369.824 118.043 368.941 118.043 367.73V360.031H116.039V358.32H118.043V355.262H120.352V358.32H123.105V360.031H120.352V367.73C120.352 368.34 120.473 368.789 120.715 369.078C120.957 369.367 121.281 369.512 121.688 369.512C121.961 369.512 122.266 369.488 122.602 369.441C122.938 369.387 123.199 369.34 123.387 369.301L123.703 370.812C123.367 370.914 122.953 371.004 122.461 371.082C121.977 371.16 121.523 371.199 121.102 371.199ZM130.723 371.246C129.551 371.246 128.531 370.98 127.664 370.449C126.797 369.91 126.125 369.164 125.648 368.211C125.18 367.258 124.945 366.156 124.945 364.906V364.391C124.945 363.188 125.191 362.113 125.684 361.168C126.184 360.215 126.844 359.465 127.664 358.918C128.492 358.363 129.395 358.086 130.371 358.086C131.512 358.086 132.465 358.32 133.23 358.789C134.004 359.258 134.586 359.918 134.977 360.77C135.367 361.613 135.562 362.609 135.562 363.758V365.199H127.336L127.301 365.258C127.316 366.07 127.457 366.793 127.723 367.426C127.996 368.051 128.387 368.543 128.895 368.902C129.402 369.262 130.012 369.441 130.723 369.441C131.504 369.441 132.188 369.332 132.773 369.113C133.367 368.887 133.879 368.578 134.309 368.188L135.211 369.688C134.758 370.125 134.156 370.496 133.406 370.801C132.664 371.098 131.77 371.246 130.723 371.246ZM127.406 363.395H133.254V363.09C133.254 362.48 133.145 361.938 132.926 361.461C132.715 360.977 132.395 360.598 131.965 360.324C131.543 360.043 131.012 359.902 130.371 359.902C129.855 359.902 129.387 360.055 128.965 360.359C128.543 360.656 128.195 361.062 127.922 361.578C127.648 362.094 127.469 362.68 127.383 363.336L127.406 363.395ZM137.367 371V369.523L139.277 369.195V360.137L137.367 359.809V358.32H141.34L141.504 360.207C141.926 359.535 142.453 359.016 143.086 358.648C143.727 358.273 144.453 358.086 145.266 358.086C146.633 358.086 147.691 358.488 148.441 359.293C149.191 360.09 149.566 361.324 149.566 362.996V369.195L151.477 369.523V371H145.348V369.523L147.258 369.195V363.043C147.258 361.926 147.035 361.133 146.59 360.664C146.152 360.195 145.48 359.961 144.574 359.961C143.91 359.961 143.32 360.121 142.805 360.441C142.297 360.762 141.891 361.199 141.586 361.754V369.195L143.496 369.523V371H137.367ZM157.125 371.199C156.188 371.199 155.441 370.926 154.887 370.379C154.34 369.824 154.066 368.941 154.066 367.73V360.031H152.062V358.32H154.066V355.262H156.375V358.32H159.129V360.031H156.375V367.73C156.375 368.34 156.496 368.789 156.738 369.078C156.98 369.367 157.305 369.512 157.711 369.512C157.984 369.512 158.289 369.488 158.625 369.441C158.961 369.387 159.223 369.34 159.41 369.301L159.727 370.812C159.391 370.914 158.977 371.004 158.484 371.082C158 371.16 157.547 371.199 157.125 371.199ZM172.758 371.246C171.383 371.246 170.309 370.805 169.535 369.922C168.762 369.039 168.375 367.664 168.375 365.797V360.137L166.922 359.809V358.32H168.375H170.684V365.82C170.684 367.172 170.883 368.102 171.281 368.609C171.68 369.117 172.301 369.371 173.145 369.371C173.965 369.371 174.641 369.207 175.172 368.879C175.711 368.543 176.117 368.07 176.391 367.461V360.137L174.691 359.809V358.32H176.391H178.699V369.195L180.152 369.523V371H176.625L176.473 369.125C176.074 369.805 175.559 370.328 174.926 370.695C174.301 371.062 173.578 371.246 172.758 371.246ZM181.781 371V369.523L183.691 369.195V360.137L181.781 359.809V358.32H185.754L185.918 360.207C186.34 359.535 186.867 359.016 187.5 358.648C188.141 358.273 188.867 358.086 189.68 358.086C191.047 358.086 192.105 358.488 192.855 359.293C193.605 360.09 193.98 361.324 193.98 362.996V369.195L195.891 369.523V371H189.762V369.523L191.672 369.195V363.043C191.672 361.926 191.449 361.133 191.004 360.664C190.566 360.195 189.895 359.961 188.988 359.961C188.324 359.961 187.734 360.121 187.219 360.441C186.711 360.762 186.305 361.199 186 361.754V369.195L187.91 369.523V371H181.781ZM202.395 371.246C201.363 371.246 200.477 370.992 199.734 370.484C199 369.969 198.438 369.254 198.047 368.34C197.656 367.426 197.461 366.359 197.461 365.141V364.895C197.461 363.535 197.656 362.344 198.047 361.32C198.438 360.297 199.004 359.504 199.746 358.941C200.488 358.371 201.379 358.086 202.418 358.086C203.168 358.086 203.828 358.227 204.398 358.508C204.977 358.781 205.469 359.18 205.875 359.703V354.535L203.965 354.207V352.719H205.875H208.184V369.195L210.094 369.523V371H206.18L205.992 369.488C205.578 370.066 205.07 370.504 204.469 370.801C203.875 371.098 203.184 371.246 202.395 371.246ZM202.98 369.371C203.668 369.371 204.246 369.215 204.715 368.902C205.184 368.59 205.57 368.148 205.875 367.578V361.695C205.578 361.164 205.191 360.742 204.715 360.43C204.238 360.117 203.668 359.961 203.004 359.961C202.27 359.961 201.664 360.172 201.188 360.594C200.711 361.008 200.355 361.586 200.121 362.328C199.887 363.062 199.77 363.918 199.77 364.895V365.141C199.77 366.414 200.031 367.438 200.555 368.211C201.078 368.984 201.887 369.371 202.98 369.371ZM217.395 371.246C216.223 371.246 215.203 370.98 214.336 370.449C213.469 369.91 212.797 369.164 212.32 368.211C211.852 367.258 211.617 366.156 211.617 364.906V364.391C211.617 363.188 211.863 362.113 212.355 361.168C212.855 360.215 213.516 359.465 214.336 358.918C215.164 358.363 216.066 358.086 217.043 358.086C218.184 358.086 219.137 358.32 219.902 358.789C220.676 359.258 221.258 359.918 221.648 360.77C222.039 361.613 222.234 362.609 222.234 363.758V365.199H214.008L213.973 365.258C213.988 366.07 214.129 366.793 214.395 367.426C214.668 368.051 215.059 368.543 215.566 368.902C216.074 369.262 216.684 369.441 217.395 369.441C218.176 369.441 218.859 369.332 219.445 369.113C220.039 368.887 220.551 368.578 220.98 368.188L221.883 369.688C221.43 370.125 220.828 370.496 220.078 370.801C219.336 371.098 218.441 371.246 217.395 371.246ZM214.078 363.395H219.926V363.09C219.926 362.48 219.816 361.938 219.598 361.461C219.387 360.977 219.066 360.598 218.637 360.324C218.215 360.043 217.684 359.902 217.043 359.902C216.527 359.902 216.059 360.055 215.637 360.359C215.215 360.656 214.867 361.062 214.594 361.578C214.32 362.094 214.141 362.68 214.055 363.336L214.078 363.395ZM224.016 371V369.523L225.926 369.195V360.137L224.016 359.809V358.32H227.988L228.188 359.938L228.211 360.16C228.57 359.512 229.012 359.004 229.535 358.637C230.066 358.27 230.672 358.086 231.352 358.086C231.594 358.086 231.84 358.109 232.09 358.156C232.348 358.195 232.531 358.234 232.641 358.273L232.336 360.418L230.73 360.324C230.121 360.285 229.609 360.426 229.195 360.746C228.781 361.059 228.461 361.48 228.234 362.012V369.195L230.145 369.523V371H224.016ZM239.672 375.875V374.387L241.465 374.059V360.137L239.555 359.809V358.32H243.445L243.656 359.867C244.078 359.289 244.59 358.848 245.191 358.543C245.801 358.238 246.504 358.086 247.301 358.086C248.348 358.086 249.242 358.371 249.984 358.941C250.727 359.504 251.293 360.297 251.684 361.32C252.074 362.336 252.27 363.527 252.27 364.895V365.141C252.27 366.359 252.07 367.426 251.672 368.34C251.281 369.254 250.719 369.969 249.984 370.484C249.25 370.992 248.367 371.246 247.336 371.246C246.555 371.246 245.867 371.117 245.273 370.859C244.688 370.594 244.188 370.203 243.773 369.688V374.059L245.789 374.387V375.875H239.672ZM246.621 369.441C247.715 369.441 248.543 369.043 249.105 368.246C249.668 367.449 249.949 366.414 249.949 365.141V364.895C249.949 363.926 249.824 363.074 249.574 362.34C249.324 361.598 248.949 361.016 248.449 360.594C247.957 360.172 247.34 359.961 246.598 359.961C245.941 359.961 245.379 360.109 244.91 360.406C244.441 360.703 244.062 361.109 243.773 361.625V367.801C244.062 368.324 244.438 368.73 244.898 369.02C245.367 369.301 245.941 369.441 246.621 369.441ZM260.262 371.246C259.09 371.246 258.078 370.973 257.227 370.426C256.383 369.871 255.73 369.109 255.27 368.141C254.809 367.164 254.578 366.051 254.578 364.801V364.543C254.578 363.293 254.809 362.184 255.27 361.215C255.73 360.238 256.383 359.473 257.227 358.918C258.078 358.363 259.082 358.086 260.238 358.086C261.41 358.086 262.418 358.363 263.262 358.918C264.113 359.473 264.77 360.234 265.23 361.203C265.691 362.172 265.922 363.285 265.922 364.543V364.801C265.922 366.059 265.691 367.176 265.23 368.152C264.77 369.121 264.117 369.879 263.273 370.426C262.43 370.973 261.426 371.246 260.262 371.246ZM260.262 369.441C260.996 369.441 261.609 369.242 262.102 368.844C262.602 368.438 262.977 367.887 263.227 367.191C263.484 366.488 263.613 365.691 263.613 364.801V364.543C263.613 363.652 263.484 362.859 263.227 362.164C262.977 361.461 262.602 360.91 262.102 360.512C261.602 360.105 260.98 359.902 260.238 359.902C259.504 359.902 258.887 360.105 258.387 360.512C257.887 360.91 257.512 361.461 257.262 362.164C257.012 362.859 256.887 363.652 256.887 364.543V364.801C256.887 365.691 257.012 366.488 257.262 367.191C257.512 367.887 257.887 368.438 258.387 368.844C258.895 369.242 259.52 369.441 260.262 369.441ZM267.352 375.875V374.387L269.145 374.059V360.137L267.234 359.809V358.32H271.125L271.336 359.867C271.758 359.289 272.27 358.848 272.871 358.543C273.48 358.238 274.184 358.086 274.98 358.086C276.027 358.086 276.922 358.371 277.664 358.941C278.406 359.504 278.973 360.297 279.363 361.32C279.754 362.336 279.949 363.527 279.949 364.895V365.141C279.949 366.359 279.75 367.426 279.352 368.34C278.961 369.254 278.398 369.969 277.664 370.484C276.93 370.992 276.047 371.246 275.016 371.246C274.234 371.246 273.547 371.117 272.953 370.859C272.367 370.594 271.867 370.203 271.453 369.688V374.059L273.469 374.387V375.875H267.352ZM274.301 369.441C275.395 369.441 276.223 369.043 276.785 368.246C277.348 367.449 277.629 366.414 277.629 365.141V364.895C277.629 363.926 277.504 363.074 277.254 362.34C277.004 361.598 276.629 361.016 276.129 360.594C275.637 360.172 275.02 359.961 274.277 359.961C273.621 359.961 273.059 360.109 272.59 360.406C272.121 360.703 271.742 361.109 271.453 361.625V367.801C271.742 368.324 272.117 368.73 272.578 369.02C273.047 369.301 273.621 369.441 274.301 369.441ZM287.32 371.246C285.945 371.246 284.871 370.805 284.098 369.922C283.324 369.039 282.938 367.664 282.938 365.797V360.137L281.484 359.809V358.32H282.938H285.246V365.82C285.246 367.172 285.445 368.102 285.844 368.609C286.242 369.117 286.863 369.371 287.707 369.371C288.527 369.371 289.203 369.207 289.734 368.879C290.273 368.543 290.68 368.07 290.953 367.461V360.137L289.254 359.809V358.32H290.953H293.262V369.195L294.715 369.523V371H291.188L291.035 369.125C290.637 369.805 290.121 370.328 289.488 370.695C288.863 371.062 288.141 371.246 287.32 371.246ZM295.992 375.875V374.387L297.785 374.059V360.137L295.875 359.809V358.32H299.766L299.977 359.867C300.398 359.289 300.91 358.848 301.512 358.543C302.121 358.238 302.824 358.086 303.621 358.086C304.668 358.086 305.562 358.371 306.305 358.941C307.047 359.504 307.613 360.297 308.004 361.32C308.395 362.336 308.59 363.527 308.59 364.895V365.141C308.59 366.359 308.391 367.426 307.992 368.34C307.602 369.254 307.039 369.969 306.305 370.484C305.57 370.992 304.688 371.246 303.656 371.246C302.875 371.246 302.188 371.117 301.594 370.859C301.008 370.594 300.508 370.203 300.094 369.688V374.059L302.109 374.387V375.875H295.992ZM302.941 369.441C304.035 369.441 304.863 369.043 305.426 368.246C305.988 367.449 306.27 366.414 306.27 365.141V364.895C306.27 363.926 306.145 363.074 305.895 362.34C305.645 361.598 305.27 361.016 304.77 360.594C304.277 360.172 303.66 359.961 302.918 359.961C302.262 359.961 301.699 360.109 301.23 360.406C300.762 360.703 300.383 361.109 300.094 361.625V367.801C300.383 368.324 300.758 368.73 301.219 369.02C301.688 369.301 302.262 369.441 302.941 369.441Z" fill="black" fill-opacity="0.36"/>
<path d="M977.082 371.246C975.934 371.246 974.934 370.98 974.082 370.449C973.23 369.91 972.57 369.164 972.102 368.211C971.633 367.258 971.398 366.156 971.398 364.906V364.414C971.398 363.211 971.625 362.133 972.078 361.18C972.531 360.227 973.184 359.473 974.035 358.918C974.887 358.363 975.902 358.086 977.082 358.086C978.105 358.086 979 358.254 979.766 358.59C980.539 358.926 981.188 359.387 981.711 359.973L981.77 363.02H979.965L979.566 360.805C979.301 360.531 978.969 360.312 978.57 360.148C978.172 359.984 977.703 359.902 977.164 359.902C976.477 359.902 975.871 360.105 975.348 360.512C974.832 360.918 974.43 361.461 974.141 362.141C973.852 362.82 973.707 363.578 973.707 364.414V364.906C973.707 365.828 973.84 366.629 974.105 367.309C974.379 367.988 974.766 368.516 975.266 368.891C975.773 369.258 976.375 369.441 977.07 369.441C977.852 369.441 978.5 369.227 979.016 368.797C979.531 368.367 979.848 367.777 979.965 367.027H982.039L982.062 367.098C982.023 367.824 981.809 368.504 981.418 369.137C981.027 369.77 980.469 370.281 979.742 370.672C979.023 371.055 978.137 371.246 977.082 371.246ZM989.902 371.246C988.73 371.246 987.719 370.973 986.867 370.426C986.023 369.871 985.371 369.109 984.91 368.141C984.449 367.164 984.219 366.051 984.219 364.801V364.543C984.219 363.293 984.449 362.184 984.91 361.215C985.371 360.238 986.023 359.473 986.867 358.918C987.719 358.363 988.723 358.086 989.879 358.086C991.051 358.086 992.059 358.363 992.902 358.918C993.754 359.473 994.41 360.234 994.871 361.203C995.332 362.172 995.562 363.285 995.562 364.543V364.801C995.562 366.059 995.332 367.176 994.871 368.152C994.41 369.121 993.758 369.879 992.914 370.426C992.07 370.973 991.066 371.246 989.902 371.246ZM989.902 369.441C990.637 369.441 991.25 369.242 991.742 368.844C992.242 368.438 992.617 367.887 992.867 367.191C993.125 366.488 993.254 365.691 993.254 364.801V364.543C993.254 363.652 993.125 362.859 992.867 362.164C992.617 361.461 992.242 360.91 991.742 360.512C991.242 360.105 990.621 359.902 989.879 359.902C989.145 359.902 988.527 360.105 988.027 360.512C987.527 360.91 987.152 361.461 986.902 362.164C986.652 362.859 986.527 363.652 986.527 364.543V364.801C986.527 365.691 986.652 366.488 986.902 367.191C987.152 367.887 987.527 368.438 988.027 368.844C988.535 369.242 989.16 369.441 989.902 369.441ZM997.344 371V369.523L999.254 369.195V360.137L997.344 359.809V358.32H1001.32L1001.48 360.207C1001.9 359.535 1002.43 359.016 1003.06 358.648C1003.7 358.273 1004.43 358.086 1005.24 358.086C1006.61 358.086 1007.67 358.488 1008.42 359.293C1009.17 360.09 1009.54 361.324 1009.54 362.996V369.195L1011.45 369.523V371H1005.32V369.523L1007.23 369.195V363.043C1007.23 361.926 1007.01 361.133 1006.57 360.664C1006.13 360.195 1005.46 359.961 1004.55 359.961C1003.89 359.961 1003.3 360.121 1002.78 360.441C1002.27 360.762 1001.87 361.199 1001.56 361.754V369.195L1003.47 369.523V371H997.344ZM1017.1 371.199C1016.16 371.199 1015.42 370.926 1014.86 370.379C1014.32 369.824 1014.04 368.941 1014.04 367.73V360.031H1012.04V358.32H1014.04V355.262H1016.35V358.32H1019.11V360.031H1016.35V367.73C1016.35 368.34 1016.47 368.789 1016.71 369.078C1016.96 369.367 1017.28 369.512 1017.69 369.512C1017.96 369.512 1018.27 369.488 1018.6 369.441C1018.94 369.387 1019.2 369.34 1019.39 369.301L1019.7 370.812C1019.37 370.914 1018.95 371.004 1018.46 371.082C1017.98 371.16 1017.52 371.199 1017.1 371.199ZM1026.72 371.246C1025.55 371.246 1024.53 370.98 1023.66 370.449C1022.8 369.91 1022.12 369.164 1021.65 368.211C1021.18 367.258 1020.95 366.156 1020.95 364.906V364.391C1020.95 363.188 1021.19 362.113 1021.68 361.168C1022.18 360.215 1022.84 359.465 1023.66 358.918C1024.49 358.363 1025.39 358.086 1026.37 358.086C1027.51 358.086 1028.46 358.32 1029.23 358.789C1030 359.258 1030.59 359.918 1030.98 360.77C1031.37 361.613 1031.56 362.609 1031.56 363.758V365.199H1023.34L1023.3 365.258C1023.32 366.07 1023.46 366.793 1023.72 367.426C1024 368.051 1024.39 368.543 1024.89 368.902C1025.4 369.262 1026.01 369.441 1026.72 369.441C1027.5 369.441 1028.19 369.332 1028.77 369.113C1029.37 368.887 1029.88 368.578 1030.31 368.188L1031.21 369.688C1030.76 370.125 1030.16 370.496 1029.41 370.801C1028.66 371.098 1027.77 371.246 1026.72 371.246ZM1023.41 363.395H1029.25V363.09C1029.25 362.48 1029.14 361.938 1028.93 361.461C1028.71 360.977 1028.39 360.598 1027.96 360.324C1027.54 360.043 1027.01 359.902 1026.37 359.902C1025.86 359.902 1025.39 360.055 1024.96 360.359C1024.54 360.656 1024.2 361.062 1023.92 361.578C1023.65 362.094 1023.47 362.68 1023.38 363.336L1023.41 363.395ZM1033.37 371V369.523L1035.28 369.195V360.137L1033.37 359.809V358.32H1037.34L1037.5 360.207C1037.93 359.535 1038.45 359.016 1039.09 358.648C1039.73 358.273 1040.45 358.086 1041.27 358.086C1042.63 358.086 1043.69 358.488 1044.44 359.293C1045.19 360.09 1045.57 361.324 1045.57 362.996V369.195L1047.48 369.523V371H1041.35V369.523L1043.26 369.195V363.043C1043.26 361.926 1043.04 361.133 1042.59 360.664C1042.15 360.195 1041.48 359.961 1040.57 359.961C1039.91 359.961 1039.32 360.121 1038.8 360.441C1038.3 360.762 1037.89 361.199 1037.59 361.754V369.195L1039.5 369.523V371H1033.37ZM1053.12 371.199C1052.19 371.199 1051.44 370.926 1050.89 370.379C1050.34 369.824 1050.07 368.941 1050.07 367.73V360.031H1048.06V358.32H1050.07V355.262H1052.38V358.32H1055.13V360.031H1052.38V367.73C1052.38 368.34 1052.5 368.789 1052.74 369.078C1052.98 369.367 1053.3 369.512 1053.71 369.512C1053.98 369.512 1054.29 369.488 1054.62 369.441C1054.96 369.387 1055.22 369.34 1055.41 369.301L1055.73 370.812C1055.39 370.914 1054.98 371.004 1054.48 371.082C1054 371.16 1053.55 371.199 1053.12 371.199ZM1068.76 371.246C1067.38 371.246 1066.31 370.805 1065.54 369.922C1064.76 369.039 1064.38 367.664 1064.38 365.797V360.137L1062.92 359.809V358.32H1064.38H1066.68V365.82C1066.68 367.172 1066.88 368.102 1067.28 368.609C1067.68 369.117 1068.3 369.371 1069.14 369.371C1069.96 369.371 1070.64 369.207 1071.17 368.879C1071.71 368.543 1072.12 368.07 1072.39 367.461V360.137L1070.69 359.809V358.32H1072.39H1074.7V369.195L1076.15 369.523V371H1072.62L1072.47 369.125C1072.07 369.805 1071.56 370.328 1070.93 370.695C1070.3 371.062 1069.58 371.246 1068.76 371.246ZM1077.78 371V369.523L1079.69 369.195V360.137L1077.78 359.809V358.32H1081.75L1081.92 360.207C1082.34 359.535 1082.87 359.016 1083.5 358.648C1084.14 358.273 1084.87 358.086 1085.68 358.086C1087.05 358.086 1088.11 358.488 1088.86 359.293C1089.61 360.09 1089.98 361.324 1089.98 362.996V369.195L1091.89 369.523V371H1085.76V369.523L1087.67 369.195V363.043C1087.67 361.926 1087.45 361.133 1087 360.664C1086.57 360.195 1085.89 359.961 1084.99 359.961C1084.32 359.961 1083.73 360.121 1083.22 360.441C1082.71 360.762 1082.3 361.199 1082 361.754V369.195L1083.91 369.523V371H1077.78ZM1098.39 371.246C1097.36 371.246 1096.48 370.992 1095.73 370.484C1095 369.969 1094.44 369.254 1094.05 368.34C1093.66 367.426 1093.46 366.359 1093.46 365.141V364.895C1093.46 363.535 1093.66 362.344 1094.05 361.32C1094.44 360.297 1095 359.504 1095.75 358.941C1096.49 358.371 1097.38 358.086 1098.42 358.086C1099.17 358.086 1099.83 358.227 1100.4 358.508C1100.98 358.781 1101.47 359.18 1101.88 359.703V354.535L1099.96 354.207V352.719H1101.88H1104.18V369.195L1106.09 369.523V371H1102.18L1101.99 369.488C1101.58 370.066 1101.07 370.504 1100.47 370.801C1099.88 371.098 1099.18 371.246 1098.39 371.246ZM1098.98 369.371C1099.67 369.371 1100.25 369.215 1100.71 368.902C1101.18 368.59 1101.57 368.148 1101.88 367.578V361.695C1101.58 361.164 1101.19 360.742 1100.71 360.43C1100.24 360.117 1099.67 359.961 1099 359.961C1098.27 359.961 1097.66 360.172 1097.19 360.594C1096.71 361.008 1096.36 361.586 1096.12 362.328C1095.89 363.062 1095.77 363.918 1095.77 364.895V365.141C1095.77 366.414 1096.03 367.438 1096.55 368.211C1097.08 368.984 1097.89 369.371 1098.98 369.371ZM1113.39 371.246C1112.22 371.246 1111.2 370.98 1110.34 370.449C1109.47 369.91 1108.8 369.164 1108.32 368.211C1107.85 367.258 1107.62 366.156 1107.62 364.906V364.391C1107.62 363.188 1107.86 362.113 1108.36 361.168C1108.86 360.215 1109.52 359.465 1110.34 358.918C1111.16 358.363 1112.07 358.086 1113.04 358.086C1114.18 358.086 1115.14 358.32 1115.9 358.789C1116.68 359.258 1117.26 359.918 1117.65 360.77C1118.04 361.613 1118.23 362.609 1118.23 363.758V365.199H1110.01L1109.97 365.258C1109.99 366.07 1110.13 366.793 1110.39 367.426C1110.67 368.051 1111.06 368.543 1111.57 368.902C1112.07 369.262 1112.68 369.441 1113.39 369.441C1114.18 369.441 1114.86 369.332 1115.45 369.113C1116.04 368.887 1116.55 368.578 1116.98 368.188L1117.88 369.688C1117.43 370.125 1116.83 370.496 1116.08 370.801C1115.34 371.098 1114.44 371.246 1113.39 371.246ZM1110.08 363.395H1115.93V363.09C1115.93 362.48 1115.82 361.938 1115.6 361.461C1115.39 360.977 1115.07 360.598 1114.64 360.324C1114.21 360.043 1113.68 359.902 1113.04 359.902C1112.53 359.902 1112.06 360.055 1111.64 360.359C1111.21 360.656 1110.87 361.062 1110.59 361.578C1110.32 362.094 1110.14 362.68 1110.05 363.336L1110.08 363.395ZM1120.02 371V369.523L1121.93 369.195V360.137L1120.02 359.809V358.32H1123.99L1124.19 359.938L1124.21 360.16C1124.57 359.512 1125.01 359.004 1125.54 358.637C1126.07 358.27 1126.67 358.086 1127.35 358.086C1127.59 358.086 1127.84 358.109 1128.09 358.156C1128.35 358.195 1128.53 358.234 1128.64 358.273L1128.34 360.418L1126.73 360.324C1126.12 360.285 1125.61 360.426 1125.2 360.746C1124.78 361.059 1124.46 361.48 1124.23 362.012V369.195L1126.14 369.523V371H1120.02ZM1135.67 375.875V374.387L1137.46 374.059V360.137L1135.55 359.809V358.32H1139.45L1139.66 359.867C1140.08 359.289 1140.59 358.848 1141.19 358.543C1141.8 358.238 1142.5 358.086 1143.3 358.086C1144.35 358.086 1145.24 358.371 1145.98 358.941C1146.73 359.504 1147.29 360.297 1147.68 361.32C1148.07 362.336 1148.27 363.527 1148.27 364.895V365.141C1148.27 366.359 1148.07 367.426 1147.67 368.34C1147.28 369.254 1146.72 369.969 1145.98 370.484C1145.25 370.992 1144.37 371.246 1143.34 371.246C1142.55 371.246 1141.87 371.117 1141.27 370.859C1140.69 370.594 1140.19 370.203 1139.77 369.688V374.059L1141.79 374.387V375.875H1135.67ZM1142.62 369.441C1143.71 369.441 1144.54 369.043 1145.11 368.246C1145.67 367.449 1145.95 366.414 1145.95 365.141V364.895C1145.95 363.926 1145.82 363.074 1145.57 362.34C1145.32 361.598 1144.95 361.016 1144.45 360.594C1143.96 360.172 1143.34 359.961 1142.6 359.961C1141.94 359.961 1141.38 360.109 1140.91 360.406C1140.44 360.703 1140.06 361.109 1139.77 361.625V367.801C1140.06 368.324 1140.44 368.73 1140.9 369.02C1141.37 369.301 1141.94 369.441 1142.62 369.441ZM1156.26 371.246C1155.09 371.246 1154.08 370.973 1153.23 370.426C1152.38 369.871 1151.73 369.109 1151.27 368.141C1150.81 367.164 1150.58 366.051 1150.58 364.801V364.543C1150.58 363.293 1150.81 362.184 1151.27 361.215C1151.73 360.238 1152.38 359.473 1153.23 358.918C1154.08 358.363 1155.08 358.086 1156.24 358.086C1157.41 358.086 1158.42 358.363 1159.26 358.918C1160.11 359.473 1160.77 360.234 1161.23 361.203C1161.69 362.172 1161.92 363.285 1161.92 364.543V364.801C1161.92 366.059 1161.69 367.176 1161.23 368.152C1160.77 369.121 1160.12 369.879 1159.27 370.426C1158.43 370.973 1157.43 371.246 1156.26 371.246ZM1156.26 369.441C1157 369.441 1157.61 369.242 1158.1 368.844C1158.6 368.438 1158.98 367.887 1159.23 367.191C1159.48 366.488 1159.61 365.691 1159.61 364.801V364.543C1159.61 363.652 1159.48 362.859 1159.23 362.164C1158.98 361.461 1158.6 360.91 1158.1 360.512C1157.6 360.105 1156.98 359.902 1156.24 359.902C1155.5 359.902 1154.89 360.105 1154.39 360.512C1153.89 360.91 1153.51 361.461 1153.26 362.164C1153.01 362.859 1152.89 363.652 1152.89 364.543V364.801C1152.89 365.691 1153.01 366.488 1153.26 367.191C1153.51 367.887 1153.89 368.438 1154.39 368.844C1154.89 369.242 1155.52 369.441 1156.26 369.441ZM1163.35 375.875V374.387L1165.14 374.059V360.137L1163.23 359.809V358.32H1167.12L1167.34 359.867C1167.76 359.289 1168.27 358.848 1168.87 358.543C1169.48 358.238 1170.18 358.086 1170.98 358.086C1172.03 358.086 1172.92 358.371 1173.66 358.941C1174.41 359.504 1174.97 360.297 1175.36 361.32C1175.75 362.336 1175.95 363.527 1175.95 364.895V365.141C1175.95 366.359 1175.75 367.426 1175.35 368.34C1174.96 369.254 1174.4 369.969 1173.66 370.484C1172.93 370.992 1172.05 371.246 1171.02 371.246C1170.23 371.246 1169.55 371.117 1168.95 370.859C1168.37 370.594 1167.87 370.203 1167.45 369.688V374.059L1169.47 374.387V375.875H1163.35ZM1170.3 369.441C1171.39 369.441 1172.22 369.043 1172.79 368.246C1173.35 367.449 1173.63 366.414 1173.63 365.141V364.895C1173.63 363.926 1173.5 363.074 1173.25 362.34C1173 361.598 1172.63 361.016 1172.13 360.594C1171.64 360.172 1171.02 359.961 1170.28 359.961C1169.62 359.961 1169.06 360.109 1168.59 360.406C1168.12 360.703 1167.74 361.109 1167.45 361.625V367.801C1167.74 368.324 1168.12 368.73 1168.58 369.02C1169.05 369.301 1169.62 369.441 1170.3 369.441ZM1183.32 371.246C1181.95 371.246 1180.87 370.805 1180.1 369.922C1179.32 369.039 1178.94 367.664 1178.94 365.797V360.137L1177.48 359.809V358.32H1178.94H1181.25V365.82C1181.25 367.172 1181.45 368.102 1181.84 368.609C1182.24 369.117 1182.86 369.371 1183.71 369.371C1184.53 369.371 1185.2 369.207 1185.73 368.879C1186.27 368.543 1186.68 368.07 1186.95 367.461V360.137L1185.25 359.809V358.32H1186.95H1189.26V369.195L1190.71 369.523V371H1187.19L1187.04 369.125C1186.64 369.805 1186.12 370.328 1185.49 370.695C1184.86 371.062 1184.14 371.246 1183.32 371.246ZM1191.99 375.875V374.387L1193.79 374.059V360.137L1191.88 359.809V358.32H1195.77L1195.98 359.867C1196.4 359.289 1196.91 358.848 1197.51 358.543C1198.12 358.238 1198.82 358.086 1199.62 358.086C1200.67 358.086 1201.56 358.371 1202.3 358.941C1203.05 359.504 1203.61 360.297 1204 361.32C1204.39 362.336 1204.59 363.527 1204.59 364.895V365.141C1204.59 366.359 1204.39 367.426 1203.99 368.34C1203.6 369.254 1203.04 369.969 1202.3 370.484C1201.57 370.992 1200.69 371.246 1199.66 371.246C1198.88 371.246 1198.19 371.117 1197.59 370.859C1197.01 370.594 1196.51 370.203 1196.09 369.688V374.059L1198.11 374.387V375.875H1191.99ZM1198.94 369.441C1200.04 369.441 1200.86 369.043 1201.43 368.246C1201.99 367.449 1202.27 366.414 1202.27 365.141V364.895C1202.27 363.926 1202.14 363.074 1201.89 362.34C1201.64 361.598 1201.27 361.016 1200.77 360.594C1200.28 360.172 1199.66 359.961 1198.92 359.961C1198.26 359.961 1197.7 360.109 1197.23 360.406C1196.76 360.703 1196.38 361.109 1196.09 361.625V367.801C1196.38 368.324 1196.76 368.73 1197.22 369.02C1197.69 369.301 1198.26 369.441 1198.94 369.441Z" fill="black" fill-opacity="0.36"/>
<rect width="1280" height="64" fill="#C4C4C4"/>
<path d="M18.75 41.5H47.25V38.3333H18.75V41.5ZM18.75 33.5833H47.25V30.4167H18.75V33.5833ZM18.75 22.5V25.6667H47.25V22.5H18.75Z" fill="black"/>
<path d="M1247 16.1666C1238.26 16.1666 1231.17 23.26 1231.17 32C1231.17 40.74 1238.26 47.8333 1247 47.8333C1255.74 47.8333 1262.83 40.74 1262.83 32C1262.83 23.26 1255.74 16.1666 1247 16.1666ZM1239.19 41.9433C1239.88 40.5183 1244.02 39.125 1247 39.125C1249.98 39.125 1254.14 40.5183 1254.81 41.9433C1252.65 43.6533 1249.95 44.6666 1247 44.6666C1244.06 44.6666 1241.35 43.6533 1239.19 41.9433ZM1257.07 39.6475C1254.81 36.8925 1249.31 35.9583 1247 35.9583C1244.69 35.9583 1239.19 36.8925 1236.93 39.6475C1235.32 37.5258 1234.33 34.8816 1234.33 32C1234.33 25.0175 1240.02 19.3333 1247 19.3333C1253.98 19.3333 1259.67 25.0175 1259.67 32C1259.67 34.8816 1258.69 37.5258 1257.07 39.6475ZM1247 22.5C1243.93 22.5 1241.46 24.97 1241.46 28.0416C1241.46 31.1133 1243.93 33.5833 1247 33.5833C1250.07 33.5833 1252.54 31.1133 1252.54 28.0416C1252.54 24.97 1250.07 22.5 1247 22.5ZM1247 30.4166C1245.69 30.4166 1244.63 29.3558 1244.63 28.0416C1244.63 26.7275 1245.69 25.6666 1247 25.6666C1248.31 25.6666 1249.38 26.7275 1249.38 28.0416C1249.38 29.3558 1248.31 30.4166 1247 30.4166Z" fill="black"/>
<defs>
<filter id="filter0_d_8_54" x="538" y="544" width="204" height="66" filterUnits="userSpaceOnUse" color-interpolation-filters="sRGB">
<feFlood flood-opacity="0" result="BackgroundImageFix"/>
<feColorMatrix in="SourceAlpha" type="matrix" values="0 0 0 0 0 0 0 0 0 0 0 0 0 0 0 0 0 0 127 0" result="hardAlpha"/>
<feOffset dy="4"/>
<feGaussianBlur stdDeviation="2"/>
<feComposite in2="hardAlpha" operator="out"/>
<feColorMatrix type="matrix" values="0 0 0 0 0 0 0 0 0 0 0 0 0 0 0 0 0 0 0.25 0"/>
<feBlend mode="normal" in2="BackgroundImageFix" result="effect1_dropShadow_8_54"/>
<feBlend mode="normal" in="SourceGraphic" in2="effect1_dropShadow_8_54" result="shape"/>
</filter>
</defs>
</svg>
