<svg width="1280" height="720" viewBox="0 0 1280 720" fill="none" xmlns="http://www.w3.org/2000/svg">
<rect width="1280" height="720" fill="white"/>
<rect x="382" y="135" width="516" height="472" rx="14" fill="white" stroke="black" stroke-width="2"/>
<mask id="path-3-inside-1_8_54" fill="white">
<path d="M381 149C381 140.716 387.716 134 396 134H884C892.284 134 899 140.716 899 149V169C899 177.284 892.284 184 884 184H640H396C387.716 184 381 177.284 381 169V149Z"/>
</mask>
<path d="M381 149C381 140.716 387.716 134 396 134H884C892.284 134 899 140.716 899 149V169C899 177.284 892.284 184 884 184H640H396C387.716 184 381 177.284 381 169V149Z" fill="white"/>
<path d="M396 136H884V132H396V136ZM897 149V169H901V149H897ZM383 169V149H379V169H383ZM884 182H640V186H884V182ZM640 182H396V186H640V182ZM379 169C379 178.389 386.611 186 396 186V182C388.82 182 383 176.18 383 169H379ZM897 169C897 176.18 891.18 182 884 182V186C893.389 186 901 178.389 901 169H897ZM884 136C891.18 136 897 141.82 897 149H901C901 139.611 893.389 132 884 132V136ZM396 132C386.611 132 379 139.611 379 149H383C383 141.82 388.82 136 396 136V132Z" fill="black" mask="url(#path-3-inside-1_8_54)"/>
<path d="M562.399 168.802C560.688 168.802 559.258 168.427 558.11 167.677C556.969 166.927 556.11 165.899 555.531 164.595C554.961 163.29 554.676 161.809 554.676 160.153V159.907C554.676 158.235 554.977 156.751 555.578 155.454C556.18 154.149 557.043 153.122 558.168 152.372C559.293 151.622 560.637 151.247 562.199 151.247C563.301 151.247 564.309 151.419 565.223 151.763C566.137 152.106 566.895 152.544 567.496 153.075V156.755H565.656L565.41 154.059C565.16 153.864 564.871 153.7 564.543 153.567C564.223 153.434 563.863 153.333 563.465 153.263C563.074 153.192 562.649 153.157 562.188 153.157C561.07 153.157 560.125 153.446 559.352 154.024C558.578 154.595 557.992 155.384 557.594 156.391C557.195 157.399 556.996 158.563 556.996 159.884V160.153C556.996 161.583 557.207 162.806 557.629 163.821C558.059 164.829 558.68 165.599 559.492 166.13C560.313 166.661 561.309 166.927 562.481 166.927C563.028 166.927 563.563 166.86 564.086 166.727C564.61 166.595 565.043 166.423 565.387 166.212L565.645 163.833H567.449V167.536C566.809 167.934 566.043 168.247 565.153 168.474C564.262 168.692 563.344 168.802 562.399 168.802ZM569.699 168.556V167.079L571.61 166.751V157.692L569.699 157.364V155.876H573.672L573.871 157.493L573.895 157.716C574.254 157.067 574.695 156.559 575.219 156.192C575.75 155.825 576.356 155.641 577.035 155.641C577.278 155.641 577.524 155.665 577.774 155.712C578.031 155.751 578.215 155.79 578.324 155.829L578.02 157.974L576.414 157.88C575.805 157.841 575.293 157.981 574.879 158.302C574.465 158.614 574.145 159.036 573.918 159.567V166.751L575.828 167.079V168.556H569.699ZM585.274 168.802C584.102 168.802 583.082 168.536 582.215 168.005C581.348 167.466 580.676 166.72 580.199 165.766C579.731 164.813 579.496 163.712 579.496 162.462V161.946C579.496 160.743 579.742 159.669 580.235 158.724C580.735 157.77 581.395 157.02 582.215 156.474C583.043 155.919 583.945 155.641 584.922 155.641C586.063 155.641 587.016 155.876 587.781 156.345C588.555 156.813 589.137 157.474 589.528 158.325C589.918 159.169 590.113 160.165 590.113 161.313V162.755H581.887L581.852 162.813C581.867 163.626 582.008 164.349 582.274 164.981C582.547 165.606 582.938 166.099 583.445 166.458C583.953 166.817 584.563 166.997 585.274 166.997C586.055 166.997 586.738 166.888 587.324 166.669C587.918 166.442 588.43 166.134 588.86 165.743L589.762 167.243C589.309 167.681 588.707 168.052 587.957 168.356C587.215 168.653 586.32 168.802 585.274 168.802ZM581.957 160.95H587.805V160.645C587.805 160.036 587.695 159.493 587.477 159.016C587.266 158.532 586.945 158.153 586.516 157.88C586.094 157.599 585.563 157.458 584.922 157.458C584.406 157.458 583.938 157.61 583.516 157.915C583.094 158.212 582.746 158.618 582.473 159.134C582.199 159.649 582.02 160.235 581.934 160.891L581.957 160.95ZM596.207 168.802C594.887 168.802 593.883 168.481 593.195 167.841C592.508 167.192 592.164 166.282 592.164 165.11C592.164 164.306 592.383 163.606 592.82 163.013C593.266 162.411 593.906 161.946 594.742 161.618C595.578 161.282 596.578 161.114 597.742 161.114H600.004V159.872C600.004 159.106 599.77 158.513 599.301 158.091C598.84 157.669 598.188 157.458 597.344 157.458C596.813 157.458 596.352 157.524 595.961 157.657C595.57 157.782 595.215 157.958 594.895 158.184L594.649 159.954H592.867V157.048C593.438 156.587 594.102 156.239 594.86 156.005C595.617 155.763 596.457 155.641 597.379 155.641C598.918 155.641 600.125 156.009 601 156.743C601.875 157.477 602.313 158.528 602.313 159.895V166.001C602.313 166.165 602.313 166.325 602.313 166.481C602.32 166.638 602.332 166.794 602.348 166.95L603.578 167.079V168.556H600.262C600.192 168.212 600.137 167.903 600.098 167.63C600.059 167.356 600.031 167.083 600.016 166.809C599.57 167.38 599.012 167.856 598.34 168.239C597.676 168.614 596.965 168.802 596.207 168.802ZM596.547 166.868C597.313 166.868 598.012 166.684 598.645 166.317C599.278 165.95 599.731 165.509 600.004 164.993V162.696H597.66C596.598 162.696 595.801 162.95 595.27 163.458C594.738 163.966 594.473 164.532 594.473 165.157C594.473 165.712 594.645 166.138 594.988 166.434C595.332 166.724 595.852 166.868 596.547 166.868ZM609.848 168.755C608.91 168.755 608.164 168.481 607.61 167.934C607.063 167.38 606.789 166.497 606.789 165.286V157.587H604.785V155.876H606.789V152.817H609.098V155.876H611.852V157.587H609.098V165.286C609.098 165.895 609.219 166.345 609.461 166.634C609.703 166.923 610.028 167.067 610.434 167.067C610.707 167.067 611.012 167.044 611.348 166.997C611.684 166.942 611.945 166.895 612.133 166.856L612.449 168.368C612.113 168.47 611.699 168.559 611.207 168.638C610.723 168.716 610.27 168.755 609.848 168.755ZM619.469 168.802C618.297 168.802 617.278 168.536 616.41 168.005C615.543 167.466 614.871 166.72 614.395 165.766C613.926 164.813 613.692 163.712 613.692 162.462V161.946C613.692 160.743 613.938 159.669 614.43 158.724C614.93 157.77 615.59 157.02 616.41 156.474C617.238 155.919 618.141 155.641 619.117 155.641C620.258 155.641 621.211 155.876 621.977 156.345C622.75 156.813 623.332 157.474 623.723 158.325C624.113 159.169 624.309 160.165 624.309 161.313V162.755H616.082L616.047 162.813C616.063 163.626 616.203 164.349 616.469 164.981C616.742 165.606 617.133 166.099 617.641 166.458C618.149 166.817 618.758 166.997 619.469 166.997C620.25 166.997 620.934 166.888 621.52 166.669C622.113 166.442 622.625 166.134 623.055 165.743L623.957 167.243C623.504 167.681 622.903 168.052 622.153 168.356C621.41 168.653 620.516 168.802 619.469 168.802ZM616.153 160.95H622V160.645C622 160.036 621.891 159.493 621.672 159.016C621.461 158.532 621.141 158.153 620.711 157.88C620.289 157.599 619.758 157.458 619.117 157.458C618.602 157.458 618.133 157.61 617.711 157.915C617.289 158.212 616.942 158.618 616.668 159.134C616.395 159.649 616.215 160.235 616.129 160.891L616.153 160.95ZM632.043 168.556V167.079L633.309 166.903L639.274 151.493H641.254L647.113 166.903L648.367 167.079V168.556H643.469V167.079L644.758 166.856L643.633 163.716H636.801L635.641 166.856L636.93 167.079V168.556H632.043ZM637.516 161.782H642.93L640.422 154.845L640.281 154.458H640.211L640.07 154.845L637.516 161.782ZM655.445 168.802C654.297 168.802 653.297 168.536 652.445 168.005C651.594 167.466 650.934 166.72 650.465 165.766C649.996 164.813 649.762 163.712 649.762 162.462V161.97C649.762 160.766 649.988 159.688 650.442 158.735C650.895 157.782 651.547 157.028 652.399 156.474C653.25 155.919 654.266 155.641 655.445 155.641C656.469 155.641 657.363 155.809 658.129 156.145C658.903 156.481 659.551 156.942 660.074 157.528L660.133 160.575H658.328L657.93 158.36C657.664 158.087 657.332 157.868 656.934 157.704C656.535 157.54 656.067 157.458 655.528 157.458C654.84 157.458 654.235 157.661 653.711 158.067C653.195 158.474 652.793 159.016 652.504 159.696C652.215 160.376 652.07 161.134 652.07 161.97V162.462C652.07 163.384 652.203 164.184 652.469 164.864C652.742 165.544 653.129 166.071 653.629 166.446C654.137 166.813 654.738 166.997 655.434 166.997C656.215 166.997 656.863 166.782 657.379 166.352C657.895 165.923 658.211 165.333 658.328 164.583H660.403L660.426 164.653C660.387 165.38 660.172 166.059 659.781 166.692C659.391 167.325 658.832 167.837 658.106 168.227C657.387 168.61 656.5 168.802 655.445 168.802ZM668.43 168.802C667.281 168.802 666.281 168.536 665.43 168.005C664.578 167.466 663.918 166.72 663.449 165.766C662.981 164.813 662.746 163.712 662.746 162.462V161.97C662.746 160.766 662.973 159.688 663.426 158.735C663.879 157.782 664.531 157.028 665.383 156.474C666.235 155.919 667.25 155.641 668.43 155.641C669.453 155.641 670.348 155.809 671.113 156.145C671.887 156.481 672.535 156.942 673.059 157.528L673.117 160.575H671.313L670.914 158.36C670.649 158.087 670.317 157.868 669.918 157.704C669.52 157.54 669.051 157.458 668.512 157.458C667.824 157.458 667.219 157.661 666.695 158.067C666.18 158.474 665.778 159.016 665.488 159.696C665.199 160.376 665.055 161.134 665.055 161.97V162.462C665.055 163.384 665.188 164.184 665.453 164.864C665.727 165.544 666.113 166.071 666.613 166.446C667.121 166.813 667.723 166.997 668.418 166.997C669.199 166.997 669.848 166.782 670.363 166.352C670.879 165.923 671.195 165.333 671.313 164.583H673.387L673.41 164.653C673.371 165.38 673.156 166.059 672.766 166.692C672.375 167.325 671.817 167.837 671.09 168.227C670.371 168.61 669.485 168.802 668.43 168.802ZM681.25 168.802C680.078 168.802 679.067 168.528 678.215 167.981C677.371 167.427 676.719 166.665 676.258 165.696C675.797 164.72 675.567 163.606 675.567 162.356V162.099C675.567 160.849 675.797 159.739 676.258 158.77C676.719 157.794 677.371 157.028 678.215 156.474C679.067 155.919 680.07 155.641 681.227 155.641C682.399 155.641 683.406 155.919 684.25 156.474C685.102 157.028 685.758 157.79 686.219 158.759C686.68 159.727 686.91 160.841 686.91 162.099V162.356C686.91 163.614 686.68 164.731 686.219 165.708C685.758 166.677 685.106 167.434 684.262 167.981C683.418 168.528 682.414 168.802 681.25 168.802ZM681.25 166.997C681.985 166.997 682.598 166.798 683.09 166.399C683.59 165.993 683.965 165.442 684.215 164.747C684.473 164.044 684.602 163.247 684.602 162.356V162.099C684.602 161.208 684.473 160.415 684.215 159.72C683.965 159.016 683.59 158.466 683.09 158.067C682.59 157.661 681.969 157.458 681.227 157.458C680.492 157.458 679.875 157.661 679.375 158.067C678.875 158.466 678.5 159.016 678.25 159.72C678 160.415 677.875 161.208 677.875 162.099V162.356C677.875 163.247 678 164.044 678.25 164.747C678.5 165.442 678.875 165.993 679.375 166.399C679.883 166.798 680.508 166.997 681.25 166.997ZM694.27 168.802C692.895 168.802 691.82 168.36 691.047 167.477C690.274 166.595 689.887 165.22 689.887 163.352V157.692L688.434 157.364V155.876H689.887H692.195V163.376C692.195 164.727 692.395 165.657 692.793 166.165C693.192 166.673 693.813 166.927 694.656 166.927C695.477 166.927 696.153 166.763 696.684 166.434C697.223 166.099 697.629 165.626 697.903 165.016V157.692L696.203 157.364V155.876H697.903H700.211V166.751L701.664 167.079V168.556H698.137L697.985 166.681C697.586 167.36 697.07 167.884 696.438 168.251C695.813 168.618 695.09 168.802 694.27 168.802ZM703.293 168.556V167.079L705.203 166.751V157.692L703.293 157.364V155.876H707.266L707.43 157.763C707.852 157.091 708.379 156.571 709.012 156.204C709.653 155.829 710.379 155.641 711.192 155.641C712.559 155.641 713.617 156.044 714.367 156.849C715.117 157.645 715.492 158.88 715.492 160.552V166.751L717.403 167.079V168.556H711.274V167.079L713.184 166.751V160.599C713.184 159.481 712.961 158.688 712.516 158.22C712.078 157.751 711.406 157.516 710.5 157.516C709.836 157.516 709.246 157.677 708.731 157.997C708.223 158.317 707.817 158.755 707.512 159.309V166.751L709.422 167.079V168.556H703.293ZM723.051 168.755C722.113 168.755 721.367 168.481 720.813 167.934C720.266 167.38 719.992 166.497 719.992 165.286V157.587H717.988V155.876H719.992V152.817H722.301V155.876H725.055V157.587H722.301V165.286C722.301 165.895 722.422 166.345 722.664 166.634C722.906 166.923 723.231 167.067 723.637 167.067C723.91 167.067 724.215 167.044 724.551 166.997C724.887 166.942 725.149 166.895 725.336 166.856L725.653 168.368C725.317 168.47 724.903 168.559 724.41 168.638C723.926 168.716 723.473 168.755 723.051 168.755Z" fill="black"/>
<rect x="408" y="272" width="465" height="49" rx="15" fill="#E8E8E8"/>
<path d="M421.059 305.246C419.887 305.246 418.867 304.98 418 304.449C417.133 303.91 416.461 303.164 415.984 302.211C415.516 301.258 415.281 300.156 415.281 298.906V298.391C415.281 297.188 415.527 296.113 416.02 295.168C416.52 294.215 417.18 293.465 418 292.918C418.828 292.363 419.73 292.086 420.707 292.086C421.848 292.086 422.801 292.32 423.566 292.789C424.34 293.258 424.922 293.918 425.312 294.77C425.703 295.613 425.898 296.609 425.898 297.758V299.199H417.672L417.637 299.258C417.652 300.07 417.793 300.793 418.059 301.426C418.332 302.051 418.723 302.543 419.23 302.902C419.738 303.262 420.348 303.441 421.059 303.441C421.84 303.441 422.523 303.332 423.109 303.113C423.703 302.887 424.215 302.578 424.645 302.188L425.547 303.688C425.094 304.125 424.492 304.496 423.742 304.801C423 305.098 422.105 305.246 421.059 305.246ZM417.742 297.395H423.59V297.09C423.59 296.48 423.48 295.938 423.262 295.461C423.051 294.977 422.73 294.598 422.301 294.324C421.879 294.043 421.348 293.902 420.707 293.902C420.191 293.902 419.723 294.055 419.301 294.359C418.879 294.656 418.531 295.062 418.258 295.578C417.984 296.094 417.805 296.68 417.719 297.336L417.742 297.395ZM427.703 305V303.523L429.613 303.195V294.137L427.703 293.809V292.32H431.688L431.84 293.973C432.246 293.371 432.77 292.906 433.41 292.578C434.051 292.25 434.793 292.086 435.637 292.086C436.48 292.086 437.203 292.281 437.805 292.672C438.414 293.062 438.871 293.648 439.176 294.43C439.574 293.711 440.102 293.141 440.758 292.719C441.414 292.297 442.18 292.086 443.055 292.086C444.352 292.086 445.375 292.531 446.125 293.422C446.875 294.305 447.25 295.637 447.25 297.418V303.195L449.16 303.523V305H443.02V303.523L444.93 303.195V297.395C444.93 296.145 444.715 295.262 444.285 294.746C443.855 294.223 443.219 293.961 442.375 293.961C441.57 293.961 440.922 294.246 440.43 294.816C439.945 295.379 439.664 296.09 439.586 296.949V303.195L441.496 303.523V305H435.367V303.523L437.277 303.195V297.395C437.277 296.207 437.055 295.34 436.609 294.793C436.172 294.238 435.535 293.961 434.699 293.961C433.996 293.961 433.418 294.105 432.965 294.395C432.512 294.684 432.164 295.09 431.922 295.613V303.195L433.832 303.523V305H427.703ZM454.984 305.246C453.664 305.246 452.66 304.926 451.973 304.285C451.285 303.637 450.941 302.727 450.941 301.555C450.941 300.75 451.16 300.051 451.598 299.457C452.043 298.855 452.684 298.391 453.52 298.062C454.355 297.727 455.355 297.559 456.52 297.559H458.781V296.316C458.781 295.551 458.547 294.957 458.078 294.535C457.617 294.113 456.965 293.902 456.121 293.902C455.59 293.902 455.129 293.969 454.738 294.102C454.348 294.227 453.992 294.402 453.672 294.629L453.426 296.398H451.645V293.492C452.215 293.031 452.879 292.684 453.637 292.449C454.395 292.207 455.234 292.086 456.156 292.086C457.695 292.086 458.902 292.453 459.777 293.188C460.652 293.922 461.09 294.973 461.09 296.34V302.445C461.09 302.609 461.09 302.77 461.09 302.926C461.098 303.082 461.109 303.238 461.125 303.395L462.355 303.523V305H459.039C458.969 304.656 458.914 304.348 458.875 304.074C458.836 303.801 458.809 303.527 458.793 303.254C458.348 303.824 457.789 304.301 457.117 304.684C456.453 305.059 455.742 305.246 454.984 305.246ZM455.324 303.312C456.09 303.312 456.789 303.129 457.422 302.762C458.055 302.395 458.508 301.953 458.781 301.438V299.141H456.438C455.375 299.141 454.578 299.395 454.047 299.902C453.516 300.41 453.25 300.977 453.25 301.602C453.25 302.156 453.422 302.582 453.766 302.879C454.109 303.168 454.629 303.312 455.324 303.312ZM464.066 305V303.523L465.977 303.195V294.137L464.066 293.809V292.32H468.285V303.195L470.195 303.523V305H464.066ZM465.859 289.191V286.719H468.285V289.191H465.859ZM471.672 305V303.523L473.582 303.195V288.535L471.672 288.207V286.719H475.891V303.195L477.801 303.523V305H471.672Z" fill="black" fill-opacity="0.35"/>
<rect x="407" y="202" width="465" height="49" rx="15" fill="#E8E8E8"/>
<path d="M414.152 235V233.523L416.062 233.195V224.137L414.152 223.809V222.32H418.125L418.289 224.207C418.711 223.535 419.238 223.016 419.871 222.648C420.512 222.273 421.238 222.086 422.051 222.086C423.418 222.086 424.477 222.488 425.227 223.293C425.977 224.09 426.352 225.324 426.352 226.996V233.195L428.262 233.523V235H422.133V233.523L424.043 233.195V227.043C424.043 225.926 423.82 225.133 423.375 224.664C422.938 224.195 422.266 223.961 421.359 223.961C420.695 223.961 420.105 224.121 419.59 224.441C419.082 224.762 418.676 225.199 418.371 225.754V233.195L420.281 233.523V235H414.152ZM434.004 235.246C432.684 235.246 431.68 234.926 430.992 234.285C430.305 233.637 429.961 232.727 429.961 231.555C429.961 230.75 430.18 230.051 430.617 229.457C431.062 228.855 431.703 228.391 432.539 228.062C433.375 227.727 434.375 227.559 435.539 227.559H437.801V226.316C437.801 225.551 437.566 224.957 437.098 224.535C436.637 224.113 435.984 223.902 435.141 223.902C434.609 223.902 434.148 223.969 433.758 224.102C433.367 224.227 433.012 224.402 432.691 224.629L432.445 226.398H430.664V223.492C431.234 223.031 431.898 222.684 432.656 222.449C433.414 222.207 434.254 222.086 435.176 222.086C436.715 222.086 437.922 222.453 438.797 223.188C439.672 223.922 440.109 224.973 440.109 226.34V232.445C440.109 232.609 440.109 232.77 440.109 232.926C440.117 233.082 440.129 233.238 440.145 233.395L441.375 233.523V235H438.059C437.988 234.656 437.934 234.348 437.895 234.074C437.855 233.801 437.828 233.527 437.812 233.254C437.367 233.824 436.809 234.301 436.137 234.684C435.473 235.059 434.762 235.246 434.004 235.246ZM434.344 233.312C435.109 233.312 435.809 233.129 436.441 232.762C437.074 232.395 437.527 231.953 437.801 231.438V229.141H435.457C434.395 229.141 433.598 229.395 433.066 229.902C432.535 230.41 432.27 230.977 432.27 231.602C432.27 232.156 432.441 232.582 432.785 232.879C433.129 233.168 433.648 233.312 434.344 233.312ZM443.168 235V233.523L445.078 233.195V224.137L443.168 223.809V222.32H447.152L447.305 223.973C447.711 223.371 448.234 222.906 448.875 222.578C449.516 222.25 450.258 222.086 451.102 222.086C451.945 222.086 452.668 222.281 453.27 222.672C453.879 223.062 454.336 223.648 454.641 224.43C455.039 223.711 455.566 223.141 456.223 222.719C456.879 222.297 457.645 222.086 458.52 222.086C459.816 222.086 460.84 222.531 461.59 223.422C462.34 224.305 462.715 225.637 462.715 227.418V233.195L464.625 233.523V235H458.484V233.523L460.395 233.195V227.395C460.395 226.145 460.18 225.262 459.75 224.746C459.32 224.223 458.684 223.961 457.84 223.961C457.035 223.961 456.387 224.246 455.895 224.816C455.41 225.379 455.129 226.09 455.051 226.949V233.195L456.961 233.523V235H450.832V233.523L452.742 233.195V227.395C452.742 226.207 452.52 225.34 452.074 224.793C451.637 224.238 451 223.961 450.164 223.961C449.461 223.961 448.883 224.105 448.43 224.395C447.977 224.684 447.629 225.09 447.387 225.613V233.195L449.297 233.523V235H443.168ZM471.938 235.246C470.766 235.246 469.746 234.98 468.879 234.449C468.012 233.91 467.34 233.164 466.863 232.211C466.395 231.258 466.16 230.156 466.16 228.906V228.391C466.16 227.188 466.406 226.113 466.898 225.168C467.398 224.215 468.059 223.465 468.879 222.918C469.707 222.363 470.609 222.086 471.586 222.086C472.727 222.086 473.68 222.32 474.445 222.789C475.219 223.258 475.801 223.918 476.191 224.77C476.582 225.613 476.777 226.609 476.777 227.758V229.199H468.551L468.516 229.258C468.531 230.07 468.672 230.793 468.938 231.426C469.211 232.051 469.602 232.543 470.109 232.902C470.617 233.262 471.227 233.441 471.938 233.441C472.719 233.441 473.402 233.332 473.988 233.113C474.582 232.887 475.094 232.578 475.523 232.188L476.426 233.688C475.973 234.125 475.371 234.496 474.621 234.801C473.879 235.098 472.984 235.246 471.938 235.246ZM468.621 227.395H474.469V227.09C474.469 226.48 474.359 225.938 474.141 225.461C473.93 224.977 473.609 224.598 473.18 224.324C472.758 224.043 472.227 223.902 471.586 223.902C471.07 223.902 470.602 224.055 470.18 224.359C469.758 224.656 469.41 225.062 469.137 225.578C468.863 226.094 468.684 226.68 468.598 227.336L468.621 227.395Z" fill="black" fill-opacity="0.35"/>
<rect x="408" y="342" width="465" height="49" rx="15" fill="#E8E8E8"/>
<path d="M418.207 379.875V378.387L420 378.059V364.137L418.09 363.809V362.32H421.98L422.191 363.867C422.613 363.289 423.125 362.848 423.727 362.543C424.336 362.238 425.039 362.086 425.836 362.086C426.883 362.086 427.777 362.371 428.52 362.941C429.262 363.504 429.828 364.297 430.219 365.32C430.609 366.336 430.805 367.527 430.805 368.895V369.141C430.805 370.359 430.605 371.426 430.207 372.34C429.816 373.254 429.254 373.969 428.52 374.484C427.785 374.992 426.902 375.246 425.871 375.246C425.09 375.246 424.402 375.117 423.809 374.859C423.223 374.594 422.723 374.203 422.309 373.688V378.059L424.324 378.387V379.875H418.207ZM425.156 373.441C426.25 373.441 427.078 373.043 427.641 372.246C428.203 371.449 428.484 370.414 428.484 369.141V368.895C428.484 367.926 428.359 367.074 428.109 366.34C427.859 365.598 427.484 365.016 426.984 364.594C426.492 364.172 425.875 363.961 425.133 363.961C424.477 363.961 423.914 364.109 423.445 364.406C422.977 364.703 422.598 365.109 422.309 365.625V371.801C422.598 372.324 422.973 372.73 423.434 373.02C423.902 373.301 424.477 373.441 425.156 373.441ZM436.699 375.246C435.379 375.246 434.375 374.926 433.688 374.285C433 373.637 432.656 372.727 432.656 371.555C432.656 370.75 432.875 370.051 433.312 369.457C433.758 368.855 434.398 368.391 435.234 368.062C436.07 367.727 437.07 367.559 438.234 367.559H440.496V366.316C440.496 365.551 440.262 364.957 439.793 364.535C439.332 364.113 438.68 363.902 437.836 363.902C437.305 363.902 436.844 363.969 436.453 364.102C436.062 364.227 435.707 364.402 435.387 364.629L435.141 366.398H433.359V363.492C433.93 363.031 434.594 362.684 435.352 362.449C436.109 362.207 436.949 362.086 437.871 362.086C439.41 362.086 440.617 362.453 441.492 363.188C442.367 363.922 442.805 364.973 442.805 366.34V372.445C442.805 372.609 442.805 372.77 442.805 372.926C442.812 373.082 442.824 373.238 442.84 373.395L444.07 373.523V375H440.754C440.684 374.656 440.629 374.348 440.59 374.074C440.551 373.801 440.523 373.527 440.508 373.254C440.062 373.824 439.504 374.301 438.832 374.684C438.168 375.059 437.457 375.246 436.699 375.246ZM437.039 373.312C437.805 373.312 438.504 373.129 439.137 372.762C439.77 372.395 440.223 371.953 440.496 371.438V369.141H438.152C437.09 369.141 436.293 369.395 435.762 369.902C435.23 370.41 434.965 370.977 434.965 371.602C434.965 372.156 435.137 372.582 435.48 372.879C435.824 373.168 436.344 373.312 437.039 373.312ZM450.996 375.246C450.145 375.246 449.348 375.16 448.605 374.988C447.863 374.816 447.074 374.551 446.238 374.191L446.215 371.18H447.961L448.395 372.996C448.832 373.176 449.254 373.309 449.66 373.395C450.074 373.473 450.52 373.512 450.996 373.512C451.934 373.512 452.605 373.332 453.012 372.973C453.418 372.613 453.621 372.168 453.621 371.637C453.621 371.137 453.414 370.715 453 370.371C452.594 370.02 451.852 369.723 450.773 369.48C449.242 369.129 448.113 368.66 447.387 368.074C446.668 367.48 446.309 366.691 446.309 365.707C446.309 365.02 446.508 364.406 446.906 363.867C447.305 363.32 447.859 362.887 448.57 362.566C449.281 362.246 450.109 362.086 451.055 362.086C452.016 362.086 452.836 362.195 453.516 362.414C454.203 362.633 454.801 362.926 455.309 363.293L455.426 366.188H453.691L453.316 364.5C453.043 364.297 452.719 364.141 452.344 364.031C451.969 363.922 451.539 363.867 451.055 363.867C450.336 363.867 449.75 364.035 449.297 364.371C448.852 364.707 448.629 365.129 448.629 365.637C448.629 365.934 448.691 366.191 448.816 366.41C448.949 366.629 449.199 366.828 449.566 367.008C449.934 367.18 450.473 367.352 451.184 367.523C452.949 367.938 454.18 368.465 454.875 369.105C455.578 369.746 455.93 370.535 455.93 371.473C455.93 372.543 455.531 373.441 454.734 374.168C453.945 374.887 452.699 375.246 450.996 375.246ZM462.973 375.246C462.121 375.246 461.324 375.16 460.582 374.988C459.84 374.816 459.051 374.551 458.215 374.191L458.191 371.18H459.938L460.371 372.996C460.809 373.176 461.23 373.309 461.637 373.395C462.051 373.473 462.496 373.512 462.973 373.512C463.91 373.512 464.582 373.332 464.988 372.973C465.395 372.613 465.598 372.168 465.598 371.637C465.598 371.137 465.391 370.715 464.977 370.371C464.57 370.02 463.828 369.723 462.75 369.48C461.219 369.129 460.09 368.66 459.363 368.074C458.645 367.48 458.285 366.691 458.285 365.707C458.285 365.02 458.484 364.406 458.883 363.867C459.281 363.32 459.836 362.887 460.547 362.566C461.258 362.246 462.086 362.086 463.031 362.086C463.992 362.086 464.812 362.195 465.492 362.414C466.18 362.633 466.777 362.926 467.285 363.293L467.402 366.188H465.668L465.293 364.5C465.02 364.297 464.695 364.141 464.32 364.031C463.945 363.922 463.516 363.867 463.031 363.867C462.312 363.867 461.727 364.035 461.273 364.371C460.828 364.707 460.605 365.129 460.605 365.637C460.605 365.934 460.668 366.191 460.793 366.41C460.926 366.629 461.176 366.828 461.543 367.008C461.91 367.18 462.449 367.352 463.16 367.523C464.926 367.938 466.156 368.465 466.852 369.105C467.555 369.746 467.906 370.535 467.906 371.473C467.906 372.543 467.508 373.441 466.711 374.168C465.922 374.887 464.676 375.246 462.973 375.246ZM474.316 375L470.977 363.973L469.559 363.809V362.32H474.797V363.809L473.238 364.066L474.984 370.383L475.383 371.883H475.453L475.969 370.383L478.723 362.32H480.668L483.293 370.359L483.855 372.141H483.926L484.477 370.359L486.246 364.055L484.652 363.809V362.32H489.773V363.809L488.367 364.008L485.086 375H482.895L480.328 367.383L479.719 365.344L479.648 365.355L479.051 367.383L476.297 375H474.316ZM496.688 375.246C495.516 375.246 494.504 374.973 493.652 374.426C492.809 373.871 492.156 373.109 491.695 372.141C491.234 371.164 491.004 370.051 491.004 368.801V368.543C491.004 367.293 491.234 366.184 491.695 365.215C492.156 364.238 492.809 363.473 493.652 362.918C494.504 362.363 495.508 362.086 496.664 362.086C497.836 362.086 498.844 362.363 499.688 362.918C500.539 363.473 501.195 364.234 501.656 365.203C502.117 366.172 502.348 367.285 502.348 368.543V368.801C502.348 370.059 502.117 371.176 501.656 372.152C501.195 373.121 500.543 373.879 499.699 374.426C498.855 374.973 497.852 375.246 496.688 375.246ZM496.688 373.441C497.422 373.441 498.035 373.242 498.527 372.844C499.027 372.438 499.402 371.887 499.652 371.191C499.91 370.488 500.039 369.691 500.039 368.801V368.543C500.039 367.652 499.91 366.859 499.652 366.164C499.402 365.461 499.027 364.91 498.527 364.512C498.027 364.105 497.406 363.902 496.664 363.902C495.93 363.902 495.312 364.105 494.812 364.512C494.312 364.91 493.938 365.461 493.688 366.164C493.438 366.859 493.312 367.652 493.312 368.543V368.801C493.312 369.691 493.438 370.488 493.688 371.191C493.938 371.887 494.312 372.438 494.812 372.844C495.32 373.242 495.945 373.441 496.688 373.441ZM504.105 375V373.523L506.016 373.195V364.137L504.105 363.809V362.32H508.078L508.277 363.938L508.301 364.16C508.66 363.512 509.102 363.004 509.625 362.637C510.156 362.27 510.762 362.086 511.441 362.086C511.684 362.086 511.93 362.109 512.18 362.156C512.438 362.195 512.621 362.234 512.73 362.273L512.426 364.418L510.82 364.324C510.211 364.285 509.699 364.426 509.285 364.746C508.871 365.059 508.551 365.48 508.324 366.012V373.195L510.234 373.523V375H504.105ZM518.883 375.246C517.852 375.246 516.965 374.992 516.223 374.484C515.488 373.969 514.926 373.254 514.535 372.34C514.145 371.426 513.949 370.359 513.949 369.141V368.895C513.949 367.535 514.145 366.344 514.535 365.32C514.926 364.297 515.492 363.504 516.234 362.941C516.977 362.371 517.867 362.086 518.906 362.086C519.656 362.086 520.316 362.227 520.887 362.508C521.465 362.781 521.957 363.18 522.363 363.703V358.535L520.453 358.207V356.719H522.363H524.672V373.195L526.582 373.523V375H522.668L522.48 373.488C522.066 374.066 521.559 374.504 520.957 374.801C520.363 375.098 519.672 375.246 518.883 375.246ZM519.469 373.371C520.156 373.371 520.734 373.215 521.203 372.902C521.672 372.59 522.059 372.148 522.363 371.578V365.695C522.066 365.164 521.68 364.742 521.203 364.43C520.727 364.117 520.156 363.961 519.492 363.961C518.758 363.961 518.152 364.172 517.676 364.594C517.199 365.008 516.844 365.586 516.609 366.328C516.375 367.062 516.258 367.918 516.258 368.895V369.141C516.258 370.414 516.52 371.438 517.043 372.211C517.566 372.984 518.375 373.371 519.469 373.371Z" fill="black" fill-opacity="0.35"/>
<rect x="554" y="416" width="42" height="42" rx="21" fill="#E8E8E8"/>
<rect x="554" y="416" width="42" height="42" rx="21" fill="#E8E8E8"/>
<rect x="562" y="424" width="26" height="26" rx="13" fill="#424242"/>
<path d="M563.63 479.164C562.848 479.164 562.15 479.01 561.536 478.703C560.921 478.396 560.437 477.958 560.083 477.391C559.728 476.818 559.551 476.133 559.551 475.336V468.836L558.278 468.617V467.625H562.364V468.617L561.09 468.836V475.336C561.09 475.904 561.197 476.38 561.411 476.766C561.63 477.151 561.932 477.443 562.317 477.641C562.702 477.833 563.148 477.93 563.653 477.93C564.163 477.93 564.614 477.833 565.005 477.641C565.4 477.448 565.708 477.159 565.926 476.773C566.15 476.388 566.262 475.909 566.262 475.336V468.836L564.989 468.617V467.625H569.075V468.617L567.801 468.836V475.336C567.801 476.159 567.627 476.857 567.278 477.43C566.934 477.997 566.45 478.43 565.825 478.727C565.2 479.018 564.468 479.164 563.63 479.164ZM573.622 479.164C573.054 479.164 572.523 479.107 572.028 478.992C571.533 478.878 571.007 478.701 570.45 478.461L570.434 476.453H571.598L571.887 477.664C572.179 477.784 572.46 477.872 572.731 477.93C573.007 477.982 573.304 478.008 573.622 478.008C574.247 478.008 574.695 477.888 574.965 477.648C575.236 477.409 575.372 477.112 575.372 476.758C575.372 476.424 575.234 476.143 574.958 475.914C574.687 475.68 574.192 475.482 573.473 475.32C572.452 475.086 571.7 474.773 571.215 474.383C570.736 473.987 570.497 473.461 570.497 472.805C570.497 472.346 570.63 471.938 570.895 471.578C571.161 471.214 571.531 470.924 572.005 470.711C572.478 470.497 573.031 470.391 573.661 470.391C574.301 470.391 574.848 470.464 575.301 470.609C575.76 470.755 576.158 470.951 576.497 471.195L576.575 473.125H575.419L575.169 472C574.986 471.865 574.77 471.76 574.52 471.688C574.27 471.615 573.984 471.578 573.661 471.578C573.182 471.578 572.791 471.69 572.489 471.914C572.192 472.138 572.044 472.419 572.044 472.758C572.044 472.956 572.085 473.128 572.169 473.273C572.257 473.419 572.424 473.552 572.669 473.672C572.913 473.786 573.273 473.901 573.747 474.016C574.924 474.292 575.744 474.643 576.208 475.07C576.676 475.497 576.911 476.023 576.911 476.648C576.911 477.362 576.645 477.961 576.114 478.445C575.588 478.924 574.757 479.164 573.622 479.164ZM582.036 479.164C581.255 479.164 580.575 478.987 579.997 478.633C579.419 478.273 578.971 477.776 578.653 477.141C578.34 476.505 578.184 475.771 578.184 474.938V474.594C578.184 473.792 578.348 473.076 578.676 472.445C579.01 471.81 579.45 471.31 579.997 470.945C580.549 470.576 581.15 470.391 581.801 470.391C582.562 470.391 583.197 470.547 583.708 470.859C584.223 471.172 584.611 471.612 584.872 472.18C585.132 472.742 585.262 473.406 585.262 474.172V475.133H579.778L579.755 475.172C579.765 475.714 579.859 476.195 580.036 476.617C580.218 477.034 580.478 477.362 580.817 477.602C581.156 477.841 581.562 477.961 582.036 477.961C582.557 477.961 583.012 477.888 583.403 477.742C583.799 477.591 584.14 477.385 584.426 477.125L585.028 478.125C584.726 478.417 584.325 478.664 583.825 478.867C583.33 479.065 582.734 479.164 582.036 479.164ZM579.825 473.93H583.723V473.727C583.723 473.32 583.65 472.958 583.505 472.641C583.364 472.318 583.15 472.065 582.864 471.883C582.583 471.695 582.228 471.602 581.801 471.602C581.458 471.602 581.145 471.703 580.864 471.906C580.583 472.104 580.351 472.375 580.169 472.719C579.986 473.062 579.867 473.453 579.809 473.891L579.825 473.93ZM586.45 479V478.016L587.723 477.797V471.758L586.45 471.539V470.547H589.098L589.231 471.625L589.247 471.773C589.486 471.341 589.781 471.003 590.13 470.758C590.484 470.513 590.887 470.391 591.34 470.391C591.502 470.391 591.666 470.406 591.833 470.438C592.005 470.464 592.127 470.49 592.2 470.516L591.997 471.945L590.926 471.883C590.52 471.857 590.179 471.951 589.903 472.164C589.627 472.372 589.413 472.654 589.262 473.008V477.797L590.536 478.016V479H586.45Z" fill="black" fill-opacity="0.35"/>
<rect x="674" y="416" width="42" height="42" rx="21" fill="#E8E8E8"/>
<rect x="674" y="416" width="42" height="42" rx="21" fill="#E8E8E8"/>
<rect x="682" y="424" width="26" height="26" rx="13" fill="#B4B4B4"/>
<path d="M654.719 474V473.016L655.992 472.797V463.836L654.719 463.617V462.633H659.789C660.617 462.633 661.315 462.758 661.883 463.008C662.456 463.253 662.891 463.609 663.188 464.078C663.484 464.547 663.633 465.12 663.633 465.797C663.633 466.464 663.487 467.023 663.195 467.477C662.909 467.93 662.5 468.273 661.969 468.508C661.438 468.737 660.807 468.859 660.078 468.875L657.531 468.922V472.797L658.805 473.016V474H654.719ZM662.227 474L659.695 468.32L661.234 468.305L663.336 472.852L664.125 472.992V474H662.227ZM657.531 467.711H659.633C660.492 467.711 661.117 467.547 661.508 467.219C661.898 466.891 662.094 466.411 662.094 465.781C662.094 465.182 661.906 464.708 661.531 464.359C661.156 464.01 660.576 463.836 659.789 463.836H657.531V467.711ZM669.344 474.164C668.562 474.164 667.883 473.987 667.305 473.633C666.727 473.273 666.279 472.776 665.961 472.141C665.648 471.505 665.492 470.771 665.492 469.938V469.594C665.492 468.792 665.656 468.076 665.984 467.445C666.318 466.81 666.758 466.31 667.305 465.945C667.857 465.576 668.458 465.391 669.109 465.391C669.87 465.391 670.505 465.547 671.016 465.859C671.531 466.172 671.919 466.612 672.18 467.18C672.44 467.742 672.57 468.406 672.57 469.172V470.133H667.086L667.062 470.172C667.073 470.714 667.167 471.195 667.344 471.617C667.526 472.034 667.786 472.362 668.125 472.602C668.464 472.841 668.87 472.961 669.344 472.961C669.865 472.961 670.32 472.888 670.711 472.742C671.107 472.591 671.448 472.385 671.734 472.125L672.336 473.125C672.034 473.417 671.633 473.664 671.133 473.867C670.638 474.065 670.042 474.164 669.344 474.164ZM667.133 468.93H671.031V468.727C671.031 468.32 670.958 467.958 670.812 467.641C670.672 467.318 670.458 467.065 670.172 466.883C669.891 466.695 669.536 466.602 669.109 466.602C668.766 466.602 668.453 466.703 668.172 466.906C667.891 467.104 667.659 467.375 667.477 467.719C667.294 468.062 667.174 468.453 667.117 468.891L667.133 468.93ZM677.242 474.164C676.674 474.164 676.143 474.107 675.648 473.992C675.154 473.878 674.628 473.701 674.07 473.461L674.055 471.453H675.219L675.508 472.664C675.799 472.784 676.081 472.872 676.352 472.93C676.628 472.982 676.924 473.008 677.242 473.008C677.867 473.008 678.315 472.888 678.586 472.648C678.857 472.409 678.992 472.112 678.992 471.758C678.992 471.424 678.854 471.143 678.578 470.914C678.307 470.68 677.812 470.482 677.094 470.32C676.073 470.086 675.32 469.773 674.836 469.383C674.357 468.987 674.117 468.461 674.117 467.805C674.117 467.346 674.25 466.938 674.516 466.578C674.781 466.214 675.151 465.924 675.625 465.711C676.099 465.497 676.651 465.391 677.281 465.391C677.922 465.391 678.469 465.464 678.922 465.609C679.38 465.755 679.779 465.951 680.117 466.195L680.195 468.125H679.039L678.789 467C678.607 466.865 678.391 466.76 678.141 466.688C677.891 466.615 677.604 466.578 677.281 466.578C676.802 466.578 676.411 466.69 676.109 466.914C675.812 467.138 675.664 467.419 675.664 467.758C675.664 467.956 675.706 468.128 675.789 468.273C675.878 468.419 676.044 468.552 676.289 468.672C676.534 468.786 676.893 468.901 677.367 469.016C678.544 469.292 679.365 469.643 679.828 470.07C680.297 470.497 680.531 471.023 680.531 471.648C680.531 472.362 680.266 472.961 679.734 473.445C679.208 473.924 678.378 474.164 677.242 474.164ZM684.789 474.133C684.164 474.133 683.667 473.951 683.297 473.586C682.932 473.216 682.75 472.628 682.75 471.82V466.688H681.414V465.547H682.75V463.508H684.289V465.547H686.125V466.688H684.289V471.82C684.289 472.227 684.37 472.526 684.531 472.719C684.693 472.911 684.909 473.008 685.18 473.008C685.362 473.008 685.565 472.992 685.789 472.961C686.013 472.924 686.188 472.893 686.312 472.867L686.523 473.875C686.299 473.943 686.023 474.003 685.695 474.055C685.372 474.107 685.07 474.133 684.789 474.133ZM690.242 474.164C689.362 474.164 688.693 473.951 688.234 473.523C687.776 473.091 687.547 472.484 687.547 471.703C687.547 471.167 687.693 470.701 687.984 470.305C688.281 469.904 688.708 469.594 689.266 469.375C689.823 469.151 690.49 469.039 691.266 469.039H692.773V468.211C692.773 467.701 692.617 467.305 692.305 467.023C691.997 466.742 691.562 466.602 691 466.602C690.646 466.602 690.339 466.646 690.078 466.734C689.818 466.818 689.581 466.935 689.367 467.086L689.203 468.266H688.016V466.328C688.396 466.021 688.839 465.789 689.344 465.633C689.849 465.471 690.409 465.391 691.023 465.391C692.049 465.391 692.854 465.635 693.438 466.125C694.021 466.615 694.312 467.315 694.312 468.227V472.297C694.312 472.406 694.312 472.513 694.312 472.617C694.318 472.721 694.326 472.826 694.336 472.93L695.156 473.016V474H692.945C692.898 473.771 692.862 473.565 692.836 473.383C692.81 473.201 692.792 473.018 692.781 472.836C692.484 473.216 692.112 473.534 691.664 473.789C691.221 474.039 690.747 474.164 690.242 474.164ZM690.469 472.875C690.979 472.875 691.445 472.753 691.867 472.508C692.289 472.263 692.591 471.969 692.773 471.625V470.094H691.211C690.503 470.094 689.971 470.263 689.617 470.602C689.263 470.94 689.086 471.318 689.086 471.734C689.086 472.104 689.201 472.388 689.43 472.586C689.659 472.779 690.005 472.875 690.469 472.875ZM700.07 474.164C699.154 474.164 698.438 473.87 697.922 473.281C697.406 472.693 697.148 471.776 697.148 470.531V466.758L696.18 466.539V465.547H697.148H698.688V470.547C698.688 471.448 698.82 472.068 699.086 472.406C699.352 472.745 699.766 472.914 700.328 472.914C700.875 472.914 701.326 472.805 701.68 472.586C702.039 472.362 702.31 472.047 702.492 471.641V466.758L701.359 466.539V465.547H702.492H704.031V472.797L705 473.016V474H702.648L702.547 472.75C702.281 473.203 701.938 473.552 701.516 473.797C701.099 474.042 700.617 474.164 700.07 474.164ZM706.07 474V473.016L707.344 472.797V466.758L706.07 466.539V465.547H708.719L708.852 466.625L708.867 466.773C709.107 466.341 709.401 466.003 709.75 465.758C710.104 465.513 710.508 465.391 710.961 465.391C711.122 465.391 711.286 465.406 711.453 465.438C711.625 465.464 711.747 465.49 711.82 465.516L711.617 466.945L710.547 466.883C710.141 466.857 709.799 466.951 709.523 467.164C709.247 467.372 709.034 467.654 708.883 468.008V472.797L710.156 473.016V474H706.07ZM715.492 474.164C714.612 474.164 713.943 473.951 713.484 473.523C713.026 473.091 712.797 472.484 712.797 471.703C712.797 471.167 712.943 470.701 713.234 470.305C713.531 469.904 713.958 469.594 714.516 469.375C715.073 469.151 715.74 469.039 716.516 469.039H718.023V468.211C718.023 467.701 717.867 467.305 717.555 467.023C717.247 466.742 716.812 466.602 716.25 466.602C715.896 466.602 715.589 466.646 715.328 466.734C715.068 466.818 714.831 466.935 714.617 467.086L714.453 468.266H713.266V466.328C713.646 466.021 714.089 465.789 714.594 465.633C715.099 465.471 715.659 465.391 716.273 465.391C717.299 465.391 718.104 465.635 718.688 466.125C719.271 466.615 719.562 467.315 719.562 468.227V472.297C719.562 472.406 719.562 472.513 719.562 472.617C719.568 472.721 719.576 472.826 719.586 472.93L720.406 473.016V474H718.195C718.148 473.771 718.112 473.565 718.086 473.383C718.06 473.201 718.042 473.018 718.031 472.836C717.734 473.216 717.362 473.534 716.914 473.789C716.471 474.039 715.997 474.164 715.492 474.164ZM715.719 472.875C716.229 472.875 716.695 472.753 717.117 472.508C717.539 472.263 717.841 471.969 718.023 471.625V470.094H716.461C715.753 470.094 715.221 470.263 714.867 470.602C714.513 470.94 714.336 471.318 714.336 471.734C714.336 472.104 714.451 472.388 714.68 472.586C714.909 472.779 715.255 472.875 715.719 472.875ZM721.602 474V473.016L722.875 472.797V466.758L721.602 466.539V465.547H724.25L724.359 466.805C724.641 466.357 724.992 466.01 725.414 465.766C725.841 465.516 726.326 465.391 726.867 465.391C727.779 465.391 728.484 465.659 728.984 466.195C729.484 466.727 729.734 467.549 729.734 468.664V472.797L731.008 473.016V474H726.922V473.016L728.195 472.797V468.695C728.195 467.951 728.047 467.422 727.75 467.109C727.458 466.797 727.01 466.641 726.406 466.641C725.964 466.641 725.57 466.747 725.227 466.961C724.888 467.174 724.617 467.466 724.414 467.836V472.797L725.688 473.016V474H721.602ZM734.773 474.133C734.148 474.133 733.651 473.951 733.281 473.586C732.917 473.216 732.734 472.628 732.734 471.82V466.688H731.398V465.547H732.734V463.508H734.273V465.547H736.109V466.688H734.273V471.82C734.273 472.227 734.354 472.526 734.516 472.719C734.677 472.911 734.893 473.008 735.164 473.008C735.346 473.008 735.549 472.992 735.773 472.961C735.997 472.924 736.172 472.893 736.297 472.867L736.508 473.875C736.284 473.943 736.008 474.003 735.68 474.055C735.357 474.107 735.055 474.133 734.773 474.133ZM662.422 495V494.016L663.695 493.797V484.836L662.422 484.617V483.625H663.695H665.75L669.414 492.258H669.461L673.008 483.625H676.438V484.617L675.164 484.836V493.797L676.438 494.016V495H672.352V494.016L673.695 493.797V490.5V485.727L673.656 485.719L669.961 494.594H668.938L665.117 485.734L665.078 485.742L665.133 490.5V493.797L666.508 494.016V495H662.422ZM680.484 495.164C679.604 495.164 678.935 494.951 678.477 494.523C678.018 494.091 677.789 493.484 677.789 492.703C677.789 492.167 677.935 491.701 678.227 491.305C678.523 490.904 678.951 490.594 679.508 490.375C680.065 490.151 680.732 490.039 681.508 490.039H683.016V489.211C683.016 488.701 682.859 488.305 682.547 488.023C682.24 487.742 681.805 487.602 681.242 487.602C680.888 487.602 680.581 487.646 680.32 487.734C680.06 487.818 679.823 487.935 679.609 488.086L679.445 489.266H678.258V487.328C678.638 487.021 679.081 486.789 679.586 486.633C680.091 486.471 680.651 486.391 681.266 486.391C682.292 486.391 683.096 486.635 683.68 487.125C684.263 487.615 684.555 488.315 684.555 489.227V493.297C684.555 493.406 684.555 493.513 684.555 493.617C684.56 493.721 684.568 493.826 684.578 493.93L685.398 494.016V495H683.188C683.141 494.771 683.104 494.565 683.078 494.383C683.052 494.201 683.034 494.018 683.023 493.836C682.727 494.216 682.354 494.534 681.906 494.789C681.464 495.039 680.99 495.164 680.484 495.164ZM680.711 493.875C681.221 493.875 681.688 493.753 682.109 493.508C682.531 493.263 682.833 492.969 683.016 492.625V491.094H681.453C680.745 491.094 680.214 491.263 679.859 491.602C679.505 491.94 679.328 492.318 679.328 492.734C679.328 493.104 679.443 493.388 679.672 493.586C679.901 493.779 680.247 493.875 680.711 493.875ZM686.594 495V494.016L687.867 493.797V487.758L686.594 487.539V486.547H689.242L689.352 487.805C689.633 487.357 689.984 487.01 690.406 486.766C690.833 486.516 691.318 486.391 691.859 486.391C692.771 486.391 693.477 486.659 693.977 487.195C694.477 487.727 694.727 488.549 694.727 489.664V493.797L696 494.016V495H691.914V494.016L693.188 493.797V489.695C693.188 488.951 693.039 488.422 692.742 488.109C692.451 487.797 692.003 487.641 691.398 487.641C690.956 487.641 690.562 487.747 690.219 487.961C689.88 488.174 689.609 488.466 689.406 488.836V493.797L690.68 494.016V495H686.594ZM699.828 495.164C698.948 495.164 698.279 494.951 697.82 494.523C697.362 494.091 697.133 493.484 697.133 492.703C697.133 492.167 697.279 491.701 697.57 491.305C697.867 490.904 698.294 490.594 698.852 490.375C699.409 490.151 700.076 490.039 700.852 490.039H702.359V489.211C702.359 488.701 702.203 488.305 701.891 488.023C701.583 487.742 701.148 487.602 700.586 487.602C700.232 487.602 699.924 487.646 699.664 487.734C699.404 487.818 699.167 487.935 698.953 488.086L698.789 489.266H697.602V487.328C697.982 487.021 698.424 486.789 698.93 486.633C699.435 486.471 699.995 486.391 700.609 486.391C701.635 486.391 702.44 486.635 703.023 487.125C703.607 487.615 703.898 488.315 703.898 489.227V493.297C703.898 493.406 703.898 493.513 703.898 493.617C703.904 493.721 703.911 493.826 703.922 493.93L704.742 494.016V495H702.531C702.484 494.771 702.448 494.565 702.422 494.383C702.396 494.201 702.378 494.018 702.367 493.836C702.07 494.216 701.698 494.534 701.25 494.789C700.807 495.039 700.333 495.164 699.828 495.164ZM700.055 493.875C700.565 493.875 701.031 493.753 701.453 493.508C701.875 493.263 702.177 492.969 702.359 492.625V491.094H700.797C700.089 491.094 699.557 491.263 699.203 491.602C698.849 491.94 698.672 492.318 698.672 492.734C698.672 493.104 698.786 493.388 699.016 493.586C699.245 493.779 699.591 493.875 700.055 493.875ZM709.648 498.414C709.242 498.414 708.802 498.357 708.328 498.242C707.854 498.133 707.438 497.982 707.078 497.789L707.477 496.594C707.763 496.745 708.102 496.87 708.492 496.969C708.883 497.068 709.263 497.117 709.633 497.117C710.32 497.117 710.823 496.924 711.141 496.539C711.464 496.154 711.625 495.604 711.625 494.891V494.086C711.349 494.44 711.018 494.708 710.633 494.891C710.247 495.073 709.805 495.164 709.305 495.164C708.617 495.164 708.023 494.995 707.523 494.656C707.023 494.312 706.638 493.836 706.367 493.227C706.102 492.612 705.969 491.901 705.969 491.094V490.93C705.969 490.023 706.102 489.229 706.367 488.547C706.638 487.865 707.023 487.336 707.523 486.961C708.023 486.581 708.622 486.391 709.32 486.391C709.852 486.391 710.318 486.495 710.719 486.703C711.12 486.911 711.456 487.214 711.727 487.609L711.867 486.547H713.164V494.891C713.164 495.62 713.026 496.247 712.75 496.773C712.479 497.299 712.081 497.703 711.555 497.984C711.034 498.271 710.398 498.414 709.648 498.414ZM709.688 493.914C710.151 493.914 710.539 493.81 710.852 493.602C711.164 493.388 711.422 493.089 711.625 492.703V488.812C711.427 488.453 711.169 488.169 710.852 487.961C710.534 487.747 710.151 487.641 709.703 487.641C709.214 487.641 708.805 487.781 708.477 488.062C708.154 488.344 707.911 488.732 707.75 489.227C707.589 489.716 707.508 490.284 707.508 490.93V491.094C707.508 491.943 707.688 492.625 708.047 493.141C708.406 493.656 708.953 493.914 709.688 493.914ZM712.93 487.805L712.328 486.547H714.211V487.531L712.93 487.805ZM718.789 495.164C718.008 495.164 717.328 494.987 716.75 494.633C716.172 494.273 715.724 493.776 715.406 493.141C715.094 492.505 714.938 491.771 714.938 490.938V490.594C714.938 489.792 715.102 489.076 715.43 488.445C715.763 487.81 716.203 487.31 716.75 486.945C717.302 486.576 717.904 486.391 718.555 486.391C719.315 486.391 719.951 486.547 720.461 486.859C720.977 487.172 721.365 487.612 721.625 488.18C721.885 488.742 722.016 489.406 722.016 490.172V491.133H716.531L716.508 491.172C716.518 491.714 716.612 492.195 716.789 492.617C716.971 493.034 717.232 493.362 717.57 493.602C717.909 493.841 718.315 493.961 718.789 493.961C719.31 493.961 719.766 493.888 720.156 493.742C720.552 493.591 720.893 493.385 721.18 493.125L721.781 494.125C721.479 494.417 721.078 494.664 720.578 494.867C720.083 495.065 719.487 495.164 718.789 495.164ZM716.578 489.93H720.477V489.727C720.477 489.32 720.404 488.958 720.258 488.641C720.117 488.318 719.904 488.065 719.617 487.883C719.336 487.695 718.982 487.602 718.555 487.602C718.211 487.602 717.898 487.703 717.617 487.906C717.336 488.104 717.104 488.375 716.922 488.719C716.74 489.062 716.62 489.453 716.562 489.891L716.578 489.93ZM723.203 495V494.016L724.477 493.797V487.758L723.203 487.539V486.547H725.852L725.984 487.625L726 487.773C726.24 487.341 726.534 487.003 726.883 486.758C727.237 486.513 727.641 486.391 728.094 486.391C728.255 486.391 728.419 486.406 728.586 486.438C728.758 486.464 728.88 486.49 728.953 486.516L728.75 487.945L727.68 487.883C727.273 487.857 726.932 487.951 726.656 488.164C726.38 488.372 726.167 488.654 726.016 489.008V493.797L727.289 494.016V495H723.203Z" fill="black" fill-opacity="0.35"/>
<g filter="url(#filter0_d_8_54)">
<rect x="542" y="515" width="196" height="58" rx="24" fill="black"/>
<path d="M612.906 553.246C611.195 553.246 609.766 552.871 608.617 552.121C607.477 551.371 606.617 550.344 606.039 549.039C605.469 547.734 605.184 546.254 605.184 544.598V544.352C605.184 542.68 605.484 541.195 606.086 539.898C606.688 538.594 607.551 537.566 608.676 536.816C609.801 536.066 611.145 535.691 612.707 535.691C613.809 535.691 614.816 535.863 615.73 536.207C616.645 536.551 617.402 536.988 618.004 537.52V541.199H616.164L615.918 538.504C615.668 538.309 615.379 538.145 615.051 538.012C614.73 537.879 614.371 537.777 613.973 537.707C613.582 537.637 613.156 537.602 612.695 537.602C611.578 537.602 610.633 537.891 609.859 538.469C609.086 539.039 608.5 539.828 608.102 540.836C607.703 541.844 607.504 543.008 607.504 544.328V544.598C607.504 546.027 607.715 547.25 608.137 548.266C608.566 549.273 609.188 550.043 610 550.574C610.82 551.105 611.816 551.371 612.988 551.371C613.535 551.371 614.07 551.305 614.594 551.172C615.117 551.039 615.551 550.867 615.895 550.656L616.152 548.277H617.957V551.98C617.316 552.379 616.551 552.691 615.66 552.918C614.77 553.137 613.852 553.246 612.906 553.246ZM620.207 553V551.523L622.117 551.195V542.137L620.207 541.809V540.32H624.18L624.379 541.938L624.402 542.16C624.762 541.512 625.203 541.004 625.727 540.637C626.258 540.27 626.863 540.086 627.543 540.086C627.785 540.086 628.031 540.109 628.281 540.156C628.539 540.195 628.723 540.234 628.832 540.273L628.527 542.418L626.922 542.324C626.312 542.285 625.801 542.426 625.387 542.746C624.973 543.059 624.652 543.48 624.426 544.012V551.195L626.336 551.523V553H620.207ZM635.781 553.246C634.609 553.246 633.59 552.98 632.723 552.449C631.855 551.91 631.184 551.164 630.707 550.211C630.238 549.258 630.004 548.156 630.004 546.906V546.391C630.004 545.188 630.25 544.113 630.742 543.168C631.242 542.215 631.902 541.465 632.723 540.918C633.551 540.363 634.453 540.086 635.43 540.086C636.57 540.086 637.523 540.32 638.289 540.789C639.062 541.258 639.645 541.918 640.035 542.77C640.426 543.613 640.621 544.609 640.621 545.758V547.199H632.395L632.359 547.258C632.375 548.07 632.516 548.793 632.781 549.426C633.055 550.051 633.445 550.543 633.953 550.902C634.461 551.262 635.07 551.441 635.781 551.441C636.562 551.441 637.246 551.332 637.832 551.113C638.426 550.887 638.938 550.578 639.367 550.188L640.27 551.688C639.816 552.125 639.215 552.496 638.465 552.801C637.723 553.098 636.828 553.246 635.781 553.246ZM632.465 545.395H638.312V545.09C638.312 544.48 638.203 543.938 637.984 543.461C637.773 542.977 637.453 542.598 637.023 542.324C636.602 542.043 636.07 541.902 635.43 541.902C634.914 541.902 634.445 542.055 634.023 542.359C633.602 542.656 633.254 543.062 632.98 543.578C632.707 544.094 632.527 544.68 632.441 545.336L632.465 545.395ZM646.715 553.246C645.395 553.246 644.391 552.926 643.703 552.285C643.016 551.637 642.672 550.727 642.672 549.555C642.672 548.75 642.891 548.051 643.328 547.457C643.773 546.855 644.414 546.391 645.25 546.062C646.086 545.727 647.086 545.559 648.25 545.559H650.512V544.316C650.512 543.551 650.277 542.957 649.809 542.535C649.348 542.113 648.695 541.902 647.852 541.902C647.32 541.902 646.859 541.969 646.469 542.102C646.078 542.227 645.723 542.402 645.402 542.629L645.156 544.398H643.375V541.492C643.945 541.031 644.609 540.684 645.367 540.449C646.125 540.207 646.965 540.086 647.887 540.086C649.426 540.086 650.633 540.453 651.508 541.188C652.383 541.922 652.82 542.973 652.82 544.34V550.445C652.82 550.609 652.82 550.77 652.82 550.926C652.828 551.082 652.84 551.238 652.855 551.395L654.086 551.523V553H650.77C650.699 552.656 650.645 552.348 650.605 552.074C650.566 551.801 650.539 551.527 650.523 551.254C650.078 551.824 649.52 552.301 648.848 552.684C648.184 553.059 647.473 553.246 646.715 553.246ZM647.055 551.312C647.82 551.312 648.52 551.129 649.152 550.762C649.785 550.395 650.238 549.953 650.512 549.438V547.141H648.168C647.105 547.141 646.309 547.395 645.777 547.902C645.246 548.41 644.98 548.977 644.98 549.602C644.98 550.156 645.152 550.582 645.496 550.879C645.84 551.168 646.359 551.312 647.055 551.312ZM660.355 553.199C659.418 553.199 658.672 552.926 658.117 552.379C657.57 551.824 657.297 550.941 657.297 549.73V542.031H655.293V540.32H657.297V537.262H659.605V540.32H662.359V542.031H659.605V549.73C659.605 550.34 659.727 550.789 659.969 551.078C660.211 551.367 660.535 551.512 660.941 551.512C661.215 551.512 661.52 551.488 661.855 551.441C662.191 551.387 662.453 551.34 662.641 551.301L662.957 552.812C662.621 552.914 662.207 553.004 661.715 553.082C661.23 553.16 660.777 553.199 660.355 553.199ZM669.977 553.246C668.805 553.246 667.785 552.98 666.918 552.449C666.051 551.91 665.379 551.164 664.902 550.211C664.434 549.258 664.199 548.156 664.199 546.906V546.391C664.199 545.188 664.445 544.113 664.938 543.168C665.438 542.215 666.098 541.465 666.918 540.918C667.746 540.363 668.648 540.086 669.625 540.086C670.766 540.086 671.719 540.32 672.484 540.789C673.258 541.258 673.84 541.918 674.23 542.77C674.621 543.613 674.816 544.609 674.816 545.758V547.199H666.59L666.555 547.258C666.57 548.07 666.711 548.793 666.977 549.426C667.25 550.051 667.641 550.543 668.148 550.902C668.656 551.262 669.266 551.441 669.977 551.441C670.758 551.441 671.441 551.332 672.027 551.113C672.621 550.887 673.133 550.578 673.562 550.188L674.465 551.688C674.012 552.125 673.41 552.496 672.66 552.801C671.918 553.098 671.023 553.246 669.977 553.246ZM666.66 545.395H672.508V545.09C672.508 544.48 672.398 543.938 672.18 543.461C671.969 542.977 671.648 542.598 671.219 542.324C670.797 542.043 670.266 541.902 669.625 541.902C669.109 541.902 668.641 542.055 668.219 542.359C667.797 542.656 667.449 543.062 667.176 543.578C666.902 544.094 666.723 544.68 666.637 545.336L666.66 545.395Z" fill="white"/>
</g>
<path d="M882.5 150.615L880.385 148.5L872 156.885L863.615 148.5L861.5 150.615L869.885 159L861.5 167.385L863.615 169.5L872 161.115L880.385 169.5L882.5 167.385L874.115 159L882.5 150.615Z" fill="black"/>
<path d="M81.082 371.246C79.9336 371.246 78.9336 370.98 78.082 370.449C77.2305 369.91 76.5703 369.164 76.1016 368.211C75.6328 367.258 75.3984 366.156 75.3984 364.906V364.414C75.3984 363.211 75.625 362.133 76.0781 361.18C76.5312 360.227 77.1836 359.473 78.0352 358.918C78.8867 358.363 79.9023 358.086 81.082 358.086C82.1055 358.086 83 358.254 83.7656 358.59C84.5391 358.926 85.1875 359.387 85.7109 359.973L85.7695 363.02H83.9648L83.5664 360.805C83.3008 360.531 82.9688 360.312 82.5703 360.148C82.1719 359.984 81.7031 359.902 81.1641 359.902C80.4766 359.902 79.8711 360.105 79.3477 360.512C78.832 360.918 78.4297 361.461 78.1406 362.141C77.8516 362.82 77.707 363.578 77.707 364.414V364.906C77.707 365.828 77.8398 366.629 78.1055 367.309C78.3789 367.988 78.7656 368.516 79.2656 368.891C79.7734 369.258 80.375 369.441 81.0703 369.441C81.8516 369.441 82.5 369.227 83.0156 368.797C83.5312 368.367 83.8477 367.777 83.9648 367.027H86.0391L86.0625 367.098C86.0234 367.824 85.8086 368.504 85.418 369.137C85.0273 369.77 84.4688 370.281 83.7422 370.672C83.0234 371.055 82.1367 371.246 81.082 371.246ZM93.9023 371.246C92.7305 371.246 91.7188 370.973 90.8672 370.426C90.0234 369.871 89.3711 369.109 88.9102 368.141C88.4492 367.164 88.2188 366.051 88.2188 364.801V364.543C88.2188 363.293 88.4492 362.184 88.9102 361.215C89.3711 360.238 90.0234 359.473 90.8672 358.918C91.7188 358.363 92.7227 358.086 93.8789 358.086C95.0508 358.086 96.0586 358.363 96.9023 358.918C97.7539 359.473 98.4102 360.234 98.8711 361.203C99.332 362.172 99.5625 363.285 99.5625 364.543V364.801C99.5625 366.059 99.332 367.176 98.8711 368.152C98.4102 369.121 97.7578 369.879 96.9141 370.426C96.0703 370.973 95.0664 371.246 93.9023 371.246ZM93.9023 369.441C94.6367 369.441 95.25 369.242 95.7422 368.844C96.2422 368.438 96.6172 367.887 96.8672 367.191C97.125 366.488 97.2539 365.691 97.2539 364.801V364.543C97.2539 363.652 97.125 362.859 96.8672 362.164C96.6172 361.461 96.2422 360.91 95.7422 360.512C95.2422 360.105 94.6211 359.902 93.8789 359.902C93.1445 359.902 92.5273 360.105 92.0273 360.512C91.5273 360.91 91.1523 361.461 90.9023 362.164C90.6523 362.859 90.5273 363.652 90.5273 364.543V364.801C90.5273 365.691 90.6523 366.488 90.9023 367.191C91.1523 367.887 91.5273 368.438 92.0273 368.844C92.5352 369.242 93.1602 369.441 93.9023 369.441ZM101.344 371V369.523L103.254 369.195V360.137L101.344 359.809V358.32H105.316L105.48 360.207C105.902 359.535 106.43 359.016 107.062 358.648C107.703 358.273 108.43 358.086 109.242 358.086C110.609 358.086 111.668 358.488 112.418 359.293C113.168 360.09 113.543 361.324 113.543 362.996V369.195L115.453 369.523V371H109.324V369.523L111.234 369.195V363.043C111.234 361.926 111.012 361.133 110.566 360.664C110.129 360.195 109.457 359.961 108.551 359.961C107.887 359.961 107.297 360.121 106.781 360.441C106.273 360.762 105.867 361.199 105.562 361.754V369.195L107.473 369.523V371H101.344ZM121.102 371.199C120.164 371.199 119.418 370.926 118.863 370.379C118.316 369.824 118.043 368.941 118.043 367.73V360.031H116.039V358.32H118.043V355.262H120.352V358.32H123.105V360.031H120.352V367.73C120.352 368.34 120.473 368.789 120.715 369.078C120.957 369.367 121.281 369.512 121.688 369.512C121.961 369.512 122.266 369.488 122.602 369.441C122.938 369.387 123.199 369.34 123.387 369.301L123.703 370.812C123.367 370.914 122.953 371.004 122.461 371.082C121.977 371.16 121.523 371.199 121.102 371.199ZM130.723 371.246C129.551 371.246 128.531 370.98 127.664 370.449C126.797 369.91 126.125 369.164 125.648 368.211C125.18 367.258 124.945 366.156 124.945 364.906V364.391C124.945 363.188 125.191 362.113 125.684 361.168C126.184 360.215 126.844 359.465 127.664 358.918C128.492 358.363 129.395 358.086 130.371 358.086C131.512 358.086 132.465 358.32 133.23 358.789C134.004 359.258 134.586 359.918 134.977 360.77C135.367 361.613 135.562 362.609 135.562 363.758V365.199H127.336L127.301 365.258C127.316 366.07 127.457 366.793 127.723 367.426C127.996 368.051 128.387 368.543 128.895 368.902C129.402 369.262 130.012 369.441 130.723 369.441C131.504 369.441 132.188 369.332 132.773 369.113C133.367 368.887 133.879 368.578 134.309 368.188L135.211 369.688C134.758 370.125 134.156 370.496 133.406 370.801C132.664 371.098 131.77 371.246 130.723 371.246ZM127.406 363.395H133.254V363.09C133.254 362.48 133.145 361.938 132.926 361.461C132.715 360.977 132.395 360.598 131.965 360.324C131.543 360.043 131.012 359.902 130.371 359.902C129.855 359.902 129.387 360.055 128.965 360.359C128.543 360.656 128.195 361.062 127.922 361.578C127.648 362.094 127.469 362.68 127.383 363.336L127.406 363.395ZM137.367 371V369.523L139.277 369.195V360.137L137.367 359.809V358.32H141.34L141.504 360.207C141.926 359.535 142.453 359.016 143.086 358.648C143.727 358.273 144.453 358.086 145.266 358.086C146.633 358.086 147.691 358.488 148.441 359.293C149.191 360.09 149.566 361.324 149.566 362.996V369.195L151.477 369.523V371H145.348V369.523L147.258 369.195V363.043C147.258 361.926 147.035 361.133 146.59 360.664C146.152 360.195 145.48 359.961 144.574 359.961C143.91 359.961 143.32 360.121 142.805 360.441C142.297 360.762 141.891 361.199 141.586 361.754V369.195L143.496 369.523V371H137.367ZM157.125 371.199C156.188 371.199 155.441 370.926 154.887 370.379C154.34 369.824 154.066 368.941 154.066 367.73V360.031H152.062V358.32H154.066V355.262H156.375V358.32H159.129V360.031H156.375V367.73C156.375 368.34 156.496 368.789 156.738 369.078C156.98 369.367 157.305 369.512 157.711 369.512C157.984 369.512 158.289 369.488 158.625 369.441C158.961 369.387 159.223 369.34 159.41 369.301L159.727 370.812C159.391 370.914 158.977 371.004 158.484 371.082C158 371.16 157.547 371.199 157.125 371.199ZM172.758 371.246C171.383 371.246 170.309 370.805 169.535 369.922C168.762 369.039 168.375 367.664 168.375 365.797V360.137L166.922 359.809V358.32H168.375H170.684V365.82C170.684 367.172 170.883 368.102 171.281 368.609C171.68 369.117 172.301 369.371 173.145 369.371C173.965 369.371 174.641 369.207 175.172 368.879C175.711 368.543 176.117 368.07 176.391 367.461V360.137L174.691 359.809V358.32H176.391H178.699V369.195L180.152 369.523V371H176.625L176.473 369.125C176.074 369.805 175.559 370.328 174.926 370.695C174.301 371.062 173.578 371.246 172.758 371.246ZM181.781 371V369.523L183.691 369.195V360.137L181.781 359.809V358.32H185.754L185.918 360.207C186.34 359.535 186.867 359.016 187.5 358.648C188.141 358.273 188.867 358.086 189.68 358.086C191.047 358.086 192.105 358.488 192.855 359.293C193.605 360.09 193.98 361.324 193.98 362.996V369.195L195.891 369.523V371H189.762V369.523L191.672 369.195V363.043C191.672 361.926 191.449 361.133 191.004 360.664C190.566 360.195 189.895 359.961 188.988 359.961C188.324 359.961 187.734 360.121 187.219 360.441C186.711 360.762 186.305 361.199 186 361.754V369.195L187.91 369.523V371H181.781ZM202.395 371.246C201.363 371.246 200.477 370.992 199.734 370.484C199 369.969 198.438 369.254 198.047 368.34C197.656 367.426 197.461 366.359 197.461 365.141V364.895C197.461 363.535 197.656 362.344 198.047 361.32C198.438 360.297 199.004 359.504 199.746 358.941C200.488 358.371 201.379 358.086 202.418 358.086C203.168 358.086 203.828 358.227 204.398 358.508C204.977 358.781 205.469 359.18 205.875 359.703V354.535L203.965 354.207V352.719H205.875H208.184V369.195L210.094 369.523V371H206.18L205.992 369.488C205.578 370.066 205.07 370.504 204.469 370.801C203.875 371.098 203.184 371.246 202.395 371.246ZM202.98 369.371C203.668 369.371 204.246 369.215 204.715 368.902C205.184 368.59 205.57 368.148 205.875 367.578V361.695C205.578 361.164 205.191 360.742 204.715 360.43C204.238 360.117 203.668 359.961 203.004 359.961C202.27 359.961 201.664 360.172 201.188 360.594C200.711 361.008 200.355 361.586 200.121 362.328C199.887 363.062 199.77 363.918 199.77 364.895V365.141C199.77 366.414 200.031 367.438 200.555 368.211C201.078 368.984 201.887 369.371 202.98 369.371ZM217.395 371.246C216.223 371.246 215.203 370.98 214.336 370.449C213.469 369.91 212.797 369.164 212.32 368.211C211.852 367.258 211.617 366.156 211.617 364.906V364.391C211.617 363.188 211.863 362.113 212.355 361.168C212.855 360.215 213.516 359.465 214.336 358.918C215.164 358.363 216.066 358.086 217.043 358.086C218.184 358.086 219.137 358.32 219.902 358.789C220.676 359.258 221.258 359.918 221.648 360.77C222.039 361.613 222.234 362.609 222.234 363.758V365.199H214.008L213.973 365.258C213.988 366.07 214.129 366.793 214.395 367.426C214.668 368.051 215.059 368.543 215.566 368.902C216.074 369.262 216.684 369.441 217.395 369.441C218.176 369.441 218.859 369.332 219.445 369.113C220.039 368.887 220.551 368.578 220.98 368.188L221.883 369.688C221.43 370.125 220.828 370.496 220.078 370.801C219.336 371.098 218.441 371.246 217.395 371.246ZM214.078 363.395H219.926V363.09C219.926 362.48 219.816 361.938 219.598 361.461C219.387 360.977 219.066 360.598 218.637 360.324C218.215 360.043 217.684 359.902 217.043 359.902C216.527 359.902 216.059 360.055 215.637 360.359C215.215 360.656 214.867 361.062 214.594 361.578C214.32 362.094 214.141 362.68 214.055 363.336L214.078 363.395ZM224.016 371V369.523L225.926 369.195V360.137L224.016 359.809V358.32H227.988L228.188 359.938L228.211 360.16C228.57 359.512 229.012 359.004 229.535 358.637C230.066 358.27 230.672 358.086 231.352 358.086C231.594 358.086 231.84 358.109 232.09 358.156C232.348 358.195 232.531 358.234 232.641 358.273L232.336 360.418L230.73 360.324C230.121 360.285 229.609 360.426 229.195 360.746C228.781 361.059 228.461 361.48 228.234 362.012V369.195L230.145 369.523V371H224.016ZM239.672 375.875V374.387L241.465 374.059V360.137L239.555 359.809V358.32H243.445L243.656 359.867C244.078 359.289 244.59 358.848 245.191 358.543C245.801 358.238 246.504 358.086 247.301 358.086C248.348 358.086 249.242 358.371 249.984 358.941C250.727 359.504 251.293 360.297 251.684 361.32C252.074 362.336 252.27 363.527 252.27 364.895V365.141C252.27 366.359 252.07 367.426 251.672 368.34C251.281 369.254 250.719 369.969 249.984 370.484C249.25 370.992 248.367 371.246 247.336 371.246C246.555 371.246 245.867 371.117 245.273 370.859C244.688 370.594 244.188 370.203 243.773 369.688V374.059L245.789 374.387V375.875H239.672ZM246.621 369.441C247.715 369.441 248.543 369.043 249.105 368.246C249.668 367.449 249.949 366.414 249.949 365.141V364.895C249.949 363.926 249.824 363.074 249.574 362.34C249.324 361.598 248.949 361.016 248.449 360.594C247.957 360.172 247.34 359.961 246.598 359.961C245.941 359.961 245.379 360.109 244.91 360.406C244.441 360.703 244.062 361.109 243.773 361.625V367.801C244.062 368.324 244.438 368.73 244.898 369.02C245.367 369.301 245.941 369.441 246.621 369.441ZM260.262 371.246C259.09 371.246 258.078 370.973 257.227 370.426C256.383 369.871 255.73 369.109 255.27 368.141C254.809 367.164 254.578 366.051 254.578 364.801V364.543C254.578 363.293 254.809 362.184 255.27 361.215C255.73 360.238 256.383 359.473 257.227 358.918C258.078 358.363 259.082 358.086 260.238 358.086C261.41 358.086 262.418 358.363 263.262 358.918C264.113 359.473 264.77 360.234 265.23 361.203C265.691 362.172 265.922 363.285 265.922 364.543V364.801C265.922 366.059 265.691 367.176 265.23 368.152C264.77 369.121 264.117 369.879 263.273 370.426C262.43 370.973 261.426 371.246 260.262 371.246ZM260.262 369.441C260.996 369.441 261.609 369.242 262.102 368.844C262.602 368.438 262.977 367.887 263.227 367.191C263.484 366.488 263.613 365.691 263.613 364.801V364.543C263.613 363.652 263.484 362.859 263.227 362.164C262.977 361.461 262.602 360.91 262.102 360.512C261.602 360.105 260.98 359.902 260.238 359.902C259.504 359.902 258.887 360.105 258.387 360.512C257.887 360.91 257.512 361.461 257.262 362.164C257.012 362.859 256.887 363.652 256.887 364.543V364.801C256.887 365.691 257.012 366.488 257.262 367.191C257.512 367.887 257.887 368.438 258.387 368.844C258.895 369.242 259.52 369.441 260.262 369.441ZM267.352 375.875V374.387L269.145 374.059V360.137L267.234 359.809V358.32H271.125L271.336 359.867C271.758 359.289 272.27 358.848 272.871 358.543C273.48 358.238 274.184 358.086 274.98 358.086C276.027 358.086 276.922 358.371 277.664 358.941C278.406 359.504 278.973 360.297 279.363 361.32C279.754 362.336 279.949 363.527 279.949 364.895V365.141C279.949 366.359 279.75 367.426 279.352 368.34C278.961 369.254 278.398 369.969 277.664 370.484C276.93 370.992 276.047 371.246 275.016 371.246C274.234 371.246 273.547 371.117 272.953 370.859C272.367 370.594 271.867 370.203 271.453 369.688V374.059L273.469 374.387V375.875H267.352ZM274.301 369.441C275.395 369.441 276.223 369.043 276.785 368.246C277.348 367.449 277.629 366.414 277.629 365.141V364.895C277.629 363.926 277.504 363.074 277.254 362.34C277.004 361.598 276.629 361.016 276.129 360.594C275.637 360.172 275.02 359.961 274.277 359.961C273.621 359.961 273.059 360.109 272.59 360.406C272.121 360.703 271.742 361.109 271.453 361.625V367.801C271.742 368.324 272.117 368.73 272.578 369.02C273.047 369.301 273.621 369.441 274.301 369.441ZM287.32 371.246C285.945 371.246 284.871 370.805 284.098 369.922C283.324 369.039 282.938 367.664 282.938 365.797V360.137L281.484 359.809V358.32H282.938H285.246V365.82C285.246 367.172 285.445 368.102 285.844 368.609C286.242 369.117 286.863 369.371 287.707 369.371C288.527 369.371 289.203 369.207 289.734 368.879C290.273 368.543 290.68 368.07 290.953 367.461V360.137L289.254 359.809V358.32H290.953H293.262V369.195L294.715 369.523V371H291.188L291.035 369.125C290.637 369.805 290.121 370.328 289.488 370.695C288.863 371.062 288.141 371.246 287.32 371.246ZM295.992 375.875V374.387L297.785 374.059V360.137L295.875 359.809V358.32H299.766L299.977 359.867C300.398 359.289 300.91 358.848 301.512 358.543C302.121 358.238 302.824 358.086 303.621 358.086C304.668 358.086 305.562 358.371 306.305 358.941C307.047 359.504 307.613 360.297 308.004 361.32C308.395 362.336 308.59 363.527 308.59 364.895V365.141C308.59 366.359 308.391 367.426 307.992 368.34C307.602 369.254 307.039 369.969 306.305 370.484C305.57 370.992 304.688 371.246 303.656 371.246C302.875 371.246 302.188 371.117 301.594 370.859C301.008 370.594 300.508 370.203 300.094 369.688V374.059L302.109 374.387V375.875H295.992ZM302.941 369.441C304.035 369.441 304.863 369.043 305.426 368.246C305.988 367.449 306.27 366.414 306.27 365.141V364.895C306.27 363.926 306.145 363.074 305.895 362.34C305.645 361.598 305.27 361.016 304.77 360.594C304.277 360.172 303.66 359.961 302.918 359.961C302.262 359.961 301.699 360.109 301.23 360.406C300.762 360.703 300.383 361.109 300.094 361.625V367.801C300.383 368.324 300.758 368.73 301.219 369.02C301.688 369.301 302.262 369.441 302.941 369.441Z" fill="black" fill-opacity="0.36"/>
<path d="M977.082 371.246C975.934 371.246 974.934 370.98 974.082 370.449C973.23 369.91 972.57 369.164 972.102 368.211C971.633 367.258 971.398 366.156 971.398 364.906V364.414C971.398 363.211 971.625 362.133 972.078 361.18C972.531 360.227 973.184 359.473 974.035 358.918C974.887 358.363 975.902 358.086 977.082 358.086C978.105 358.086 979 358.254 979.766 358.59C980.539 358.926 981.188 359.387 981.711 359.973L981.77 363.02H979.965L979.566 360.805C979.301 360.531 978.969 360.312 978.57 360.148C978.172 359.984 977.703 359.902 977.164 359.902C976.477 359.902 975.871 360.105 975.348 360.512C974.832 360.918 974.43 361.461 974.141 362.141C973.852 362.82 973.707 363.578 973.707 364.414V364.906C973.707 365.828 973.84 366.629 974.105 367.309C974.379 367.988 974.766 368.516 975.266 368.891C975.773 369.258 976.375 369.441 977.07 369.441C977.852 369.441 978.5 369.227 979.016 368.797C979.531 368.367 979.848 367.777 979.965 367.027H982.039L982.062 367.098C982.023 367.824 981.809 368.504 981.418 369.137C981.027 369.77 980.469 370.281 979.742 370.672C979.023 371.055 978.137 371.246 977.082 371.246ZM989.902 371.246C988.73 371.246 987.719 370.973 986.867 370.426C986.023 369.871 985.371 369.109 984.91 368.141C984.449 367.164 984.219 366.051 984.219 364.801V364.543C984.219 363.293 984.449 362.184 984.91 361.215C985.371 360.238 986.023 359.473 986.867 358.918C987.719 358.363 988.723 358.086 989.879 358.086C991.051 358.086 992.059 358.363 992.902 358.918C993.754 359.473 994.41 360.234 994.871 361.203C995.332 362.172 995.562 363.285 995.562 364.543V364.801C995.562 366.059 995.332 367.176 994.871 368.152C994.41 369.121 993.758 369.879 992.914 370.426C992.07 370.973 991.066 371.246 989.902 371.246ZM989.902 369.441C990.637 369.441 991.25 369.242 991.742 368.844C992.242 368.438 992.617 367.887 992.867 367.191C993.125 366.488 993.254 365.691 993.254 364.801V364.543C993.254 363.652 993.125 362.859 992.867 362.164C992.617 361.461 992.242 360.91 991.742 360.512C991.242 360.105 990.621 359.902 989.879 359.902C989.145 359.902 988.527 360.105 988.027 360.512C987.527 360.91 987.152 361.461 986.902 362.164C986.652 362.859 986.527 363.652 986.527 364.543V364.801C986.527 365.691 986.652 366.488 986.902 367.191C987.152 367.887 987.527 368.438 988.027 368.844C988.535 369.242 989.16 369.441 989.902 369.441ZM997.344 371V369.523L999.254 369.195V360.137L997.344 359.809V358.32H1001.32L1001.48 360.207C1001.9 359.535 1002.43 359.016 1003.06 358.648C1003.7 358.273 1004.43 358.086 1005.24 358.086C1006.61 358.086 1007.67 358.488 1008.42 359.293C1009.17 360.09 1009.54 361.324 1009.54 362.996V369.195L1011.45 369.523V371H1005.32V369.523L1007.23 369.195V363.043C1007.23 361.926 1007.01 361.133 1006.57 360.664C1006.13 360.195 1005.46 359.961 1004.55 359.961C1003.89 359.961 1003.3 360.121 1002.78 360.441C1002.27 360.762 1001.87 361.199 1001.56 361.754V369.195L1003.47 369.523V371H997.344ZM1017.1 371.199C1016.16 371.199 1015.42 370.926 1014.86 370.379C1014.32 369.824 1014.04 368.941 1014.04 367.73V360.031H1012.04V358.32H1014.04V355.262H1016.35V358.32H1019.11V360.031H1016.35V367.73C1016.35 368.34 1016.47 368.789 1016.71 369.078C1016.96 369.367 1017.28 369.512 1017.69 369.512C1017.96 369.512 1018.27 369.488 1018.6 369.441C1018.94 369.387 1019.2 369.34 1019.39 369.301L1019.7 370.812C1019.37 370.914 1018.95 371.004 1018.46 371.082C1017.98 371.16 1017.52 371.199 1017.1 371.199ZM1026.72 371.246C1025.55 371.246 1024.53 370.98 1023.66 370.449C1022.8 369.91 1022.12 369.164 1021.65 368.211C1021.18 367.258 1020.95 366.156 1020.95 364.906V364.391C1020.95 363.188 1021.19 362.113 1021.68 361.168C1022.18 360.215 1022.84 359.465 1023.66 358.918C1024.49 358.363 1025.39 358.086 1026.37 358.086C1027.51 358.086 1028.46 358.32 1029.23 358.789C1030 359.258 1030.59 359.918 1030.98 360.77C1031.37 361.613 1031.56 362.609 1031.56 363.758V365.199H1023.34L1023.3 365.258C1023.32 366.07 1023.46 366.793 1023.72 367.426C1024 368.051 1024.39 368.543 1024.89 368.902C1025.4 369.262 1026.01 369.441 1026.72 369.441C1027.5 369.441 1028.19 369.332 1028.77 369.113C1029.37 368.887 1029.88 368.578 1030.31 368.188L1031.21 369.688C1030.76 370.125 1030.16 370.496 1029.41 370.801C1028.66 371.098 1027.77 371.246 1026.72 371.246ZM1023.41 363.395H1029.25V363.09C1029.25 362.48 1029.14 361.938 1028.93 361.461C1028.71 360.977 1028.39 360.598 1027.96 360.324C1027.54 360.043 1027.01 359.902 1026.37 359.902C1025.86 359.902 1025.39 360.055 1024.96 360.359C1024.54 360.656 1024.2 361.062 1023.92 361.578C1023.65 362.094 1023.47 362.68 1023.38 363.336L1023.41 363.395ZM1033.37 371V369.523L1035.28 369.195V360.137L1033.37 359.809V358.32H1037.34L1037.5 360.207C1037.93 359.535 1038.45 359.016 1039.09 358.648C1039.73 358.273 1040.45 358.086 1041.27 358.086C1042.63 358.086 1043.69 358.488 1044.44 359.293C1045.19 360.09 1045.57 361.324 1045.57 362.996V369.195L1047.48 369.523V371H1041.35V369.523L1043.26 369.195V363.043C1043.26 361.926 1043.04 361.133 1042.59 360.664C1042.15 360.195 1041.48 359.961 1040.57 359.961C1039.91 359.961 1039.32 360.121 1038.8 360.441C1038.3 360.762 1037.89 361.199 1037.59 361.754V369.195L1039.5 369.523V371H1033.37ZM1053.12 371.199C1052.19 371.199 1051.44 370.926 1050.89 370.379C1050.34 369.824 1050.07 368.941 1050.07 367.73V360.031H1048.06V358.32H1050.07V355.262H1052.38V358.32H1055.13V360.031H1052.38V367.73C1052.38 368.34 1052.5 368.789 1052.74 369.078C1052.98 369.367 1053.3 369.512 1053.71 369.512C1053.98 369.512 1054.29 369.488 1054.62 369.441C1054.96 369.387 1055.22 369.34 1055.41 369.301L1055.73 370.812C1055.39 370.914 1054.98 371.004 1054.48 371.082C1054 371.16 1053.55 371.199 1053.12 371.199ZM1068.76 371.246C1067.38 371.246 1066.31 370.805 1065.54 369.922C1064.76 369.039 1064.38 367.664 1064.38 365.797V360.137L1062.92 359.809V358.32H1064.38H1066.68V365.82C1066.68 367.172 1066.88 368.102 1067.28 368.609C1067.68 369.117 1068.3 369.371 1069.14 369.371C1069.96 369.371 1070.64 369.207 1071.17 368.879C1071.71 368.543 1072.12 368.07 1072.39 367.461V360.137L1070.69 359.809V358.32H1072.39H1074.7V369.195L1076.15 369.523V371H1072.62L1072.47 369.125C1072.07 369.805 1071.56 370.328 1070.93 370.695C1070.3 371.062 1069.58 371.246 1068.76 371.246ZM1077.78 371V369.523L1079.69 369.195V360.137L1077.78 359.809V358.32H1081.75L1081.92 360.207C1082.34 359.535 1082.87 359.016 1083.5 358.648C1084.14 358.273 1084.87 358.086 1085.68 358.086C1087.05 358.086 1088.11 358.488 1088.86 359.293C1089.61 360.09 1089.98 361.324 1089.98 362.996V369.195L1091.89 369.523V371H1085.76V369.523L1087.67 369.195V363.043C1087.67 361.926 1087.45 361.133 1087 360.664C1086.57 360.195 1085.89 359.961 1084.99 359.961C1084.32 359.961 1083.73 360.121 1083.22 360.441C1082.71 360.762 1082.3 361.199 1082 361.754V369.195L1083.91 369.523V371H1077.78ZM1098.39 371.246C1097.36 371.246 1096.48 370.992 1095.73 370.484C1095 369.969 1094.44 369.254 1094.05 368.34C1093.66 367.426 1093.46 366.359 1093.46 365.141V364.895C1093.46 363.535 1093.66 362.344 1094.05 361.32C1094.44 360.297 1095 359.504 1095.75 358.941C1096.49 358.371 1097.38 358.086 1098.42 358.086C1099.17 358.086 1099.83 358.227 1100.4 358.508C1100.98 358.781 1101.47 359.18 1101.88 359.703V354.535L1099.96 354.207V352.719H1101.88H1104.18V369.195L1106.09 369.523V371H1102.18L1101.99 369.488C1101.58 370.066 1101.07 370.504 1100.47 370.801C1099.88 371.098 1099.18 371.246 1098.39 371.246ZM1098.98 369.371C1099.67 369.371 1100.25 369.215 1100.71 368.902C1101.18 368.59 1101.57 368.148 1101.88 367.578V361.695C1101.58 361.164 1101.19 360.742 1100.71 360.43C1100.24 360.117 1099.67 359.961 1099 359.961C1098.27 359.961 1097.66 360.172 1097.19 360.594C1096.71 361.008 1096.36 361.586 1096.12 362.328C1095.89 363.062 1095.77 363.918 1095.77 364.895V365.141C1095.77 366.414 1096.03 367.438 1096.55 368.211C1097.08 368.984 1097.89 369.371 1098.98 369.371ZM1113.39 371.246C1112.22 371.246 1111.2 370.98 1110.34 370.449C1109.47 369.91 1108.8 369.164 1108.32 368.211C1107.85 367.258 1107.62 366.156 1107.62 364.906V364.391C1107.62 363.188 1107.86 362.113 1108.36 361.168C1108.86 360.215 1109.52 359.465 1110.34 358.918C1111.16 358.363 1112.07 358.086 1113.04 358.086C1114.18 358.086 1115.14 358.32 1115.9 358.789C1116.68 359.258 1117.26 359.918 1117.65 360.77C1118.04 361.613 1118.23 362.609 1118.23 363.758V365.199H1110.01L1109.97 365.258C1109.99 366.07 1110.13 366.793 1110.39 367.426C1110.67 368.051 1111.06 368.543 1111.57 368.902C1112.07 369.262 1112.68 369.441 1113.39 369.441C1114.18 369.441 1114.86 369.332 1115.45 369.113C1116.04 368.887 1116.55 368.578 1116.98 368.188L1117.88 369.688C1117.43 370.125 1116.83 370.496 1116.08 370.801C1115.34 371.098 1114.44 371.246 1113.39 371.246ZM1110.08 363.395H1115.93V363.09C1115.93 362.48 1115.82 361.938 1115.6 361.461C1115.39 360.977 1115.07 360.598 1114.64 360.324C1114.21 360.043 1113.68 359.902 1113.04 359.902C1112.53 359.902 1112.06 360.055 1111.64 360.359C1111.21 360.656 1110.87 361.062 1110.59 361.578C1110.32 362.094 1110.14 362.68 1110.05 363.336L1110.08 363.395ZM1120.02 371V369.523L1121.93 369.195V360.137L1120.02 359.809V358.32H1123.99L1124.19 359.938L1124.21 360.16C1124.57 359.512 1125.01 359.004 1125.54 358.637C1126.07 358.27 1126.67 358.086 1127.35 358.086C1127.59 358.086 1127.84 358.109 1128.09 358.156C1128.35 358.195 1128.53 358.234 1128.64 358.273L1128.34 360.418L1126.73 360.324C1126.12 360.285 1125.61 360.426 1125.2 360.746C1124.78 361.059 1124.46 361.48 1124.23 362.012V369.195L1126.14 369.523V371H1120.02ZM1135.67 375.875V374.387L1137.46 374.059V360.137L1135.55 359.809V358.32H1139.45L1139.66 359.867C1140.08 359.289 1140.59 358.848 1141.19 358.543C1141.8 358.238 1142.5 358.086 1143.3 358.086C1144.35 358.086 1145.24 358.371 1145.98 358.941C1146.73 359.504 1147.29 360.297 1147.68 361.32C1148.07 362.336 1148.27 363.527 1148.27 364.895V365.141C1148.27 366.359 1148.07 367.426 1147.67 368.34C1147.28 369.254 1146.72 369.969 1145.98 370.484C1145.25 370.992 1144.37 371.246 1143.34 371.246C1142.55 371.246 1141.87 371.117 1141.27 370.859C1140.69 370.594 1140.19 370.203 1139.77 369.688V374.059L1141.79 374.387V375.875H1135.67ZM1142.62 369.441C1143.71 369.441 1144.54 369.043 1145.11 368.246C1145.67 367.449 1145.95 366.414 1145.95 365.141V364.895C1145.95 363.926 1145.82 363.074 1145.57 362.34C1145.32 361.598 1144.95 361.016 1144.45 360.594C1143.96 360.172 1143.34 359.961 1142.6 359.961C1141.94 359.961 1141.38 360.109 1140.91 360.406C1140.44 360.703 1140.06 361.109 1139.77 361.625V367.801C1140.06 368.324 1140.44 368.73 1140.9 369.02C1141.37 369.301 1141.94 369.441 1142.62 369.441ZM1156.26 371.246C1155.09 371.246 1154.08 370.973 1153.23 370.426C1152.38 369.871 1151.73 369.109 1151.27 368.141C1150.81 367.164 1150.58 366.051 1150.58 364.801V364.543C1150.58 363.293 1150.81 362.184 1151.27 361.215C1151.73 360.238 1152.38 359.473 1153.23 358.918C1154.08 358.363 1155.08 358.086 1156.24 358.086C1157.41 358.086 1158.42 358.363 1159.26 358.918C1160.11 359.473 1160.77 360.234 1161.23 361.203C1161.69 362.172 1161.92 363.285 1161.92 364.543V364.801C1161.92 366.059 1161.69 367.176 1161.23 368.152C1160.77 369.121 1160.12 369.879 1159.27 370.426C1158.43 370.973 1157.43 371.246 1156.26 371.246ZM1156.26 369.441C1157 369.441 1157.61 369.242 1158.1 368.844C1158.6 368.438 1158.98 367.887 1159.23 367.191C1159.48 366.488 1159.61 365.691 1159.61 364.801V364.543C1159.61 363.652 1159.48 362.859 1159.23 362.164C1158.98 361.461 1158.6 360.91 1158.1 360.512C1157.6 360.105 1156.98 359.902 1156.24 359.902C1155.5 359.902 1154.89 360.105 1154.39 360.512C1153.89 360.91 1153.51 361.461 1153.26 362.164C1153.01 362.859 1152.89 363.652 1152.89 364.543V364.801C1152.89 365.691 1153.01 366.488 1153.26 367.191C1153.51 367.887 1153.89 368.438 1154.39 368.844C1154.89 369.242 1155.52 369.441 1156.26 369.441ZM1163.35 375.875V374.387L1165.14 374.059V360.137L1163.23 359.809V358.32H1167.12L1167.34 359.867C1167.76 359.289 1168.27 358.848 1168.87 358.543C1169.48 358.238 1170.18 358.086 1170.98 358.086C1172.03 358.086 1172.92 358.371 1173.66 358.941C1174.41 359.504 1174.97 360.297 1175.36 361.32C1175.75 362.336 1175.95 363.527 1175.95 364.895V365.141C1175.95 366.359 1175.75 367.426 1175.35 368.34C1174.96 369.254 1174.4 369.969 1173.66 370.484C1172.93 370.992 1172.05 371.246 1171.02 371.246C1170.23 371.246 1169.55 371.117 1168.95 370.859C1168.37 370.594 1167.87 370.203 1167.45 369.688V374.059L1169.47 374.387V375.875H1163.35ZM1170.3 369.441C1171.39 369.441 1172.22 369.043 1172.79 368.246C1173.35 367.449 1173.63 366.414 1173.63 365.141V364.895C1173.63 363.926 1173.5 363.074 1173.25 362.34C1173 361.598 1172.63 361.016 1172.13 360.594C1171.64 360.172 1171.02 359.961 1170.28 359.961C1169.62 359.961 1169.06 360.109 1168.59 360.406C1168.12 360.703 1167.74 361.109 1167.45 361.625V367.801C1167.74 368.324 1168.12 368.73 1168.58 369.02C1169.05 369.301 1169.62 369.441 1170.3 369.441ZM1183.32 371.246C1181.95 371.246 1180.87 370.805 1180.1 369.922C1179.32 369.039 1178.94 367.664 1178.94 365.797V360.137L1177.48 359.809V358.32H1178.94H1181.25V365.82C1181.25 367.172 1181.45 368.102 1181.84 368.609C1182.24 369.117 1182.86 369.371 1183.71 369.371C1184.53 369.371 1185.2 369.207 1185.73 368.879C1186.27 368.543 1186.68 368.07 1186.95 367.461V360.137L1185.25 359.809V358.32H1186.95H1189.26V369.195L1190.71 369.523V371H1187.19L1187.04 369.125C1186.64 369.805 1186.12 370.328 1185.49 370.695C1184.86 371.062 1184.14 371.246 1183.32 371.246ZM1191.99 375.875V374.387L1193.79 374.059V360.137L1191.88 359.809V358.32H1195.77L1195.98 359.867C1196.4 359.289 1196.91 358.848 1197.51 358.543C1198.12 358.238 1198.82 358.086 1199.62 358.086C1200.67 358.086 1201.56 358.371 1202.3 358.941C1203.05 359.504 1203.61 360.297 1204 361.32C1204.39 362.336 1204.59 363.527 1204.59 364.895V365.141C1204.59 366.359 1204.39 367.426 1203.99 368.34C1203.6 369.254 1203.04 369.969 1202.3 370.484C1201.57 370.992 1200.69 371.246 1199.66 371.246C1198.88 371.246 1198.19 371.117 1197.59 370.859C1197.01 370.594 1196.51 370.203 1196.09 369.688V374.059L1198.11 374.387V375.875H1191.99ZM1198.94 369.441C1200.04 369.441 1200.86 369.043 1201.43 368.246C1201.99 367.449 1202.27 366.414 1202.27 365.141V364.895C1202.27 363.926 1202.14 363.074 1201.89 362.34C1201.64 361.598 1201.27 361.016 1200.77 360.594C1200.28 360.172 1199.66 359.961 1198.92 359.961C1198.26 359.961 1197.7 360.109 1197.23 360.406C1196.76 360.703 1196.38 361.109 1196.09 361.625V367.801C1196.38 368.324 1196.76 368.73 1197.22 369.02C1197.69 369.301 1198.26 369.441 1198.94 369.441Z" fill="black" fill-opacity="0.36"/>
<rect width="1280" height="64" fill="#C4C4C4"/>
<path d="M18.75 41.5H47.25V38.3333H18.75V41.5ZM18.75 33.5833H47.25V30.4167H18.75V33.5833ZM18.75 22.5V25.6667H47.25V22.5H18.75Z" fill="black"/>
<path d="M1247 16.1666C1238.26 16.1666 1231.17 23.26 1231.17 32C1231.17 40.74 1238.26 47.8333 1247 47.8333C1255.74 47.8333 1262.83 40.74 1262.83 32C1262.83 23.26 1255.74 16.1666 1247 16.1666ZM1239.19 41.9433C1239.88 40.5183 1244.02 39.125 1247 39.125C1249.98 39.125 1254.14 40.5183 1254.81 41.9433C1252.65 43.6533 1249.95 44.6666 1247 44.6666C1244.06 44.6666 1241.35 43.6533 1239.19 41.9433ZM1257.07 39.6475C1254.81 36.8925 1249.31 35.9583 1247 35.9583C1244.69 35.9583 1239.19 36.8925 1236.93 39.6475C1235.32 37.5258 1234.33 34.8816 1234.33 32C1234.33 25.0175 1240.02 19.3333 1247 19.3333C1253.98 19.3333 1259.67 25.0175 1259.67 32C1259.67 34.8816 1258.69 37.5258 1257.07 39.6475ZM1247 22.5C1243.93 22.5 1241.46 24.97 1241.46 28.0416C1241.46 31.1133 1243.93 33.5833 1247 33.5833C1250.07 33.5833 1252.54 31.1133 1252.54 28.0416C1252.54 24.97 1250.07 22.5 1247 22.5ZM1247 30.4166C1245.69 30.4166 1244.63 29.3558 1244.63 28.0416C1244.63 26.7275 1245.69 25.6666 1247 25.6666C1248.31 25.6666 1249.38 26.7275 1249.38 28.0416C1249.38 29.3558 1248.31 30.4166 1247 30.4166Z" fill="black"/>
<defs>
<filter id="filter0_d_8_54" x="538" y="515" width="204" height="66" filterUnits="userSpaceOnUse" color-interpolation-filters="sRGB">
<feFlood flood-opacity="0" result="BackgroundImageFix"/>
<feColorMatrix in="SourceAlpha" type="matrix" values="0 0 0 0 0 0 0 0 0 0 0 0 0 0 0 0 0 0 127 0" result="hardAlpha"/>
<feOffset dy="4"/>
<feGaussianBlur stdDeviation="2"/>
<feComposite in2="hardAlpha" operator="out"/>
<feColorMatrix type="matrix" values="0 0 0 0 0 0 0 0 0 0 0 0 0 0 0 0 0 0 0.25 0"/>
<feBlend mode="normal" in2="BackgroundImageFix" result="effect1_dropShadow_8_54"/>
<feBlend mode="normal" in="SourceGraphic" in2="effect1_dropShadow_8_54" result="shape"/>
</filter>
</defs>
</svg>
