<svg width="1280" height="720" viewBox="0 0 1280 720" fill="none" xmlns="http://www.w3.org/2000/svg">
<rect width="1280" height="720" fill="white"/>
<rect width="1280" height="64" fill="#C4C4C4"/>
<path d="M18.75 41.5H47.25V38.3333H18.75V41.5ZM18.75 33.5833H47.25V30.4167H18.75V33.5833ZM18.75 22.5V25.6667H47.25V22.5H18.75Z" fill="black"/>
<path d="M1247 16.1667C1238.26 16.1667 1231.17 23.2601 1231.17 32.0001C1231.17 40.7401 1238.26 47.8334 1247 47.8334C1255.74 47.8334 1262.83 40.7401 1262.83 32.0001C1262.83 23.2601 1255.74 16.1667 1247 16.1667ZM1239.19 41.9434C1239.88 40.5184 1244.02 39.1251 1247 39.1251C1249.98 39.1251 1254.14 40.5184 1254.81 41.9434C1252.65 43.6534 1249.95 44.6668 1247 44.6668C1244.06 44.6668 1241.35 43.6534 1239.19 41.9434ZM1257.07 39.6476C1254.81 36.8926 1249.31 35.9584 1247 35.9584C1244.69 35.9584 1239.19 36.8926 1236.93 39.6476C1235.32 37.5259 1234.33 34.8818 1234.33 32.0001C1234.33 25.0176 1240.02 19.3334 1247 19.3334C1253.98 19.3334 1259.67 25.0176 1259.67 32.0001C1259.67 34.8818 1258.69 37.5259 1257.07 39.6476ZM1247 22.5001C1243.93 22.5001 1241.46 24.9701 1241.46 28.0417C1241.46 31.1134 1243.93 33.5834 1247 33.5834C1250.07 33.5834 1252.54 31.1134 1252.54 28.0417C1252.54 24.9701 1250.07 22.5001 1247 22.5001ZM1247 30.4167C1245.69 30.4167 1244.63 29.3559 1244.63 28.0417C1244.63 26.7276 1245.69 25.6667 1247 25.6667C1248.31 25.6667 1249.38 26.7276 1249.38 28.0417C1249.38 29.3559 1248.31 30.4167 1247 30.4167Z" fill="black"/>
<rect x="992" y="64" width="288" height="656" fill="#D8D8D8"/>
<rect x="1015" y="83" width="241" height="189" fill="#C4C4C4"/>
<path d="M1077.33 180V178.523L1079.24 178.195V164.754L1077.33 164.426V162.949H1084.93C1086.18 162.949 1087.22 163.137 1088.07 163.512C1088.93 163.879 1089.59 164.414 1090.03 165.117C1090.48 165.82 1090.7 166.68 1090.7 167.695C1090.7 168.695 1090.48 169.535 1090.04 170.215C1089.61 170.895 1089 171.41 1088.2 171.762C1087.41 172.105 1086.46 172.289 1085.37 172.312L1081.55 172.383V178.195L1083.46 178.523V180H1077.33ZM1088.59 180L1084.79 171.48L1087.1 171.457L1090.25 178.277L1091.44 178.488V180H1088.59ZM1081.55 170.566H1084.7C1085.99 170.566 1086.93 170.32 1087.51 169.828C1088.1 169.336 1088.39 168.617 1088.39 167.672C1088.39 166.773 1088.11 166.062 1087.55 165.539C1086.98 165.016 1086.11 164.754 1084.93 164.754H1081.55V170.566ZM1099.27 180.246C1098.09 180.246 1097.07 179.98 1096.21 179.449C1095.34 178.91 1094.67 178.164 1094.19 177.211C1093.72 176.258 1093.49 175.156 1093.49 173.906V173.391C1093.49 172.188 1093.73 171.113 1094.23 170.168C1094.73 169.215 1095.39 168.465 1096.21 167.918C1097.04 167.363 1097.94 167.086 1098.91 167.086C1100.05 167.086 1101.01 167.32 1101.77 167.789C1102.55 168.258 1103.13 168.918 1103.52 169.77C1103.91 170.613 1104.11 171.609 1104.11 172.758V174.199H1095.88L1095.84 174.258C1095.86 175.07 1096 175.793 1096.27 176.426C1096.54 177.051 1096.93 177.543 1097.44 177.902C1097.95 178.262 1098.55 178.441 1099.27 178.441C1100.05 178.441 1100.73 178.332 1101.32 178.113C1101.91 177.887 1102.42 177.578 1102.85 177.188L1103.75 178.688C1103.3 179.125 1102.7 179.496 1101.95 179.801C1101.21 180.098 1100.31 180.246 1099.27 180.246ZM1095.95 172.395H1101.8V172.09C1101.8 171.48 1101.69 170.938 1101.47 170.461C1101.26 169.977 1100.94 169.598 1100.51 169.324C1100.09 169.043 1099.55 168.902 1098.91 168.902C1098.4 168.902 1097.93 169.055 1097.51 169.359C1097.09 169.656 1096.74 170.062 1096.46 170.578C1096.19 171.094 1096.01 171.68 1095.93 172.336L1095.95 172.395ZM1111.11 180.246C1110.26 180.246 1109.46 180.16 1108.72 179.988C1107.98 179.816 1107.19 179.551 1106.36 179.191L1106.33 176.18H1108.08L1108.51 177.996C1108.95 178.176 1109.37 178.309 1109.78 178.395C1110.19 178.473 1110.64 178.512 1111.11 178.512C1112.05 178.512 1112.72 178.332 1113.13 177.973C1113.54 177.613 1113.74 177.168 1113.74 176.637C1113.74 176.137 1113.53 175.715 1113.12 175.371C1112.71 175.02 1111.97 174.723 1110.89 174.48C1109.36 174.129 1108.23 173.66 1107.5 173.074C1106.79 172.48 1106.43 171.691 1106.43 170.707C1106.43 170.02 1106.62 169.406 1107.02 168.867C1107.42 168.32 1107.98 167.887 1108.69 167.566C1109.4 167.246 1110.23 167.086 1111.17 167.086C1112.13 167.086 1112.95 167.195 1113.63 167.414C1114.32 167.633 1114.92 167.926 1115.43 168.293L1115.54 171.188H1113.81L1113.43 169.5C1113.16 169.297 1112.84 169.141 1112.46 169.031C1112.09 168.922 1111.66 168.867 1111.17 168.867C1110.45 168.867 1109.87 169.035 1109.41 169.371C1108.97 169.707 1108.75 170.129 1108.75 170.637C1108.75 170.934 1108.81 171.191 1108.93 171.41C1109.07 171.629 1109.32 171.828 1109.68 172.008C1110.05 172.18 1110.59 172.352 1111.3 172.523C1113.07 172.938 1114.3 173.465 1114.99 174.105C1115.7 174.746 1116.05 175.535 1116.05 176.473C1116.05 177.543 1115.65 178.441 1114.85 179.168C1114.06 179.887 1112.82 180.246 1111.11 180.246ZM1122.43 180.199C1121.5 180.199 1120.75 179.926 1120.2 179.379C1119.65 178.824 1119.38 177.941 1119.38 176.73V169.031H1117.37V167.32H1119.38V164.262H1121.68V167.32H1124.44V169.031H1121.68V176.73C1121.68 177.34 1121.8 177.789 1122.05 178.078C1122.29 178.367 1122.61 178.512 1123.02 178.512C1123.29 178.512 1123.6 178.488 1123.93 178.441C1124.27 178.387 1124.53 178.34 1124.72 178.301L1125.04 179.812C1124.7 179.914 1124.29 180.004 1123.79 180.082C1123.31 180.16 1122.86 180.199 1122.43 180.199ZM1130.61 180.246C1129.29 180.246 1128.29 179.926 1127.6 179.285C1126.91 178.637 1126.57 177.727 1126.57 176.555C1126.57 175.75 1126.79 175.051 1127.23 174.457C1127.67 173.855 1128.31 173.391 1129.15 173.062C1129.98 172.727 1130.98 172.559 1132.15 172.559H1134.41V171.316C1134.41 170.551 1134.18 169.957 1133.71 169.535C1133.25 169.113 1132.59 168.902 1131.75 168.902C1131.22 168.902 1130.76 168.969 1130.37 169.102C1129.98 169.227 1129.62 169.402 1129.3 169.629L1129.05 171.398H1127.27V168.492C1127.84 168.031 1128.51 167.684 1129.27 167.449C1130.02 167.207 1130.86 167.086 1131.79 167.086C1133.32 167.086 1134.53 167.453 1135.41 168.188C1136.28 168.922 1136.72 169.973 1136.72 171.34V177.445C1136.72 177.609 1136.72 177.77 1136.72 177.926C1136.73 178.082 1136.74 178.238 1136.75 178.395L1137.98 178.523V180H1134.67C1134.6 179.656 1134.54 179.348 1134.5 179.074C1134.46 178.801 1134.44 178.527 1134.42 178.254C1133.98 178.824 1133.42 179.301 1132.75 179.684C1132.08 180.059 1131.37 180.246 1130.61 180.246ZM1130.95 178.312C1131.72 178.312 1132.42 178.129 1133.05 177.762C1133.68 177.395 1134.14 176.953 1134.41 176.438V174.141H1132.07C1131 174.141 1130.21 174.395 1129.68 174.902C1129.14 175.41 1128.88 175.977 1128.88 176.602C1128.88 177.156 1129.05 177.582 1129.39 177.879C1129.74 178.168 1130.26 178.312 1130.95 178.312ZM1145.36 180.246C1143.98 180.246 1142.91 179.805 1142.13 178.922C1141.36 178.039 1140.97 176.664 1140.97 174.797V169.137L1139.52 168.809V167.32H1140.97H1143.28V174.82C1143.28 176.172 1143.48 177.102 1143.88 177.609C1144.28 178.117 1144.9 178.371 1145.74 178.371C1146.56 178.371 1147.24 178.207 1147.77 177.879C1148.31 177.543 1148.71 177.07 1148.99 176.461V169.137L1147.29 168.809V167.32H1148.99H1151.3V178.195L1152.75 178.523V180H1149.22L1149.07 178.125C1148.67 178.805 1148.16 179.328 1147.52 179.695C1146.9 180.062 1146.18 180.246 1145.36 180.246ZM1154.36 180V178.523L1156.27 178.195V169.137L1154.36 168.809V167.32H1158.33L1158.53 168.938L1158.55 169.16C1158.91 168.512 1159.35 168.004 1159.88 167.637C1160.41 167.27 1161.01 167.086 1161.69 167.086C1161.93 167.086 1162.18 167.109 1162.43 167.156C1162.69 167.195 1162.87 167.234 1162.98 167.273L1162.68 169.418L1161.07 169.324C1160.46 169.285 1159.95 169.426 1159.54 169.746C1159.12 170.059 1158.8 170.48 1158.57 171.012V178.195L1160.48 178.523V180H1154.36ZM1168.49 180.246C1167.17 180.246 1166.16 179.926 1165.48 179.285C1164.79 178.637 1164.45 177.727 1164.45 176.555C1164.45 175.75 1164.66 175.051 1165.1 174.457C1165.55 173.855 1166.19 173.391 1167.02 173.062C1167.86 172.727 1168.86 172.559 1170.02 172.559H1172.29V171.316C1172.29 170.551 1172.05 169.957 1171.58 169.535C1171.12 169.113 1170.47 168.902 1169.62 168.902C1169.09 168.902 1168.63 168.969 1168.24 169.102C1167.85 169.227 1167.5 169.402 1167.18 169.629L1166.93 171.398H1165.15V168.492C1165.72 168.031 1166.38 167.684 1167.14 167.449C1167.9 167.207 1168.74 167.086 1169.66 167.086C1171.2 167.086 1172.41 167.453 1173.28 168.188C1174.16 168.922 1174.59 169.973 1174.59 171.34V177.445C1174.59 177.609 1174.59 177.77 1174.59 177.926C1174.6 178.082 1174.61 178.238 1174.63 178.395L1175.86 178.523V180H1172.54C1172.47 179.656 1172.42 179.348 1172.38 179.074C1172.34 178.801 1172.31 178.527 1172.3 178.254C1171.85 178.824 1171.29 179.301 1170.62 179.684C1169.96 180.059 1169.25 180.246 1168.49 180.246ZM1168.83 178.312C1169.59 178.312 1170.29 178.129 1170.93 177.762C1171.56 177.395 1172.01 176.953 1172.29 176.438V174.141H1169.94C1168.88 174.141 1168.08 174.395 1167.55 174.902C1167.02 175.41 1166.75 175.977 1166.75 176.602C1166.75 177.156 1166.93 177.582 1167.27 177.879C1167.61 178.168 1168.13 178.312 1168.83 178.312ZM1177.65 180V178.523L1179.56 178.195V169.137L1177.65 168.809V167.32H1181.62L1181.79 169.207C1182.21 168.535 1182.74 168.016 1183.37 167.648C1184.01 167.273 1184.74 167.086 1185.55 167.086C1186.92 167.086 1187.98 167.488 1188.73 168.293C1189.48 169.09 1189.85 170.324 1189.85 171.996V178.195L1191.76 178.523V180H1185.63V178.523L1187.54 178.195V172.043C1187.54 170.926 1187.32 170.133 1186.88 169.664C1186.44 169.195 1185.77 168.961 1184.86 168.961C1184.2 168.961 1183.61 169.121 1183.09 169.441C1182.58 169.762 1182.18 170.199 1181.87 170.754V178.195L1183.78 178.523V180H1177.65ZM1197.41 180.199C1196.47 180.199 1195.73 179.926 1195.17 179.379C1194.62 178.824 1194.35 177.941 1194.35 176.73V169.031H1192.35V167.32H1194.35V164.262H1196.66V167.32H1199.41V169.031H1196.66V176.73C1196.66 177.34 1196.78 177.789 1197.02 178.078C1197.27 178.367 1197.59 178.512 1198 178.512C1198.27 178.512 1198.57 178.488 1198.91 178.441C1199.25 178.387 1199.51 178.34 1199.7 178.301L1200.01 179.812C1199.68 179.914 1199.26 180.004 1198.77 180.082C1198.29 180.16 1197.83 180.199 1197.41 180.199ZM1115.93 212V210.523L1117.84 210.195V196.754L1115.93 196.426V194.938H1122.06V196.426L1120.15 196.754V210.195L1122.06 210.523V212H1115.93ZM1124.12 212V210.523L1126.03 210.195V196.754L1124.12 196.426V194.938H1126.03H1129.11L1134.61 207.887H1134.68L1140 194.938H1145.14V196.426L1143.23 196.754V210.195L1145.14 210.523V212H1139.02V210.523L1141.03 210.195V205.25V198.09L1140.97 198.078L1135.43 211.391H1133.89L1128.16 198.102L1128.11 198.113L1128.19 205.25V210.195L1130.25 210.523V212H1124.12ZM1154.89 212.246C1153.32 212.246 1151.95 211.883 1150.79 211.156C1149.64 210.422 1148.75 209.406 1148.12 208.109C1147.5 206.812 1147.18 205.312 1147.18 203.609V203.328C1147.18 201.609 1147.5 200.105 1148.12 198.816C1148.75 197.52 1149.62 196.508 1150.71 195.781C1151.8 195.055 1153.05 194.691 1154.44 194.691C1155.77 194.691 1156.89 194.844 1157.81 195.148C1158.74 195.453 1159.54 195.863 1160.19 196.379V199.824H1158.29L1158.05 197.352C1157.66 197.102 1157.2 196.914 1156.64 196.789C1156.09 196.656 1155.43 196.59 1154.67 196.59C1153.7 196.59 1152.82 196.871 1152.04 197.434C1151.25 197.996 1150.64 198.781 1150.18 199.789C1149.73 200.789 1149.5 201.961 1149.5 203.305V203.609C1149.5 204.969 1149.71 206.156 1150.12 207.172C1150.55 208.18 1151.16 208.965 1151.96 209.527C1152.77 210.082 1153.75 210.359 1154.89 210.359C1155.68 210.359 1156.34 210.293 1156.88 210.16C1157.41 210.02 1157.89 209.84 1158.3 209.621V205.613L1155.04 205.496V203.797H1160.61V210.406C1160.12 210.867 1159.41 211.289 1158.49 211.672C1157.58 212.055 1156.38 212.246 1154.89 212.246Z" fill="black"/>
<path d="M1043 395V393.523L1044.91 393.195V379.754L1043 379.426V377.949H1050.61C1051.85 377.949 1052.9 378.137 1053.75 378.512C1054.61 378.879 1055.26 379.414 1055.71 380.117C1056.15 380.82 1056.38 381.68 1056.38 382.695C1056.38 383.695 1056.16 384.535 1055.72 385.215C1055.29 385.895 1054.68 386.41 1053.88 386.762C1053.08 387.105 1052.14 387.289 1051.04 387.312L1047.22 387.383V393.195L1049.13 393.523V395H1043ZM1054.27 395L1050.47 386.48L1052.78 386.457L1055.93 393.277L1057.11 393.488V395H1054.27ZM1047.22 385.566H1050.38C1051.66 385.566 1052.6 385.32 1053.19 384.828C1053.77 384.336 1054.07 383.617 1054.07 382.672C1054.07 381.773 1053.79 381.062 1053.22 380.539C1052.66 380.016 1051.79 379.754 1050.61 379.754H1047.22V385.566ZM1064.94 395.246C1063.77 395.246 1062.75 394.98 1061.88 394.449C1061.02 393.91 1060.34 393.164 1059.87 392.211C1059.4 391.258 1059.16 390.156 1059.16 388.906V388.391C1059.16 387.188 1059.41 386.113 1059.9 385.168C1060.4 384.215 1061.06 383.465 1061.88 382.918C1062.71 382.363 1063.61 382.086 1064.59 382.086C1065.73 382.086 1066.68 382.32 1067.45 382.789C1068.22 383.258 1068.8 383.918 1069.2 384.77C1069.59 385.613 1069.78 386.609 1069.78 387.758V389.199H1061.55L1061.52 389.258C1061.54 390.07 1061.68 390.793 1061.94 391.426C1062.21 392.051 1062.61 392.543 1063.11 392.902C1063.62 393.262 1064.23 393.441 1064.94 393.441C1065.72 393.441 1066.41 393.332 1066.99 393.113C1067.59 392.887 1068.1 392.578 1068.53 392.188L1069.43 393.688C1068.98 394.125 1068.38 394.496 1067.62 394.801C1066.88 395.098 1065.99 395.246 1064.94 395.246ZM1061.62 387.395H1067.47V387.09C1067.47 386.48 1067.36 385.938 1067.14 385.461C1066.93 384.977 1066.61 384.598 1066.18 384.324C1065.76 384.043 1065.23 383.902 1064.59 383.902C1064.07 383.902 1063.61 384.055 1063.18 384.359C1062.76 384.656 1062.41 385.062 1062.14 385.578C1061.87 386.094 1061.69 386.68 1061.6 387.336L1061.62 387.395ZM1076.79 395.246C1075.94 395.246 1075.14 395.16 1074.4 394.988C1073.66 394.816 1072.87 394.551 1072.03 394.191L1072.01 391.18H1073.75L1074.19 392.996C1074.62 393.176 1075.05 393.309 1075.45 393.395C1075.87 393.473 1076.31 393.512 1076.79 393.512C1077.73 393.512 1078.4 393.332 1078.8 392.973C1079.21 392.613 1079.41 392.168 1079.41 391.637C1079.41 391.137 1079.21 390.715 1078.79 390.371C1078.39 390.02 1077.64 389.723 1076.57 389.48C1075.04 389.129 1073.91 388.66 1073.18 388.074C1072.46 387.48 1072.1 386.691 1072.1 385.707C1072.1 385.02 1072.3 384.406 1072.7 383.867C1073.1 383.32 1073.65 382.887 1074.36 382.566C1075.07 382.246 1075.9 382.086 1076.85 382.086C1077.81 382.086 1078.63 382.195 1079.31 382.414C1080 382.633 1080.59 382.926 1081.1 383.293L1081.22 386.188H1079.48L1079.11 384.5C1078.84 384.297 1078.51 384.141 1078.14 384.031C1077.76 383.922 1077.33 383.867 1076.85 383.867C1076.13 383.867 1075.54 384.035 1075.09 384.371C1074.64 384.707 1074.42 385.129 1074.42 385.637C1074.42 385.934 1074.48 386.191 1074.61 386.41C1074.74 386.629 1074.99 386.828 1075.36 387.008C1075.73 387.18 1076.27 387.352 1076.98 387.523C1078.74 387.938 1079.97 388.465 1080.67 389.105C1081.37 389.746 1081.72 390.535 1081.72 391.473C1081.72 392.543 1081.32 393.441 1080.53 394.168C1079.74 394.887 1078.49 395.246 1076.79 395.246ZM1088.11 395.199C1087.17 395.199 1086.43 394.926 1085.87 394.379C1085.32 393.824 1085.05 392.941 1085.05 391.73V384.031H1083.05V382.32H1085.05V379.262H1087.36V382.32H1090.11V384.031H1087.36V391.73C1087.36 392.34 1087.48 392.789 1087.72 393.078C1087.96 393.367 1088.29 393.512 1088.7 393.512C1088.97 393.512 1089.27 393.488 1089.61 393.441C1089.95 393.387 1090.21 393.34 1090.39 393.301L1090.71 394.812C1090.38 394.914 1089.96 395.004 1089.47 395.082C1088.98 395.16 1088.53 395.199 1088.11 395.199ZM1096.29 395.246C1094.97 395.246 1093.96 394.926 1093.28 394.285C1092.59 393.637 1092.25 392.727 1092.25 391.555C1092.25 390.75 1092.46 390.051 1092.9 389.457C1093.35 388.855 1093.99 388.391 1094.82 388.062C1095.66 387.727 1096.66 387.559 1097.82 387.559H1100.09V386.316C1100.09 385.551 1099.85 384.957 1099.38 384.535C1098.92 384.113 1098.27 383.902 1097.43 383.902C1096.89 383.902 1096.43 383.969 1096.04 384.102C1095.65 384.227 1095.3 384.402 1094.98 384.629L1094.73 386.398H1092.95V383.492C1093.52 383.031 1094.18 382.684 1094.94 382.449C1095.7 382.207 1096.54 382.086 1097.46 382.086C1099 382.086 1100.21 382.453 1101.08 383.188C1101.96 383.922 1102.39 384.973 1102.39 386.34V392.445C1102.39 392.609 1102.39 392.77 1102.39 392.926C1102.4 393.082 1102.41 393.238 1102.43 393.395L1103.66 393.523V395H1100.34C1100.27 394.656 1100.22 394.348 1100.18 394.074C1100.14 393.801 1100.11 393.527 1100.1 393.254C1099.65 393.824 1099.09 394.301 1098.42 394.684C1097.76 395.059 1097.05 395.246 1096.29 395.246ZM1096.63 393.312C1097.39 393.312 1098.09 393.129 1098.73 392.762C1099.36 392.395 1099.81 391.953 1100.09 391.438V389.141H1097.74C1096.68 389.141 1095.88 389.395 1095.35 389.902C1094.82 390.41 1094.55 390.977 1094.55 391.602C1094.55 392.156 1094.73 392.582 1095.07 392.879C1095.41 393.168 1095.93 393.312 1096.63 393.312ZM1111.03 395.246C1109.66 395.246 1108.58 394.805 1107.81 393.922C1107.04 393.039 1106.65 391.664 1106.65 389.797V384.137L1105.2 383.809V382.32H1106.65H1108.96V389.82C1108.96 391.172 1109.16 392.102 1109.55 392.609C1109.95 393.117 1110.57 393.371 1111.42 393.371C1112.24 393.371 1112.91 393.207 1113.45 392.879C1113.98 392.543 1114.39 392.07 1114.66 391.461V384.137L1112.96 383.809V382.32H1114.66H1116.97V393.195L1118.43 393.523V395H1114.9L1114.75 393.125C1114.35 393.805 1113.83 394.328 1113.2 394.695C1112.57 395.062 1111.85 395.246 1111.03 395.246ZM1120.03 395V393.523L1121.94 393.195V384.137L1120.03 383.809V382.32H1124L1124.2 383.938L1124.23 384.16C1124.59 383.512 1125.03 383.004 1125.55 382.637C1126.08 382.27 1126.69 382.086 1127.37 382.086C1127.61 382.086 1127.86 382.109 1128.11 382.156C1128.36 382.195 1128.55 382.234 1128.66 382.273L1128.35 384.418L1126.75 384.324C1126.14 384.285 1125.62 384.426 1125.21 384.746C1124.8 385.059 1124.48 385.48 1124.25 386.012V393.195L1126.16 393.523V395H1120.03ZM1134.16 395.246C1132.84 395.246 1131.84 394.926 1131.15 394.285C1130.46 393.637 1130.12 392.727 1130.12 391.555C1130.12 390.75 1130.34 390.051 1130.78 389.457C1131.22 388.855 1131.86 388.391 1132.7 388.062C1133.54 387.727 1134.54 387.559 1135.7 387.559H1137.96V386.316C1137.96 385.551 1137.73 384.957 1137.26 384.535C1136.8 384.113 1136.14 383.902 1135.3 383.902C1134.77 383.902 1134.31 383.969 1133.92 384.102C1133.53 384.227 1133.17 384.402 1132.85 384.629L1132.61 386.398H1130.82V383.492C1131.39 383.031 1132.06 382.684 1132.82 382.449C1133.57 382.207 1134.41 382.086 1135.34 382.086C1136.88 382.086 1138.08 382.453 1138.96 383.188C1139.83 383.922 1140.27 384.973 1140.27 386.34V392.445C1140.27 392.609 1140.27 392.77 1140.27 392.926C1140.28 393.082 1140.29 393.238 1140.3 393.395L1141.54 393.523V395H1138.22C1138.15 394.656 1138.09 394.348 1138.05 394.074C1138.02 393.801 1137.99 393.527 1137.97 393.254C1137.53 393.824 1136.97 394.301 1136.3 394.684C1135.63 395.059 1134.92 395.246 1134.16 395.246ZM1134.5 393.312C1135.27 393.312 1135.97 393.129 1136.6 392.762C1137.23 392.395 1137.69 391.953 1137.96 391.438V389.141H1135.62C1134.55 389.141 1133.76 389.395 1133.23 389.902C1132.7 390.41 1132.43 390.977 1132.43 391.602C1132.43 392.156 1132.6 392.582 1132.95 392.879C1133.29 393.168 1133.81 393.312 1134.5 393.312ZM1143.33 395V393.523L1145.24 393.195V384.137L1143.33 383.809V382.32H1147.3L1147.46 384.207C1147.89 383.535 1148.41 383.016 1149.05 382.648C1149.69 382.273 1150.41 382.086 1151.23 382.086C1152.59 382.086 1153.65 382.488 1154.4 383.293C1155.15 384.09 1155.53 385.324 1155.53 386.996V393.195L1157.44 393.523V395H1151.31V393.523L1153.22 393.195V387.043C1153.22 385.926 1153 385.133 1152.55 384.664C1152.11 384.195 1151.44 383.961 1150.54 383.961C1149.87 383.961 1149.28 384.121 1148.77 384.441C1148.26 384.762 1147.85 385.199 1147.55 385.754V393.195L1149.46 393.523V395H1143.33ZM1163.09 395.199C1162.15 395.199 1161.4 394.926 1160.85 394.379C1160.3 393.824 1160.03 392.941 1160.03 391.73V384.031H1158.02V382.32H1160.03V379.262H1162.34V382.32H1165.09V384.031H1162.34V391.73C1162.34 392.34 1162.46 392.789 1162.7 393.078C1162.94 393.367 1163.27 393.512 1163.67 393.512C1163.95 393.512 1164.25 393.488 1164.59 393.441C1164.92 393.387 1165.18 393.34 1165.37 393.301L1165.69 394.812C1165.35 394.914 1164.94 395.004 1164.45 395.082C1163.96 395.16 1163.51 395.199 1163.09 395.199ZM1173.22 395V393.523L1175.13 393.195V379.754L1173.22 379.426V377.938H1179.35V379.426L1177.44 379.754V393.195L1179.35 393.523V395H1173.22ZM1181.29 395V393.523L1183.2 393.195V379.754L1181.29 379.426V377.938H1183.2H1185.53L1193.89 391.238L1193.96 391.215V379.754L1191.87 379.426V377.938H1196.09H1198V379.426L1196.09 379.754V395H1193.98L1185.39 381.629L1185.32 381.652V393.195L1187.41 393.523V395H1181.29ZM1199.92 395V393.523L1201.83 393.195V379.754L1199.92 379.426V377.938H1212.75V382.039H1210.9L1210.64 379.73H1204.14V385.637H1210.38V387.453H1204.14V393.195L1206.05 393.523V395H1199.92ZM1221.01 395.246C1219.91 395.246 1218.92 395.035 1218.05 394.613C1217.17 394.191 1216.43 393.598 1215.81 392.832C1215.2 392.059 1214.73 391.145 1214.4 390.09C1214.08 389.035 1213.92 387.871 1213.92 386.598V386.352C1213.92 385.086 1214.08 383.926 1214.4 382.871C1214.73 381.809 1215.2 380.891 1215.81 380.117C1216.43 379.344 1217.17 378.746 1218.05 378.324C1218.92 377.902 1219.91 377.691 1221.01 377.691C1222.18 377.691 1223.2 377.902 1224.08 378.324C1224.96 378.746 1225.7 379.344 1226.3 380.117C1226.9 380.891 1227.35 381.809 1227.66 382.871C1227.96 383.926 1228.11 385.086 1228.11 386.352V386.598C1228.11 387.871 1227.96 389.035 1227.66 390.09C1227.35 391.145 1226.9 392.059 1226.3 392.832C1225.7 393.598 1224.96 394.191 1224.08 394.613C1223.2 395.035 1222.18 395.246 1221.01 395.246ZM1221.01 393.324C1222.14 393.324 1223.06 393.043 1223.75 392.48C1224.46 391.918 1224.97 391.133 1225.3 390.125C1225.63 389.109 1225.79 387.934 1225.79 386.598V386.328C1225.79 385 1225.62 383.836 1225.29 382.836C1224.96 381.828 1224.45 381.043 1223.74 380.48C1223.04 379.91 1222.13 379.625 1221.01 379.625C1219.99 379.625 1219.12 379.91 1218.41 380.48C1217.7 381.051 1217.16 381.84 1216.79 382.848C1216.43 383.848 1216.24 385.008 1216.24 386.328V386.598C1216.24 387.926 1216.43 389.098 1216.79 390.113C1217.16 391.121 1217.7 391.91 1218.41 392.48C1219.12 393.043 1219.99 393.324 1221.01 393.324Z" fill="black"/>
<g filter="url(#filter0_d_8_20)">
<rect x="1015" y="566" width="241" height="58" rx="24" fill="white"/>
<path d="M1098.4 604V602.523L1100.31 602.195V588.754L1098.4 588.426V586.938H1100.31H1105.76C1107.54 586.938 1108.93 587.324 1109.93 588.098C1110.94 588.863 1111.44 590.016 1111.44 591.555C1111.44 592.312 1111.2 592.992 1110.71 593.594C1110.24 594.188 1109.61 594.629 1108.82 594.918C1109.5 595.059 1110.09 595.336 1110.59 595.75C1111.08 596.156 1111.46 596.656 1111.72 597.25C1112 597.836 1112.13 598.48 1112.13 599.184C1112.13 600.746 1111.62 601.941 1110.61 602.77C1109.59 603.59 1108.22 604 1106.48 604H1098.4ZM1102.62 602.195H1106.48C1107.54 602.195 1108.36 601.938 1108.93 601.422C1109.52 600.898 1109.81 600.16 1109.81 599.207C1109.81 598.535 1109.7 597.961 1109.48 597.484C1109.27 597.008 1108.95 596.641 1108.5 596.383C1108.06 596.125 1107.51 595.996 1106.84 595.996H1102.62V602.195ZM1102.62 594.191H1106.36C1107.18 594.191 1107.85 593.953 1108.36 593.477C1108.88 592.992 1109.13 592.336 1109.13 591.508C1109.13 590.586 1108.84 589.898 1108.27 589.445C1107.69 588.984 1106.85 588.754 1105.76 588.754H1102.62V594.191ZM1117.91 604.246C1116.59 604.246 1115.59 603.926 1114.9 603.285C1114.21 602.637 1113.87 601.727 1113.87 600.555C1113.87 599.75 1114.09 599.051 1114.52 598.457C1114.97 597.855 1115.61 597.391 1116.45 597.062C1117.28 596.727 1118.28 596.559 1119.45 596.559H1121.71V595.316C1121.71 594.551 1121.47 593.957 1121 593.535C1120.54 593.113 1119.89 592.902 1119.05 592.902C1118.52 592.902 1118.05 592.969 1117.66 593.102C1117.27 593.227 1116.92 593.402 1116.6 593.629L1116.35 595.398H1114.57V592.492C1115.14 592.031 1115.8 591.684 1116.56 591.449C1117.32 591.207 1118.16 591.086 1119.08 591.086C1120.62 591.086 1121.83 591.453 1122.7 592.188C1123.58 592.922 1124.02 593.973 1124.02 595.34V601.445C1124.02 601.609 1124.02 601.77 1124.02 601.926C1124.02 602.082 1124.04 602.238 1124.05 602.395L1125.28 602.523V604H1121.96C1121.89 603.656 1121.84 603.348 1121.8 603.074C1121.76 602.801 1121.73 602.527 1121.72 602.254C1121.27 602.824 1120.71 603.301 1120.04 603.684C1119.38 604.059 1118.67 604.246 1117.91 604.246ZM1118.25 602.312C1119.02 602.312 1119.71 602.129 1120.35 601.762C1120.98 601.395 1121.43 600.953 1121.71 600.438V598.141H1119.36C1118.3 598.141 1117.5 598.395 1116.97 598.902C1116.44 599.41 1116.18 599.977 1116.18 600.602C1116.18 601.156 1116.35 601.582 1116.69 601.879C1117.04 602.168 1117.55 602.312 1118.25 602.312ZM1132.21 604.246C1131.36 604.246 1130.56 604.16 1129.82 603.988C1129.07 603.816 1128.29 603.551 1127.45 603.191L1127.43 600.18H1129.17L1129.61 601.996C1130.04 602.176 1130.46 602.309 1130.87 602.395C1131.29 602.473 1131.73 602.512 1132.21 602.512C1133.14 602.512 1133.82 602.332 1134.22 601.973C1134.63 601.613 1134.83 601.168 1134.83 600.637C1134.83 600.137 1134.62 599.715 1134.21 599.371C1133.8 599.02 1133.06 598.723 1131.98 598.48C1130.45 598.129 1129.32 597.66 1128.6 597.074C1127.88 596.48 1127.52 595.691 1127.52 594.707C1127.52 594.02 1127.72 593.406 1128.12 592.867C1128.52 592.32 1129.07 591.887 1129.78 591.566C1130.49 591.246 1131.32 591.086 1132.27 591.086C1133.23 591.086 1134.05 591.195 1134.73 591.414C1135.41 591.633 1136.01 591.926 1136.52 592.293L1136.64 595.188H1134.9L1134.53 593.5C1134.25 593.297 1133.93 593.141 1133.55 593.031C1133.18 592.922 1132.75 592.867 1132.27 592.867C1131.55 592.867 1130.96 593.035 1130.51 593.371C1130.06 593.707 1129.84 594.129 1129.84 594.637C1129.84 594.934 1129.9 595.191 1130.03 595.41C1130.16 595.629 1130.41 595.828 1130.78 596.008C1131.14 596.18 1131.68 596.352 1132.39 596.523C1134.16 596.938 1135.39 597.465 1136.09 598.105C1136.79 598.746 1137.14 599.535 1137.14 600.473C1137.14 601.543 1136.74 602.441 1135.95 603.168C1135.16 603.887 1133.91 604.246 1132.21 604.246ZM1138.93 604V602.523L1140.84 602.195V587.535L1138.93 587.207V585.719H1143.15V602.195L1145.06 602.523V604H1138.93ZM1147.08 604V602.523L1148.37 602.371L1148.33 602.324L1144.66 597.59L1145.86 595.75L1150.98 602.242L1152.81 602.523V604H1147.08ZM1142.99 600.332L1142.13 598.516L1147.64 593.031L1147.7 592.961L1146.34 592.809V591.32H1151.8V592.809L1150.17 593.113L1142.99 600.332ZM1159.22 604.246C1158.05 604.246 1157.03 603.98 1156.16 603.449C1155.29 602.91 1154.62 602.164 1154.14 601.211C1153.68 600.258 1153.44 599.156 1153.44 597.906V597.391C1153.44 596.188 1153.69 595.113 1154.18 594.168C1154.68 593.215 1155.34 592.465 1156.16 591.918C1156.99 591.363 1157.89 591.086 1158.87 591.086C1160.01 591.086 1160.96 591.32 1161.73 591.789C1162.5 592.258 1163.08 592.918 1163.47 593.77C1163.86 594.613 1164.06 595.609 1164.06 596.758V598.199H1155.83L1155.8 598.258C1155.81 599.07 1155.95 599.793 1156.22 600.426C1156.49 601.051 1156.88 601.543 1157.39 601.902C1157.9 602.262 1158.51 602.441 1159.22 602.441C1160 602.441 1160.68 602.332 1161.27 602.113C1161.86 601.887 1162.38 601.578 1162.8 601.188L1163.71 602.688C1163.25 603.125 1162.65 603.496 1161.9 603.801C1161.16 604.098 1160.27 604.246 1159.22 604.246ZM1155.9 596.395H1161.75V596.09C1161.75 595.48 1161.64 594.938 1161.42 594.461C1161.21 593.977 1160.89 593.598 1160.46 593.324C1160.04 593.043 1159.51 592.902 1158.87 592.902C1158.35 592.902 1157.88 593.055 1157.46 593.359C1157.04 593.656 1156.69 594.062 1156.42 594.578C1156.14 595.094 1155.96 595.68 1155.88 596.336L1155.9 596.395ZM1170.34 604.199C1169.4 604.199 1168.66 603.926 1168.1 603.379C1167.55 602.824 1167.28 601.941 1167.28 600.73V593.031H1165.28V591.32H1167.28V588.262H1169.59V591.32H1172.34V593.031H1169.59V600.73C1169.59 601.34 1169.71 601.789 1169.95 602.078C1170.2 602.367 1170.52 602.512 1170.93 602.512C1171.2 602.512 1171.5 602.488 1171.84 602.441C1172.18 602.387 1172.44 602.34 1172.62 602.301L1172.94 603.812C1172.61 603.914 1172.19 604.004 1171.7 604.082C1171.21 604.16 1170.76 604.199 1170.34 604.199Z" fill="black"/>
</g>
<g filter="url(#filter1_d_8_20)">
<rect x="1015" y="644" width="241" height="58" rx="24" fill="black"/>
<path d="M1090.92 682.246C1089.21 682.246 1087.78 681.871 1086.63 681.121C1085.49 680.371 1084.63 679.344 1084.05 678.039C1083.48 676.734 1083.2 675.254 1083.2 673.598V673.352C1083.2 671.68 1083.5 670.195 1084.1 668.898C1084.7 667.594 1085.57 666.566 1086.69 665.816C1087.82 665.066 1089.16 664.691 1090.72 664.691C1091.82 664.691 1092.83 664.863 1093.75 665.207C1094.66 665.551 1095.42 665.988 1096.02 666.52V670.199H1094.18L1093.93 667.504C1093.68 667.309 1093.39 667.145 1093.07 667.012C1092.75 666.879 1092.39 666.777 1091.99 666.707C1091.6 666.637 1091.17 666.602 1090.71 666.602C1089.59 666.602 1088.65 666.891 1087.88 667.469C1087.1 668.039 1086.52 668.828 1086.12 669.836C1085.72 670.844 1085.52 672.008 1085.52 673.328V673.598C1085.52 675.027 1085.73 676.25 1086.15 677.266C1086.58 678.273 1087.2 679.043 1088.02 679.574C1088.84 680.105 1089.83 680.371 1091 680.371C1091.55 680.371 1092.09 680.305 1092.61 680.172C1093.13 680.039 1093.57 679.867 1093.91 679.656L1094.17 677.277H1095.97V680.98C1095.33 681.379 1094.57 681.691 1093.68 681.918C1092.79 682.137 1091.87 682.246 1090.92 682.246ZM1097.95 682V680.523L1099.86 680.195V665.535L1097.95 665.207V663.719H1102.17V671.008C1102.61 670.398 1103.14 669.926 1103.78 669.59C1104.41 669.254 1105.11 669.086 1105.89 669.086C1107.25 669.086 1108.3 669.492 1109.05 670.305C1109.8 671.117 1110.18 672.367 1110.18 674.055V680.195L1112.09 680.523V682H1105.96V680.523L1107.87 680.195V674.031C1107.87 672.984 1107.64 672.211 1107.19 671.711C1106.74 671.211 1106.07 670.961 1105.18 670.961C1104.55 670.961 1103.97 671.113 1103.45 671.418C1102.93 671.715 1102.51 672.121 1102.17 672.637V680.195L1104.08 680.523V682H1097.95ZM1119.26 682.246C1118.09 682.246 1117.07 681.98 1116.2 681.449C1115.33 680.91 1114.66 680.164 1114.18 679.211C1113.71 678.258 1113.48 677.156 1113.48 675.906V675.391C1113.48 674.188 1113.73 673.113 1114.22 672.168C1114.72 671.215 1115.38 670.465 1116.2 669.918C1117.03 669.363 1117.93 669.086 1118.91 669.086C1120.05 669.086 1121 669.32 1121.77 669.789C1122.54 670.258 1123.12 670.918 1123.51 671.77C1123.9 672.613 1124.1 673.609 1124.1 674.758V676.199H1115.87L1115.84 676.258C1115.85 677.07 1115.99 677.793 1116.26 678.426C1116.53 679.051 1116.92 679.543 1117.43 679.902C1117.94 680.262 1118.55 680.441 1119.26 680.441C1120.04 680.441 1120.72 680.332 1121.31 680.113C1121.9 679.887 1122.41 679.578 1122.84 679.188L1123.75 680.688C1123.29 681.125 1122.69 681.496 1121.94 681.801C1121.2 682.098 1120.3 682.246 1119.26 682.246ZM1115.94 674.395H1121.79V674.09C1121.79 673.48 1121.68 672.938 1121.46 672.461C1121.25 671.977 1120.93 671.598 1120.5 671.324C1120.08 671.043 1119.55 670.902 1118.91 670.902C1118.39 670.902 1117.92 671.055 1117.5 671.359C1117.08 671.656 1116.73 672.062 1116.46 672.578C1116.18 673.094 1116 673.68 1115.92 674.336L1115.94 674.395ZM1132.1 682.246C1130.95 682.246 1129.95 681.98 1129.1 681.449C1128.25 680.91 1127.59 680.164 1127.12 679.211C1126.65 678.258 1126.42 677.156 1126.42 675.906V675.414C1126.42 674.211 1126.64 673.133 1127.1 672.18C1127.55 671.227 1128.2 670.473 1129.05 669.918C1129.91 669.363 1130.92 669.086 1132.1 669.086C1133.12 669.086 1134.02 669.254 1134.79 669.59C1135.56 669.926 1136.21 670.387 1136.73 670.973L1136.79 674.02H1134.98L1134.59 671.805C1134.32 671.531 1133.99 671.312 1133.59 671.148C1133.19 670.984 1132.72 670.902 1132.18 670.902C1131.5 670.902 1130.89 671.105 1130.37 671.512C1129.85 671.918 1129.45 672.461 1129.16 673.141C1128.87 673.82 1128.73 674.578 1128.73 675.414V675.906C1128.73 676.828 1128.86 677.629 1129.12 678.309C1129.4 678.988 1129.79 679.516 1130.29 679.891C1130.79 680.258 1131.39 680.441 1132.09 680.441C1132.87 680.441 1133.52 680.227 1134.04 679.797C1134.55 679.367 1134.87 678.777 1134.98 678.027H1137.06L1137.08 678.098C1137.04 678.824 1136.83 679.504 1136.44 680.137C1136.05 680.77 1135.49 681.281 1134.76 681.672C1134.04 682.055 1133.16 682.246 1132.1 682.246ZM1138.77 682V680.523L1140.68 680.195V665.535L1138.77 665.207V663.719H1142.99V680.195L1144.9 680.523V682H1138.77ZM1146.91 682V680.523L1148.2 680.371L1148.17 680.324L1144.5 675.59L1145.7 673.75L1150.82 680.242L1152.64 680.523V682H1146.91ZM1142.82 678.332L1141.97 676.516L1147.48 671.031L1147.54 670.961L1146.18 670.809V669.32H1151.64V670.809L1150.01 671.113L1142.82 678.332ZM1159.01 682.246C1157.84 682.246 1156.82 681.973 1155.97 681.426C1155.13 680.871 1154.48 680.109 1154.02 679.141C1153.55 678.164 1153.32 677.051 1153.32 675.801V675.543C1153.32 674.293 1153.55 673.184 1154.02 672.215C1154.48 671.238 1155.13 670.473 1155.97 669.918C1156.82 669.363 1157.83 669.086 1158.98 669.086C1160.16 669.086 1161.16 669.363 1162.01 669.918C1162.86 670.473 1163.52 671.234 1163.98 672.203C1164.44 673.172 1164.67 674.285 1164.67 675.543V675.801C1164.67 677.059 1164.44 678.176 1163.98 679.152C1163.52 680.121 1162.86 680.879 1162.02 681.426C1161.18 681.973 1160.17 682.246 1159.01 682.246ZM1159.01 680.441C1159.74 680.441 1160.36 680.242 1160.85 679.844C1161.35 679.438 1161.72 678.887 1161.97 678.191C1162.23 677.488 1162.36 676.691 1162.36 675.801V675.543C1162.36 674.652 1162.23 673.859 1161.97 673.164C1161.72 672.461 1161.35 671.91 1160.85 671.512C1160.35 671.105 1159.73 670.902 1158.98 670.902C1158.25 670.902 1157.63 671.105 1157.13 671.512C1156.63 671.91 1156.26 672.461 1156.01 673.164C1155.76 673.859 1155.63 674.652 1155.63 675.543V675.801C1155.63 676.691 1155.76 677.488 1156.01 678.191C1156.26 678.887 1156.63 679.438 1157.13 679.844C1157.64 680.242 1158.27 680.441 1159.01 680.441ZM1172.03 682.246C1170.65 682.246 1169.58 681.805 1168.8 680.922C1168.03 680.039 1167.64 678.664 1167.64 676.797V671.137L1166.19 670.809V669.32H1167.64H1169.95V676.82C1169.95 678.172 1170.15 679.102 1170.55 679.609C1170.95 680.117 1171.57 680.371 1172.41 680.371C1173.23 680.371 1173.91 680.207 1174.44 679.879C1174.98 679.543 1175.39 679.07 1175.66 678.461V671.137L1173.96 670.809V669.32H1175.66H1177.97V680.195L1179.42 680.523V682H1175.89L1175.74 680.125C1175.34 680.805 1174.83 681.328 1174.2 681.695C1173.57 682.062 1172.85 682.246 1172.03 682.246ZM1185.53 682.199C1184.59 682.199 1183.84 681.926 1183.29 681.379C1182.74 680.824 1182.47 679.941 1182.47 678.73V671.031H1180.46V669.32H1182.47V666.262H1184.78V669.32H1187.53V671.031H1184.78V678.73C1184.78 679.34 1184.9 679.789 1185.14 680.078C1185.38 680.367 1185.71 680.512 1186.11 680.512C1186.39 680.512 1186.69 680.488 1187.03 680.441C1187.36 680.387 1187.62 680.34 1187.81 680.301L1188.13 681.812C1187.79 681.914 1187.38 682.004 1186.89 682.082C1186.4 682.16 1185.95 682.199 1185.53 682.199Z" fill="white"/>
</g>
<g filter="url(#filter2_d_8_20)">
<rect x="47" y="177" width="870" height="100" rx="8" fill="#C4C4C4"/>
<path d="M173.332 229V225.924L176.057 225.396V207.027L173.332 206.5V203.406H176.057H183.65L190.629 221.248H190.734L197.484 203.406H207.82V206.5L205.078 207.027V225.396L207.82 225.924V229H197.221V225.924L200.086 225.396V220.492L200.174 208.943L200.068 208.926L192.422 228.648H188.537L180.715 209.084L180.609 209.102L180.908 219.965V225.396L183.932 225.924V229H173.332ZM218.877 229.369C217.061 229.369 215.473 228.971 214.113 228.174C212.754 227.365 211.699 226.258 210.949 224.852C210.211 223.445 209.842 221.84 209.842 220.035V219.332C209.842 217.445 210.193 215.775 210.896 214.322C211.6 212.857 212.59 211.709 213.867 210.877C215.156 210.033 216.674 209.617 218.42 209.629C220.143 209.629 221.59 209.969 222.762 210.648C223.934 211.328 224.824 212.307 225.434 213.584C226.043 214.861 226.348 216.408 226.348 218.225V221.02H215.168L215.133 221.125C215.203 221.957 215.408 222.701 215.748 223.357C216.1 224.002 216.592 224.512 217.225 224.887C217.857 225.25 218.625 225.432 219.527 225.432C220.465 225.432 221.338 225.314 222.146 225.08C222.967 224.834 223.764 224.477 224.537 224.008L225.926 227.172C225.141 227.805 224.15 228.332 222.955 228.754C221.771 229.164 220.412 229.369 218.877 229.369ZM215.203 217.627H221.549V217.17C221.549 216.396 221.443 215.734 221.232 215.184C221.033 214.621 220.705 214.188 220.248 213.883C219.803 213.578 219.223 213.426 218.508 213.426C217.828 213.426 217.254 213.607 216.785 213.971C216.316 214.322 215.947 214.809 215.678 215.43C215.42 216.051 215.244 216.754 215.15 217.539L215.203 217.627ZM228.527 229V225.924L230.988 225.396V213.602L228.264 213.074V209.98H235.77L235.998 212.705C236.631 211.732 237.41 210.977 238.336 210.438C239.273 209.898 240.34 209.629 241.535 209.629C243.422 209.629 244.898 210.232 245.965 211.439C247.031 212.646 247.564 214.539 247.564 217.117V225.396L250.025 225.924V229H240.217V225.924L242.414 225.396V217.135C242.414 215.857 242.162 214.955 241.658 214.428C241.154 213.889 240.404 213.619 239.408 213.619C238.67 213.619 238.025 213.777 237.475 214.094C236.936 214.398 236.484 214.838 236.121 215.412V225.396L238.195 225.924V229H228.527ZM259.008 229.369C257.004 229.369 255.428 228.736 254.279 227.471C253.143 226.193 252.574 224.213 252.574 221.529V213.602L250.482 213.074V209.98H252.574H257.707V221.564C257.707 222.924 257.941 223.902 258.41 224.5C258.891 225.086 259.611 225.379 260.572 225.379C261.334 225.379 262.008 225.232 262.594 224.939C263.18 224.635 263.66 224.207 264.035 223.656V213.602L261.768 213.074V209.98H264.035H269.168V225.396L271.453 225.924V229H264.668L264.316 226.592C263.719 227.482 262.969 228.168 262.066 228.648C261.164 229.129 260.145 229.369 259.008 229.369ZM282.035 229V225.924L284.514 225.396V213.602L281.771 213.074V209.98H289.646V225.396L292.107 225.924V229H282.035ZM284.338 205.955V201.578H289.646V205.955H284.338ZM301.301 229.369C299.531 229.369 298.166 228.883 297.205 227.91C296.256 226.938 295.781 225.396 295.781 223.287V213.584H293.162V209.98H295.781V205.322H300.896V209.98H304.395V213.584H300.896V223.27C300.896 224.008 301.049 224.535 301.354 224.852C301.67 225.168 302.098 225.326 302.637 225.326C302.93 225.326 303.234 225.309 303.551 225.273C303.879 225.227 304.16 225.18 304.395 225.133L304.834 228.842C304.307 228.994 303.732 229.117 303.111 229.211C302.502 229.316 301.898 229.369 301.301 229.369ZM315.451 229.369C313.635 229.369 312.047 228.971 310.688 228.174C309.328 227.365 308.273 226.258 307.523 224.852C306.785 223.445 306.416 221.84 306.416 220.035V219.332C306.416 217.445 306.768 215.775 307.471 214.322C308.174 212.857 309.164 211.709 310.441 210.877C311.73 210.033 313.248 209.617 314.994 209.629C316.717 209.629 318.164 209.969 319.336 210.648C320.508 211.328 321.398 212.307 322.008 213.584C322.617 214.861 322.922 216.408 322.922 218.225V221.02H311.742L311.707 221.125C311.777 221.957 311.982 222.701 312.322 223.357C312.674 224.002 313.166 224.512 313.799 224.887C314.432 225.25 315.199 225.432 316.102 225.432C317.039 225.432 317.912 225.314 318.721 225.08C319.541 224.834 320.338 224.477 321.111 224.008L322.5 227.172C321.715 227.805 320.725 228.332 319.529 228.754C318.346 229.164 316.986 229.369 315.451 229.369ZM311.777 217.627H318.123V217.17C318.123 216.396 318.018 215.734 317.807 215.184C317.607 214.621 317.279 214.188 316.822 213.883C316.377 213.578 315.797 213.426 315.082 213.426C314.402 213.426 313.828 213.607 313.359 213.971C312.891 214.322 312.521 214.809 312.252 215.43C311.994 216.051 311.818 216.754 311.725 217.539L311.777 217.627ZM325.102 229V225.924L327.58 225.396V213.602L324.838 213.074V209.98H332.344L332.555 212.494C333.164 211.58 333.926 210.877 334.84 210.385C335.766 209.881 336.832 209.629 338.039 209.629C339.258 209.629 340.301 209.898 341.168 210.438C342.047 210.977 342.703 211.791 343.137 212.881C343.723 211.861 344.484 211.064 345.422 210.49C346.359 209.916 347.461 209.629 348.727 209.629C350.602 209.629 352.078 210.268 353.156 211.545C354.246 212.822 354.791 214.768 354.791 217.381V225.396L357.27 225.924V229H347.443V225.924L349.658 225.396V217.363C349.658 215.957 349.424 214.984 348.955 214.445C348.498 213.895 347.83 213.619 346.951 213.619C346.154 213.619 345.48 213.848 344.93 214.305C344.379 214.75 343.98 215.342 343.734 216.08V225.396L345.809 225.924V229H336.545V225.924L338.619 225.396V217.363C338.619 215.992 338.385 215.025 337.916 214.463C337.459 213.9 336.779 213.619 335.877 213.619C335.15 213.619 334.523 213.766 333.996 214.059C333.469 214.352 333.035 214.773 332.695 215.324V225.396L334.91 225.924V229H325.102ZM367.869 229V225.924L372.193 225.396V208.064H367.816V205.129L377.309 203.406V225.396L381.633 225.924V229H367.869Z" fill="black" fill-opacity="0.5"/>
<path d="M877.188 247.438V234.5H865.875V226.625H877.188V214.312H885.844V226.625H897.062V234.5H885.844V247.438H877.188Z" fill="black"/>
<rect x="52" y="182" width="90" height="90" rx="8" fill="#DCDCDC"/>
<line x1="53.3494" y1="184.642" x2="140.349" y2="269.642" stroke="#C4C4C4"/>
<line x1="53.6506" y1="269.642" x2="140.651" y2="184.642" stroke="#C4C4C4"/>
<path d="M172.582 254V252.893L174.015 252.646V242.565L172.582 242.319V241.203H174.015H177.592C178.723 241.203 179.707 241.473 180.545 242.012C181.389 242.551 182.045 243.292 182.514 244.235C182.982 245.179 183.217 246.257 183.217 247.47V247.742C183.217 248.926 182.991 249.992 182.54 250.941C182.089 251.885 181.447 252.632 180.615 253.183C179.789 253.728 178.811 254 177.68 254H172.582ZM175.746 252.646H177.592C178.4 252.646 179.095 252.427 179.675 251.987C180.255 251.542 180.7 250.95 181.011 250.212C181.327 249.468 181.485 248.645 181.485 247.742V247.452C181.485 246.521 181.327 245.688 181.011 244.956C180.7 244.218 180.255 243.635 179.675 243.207C179.095 242.779 178.4 242.565 177.592 242.565H175.746V252.646ZM188.771 254.185C187.893 254.185 187.128 253.985 186.478 253.587C185.827 253.183 185.323 252.623 184.966 251.908C184.614 251.193 184.438 250.367 184.438 249.43V249.043C184.438 248.141 184.623 247.335 184.992 246.626C185.367 245.911 185.862 245.349 186.478 244.938C187.099 244.522 187.775 244.314 188.508 244.314C189.363 244.314 190.078 244.49 190.652 244.842C191.232 245.193 191.669 245.688 191.962 246.327C192.255 246.96 192.401 247.707 192.401 248.568V249.649H186.231L186.205 249.693C186.217 250.303 186.322 250.845 186.521 251.319C186.727 251.788 187.02 252.157 187.4 252.427C187.781 252.696 188.238 252.831 188.771 252.831C189.357 252.831 189.87 252.749 190.31 252.585C190.755 252.415 191.139 252.184 191.461 251.891L192.138 253.016C191.798 253.344 191.347 253.622 190.784 253.851C190.228 254.073 189.557 254.185 188.771 254.185ZM186.284 248.296H190.67V248.067C190.67 247.61 190.588 247.203 190.424 246.846C190.266 246.482 190.025 246.198 189.703 245.993C189.387 245.782 188.988 245.677 188.508 245.677C188.121 245.677 187.77 245.791 187.453 246.02C187.137 246.242 186.876 246.547 186.671 246.934C186.466 247.32 186.331 247.76 186.267 248.252L186.284 248.296ZM197.657 254.185C197.019 254.185 196.421 254.12 195.864 253.991C195.308 253.862 194.716 253.663 194.089 253.394L194.071 251.135H195.381L195.706 252.497C196.034 252.632 196.351 252.731 196.655 252.796C196.966 252.854 197.3 252.884 197.657 252.884C198.36 252.884 198.864 252.749 199.169 252.479C199.474 252.21 199.626 251.876 199.626 251.478C199.626 251.103 199.471 250.786 199.16 250.528C198.855 250.265 198.299 250.042 197.49 249.86C196.342 249.597 195.495 249.245 194.95 248.806C194.411 248.36 194.142 247.769 194.142 247.03C194.142 246.515 194.291 246.055 194.59 245.65C194.889 245.24 195.305 244.915 195.838 244.675C196.371 244.435 196.992 244.314 197.701 244.314C198.422 244.314 199.037 244.396 199.547 244.561C200.062 244.725 200.511 244.944 200.892 245.22L200.979 247.391H199.679L199.397 246.125C199.192 245.973 198.949 245.855 198.668 245.773C198.387 245.691 198.064 245.65 197.701 245.65C197.162 245.65 196.723 245.776 196.383 246.028C196.049 246.28 195.882 246.597 195.882 246.978C195.882 247.2 195.929 247.394 196.022 247.558C196.122 247.722 196.31 247.871 196.585 248.006C196.86 248.135 197.265 248.264 197.798 248.393C199.122 248.703 200.045 249.099 200.566 249.579C201.094 250.06 201.357 250.651 201.357 251.354C201.357 252.157 201.059 252.831 200.461 253.376C199.869 253.915 198.935 254.185 197.657 254.185ZM207.088 254.185C206.227 254.185 205.477 253.985 204.838 253.587C204.199 253.183 203.704 252.623 203.353 251.908C203.001 251.193 202.825 250.367 202.825 249.43V249.061C202.825 248.158 202.995 247.35 203.335 246.635C203.675 245.92 204.164 245.354 204.803 244.938C205.441 244.522 206.203 244.314 207.088 244.314C207.855 244.314 208.526 244.44 209.101 244.692C209.681 244.944 210.167 245.29 210.56 245.729L210.604 248.015H209.25L208.951 246.354C208.752 246.148 208.503 245.984 208.204 245.861C207.905 245.738 207.554 245.677 207.149 245.677C206.634 245.677 206.18 245.829 205.787 246.134C205.4 246.438 205.099 246.846 204.882 247.355C204.665 247.865 204.557 248.434 204.557 249.061V249.43C204.557 250.121 204.656 250.722 204.855 251.231C205.061 251.741 205.351 252.137 205.726 252.418C206.106 252.693 206.558 252.831 207.079 252.831C207.665 252.831 208.151 252.67 208.538 252.348C208.925 252.025 209.162 251.583 209.25 251.021H210.806L210.823 251.073C210.794 251.618 210.633 252.128 210.34 252.603C210.047 253.077 209.628 253.461 209.083 253.754C208.544 254.041 207.879 254.185 207.088 254.185ZM212.159 254V252.893L213.592 252.646V245.853L212.159 245.606V244.49H215.139L215.288 245.703L215.306 245.87C215.575 245.384 215.906 245.003 216.299 244.728C216.697 244.452 217.151 244.314 217.661 244.314C217.843 244.314 218.027 244.332 218.215 244.367C218.408 244.396 218.546 244.426 218.628 244.455L218.399 246.063L217.195 245.993C216.738 245.964 216.354 246.069 216.044 246.31C215.733 246.544 215.493 246.86 215.323 247.259V252.646L216.756 252.893V254H212.159ZM219.621 254V252.893L221.054 252.646V245.853L219.621 245.606V244.49H222.785V252.646L224.218 252.893V254H219.621ZM220.966 242.144V240.289H222.785V242.144H220.966ZM225.149 257.656V256.54L226.494 256.294V245.853L225.062 245.606V244.49H227.979L228.138 245.65C228.454 245.217 228.838 244.886 229.289 244.657C229.746 244.429 230.273 244.314 230.871 244.314C231.656 244.314 232.327 244.528 232.884 244.956C233.44 245.378 233.865 245.973 234.158 246.74C234.451 247.502 234.598 248.396 234.598 249.421V249.605C234.598 250.52 234.448 251.319 234.149 252.005C233.856 252.69 233.435 253.227 232.884 253.613C232.333 253.994 231.671 254.185 230.897 254.185C230.312 254.185 229.796 254.088 229.351 253.895C228.911 253.695 228.536 253.402 228.226 253.016V256.294L229.737 256.54V257.656H225.149ZM230.361 252.831C231.182 252.831 231.803 252.532 232.225 251.935C232.646 251.337 232.857 250.561 232.857 249.605V249.421C232.857 248.694 232.764 248.056 232.576 247.505C232.389 246.948 232.107 246.512 231.732 246.195C231.363 245.879 230.9 245.721 230.344 245.721C229.852 245.721 229.43 245.832 229.078 246.055C228.727 246.277 228.442 246.582 228.226 246.969V251.601C228.442 251.993 228.724 252.298 229.069 252.515C229.421 252.726 229.852 252.831 230.361 252.831ZM239.3 254.149C238.597 254.149 238.037 253.944 237.621 253.534C237.211 253.118 237.006 252.456 237.006 251.548V245.773H235.503V244.49H237.006V242.196H238.737V244.49H240.803V245.773H238.737V251.548C238.737 252.005 238.828 252.342 239.01 252.559C239.191 252.775 239.435 252.884 239.739 252.884C239.944 252.884 240.173 252.866 240.425 252.831C240.677 252.79 240.873 252.755 241.014 252.726L241.251 253.859C240.999 253.936 240.688 254.003 240.319 254.062C239.956 254.12 239.616 254.149 239.3 254.149ZM242.297 254V252.893L243.729 252.646V245.853L242.297 245.606V244.49H245.461V252.646L246.894 252.893V254H242.297ZM243.642 242.144V240.289H245.461V242.144H243.642ZM252.387 254.185C251.508 254.185 250.749 253.979 250.11 253.569C249.478 253.153 248.988 252.582 248.643 251.855C248.297 251.123 248.124 250.288 248.124 249.351V249.157C248.124 248.22 248.297 247.388 248.643 246.661C248.988 245.929 249.478 245.354 250.11 244.938C250.749 244.522 251.502 244.314 252.369 244.314C253.248 244.314 254.004 244.522 254.637 244.938C255.275 245.354 255.768 245.926 256.113 246.652C256.459 247.379 256.632 248.214 256.632 249.157V249.351C256.632 250.294 256.459 251.132 256.113 251.864C255.768 252.591 255.278 253.159 254.646 253.569C254.013 253.979 253.26 254.185 252.387 254.185ZM252.387 252.831C252.938 252.831 253.397 252.682 253.767 252.383C254.142 252.078 254.423 251.665 254.61 251.144C254.804 250.616 254.9 250.019 254.9 249.351V249.157C254.9 248.489 254.804 247.895 254.61 247.373C254.423 246.846 254.142 246.433 253.767 246.134C253.392 245.829 252.926 245.677 252.369 245.677C251.818 245.677 251.355 245.829 250.98 246.134C250.605 246.433 250.324 246.846 250.137 247.373C249.949 247.895 249.855 248.489 249.855 249.157V249.351C249.855 250.019 249.949 250.616 250.137 251.144C250.324 251.665 250.605 252.078 250.98 252.383C251.361 252.682 251.83 252.831 252.387 252.831ZM257.968 254V252.893L259.4 252.646V245.853L257.968 245.606V244.49H260.947L261.07 245.905C261.387 245.401 261.782 245.012 262.257 244.736C262.737 244.455 263.282 244.314 263.892 244.314C264.917 244.314 265.711 244.616 266.273 245.22C266.836 245.817 267.117 246.743 267.117 247.997V252.646L268.55 252.893V254H263.953V252.893L265.386 252.646V248.032C265.386 247.194 265.219 246.6 264.885 246.248C264.557 245.896 264.053 245.721 263.373 245.721C262.875 245.721 262.433 245.841 262.046 246.081C261.665 246.321 261.36 246.649 261.132 247.065V252.646L262.564 252.893V254H257.968Z" fill="#979797"/>
<rect x="47" y="307" width="870" height="100" rx="8" fill="#C4C4C4"/>
<path d="M877.188 377.438V364.5H865.875V356.625H877.188V344.312H885.844V356.625H897.062V364.5H885.844V377.438H877.188Z" fill="black"/>
<rect x="52" y="312" width="90" height="90" rx="8" fill="#DCDCDC"/>
<line x1="53.3494" y1="314.642" x2="140.349" y2="399.642" stroke="#C4C4C4"/>
<line x1="53.6506" y1="399.642" x2="140.651" y2="314.642" stroke="#C4C4C4"/>
<path d="M171.311 359V355.924L174.035 355.396V337.027L171.311 336.5V333.406H174.035H181.629L188.607 351.248H188.713L195.463 333.406H205.799V336.5L203.057 337.027V355.396L205.799 355.924V359H195.199V355.924L198.064 355.396V350.492L198.152 338.943L198.047 338.926L190.4 358.648H186.516L178.693 339.084L178.588 339.102L178.887 349.965V355.396L181.91 355.924V359H171.311ZM216.855 359.369C215.039 359.369 213.451 358.971 212.092 358.174C210.732 357.365 209.678 356.258 208.928 354.852C208.189 353.445 207.82 351.84 207.82 350.035V349.332C207.82 347.445 208.172 345.775 208.875 344.322C209.578 342.857 210.568 341.709 211.846 340.877C213.135 340.033 214.652 339.617 216.398 339.629C218.121 339.629 219.568 339.969 220.74 340.648C221.912 341.328 222.803 342.307 223.412 343.584C224.021 344.861 224.326 346.408 224.326 348.225V351.02H213.146L213.111 351.125C213.182 351.957 213.387 352.701 213.727 353.357C214.078 354.002 214.57 354.512 215.203 354.887C215.836 355.25 216.604 355.432 217.506 355.432C218.443 355.432 219.316 355.314 220.125 355.08C220.945 354.834 221.742 354.477 222.516 354.008L223.904 357.172C223.119 357.805 222.129 358.332 220.934 358.754C219.75 359.164 218.391 359.369 216.855 359.369ZM213.182 347.627H219.527V347.17C219.527 346.396 219.422 345.734 219.211 345.184C219.012 344.621 218.684 344.188 218.227 343.883C217.781 343.578 217.201 343.426 216.486 343.426C215.807 343.426 215.232 343.607 214.764 343.971C214.295 344.322 213.926 344.809 213.656 345.43C213.398 346.051 213.223 346.754 213.129 347.539L213.182 347.627ZM226.506 359V355.924L228.967 355.396V343.602L226.242 343.074V339.98H233.748L233.977 342.705C234.609 341.732 235.389 340.977 236.314 340.438C237.252 339.898 238.318 339.629 239.514 339.629C241.4 339.629 242.877 340.232 243.943 341.439C245.01 342.646 245.543 344.539 245.543 347.117V355.396L248.004 355.924V359H238.195V355.924L240.393 355.396V347.135C240.393 345.857 240.141 344.955 239.637 344.428C239.133 343.889 238.383 343.619 237.387 343.619C236.648 343.619 236.004 343.777 235.453 344.094C234.914 344.398 234.463 344.838 234.1 345.412V355.396L236.174 355.924V359H226.506ZM256.986 359.369C254.982 359.369 253.406 358.736 252.258 357.471C251.121 356.193 250.553 354.213 250.553 351.529V343.602L248.461 343.074V339.98H250.553H255.686V351.564C255.686 352.924 255.92 353.902 256.389 354.5C256.869 355.086 257.59 355.379 258.551 355.379C259.312 355.379 259.986 355.232 260.572 354.939C261.158 354.635 261.639 354.207 262.014 353.656V343.602L259.746 343.074V339.98H262.014H267.146V355.396L269.432 355.924V359H262.646L262.295 356.592C261.697 357.482 260.947 358.168 260.045 358.648C259.143 359.129 258.123 359.369 256.986 359.369ZM280.014 359V355.924L282.492 355.396V343.602L279.75 343.074V339.98H287.625V355.396L290.086 355.924V359H280.014ZM282.316 335.955V331.578H287.625V335.955H282.316ZM299.279 359.369C297.51 359.369 296.145 358.883 295.184 357.91C294.234 356.938 293.76 355.396 293.76 353.287V343.584H291.141V339.98H293.76V335.322H298.875V339.98H302.373V343.584H298.875V353.27C298.875 354.008 299.027 354.535 299.332 354.852C299.648 355.168 300.076 355.326 300.615 355.326C300.908 355.326 301.213 355.309 301.529 355.273C301.857 355.227 302.139 355.18 302.373 355.133L302.812 358.842C302.285 358.994 301.711 359.117 301.09 359.211C300.48 359.316 299.877 359.369 299.279 359.369ZM313.43 359.369C311.613 359.369 310.025 358.971 308.666 358.174C307.307 357.365 306.252 356.258 305.502 354.852C304.764 353.445 304.395 351.84 304.395 350.035V349.332C304.395 347.445 304.746 345.775 305.449 344.322C306.152 342.857 307.143 341.709 308.42 340.877C309.709 340.033 311.227 339.617 312.973 339.629C314.695 339.629 316.143 339.969 317.314 340.648C318.486 341.328 319.377 342.307 319.986 343.584C320.596 344.861 320.9 346.408 320.9 348.225V351.02H309.721L309.686 351.125C309.756 351.957 309.961 352.701 310.301 353.357C310.652 354.002 311.145 354.512 311.777 354.887C312.41 355.25 313.178 355.432 314.08 355.432C315.018 355.432 315.891 355.314 316.699 355.08C317.52 354.834 318.316 354.477 319.09 354.008L320.479 357.172C319.693 357.805 318.703 358.332 317.508 358.754C316.324 359.164 314.965 359.369 313.43 359.369ZM309.756 347.627H316.102V347.17C316.102 346.396 315.996 345.734 315.785 345.184C315.586 344.621 315.258 344.188 314.801 343.883C314.355 343.578 313.775 343.426 313.061 343.426C312.381 343.426 311.807 343.607 311.338 343.971C310.869 344.322 310.5 344.809 310.23 345.43C309.973 346.051 309.797 346.754 309.703 347.539L309.756 347.627ZM323.08 359V355.924L325.559 355.396V343.602L322.816 343.074V339.98H330.322L330.533 342.494C331.143 341.58 331.904 340.877 332.818 340.385C333.744 339.881 334.811 339.629 336.018 339.629C337.236 339.629 338.279 339.898 339.146 340.438C340.025 340.977 340.682 341.791 341.115 342.881C341.701 341.861 342.463 341.064 343.4 340.49C344.338 339.916 345.439 339.629 346.705 339.629C348.58 339.629 350.057 340.268 351.135 341.545C352.225 342.822 352.77 344.768 352.77 347.381V355.396L355.248 355.924V359H345.422V355.924L347.637 355.396V347.363C347.637 345.957 347.402 344.984 346.934 344.445C346.477 343.895 345.809 343.619 344.93 343.619C344.133 343.619 343.459 343.848 342.908 344.305C342.357 344.75 341.959 345.342 341.713 346.08V355.396L343.787 355.924V359H334.523V355.924L336.598 355.396V347.363C336.598 345.992 336.363 345.025 335.895 344.463C335.438 343.9 334.758 343.619 333.855 343.619C333.129 343.619 332.502 343.766 331.975 344.059C331.447 344.352 331.014 344.773 330.674 345.324V355.396L332.889 355.924V359H323.08ZM366.059 359V355.643L374.355 346.73C375.199 345.781 375.861 344.955 376.342 344.252C376.822 343.549 377.162 342.91 377.361 342.336C377.572 341.75 377.678 341.17 377.678 340.596C377.678 339.6 377.391 338.756 376.816 338.064C376.254 337.373 375.422 337.027 374.32 337.027C373.137 337.027 372.24 337.414 371.631 338.188C371.021 338.949 370.717 340.004 370.717 341.352H365.725L365.689 341.246C365.654 339.699 365.982 338.311 366.674 337.08C367.377 335.838 368.385 334.854 369.697 334.127C371.021 333.4 372.58 333.037 374.373 333.037C376.131 333.037 377.637 333.354 378.891 333.986C380.156 334.607 381.129 335.48 381.809 336.605C382.488 337.73 382.828 339.031 382.828 340.508C382.828 341.527 382.646 342.488 382.283 343.391C381.92 344.281 381.352 345.225 380.578 346.221C379.805 347.217 378.809 348.359 377.59 349.648L372.615 354.992L372.65 355.08H379.277L379.541 352.637H383.514V359H366.059Z" fill="black" fill-opacity="0.5"/>
<path d="M170.582 384V382.893L172.015 382.646V372.565L170.582 372.319V371.203H172.015H175.592C176.723 371.203 177.707 371.473 178.545 372.012C179.389 372.551 180.045 373.292 180.514 374.235C180.982 375.179 181.217 376.257 181.217 377.47V377.742C181.217 378.926 180.991 379.992 180.54 380.941C180.089 381.885 179.447 382.632 178.615 383.183C177.789 383.728 176.811 384 175.68 384H170.582ZM173.746 382.646H175.592C176.4 382.646 177.095 382.427 177.675 381.987C178.255 381.542 178.7 380.95 179.011 380.212C179.327 379.468 179.485 378.645 179.485 377.742V377.452C179.485 376.521 179.327 375.688 179.011 374.956C178.7 374.218 178.255 373.635 177.675 373.207C177.095 372.779 176.4 372.565 175.592 372.565H173.746V382.646ZM186.771 384.185C185.893 384.185 185.128 383.985 184.478 383.587C183.827 383.183 183.323 382.623 182.966 381.908C182.614 381.193 182.438 380.367 182.438 379.43V379.043C182.438 378.141 182.623 377.335 182.992 376.626C183.367 375.911 183.862 375.349 184.478 374.938C185.099 374.522 185.775 374.314 186.508 374.314C187.363 374.314 188.078 374.49 188.652 374.842C189.232 375.193 189.669 375.688 189.962 376.327C190.255 376.96 190.401 377.707 190.401 378.568V379.649H184.231L184.205 379.693C184.217 380.303 184.322 380.845 184.521 381.319C184.727 381.788 185.02 382.157 185.4 382.427C185.781 382.696 186.238 382.831 186.771 382.831C187.357 382.831 187.87 382.749 188.31 382.585C188.755 382.415 189.139 382.184 189.461 381.891L190.138 383.016C189.798 383.344 189.347 383.622 188.784 383.851C188.228 384.073 187.557 384.185 186.771 384.185ZM184.284 378.296H188.67V378.067C188.67 377.61 188.588 377.203 188.424 376.846C188.266 376.482 188.025 376.198 187.703 375.993C187.387 375.782 186.988 375.677 186.508 375.677C186.121 375.677 185.77 375.791 185.453 376.02C185.137 376.242 184.876 376.547 184.671 376.934C184.466 377.32 184.331 377.76 184.267 378.252L184.284 378.296ZM195.657 384.185C195.019 384.185 194.421 384.12 193.864 383.991C193.308 383.862 192.716 383.663 192.089 383.394L192.071 381.135H193.381L193.706 382.497C194.034 382.632 194.351 382.731 194.655 382.796C194.966 382.854 195.3 382.884 195.657 382.884C196.36 382.884 196.864 382.749 197.169 382.479C197.474 382.21 197.626 381.876 197.626 381.478C197.626 381.103 197.471 380.786 197.16 380.528C196.855 380.265 196.299 380.042 195.49 379.86C194.342 379.597 193.495 379.245 192.95 378.806C192.411 378.36 192.142 377.769 192.142 377.03C192.142 376.515 192.291 376.055 192.59 375.65C192.889 375.24 193.305 374.915 193.838 374.675C194.371 374.435 194.992 374.314 195.701 374.314C196.422 374.314 197.037 374.396 197.547 374.561C198.062 374.725 198.511 374.944 198.892 375.22L198.979 377.391H197.679L197.397 376.125C197.192 375.973 196.949 375.855 196.668 375.773C196.387 375.691 196.064 375.65 195.701 375.65C195.162 375.65 194.723 375.776 194.383 376.028C194.049 376.28 193.882 376.597 193.882 376.978C193.882 377.2 193.929 377.394 194.022 377.558C194.122 377.722 194.31 377.871 194.585 378.006C194.86 378.135 195.265 378.264 195.798 378.393C197.122 378.703 198.045 379.099 198.566 379.579C199.094 380.06 199.357 380.651 199.357 381.354C199.357 382.157 199.059 382.831 198.461 383.376C197.869 383.915 196.935 384.185 195.657 384.185ZM205.088 384.185C204.227 384.185 203.477 383.985 202.838 383.587C202.199 383.183 201.704 382.623 201.353 381.908C201.001 381.193 200.825 380.367 200.825 379.43V379.061C200.825 378.158 200.995 377.35 201.335 376.635C201.675 375.92 202.164 375.354 202.803 374.938C203.441 374.522 204.203 374.314 205.088 374.314C205.855 374.314 206.526 374.44 207.101 374.692C207.681 374.944 208.167 375.29 208.56 375.729L208.604 378.015H207.25L206.951 376.354C206.752 376.148 206.503 375.984 206.204 375.861C205.905 375.738 205.554 375.677 205.149 375.677C204.634 375.677 204.18 375.829 203.787 376.134C203.4 376.438 203.099 376.846 202.882 377.355C202.665 377.865 202.557 378.434 202.557 379.061V379.43C202.557 380.121 202.656 380.722 202.855 381.231C203.061 381.741 203.351 382.137 203.726 382.418C204.106 382.693 204.558 382.831 205.079 382.831C205.665 382.831 206.151 382.67 206.538 382.348C206.925 382.025 207.162 381.583 207.25 381.021H208.806L208.823 381.073C208.794 381.618 208.633 382.128 208.34 382.603C208.047 383.077 207.628 383.461 207.083 383.754C206.544 384.041 205.879 384.185 205.088 384.185ZM210.159 384V382.893L211.592 382.646V375.853L210.159 375.606V374.49H213.139L213.288 375.703L213.306 375.87C213.575 375.384 213.906 375.003 214.299 374.728C214.697 374.452 215.151 374.314 215.661 374.314C215.843 374.314 216.027 374.332 216.215 374.367C216.408 374.396 216.546 374.426 216.628 374.455L216.399 376.063L215.195 375.993C214.738 375.964 214.354 376.069 214.044 376.31C213.733 376.544 213.493 376.86 213.323 377.259V382.646L214.756 382.893V384H210.159ZM217.621 384V382.893L219.054 382.646V375.853L217.621 375.606V374.49H220.785V382.646L222.218 382.893V384H217.621ZM218.966 372.144V370.289H220.785V372.144H218.966ZM223.149 387.656V386.54L224.494 386.294V375.853L223.062 375.606V374.49H225.979L226.138 375.65C226.454 375.217 226.838 374.886 227.289 374.657C227.746 374.429 228.273 374.314 228.871 374.314C229.656 374.314 230.327 374.528 230.884 374.956C231.44 375.378 231.865 375.973 232.158 376.74C232.451 377.502 232.598 378.396 232.598 379.421V379.605C232.598 380.52 232.448 381.319 232.149 382.005C231.856 382.69 231.435 383.227 230.884 383.613C230.333 383.994 229.671 384.185 228.897 384.185C228.312 384.185 227.796 384.088 227.351 383.895C226.911 383.695 226.536 383.402 226.226 383.016V386.294L227.737 386.54V387.656H223.149ZM228.361 382.831C229.182 382.831 229.803 382.532 230.225 381.935C230.646 381.337 230.857 380.561 230.857 379.605V379.421C230.857 378.694 230.764 378.056 230.576 377.505C230.389 376.948 230.107 376.512 229.732 376.195C229.363 375.879 228.9 375.721 228.344 375.721C227.852 375.721 227.43 375.832 227.078 376.055C226.727 376.277 226.442 376.582 226.226 376.969V381.601C226.442 381.993 226.724 382.298 227.069 382.515C227.421 382.726 227.852 382.831 228.361 382.831ZM237.3 384.149C236.597 384.149 236.037 383.944 235.621 383.534C235.211 383.118 235.006 382.456 235.006 381.548V375.773H233.503V374.49H235.006V372.196H236.737V374.49H238.803V375.773H236.737V381.548C236.737 382.005 236.828 382.342 237.01 382.559C237.191 382.775 237.435 382.884 237.739 382.884C237.944 382.884 238.173 382.866 238.425 382.831C238.677 382.79 238.873 382.755 239.014 382.726L239.251 383.859C238.999 383.936 238.688 384.003 238.319 384.062C237.956 384.12 237.616 384.149 237.3 384.149ZM240.297 384V382.893L241.729 382.646V375.853L240.297 375.606V374.49H243.461V382.646L244.894 382.893V384H240.297ZM241.642 372.144V370.289H243.461V372.144H241.642ZM250.387 384.185C249.508 384.185 248.749 383.979 248.11 383.569C247.478 383.153 246.988 382.582 246.643 381.855C246.297 381.123 246.124 380.288 246.124 379.351V379.157C246.124 378.22 246.297 377.388 246.643 376.661C246.988 375.929 247.478 375.354 248.11 374.938C248.749 374.522 249.502 374.314 250.369 374.314C251.248 374.314 252.004 374.522 252.637 374.938C253.275 375.354 253.768 375.926 254.113 376.652C254.459 377.379 254.632 378.214 254.632 379.157V379.351C254.632 380.294 254.459 381.132 254.113 381.864C253.768 382.591 253.278 383.159 252.646 383.569C252.013 383.979 251.26 384.185 250.387 384.185ZM250.387 382.831C250.938 382.831 251.397 382.682 251.767 382.383C252.142 382.078 252.423 381.665 252.61 381.144C252.804 380.616 252.9 380.019 252.9 379.351V379.157C252.9 378.489 252.804 377.895 252.61 377.373C252.423 376.846 252.142 376.433 251.767 376.134C251.392 375.829 250.926 375.677 250.369 375.677C249.818 375.677 249.355 375.829 248.98 376.134C248.605 376.433 248.324 376.846 248.137 377.373C247.949 377.895 247.855 378.489 247.855 379.157V379.351C247.855 380.019 247.949 380.616 248.137 381.144C248.324 381.665 248.605 382.078 248.98 382.383C249.361 382.682 249.83 382.831 250.387 382.831ZM255.968 384V382.893L257.4 382.646V375.853L255.968 375.606V374.49H258.947L259.07 375.905C259.387 375.401 259.782 375.012 260.257 374.736C260.737 374.455 261.282 374.314 261.892 374.314C262.917 374.314 263.711 374.616 264.273 375.22C264.836 375.817 265.117 376.743 265.117 377.997V382.646L266.55 382.893V384H261.953V382.893L263.386 382.646V378.032C263.386 377.194 263.219 376.6 262.885 376.248C262.557 375.896 262.053 375.721 261.373 375.721C260.875 375.721 260.433 375.841 260.046 376.081C259.665 376.321 259.36 376.649 259.132 377.065V382.646L260.564 382.893V384H255.968Z" fill="#979797"/>
<rect x="47" y="437" width="870" height="100" rx="8" fill="#C4C4C4"/>
<path d="M877.188 507.438V494.5H865.875V486.625H877.188V474.312H885.844V486.625H897.062V494.5H885.844V507.438H877.188Z" fill="black"/>
<rect x="52" y="442" width="90" height="90" rx="8" fill="#DCDCDC"/>
<line x1="53.3494" y1="444.642" x2="140.349" y2="529.642" stroke="#C4C4C4"/>
<line x1="53.6506" y1="529.642" x2="140.651" y2="444.642" stroke="#C4C4C4"/>
<path d="M171.021 489V485.924L173.746 485.396V467.027L171.021 466.5V463.406H173.746H181.34L188.318 481.248H188.424L195.174 463.406H205.51V466.5L202.768 467.027V485.396L205.51 485.924V489H194.91V485.924L197.775 485.396V480.492L197.863 468.943L197.758 468.926L190.111 488.648H186.227L178.404 469.084L178.299 469.102L178.598 479.965V485.396L181.621 485.924V489H171.021ZM216.566 489.369C214.75 489.369 213.162 488.971 211.803 488.174C210.443 487.365 209.389 486.258 208.639 484.852C207.9 483.445 207.531 481.84 207.531 480.035V479.332C207.531 477.445 207.883 475.775 208.586 474.322C209.289 472.857 210.279 471.709 211.557 470.877C212.846 470.033 214.363 469.617 216.109 469.629C217.832 469.629 219.279 469.969 220.451 470.648C221.623 471.328 222.514 472.307 223.123 473.584C223.732 474.861 224.037 476.408 224.037 478.225V481.02H212.857L212.822 481.125C212.893 481.957 213.098 482.701 213.438 483.357C213.789 484.002 214.281 484.512 214.914 484.887C215.547 485.25 216.314 485.432 217.217 485.432C218.154 485.432 219.027 485.314 219.836 485.08C220.656 484.834 221.453 484.477 222.227 484.008L223.615 487.172C222.83 487.805 221.84 488.332 220.645 488.754C219.461 489.164 218.102 489.369 216.566 489.369ZM212.893 477.627H219.238V477.17C219.238 476.396 219.133 475.734 218.922 475.184C218.723 474.621 218.395 474.188 217.938 473.883C217.492 473.578 216.912 473.426 216.197 473.426C215.518 473.426 214.943 473.607 214.475 473.971C214.006 474.322 213.637 474.809 213.367 475.43C213.109 476.051 212.934 476.754 212.84 477.539L212.893 477.627ZM226.217 489V485.924L228.678 485.396V473.602L225.953 473.074V469.98H233.459L233.688 472.705C234.32 471.732 235.1 470.977 236.025 470.438C236.963 469.898 238.029 469.629 239.225 469.629C241.111 469.629 242.588 470.232 243.654 471.439C244.721 472.646 245.254 474.539 245.254 477.117V485.396L247.715 485.924V489H237.906V485.924L240.104 485.396V477.135C240.104 475.857 239.852 474.955 239.348 474.428C238.844 473.889 238.094 473.619 237.098 473.619C236.359 473.619 235.715 473.777 235.164 474.094C234.625 474.398 234.174 474.838 233.811 475.412V485.396L235.885 485.924V489H226.217ZM256.697 489.369C254.693 489.369 253.117 488.736 251.969 487.471C250.832 486.193 250.264 484.213 250.264 481.529V473.602L248.172 473.074V469.98H250.264H255.396V481.564C255.396 482.924 255.631 483.902 256.1 484.5C256.58 485.086 257.301 485.379 258.262 485.379C259.023 485.379 259.697 485.232 260.283 484.939C260.869 484.635 261.35 484.207 261.725 483.656V473.602L259.457 473.074V469.98H261.725H266.857V485.396L269.143 485.924V489H262.357L262.006 486.592C261.408 487.482 260.658 488.168 259.756 488.648C258.854 489.129 257.834 489.369 256.697 489.369ZM279.725 489V485.924L282.203 485.396V473.602L279.461 473.074V469.98H287.336V485.396L289.797 485.924V489H279.725ZM282.027 465.955V461.578H287.336V465.955H282.027ZM298.99 489.369C297.221 489.369 295.855 488.883 294.895 487.91C293.945 486.938 293.471 485.396 293.471 483.287V473.584H290.852V469.98H293.471V465.322H298.586V469.98H302.084V473.584H298.586V483.27C298.586 484.008 298.738 484.535 299.043 484.852C299.359 485.168 299.787 485.326 300.326 485.326C300.619 485.326 300.924 485.309 301.24 485.273C301.568 485.227 301.85 485.18 302.084 485.133L302.523 488.842C301.996 488.994 301.422 489.117 300.801 489.211C300.191 489.316 299.588 489.369 298.99 489.369ZM313.141 489.369C311.324 489.369 309.736 488.971 308.377 488.174C307.018 487.365 305.963 486.258 305.213 484.852C304.475 483.445 304.105 481.84 304.105 480.035V479.332C304.105 477.445 304.457 475.775 305.16 474.322C305.863 472.857 306.854 471.709 308.131 470.877C309.42 470.033 310.938 469.617 312.684 469.629C314.406 469.629 315.854 469.969 317.025 470.648C318.197 471.328 319.088 472.307 319.697 473.584C320.307 474.861 320.611 476.408 320.611 478.225V481.02H309.432L309.396 481.125C309.467 481.957 309.672 482.701 310.012 483.357C310.363 484.002 310.855 484.512 311.488 484.887C312.121 485.25 312.889 485.432 313.791 485.432C314.729 485.432 315.602 485.314 316.41 485.08C317.23 484.834 318.027 484.477 318.801 484.008L320.189 487.172C319.404 487.805 318.414 488.332 317.219 488.754C316.035 489.164 314.676 489.369 313.141 489.369ZM309.467 477.627H315.812V477.17C315.812 476.396 315.707 475.734 315.496 475.184C315.297 474.621 314.969 474.188 314.512 473.883C314.066 473.578 313.486 473.426 312.771 473.426C312.092 473.426 311.518 473.607 311.049 473.971C310.58 474.322 310.211 474.809 309.941 475.43C309.684 476.051 309.508 476.754 309.414 477.539L309.467 477.627ZM322.791 489V485.924L325.27 485.396V473.602L322.527 473.074V469.98H330.033L330.244 472.494C330.854 471.58 331.615 470.877 332.529 470.385C333.455 469.881 334.521 469.629 335.729 469.629C336.947 469.629 337.99 469.898 338.857 470.438C339.736 470.977 340.393 471.791 340.826 472.881C341.412 471.861 342.174 471.064 343.111 470.49C344.049 469.916 345.15 469.629 346.416 469.629C348.291 469.629 349.768 470.268 350.846 471.545C351.936 472.822 352.48 474.768 352.48 477.381V485.396L354.959 485.924V489H345.133V485.924L347.348 485.396V477.363C347.348 475.957 347.113 474.984 346.645 474.445C346.188 473.895 345.52 473.619 344.641 473.619C343.844 473.619 343.17 473.848 342.619 474.305C342.068 474.75 341.67 475.342 341.424 476.08V485.396L343.498 485.924V489H334.234V485.924L336.309 485.396V477.363C336.309 475.992 336.074 475.025 335.605 474.463C335.148 473.9 334.469 473.619 333.566 473.619C332.84 473.619 332.213 473.766 331.686 474.059C331.158 474.352 330.725 474.773 330.385 475.324V485.396L332.6 485.924V489H322.791ZM374.154 489.369C372.525 489.369 371.043 489.082 369.707 488.508C368.371 487.934 367.311 487.102 366.525 486.012C365.752 484.91 365.383 483.58 365.418 482.021L365.453 481.916H370.428C370.428 482.596 370.58 483.199 370.885 483.727C371.189 484.254 371.617 484.67 372.168 484.975C372.73 485.279 373.393 485.432 374.154 485.432C375.338 485.432 376.27 485.098 376.949 484.43C377.641 483.762 377.986 482.842 377.986 481.67C377.986 480.475 377.646 479.543 376.967 478.875C376.287 478.207 375.262 477.873 373.891 477.873H371.113V474.023H373.996C374.816 474.023 375.49 473.883 376.018 473.602C376.545 473.309 376.938 472.898 377.195 472.371C377.453 471.844 377.582 471.223 377.582 470.508C377.582 469.43 377.289 468.574 376.703 467.941C376.117 467.309 375.268 466.992 374.154 466.992C373.486 466.992 372.895 467.127 372.379 467.396C371.863 467.654 371.459 468.023 371.166 468.504C370.885 468.984 370.744 469.541 370.744 470.174H365.77L365.734 470.068C365.699 468.709 366.033 467.502 366.736 466.447C367.439 465.381 368.43 464.549 369.707 463.951C370.996 463.342 372.467 463.037 374.119 463.037C376.709 463.037 378.789 463.67 380.359 464.936C381.93 466.189 382.715 467.971 382.715 470.279C382.715 471.475 382.381 472.553 381.713 473.514C381.057 474.475 380.072 475.26 378.76 475.869C380.178 476.373 381.256 477.146 381.994 478.189C382.744 479.232 383.119 480.445 383.119 481.828C383.119 483.387 382.732 484.729 381.959 485.854C381.186 486.979 380.119 487.846 378.76 488.455C377.412 489.064 375.877 489.369 374.154 489.369Z" fill="black" fill-opacity="0.5"/>
<rect x="47" y="567" width="870" height="100" rx="8" fill="#C4C4C4"/>
<path d="M877.188 637.438V624.5H865.875V616.625H877.188V604.312H885.844V616.625H897.062V624.5H885.844V637.438H877.188Z" fill="black"/>
<rect x="52" y="572" width="90" height="90" rx="8" fill="#DCDCDC"/>
<line x1="53.3494" y1="574.642" x2="140.349" y2="659.642" stroke="#C4C4C4"/>
<line x1="53.6506" y1="659.642" x2="140.651" y2="574.642" stroke="#C4C4C4"/>
<path d="M171.117 619V615.924L173.842 615.396V597.027L171.117 596.5V593.406H173.842H181.436L188.414 611.248H188.52L195.27 593.406H205.605V596.5L202.863 597.027V615.396L205.605 615.924V619H195.006V615.924L197.871 615.396V610.492L197.959 598.943L197.854 598.926L190.207 618.648H186.322L178.5 599.084L178.395 599.102L178.693 609.965V615.396L181.717 615.924V619H171.117ZM216.662 619.369C214.846 619.369 213.258 618.971 211.898 618.174C210.539 617.365 209.484 616.258 208.734 614.852C207.996 613.445 207.627 611.84 207.627 610.035V609.332C207.627 607.445 207.979 605.775 208.682 604.322C209.385 602.857 210.375 601.709 211.652 600.877C212.941 600.033 214.459 599.617 216.205 599.629C217.928 599.629 219.375 599.969 220.547 600.648C221.719 601.328 222.609 602.307 223.219 603.584C223.828 604.861 224.133 606.408 224.133 608.225V611.02H212.953L212.918 611.125C212.988 611.957 213.193 612.701 213.533 613.357C213.885 614.002 214.377 614.512 215.01 614.887C215.643 615.25 216.41 615.432 217.312 615.432C218.25 615.432 219.123 615.314 219.932 615.08C220.752 614.834 221.549 614.477 222.322 614.008L223.711 617.172C222.926 617.805 221.936 618.332 220.74 618.754C219.557 619.164 218.197 619.369 216.662 619.369ZM212.988 607.627H219.334V607.17C219.334 606.396 219.229 605.734 219.018 605.184C218.818 604.621 218.49 604.188 218.033 603.883C217.588 603.578 217.008 603.426 216.293 603.426C215.613 603.426 215.039 603.607 214.57 603.971C214.102 604.322 213.732 604.809 213.463 605.43C213.205 606.051 213.029 606.754 212.936 607.539L212.988 607.627ZM226.312 619V615.924L228.773 615.396V603.602L226.049 603.074V599.98H233.555L233.783 602.705C234.416 601.732 235.195 600.977 236.121 600.438C237.059 599.898 238.125 599.629 239.32 599.629C241.207 599.629 242.684 600.232 243.75 601.439C244.816 602.646 245.35 604.539 245.35 607.117V615.396L247.811 615.924V619H238.002V615.924L240.199 615.396V607.135C240.199 605.857 239.947 604.955 239.443 604.428C238.939 603.889 238.189 603.619 237.193 603.619C236.455 603.619 235.811 603.777 235.26 604.094C234.721 604.398 234.27 604.838 233.906 605.412V615.396L235.98 615.924V619H226.312ZM256.793 619.369C254.789 619.369 253.213 618.736 252.064 617.471C250.928 616.193 250.359 614.213 250.359 611.529V603.602L248.268 603.074V599.98H250.359H255.492V611.564C255.492 612.924 255.727 613.902 256.195 614.5C256.676 615.086 257.396 615.379 258.357 615.379C259.119 615.379 259.793 615.232 260.379 614.939C260.965 614.635 261.445 614.207 261.82 613.656V603.602L259.553 603.074V599.98H261.82H266.953V615.396L269.238 615.924V619H262.453L262.102 616.592C261.504 617.482 260.754 618.168 259.852 618.648C258.949 619.129 257.93 619.369 256.793 619.369ZM279.82 619V615.924L282.299 615.396V603.602L279.557 603.074V599.98H287.432V615.396L289.893 615.924V619H279.82ZM282.123 595.955V591.578H287.432V595.955H282.123ZM299.086 619.369C297.316 619.369 295.951 618.883 294.99 617.91C294.041 616.938 293.566 615.396 293.566 613.287V603.584H290.947V599.98H293.566V595.322H298.682V599.98H302.18V603.584H298.682V613.27C298.682 614.008 298.834 614.535 299.139 614.852C299.455 615.168 299.883 615.326 300.422 615.326C300.715 615.326 301.02 615.309 301.336 615.273C301.664 615.227 301.945 615.18 302.18 615.133L302.619 618.842C302.092 618.994 301.518 619.117 300.896 619.211C300.287 619.316 299.684 619.369 299.086 619.369ZM313.236 619.369C311.42 619.369 309.832 618.971 308.473 618.174C307.113 617.365 306.059 616.258 305.309 614.852C304.57 613.445 304.201 611.84 304.201 610.035V609.332C304.201 607.445 304.553 605.775 305.256 604.322C305.959 602.857 306.949 601.709 308.227 600.877C309.516 600.033 311.033 599.617 312.779 599.629C314.502 599.629 315.949 599.969 317.121 600.648C318.293 601.328 319.184 602.307 319.793 603.584C320.402 604.861 320.707 606.408 320.707 608.225V611.02H309.527L309.492 611.125C309.562 611.957 309.768 612.701 310.107 613.357C310.459 614.002 310.951 614.512 311.584 614.887C312.217 615.25 312.984 615.432 313.887 615.432C314.824 615.432 315.697 615.314 316.506 615.08C317.326 614.834 318.123 614.477 318.896 614.008L320.285 617.172C319.5 617.805 318.51 618.332 317.314 618.754C316.131 619.164 314.771 619.369 313.236 619.369ZM309.562 607.627H315.908V607.17C315.908 606.396 315.803 605.734 315.592 605.184C315.393 604.621 315.064 604.188 314.607 603.883C314.162 603.578 313.582 603.426 312.867 603.426C312.188 603.426 311.613 603.607 311.145 603.971C310.676 604.322 310.307 604.809 310.037 605.43C309.779 606.051 309.604 606.754 309.51 607.539L309.562 607.627ZM322.887 619V615.924L325.365 615.396V603.602L322.623 603.074V599.98H330.129L330.34 602.494C330.949 601.58 331.711 600.877 332.625 600.385C333.551 599.881 334.617 599.629 335.824 599.629C337.043 599.629 338.086 599.898 338.953 600.438C339.832 600.977 340.488 601.791 340.922 602.881C341.508 601.861 342.27 601.064 343.207 600.49C344.145 599.916 345.246 599.629 346.512 599.629C348.387 599.629 349.863 600.268 350.941 601.545C352.031 602.822 352.576 604.768 352.576 607.381V615.396L355.055 615.924V619H345.229V615.924L347.443 615.396V607.363C347.443 605.957 347.209 604.984 346.74 604.445C346.283 603.895 345.615 603.619 344.736 603.619C343.939 603.619 343.266 603.848 342.715 604.305C342.164 604.75 341.766 605.342 341.52 606.08V615.396L343.594 615.924V619H334.33V615.924L336.404 615.396V607.363C336.404 605.992 336.17 605.025 335.701 604.463C335.244 603.9 334.564 603.619 333.662 603.619C332.936 603.619 332.309 603.766 331.781 604.059C331.254 604.352 330.82 604.773 330.48 605.324V615.396L332.695 615.924V619H322.887ZM373.16 619V615.924L375.902 615.396V612.883H365.461L365.215 610.369L375.85 593.406H381.018V609.473H383.918V612.883H381.018V615.396L383.742 615.924V619H373.16ZM369.996 609.473H375.902V600.244L375.797 600.209L375.375 600.947L369.996 609.473Z" fill="black" fill-opacity="0.5"/>
<path d="M173.082 644V642.893L174.515 642.646V632.565L173.082 632.319V631.203H174.515H178.092C179.223 631.203 180.207 631.473 181.045 632.012C181.889 632.551 182.545 633.292 183.014 634.235C183.482 635.179 183.717 636.257 183.717 637.47V637.742C183.717 638.926 183.491 639.992 183.04 640.941C182.589 641.885 181.947 642.632 181.115 643.183C180.289 643.728 179.311 644 178.18 644H173.082ZM176.246 642.646H178.092C178.9 642.646 179.595 642.427 180.175 641.987C180.755 641.542 181.2 640.95 181.511 640.212C181.827 639.468 181.985 638.645 181.985 637.742V637.452C181.985 636.521 181.827 635.688 181.511 634.956C181.2 634.218 180.755 633.635 180.175 633.207C179.595 632.779 178.9 632.565 178.092 632.565H176.246V642.646ZM189.271 644.185C188.393 644.185 187.628 643.985 186.978 643.587C186.327 643.183 185.823 642.623 185.466 641.908C185.114 641.193 184.938 640.367 184.938 639.43V639.043C184.938 638.141 185.123 637.335 185.492 636.626C185.867 635.911 186.362 635.349 186.978 634.938C187.599 634.522 188.275 634.314 189.008 634.314C189.863 634.314 190.578 634.49 191.152 634.842C191.732 635.193 192.169 635.688 192.462 636.327C192.755 636.96 192.901 637.707 192.901 638.568V639.649H186.731L186.705 639.693C186.717 640.303 186.822 640.845 187.021 641.319C187.227 641.788 187.52 642.157 187.9 642.427C188.281 642.696 188.738 642.831 189.271 642.831C189.857 642.831 190.37 642.749 190.81 642.585C191.255 642.415 191.639 642.184 191.961 641.891L192.638 643.016C192.298 643.344 191.847 643.622 191.284 643.851C190.728 644.073 190.057 644.185 189.271 644.185ZM186.784 638.296H191.17V638.067C191.17 637.61 191.088 637.203 190.924 636.846C190.766 636.482 190.525 636.198 190.203 635.993C189.887 635.782 189.488 635.677 189.008 635.677C188.621 635.677 188.27 635.791 187.953 636.02C187.637 636.242 187.376 636.547 187.171 636.934C186.966 637.32 186.831 637.76 186.767 638.252L186.784 638.296ZM198.157 644.185C197.519 644.185 196.921 644.12 196.364 643.991C195.808 643.862 195.216 643.663 194.589 643.394L194.571 641.135H195.881L196.206 642.497C196.534 642.632 196.851 642.731 197.155 642.796C197.466 642.854 197.8 642.884 198.157 642.884C198.86 642.884 199.364 642.749 199.669 642.479C199.974 642.21 200.126 641.876 200.126 641.478C200.126 641.103 199.971 640.786 199.66 640.528C199.355 640.265 198.799 640.042 197.99 639.86C196.842 639.597 195.995 639.245 195.45 638.806C194.911 638.36 194.642 637.769 194.642 637.03C194.642 636.515 194.791 636.055 195.09 635.65C195.389 635.24 195.805 634.915 196.338 634.675C196.871 634.435 197.492 634.314 198.201 634.314C198.922 634.314 199.537 634.396 200.047 634.561C200.562 634.725 201.011 634.944 201.392 635.22L201.479 637.391H200.179L199.897 636.125C199.692 635.973 199.449 635.855 199.168 635.773C198.887 635.691 198.564 635.65 198.201 635.65C197.662 635.65 197.223 635.776 196.883 636.028C196.549 636.28 196.382 636.597 196.382 636.978C196.382 637.2 196.429 637.394 196.522 637.558C196.622 637.722 196.81 637.871 197.085 638.006C197.36 638.135 197.765 638.264 198.298 638.393C199.622 638.703 200.545 639.099 201.066 639.579C201.594 640.06 201.857 640.651 201.857 641.354C201.857 642.157 201.559 642.831 200.961 643.376C200.369 643.915 199.435 644.185 198.157 644.185ZM207.588 644.185C206.727 644.185 205.977 643.985 205.338 643.587C204.699 643.183 204.204 642.623 203.853 641.908C203.501 641.193 203.325 640.367 203.325 639.43V639.061C203.325 638.158 203.495 637.35 203.835 636.635C204.175 635.92 204.664 635.354 205.303 634.938C205.941 634.522 206.703 634.314 207.588 634.314C208.355 634.314 209.026 634.44 209.601 634.692C210.181 634.944 210.667 635.29 211.06 635.729L211.104 638.015H209.75L209.451 636.354C209.252 636.148 209.003 635.984 208.704 635.861C208.405 635.738 208.054 635.677 207.649 635.677C207.134 635.677 206.68 635.829 206.287 636.134C205.9 636.438 205.599 636.846 205.382 637.355C205.165 637.865 205.057 638.434 205.057 639.061V639.43C205.057 640.121 205.156 640.722 205.355 641.231C205.561 641.741 205.851 642.137 206.226 642.418C206.606 642.693 207.058 642.831 207.579 642.831C208.165 642.831 208.651 642.67 209.038 642.348C209.425 642.025 209.662 641.583 209.75 641.021H211.306L211.323 641.073C211.294 641.618 211.133 642.128 210.84 642.603C210.547 643.077 210.128 643.461 209.583 643.754C209.044 644.041 208.379 644.185 207.588 644.185ZM212.659 644V642.893L214.092 642.646V635.853L212.659 635.606V634.49H215.639L215.788 635.703L215.806 635.87C216.075 635.384 216.406 635.003 216.799 634.728C217.197 634.452 217.651 634.314 218.161 634.314C218.343 634.314 218.527 634.332 218.715 634.367C218.908 634.396 219.046 634.426 219.128 634.455L218.899 636.063L217.695 635.993C217.238 635.964 216.854 636.069 216.544 636.31C216.233 636.544 215.993 636.86 215.823 637.259V642.646L217.256 642.893V644H212.659ZM220.121 644V642.893L221.554 642.646V635.853L220.121 635.606V634.49H223.285V642.646L224.718 642.893V644H220.121ZM221.466 632.144V630.289H223.285V632.144H221.466ZM225.649 647.656V646.54L226.994 646.294V635.853L225.562 635.606V634.49H228.479L228.638 635.65C228.954 635.217 229.338 634.886 229.789 634.657C230.246 634.429 230.773 634.314 231.371 634.314C232.156 634.314 232.827 634.528 233.384 634.956C233.94 635.378 234.365 635.973 234.658 636.74C234.951 637.502 235.098 638.396 235.098 639.421V639.605C235.098 640.52 234.948 641.319 234.649 642.005C234.356 642.69 233.935 643.227 233.384 643.613C232.833 643.994 232.171 644.185 231.397 644.185C230.812 644.185 230.296 644.088 229.851 643.895C229.411 643.695 229.036 643.402 228.726 643.016V646.294L230.237 646.54V647.656H225.649ZM230.861 642.831C231.682 642.831 232.303 642.532 232.725 641.935C233.146 641.337 233.357 640.561 233.357 639.605V639.421C233.357 638.694 233.264 638.056 233.076 637.505C232.889 636.948 232.607 636.512 232.232 636.195C231.863 635.879 231.4 635.721 230.844 635.721C230.352 635.721 229.93 635.832 229.578 636.055C229.227 636.277 228.942 636.582 228.726 636.969V641.601C228.942 641.993 229.224 642.298 229.569 642.515C229.921 642.726 230.352 642.831 230.861 642.831ZM239.8 644.149C239.097 644.149 238.537 643.944 238.121 643.534C237.711 643.118 237.506 642.456 237.506 641.548V635.773H236.003V634.49H237.506V632.196H239.237V634.49H241.303V635.773H239.237V641.548C239.237 642.005 239.328 642.342 239.51 642.559C239.691 642.775 239.935 642.884 240.239 642.884C240.444 642.884 240.673 642.866 240.925 642.831C241.177 642.79 241.373 642.755 241.514 642.726L241.751 643.859C241.499 643.936 241.188 644.003 240.819 644.062C240.456 644.12 240.116 644.149 239.8 644.149ZM242.797 644V642.893L244.229 642.646V635.853L242.797 635.606V634.49H245.961V642.646L247.394 642.893V644H242.797ZM244.142 632.144V630.289H245.961V632.144H244.142ZM252.887 644.185C252.008 644.185 251.249 643.979 250.61 643.569C249.978 643.153 249.488 642.582 249.143 641.855C248.797 641.123 248.624 640.288 248.624 639.351V639.157C248.624 638.22 248.797 637.388 249.143 636.661C249.488 635.929 249.978 635.354 250.61 634.938C251.249 634.522 252.002 634.314 252.869 634.314C253.748 634.314 254.504 634.522 255.137 634.938C255.775 635.354 256.268 635.926 256.613 636.652C256.959 637.379 257.132 638.214 257.132 639.157V639.351C257.132 640.294 256.959 641.132 256.613 641.864C256.268 642.591 255.778 643.159 255.146 643.569C254.513 643.979 253.76 644.185 252.887 644.185ZM252.887 642.831C253.438 642.831 253.897 642.682 254.267 642.383C254.642 642.078 254.923 641.665 255.11 641.144C255.304 640.616 255.4 640.019 255.4 639.351V639.157C255.4 638.489 255.304 637.895 255.11 637.373C254.923 636.846 254.642 636.433 254.267 636.134C253.892 635.829 253.426 635.677 252.869 635.677C252.318 635.677 251.855 635.829 251.48 636.134C251.105 636.433 250.824 636.846 250.637 637.373C250.449 637.895 250.355 638.489 250.355 639.157V639.351C250.355 640.019 250.449 640.616 250.637 641.144C250.824 641.665 251.105 642.078 251.48 642.383C251.861 642.682 252.33 642.831 252.887 642.831ZM258.468 644V642.893L259.9 642.646V635.853L258.468 635.606V634.49H261.447L261.57 635.905C261.887 635.401 262.282 635.012 262.757 634.736C263.237 634.455 263.782 634.314 264.392 634.314C265.417 634.314 266.211 634.616 266.773 635.22C267.336 635.817 267.617 636.743 267.617 637.997V642.646L269.05 642.893V644H264.453V642.893L265.886 642.646V638.032C265.886 637.194 265.719 636.6 265.385 636.248C265.057 635.896 264.553 635.721 263.873 635.721C263.375 635.721 262.933 635.841 262.546 636.081C262.165 636.321 261.86 636.649 261.632 637.065V642.646L263.064 642.893V644H258.468Z" fill="#979797"/>
</g>
<path d="M44.0703 141V137.678L46.7598 137.133V119.291L44.0703 118.746V115.406H46.7598H55.2324L61.8242 132.773H61.9297L68.3457 115.406H79.4375V118.746L76.7305 119.291V137.133L79.4375 137.678V141H68.4336V137.678L71.2461 137.133V132.967L71.3516 121.189L71.2461 121.172L63.793 140.824H59.4512L51.8574 121.365L51.7344 121.383L52.1035 132.299V137.133L55.0918 137.678V141H44.0703ZM90.3535 141.369C88.5137 141.369 86.9082 140.971 85.5371 140.174C84.166 139.365 83.0996 138.264 82.3379 136.869C81.5879 135.463 81.2129 133.869 81.2129 132.088V131.402C81.2129 129.504 81.5586 127.816 82.25 126.34C82.9414 124.863 83.9375 123.709 85.2383 122.877C86.5391 122.033 88.0977 121.617 89.9141 121.629C91.6367 121.629 93.0898 121.963 94.2734 122.631C95.457 123.299 96.3535 124.277 96.9629 125.566C97.584 126.844 97.8945 128.402 97.8945 130.242V133.23H87.0488L87.0312 133.336C87.1016 134.062 87.3008 134.707 87.6289 135.27C87.9688 135.82 88.4316 136.26 89.0176 136.588C89.6152 136.916 90.3418 137.08 91.1973 137.08C92.0762 137.08 92.9082 136.975 93.6934 136.764C94.4902 136.553 95.293 136.225 96.1016 135.779L97.5078 139.207C96.6875 139.828 95.668 140.344 94.4492 140.754C93.2422 141.164 91.877 141.369 90.3535 141.369ZM87.0664 129.627H92.6914V129.17C92.6914 128.443 92.6035 127.828 92.4277 127.324C92.2637 126.809 91.9824 126.416 91.584 126.146C91.1973 125.877 90.6816 125.742 90.0371 125.742C89.3809 125.742 88.8418 125.906 88.4199 126.234C87.998 126.562 87.6758 127.014 87.4531 127.588C87.2422 128.162 87.0957 128.812 87.0137 129.539L87.0664 129.627ZM99.916 141V137.678L102.271 137.133V125.865L99.582 125.32V121.98H107.545L107.773 124.67C108.406 123.709 109.186 122.965 110.111 122.438C111.037 121.898 112.092 121.629 113.275 121.629C115.104 121.629 116.545 122.232 117.6 123.439C118.654 124.646 119.182 126.551 119.182 129.152V137.133L121.52 137.678V141H111.518V137.678L113.539 137.133V129.152C113.539 128.004 113.305 127.189 112.836 126.709C112.379 126.217 111.711 125.971 110.832 125.971C110.176 125.971 109.602 126.105 109.109 126.375C108.629 126.633 108.225 127.008 107.896 127.5V137.133L109.725 137.678V141H99.916ZM130.15 141.369C128.17 141.369 126.611 140.742 125.475 139.488C124.338 138.223 123.77 136.271 123.77 133.635V125.865L121.713 125.32V121.98H123.77H129.395V133.67C129.395 134.818 129.611 135.668 130.045 136.219C130.479 136.758 131.141 137.027 132.031 137.027C132.641 137.027 133.203 136.91 133.719 136.676C134.246 136.441 134.691 136.096 135.055 135.639V125.865L132.893 125.32V121.98H135.055H140.68V137.133L143.018 137.678V141H135.775L135.406 138.715C134.797 139.57 134.047 140.227 133.156 140.684C132.277 141.141 131.275 141.369 130.15 141.369Z" fill="black"/>
<path d="M171.082 514V512.893L172.515 512.646V502.565L171.082 502.319V501.203H172.515H176.092C177.223 501.203 178.207 501.473 179.045 502.012C179.889 502.551 180.545 503.292 181.014 504.235C181.482 505.179 181.717 506.257 181.717 507.47V507.742C181.717 508.926 181.491 509.992 181.04 510.941C180.589 511.885 179.947 512.632 179.115 513.183C178.289 513.728 177.311 514 176.18 514H171.082ZM174.246 512.646H176.092C176.9 512.646 177.595 512.427 178.175 511.987C178.755 511.542 179.2 510.95 179.511 510.212C179.827 509.468 179.985 508.645 179.985 507.742V507.452C179.985 506.521 179.827 505.688 179.511 504.956C179.2 504.218 178.755 503.635 178.175 503.207C177.595 502.779 176.9 502.565 176.092 502.565H174.246V512.646ZM187.271 514.185C186.393 514.185 185.628 513.985 184.978 513.587C184.327 513.183 183.823 512.623 183.466 511.908C183.114 511.193 182.938 510.367 182.938 509.43V509.043C182.938 508.141 183.123 507.335 183.492 506.626C183.867 505.911 184.362 505.349 184.978 504.938C185.599 504.522 186.275 504.314 187.008 504.314C187.863 504.314 188.578 504.49 189.152 504.842C189.732 505.193 190.169 505.688 190.462 506.327C190.755 506.96 190.901 507.707 190.901 508.568V509.649H184.731L184.705 509.693C184.717 510.303 184.822 510.845 185.021 511.319C185.227 511.788 185.52 512.157 185.9 512.427C186.281 512.696 186.738 512.831 187.271 512.831C187.857 512.831 188.37 512.749 188.81 512.585C189.255 512.415 189.639 512.184 189.961 511.891L190.638 513.016C190.298 513.344 189.847 513.622 189.284 513.851C188.728 514.073 188.057 514.185 187.271 514.185ZM184.784 508.296H189.17V508.067C189.17 507.61 189.088 507.203 188.924 506.846C188.766 506.482 188.525 506.198 188.203 505.993C187.887 505.782 187.488 505.677 187.008 505.677C186.621 505.677 186.27 505.791 185.953 506.02C185.637 506.242 185.376 506.547 185.171 506.934C184.966 507.32 184.831 507.76 184.767 508.252L184.784 508.296ZM196.157 514.185C195.519 514.185 194.921 514.12 194.364 513.991C193.808 513.862 193.216 513.663 192.589 513.394L192.571 511.135H193.881L194.206 512.497C194.534 512.632 194.851 512.731 195.155 512.796C195.466 512.854 195.8 512.884 196.157 512.884C196.86 512.884 197.364 512.749 197.669 512.479C197.974 512.21 198.126 511.876 198.126 511.478C198.126 511.103 197.971 510.786 197.66 510.528C197.355 510.265 196.799 510.042 195.99 509.86C194.842 509.597 193.995 509.245 193.45 508.806C192.911 508.36 192.642 507.769 192.642 507.03C192.642 506.515 192.791 506.055 193.09 505.65C193.389 505.24 193.805 504.915 194.338 504.675C194.871 504.435 195.492 504.314 196.201 504.314C196.922 504.314 197.537 504.396 198.047 504.561C198.562 504.725 199.011 504.944 199.392 505.22L199.479 507.391H198.179L197.897 506.125C197.692 505.973 197.449 505.855 197.168 505.773C196.887 505.691 196.564 505.65 196.201 505.65C195.662 505.65 195.223 505.776 194.883 506.028C194.549 506.28 194.382 506.597 194.382 506.978C194.382 507.2 194.429 507.394 194.522 507.558C194.622 507.722 194.81 507.871 195.085 508.006C195.36 508.135 195.765 508.264 196.298 508.393C197.622 508.703 198.545 509.099 199.066 509.579C199.594 510.06 199.857 510.651 199.857 511.354C199.857 512.157 199.559 512.831 198.961 513.376C198.369 513.915 197.435 514.185 196.157 514.185ZM205.588 514.185C204.727 514.185 203.977 513.985 203.338 513.587C202.699 513.183 202.204 512.623 201.853 511.908C201.501 511.193 201.325 510.367 201.325 509.43V509.061C201.325 508.158 201.495 507.35 201.835 506.635C202.175 505.92 202.664 505.354 203.303 504.938C203.941 504.522 204.703 504.314 205.588 504.314C206.355 504.314 207.026 504.44 207.601 504.692C208.181 504.944 208.667 505.29 209.06 505.729L209.104 508.015H207.75L207.451 506.354C207.252 506.148 207.003 505.984 206.704 505.861C206.405 505.738 206.054 505.677 205.649 505.677C205.134 505.677 204.68 505.829 204.287 506.134C203.9 506.438 203.599 506.846 203.382 507.355C203.165 507.865 203.057 508.434 203.057 509.061V509.43C203.057 510.121 203.156 510.722 203.355 511.231C203.561 511.741 203.851 512.137 204.226 512.418C204.606 512.693 205.058 512.831 205.579 512.831C206.165 512.831 206.651 512.67 207.038 512.348C207.425 512.025 207.662 511.583 207.75 511.021H209.306L209.323 511.073C209.294 511.618 209.133 512.128 208.84 512.603C208.547 513.077 208.128 513.461 207.583 513.754C207.044 514.041 206.379 514.185 205.588 514.185ZM210.659 514V512.893L212.092 512.646V505.853L210.659 505.606V504.49H213.639L213.788 505.703L213.806 505.87C214.075 505.384 214.406 505.003 214.799 504.728C215.197 504.452 215.651 504.314 216.161 504.314C216.343 504.314 216.527 504.332 216.715 504.367C216.908 504.396 217.046 504.426 217.128 504.455L216.899 506.063L215.695 505.993C215.238 505.964 214.854 506.069 214.544 506.31C214.233 506.544 213.993 506.86 213.823 507.259V512.646L215.256 512.893V514H210.659ZM218.121 514V512.893L219.554 512.646V505.853L218.121 505.606V504.49H221.285V512.646L222.718 512.893V514H218.121ZM219.466 502.144V500.289H221.285V502.144H219.466ZM223.649 517.656V516.54L224.994 516.294V505.853L223.562 505.606V504.49H226.479L226.638 505.65C226.954 505.217 227.338 504.886 227.789 504.657C228.246 504.429 228.773 504.314 229.371 504.314C230.156 504.314 230.827 504.528 231.384 504.956C231.94 505.378 232.365 505.973 232.658 506.74C232.951 507.502 233.098 508.396 233.098 509.421V509.605C233.098 510.52 232.948 511.319 232.649 512.005C232.356 512.69 231.935 513.227 231.384 513.613C230.833 513.994 230.171 514.185 229.397 514.185C228.812 514.185 228.296 514.088 227.851 513.895C227.411 513.695 227.036 513.402 226.726 513.016V516.294L228.237 516.54V517.656H223.649ZM228.861 512.831C229.682 512.831 230.303 512.532 230.725 511.935C231.146 511.337 231.357 510.561 231.357 509.605V509.421C231.357 508.694 231.264 508.056 231.076 507.505C230.889 506.948 230.607 506.512 230.232 506.195C229.863 505.879 229.4 505.721 228.844 505.721C228.352 505.721 227.93 505.832 227.578 506.055C227.227 506.277 226.942 506.582 226.726 506.969V511.601C226.942 511.993 227.224 512.298 227.569 512.515C227.921 512.726 228.352 512.831 228.861 512.831ZM237.8 514.149C237.097 514.149 236.537 513.944 236.121 513.534C235.711 513.118 235.506 512.456 235.506 511.548V505.773H234.003V504.49H235.506V502.196H237.237V504.49H239.303V505.773H237.237V511.548C237.237 512.005 237.328 512.342 237.51 512.559C237.691 512.775 237.935 512.884 238.239 512.884C238.444 512.884 238.673 512.866 238.925 512.831C239.177 512.79 239.373 512.755 239.514 512.726L239.751 513.859C239.499 513.936 239.188 514.003 238.819 514.062C238.456 514.12 238.116 514.149 237.8 514.149ZM240.797 514V512.893L242.229 512.646V505.853L240.797 505.606V504.49H243.961V512.646L245.394 512.893V514H240.797ZM242.142 502.144V500.289H243.961V502.144H242.142ZM250.887 514.185C250.008 514.185 249.249 513.979 248.61 513.569C247.978 513.153 247.488 512.582 247.143 511.855C246.797 511.123 246.624 510.288 246.624 509.351V509.157C246.624 508.22 246.797 507.388 247.143 506.661C247.488 505.929 247.978 505.354 248.61 504.938C249.249 504.522 250.002 504.314 250.869 504.314C251.748 504.314 252.504 504.522 253.137 504.938C253.775 505.354 254.268 505.926 254.613 506.652C254.959 507.379 255.132 508.214 255.132 509.157V509.351C255.132 510.294 254.959 511.132 254.613 511.864C254.268 512.591 253.778 513.159 253.146 513.569C252.513 513.979 251.76 514.185 250.887 514.185ZM250.887 512.831C251.438 512.831 251.897 512.682 252.267 512.383C252.642 512.078 252.923 511.665 253.11 511.144C253.304 510.616 253.4 510.019 253.4 509.351V509.157C253.4 508.489 253.304 507.895 253.11 507.373C252.923 506.846 252.642 506.433 252.267 506.134C251.892 505.829 251.426 505.677 250.869 505.677C250.318 505.677 249.855 505.829 249.48 506.134C249.105 506.433 248.824 506.846 248.637 507.373C248.449 507.895 248.355 508.489 248.355 509.157V509.351C248.355 510.019 248.449 510.616 248.637 511.144C248.824 511.665 249.105 512.078 249.48 512.383C249.861 512.682 250.33 512.831 250.887 512.831ZM256.468 514V512.893L257.9 512.646V505.853L256.468 505.606V504.49H259.447L259.57 505.905C259.887 505.401 260.282 505.012 260.757 504.736C261.237 504.455 261.782 504.314 262.392 504.314C263.417 504.314 264.211 504.616 264.773 505.22C265.336 505.817 265.617 506.743 265.617 507.997V512.646L267.05 512.893V514H262.453V512.893L263.886 512.646V508.032C263.886 507.194 263.719 506.6 263.385 506.248C263.057 505.896 262.553 505.721 261.873 505.721C261.375 505.721 260.933 505.841 260.546 506.081C260.165 506.321 259.86 506.649 259.632 507.065V512.646L261.064 512.893V514H256.468Z" fill="#979797"/>
<defs>
<filter id="filter0_d_8_20" x="1011" y="566" width="249" height="66" filterUnits="userSpaceOnUse" color-interpolation-filters="sRGB">
<feFlood flood-opacity="0" result="BackgroundImageFix"/>
<feColorMatrix in="SourceAlpha" type="matrix" values="0 0 0 0 0 0 0 0 0 0 0 0 0 0 0 0 0 0 127 0" result="hardAlpha"/>
<feOffset dy="4"/>
<feGaussianBlur stdDeviation="2"/>
<feComposite in2="hardAlpha" operator="out"/>
<feColorMatrix type="matrix" values="0 0 0 0 0 0 0 0 0 0 0 0 0 0 0 0 0 0 0.25 0"/>
<feBlend mode="normal" in2="BackgroundImageFix" result="effect1_dropShadow_8_20"/>
<feBlend mode="normal" in="SourceGraphic" in2="effect1_dropShadow_8_20" result="shape"/>
</filter>
<filter id="filter1_d_8_20" x="1011" y="644" width="249" height="66" filterUnits="userSpaceOnUse" color-interpolation-filters="sRGB">
<feFlood flood-opacity="0" result="BackgroundImageFix"/>
<feColorMatrix in="SourceAlpha" type="matrix" values="0 0 0 0 0 0 0 0 0 0 0 0 0 0 0 0 0 0 127 0" result="hardAlpha"/>
<feOffset dy="4"/>
<feGaussianBlur stdDeviation="2"/>
<feComposite in2="hardAlpha" operator="out"/>
<feColorMatrix type="matrix" values="0 0 0 0 0 0 0 0 0 0 0 0 0 0 0 0 0 0 0.25 0"/>
<feBlend mode="normal" in2="BackgroundImageFix" result="effect1_dropShadow_8_20"/>
<feBlend mode="normal" in="SourceGraphic" in2="effect1_dropShadow_8_20" result="shape"/>
</filter>
<filter id="filter2_d_8_20" x="31" y="165" width="902" height="522" filterUnits="userSpaceOnUse" color-interpolation-filters="sRGB">
<feFlood flood-opacity="0" result="BackgroundImageFix"/>
<feColorMatrix in="SourceAlpha" type="matrix" values="0 0 0 0 0 0 0 0 0 0 0 0 0 0 0 0 0 0 127 0" result="hardAlpha"/>
<feOffset dy="4"/>
<feGaussianBlur stdDeviation="8"/>
<feComposite in2="hardAlpha" operator="out"/>
<feColorMatrix type="matrix" values="0 0 0 0 0 0 0 0 0 0 0 0 0 0 0 0 0 0 0.25 0"/>
<feBlend mode="normal" in2="BackgroundImageFix" result="effect1_dropShadow_8_20"/>
<feBlend mode="normal" in="SourceGraphic" in2="effect1_dropShadow_8_20" result="shape"/>
</filter>
</defs>
</svg>
