<svg width="1280" height="720" viewBox="0 0 1280 720" fill="none" xmlns="http://www.w3.org/2000/svg">
<rect width="1280" height="720" fill="white"/>
<rect width="1280" height="64" fill="#C4C4C4"/>
<path d="M18.75 41.5H47.25V38.3333H18.75V41.5ZM18.75 33.5833H47.25V30.4167H18.75V33.5833ZM18.75 22.5V25.6667H47.25V22.5H18.75Z" fill="black"/>
<path d="M1247 16.1666C1238.26 16.1666 1231.17 23.26 1231.17 32C1231.17 40.74 1238.26 47.8333 1247 47.8333C1255.74 47.8333 1262.83 40.74 1262.83 32C1262.83 23.26 1255.74 16.1666 1247 16.1666ZM1239.19 41.9433C1239.87 40.5183 1244.02 39.125 1247 39.125C1249.98 39.125 1254.14 40.5183 1254.81 41.9433C1252.65 43.6533 1249.94 44.6666 1247 44.6666C1244.05 44.6666 1241.35 43.6533 1239.19 41.9433ZM1257.07 39.6475C1254.81 36.8925 1249.31 35.9583 1247 35.9583C1244.69 35.9583 1239.19 36.8925 1236.93 39.6475C1235.31 37.5258 1234.33 34.8816 1234.33 32C1234.33 25.0175 1240.02 19.3333 1247 19.3333C1253.98 19.3333 1259.67 25.0175 1259.67 32C1259.67 34.8816 1258.68 37.5258 1257.07 39.6475ZM1247 22.5C1243.93 22.5 1241.46 24.97 1241.46 28.0416C1241.46 31.1133 1243.93 33.5833 1247 33.5833C1250.07 33.5833 1252.54 31.1133 1252.54 28.0416C1252.54 24.97 1250.07 22.5 1247 22.5ZM1247 30.4166C1245.69 30.4166 1244.62 29.3558 1244.62 28.0416C1244.62 26.7275 1245.69 25.6666 1247 25.6666C1248.31 25.6666 1249.37 26.7275 1249.37 28.0416C1249.37 29.3558 1248.31 30.4166 1247 30.4166Z" fill="black"/>
<path d="M241.949 191V189.523L243.859 189.195V175.754L241.949 175.426V173.938H254.582V178.039H252.73L252.473 175.719H246.168V181.273H252.461V183.09H246.168V189.266H252.848L253.105 186.91H254.945V191H241.949ZM257.172 191V189.523L259.082 189.195V180.137L257.172 179.809V178.32H261.145L261.309 180.207C261.73 179.535 262.258 179.016 262.891 178.648C263.531 178.273 264.258 178.086 265.07 178.086C266.438 178.086 267.496 178.488 268.246 179.293C268.996 180.09 269.371 181.324 269.371 182.996V189.195L271.281 189.523V191H265.152V189.523L267.062 189.195V183.043C267.062 181.926 266.84 181.133 266.395 180.664C265.957 180.195 265.285 179.961 264.379 179.961C263.715 179.961 263.125 180.121 262.609 180.441C262.102 180.762 261.695 181.199 261.391 181.754V189.195L263.301 189.523V191H257.172ZM277.023 191.246C275.703 191.246 274.699 190.926 274.012 190.285C273.324 189.637 272.98 188.727 272.98 187.555C272.98 186.75 273.199 186.051 273.637 185.457C274.082 184.855 274.723 184.391 275.559 184.062C276.395 183.727 277.395 183.559 278.559 183.559H280.82V182.316C280.82 181.551 280.586 180.957 280.117 180.535C279.656 180.113 279.004 179.902 278.16 179.902C277.629 179.902 277.168 179.969 276.777 180.102C276.387 180.227 276.031 180.402 275.711 180.629L275.465 182.398H273.684V179.492C274.254 179.031 274.918 178.684 275.676 178.449C276.434 178.207 277.273 178.086 278.195 178.086C279.734 178.086 280.941 178.453 281.816 179.188C282.691 179.922 283.129 180.973 283.129 182.34V188.445C283.129 188.609 283.129 188.77 283.129 188.926C283.137 189.082 283.148 189.238 283.164 189.395L284.395 189.523V191H281.078C281.008 190.656 280.953 190.348 280.914 190.074C280.875 189.801 280.848 189.527 280.832 189.254C280.387 189.824 279.828 190.301 279.156 190.684C278.492 191.059 277.781 191.246 277.023 191.246ZM277.363 189.312C278.129 189.312 278.828 189.129 279.461 188.762C280.094 188.395 280.547 187.953 280.82 187.438V185.141H278.477C277.414 185.141 276.617 185.395 276.086 185.902C275.555 186.41 275.289 186.977 275.289 187.602C275.289 188.156 275.461 188.582 275.805 188.879C276.148 189.168 276.668 189.312 277.363 189.312ZM292.926 191.246C292.098 191.246 291.379 191.09 290.77 190.777C290.16 190.457 289.652 189.988 289.246 189.371L289.035 191H287.043V174.535L285.133 174.207V172.719H289.352V179.82C289.75 179.258 290.242 178.828 290.828 178.531C291.422 178.234 292.113 178.086 292.902 178.086C293.949 178.086 294.84 178.371 295.574 178.941C296.316 179.504 296.883 180.297 297.273 181.32C297.672 182.344 297.871 183.535 297.871 184.895V185.141C297.871 186.359 297.672 187.426 297.273 188.34C296.883 189.254 296.316 189.969 295.574 190.484C294.84 190.992 293.957 191.246 292.926 191.246ZM292.34 189.371C293.426 189.371 294.23 188.984 294.754 188.211C295.285 187.438 295.551 186.414 295.551 185.141V184.895C295.551 183.918 295.434 183.062 295.199 182.328C294.965 181.586 294.609 181.008 294.133 180.594C293.656 180.172 293.051 179.961 292.316 179.961C291.605 179.961 291.004 180.133 290.512 180.477C290.027 180.82 289.641 181.281 289.352 181.859V187.461C289.641 188.047 290.031 188.512 290.523 188.855C291.023 189.199 291.629 189.371 292.34 189.371ZM299.383 191V189.523L301.293 189.195V174.535L299.383 174.207V172.719H303.602V189.195L305.512 189.523V191H299.383ZM312.707 191.246C311.535 191.246 310.516 190.98 309.648 190.449C308.781 189.91 308.109 189.164 307.633 188.211C307.164 187.258 306.93 186.156 306.93 184.906V184.391C306.93 183.188 307.176 182.113 307.668 181.168C308.168 180.215 308.828 179.465 309.648 178.918C310.477 178.363 311.379 178.086 312.355 178.086C313.496 178.086 314.449 178.32 315.215 178.789C315.988 179.258 316.57 179.918 316.961 180.77C317.352 181.613 317.547 182.609 317.547 183.758V185.199H309.32L309.285 185.258C309.301 186.07 309.441 186.793 309.707 187.426C309.98 188.051 310.371 188.543 310.879 188.902C311.387 189.262 311.996 189.441 312.707 189.441C313.488 189.441 314.172 189.332 314.758 189.113C315.352 188.887 315.863 188.578 316.293 188.188L317.195 189.688C316.742 190.125 316.141 190.496 315.391 190.801C314.648 191.098 313.754 191.246 312.707 191.246ZM309.391 183.395H315.238V183.09C315.238 182.48 315.129 181.938 314.91 181.461C314.699 180.977 314.379 180.598 313.949 180.324C313.527 180.043 312.996 179.902 312.355 179.902C311.84 179.902 311.371 180.055 310.949 180.359C310.527 180.656 310.18 181.062 309.906 181.578C309.633 182.094 309.453 182.68 309.367 183.336L309.391 183.395ZM325.41 191V189.523L327.32 189.195V175.754L325.41 175.426V173.938H327.32H332.09C333.598 173.938 334.91 174.297 336.027 175.016C337.152 175.734 338.027 176.723 338.652 177.98C339.277 179.238 339.59 180.676 339.59 182.293V182.656C339.59 184.234 339.289 185.656 338.688 186.922C338.086 188.18 337.23 189.176 336.121 189.91C335.02 190.637 333.715 191 332.207 191H325.41ZM329.629 189.195H332.09C333.168 189.195 334.094 188.902 334.867 188.316C335.641 187.723 336.234 186.934 336.648 185.949C337.07 184.957 337.281 183.859 337.281 182.656V182.27C337.281 181.027 337.07 179.918 336.648 178.941C336.234 177.957 335.641 177.18 334.867 176.609C334.094 176.039 333.168 175.754 332.09 175.754H329.629V189.195ZM345.32 191.246C344 191.246 342.996 190.926 342.309 190.285C341.621 189.637 341.277 188.727 341.277 187.555C341.277 186.75 341.496 186.051 341.934 185.457C342.379 184.855 343.02 184.391 343.855 184.062C344.691 183.727 345.691 183.559 346.855 183.559H349.117V182.316C349.117 181.551 348.883 180.957 348.414 180.535C347.953 180.113 347.301 179.902 346.457 179.902C345.926 179.902 345.465 179.969 345.074 180.102C344.684 180.227 344.328 180.402 344.008 180.629L343.762 182.398H341.98V179.492C342.551 179.031 343.215 178.684 343.973 178.449C344.73 178.207 345.57 178.086 346.492 178.086C348.031 178.086 349.238 178.453 350.113 179.188C350.988 179.922 351.426 180.973 351.426 182.34V188.445C351.426 188.609 351.426 188.77 351.426 188.926C351.434 189.082 351.445 189.238 351.461 189.395L352.691 189.523V191H349.375C349.305 190.656 349.25 190.348 349.211 190.074C349.172 189.801 349.145 189.527 349.129 189.254C348.684 189.824 348.125 190.301 347.453 190.684C346.789 191.059 346.078 191.246 345.32 191.246ZM345.66 189.312C346.426 189.312 347.125 189.129 347.758 188.762C348.391 188.395 348.844 187.953 349.117 187.438V185.141H346.773C345.711 185.141 344.914 185.395 344.383 185.902C343.852 186.41 343.586 186.977 343.586 187.602C343.586 188.156 343.758 188.582 344.102 188.879C344.445 189.168 344.965 189.312 345.66 189.312ZM354.461 191V189.523L356.371 189.195V180.137L354.461 179.809V178.32H358.434L358.633 179.938L358.656 180.16C359.016 179.512 359.457 179.004 359.98 178.637C360.512 178.27 361.117 178.086 361.797 178.086C362.039 178.086 362.285 178.109 362.535 178.156C362.793 178.195 362.977 178.234 363.086 178.273L362.781 180.418L361.176 180.324C360.566 180.285 360.055 180.426 359.641 180.746C359.227 181.059 358.906 181.48 358.68 182.012V189.195L360.59 189.523V191H354.461ZM364.141 191V189.523L366.051 189.195V174.535L364.141 174.207V172.719H368.359V189.195L370.27 189.523V191H364.141ZM372.285 191V189.523L373.574 189.371L373.539 189.324L369.871 184.59L371.066 182.75L376.188 189.242L378.016 189.523V191H372.285ZM368.195 187.332L367.34 185.516L372.848 180.031L372.906 179.961L371.547 179.809V178.32H377.008V179.809L375.379 180.113L368.195 187.332ZM385.562 191V189.523L387.473 189.195V175.754L385.562 175.426V173.938H387.473H390.555L396.051 186.887H396.121L401.441 173.938H406.586V175.426L404.676 175.754V189.195L406.586 189.523V191H400.457V189.523L402.473 189.195V184.25V177.09L402.414 177.078L396.871 190.391H395.336L389.605 177.102L389.547 177.113L389.629 184.25V189.195L391.691 189.523V191H385.562ZM414.285 191.246C413.113 191.246 412.102 190.973 411.25 190.426C410.406 189.871 409.754 189.109 409.293 188.141C408.832 187.164 408.602 186.051 408.602 184.801V184.543C408.602 183.293 408.832 182.184 409.293 181.215C409.754 180.238 410.406 179.473 411.25 178.918C412.102 178.363 413.105 178.086 414.262 178.086C415.434 178.086 416.441 178.363 417.285 178.918C418.137 179.473 418.793 180.234 419.254 181.203C419.715 182.172 419.945 183.285 419.945 184.543V184.801C419.945 186.059 419.715 187.176 419.254 188.152C418.793 189.121 418.141 189.879 417.297 190.426C416.453 190.973 415.449 191.246 414.285 191.246ZM414.285 189.441C415.02 189.441 415.633 189.242 416.125 188.844C416.625 188.438 417 187.887 417.25 187.191C417.508 186.488 417.637 185.691 417.637 184.801V184.543C417.637 183.652 417.508 182.859 417.25 182.164C417 181.461 416.625 180.91 416.125 180.512C415.625 180.105 415.004 179.902 414.262 179.902C413.527 179.902 412.91 180.105 412.41 180.512C411.91 180.91 411.535 181.461 411.285 182.164C411.035 182.859 410.91 183.652 410.91 184.543V184.801C410.91 185.691 411.035 186.488 411.285 187.191C411.535 187.887 411.91 188.438 412.41 188.844C412.918 189.242 413.543 189.441 414.285 189.441ZM427.129 191.246C426.098 191.246 425.211 190.992 424.469 190.484C423.734 189.969 423.172 189.254 422.781 188.34C422.391 187.426 422.195 186.359 422.195 185.141V184.895C422.195 183.535 422.391 182.344 422.781 181.32C423.172 180.297 423.738 179.504 424.48 178.941C425.223 178.371 426.113 178.086 427.152 178.086C427.902 178.086 428.562 178.227 429.133 178.508C429.711 178.781 430.203 179.18 430.609 179.703V174.535L428.699 174.207V172.719H430.609H432.918V189.195L434.828 189.523V191H430.914L430.727 189.488C430.312 190.066 429.805 190.504 429.203 190.801C428.609 191.098 427.918 191.246 427.129 191.246ZM427.715 189.371C428.402 189.371 428.98 189.215 429.449 188.902C429.918 188.59 430.305 188.148 430.609 187.578V181.695C430.312 181.164 429.926 180.742 429.449 180.43C428.973 180.117 428.402 179.961 427.738 179.961C427.004 179.961 426.398 180.172 425.922 180.594C425.445 181.008 425.09 181.586 424.855 182.328C424.621 183.062 424.504 183.918 424.504 184.895V185.141C424.504 186.414 424.766 187.438 425.289 188.211C425.812 188.984 426.621 189.371 427.715 189.371ZM442.129 191.246C440.957 191.246 439.938 190.98 439.07 190.449C438.203 189.91 437.531 189.164 437.055 188.211C436.586 187.258 436.352 186.156 436.352 184.906V184.391C436.352 183.188 436.598 182.113 437.09 181.168C437.59 180.215 438.25 179.465 439.07 178.918C439.898 178.363 440.801 178.086 441.777 178.086C442.918 178.086 443.871 178.32 444.637 178.789C445.41 179.258 445.992 179.918 446.383 180.77C446.773 181.613 446.969 182.609 446.969 183.758V185.199H438.742L438.707 185.258C438.723 186.07 438.863 186.793 439.129 187.426C439.402 188.051 439.793 188.543 440.301 188.902C440.809 189.262 441.418 189.441 442.129 189.441C442.91 189.441 443.594 189.332 444.18 189.113C444.773 188.887 445.285 188.578 445.715 188.188L446.617 189.688C446.164 190.125 445.562 190.496 444.812 190.801C444.07 191.098 443.176 191.246 442.129 191.246ZM438.812 183.395H444.66V183.09C444.66 182.48 444.551 181.938 444.332 181.461C444.121 180.977 443.801 180.598 443.371 180.324C442.949 180.043 442.418 179.902 441.777 179.902C441.262 179.902 440.793 180.055 440.371 180.359C439.949 180.656 439.602 181.062 439.328 181.578C439.055 182.094 438.875 182.68 438.789 183.336L438.812 183.395Z" fill="black"/>
<path d="M241.949 294V292.523L243.859 292.195V278.754L241.949 278.426V276.938H243.859H246.168H248.078V278.426L246.168 278.754V292.23H252.203L252.473 289.535H254.242V294H241.949ZM260.383 294.246C259.062 294.246 258.059 293.926 257.371 293.285C256.684 292.637 256.34 291.727 256.34 290.555C256.34 289.75 256.559 289.051 256.996 288.457C257.441 287.855 258.082 287.391 258.918 287.062C259.754 286.727 260.754 286.559 261.918 286.559H264.18V285.316C264.18 284.551 263.945 283.957 263.477 283.535C263.016 283.113 262.363 282.902 261.52 282.902C260.988 282.902 260.527 282.969 260.137 283.102C259.746 283.227 259.391 283.402 259.07 283.629L258.824 285.398H257.043V282.492C257.613 282.031 258.277 281.684 259.035 281.449C259.793 281.207 260.633 281.086 261.555 281.086C263.094 281.086 264.301 281.453 265.176 282.188C266.051 282.922 266.488 283.973 266.488 285.34V291.445C266.488 291.609 266.488 291.77 266.488 291.926C266.496 292.082 266.508 292.238 266.523 292.395L267.754 292.523V294H264.438C264.367 293.656 264.312 293.348 264.273 293.074C264.234 292.801 264.207 292.527 264.191 292.254C263.746 292.824 263.188 293.301 262.516 293.684C261.852 294.059 261.141 294.246 260.383 294.246ZM260.723 292.312C261.488 292.312 262.188 292.129 262.82 291.762C263.453 291.395 263.906 290.953 264.18 290.438V288.141H261.836C260.773 288.141 259.977 288.395 259.445 288.902C258.914 289.41 258.648 289.977 258.648 290.602C258.648 291.156 258.82 291.582 259.164 291.879C259.508 292.168 260.027 292.312 260.723 292.312ZM269.547 294V292.523L271.457 292.195V283.137L269.547 282.809V281.32H273.52L273.684 283.207C274.105 282.535 274.633 282.016 275.266 281.648C275.906 281.273 276.633 281.086 277.445 281.086C278.812 281.086 279.871 281.488 280.621 282.293C281.371 283.09 281.746 284.324 281.746 285.996V292.195L283.656 292.523V294H277.527V292.523L279.438 292.195V286.043C279.438 284.926 279.215 284.133 278.77 283.664C278.332 283.195 277.66 282.961 276.754 282.961C276.09 282.961 275.5 283.121 274.984 283.441C274.477 283.762 274.07 284.199 273.766 284.754V292.195L275.676 292.523V294H269.547ZM290.746 299.121C290.137 299.121 289.477 299.035 288.766 298.863C288.055 298.699 287.43 298.473 286.891 298.184L287.488 296.391C287.918 296.617 288.426 296.805 289.012 296.953C289.598 297.102 290.168 297.176 290.723 297.176C291.754 297.176 292.508 296.887 292.984 296.309C293.469 295.73 293.711 294.906 293.711 293.836V292.629C293.297 293.16 292.801 293.562 292.223 293.836C291.645 294.109 290.98 294.246 290.23 294.246C289.199 294.246 288.309 293.992 287.559 293.484C286.809 292.969 286.23 292.254 285.824 291.34C285.426 290.418 285.227 289.352 285.227 288.141V287.895C285.227 286.535 285.426 285.344 285.824 284.32C286.23 283.297 286.809 282.504 287.559 281.941C288.309 281.371 289.207 281.086 290.254 281.086C291.051 281.086 291.75 281.242 292.352 281.555C292.953 281.867 293.457 282.32 293.863 282.914L294.074 281.32H296.02V293.836C296.02 294.93 295.812 295.871 295.398 296.66C294.992 297.449 294.395 298.055 293.605 298.477C292.824 298.906 291.871 299.121 290.746 299.121ZM290.805 292.371C291.5 292.371 292.082 292.215 292.551 291.902C293.02 291.582 293.406 291.133 293.711 290.555V284.719C293.414 284.18 293.027 283.754 292.551 283.441C292.074 283.121 291.5 282.961 290.828 282.961C290.094 282.961 289.48 283.172 288.988 283.594C288.504 284.016 288.141 284.598 287.898 285.34C287.656 286.074 287.535 286.926 287.535 287.895V288.141C287.535 289.414 287.805 290.438 288.344 291.211C288.883 291.984 289.703 292.371 290.805 292.371ZM295.668 283.207L294.766 281.32H297.59V282.797L295.668 283.207ZM304.328 294.246C302.953 294.246 301.879 293.805 301.105 292.922C300.332 292.039 299.945 290.664 299.945 288.797V283.137L298.492 282.809V281.32H299.945H302.254V288.82C302.254 290.172 302.453 291.102 302.852 291.609C303.25 292.117 303.871 292.371 304.715 292.371C305.535 292.371 306.211 292.207 306.742 291.879C307.281 291.543 307.688 291.07 307.961 290.461V283.137L306.262 282.809V281.32H307.961H310.27V292.195L311.723 292.523V294H308.195L308.043 292.125C307.645 292.805 307.129 293.328 306.496 293.695C305.871 294.062 305.148 294.246 304.328 294.246ZM317.453 294.246C316.133 294.246 315.129 293.926 314.441 293.285C313.754 292.637 313.41 291.727 313.41 290.555C313.41 289.75 313.629 289.051 314.066 288.457C314.512 287.855 315.152 287.391 315.988 287.062C316.824 286.727 317.824 286.559 318.988 286.559H321.25V285.316C321.25 284.551 321.016 283.957 320.547 283.535C320.086 283.113 319.434 282.902 318.59 282.902C318.059 282.902 317.598 282.969 317.207 283.102C316.816 283.227 316.461 283.402 316.141 283.629L315.895 285.398H314.113V282.492C314.684 282.031 315.348 281.684 316.105 281.449C316.863 281.207 317.703 281.086 318.625 281.086C320.164 281.086 321.371 281.453 322.246 282.188C323.121 282.922 323.559 283.973 323.559 285.34V291.445C323.559 291.609 323.559 291.77 323.559 291.926C323.566 292.082 323.578 292.238 323.594 292.395L324.824 292.523V294H321.508C321.438 293.656 321.383 293.348 321.344 293.074C321.305 292.801 321.277 292.527 321.262 292.254C320.816 292.824 320.258 293.301 319.586 293.684C318.922 294.059 318.211 294.246 317.453 294.246ZM317.793 292.312C318.559 292.312 319.258 292.129 319.891 291.762C320.523 291.395 320.977 290.953 321.25 290.438V288.141H318.906C317.844 288.141 317.047 288.395 316.516 288.902C315.984 289.41 315.719 289.977 315.719 290.602C315.719 291.156 315.891 291.582 316.234 291.879C316.578 292.168 317.098 292.312 317.793 292.312ZM332.184 299.121C331.574 299.121 330.914 299.035 330.203 298.863C329.492 298.699 328.867 298.473 328.328 298.184L328.926 296.391C329.355 296.617 329.863 296.805 330.449 296.953C331.035 297.102 331.605 297.176 332.16 297.176C333.191 297.176 333.945 296.887 334.422 296.309C334.906 295.73 335.148 294.906 335.148 293.836V292.629C334.734 293.16 334.238 293.562 333.66 293.836C333.082 294.109 332.418 294.246 331.668 294.246C330.637 294.246 329.746 293.992 328.996 293.484C328.246 292.969 327.668 292.254 327.262 291.34C326.863 290.418 326.664 289.352 326.664 288.141V287.895C326.664 286.535 326.863 285.344 327.262 284.32C327.668 283.297 328.246 282.504 328.996 281.941C329.746 281.371 330.645 281.086 331.691 281.086C332.488 281.086 333.188 281.242 333.789 281.555C334.391 281.867 334.895 282.32 335.301 282.914L335.512 281.32H337.457V293.836C337.457 294.93 337.25 295.871 336.836 296.66C336.43 297.449 335.832 298.055 335.043 298.477C334.262 298.906 333.309 299.121 332.184 299.121ZM332.242 292.371C332.938 292.371 333.52 292.215 333.988 291.902C334.457 291.582 334.844 291.133 335.148 290.555V284.719C334.852 284.18 334.465 283.754 333.988 283.441C333.512 283.121 332.938 282.961 332.266 282.961C331.531 282.961 330.918 283.172 330.426 283.594C329.941 284.016 329.578 284.598 329.336 285.34C329.094 286.074 328.973 286.926 328.973 287.895V288.141C328.973 289.414 329.242 290.438 329.781 291.211C330.32 291.984 331.141 292.371 332.242 292.371ZM337.105 283.207L336.203 281.32H339.027V282.797L337.105 283.207ZM345.895 294.246C344.723 294.246 343.703 293.98 342.836 293.449C341.969 292.91 341.297 292.164 340.82 291.211C340.352 290.258 340.117 289.156 340.117 287.906V287.391C340.117 286.188 340.363 285.113 340.855 284.168C341.355 283.215 342.016 282.465 342.836 281.918C343.664 281.363 344.566 281.086 345.543 281.086C346.684 281.086 347.637 281.32 348.402 281.789C349.176 282.258 349.758 282.918 350.148 283.77C350.539 284.613 350.734 285.609 350.734 286.758V288.199H342.508L342.473 288.258C342.488 289.07 342.629 289.793 342.895 290.426C343.168 291.051 343.559 291.543 344.066 291.902C344.574 292.262 345.184 292.441 345.895 292.441C346.676 292.441 347.359 292.332 347.945 292.113C348.539 291.887 349.051 291.578 349.48 291.188L350.383 292.688C349.93 293.125 349.328 293.496 348.578 293.801C347.836 294.098 346.941 294.246 345.895 294.246ZM342.578 286.395H348.426V286.09C348.426 285.48 348.316 284.938 348.098 284.461C347.887 283.977 347.566 283.598 347.137 283.324C346.715 283.043 346.184 282.902 345.543 282.902C345.027 282.902 344.559 283.055 344.137 283.359C343.715 283.656 343.367 284.062 343.094 284.578C342.82 285.094 342.641 285.68 342.555 286.336L342.578 286.395Z" fill="black"/>
<path d="M241.82 458V456.523L243.086 456.348L249.051 440.938H251.031L256.891 456.348L258.145 456.523V458H253.246V456.523L254.535 456.301L253.41 453.16H246.578L245.418 456.301L246.707 456.523V458H241.82ZM247.293 451.227H252.707L250.199 444.289L250.059 443.902H249.988L249.848 444.289L247.293 451.227ZM259.492 462.875V461.387L261.285 461.059V447.137L259.375 446.809V445.32H263.266L263.477 446.867C263.898 446.289 264.41 445.848 265.012 445.543C265.621 445.238 266.324 445.086 267.121 445.086C268.168 445.086 269.062 445.371 269.805 445.941C270.547 446.504 271.113 447.297 271.504 448.32C271.895 449.336 272.09 450.527 272.09 451.895V452.141C272.09 453.359 271.891 454.426 271.492 455.34C271.102 456.254 270.539 456.969 269.805 457.484C269.07 457.992 268.188 458.246 267.156 458.246C266.375 458.246 265.688 458.117 265.094 457.859C264.508 457.594 264.008 457.203 263.594 456.688V461.059L265.609 461.387V462.875H259.492ZM266.441 456.441C267.535 456.441 268.363 456.043 268.926 455.246C269.488 454.449 269.77 453.414 269.77 452.141V451.895C269.77 450.926 269.645 450.074 269.395 449.34C269.145 448.598 268.77 448.016 268.27 447.594C267.777 447.172 267.16 446.961 266.418 446.961C265.762 446.961 265.199 447.109 264.73 447.406C264.262 447.703 263.883 448.109 263.594 448.625V454.801C263.883 455.324 264.258 455.73 264.719 456.02C265.188 456.301 265.762 456.441 266.441 456.441ZM273.531 462.875V461.387L275.324 461.059V447.137L273.414 446.809V445.32H277.305L277.516 446.867C277.938 446.289 278.449 445.848 279.051 445.543C279.66 445.238 280.363 445.086 281.16 445.086C282.207 445.086 283.102 445.371 283.844 445.941C284.586 446.504 285.152 447.297 285.543 448.32C285.934 449.336 286.129 450.527 286.129 451.895V452.141C286.129 453.359 285.93 454.426 285.531 455.34C285.141 456.254 284.578 456.969 283.844 457.484C283.109 457.992 282.227 458.246 281.195 458.246C280.414 458.246 279.727 458.117 279.133 457.859C278.547 457.594 278.047 457.203 277.633 456.688V461.059L279.648 461.387V462.875H273.531ZM280.48 456.441C281.574 456.441 282.402 456.043 282.965 455.246C283.527 454.449 283.809 453.414 283.809 452.141V451.895C283.809 450.926 283.684 450.074 283.434 449.34C283.184 448.598 282.809 448.016 282.309 447.594C281.816 447.172 281.199 446.961 280.457 446.961C279.801 446.961 279.238 447.109 278.77 447.406C278.301 447.703 277.922 448.109 277.633 448.625V454.801C277.922 455.324 278.297 455.73 278.758 456.02C279.227 456.301 279.801 456.441 280.48 456.441ZM293.98 458V456.523L295.891 456.195V442.754L293.98 442.426V440.938H300.109V442.426L298.199 442.754V456.195L300.109 456.523V458H293.98ZM301.938 458V456.523L303.848 456.195V447.137L301.938 446.809V445.32H305.91L306.074 447.207C306.496 446.535 307.023 446.016 307.656 445.648C308.297 445.273 309.023 445.086 309.836 445.086C311.203 445.086 312.262 445.488 313.012 446.293C313.762 447.09 314.137 448.324 314.137 449.996V456.195L316.047 456.523V458H309.918V456.523L311.828 456.195V450.043C311.828 448.926 311.605 448.133 311.16 447.664C310.723 447.195 310.051 446.961 309.145 446.961C308.48 446.961 307.891 447.121 307.375 447.441C306.867 447.762 306.461 448.199 306.156 448.754V456.195L308.066 456.523V458H301.938ZM317.641 458V456.523L319.551 456.195V447.031H317.57V445.32H319.551V443.715C319.551 442.363 319.902 441.32 320.605 440.586C321.316 439.844 322.305 439.473 323.57 439.473C323.836 439.473 324.121 439.496 324.426 439.543C324.738 439.582 325.059 439.641 325.387 439.719L325.105 441.477C324.965 441.445 324.773 441.418 324.531 441.395C324.297 441.371 324.074 441.359 323.863 441.359C323.184 441.359 322.68 441.562 322.352 441.969C322.023 442.367 321.859 442.949 321.859 443.715V445.32H324.625V447.031H321.859V456.195L324.039 456.523V458H317.641ZM331.809 458.246C330.637 458.246 329.625 457.973 328.773 457.426C327.93 456.871 327.277 456.109 326.816 455.141C326.355 454.164 326.125 453.051 326.125 451.801V451.543C326.125 450.293 326.355 449.184 326.816 448.215C327.277 447.238 327.93 446.473 328.773 445.918C329.625 445.363 330.629 445.086 331.785 445.086C332.957 445.086 333.965 445.363 334.809 445.918C335.66 446.473 336.316 447.234 336.777 448.203C337.238 449.172 337.469 450.285 337.469 451.543V451.801C337.469 453.059 337.238 454.176 336.777 455.152C336.316 456.121 335.664 456.879 334.82 457.426C333.977 457.973 332.973 458.246 331.809 458.246ZM331.809 456.441C332.543 456.441 333.156 456.242 333.648 455.844C334.148 455.438 334.523 454.887 334.773 454.191C335.031 453.488 335.16 452.691 335.16 451.801V451.543C335.16 450.652 335.031 449.859 334.773 449.164C334.523 448.461 334.148 447.91 333.648 447.512C333.148 447.105 332.527 446.902 331.785 446.902C331.051 446.902 330.434 447.105 329.934 447.512C329.434 447.91 329.059 448.461 328.809 449.164C328.559 449.859 328.434 450.652 328.434 451.543V451.801C328.434 452.691 328.559 453.488 328.809 454.191C329.059 454.887 329.434 455.438 329.934 455.844C330.441 456.242 331.066 456.441 331.809 456.441Z" fill="black"/>
<rect x="515" y="165" width="64" height="32" rx="16" fill="#C4C4C4"/>
<rect x="519" y="264" width="157" height="40" rx="20" fill="#C4C4C4"/>
<rect x="519" y="168" width="36" height="26" rx="13" fill="#545454"/>
<path d="M552.508 291V289.893L553.94 289.646V279.565L552.508 279.319V278.203H561.982V281.279H560.594L560.4 279.539H555.672V283.705H560.392V285.067H555.672V289.699H560.682L560.875 287.933H562.255V291H552.508ZM563.925 291V289.893L565.357 289.646V282.853L563.925 282.606V281.49H566.904L567.027 282.905C567.344 282.401 567.739 282.012 568.214 281.736C568.694 281.455 569.239 281.314 569.849 281.314C570.874 281.314 571.668 281.616 572.23 282.22C572.793 282.817 573.074 283.743 573.074 284.997V289.646L574.507 289.893V291H569.91V289.893L571.343 289.646V285.032C571.343 284.194 571.176 283.6 570.842 283.248C570.514 282.896 570.01 282.721 569.33 282.721C568.832 282.721 568.39 282.841 568.003 283.081C567.622 283.321 567.317 283.649 567.089 284.065V289.646L568.521 289.893V291H563.925ZM579.824 294.841C579.367 294.841 578.872 294.776 578.339 294.647C577.806 294.524 577.337 294.354 576.933 294.138L577.381 292.793C577.703 292.963 578.084 293.104 578.523 293.215C578.963 293.326 579.391 293.382 579.807 293.382C580.58 293.382 581.146 293.165 581.503 292.731C581.866 292.298 582.048 291.68 582.048 290.877V289.972C581.737 290.37 581.365 290.672 580.932 290.877C580.498 291.082 580 291.185 579.438 291.185C578.664 291.185 577.996 290.994 577.434 290.613C576.871 290.227 576.438 289.69 576.133 289.005C575.834 288.313 575.685 287.514 575.685 286.605V286.421C575.685 285.401 575.834 284.508 576.133 283.74C576.438 282.973 576.871 282.378 577.434 281.956C577.996 281.528 578.67 281.314 579.455 281.314C580.053 281.314 580.577 281.432 581.028 281.666C581.479 281.9 581.857 282.24 582.162 282.686L582.32 281.49H583.779V290.877C583.779 291.697 583.624 292.403 583.313 292.995C583.009 293.587 582.561 294.041 581.969 294.357C581.383 294.68 580.668 294.841 579.824 294.841ZM579.868 289.778C580.39 289.778 580.826 289.661 581.178 289.427C581.529 289.187 581.819 288.85 582.048 288.416V284.039C581.825 283.635 581.535 283.315 581.178 283.081C580.82 282.841 580.39 282.721 579.886 282.721C579.335 282.721 578.875 282.879 578.506 283.195C578.143 283.512 577.87 283.948 577.688 284.505C577.507 285.056 577.416 285.694 577.416 286.421V286.605C577.416 287.561 577.618 288.328 578.022 288.908C578.427 289.488 579.042 289.778 579.868 289.778ZM583.516 282.905L582.839 281.49H584.957V282.598L583.516 282.905ZM585.739 291V289.893L587.172 289.646V278.651L585.739 278.405V277.289H588.903V289.646L590.336 289.893V291H585.739ZM591.514 291V289.893L592.946 289.646V282.853L591.514 282.606V281.49H594.678V289.646L596.11 289.893V291H591.514ZM592.858 279.144V277.289H594.678V279.144H592.858ZM601.155 291.185C600.517 291.185 599.919 291.12 599.362 290.991C598.806 290.862 598.214 290.663 597.587 290.394L597.569 288.135H598.879L599.204 289.497C599.532 289.632 599.849 289.731 600.153 289.796C600.464 289.854 600.798 289.884 601.155 289.884C601.858 289.884 602.362 289.749 602.667 289.479C602.972 289.21 603.124 288.876 603.124 288.478C603.124 288.103 602.969 287.786 602.658 287.528C602.354 287.265 601.797 287.042 600.988 286.86C599.84 286.597 598.993 286.245 598.448 285.806C597.909 285.36 597.64 284.769 597.64 284.03C597.64 283.515 597.789 283.055 598.088 282.65C598.387 282.24 598.803 281.915 599.336 281.675C599.869 281.435 600.49 281.314 601.199 281.314C601.92 281.314 602.535 281.396 603.045 281.561C603.561 281.725 604.009 281.944 604.39 282.22L604.478 284.391H603.177L602.896 283.125C602.69 282.973 602.447 282.855 602.166 282.773C601.885 282.691 601.562 282.65 601.199 282.65C600.66 282.65 600.221 282.776 599.881 283.028C599.547 283.28 599.38 283.597 599.38 283.978C599.38 284.2 599.427 284.394 599.521 284.558C599.62 284.722 599.808 284.871 600.083 285.006C600.358 285.135 600.763 285.264 601.296 285.393C602.62 285.703 603.543 286.099 604.064 286.579C604.592 287.06 604.855 287.651 604.855 288.354C604.855 289.157 604.557 289.831 603.959 290.376C603.367 290.915 602.433 291.185 601.155 291.185ZM606.068 291V289.893L607.501 289.646V278.651L606.068 278.405V277.289H609.232V282.756C609.561 282.299 609.962 281.944 610.437 281.692C610.911 281.44 611.438 281.314 612.019 281.314C613.038 281.314 613.829 281.619 614.392 282.229C614.954 282.838 615.235 283.775 615.235 285.041V289.646L616.668 289.893V291H612.071V289.893L613.504 289.646V285.023C613.504 284.238 613.334 283.658 612.994 283.283C612.66 282.908 612.159 282.721 611.491 282.721C611.017 282.721 610.583 282.835 610.19 283.063C609.804 283.286 609.484 283.591 609.232 283.978V289.646L610.665 289.893V291H606.068Z" fill="black"/>
<path d="M656.59 280.59L652 285.17L647.41 280.59L646 282L652 288L658 282L656.59 280.59Z" fill="black"/>
<rect x="241" y="473" width="435" height="193" rx="32" fill="#C4C4C4" fill-opacity="0.56"/>
</svg>
